<?xml version="1.0" encoding="utf-8"?>
<!-- Generator: Adobe Illustrator 23.0.6, SVG Export Plug-In . SVG Version: 6.00 Build 0)  -->
<svg version="1.1" id="Layer_7" xmlns="http://www.w3.org/2000/svg" xmlns:xlink="http://www.w3.org/1999/xlink" x="0px" y="0px"
	 viewBox="0 0 124.8 41.1" style="enable-background:new 0 0 124.8 41.1;" xml:space="preserve">
<style type="text/css">
	.st0{fill:#A8E2E2;}
</style>
<title>contacts-stroke-l11</title>
<g>
	<path class="st0" d="M124.6,14.2c-0.4-0.1-0.6-0.4-0.8-0.6c0.1-0.4-0.1-0.9-0.5-1.2c-0.9-0.6-1.9-0.9-3-0.9v0.4h-0.1v-0.4h-0.1l0,0
		l0,0c-0.3-0.3-0.7-0.4-1-0.3c-1.4-0.3-2.7-0.8-4-1.5V9.6c-0.1-0.4-0.4-0.8-0.8-0.9c-1.6-0.5-3.2-0.9-4.8-1.1c-0.1,0-0.1,0-0.2,0
		c-0.4-0.1-0.7-0.2-1.2-0.2V7.3l-0.4-0.1c-0.1,0.1-0.2,0.1-0.2,0.2c-0.2-0.1-0.5-0.1-0.7-0.2s-0.3-0.1-0.5-0.1
		c-0.5-0.1-1-0.2-1.5-0.3c-1.3-0.2-2.5-0.4-3.8-0.6c0-0.1,0-0.1,0-0.2h-0.3l-0.1,0.1L100.5,6c-0.1-0.1-0.3-0.2-0.5-0.1
		c-0.1,0.3-0.1,0.7-0.2,1c-0.2,0.3-0.5,0.4-0.8,0.3c0.3,0,0.5-0.1,0.7-0.3c0.1-0.3,0.2-0.7,0.2-1c-1.4-0.3-2.8-0.5-4.2-0.7
		c0.4,0.4,0.7,0.8,1.2,1.1c0.2,0.2,0.5-0.5,0.7,0c-0.2-0.1-0.4,0.3-0.6,0.2l0,0c-0.4-0.3-0.8-0.7-1.1-1l-0.6-0.1
		C95,5.7,94.7,6,94.1,5.6c-0.3-0.2-0.7-0.2-1.1-0.1c-0.1,0.1-0.2,0.1-0.3,0.1V5.5c0.1,0,0.2-0.1,0.3-0.1c0.4-0.1,0.8-0.1,1.1,0.1
		c0.5,0.4,0.8,0.1,1.2-0.2c-1.7-0.3-3.3-0.4-5-0.5v0.1l-0.2-0.1c-0.3,0.2-0.6,0.5-0.9,0.5c0.4,0,0.7-0.2,0.9-0.5l-2.7-0.2V4.5h-0.5
		c0,0.1,0,0.1,0,0.2c0,0,0,0.1,0,0.2l0,0c0-0.1,0-0.2,0-0.3c-1.1-0.2-2.3-0.3-3.6-0.1c0-0.1-0.1-0.1-0.1-0.2h-0.9l-0.7-0.1
		c0.1,0.3,0.2,0.5,0.3,0.5c-0.2,0.1-0.3-0.2-0.4-0.5L77.6,4c-0.1,0-0.3,0-0.4,0c0.1,0.2,0.1,0.5,0.3,0.5c-0.2,0-0.3-0.3-0.3-0.5
		c-0.2-0.1-0.5-0.1-0.7,0c-0.2-0.1-0.5-0.1-0.7,0c0.1,0.2,0.3,0.2,0.4,0.2c-0.2,0.1-0.3,0.1-0.4,0h-0.3L75.1,5
		c-0.3-0.2-0.2-0.6-0.2-0.8h-0.6c0,0,0-0.1,0-0.2C73.2,3.8,72,4.2,71,3.7c-0.2-0.1-0.4,0-0.5,0.1c-0.2,0.4-0.6,0.3-1,0.3
		c-0.8-0.1-1.6,0-2.4,0.3c-0.6,0.2-1.3,0.3-1.9,0.4c-0.2-0.2-0.4-0.3-0.7-0.2V4.5h-0.4L64,4.6h-0.3c-0.4,0.5-1,0-1.5,0.3l0,0
		c-0.1,0-0.1,0-0.2,0c0,0,0,0,0-0.1c-1-0.3-2-0.5-3-0.5v0.1c0.1,0.3,0.1,0.7,0.5,0.3c0-0.2,0.2,0,0.3,0c0.6,0.2,1.2,0,1.8,0.3
		c-0.1,0-0.1,0-0.2,0.1c-0.6-0.2-1.1-0.1-1.7-0.3c-0.1,0-0.2-0.1-0.3,0c-0.4,0.4-0.4,0-0.5-0.3h-0.6l0.1-0.1L58,4.3
		c-0.2,0-0.4-0.3-0.7-0.1c0.3,0.3,0.5,0.8,0.9,0.4c-0.4,0.5-0.7,0-1-0.3L57,4.2c-0.1,0.1-0.1,0-0.3-0.1s-0.3,0-0.4,0.1L55.8,4
		c0,0.2,0.1,0.4,0.2,0.5c-0.1,0-0.2-0.2-0.3-0.5l-1-0.2v0.1V4l-0.2-0.2l-0.2,0.3l0.1,0.1h0.1c0,0.1-0.1,0.2,0,0.3l0,0
		c0,0-0.1-0.2-0.1-0.3l-0.2-0.1l-0.3,0.1c-0.2-0.2-0.4,0-0.6-0.1v0.1C53.1,4,52.8,4,52.6,4.1c-0.3,0.2-0.3-0.1-0.4-0.3H52l-0.5,0.1
		c0.4,0.3,0.8,0.6,1.2,0.6c-0.5,0.1-0.9-0.3-1.3-0.6h-0.7c-0.7-0.2-1.4-0.2-2-0.2h-0.4h-0.2v0.1h-0.3h-0.2C47.5,4,47.3,4.1,47.1,4
		c-0.5,0.1-1,0-1.1-0.6h-0.8l-0.1,0.2l0,0H45l0.2-0.4L45,3.1c-0.3,0-0.5,0.1-0.3,0.5h0.1l-0.2,0.1c-0.1,0.3-0.2,0.4-0.3,0.4
		c0.1,0,0.2-0.1,0.3-0.4c-0.2-0.1-0.4-0.1-0.6-0.1h-0.6c-0.1,0.2-0.2,0.4-0.3,0.3c0.1,0,0.1-0.2,0.2-0.3c-0.1,0-0.3,0-0.4,0.1h-0.2
		c-0.1,0.1-0.1,0.2-0.1,0.1l0.1-0.1V3.6h-0.2h-0.1h-0.1l-0.2,0.1c-0.1,0-0.2-0.1-0.3-0.2h-0.4l-0.2,0.1c-0.2,0.2-0.5,0.2-0.5,0.5
		l-0.1,0.1l-0.1,0.2c0.1,0.2,0.2,0.4,0.1,0.5c0,0,0,0-0.1,0c0-0.1-0.1-0.2-0.1-0.4c-0.1,0-0.2,0.1-0.2,0.2l-0.1,0.1
		c0.1,0.3,0.1,0.6,0.1,0.9l0.6,0.1c0.1,0.1,0.2,0.1,0.3,0.1c0,0,0-0.1-0.1-0.1c0.1,0,0.1,0.1,0.2,0.2h0.3c0.1,0.1,0.2,0.1,0.3,0
		c0,0,0,0-0.1,0c0.1-0.1,0.2-0.1,0.2,0l0.3-0.1c0.8,0.3,1.8,0,2.6,0.4l0.1-0.1c0.1,0.1,0.5,0,0.4,0.3s-0.4,0.3-0.6,0.1
		c-0.3,0.1-0.7,0-0.8,0.2v0.1l-0.1-0.1h-0.4c-0.4,0-0.8,0-1.2-0.1c-0.3,0.1-0.6,0.1-0.9,0H41c-0.3,0-0.6,0.2-0.9-0.1h-0.3
		c-0.2,0.1-0.4,0.4-0.6,0.3c0.1-0.1,0.3-0.2,0.4-0.3c-0.2-0.2-0.5,0-0.7,0l0,0c0-0.1-0.1-0.1-0.2-0.1c-0.7,0.2-1.5,0.6-2.2,0
		c0.6,0.3,1.3,0,2-0.1l-1.1-0.2c-0.3,0.1-0.5,0-0.8-0.1h-0.3l-0.2,0.1h-0.5v0.1c-0.2,0.4-0.4,0.4-0.6,0.2c0.2,0.1,0.4,0,0.5-0.3
		l-0.8-0.1v0.2l0.1,0.1l0,0c-0.7-0.1-1.3-0.1-2,0c-0.1,0.1-0.1,0.1-0.1,0.1s0.1,0,0.1-0.1V6.2h-0.2l-0.1,0.2c-0.2-0.1-0.4,0-0.5-0.3
		h-0.4c-0.1,0.1-0.1,0.2-0.2,0.2l-0.1-0.2l-0.4,0.1c0,0.3,0.1,0.4,0.2,0.3c-0.1,0.1-0.2,0.1-0.3-0.3l-0.3-0.1c0,0.1-0.1,0.1-0.2,0
		h-0.4C29.8,6,29.6,5.9,29.5,6c0,0,0,0,0-0.1l-0.3-0.1c-0.1,0.1-0.2,0.1-0.3,0h-0.4c0,0.1-0.1,0.1-0.2,0h-0.6
		c-0.1,0.1-0.1,0.1-0.1,0.2c0,0,0,0,0-0.1h-0.3V5.8c-0.1,0-0.3-0.1-0.4,0h-0.3c0.1,0.1,0.1,0.1,0.2,0.1c-0.1,0.1-0.1,0-0.2-0.1
		c-0.2-0.1-0.3-0.1-0.5-0.1c-0.2,0.1-0.3,0.1-0.4-0.2c-0.1-0.1-0.3-0.1-0.4,0c0,0,0,0,0-0.1c-0.8-0.2-1.6,0-2.4-0.4h-0.6
		c-0.3,0.1-0.7,0.1-1,0h-0.4c-0.9,0.1-1.8,0-2.6-0.2h-0.5c-0.7,0.1-1.4-0.2-2-0.1c-0.3,0-0.6,0.2-0.9,0.1V4.6c-0.2,0-0.4,0-0.6,0.2
		h-0.4c-0.5,0.2-1,0-1.5,0.1V5l-0.1,0.1c-0.2-0.1-0.1-0.7-0.5-0.5c-0.3,0.1-0.5,0.1-0.8,0.2c-0.2-0.1-0.5,0-0.7,0
		C9.6,5.3,8.8,5.5,8,5.4l0.1,0.8c0.7-0.1,1.3-0.1,1.9,0h0.1v0.1c0.2,0.2,0.6-0.1,0.7,0.4h0.3c0.5-0.2,1.1-0.2,1.6,0
		c0.2-0.3,0.3-0.1,0.4,0c0.8-0.1,1.7-0.1,2.5,0.2c0.2,0,0.2,0.2,0.3,0.3c0.7,0,1.3,0,1.9,0.1h0.3l0.4,0.1c0.7-0.1,1.3-0.1,2,0
		l0.2-0.1c0,0,0,0,0,0.1l0.1,0.1L21,7.4c0-0.5,0.3-0.6,0.6-1v0.1c-0.2,0.3-0.5,0.4-0.5,0.9l0.4,0.2l0.3-0.1V7.4l0.3,0.1l0.1-0.1
		C22.8,7.1,23.4,6.9,24,7s1.2,0.2,1.6,0.5c-0.5-0.2-0.9-0.4-1.4-0.4c-0.7-0.1-1.3,0.1-1.8,0.4l1.1,0.4l0.3-0.1h0.4
		c0.1-0.2,0.2-0.1,0.3,0c0.1-0.1,0.1,0,0.1,0h-0.1C24.4,7.9,24.4,8,24.3,8c-0.9,0.1-1.7,0-2.4-0.1c-0.1,0-0.1-0.1-0.1-0.2h-0.3l0,0
		l-0.1-0.1l-0.5-0.1l-0.5,0.1h-0.7l-0.4,0.2c-0.4,0.5-0.8,0.1-1.2,0.1h-0.2c-0.2,0.4-0.5,0.3-0.8,0.3l-0.6,0.5
		c-0.1,0.2-0.2,0.2-0.3,0.1h-0.4l-0.1,0.1c-0.2,0.4-0.4,0.6-0.8,0.6c-0.1,0-0.3,0-0.3,0.1c-0.2,0.8-0.5,0.3-0.8,0.1l-0.2,0.7
		c0.1,0,0.1,0,0.1,0c0.1,0,0.1,0.1,0.1,0.2h-0.5v0.5l0.1,0.1c-0.4,0-0.8,0-1.1,0c-0.9,0-1.7-0.4-2.6-0.5c-1.5-0.2-3.1-0.2-4.6-0.2
		c-0.8-0.2-1.5,0.2-1.9,0.8c-0.1,0.1-0.2,0.2-0.4,0.2l-0.1,0.2c0,0.5,0,1,0.2,1.4h0.2c0-0.1,0-0.3,0.2-0.3s0.2,0.2,0.2,0.3h0.8
		c0.2-0.1,0.4-0.1,0.6,0h0.2c0.4-0.3,1,0,1.3,0c0.3,0,0.3,0.3,0.3,0.6l0.7,0.1c0,0.2-0.1,0.5-0.1,0.7l0.3,0.2c0.2,0,0.4,0.5,0.5,0.3
		c0.1-0.2,0.2-0.2,0.3,0l0.7,0.2h0.1c0,0.2-0.1,0.4-0.4,0.5v0.6v0.1v0.1l-0.1,0.6c0.2,0.6,0.3,1.3,0.2,2c-0.1,0.6,0.1,1.1,0.6,1.4
		c0.3,0.2,0.5,0.6,0.5,1h0.1c0.2-0.2,0.2-0.2,0.3,0v0.1h0.3l0.1-0.1c0.1,0,0.2,0,0.3,0c0,0.5-0.1,0.9,0.5,1c0.3,0.1,0.6,0.1,0.8,0.3
		c-0.1,0.1-0.2,0.2-0.3,0.2c-0.4,0-0.5,0.4-0.4,0.9c0.3-0.3,0.6-0.5,0.8-0.9c0,0,0,0,0,0.1c-0.2,0.4-0.6,0.6-0.8,0.9l0.1,0.5
		c0.2,0.2,0.3,0.5,0.3,0.8c0,0.2,0,0.3-0.2,0.2c0-0.1,0-0.1,0-0.2h-0.2l-0.1,0.2l0,0c-0.9,0.5-1.8,0.9-2.7,1.2
		c0,0.3-0.1,0.5,0.1,0.7c0.9-0.2,1.7-0.5,2.4-0.9c0.2-0.1,0.4,0,0.6,0.2l-0.1,0.1c-0.1,0-0.3,0.2-0.3,0.3l-0.3,0.2
		c0,0.1,0.1,0.1,0.2,0.1c-0.1,0.1-0.2,0-0.2-0.1c-0.2,0.1-0.3,0.2-0.4,0.4c0.1,0.6-0.1,1.3,0.3,1.8c0.1,0.1,0.1,0.3,0,0.4
		c-0.5,0.7-0.1,1.5,0.1,2.1c0.1,0.4,0.5,0.5,0.8,0.5c-0.4,0.1-0.8,0.1-0.9-0.5c-0.2-0.6-0.6-1.3-0.1-2.1c0.1-0.1,0.1-0.3,0-0.4
		c-0.5-0.6-0.3-1.2-0.3-1.8L10,27.8c-0.5,0.2-0.6,0.8-0.9,1.3l0.1,0.1L9.5,30c0.3,0.6-0.1,1.5,0.3,2c0.4,0.5,1.1,0.4,1.6,0.8
		l0.1,0.1c0.3,0.3,0.7,0.5,1.1,0.6c0.1-0.4,0.2-0.9,0.7-0.8c-0.1-0.2-0.4-0.3-0.6-0.3c0.3,0,0.5,0.1,0.7,0.3
		c0.2,0.1,0.2,0.1,0.3-0.1c0,0,0-0.1,0.1-0.1l0,0l0,0c0.1-0.1,0.1,0,0.2,0.1c0.3,0.2,0.5-0.1,0.8-0.1l0.9-0.1h0.5
		c0-0.4-0.1-0.9-0.1-1.4c0.1,0.4,0.1,0.9,0.1,1.4l0.7,0.3c0.1,0,0.1,0,0.1,0h0.4h0.1h0.3c0.4-0.1,0.9-0.1,1.4,0
		c0.2-0.1,0.5,0.1,0.7-0.2c0.1-1,0.6-0.7,1.1-0.5h0.3c0.3-0.3,0.6-0.3,0.9-0.3v0.1l-0.1,0.1c0.1,0.5,0,1,0.5,1.1l0.1-0.3v0.1
		c0.1,0.2,0.3,0.2,0.5,0.1c0.6-0.3,1.4-0.4,2.1-0.3l0.2-0.1c0.6-0.5,1.3-0.2,1.9-0.3c0.1,0,0.3-0.1,0.4,0.1l0.3,0.1
		c0.6-0.4,1.4-0.5,2.1-0.3c0.1-0.2,0.3-0.4,0.5-0.1l0.3-0.1h0.6h0.1H32c0.1-0.1,0.2-0.1,0.3-0.2l1,0.1c0.2,0,0.4-0.1,0.6-0.2h0.2
		c0.1-0.1,0.1-0.1,0.2-0.1h0.1c0.2,0,0.4,0.1,0.6-0.1l0,0l0,0l0,0c0,0,0,0,0.1,0l0.1,0.1c-0.1,0-0.1-0.1-0.2-0.1
		c-0.3,0.2-0.6-0.2-0.9,0.2c0.4,0.2,0.9,0.3,1.3,0.2v-0.1h0.8c0.1-0.1,0.2-0.2,0.3-0.1c-0.1,0-0.1,0.1-0.2,0.1
		c0.2,0.1,0.3,0.1,0.4,0h0.1c0.1,0,0.1-0.1,0.2-0.1c0,0-0.1,0-0.1,0.1c0.5,0.2,1,0.1,1.5,0h0.3c0.2-0.2,0.4-0.2,0.5-0.2
		c-0.2,0-0.3,0.1-0.5,0.2l0.8,0.2h0.2v-0.2c0.1,0,0.2,0,0.3-0.1c0-0.2,0-0.3,0.2-0.3c0,0,0,0,0.1,0c-0.1,0-0.2,0.1-0.2,0.3
		c0.1,0,0.5,0.1,0.4,0c0.1-0.1,0.2-0.1,0.4-0.1c-0.1,0-0.2,0-0.3,0.1l0.4,0.3l0.3-0.2h0.1l0,0l0.2-0.1v0.1l0.2,0.1
		c0.3,0,0.7,0,1.1,0.1l0.1-0.1l0.2,0.1c0.2-0.1,0.6,0,0.5-0.3c-0.1-0.2-0.4-0.3-0.6-0.2l0,0l-0.6-0.1c0-0.1,0.1-0.2,0.1-0.3l0,0
		c0.6-0.1,1.1-0.2,1.6-0.1c0,0.1,0,0.1,0.1,0.2l0.4,0.2c0.3-0.1,0.2-0.4,0.2-0.7c0-0.2-0.1-0.3-0.1-0.5c0.1,0,0.1,0,0.2,0
		c0,0.1,0,0.3,0.1,0.4c0,0.2,0.1,0.5-0.2,0.7c-0.2,0.4,0.2,0.5,0.3,0.8h0.3l0.2,0.1H46V32c-0.3-0.8-0.2-1,0.7-1
		c0.3,0,0.6-0.2,0.9,0.2h1.1v-0.1c0-0.1-0.3-0.4,0-0.5S49,30.8,49,31c0.2,0.2,0.4,0.6,0.7,0.2c0.1-0.1,0.2,0,0.4,0.1v0.1
		c0.2,0.1,0.3,0.2,0.3,0.4H51c0.3-0.4,0.7-0.3,1-0.4l0.1-0.3h0.2c-0.1-0.4-0.1-0.6,0.3-0.8c-0.1,0.1-0.1,0.3-0.1,0.6
		c0,0.1,0,0.1,0,0.2H53h0.1h0.1l0.1-0.1c0.3,0.1,0.5,0.1,0.7,0l0.6,0.1c0.1-0.2,0.3-0.1,0.4,0.1l0.2,0.2l0.1-0.5l2.9,0.2h1.1
		c0.3-0.1,0.6,0,0.8,0.3l0.8,0.1c0.5-0.1,1-0.1,1.5,0h0.2v0.1h0.3c0.2,0,0.3,0.1,0.5,0l0,0c-0.1,0.1-0.3,0-0.6,0
		c-0.4,0-0.8-0.1-1.2-0.1h-0.3c-0.4,0-0.7,0.5-1,0.4s-0.7,0.1-1-0.1c0,0.4-0.3,0.4-0.5,0.4c-0.6,0.1-1.1,0.1-1.7,0h0.1l0.5-0.1v-0.5
		c0-0.1,0-0.1,0-0.1c-0.3,0.1-1-0.3-0.9,0.7c-0.5,0-0.9,0-1.3-0.2c-0.1,0.5-0.5,0.4-0.8,0.4c-0.5,0.3-1,0.1-1.5,0.5
		c-0.2-0.3-0.5-0.3-0.7-0.3l-0.1,0.1c-0.2,0.1-0.3,0.3-0.5,0.3l-0.6,0.1l0,0h-0.1c0,0,0,0-0.1,0c-0.1,0.1-0.3,0-0.4-0.2L50.1,33v0.2
		l-0.4,0.2v0.1h-0.6c-0.1-0.1-0.2-0.2-0.3-0.3l-0.2-0.1c-0.2,0.1-0.4,0.1-0.5,0.4c0,0.1-0.1,0.1-0.1,0.2c-0.1-0.1-0.2-0.1-0.3-0.1
		c0,0,0-0.1-0.1-0.2l-0.1,0.1c-0.2-0.1-0.3-0.1-0.5,0c0-0.1,0-0.1,0-0.2l-1.1,0.2c0,0.1-0.1,0.1-0.1,0.2c0,0,0,0,0-0.1h-0.4
		l-0.1-0.1h-0.4c-0.1,0.1-0.1,0.2-0.2,0.2l-0.1-0.1h-0.4c0,0.2,0.1,0.5,0.2,0.5C45,34,45,34.6,45.1,35l0.2,0.1l0.1-0.1l-0.1-0.1
		c0.1-0.1,0.2,0,0.2,0.1c0.7,0.1,1.4-0.1,2-0.4c0.2,0,0.3,0.2,0.3,0.4c0.1,0.3,0.4,0.2,0.5,0.5l1.2-0.1v0.1h0.1l0.1-0.1l0,0l0,0
		c0.1-0.1,0.2-0.2,0.3-0.1l-0.1,0.1h0.2c0,0,0,0.1,0.1,0.1h0.2c0.5-0.3,0.9,0,1.3,0c0-0.2,0-0.4,0.2-0.4H52
		c-0.1,0.1-0.1,0.2-0.1,0.4c0.1,0.1,0.3,0.1,0.4,0h0.2c0.1-0.3,0.2-0.2,0.3-0.1c0,0,0,0-0.1,0.1h0.1c0.3,0.2,0.6,0.2,0.9,0.1
		c0.1-0.1,0.1-0.2,0.2-0.1l-0.1,0.1H54l0.8,0.1c0.3,0,0.7-0.3,1-0.1l0.4-0.2c0.2-0.6,0.3-0.8,0.6-0.6c-0.2-0.1-0.2,0.1-0.4,0.6
		c0.1,0,0.3-0.1,0.4,0.1h0.4l0.1-0.1h0.8h0.4c0.3-0.1,0.7-0.1,1.1,0.4l0.2-0.2c0-0.1,0-0.2,0-0.3l0.6,0.1c0,0.1,0.1,0.2,0.1,0.3
		c0.4,0.1,0.9,0.1,1.1-0.2c0-0.1,0.1-0.1,0.1-0.2l0.2,0.1v-0.1c0,0.1,0.1,0.1,0.1,0.3l1.1-0.1v-0.1l0.1,0.1l0.3-0.1
		c1.9,0.1,3.8,0.3,5.7,0.2c1.7-0.1,3.3,0.2,5,0.2c2,0,3.9,0.4,5.8,0.3c0.1-0.4,0.3-0.4,0.6-0.4h0.8c0.7-0.1,1.3-0.1,2,0h0.3
		c0.8-0.1,1.6-0.4,2.3,0.3c0.3,0,0.8-0.3,1,0.4l0.3,0.1l0.3-0.1c0.3-0.6,0.9-0.6,1.4-0.6c0.6,0.1,1.2,0.1,1.8,0.1
		c0.5-0.4,0.9-0.6,1.2,0.2h0.5c-0.1-0.4,0.2-0.9-0.3-1.2c-0.2-0.1,0-0.3,0.1-0.4c0.3-0.2,0.4-0.4,0.5-0.7c-0.1-0.1-0.3-0.1-0.4-0.1
		c-0.5,0.1-0.9-0.3-1.4-0.2c0,0.1,0.1,0.2,0.1,0.3c-0.1-0.1-0.1-0.2-0.2-0.4l-0.4-0.1c0,0-0.1,0.1-0.2,0.1h-0.1
		c-0.1,0-0.1-0.1-0.1-0.1h-0.4h-0.3c-0.2,0-0.5,0.1-0.7-0.1c-0.8-0.1-1.7-0.1-2.5,0c-2.3-0.2-4.6-0.2-6.9-0.3
		c-1.3-0.1-2.7-0.5-4-0.5s-2.5,0-3.7,0c-0.3,0-0.6,0-0.9-0.1c-0.9,0.2-1.8-0.2-2.7-0.3h-0.1l0.1-0.2v-0.1c0,0,0,0,0-0.1l0,0l0,0l0,0
		c0,0.1,0,0.1,0.1,0.2h0.3l0.2-0.8l0,0l-0.1,0.6c0.2,0.4,0.5,0,0.7,0.1c0.1,0.1,0.2,0.1,0.3,0.1c0,0,0,0,0.1,0c0.3,0,0.7,0,0.9,0.3
		c0.4-0.1,0.7-0.3,1.1,0l0.3,0.1c0.2-0.4,0.4,0,0.9-0.1c0,0.1,0,0.1,0,0.2c0.2,0.1,0.5,0.1,0.7,0c0-0.1,0-0.1,0-0.2
		c0.3,0.1,0.7,0.1,1.1,0c0.2-0.3,0.3,0,0.5,0.1l0.2-0.2c0.1,0,0.1,0.1,0.2,0.2l0.4,0.1c1.1-0.3,2.2-0.3,3.3-0.2h0.3
		c0.2-0.1,0.5,0,0.7,0.1c0.4-0.1,0.8-0.1,1.2,0.2h0.3c0.1,0,0.1-0.1,0.1-0.1l0.1,0.1c0.2-0.2,0.4,0,0.6,0h0.1h0.2h0.1
		c0,0,0,0.1,0.1,0.1c0.2,0.1,0.4,0.1,0.6,0c0.2-0.3-0.4-1,0.2-1l0,0c0,0.2,0.1,0.6,0.1,0.8c0.1,0,0.4-0.1,0.6,0.1
		c0.1,0.1,0.2,0.2,0.3,0.2c0,0.1,0,0.1,0,0.2l0.6,0.2l0.2-0.2c0-0.3,0.1-0.6,0.2-0.9c-0.1,0.2-0.1,0.3-0.1,0.5
		c0.2-0.1,0.4,0,0.5,0.1c1.1,0.1,2.2,0.2,3.2,0.4c0.3,0.1,0.5,0,0.7,0.2h0.4l0.2-0.3v-0.6c-0.2-0.1-0.5-0.2-0.4-0.5s0.5-0.1,0.7-0.2
		c0-0.7-0.7-0.5-0.9-1l-0.6-0.2c-1-0.2-2.1-0.4-3.2-0.6l0,0c0.1,0,0.1,0,0.1,0c1.1,0.1,2.1,0.3,3.2,0.6c0.1-0.4-0.2-0.4-0.3-0.4
		l-3.5-0.6c0,0.1,0.1,0.2,0.3,0.3c-0.1-0.1-0.3-0.1-0.4-0.3l-0.1-0.1c-0.1-0.2-0.2-0.3-0.4-0.4c-0.2-0.1-0.5-0.1-0.4-0.3
		c0.1-0.2,0.3-0.4,0.5-0.4c1.3-0.2,2.6-0.3,3.9-0.3c0.5,0,1,0,1.5-0.2v-0.2c0.1-0.1,0.2-0.3,0.2-0.2l0,0c-0.1,0-0.1,0.1-0.1,0.2v0.2
		h0.3c0.2,0,0.5,0,0.7-0.1l0,0c0.3,0.1,0.6,0.1,0.8,0.1c0.1,0.2,0.4,0.2,0.7,0.3c0.3,0.2,0.6,0.3,0.7,0.8c0,0.2,0.3,0.4,0.5,0.4
		l0.3-0.1v-0.1c0-1,0-1.1,0.8-1c0.2,0,0.4-0.1,0.3-0.4c0.2,0,0.4,0,0.6-0.1c0-0.1,0-0.2,0-0.3c0.2,0.1,0.1,0.4,0.1,0.6H97
		c0,0.1,0,0.2,0.1,0.3c0.2,0.2,0.3,0,0.4-0.2c0-0.1,0.1-0.1,0.1-0.2l0,0l0,0c0-0.1,0-0.1,0.1-0.2c0.1,0,0.3,0,0.4,0
		c0,0.1,0.1,0.1,0.1,0.2c0.2,0,0.4,0.2,0.4,0.4c0.2,0,0.4,0.2,0.4,0.4l0.7-0.2c-0.1-0.3-0.2-0.5-0.1-0.9c0.1,0,0.1,0,0.2,0
		c0.3,0.3,0.3,0.7,0.7,0.9c0.2-0.2,0.5,0.1,0.8,0c0-0.5,0.3-0.4,0.6-0.4c0.6,0.1,1.1,0.3,1.6,0.4h0.3c0.1-0.2,0.2-0.2,0.4,0l0.5-0.1
		c0.3-0.5,0.5,0,0.8,0.1l0.3-0.1c0.3-0.5,0.8-0.2,1.2-0.3c-0.2-0.8,2-1,1.5-1.7c1.1-1-0.5-1.4-1.7-1.8c0-0.3-0.1-0.7,0.7-0.3
		c0.3,0.2,0.8,0,1.2,0c0.6-0.1,1-0.2,0.4-0.8c-0.2-0.2-0.4-0.4-0.1-0.6c0-0.1,0.1-0.1,0.1-0.1c0.2-0.1,0.4,0,0.5,0.2
		c0.3,1.1,1.4,1.2,2.4,1.5l0.7-0.3c0.4-0.5,0-1.2,0.3-1.8c-0.2-0.3-0.2-0.8-0.6-1.1c-0.4-0.3-1.1-0.2-1.4-0.7c0-0.1,0-0.1,0-0.2
		l-0.4-0.1l-0.2,0.1c0,0.2-0.1,0.5-0.2,0.5c-0.6-0.4-1.5,0-1.8-0.8c-0.6-0.2-1.3,0-1.7-0.6l-1.5-0.1c-0.1,0.1-0.2,0.1-0.3,0.1
		c0-0.1-0.1-0.3-0.3-0.4h0.1l-0.1-0.4c-0.1,0.1-0.5-0.1-0.4,0.2c0.1,0.2,0.2,0.2,0.3,0.2c-0.2,0-0.4,0.1-0.4-0.2
		c0-0.4,0.2-0.3,0.4-0.3l0.7,0.1l1.9-0.1c0-0.2,0.1-0.2,0.2,0h0.1c0.2-0.1,0.3,0,0.5,0.1c-0.1-0.1-0.2-0.1-0.4,0
		c0.1,0.2,0.3,0.2,0.5,0.2c0,0,0-0.1-0.1-0.1l1.3,0.2v-0.4l0.1,0.1v0.4v0.1c0.5,0.2,0.9-0.2,1.4-0.2c0.7,0,1.3,0,2-0.1
		s1.4-0.2,1.7-1c0.1-0.2,0.1-0.3,0.1-0.5c0.1,0,0.2,0,0.3-0.1c-0.1-0.1-0.2-0.1-0.4-0.2v-0.1c0.1,0.1,0.3,0.1,0.4,0.2l0.3,0.1
		c0.1-0.2,0.3-0.1,0.4,0.1h0.6c0.3-0.5,0.5,0,0.7,0.2h0.3c0.5-0.3,0.9,0,1.3,0c0.1-0.5,0-1-0.1-1.5l0.1-0.3v-0.1c-0.1,0-0.1,0-0.2,0
		c0-0.1-0.1-0.3-0.1-0.4c-0.2-0.6-0.2-1.2-0.1-1.8l-0.3-0.1c0,0.5-0.3,0.6-0.6,0.4c-0.4,0-0.7-0.1-1-0.3h-0.4L115,13l-0.3-0.2
		c-0.7-0.2-1.4-0.4-2.1-0.6c-0.2,0-0.4,0.1-0.6-0.1c-0.2,0-0.4-0.2-0.4-0.4c0-0.4,0-1,0.6-0.5c0.4,0,0.9-0.2,1.2,0.3h0.1
		c0.6,0,1.3-0.3,1.8,0.4h0.3c0.4-0.2,0.3-0.8,0.5-1.2c0-0.1,0-0.1-0.1-0.2c0.1,0,0.1,0.2,0.1,0.3c-0.1,0.4-0.1,0.9-0.5,1.2
		c0,0.3,0.1,0.7,0.5,0.6c-0.1-0.5-0.2-0.7,0.4-0.6c0.5,0.1,0.9,0.3,1.4,0.4c0,0.2,0.1,0.4,0.1,0.6c0,0.1,0,0.1,0.1,0.2H118
		c0,0.3,0,0.6,0.1,0.9c0-0.1,0.1-0.1,0.2-0.2c0.1,0.4,0.1,0.9,0,1.4l0.1,0.3l0.3,0.2c0-0.2,0.1-0.3,0.3-0.3s0.2,0.3,0.2,0.5l0.3,0.1
		h0.2h0.2c0.2,0,0.5-0.1,0.7,0.3l0.3,0.2c0.3-0.5,0.1-1.1,0.1-1.7c0,0.6,0.3,1.2-0.1,1.8c0.2,0.9,0.9,0,1.1,0.7
		c0.2-0.4,0.1-0.8,0.2-1.1c0-0.1,0.1-0.2,0.1-0.2h0.1c0.1,0,0.1,0.1,0.2,0.2h0.3c0.1-0.1,0.3-0.1,0.4-0.1c0.1,0.1,0.2,0.1,0.3,0.1
		c0,0,0,0,0.1,0v-0.1l0.1-0.1h-0.1v-0.2c0.1-0.2,0.2-0.3,0.4-0.3c0.1-0.3,0.4-0.3,0.5-0.5C124.5,14.8,124.5,14.5,124.6,14.2z
		 M10.4,5.1c0.1,0,0.2-0.1,0.4-0.1C10.6,5,10.5,5.1,10.4,5.1z M24.8,5.9c-0.4-0.1-0.7,0-1.1,0.1s-0.6-0.3-1-0.4
		c-0.7-0.1-1.1-0.1-1.4,0.1c0.3-0.3,0.8-0.4,1.5-0.2c0.4,0.1,0.6,0.5,1,0.4s0.8-0.2,1.2-0.1l0,0C25,5.9,24.9,6,24.8,5.9z M46,34.1
		C46.1,34.1,46.1,34.1,46,34.1C46.1,34.1,46,34.1,46,34.1z M45.9,34.2L45.9,34.2C46,34.3,45.8,34.3,45.9,34.2z M52.8,34.1
		C52.9,34,53,34,53,34C53,34.1,52.9,34.1,52.8,34.1z M49.7,34.3L49.7,34.3c0,0,0,0.1,0.2,0.1c0,0,0.1,0,0.1-0.1
		c0,0.1-0.1,0.2-0.1,0.2C49.8,34.6,49.7,34.6,49.7,34.3z M50.7,34.5C50.6,34.5,50.6,34.5,50.7,34.5c-0.1,0-0.2-0.1-0.2-0.2
		c0-0.2,0.2-0.3,0.3-0.3c0.1-0.1,0.2,0,0.2,0h-0.1c-0.2,0-0.3,0.1-0.3,0.2c0,0.1,0,0.1,0,0.1c0,0.1,0.1,0.1,0.2,0.1
		c0.1,0,0.1,0,0.1,0C50.9,34.4,50.8,34.5,50.7,34.5z M51.4,33.4L51.4,33.4c0.2,0.1,0.4,0.1,0.6,0.1C51.8,33.6,51.6,33.5,51.4,33.4z
		 M53.1,34.7c0.1-0.2,0.3-0.2,0.5-0.3v0.1C53.4,34.5,53.3,34.6,53.1,34.7z M59.9,34.5C59.9,34.5,59.9,34.4,59.9,34.5
		c0.1,0.1,0.1,0.2,0.2,0.3C60,34.7,60,34.6,59.9,34.5z M82.3,28.7c0.3,0.4,0,0.8,0.1,1.1c0.1,0,0.1,0,0.1-0.1
		c-0.1,0.2-0.1,0.3-0.3,0.4c-0.1-0.4,0.1-0.8-0.1-1.1C82,28.8,82.1,28.7,82.3,28.7z M75.1,30.1L75.1,30.1c0,0.1,0,0.2,0,0.4
		C75.1,30.4,75.1,30.3,75.1,30.1z M57.5,30.3L57.5,30.3l0.1-0.1l0,0C57.6,30.2,57.5,30.2,57.5,30.3z M12.6,30.9c0,0.1,0,0.1,0,0.1
		s0,0-0.1,0L12.6,30.9C12.5,30.8,12.6,30.8,12.6,30.9L12.6,30.9z M18.5,10c0,0.3-0.1,0.5-0.4,0.6c0.2-0.2,0.3-0.4,0.3-0.7
		C18.3,10,18.4,10,18.5,10z M97.5,7.2c0.1,0.1,0.2,0.2,0.4,0.4l0,0C97.7,7.5,97.5,7.4,97.5,7.2z M98.9,8.4c0,0.1,0,0.1,0,0.2
		c-0.1,0.1-0.3,0.1-0.4,0.1c-0.2,0-0.4-0.1-0.5-0.3c0,0,0,0,0-0.1V8.2c0.1,0.2,0.3,0.3,0.5,0.3C98.7,8.5,98.9,8.7,98.9,8.4z
		 M102.5,9.3C102.5,9.3,102.5,9.4,102.5,9.3C102.5,9.4,102.5,9.4,102.5,9.3C102.5,9.4,102.5,9.3,102.5,9.3z M105.8,11.8
		c0.1,0,0.1-0.1,0.1-0.1l0.1,0.1H105.8L105.8,11.8z M107.3,13.6c0.2,0.1,0,0.4-0.2,0.4H107c0,0,0-0.1-0.1-0.1
		c-0.7-0.3-0.9-1.3-1.7-1.3c-0.1-0.1-0.3-0.2-0.3-0.3c-0.2-0.2-0.6-0.2-0.5-0.6c0.1-0.4,0.5,0,0.7-0.1c0.1-0.1,0.2-0.1,0.3-0.2
		c0,0.2,0,0.4,0,0.6c0,0.1,0.1,0.2,0.2,0.3C106.4,12.3,106.6,13.3,107.3,13.6z M106.9,13.2L106.9,13.2C107,13.1,107,13,107,13
		L106.9,13.2L106.9,13.2z M109.2,13.7c-0.1,0-0.1,0.1-0.1,0.1L109.2,13.7C109.2,13.7,109.2,13.6,109.2,13.7L109.2,13.7z M105.9,15.4
		L105.9,15.4L105.9,15.4L105.9,15.4z M105.3,8.8C105.3,8.9,105.3,8.9,105.3,8.8c0,0.2,0,0.2,0,0.3C105.2,9,105.2,9,105.3,8.8
		C105.2,8.9,105.2,8.9,105.3,8.8c0.1,0.1,0.1,0.2,0.1,0.2C105.3,8.9,105.3,8.9,105.3,8.8z M105.2,9.3L105.2,9.3L105.2,9.3z
		 M104.3,8.7L104.3,8.7L104.3,8.7L104.3,8.7z M94.7,26.7L94.7,26.7C94.7,26.7,94.7,26.7,94.7,26.7z M94.8,27
		C94.9,27,94.9,27,94.8,27C94.9,27,94.9,27,94.8,27C94.9,27,94.9,27,94.8,27z M77,29.9l-0.1-0.1c0.2,0,0.3-0.1,0.3-0.3
		c0-0.1,0-0.1,0-0.2c0.1-0.1,0.1,0.1,0.1,0.2C77.2,29.7,77.1,30,77,29.9z M65.5,31.2c0-0.1,0-0.2,0-0.2h0.2l0,0c0,0.1,0,0.2,0,0.2
		l0.1,0.2c-0.1,0-0.1-0.1-0.1-0.2C65.6,31.2,65.6,31.2,65.5,31.2z M17.3,26.3L17.3,26.3c-0.1-0.1-0.2-0.1-0.2-0.2
		c-0.2-0.4-0.2-0.8,0.1-1.2c0.3-0.2,0.5-0.5,0.6-0.9h0.1c-0.1,0.4-0.3,0.7-0.6,0.9c-0.3,0.3-0.3,0.8-0.1,1.2c0,0.1,0.1,0.2,0.2,0.2
		C17.4,26.4,17.4,26.4,17.3,26.3L17.3,26.3z M12,18.8v-0.1v-0.6V18v-0.6l0,0h0.1l0,0V18v0.1L12,18.8c0,0,0,0.1,0,0.2
		C12,18.9,12,18.9,12,18.8c0,0.1,0,0.1,0,0.2l0,0C12,18.9,12,18.9,12,18.8z M19.2,10L19.2,10L19.2,10C19.3,10,19.3,10,19.2,10z
		 M42.6,12.3c0.1,0.1,0.1,0,0.1,0.1l0,0c-0.1,0-0.2,0-0.3,0.1c0,0,0,0,0-0.1C42.4,12.3,42.5,12.3,42.6,12.3z M53.6,6.8
		c0.1,0.2,0.1,0.4,0.2,0.8c0.1,0.5,0.1,1,0.2,1.5l0,0c0-0.5-0.1-0.9-0.1-1.3C53.7,7.4,53.6,7.1,53.6,6.8L53.6,6.8z M55.7,7L55.7,7
		L55.7,7c-0.1,0.5-0.2,1.2-0.1,1.9c-0.1-0.1-0.1-0.1-0.1-0.2C55.4,8.1,55.5,7.5,55.7,7z M98.3,9.3C98.4,9.2,98.4,9.3,98.3,9.3
		L98.3,9.3z M102.6,10.4c0.1,0,0.2,0,0.2-0.1c0,0.5,0,1,0,1.6c0-0.1-0.1-0.1-0.1-0.2c0-0.1-0.1-0.3-0.2-0.4
		c-0.1-0.2-0.1-0.5-0.2-0.7c0,0,0,0,0-0.1C102.3,10.5,102.4,10.4,102.6,10.4z M74.2,28.4l0.1,0.1C74.2,28.5,74.2,28.5,74.2,28.4z
		 M65.4,30.6c0-0.2,0-0.4,0-0.7c0.1,0,0.1,0,0.2,0c0,0.1,0,0.2,0,0.3c0,0,0,0,0,0.1s0,0.1,0,0.2C65.5,30.5,65.5,30.6,65.4,30.6z
		 M63.4,28.3c0,0,0-0.1,0.1-0.1c0.1,0.2,0,0.2,0,0.2l0,0c0,0,0-0.1,0-0.2C63.5,28.2,63.4,28.2,63.4,28.3z M62.6,29
		c0.1,0,0.2-0.1,0.2-0.3c0.1-0.5,0.1-0.9,0.2-1.5l0.1-0.1c-0.1,0.7-0.1,1.2-0.2,1.5C62.8,28.8,62.7,28.9,62.6,29z M21.1,25
		c-0.2-0.2-0.4-0.3-0.6-0.5h0.3c0.1,0,0.1,0,0.2,0c0,0,0.1,0,0.1,0.1S21.1,24.9,21.1,25z M41.5,11.2L41.5,11.2L41.5,11.2L41.5,11.2z
		 M52.5,7.4L52.5,7.4L52.5,7.4C52.4,7.4,52.4,7.4,52.5,7.4z M63.4,9.1L63.4,9.1l-0.1,0.1l0,0C63.3,9.1,63.3,9.1,63.4,9.1L63.4,9.1z
		 M75,27.8c0.1,0.2,0.1,0.4,0,0.7c-0.1,0.2-0.2,0.4-0.3,0.6c0-0.3,0.2-0.6,0.3-0.8C75.1,28.1,75.1,28,75,27.8z M44.3,28.3
		c0.1-0.2,0.1-0.4,0.3-0.4C44.5,28,44.5,28.1,44.3,28.3C44.4,28.3,44.4,28.3,44.3,28.3z M40.6,27.9c-0.2,0.1-0.2,0.1-0.2,0.4l0,0
		l0,0C40.3,28.1,40.3,27.9,40.6,27.9z M22.4,27.6C22.4,27.6,22.5,27.6,22.4,27.6C22.5,27.6,22.4,27.6,22.4,27.6L22.4,27.6z
		 M29.2,12.9L29.2,12.9L29.2,12.9c0.4-0.3,0.5-0.5,0.6-0.9C29.8,12.4,29.6,12.6,29.2,12.9z M36.2,14.5c-0.1,0.2-0.1,0.4-0.2,0.6l0,0
		C36,14.9,36.1,14.7,36.2,14.5z M40.7,11.4c-0.2,0.1-0.4,0.2-0.6,0.1c0-0.1,0-0.3,0.2-0.3c0.1,0,0.2-0.1,0.2-0.1
		C40.6,11.2,40.6,11.3,40.7,11.4z M41,12.4c0-0.2,0-0.5,0.2-0.5s0.2,0.2,0.2,0.4c0,0.1,0,0.1,0,0.2L41,12.6C41,12.5,41,12.5,41,12.4
		z M61,8.4c0-0.1,0.1-0.1,0.1-0.2c0,0.1,0,0.2-0.1,0.3c-0.2-0.3-0.1-0.6-0.2-0.9l0,0C60.9,7.9,60.8,8.1,61,8.4z M62,8L62,8
		c0,0.1,0,0.2-0.2,0.2c-0.1-0.1-0.2-0.2-0.3-0.3c0,0.1,0.1,0.2,0.3,0.2C61.9,8.1,62,8.1,62,8z M98.8,15.7L98.8,15.7
		c-0.1,0.1-0.3,0.2-0.5,0.3C98.5,15.9,98.6,15.8,98.8,15.7z M100.3,11c0,0.1,0.1,0.1,0.1,0.2l0,0C100.3,11.1,100.3,11.1,100.3,11z
		 M70.8,23.8C70.8,23.8,70.7,23.7,70.8,23.8c-0.1-0.1-0.1-0.1-0.1-0.2c0,0,0.1,0,0.1,0.1S70.8,23.8,70.8,23.8L70.8,23.8z M74.4,14.3
		C74.4,14.2,74.4,14.2,74.4,14.3L74.4,14.3C74.5,14.2,74.5,14.2,74.4,14.3C74.5,14.2,74.4,14.2,74.4,14.3z M76.9,14.1
		c-0.1,0-0.1-0.1-0.1-0.2l0,0C76.9,14,76.9,14,76.9,14.1z M76.2,14.1L76.2,14.1c-0.1,0-0.1-0.1-0.1-0.1h0.1
		C76.2,14,76.2,14,76.2,14.1z M75.2,14.1c0,0.1,0,0.1,0,0.2c-0.1,0-0.2,0-0.2,0v-0.1C75.1,14.1,75.1,14.1,75.2,14.1z M60,12.2
		C60,12.3,60,12.3,60,12.2c0,0.1,0,0.1,0,0.2c-0.2,0-0.2-0.1-0.2-0.3l0,0C59.9,12.1,59.9,12.2,60,12.2z M63.8,14.3
		c-0.2,0-0.4,0-0.5-0.1l0,0c0.1,0,0.1-0.2,0.1-0.3l0,0c0.1-0.2,0.1-0.5,0-0.8l0,0c0.2,0.2,0.3,0.3,0.5,0.4
		C64,13.7,63.9,14,63.8,14.3z M65.8,13.7c0.1,0.1,0.2,0.2,0.1,0.3l-0.1,0.1c-0.1-0.1-0.1-0.2-0.1-0.3c0,0.1,0,0.2,0,0.3h-0.1
		c-0.1-0.1-0.2-0.1-0.4-0.2c0.1,0,0.2,0,0.2-0.1c0.1-0.1,0-0.2-0.1-0.3s-0.2-0.2-0.3-0.3h0.1l0.1-0.1C65.4,13.2,65.6,13.5,65.8,13.7
		z M78.4,14.4c-0.1,0-0.1,0-0.2,0c0-0.1,0.1-0.1,0.1-0.2C78.3,14.3,78.4,14.3,78.4,14.4z M101.5,12.8c-0.2,0-0.5-0.1-0.6-0.3
		c0.1-0.3,0.2-0.4,0.4-0.4s0.4,0,0.5,0.3c0,0.1,0,0.1,0,0.1C101.8,12.6,101.7,12.8,101.5,12.8z M98.9,15.5L98.9,15.5L98.9,15.5
		L98.9,15.5z M68.1,11.7c0,0-0.1,0-0.1,0.1c0-0.2,0-0.3,0.1-0.5C68.3,11.3,68.5,11.6,68.1,11.7z M52.1,8.5L52.1,8.5L52.1,8.5z
		 M52.3,8.7c-0.1-0.1-0.1-0.1-0.1-0.2C52.2,8.6,52.2,8.7,52.3,8.7z M40.8,28c0.1,0.1,0.2,0.2,0.2,0.3l0,0
		C40.9,28.2,40.9,28.1,40.8,28z M33.8,28.4c0-0.1,0-0.1,0-0.2c0-0.2,0-0.4-0.1-0.5h-0.1c0.1,0,0.1,0,0.2,0c0.1,0.2,0.1,0.3,0.1,0.5
		C33.9,28.3,33.9,28.3,33.8,28.4C33.9,28.4,33.8,28.4,33.8,28.4z M27.2,27.4c0.1,0.2,0.2,0.5,0.2,0.7l0,0c0-0.2-0.1-0.3-0.2-0.5
		c-0.1-0.3-0.1-0.5,0-0.8C27.2,27,27.2,27.2,27.2,27.4z M14.5,23.4C14.5,23.4,14.5,23.3,14.5,23.4c0.1,0,0.2,0.2,0.2,0.3l0,0l0,0
		c0,0.1,0,0.1,0,0.2c-0.1,0-0.1-0.1-0.1-0.2h0.1C14.6,23.6,14.6,23.5,14.5,23.4z M15.1,17.6c0,0.1,0,0.2,0,0.3
		c0.1,0.1,0.2,0.2,0.3,0.3c-0.1,0.2-0.3,0.1-0.5-0.1c0.1,0,0.1,0,0.2,0C15.1,17.8,15.1,17.7,15.1,17.6z M16.9,17
		c0,0.1-0.1,0.1-0.1,0.1S16.8,17,16.9,17L16.9,17z M16.9,18.7c0.1,0.1-0.1,0.1-0.1,0.1S16.9,18.8,16.9,18.7z M17.4,18.5L17.4,18.5
		C17.3,18.5,17.3,18.4,17.4,18.5c0-0.1,0-0.2,0-0.3c0-0.1-0.2-0.4-0.3-0.4h0.1c0.2,0,0.2,0.2,0.2,0.4C17.4,18.3,17.4,18.5,17.4,18.5
		z M15.9,17.1c0.1,0,0.1-0.1,0.2-0.1c0,0.2,0,0.4-0.1,0.6c-0.1-0.1-0.1-0.1-0.2-0.1C15.9,17.3,15.9,17.2,15.9,17.1z M15.7,19.1
		c0.1-0.4,0.1-0.9,0.1-1.4c0.1,0,0.1,0,0.2,0c0,0.5-0.1,1-0.1,1.4C15.9,19.1,15.8,19.2,15.7,19.1C15.7,19.2,15.7,19.2,15.7,19.1
		C15.7,19.2,15.7,19.1,15.7,19.1z M17,17.8C17,17.8,17.1,17.8,17,17.8C17.1,17.8,17,17.8,17,17.8z M19.4,23.1c0,0.1,0,0.1,0,0.2
		c0-0.1,0-0.3-0.1-0.4h0.1C19.4,23,19.4,23,19.4,23.1z M15.2,19.3C15,19.5,15,19.9,15,20.2c-0.1,0-0.1,0-0.2-0.1
		C14.8,19.7,14.8,19.4,15.2,19.3z M14.7,24.9c0,0.2,0.1,0.3,0.1,0.4c-0.2,0-0.3-0.1-0.3-0.5c-0.1-0.2-0.1-0.3-0.2-0.4
		C14.5,24.5,14.7,24.6,14.7,24.9z M26.6,26.6C26.7,26.5,26.7,26.6,26.6,26.6L26.6,26.6z M40.4,14.1C40.4,14,40.4,14,40.4,14.1
		L40.4,14.1l0.1,0.1l0,0C40.5,14.1,40.4,14.1,40.4,14.1z M22.9,24.7l0.2,0.1v0.1l-0.2-0.1C22.9,24.8,22.9,24.7,22.9,24.7z
		 M37.4,14.2L37.4,14.2C37.4,14.2,37.5,14.2,37.4,14.2C37.5,14.3,37.4,14.3,37.4,14.2z M36.9,14.6l-0.1,0.1c0-0.1,0-0.2,0-0.3h0.1
		C36.9,14.5,36.9,14.6,36.9,14.6z M31.4,10.5c-0.1,0.2-0.1,0.5-0.1,0.7c0,0.1,0.2,0.5-0.1,0.2c0-0.1,0-0.2,0-0.2
		C31.2,11,31.1,10.6,31.4,10.5C31.3,10.4,31.4,10.4,31.4,10.5z M29,14c0,0.3,0,0.5-0.1,0.7C28.8,14.4,28.8,14.4,29,14z M14.5,17.5
		c0.1,0.2,0.1,0.4,0.3,0.5c-0.3,0-0.4-0.3-0.5-0.5s-0.2-0.3-0.3-0.3C14.2,17.1,14.3,17.2,14.5,17.5z M19.9,24.1v-0.2l0,0V24.1
		L19.9,24.1z M22.4,24.3c0.1,0.1,0.1,0.2,0.1,0.4c0,0,0,0,0-0.1C22.5,24.5,22.5,24.4,22.4,24.3z M23.1,26c0,0.2-0.1,0.4-0.2,0.4
		s-0.1-0.1-0.2-0.1c0.1,0,0.2-0.2,0.2-0.4c0-0.3,0-0.6,0-0.9c0.1,0,0.1,0,0.2,0.1C23.1,25.4,23.1,25.7,23.1,26z M26.6,27.6
		c0,0.2,0,0.4-0.2,0.6c0,0-0.1,0-0.1-0.1C26.5,27.9,26.6,27.7,26.6,27.6z M27.8,27.6L27.8,27.6c0,0.3,0,0.5-0.1,0.7l0,0
		C27.7,28,27.8,27.8,27.8,27.6z M37.4,27.2C37.4,27.2,37.5,27.2,37.4,27.2C37.5,27.2,37.5,27.2,37.4,27.2v0.1V27.2L37.4,27.2z
		 M40.5,28.8c0,0,0.1,0,0.1,0.1C40.6,28.9,40.6,28.9,40.5,28.8L40.5,28.8z M40.9,28.9C40.9,28.9,40.9,28.8,40.9,28.9
		C40.9,28.8,40.9,28.9,40.9,28.9L40.9,28.9z M42.8,28.1c-0.1-0.1-0.2-0.2-0.3-0.3c-0.2-0.2-0.2-0.5,0-0.7c0,0,0.1,0,0.1-0.1
		c-0.1,0.2-0.1,0.4,0.1,0.6c0.1,0.1,0.2,0.2,0.4,0.4C43,28,42.9,28.1,42.8,28.1z M62.1,28.3c0.1-0.1,0.1-0.1,0.2-0.1h0.1
		C62.3,28.2,62.2,28.3,62.1,28.3z M66.2,30c-0.2-0.1-0.3-0.1-0.4,0v-0.1c0.3-0.1,0.6,0,1,0.1C66.6,30.2,66.5,30.2,66.2,30z
		 M70.8,25.8L70.8,25.8c0.1,0.1,0.2,0.2,0.2,0.3l0,0C70.9,26.1,70.9,26,70.8,25.8C70.8,25.9,70.7,25.9,70.8,25.8
		c-0.1,0.2-0.1,0.3,0,0.4l0,0c-0.1,0-0.1,0-0.1,0c0-0.1-0.1-0.2-0.1-0.3C70.6,25.8,70.7,25.8,70.8,25.8z M71.3,26.9L71.3,26.9
		C71.3,26.8,71.3,26.8,71.3,26.9C71.3,26.7,71.4,26.9,71.3,26.9l0.1,0.1c0,0.1-0.1,0.1-0.1,0.1C71.3,27,71.3,27,71.3,26.9z
		 M101.6,14c0-0.1,0-0.1,0-0.2C101.6,13.9,101.6,13.9,101.6,14L101.6,14z M97.9,11.3c0.1-0.1,0.1,0,0.2,0.2c0,0.1-0.1,0.2-0.2,0.3
		s-0.2,0-0.2-0.1C97.8,11.5,97.8,11.4,97.9,11.3z M61.6,8.7L61.6,8.7c-0.1,0-0.1,0-0.2,0.1l0,0C61.5,8.7,61.5,8.7,61.6,8.7z
		 M60.2,6.7L60.2,6.7L60.2,6.7L60.2,6.7L60.2,6.7z M54,10L54,10V9.9l0,0V10z M53,8.1c0,0.2-0.1,0.3-0.1,0.5
		C52.9,8.4,52.9,8.3,53,8.1c0.1-0.4,0-0.7-0.2-0.9V7.1C53.1,7.3,53.2,7.6,53,8.1z M52,10.2c0.1,0,0.3,0,0.4-0.1c0,0.2,0.1,0.3,0,0.5
		c-0.2,0-0.4,0-0.6,0.1c0-0.1,0-0.3,0-0.4C51.9,10.2,51.9,10.2,52,10.2z M45.4,11.1c0,0.2,0,0.4,0,0.6c-0.1,0-0.1,0-0.2,0.1
		c0-0.3,0-0.5,0-0.8C45.2,11.1,45.3,11.2,45.4,11.1z M44.5,11.7L44.5,11.7c0,0.1-0.1,0.1-0.2,0.1c-0.2,0-0.2-0.2-0.2-0.5
		c0-0.1,0-0.3,0-0.4c0.1,0,0.1,0,0.2,0c0,0.1,0,0.2,0,0.3C44.3,11.4,44.3,11.6,44.5,11.7z M41.7,12.4L41.7,12.4c0-0.1,0-0.1,0-0.2
		c0,0,0-0.1,0.1-0.1c0,0.1,0,0.1-0.1,0.2C41.7,12.4,41.7,12.4,41.7,12.4z M39.2,12.6c0.1,0.4-0.2,0.9-0.3,0.9l0,0
		C38.9,13.4,39.2,12.9,39.2,12.6z M36.9,13.6L36.9,13.6L36.9,13.6c0.1-0.1,0.3-0.2,0.3-0.2C37.2,13.4,37.1,13.5,36.9,13.6z
		 M34.7,10.7C34.6,10.7,34.7,10.7,34.7,10.7L34.6,10h0.1C34.7,10,34.7,10.7,34.7,10.7z M33.9,9.5c-0.1-0.1-0.2-0.1-0.3,0.1l-0.2,0.2
		c0-0.1,0.1-0.1,0.1-0.2C33.6,9.4,33.7,9.4,33.9,9.5z M33.4,9.8C33.4,9.8,33.5,9.9,33.4,9.8c-0.1,0.5-0.5,0.7-0.6,1.2
		c0,0.1,0,0.4-0.2,0.4l0,0c0.1,0,0.1-0.2,0.1-0.4C32.8,10.5,33.2,10.2,33.4,9.8z M30.6,14.1c-0.4-0.8-0.4-0.8,0.2-1.2
		c0.2-0.1,0.1-0.3,0.1-0.4c-0.1-0.3-0.1-0.6-0.2-0.9c0-0.1,0-0.2,0.1-0.3c0,0.1,0,0.2,0,0.3c0,0.3,0.1,0.6,0.2,0.9
		c0,0.1,0.1,0.3-0.1,0.4c-0.6,0.4-0.6,0.5-0.2,1.2c0.2,0.3,0.2,0.6,0,0.9c-0.2,0.2-0.3,0.5-0.4,0.7h-0.1c0.1-0.3,0.2-0.5,0.4-0.7
		C30.8,14.7,30.8,14.4,30.6,14.1z M28.5,11.6c0,0.1,0,0.2,0.1,0.3c0.2,0.3,0.3,0.4,0.2,0.7c0-0.2-0.1-0.4-0.2-0.6
		C28.5,11.9,28.5,11.8,28.5,11.6z M13.4,18.4c0-0.1,0.1-0.2,0.2-0.2C13.5,18.2,13.5,18.3,13.4,18.4c0.1,0.1,0,0.2,0.1,0.3h-0.1
		C13.4,18.7,13.4,18.5,13.4,18.4z M17.8,24h0.1l0,0H17.8L17.8,24z M18.3,25.5c-0.1,0-0.1,0-0.1-0.1c0-0.2,0.1-0.6-0.1-0.7
		c0.1,0,0.1-0.1,0.2-0.1c0.4,0,0.2,0.5,0.2,0.8l0,0C18.5,25.4,18.4,25.5,18.3,25.5z M22.4,24.7L22.4,24.7c0,0.1,0,0.1,0,0.2
		C22.4,24.8,22.4,24.8,22.4,24.7z M22.3,26.9c0,0.1,0,0.3,0.1,0.4l0,0c0-0.1,0-0.2,0-0.3c0,0.1,0,0.2-0.1,0.2c0,0,0,0-0.1,0
		C22.2,27.1,22.2,27,22.3,26.9z M22.1,27.5C22.1,27.4,22.1,27.4,22.1,27.5C22.2,27.4,22.2,27.5,22.1,27.5
		C22.2,27.5,22.2,27.5,22.1,27.5C22.2,27.5,22.1,27.5,22.1,27.5z M23.5,26.4c0,0.2,0.3,0.3,1.1,0.3c-0.2-0.5-0.8-0.6-0.9-1.1
		c0.1,0.5,0.7,0.5,0.9,1.1C23.8,26.7,23.5,26.7,23.5,26.4z M27.6,28.6v-0.1c0,0,0,0,0.1,0C27.6,28.5,27.6,28.6,27.6,28.6L27.6,28.6z
		 M34.4,29.1V29l0,0C34.4,29,34.4,29,34.4,29.1L34.4,29.1z M37.6,28L37.6,28c0.1,0.1,0.1,0.2,0.2,0.3l0,0
		C37.7,28.2,37.6,28.1,37.6,28z M39,28.2L39,28.2L39,28.2z M41.6,29.1C41.6,29.1,41.6,29,41.6,29.1C41.6,29,41.6,29,41.6,29.1
		L41.6,29.1L41.6,29.1z M42.9,28.8L42.9,28.8l0.1-0.1C43,28.7,42.9,28.7,42.9,28.8z M44.2,28.6v-0.1c0.1,0.1,0.1,0.1,0.1,0.2v0.1
		C44.3,28.7,44.3,28.7,44.2,28.6z M44.7,27.3c-0.2,0-0.2-0.1-0.2-0.2c0,0,0,0,0-0.1c0,0.1,0.2,0.2,0.2,0.2s0.1,0,0.1-0.1
		s-0.1-0.2-0.2-0.2c0.2,0,0.3,0.2,0.2,0.3C44.8,27.2,44.9,27.3,44.7,27.3z M49.9,27.9L49.7,28v-0.1c0.1,0,0.1-0.1,0.1-0.1L49.9,27.9
		z M55.2,26.6L55.2,26.6C55.2,26.5,55.2,26.5,55.2,26.6c0-0.2-0.1-0.2-0.1-0.2s0,0,0.1,0l0.1,0.1L55.2,26.6z M60,26L60,26
		C60,26.1,60,26.1,60,26c-0.1,0.1-0.1,0.1-0.2,0.1C59.9,26,59.9,26,60,26z M60.2,26.2l0.1,0.1c-0.1,0.1-0.1,0.1-0.1,0.1v-0.1
		C60.2,26.3,60.2,26.2,60.2,26.2z M61.1,28.7c0.2,0.1,0.3-0.1,0.3-0.3C61.4,28.6,61.4,28.9,61.1,28.7z M61,27.6
		c-0.1,0-0.1,0.1-0.1,0.1C60.9,27.6,60.9,27.6,61,27.6z M61,28.6c-0.2-0.2-0.2-0.4-0.2-0.7C60.8,28.1,60.9,28.4,61,28.6z M64.8,29.9
		C64.7,29.9,64.7,29.9,64.8,29.9C64.7,29.9,64.7,29.9,64.8,29.9z M67.4,29.3c0.1,0,0.1-0.1,0.1-0.1l0.1,0.1H67.4L67.4,29.3z
		 M68.4,26.5L68.4,26.5L68.4,26.5c0.1,0.1,0.1,0.1,0.1,0.1C68.4,26.6,68.4,26.5,68.4,26.5C68.3,26.5,68.4,26.5,68.4,26.5z
		 M70.2,26.3L70,26.4l0.2-0.2V26.3L70.2,26.3z M102.4,14c0.1-0.2,0.1-0.5,0.1-0.7c0,0,0,0.1,0.1,0.1C102.6,13.6,102.6,13.8,102.4,14
		L102.4,14z M98.9,14v0.2c-0.2-0.2-0.3-0.5-0.3-0.9c0.2,0.3,0.5,0.5,0.6,0.7H98.9z M99.5,13.4c-0.3-0.2-0.5-0.6-0.3-1
		c0.1,0.2,0.2,0.5,0.3,0.7C99.5,13.2,99.5,13.3,99.5,13.4z M98.8,11c0,0.1-0.1,0.1-0.2,0l0,0c0.1,0,0.2-0.1,0.2-0.1
		S98.8,10.9,98.8,11z M63.9,8.2c-0.1,0.1-0.1,0.2-0.2,0.4h-0.1c0-0.1,0.1-0.2,0.1-0.2c0.1-0.2,0.1-0.4,0.1-0.6
		c-0.1-0.1-0.1-0.1-0.2-0.1c0-0.1,0.1-0.1,0.1-0.1c0.1,0,0.3,0,0.3,0.1C64.1,7.8,64,8,63.9,8.2z M57.2,7.8c0,0.4-0.2,0.8-0.3,1.2
		l0,0c0.1-0.3,0.2-0.6,0.2-1C57.1,7.9,57.2,7.8,57.2,7.8z M54.6,8.6c0.2,0.1,0.3,0.3,0.4,0.5c-0.1,0-0.1,0-0.2,0
		c-0.1-0.2-0.2-0.3-0.4-0.4c-0.1-0.2-0.1-0.4,0-0.5s0.2-0.3,0.4-0.4c-0.1,0.1-0.2,0.2-0.3,0.3C54.4,8.3,54.5,8.5,54.6,8.6z
		 M45.3,10.8h-0.2c0-0.1,0-0.1,0-0.2c0.1-0.1,0.1-0.3,0.2-0.4C45.3,10.4,45.3,10.6,45.3,10.8C45.3,10.9,45.3,10.8,45.3,10.8z
		 M44.3,10.3c0,0.1,0,0.2,0,0.3h-0.2c0-0.1,0-0.1,0-0.2c0-0.2,0.1-0.5-0.1-0.6c0,0,0.1,0,0.2,0C44.5,9.8,44.3,10,44.3,10.3z
		 M37.6,12.7c-0.1-0.1-0.2-0.3-0.3-0.3C37.4,12.4,37.5,12.5,37.6,12.7z M34.7,9.6L34.7,9.6V8.5l0,0V9.6z M31.6,8.5
		c-0.1,0.1-0.2-0.1-0.3-0.2c0.4-0.2,0.8-0.1,1.2-0.1C32.2,8.3,31.9,8.3,31.6,8.5z M30.4,8c0.1,0,0.2,0.1,0.3,0.2c0.1,0,0.2,0,0.2,0
		C30.7,8.3,30.5,8.4,30.4,8z M13.2,16.2C13.2,16.2,13.1,16.2,13.2,16.2C13.1,16.2,13.2,16.2,13.2,16.2z M12.9,16.3
		c0,0.1,0,0.1-0.1,0.2s-0.3,0.1-0.3,0.3h-0.1c0-0.2,0-0.4,0.1-0.6h0.4C12.9,16.2,12.9,16.3,12.9,16.3z M13.1,17.1
		c0-0.3,0.1-0.6,0.1-0.9c0,0,0.1,0.1,0.1,0.2v0.1h0.1c0,0.2,0,0.4-0.1,0.6s-0.2,0.5,0,0.6c-0.1,0-0.1,0-0.2,0
		C12.9,17.6,13,17.3,13.1,17.1z M13.4,25.1c-0.1,0-0.1,0-0.1,0H13.4c0,0,0.1,0,0.1,0.1C13.4,25.2,13.4,25.1,13.4,25.1z M21.5,26.9
		v-0.1c0.4-0.2,0.5-0.6,0.3-1.3c-0.2,0-0.5-0.1-0.6-0.1h-0.1c0.1-0.1,0.2,0,0.3,0c0.2,0,0.4,0.1,0.6,0.1c0,0,0,0,0-0.1
		c0,0,0.1,0,0.1,0.1H22C22.3,26.2,22.1,26.7,21.5,26.9v0.2h-0.1C21.4,27,21.5,27,21.5,26.9z M23.9,30.9c0.1,0.1,0.2,0.3,0.3,0.4
		c-0.1-0.1-0.1-0.2-0.2-0.3C23.9,31,23.9,31,23.9,30.9L23.9,30.9z M37.9,28.7L37.9,28.7L37.9,28.7L37.9,28.7L37.9,28.7z M41.4,30.3
		L41.4,30.3c0,0.1,0,0.1,0,0.1l0,0h-0.1C41.4,30.4,41.4,30.3,41.4,30.3z M46.9,27.6c0.1,0.1,0,0.3,0,0.5h-0.1
		C46.8,28,46.9,27.8,46.9,27.6z M47.3,28.1c0-0.1,0-0.3,0.1-0.5c0-0.1,0-0.3-0.1-0.5c0,0,0,0,0-0.1l0,0c0,0,0,0,0,0.1
		c0.1,0.1,0.2,0.3,0.1,0.5C47.3,27.8,47.4,28,47.3,28.1L47.3,28.1z M47.5,26.6L47.5,26.6C47.6,26.6,47.6,26.6,47.5,26.6L47.5,26.6
		C47.6,26.6,47.6,26.6,47.5,26.6z M57.5,27.2c0-0.1,0.1-0.2,0.1-0.2S57.6,27.1,57.5,27.2c-0.1,0.7-0.1,1,0.3,1.3c0,0,0,0-0.1,0
		s-0.1,0-0.1,0.1C57.3,28.3,57.3,28,57.5,27.2z M68.1,29.4L68.1,29.4c0-0.1,0-0.2,0-0.3C68.1,29.2,68.1,29.3,68.1,29.4L68.1,29.4
		L68.1,29.4z M70.3,27.3L70.3,27.3c0,0.2,0,0.2-0.1,0.3C70.3,27.5,70.3,27.4,70.3,27.3z M85.5,24.6c0.1-0.1,0.1-0.3,0.1-0.4
		c0,0,0,0,0,0.1S85.6,24.4,85.5,24.6C85.6,24.6,85.5,24.6,85.5,24.6z M103.8,11.4c-0.1-0.1-0.2-0.2-0.3-0.3c-0.2-0.1-0.2-0.2,0-0.3
		v0.1c0.1,0,0.2,0.1,0.2,0.2c0,0.1,0,0.2,0,0.2C103.8,11.3,103.8,11.4,103.8,11.4z M97.7,9.7c0,0.1,0,0.3,0,0.6c0,0.1,0,0.1,0,0.2
		c-0.1,0.1-0.1,0.1-0.2,0.2l-0.1,0.1c-0.1,0-0.2,0-0.3-0.1c-0.1-0.1-0.1-0.3,0-0.5s0.2-0.5,0.3-0.7C97.5,9.6,97.6,9.6,97.7,9.7z
		 M92.1,5.5L92.1,5.5C92.2,5.5,92.2,5.5,92.1,5.5C92.2,5.6,92.1,5.5,92.1,5.5z M63.1,8.5C63,8.5,63,8.5,63.1,8.5L63.1,8.5
		c-0.1,0.1-0.2,0.1-0.2,0.1c-0.3-0.1-0.4-0.5-0.3-0.8c0-0.1,0.1-0.2,0.2-0.3l0,0c-0.1,0.1-0.1,0.2-0.1,0.3
		C62.7,8.1,62.8,8.4,63.1,8.5z M52.1,6.8c-0.1,0-0.1,0.1-0.2,0.1C52,6.8,52,6.7,52.1,6.8C52,6.8,52,6.8,52.1,6.8L52.1,6.8z
		 M51.7,6.9L51.7,6.9h0.2C51.8,6.9,51.7,6.9,51.7,6.9z M48.4,9.8L48.4,9.8c0,0.2,0,0.3-0.1,0.4c-0.1-0.1-0.3-0.2-0.5-0.1
		c0,0.1,0,0.1,0,0.2l0,0c0,0,0,0.1-0.1,0.1c-0.1-0.1-0.2-0.1-0.3-0.2c-0.3-0.1-0.7,0-0.9,0.3c-0.2,0.2-0.2,0.6-0.5,0.4
		s-0.4-0.7-0.2-1V9.7c0,0-0.1,0-0.2,0c0.1-0.1,0.2-0.1,0.4-0.1V9.4h0.2l0,0l0.4,0.2C47.3,9.6,47.8,9.7,48.4,9.8z M34.7,8.2L34.7,8.2
		L34.7,8.2L34.7,8.2L34.7,8.2z M27.3,15L27.3,15c0.2,0.5,0.4,1,0.5,1.5h-0.1C27.6,16,27.5,15.5,27.3,15z M20.8,14.7h-0.1
		c0-0.2,0-0.3-0.1-0.4c-0.1-0.3-0.2-0.2-0.3-0.2c0.2-0.2,0.4-0.3,0.5,0.1C20.8,14.3,20.8,14.5,20.8,14.7z M19.1,14.4
		c-0.1-0.2-0.2-0.4-0.2-0.6c0-0.2,0-0.6-0.2-0.6c0-0.1,0.1-0.1,0.2-0.1c0.3,0,0.2,0.4,0.2,0.6c0,0.2,0.1,0.5,0.2,0.7
		C19.2,14.4,19.2,14.4,19.1,14.4z M14.7,13.4C14.7,13.4,14.6,13.4,14.7,13.4c-0.1,0-0.1,0-0.1,0c0-0.1,0-0.2,0-0.3
		C14.7,13.1,14.8,13.2,14.7,13.4L14.7,13.4z M11.3,15.8c0.2-0.3,0.3-0.3,0.3,0.1l0.1,0.1c0.2,0,0.4,0,0.5,0.1
		c-0.1,0.3-0.3,0.3-0.6,0c-0.3,0.2-0.4-0.1-0.5-0.3H11.3z M11.8,17.4c0,0.2,0,0.4-0.2,0.6c0,0.1-0.1,0.1-0.1,0.2
		C11.5,17.9,11.6,17.6,11.8,17.4z M14.6,30.2c0.3-0.1,0.5-0.1,0.7,0c-0.1,0-0.3,0-0.5,0.1c-0.1,0-0.1,0-0.2,0c-0.1,0-0.3,0-0.4-0.1
		C14.3,30.2,14.5,30.2,14.6,30.2z M15.8,30c-0.1,0-0.2-0.1-0.2-0.2v-0.1c0,0.1,0.1,0.2,0.2,0.2c0.1,0,0.1-0.1,0.1-0.2
		C15.9,29.9,15.9,30,15.8,30z M21.5,30.5c0.2,0,0.3,0,0.5-0.1l0,0C21.8,30.5,21.7,30.5,21.5,30.5L21.5,30.5z M24.4,31.7
		c0-0.1-0.1-0.2-0.1-0.3c0,0,0,0,0,0.1C24.3,31.6,24.4,31.7,24.4,31.7C24.4,31.8,24.4,31.7,24.4,31.7z M47.8,27.9
		c0,0.1-0.1,0.2-0.1,0.3c0,0-0.1,0-0.1-0.1C47.7,28.1,47.7,28,47.8,27.9z M53.7,30.1C53.7,30,53.8,30,53.7,30.1c0,0.1,0,0.2,0,0.2
		C53.7,30.2,53.7,30.1,53.7,30.1z M56.4,30C56.5,30,56.5,30,56.4,30c0.1,0.1,0.2,0.2,0.3,0.2c0,0,0,0-0.1,0
		C56.6,30.2,56.5,30.1,56.4,30z M59.4,28.6c0.1-0.3,0.3-0.4,0.4-0.5C59.6,28.2,59.5,28.3,59.4,28.6L59.4,28.6z M65.1,31.9
		c0,0-0.1,0-0.1-0.1C65,31.9,65.1,31.9,65.1,31.9z M69.9,31.1L69.9,31.1v0.1C69.9,31.2,69.9,31.2,69.9,31.1z M70.2,29.5
		c0-0.1,0-0.1,0-0.2c0-0.2,0-0.4-0.1-0.4c-0.9,0.1-0.5-0.8-0.7-1.3c0.1,0.1,0.1,0.2,0.1,0.2c0,0.4,0,0.8,0.7,0.8
		c0.1,0,0.1,0.3,0.1,0.4C70.3,29.2,70.3,29.3,70.2,29.5L70.2,29.5z M76.6,30.8c-0.1,0-0.1-0.1-0.1-0.2c0,0,0,0,0.1,0v0.1
		C76.6,30.7,76.6,30.7,76.6,30.8z M77.2,30.3L77.2,30.3v0.2l0,0V30.3z M85.2,24.8L85.2,24.8L85.2,24.8l0.2,0.1l0,0
		C85.2,24.9,85.2,24.9,85.2,24.8z M85.8,25.9c0.3,0.2,0.5,0.8,0.7,0.9C86.2,26.6,86.1,26.1,85.8,25.9L85.8,25.9z M87.6,27.2
		L87.6,27.2L87.6,27.2z M88.4,24.8c0.1,0.1,0.1,0.3,0.2,0.5C88.5,25.1,88.4,24.9,88.4,24.8L88.4,24.8z M88.6,25.3v0.1
		C88.6,25.4,88.6,25.4,88.6,25.3z M104.4,14.5c0.1-0.1,0.2-0.2,0.3-0.1c0.1,0,0.2,0,0,0.3s0,0.8-0.6,0.9
		C104.2,15.1,104.2,14.8,104.4,14.5z M105,16c0.2-0.3,0.1-0.6,0-1l0,0C105.1,15.4,105.2,15.8,105,16z M105.3,15.8
		C105.3,15.9,105.4,15.9,105.3,15.8L105.3,15.8c0.1-0.1,0.1-0.1,0.1-0.1L105.3,15.8L105.3,15.8L105.3,15.8
		C105.4,15.9,105.3,15.9,105.3,15.8z M107.3,14.8L107.3,14.8L107.3,14.8L107.3,14.8z M109.8,15L109.8,15c0,0-0.1,0-0.2-0.1l0,0
		c0-0.1-0.1-0.2-0.2-0.3v-0.1C109.6,14.5,109.8,14.7,109.8,15z M109.3,10.8c0.2,0,0.5,0.1,0.3,0.5v0.2c-0.2,0.8-0.7,1.4-0.5,2.4
		c0.1,0.3-0.1,0.4-0.2,0.5c0-0.1,0.1-0.2,0-0.3c-0.2-0.9,0.3-1.6,0.5-2.4c-0.5,0.2-1.1-0.1-1.6-0.2c-0.1-0.1-0.1-0.1-0.2-0.2
		c-0.6,0.1-0.7-0.4-0.8-0.9C107.6,10.6,108.4,10.7,109.3,10.8z M105.7,7.7L105.7,7.7c0,0.1-0.1,0.3-0.2,0.3
		C105.6,7.9,105.6,7.8,105.7,7.7z M105.1,7.5L105.1,7.5L105.1,7.5L105.1,7.5z M104.4,7.1c0,0.4,0.2,0.7,0.6,0.7c0,0,0,0-0.1,0
		C104.6,7.8,104.3,7.5,104.4,7.1L104.4,7.1z M103.8,7.3c-0.1,0.2-0.1,0.3-0.2,0.5c0.2,0.2,0.4,0.3,0.3,0.7c0.1,0.1,0.2,0.2,0.2,0.2
		c-0.1,0-0.2,0.1-0.2,0.2c0.1,0.1,0.2,0.3,0.2,0.3c0-0.1-0.1-0.2-0.2-0.2s-0.1,0-0.2-0.1c0-0.2,0-0.5,0-0.7
		c-0.1-0.1-0.2-0.1-0.2-0.1c0-0.1,0.1-0.2,0.1-0.3c-0.1,0.1-0.2,0.1-0.3,0.2C103.5,7.7,103.5,7.4,103.8,7.3z M102.8,8.2
		c0,0.1,0,0.2-0.1,0.4l0,0c-0.2,0-0.3,0.1-0.3,0.2C102.3,8.4,102.4,8.2,102.8,8.2z M100.8,7.6c-0.2,0.2-0.4,0.5-0.6,0.5
		c0.1-0.1,0.2-0.2,0.3-0.3c0.1-0.1,0.2-0.3,0.2-0.4c0-0.2,0.1-0.3,0.3-0.2C100.9,7.4,100.9,7.5,100.8,7.6z M98.2,6.6L98.2,6.6v1
		c0.1,0.1,0.3,0,0.4,0.2c0,0,0.1,0.1,0.1,0.2c-0.1-0.1-0.2-0.1-0.2-0.2c-0.1-0.1-0.2-0.1-0.4-0.2l-0.1-1h-0.2V6.5H98
		C98.1,6.5,98.1,6.6,98.2,6.6z M95.2,6.1L95.2,6.1L95.2,6.1L95.2,6.1L95.2,6.1z M90.8,5.2c0.3,0,0.5,0,0.7,0.1
		C91.3,5.2,91.1,5.2,90.8,5.2c0,0.2-0.2,0.1-0.3,0C90.6,5.2,90.7,5.2,90.8,5.2z M73.9,4.3c0.1,0,0.2,0,0.3,0c0,0.2-0.2,0.2-0.4,0.2
		c-0.6,0.1-0.9,0.2-1,0.5C72.9,4.5,73.2,4.4,73.9,4.3z M57.8,6c0,0.1,0,0.3,0,0.5s0,0.4,0,0.6l0,0c0-0.1,0-0.3,0-0.4
		C57.7,6.4,57.5,6.2,57.8,6z M54.3,4.9c0-0.1-0.1-0.2-0.2-0.2C54.3,4.6,54.3,4.8,54.3,4.9z M54.2,5.1C54.1,5.1,54.1,5.1,54.2,5.1
		C54,5.1,54,5,54,4.9C54,5,54.1,5.1,54.2,5.1z M53.5,4.7c-0.1,0-0.2-0.1-0.3-0.3h0.1C53.4,4.5,53.4,4.6,53.5,4.7z M50.6,5.5
		L50.6,5.5L50.6,5.5z M45,4.8h0.2v0.1C45.1,4.9,45.1,4.9,45,4.8L45,4.8L45,4.8z M41.9,5.2l-0.2,0.1L41.6,5c-0.1,0.1-0.1,0.1-0.1,0.2
		c0,0,0-0.1,0.1-0.2V4.9c0-0.1-0.1-0.2,0-0.3c0-0.1,0,0,0.1,0c0,0.1,0,0.1,0,0.2l0,0L41.8,5h0.5c0-0.3,0.1-0.4,0.2-0.4
		c0,0.1-0.1,0.2-0.1,0.3c0.1,0,0.3,0,0.4,0l0,0l0.4-0.1c0.1-0.1,0.1-0.2,0.2-0.1c0,0-0.1,0.1-0.2,0.1h0.3C43.7,5,43.9,4.9,44.1,5
		v0.6l-1.8-0.1V5.4L41.9,5.2z M44.9,5.9c-0.2-0.1-0.4,0-0.6-0.2C44.5,5.8,44.6,5.8,44.9,5.9L45,5.7V5.5l0.7-0.3c0,0,0,0,0,0.1
		c0.1,0.1,0.3,0.2,0.5,0.1l0.1-0.1h0.3c0,0,0,0.1,0.1,0.1c0.3,0.1,0.6,0.1,0.9,0V5.3l0.2,0.1v0.1c0.4,0.2,0.8,0.1,1.1,0.2H49
		c0.1,0.1,0.1,0.1,0.2,0h0.1l0.2-0.1c0,0,0-0.1,0.1-0.1L50,5.6v0.1h0.3l0.3-0.1c0.2,0.1,0.5,0.2,0.7,0.1c0-0.2-0.4-0.2-0.2-0.5
		c0,0,0,0,0.1,0c0,0.2,0.2,0.3,0.2,0.4l0.2,0.2c0-0.1,0-0.3,0-0.5c0.1,0.1,0,0.3,0,0.6h0.1c0-0.2,0-0.2,0.1-0.4
		c0,0.2-0.1,0.3-0.1,0.4h0.4l0.2-0.3c0-0.2,0-0.5-0.2-0.5c0,0,0,0-0.1,0c0,0,0.1,0,0.2,0c0.2,0.1,0.2,0.3,0.2,0.5l0.1,0.3h0.1h-0.1
		l-0.1-0.4l-0.3,0.3L52.5,6c-0.6,0.1-1.2,0.2-1.8,0.3v0.5c0,0-0.1,0-0.1,0.1V6.3c-0.4,0-0.8,0.1-1.2,0.2h-0.1l0,0h-0.1H49
		c-0.4,0.3-0.7,0-1.1,0.2c-0.1,0.1-0.2,0-0.2-0.1l0,0c0.4-0.2,0.8,0.1,1.1-0.2c-0.5-0.3-0.9-0.2-1.4-0.2c0,0,0,0,0,0.1L45.6,6
		c-0.2,0.1-0.2,0.1-0.3-0.1c0.1,0,0.1,0,0.2,0l-0.3-0.1v0.1l-0.1-0.1L44.9,5.9z M45.2,9.2L45.2,9.2C45.1,9.2,45.1,9.2,45.2,9.2
		L45.2,9.2z M44.6,8.6c0.2,0,0.2,0.2,0.2,0.4l0,0C44.8,8.8,44.7,8.6,44.6,8.6c-0.2,0-0.2,0.4-0.2,0.6C44.4,9,44.3,8.6,44.6,8.6z
		 M43.5,8.1c0,0.1,0,0.2,0.1,0.3c0.3,0.3,0.2-0.4,0.5-0.3c0.1,0.2,0.1,0.4,0.1,0.7c0-0.2,0-0.3-0.1-0.5c-0.2-0.1-0.2,0.7-0.5,0.3
		C43.5,8.4,43.5,8.3,43.5,8.1z M43.6,9.5c-0.2,0.4-0.5,0.6-0.6,1c0,0.1,0,0.1-0.1,0.1v-0.1h-0.1c-0.1-0.1-0.1-0.1-0.1-0.2
		c0-0.3,0-0.5-0.1-0.8h0.2c0.1-0.2,0.2-0.3,0.4-0.3v0.1C43.3,9.4,43.5,9.4,43.6,9.5z M43,8.8c-0.2-0.3-0.3-0.5-0.5-0.5
		C42.7,8.3,42.8,8.5,43,8.8z M40.8,9L40.8,9l0.5,0.1c0.1,0.1,0.1,0.1,0.2,0.1c-0.1,0.3-0.4,0.6-0.6,0.6c-0.2,0-0.3-0.4-0.4-0.7
		C40.6,9.1,40.7,9,40.8,9c-0.1-0.2-0.2-0.2-0.4-0.1l0,0C40.6,8.7,40.7,8.8,40.8,9z M37.5,8.6c-0.1,0-0.1,0.1-0.2,0.1v0.1h0.3h0.2
		h0.1l0,0l0,0c-0.5,0-0.7,0.4-0.8,1c0,0,0-0.1,0-0.2c-0.1,0-0.1,0-0.2,0c-0.1-0.1,0-0.3,0-0.4c0-0.2,0-0.4-0.1-0.5h0.4
		C37.3,8.7,37.4,8.6,37.5,8.6z M27.1,7.7c0.4-0.2,0.8-0.2,1.2-0.2c-0.4,0-0.7,0.1-1.1,0.2l0.2,0.2c0.3,0.1,0.6-0.4,0.9,0L28.6,8
		c-0.4,0.2-0.8,0.2-1.3,0.1C27.1,8.1,27,8,27,7.8l-0.4-0.1h0.1C26.7,7.7,27.1,7.7,27.1,7.7z M26.1,7.7c0-0.1,0.1-0.1,0.1-0.1
		c0.1-0.1,0.1,0,0.2,0c-0.1,0-0.2,0.1-0.2,0.1c0.1,0.1,0.1,0.1,0.2,0.1c-0.3,0.2-0.6,0.4-0.8,0.1H26L26.1,7.7c-0.1,0.1-0.1,0-0.2,0
		H26.1z M25.2,7.8c-0.1,0.2-0.3,0.4-0.4,0H25.2z M19.5,9.3c0.2,0.1,0.3,0,0.4-0.1c0.3-0.5,0.5-0.8,0.9-0.1c0.1,0.1,0.3-0.1,0.5-0.3
		c-0.2,0.3-0.6,0.7-0.6,0.5c-0.4-0.7-0.6-0.4-0.9,0.1c-0.1,0.1-0.3,0.2-0.4,0.1c-0.1,0-0.2,0-0.3,0C19.1,9.2,19.3,9.1,19.5,9.3z
		 M18.3,9.3c0.1-0.2,0-0.3,0.2-0.4c0,0,0,0,0.1,0c-0.1,0.1-0.1,0.2-0.1,0.3c0,0.2,0,0.4,0,0.6h-0.2C18.3,9.6,18.3,9.4,18.3,9.3z
		 M18,10.7c0,0.1,0,0.1,0,0.2c0.2,0.7,0,1.4,0.2,2.1c0.1,0.4,0.1,0.8-0.3,0.9c0.2-0.2,0.1-0.5,0.1-0.8c-0.2-0.7,0-1.4-0.2-2.1
		c0-0.1,0-0.1,0-0.2C17.9,10.8,17.9,10.7,18,10.7z M15.8,10.5c0.1-0.3,0.2-0.3,0.5-0.1c0.2,0.1,0.2,0.2,0.1,0.3h-0.2
		c0,0.1,0.1,0.1,0.1,0.1c-0.1,0-0.1,0.1-0.1,0.1c-0.1,0.1,0,0.2,0.1,0.3c0.3,0.2,0.4,0.4,0.4,0.7c0,0.1,0,0.3,0.1,0.2
		c0.6-0.5,0.4,0.3,0.5,0.5c0.2,0.3,0.2,0.7-0.1,0.9c-0.2,0.2-0.2,0.4-0.1,0.6c-0.1,0-0.2-0.1-0.3-0.2c-0.1-0.2-0.2-0.4-0.4-0.5
		c0-0.1-0.1-0.1-0.1-0.1c-0.1-0.1-0.1-0.3,0-0.4c0.1-0.1,0.2-0.3,0-0.4c-0.1-0.2-0.4-0.2-0.5,0.1s-0.1,0.5-0.2,0.8l0,0
		c0-0.3-0.1-0.4-0.3-0.3c-0.1-0.1-0.3-0.2-0.4-0.4c0.5,0,0.5-0.5,0.6-1c0-0.2,0-0.4,0.1-0.5c0-0.1,0.1-0.2,0.1-0.3l0,0
		C15.7,10.8,15.8,10.6,15.8,10.5z M10.3,16.8c0,0.1-0.2,0.2-0.2,0.2s0-0.2,0-0.3c0-0.1,0.1-0.2,0.2-0.2
		C10.4,16.6,10.4,16.7,10.3,16.8z M10.2,15.7c-0.1,0.1-0.2,0.4-0.4,0.3s-0.1-0.4,0-0.6l0,0c0.2,0,0.5,0,0.6,0.1
		C10.4,15.5,10.3,15.6,10.2,15.7z M12.2,21.6L12.2,21.6c0.1,0.2,0.2,0.4,0.4,0.5c0.1,0.1,0.2,0.2,0.2,0.3l0,0
		c-0.1-0.1-0.1-0.1-0.2-0.2C12.4,22.1,12.3,21.8,12.2,21.6z M11.9,29.9c0,0.1,0,0.2-0.1,0.2C11.9,30,11.9,30,11.9,29.9z M12.9,30.1
		L12.9,30.1c-0.1-0.1-0.2-0.1-0.2,0c0-0.1,0.1-0.1,0.1-0.2L12.9,30.1C12.9,30,12.9,30,12.9,30.1z M21.2,30.4L21.2,30.4
		c0.2,0.3,0.3,0.6,0.6,0.6C21.5,30.9,21.3,30.6,21.2,30.4z M22.7,32.6c-0.1-0.3,0.1-0.6,0.2-0.9l0,0C22.9,32,22.7,32.3,22.7,32.6z
		 M23.5,31.9c-0.1-0.2-0.2-0.5-0.3-0.7c-0.1-0.1-0.1-0.1-0.2-0.2c0.1,0.1,0.2,0.3,0.3,0.4c0.1,0.2,0.2,0.5,0.3,0.7
		C23.6,32,23.5,32,23.5,31.9z M24.8,31.7c0.1,0.1,0.1,0.3,0.1,0.4v0.1C24.9,32,24.9,31.8,24.8,31.7z M26.3,31.7
		c0.1,0,0.2-0.2,0.3-0.2c0.1,0,0.1,0,0.2,0C26.6,31.6,26.4,31.8,26.3,31.7z M37.7,31.5L37.7,31.5L37.7,31.5c0-0.1,0.1-0.1,0.2-0.1
		C37.8,31.4,37.8,31.5,37.7,31.5c0.1,0.1,0.2,0.1,0.3,0.1l0,0l0,0C37.9,31.7,37.8,31.6,37.7,31.5z M45.7,30.6
		C45.7,30.6,45.6,30.6,45.7,30.6c-0.1-0.1-0.1-0.2-0.1-0.3h0.1l0.1-0.1C45.9,30.4,45.9,30.5,45.7,30.6z M47,30.3v-0.1
		c0.1,0,0.1,0,0.2,0c0,0.1,0,0.1-0.1,0.2L47,30.3z M48.5,30.5c-0.1,0.1-0.2,0.5-0.4,0.4s-0.3-0.4-0.3-0.6v-0.1l0,0
		c0,0.3,0.1,0.5,0.3,0.6s0.2,0,0.4-0.4v-0.1C48.5,30.4,48.5,30.5,48.5,30.5z M50.5,30.6C50.5,30.6,50.4,30.7,50.5,30.6
		s0.1-0.4,0.3-0.5C50.6,30.3,50.6,30.5,50.5,30.6z M54.8,30.5c-0.3-0.2-0.6-0.2-0.8-0.2c-0.1,0.1-0.1,0.2-0.2,0.3
		c-0.1,0.1-0.1,0-0.1-0.1h0.1c0.1,0,0.1-0.1,0.1-0.2H54h0.6l-0.1-0.1l0,0C54.7,30.2,54.8,30.3,54.8,30.5
		C54.9,30.5,54.9,30.5,54.8,30.5z M55.5,30.2L55.5,30.2c0.2,0.2,0.3,0.1,0.5,0l0,0C55.8,30.4,55.6,30.4,55.5,30.2z M56.8,30.3
		L56.8,30.3C56.8,30.3,56.8,30.2,56.8,30.3c0.2,0,0.4,0.1,0.5,0l0,0C57.1,30.4,57,30.4,56.8,30.3z M63.5,31.5c0-0.4-0.2-0.8,0.3-1
		l0,0c-0.2,0.3,0,0.7-0.1,1.1C63.7,31.5,63.6,31.5,63.5,31.5L63.5,31.5z M66.4,31.9c0.1-0.1,0.2-0.1,0.4-0.2
		c0.4-0.2,0.7-0.4,0.9,0.2C67.2,32,66.9,31.9,66.4,31.9z M74.4,31.1c0.1,0,0.2-0.1,0.2-0.2C74.6,31,74.6,31.2,74.4,31.1z M76.3,31.4
		L76.3,31.4c0.2,0.2,0.3,0.2,0.5,0.1c0.3-0.3,0.8-0.4,1.2-0.5v0.1c-0.4,0.1-0.9,0.2-1.2,0.5C76.6,31.7,76.5,31.6,76.3,31.4z
		 M78.3,30.9c0-0.1,0.1-0.2,0.2-0.3C78.4,30.8,78.4,30.9,78.3,30.9z M78.9,31.5c0-0.1-0.1-0.1-0.1-0.2c0.1-0.6,0.1-1.2,0-1.7h0.1
		C79,30.2,79,30.9,78.9,31.5z M83.5,30.7C83.2,31,83,30.2,82.9,30s0-0.4-0.1-0.6c0-0.1,0.1-0.3,0.2-0.4c0.2,0.2-0.1,0.5,0.1,0.7
		s0.2,1,0.6,0.7s0.4-0.1,0.6,0.2s0.5,0.6,0.8,0.5l0,0c0,0.1-0.1,0.3-0.2,0.3s-0.3,0-0.4-0.1c0,0,0,0-0.1,0c-0.1-0.1-0.3-0.2-0.3-0.4
		C83.9,30.6,83.8,30.4,83.5,30.7z M86.1,30.6c0.3,0,0.1,0.2,0,0.4H86c-0.3,0-0.5-0.2-0.7-0.3c0-0.1,0-0.2,0-0.4
		c-0.1,0-0.1,0-0.2-0.1v-0.4l0.1-0.2v0.6C85.5,30.2,85.8,30.6,86.1,30.6z M85.3,29.2v0.1l-0.1,0.2v-0.2c-0.5-0.1-0.8-0.5-1.1-0.9
		h-0.2c-0.1-0.1-0.1-0.3,0-0.4H84c-0.1,0.1-0.1,0.3,0,0.3V28h0.1v0.3h0.1C84.5,28.7,84.8,29.2,85.3,29.2z M84.8,27.7
		c0-0.1,0.1-0.3,0.2-0.4v0.1l0,0C84.9,27.6,84.9,27.6,84.8,27.7z M85.5,27.2l0.1-0.1C85.6,27.1,85.6,27.2,85.5,27.2L85.5,27.2z
		 M88.2,27.5c0.1-0.1,0-0.5,0.2-0.4c0,0,0.1,0,0.1,0.1c-0.1,0.1-0.1,0.2-0.1,0.3H88.2L88.2,27.5z M89.3,27.4c0-0.2-0.1-0.4-0.4-0.5
		c-0.2-0.1-0.3-0.3-0.3-0.5c0,0.2,0.2,0.3,0.3,0.4C89.2,26.9,89.3,27.1,89.3,27.4L89.3,27.4z M91.1,27.4L91.1,27.4l0.2-0.1
		c0-0.1,0-0.2,0.1-0.3c0,0.1,0,0.1,0,0.2h0.2l0,0l-0.2,0.1L91.1,27.4z M103.7,16.5L103.7,16.5c0.2,0,0.4,0,0.6,0.1l0,0
		C104.1,16.6,103.9,16.5,103.7,16.5z M104.1,17.6c0.1,0,0.1,0.1,0.2,0.1C104.2,17.7,104.1,17.7,104.1,17.6z M104.8,17.2
		c0,0.2-0.1,0.5-0.3,0.5C104.7,17.6,104.7,17.4,104.8,17.2L104.8,17.2l-0.2-0.1l0,0V17c0-0.1,0-0.2,0.1-0.2L104.8,17.2L104.8,17.2
		L104.8,17.2z M105.5,17.1C105.5,17.1,105.4,17.2,105.5,17.1c-0.1-0.3,0-0.3,0.1-0.3l0,0v0.1C105.6,17,105.6,17.1,105.5,17.1
		l0.2,0.1v-0.1c0,0.1,0.1,0.2,0.1,0.3C105.7,17.3,105.6,17.3,105.5,17.1z M106.8,16.9c-0.4,0-0.5,0.3-0.7,0.5l0,0
		c0.2-0.2,0.2-0.5,0.2-0.8c0.3,0,0.5,0.1,0.8,0c0-0.1,0.1-0.3,0.1-0.4c0.2-0.2,0.2-0.5,0.2-0.8h0.1c0,0.3,0,0.7-0.2,1.1
		c0,0.1-0.1,0.3-0.1,0.4h-0.1c0,0.1,0,0.1,0,0.2h-0.2c0,0,0,0,0,0.1C106.8,17.1,106.8,17,106.8,16.9z M111.8,16.2
		c0.2-0.1,0.4,0,0.5,0v0.1c0.3,0.3,0.6,0.6,0.4,0.9c-0.2,0.4-0.7,0.6-1.1,0.4c-0.5-0.1-0.8-0.5-1.2,0.2c-0.1,0.3-0.7,0.2-1.1,0.1
		H109h-0.1V18l0.1,0.1h-0.1l-0.1-0.2c-0.3-0.2-0.7-0.3-1.1-0.4c-0.2-0.1-0.2-0.2-0.3-0.3h0.1l0.1-0.1c0-0.1,0-0.1,0-0.2
		c0.3-0.3,0.7-0.5,1.1-0.5c0-0.2,0-0.5,0.1-0.7h0.1c-0.1,0.2-0.1,0.5-0.1,0.7h0.4c0.2,0,0.3-0.1,0.3-0.2c0.1,0.2,0,0.5,0,0.7
		c0.2,0.2,0.6,0.3,0.9,0.2c0.1-0.4-0.2-0.6-0.1-1V16l0,0c0.2,0.1,0.1,0.7,0.3,0.6c0.3-0.4,0.6,0.1,0.9,0v-0.2
		C111.6,16.4,111.6,16.4,111.8,16.2c-0.2,0-0.3-0.1-0.3-0.2v-0.1l-0.1-0.1c-0.1-0.2-0.1-0.5-0.3-0.7c0-0.1,0-0.1,0.1-0.1
		C111.6,15.3,111.5,15.9,111.8,16.2z M121.5,12.9c-0.6,0.4-0.4,0.9-0.2,1.3l0,0C121,13.8,120.9,13.2,121.5,12.9v-0.1
		C121.5,12.8,121.6,12.8,121.5,12.9L121.5,12.9z M121.1,12.6c-0.3,0.1-0.6,0.2-0.7-0.3C120.6,12.4,120.8,12.5,121.1,12.6z M121,14.7
		L121,14.7c0,0.1,0,0.1,0,0.2C121,14.8,121,14.7,121,14.7z M121.2,14.6L121.2,14.6c0.2,0.1,0.3,0.1,0.4,0.1v0.1
		C121.4,14.8,121.3,14.7,121.2,14.6z"/>
	<path class="st0" d="M9.1,29.1L9.1,29.1L9.1,29.1L9.1,29.1z"/>
	<path class="st0" d="M90.8,32.8c0.4,0.4,1-0.2,1.3,0.3l0.4-0.1v-0.6L91.2,32l-0.4,0.2C90.8,32.2,90.8,32.8,90.8,32.8z"/>
	<path class="st0" d="M92,31c-0.5-0.4-1.1-0.6-1.8-0.6c0.2,0.5,0.9,0.3,0.9,1h0.1C91.4,31.2,91.8,31.4,92,31z"/>
	<path class="st0" d="M75.5,4h-0.6c0.1,0.3,0,0.6,0.2,0.8L75.5,4z"/>
	<path class="st0" d="M119,15.6c-0.2-0.1-0.2,0.1-0.3,0.3l0.5,0.2C119.2,15.9,119.2,15.7,119,15.6z"/>
	<path class="st0" d="M116,17.1c0.3,0.1,0.4,0.4,0.7,0.2C116.5,17.2,116.4,16.6,116,17.1z"/>
	<path class="st0" d="M115,17c0.1,0.1,0.3,0.2,0.4,0.1C115.3,16.9,115.2,16.9,115,17z"/>
	<path class="st0" d="M119.2,16.5l0.1,0.3c0.2-0.2,0.3-0.4,0.3-0.6l-0.3-0.1L119.2,16.5z"/>
	<path class="st0" d="M109.1,10.9l0.3,0.5C109.6,11,109.4,10.9,109.1,10.9z"/>
	<path class="st0" d="M12.6,30.9C12.6,30.8,12.6,30.8,12.6,30.9C12.6,30.8,12.6,30.9,12.6,30.9z"/>
	<path class="st0" d="M107.1,18.4h0.2C107.3,18.2,107.2,18.2,107.1,18.4z"/>
	<path class="st0" d="M102.3,36.7c-0.8-0.8-1.8-0.5-2.7-0.8c-1.6-0.5-3.5-0.1-4.9-1.6c-0.6,0-1.2-0.5-1.8-0.5
		c-0.1,0.3-0.3,0.5-0.5,0.7c-0.1,0.1-0.3,0.3-0.1,0.4c0.5,0.3,0.2,0.8,0.3,1.2l0.2,0.3c0.3,0.1,0.3,0.3,0.3,0.6l0.5,0.1
		c0.3-0.1,0.6,0,0.8,0.2c0.4,0.1,0.8-0.3,1.2,0.2c0.6,0,1.2,0.1,1.7,0.3h0.1c0.7-0.2,1.4,0.3,2.1,0.3c0.7,0.1,1.4,0.2,2.1,0.4h0.3
		c0.1,0,0.1,0,0.2,0c0.1,0.2,0.2,0.2,0.3,0.2l0,0l0.3,0.1c0.4,0,0.3-0.5,0.5-0.7c0-0.3,0-0.5,0-0.8l-0.6-0.3
		C102.5,37,102.3,36.9,102.3,36.7z"/>
	<path class="st0" d="M44.3,34.3c-0.1,0-0.2-0.3-0.2-0.5l-0.2-0.1l-1.4,0.4c-0.6,0.3-1.3,0.3-1.9,0L40.2,34l-0.3,0.1v0.1
		c0,0,0,0.1,0.1,0.1c-0.1,0.3-0.1,0.6-0.5,0.6l-0.1,0.7c0.4,0.3,0.7,0,1-0.1h0.8h0.6l0.5,0.1c0.2-0.2,0.5-0.2,0.8-0.2l1.1-0.2
		c0.2,0,0.5-0.1,0.8,0C44.9,34.8,45,34.1,44.3,34.3z"/>
	<path class="st0" d="M39.5,34.9c-0.1-0.2-0.2-0.4-0.4-0.4c-0.4,0-0.4-0.4-0.4-0.7h-0.3h-0.6c0.1,0.6-0.4,1.2,0.1,1.8
		c0.2,0.1,0.5,0,0.6-0.2c0.4-0.4,0.6,0.4,0.9,0.2v-0.1L39.5,34.9z"/>
	<path class="st0" d="M103.7,37.4c-0.1-0.1-0.2-0.1-0.4-0.1v0.8l0.5,0.1l0.3-0.3C103.9,37.8,103.8,37.6,103.7,37.4z"/>
	<path class="st0" d="M90.7,36c0.4,0.2,0.8,0.3,1.2,0.2C91.6,35.4,91.2,35.6,90.7,36z"/>
	<path class="st0" d="M47.5,34.7l0.3,0.4C47.8,34.9,47.7,34.7,47.5,34.7z"/>
	<path class="st0" d="M48.8,30.8c-0.2,0,0,0.2,0,0.4h0.3C49,31,49,30.8,48.8,30.8z"/>
	<path class="st0" d="M-0.5,13.2c0.1,0.4,0.2,0.9,0.7,0.7C0,13.4,0,13,0,12.5C-0.2,12.7-0.6,12.8-0.5,13.2z"/>
	<path class="st0" d="M13.9,4.7c-0.5-0.1-1-0.3-1.5,0.1C12.9,4.7,13.4,4.9,13.9,4.7z"/>
	<path class="st0" d="M1.7,14.6c-0.1,0-0.2,0.2-0.2,0.3h0.4C1.9,14.8,1.8,14.6,1.7,14.6z"/>
	<path class="st0" d="M1.2,13.3c0.2,0,0.3-0.1,0.4-0.2C1.4,13.1,1.2,13.2,1.2,13.3z"/>
	<path class="st0" d="M26.2,5.6l-0.4-0.2C25.9,5.7,26,5.8,26.2,5.6z"/>
	<path class="st0" d="M37.3,5.6l0.5-0.1V5.4c0,0.1,0.1,0.1,0.1,0.1c0.1-0.1,0.1,0,0.2,0c0,0-0.1,0-0.1,0.1h0.2l0.2,0.1
		c0.1-0.1,0.2-0.1,0.3-0.1c-0.1,0-0.1,0-0.2,0.1c0.1,0.1,0.1,0.1,0.1,0.1c0.1,0,0.2,0,0.3-0.1c0.5,0.1,0.8,0.1,1.2,0
		c0-0.3,0-0.6-0.1-0.8c-0.2,0-0.4,0-0.6,0.1c-0.2,0.3-0.3,0.3-0.4,0l-0.1-0.1c-0.2,0-0.4,0-0.6-0.4c-0.1,0-0.2,0.1-0.3,0.2v0.1
		l-0.2-0.1l-0.2,0.1L37.3,5v0.1l-0.2,0.1L37,5.5L37.3,5.6L37.3,5.6z"/>
	<path class="st0" d="M39.4,5L39.4,5H39C39.1,5.2,39.3,5.2,39.4,5z"/>
	<path class="st0" d="M57.1,4.2l-0.3-0.1C56.9,4.3,57,4.3,57.1,4.2z"/>
	<path class="st0" d="M35,31.4C35,31.5,35,31.5,35,31.4C35,31.5,35,31.5,35,31.4z"/>
	<path class="st0" d="M47.6,3.7c-0.2-0.2-0.4-0.2-0.5,0.2C47.3,4,47.5,3.9,47.6,3.7z"/>
</g>
</svg>
