<?xml version="1.0" encoding="utf-8"?>
<!-- Generator: Adobe Illustrator 23.0.6, SVG Export Plug-In . SVG Version: 6.00 Build 0)  -->
<svg version="1.1" id="Layer_3" xmlns="http://www.w3.org/2000/svg" xmlns:xlink="http://www.w3.org/1999/xlink" x="0px" y="0px"
	 viewBox="0 0 136.1 43.6" style="enable-background:new 0 0 136.1 43.6;" xml:space="preserve">
<style type="text/css">
	.st0{fill:#91F2ED;}
	.st1{fill:url(#SVGID_1_);}
	.st2{fill:url(#SVGID_2_);}
	.st3{fill:url(#SVGID_3_);}
</style>
<path class="st0" d="M161.9-23c0,0.2,0,0.3,0,0.5C161.9-22.7,161.9-22.8,161.9-23L161.9-23z M156.1-14.1c0-0.2,0-0.3,0-0.5
	C156.1-14.4,156.1-14.3,156.1-14.1c0.1,0,0.2,0,0.3,0.1C156.3-14,156.2-14.1,156.1-14.1z M160.4-13.2L160.4-13.2L160.4-13.2
	L160.4-13.2z M155.9-3.5c0-0.2,0-0.5-0.1-0.7C155.9-4,155.9-3.7,155.9-3.5z M153-10.5c-0.1,0-0.1,0-0.2,0
	C152.9-10.5,152.9-10.5,153-10.5L153-10.5z M156.2-10.1C156.2-10.2,156.2-10.2,156.2-10.1C156.2-10.2,156.2-10.2,156.2-10.1
	L156.2-10.1z M156.2-10.3c0-0.1-0.1-0.2-0.1-0.3C156.2-10.5,156.2-10.4,156.2-10.3z M151.1-10c0-0.1,0-0.3-0.1-0.3l0,0
	C151.1-10.2,151.2-10.1,151.1-10z M155.9-3.1c0-0.1,0-0.2,0-0.3C155.9-3.4,155.9-3.3,155.9-3.1c0.2-0.1,0.4-0.1,0.5,0
	C156.3-3.3,156.1-3.2,155.9-3.1z M160.9-2.9c0.1,0.1,0.2,0.1,0.3,0l0,0C161.1-2.8,161-2.8,160.9-2.9z M164.3-2c0,0.1,0,0.1,0,0.2
	C164.3-1.9,164.3-1.9,164.3-2z M164.3-1.6c0.1,0,0.2,0,0.3,0c0.1-0.3,0.1-0.7,0.2-1c-0.1,0.3-0.1,0.7-0.2,1l0,0
	C164.5-1.6,164.4-1.6,164.3-1.6L164.3-1.6z"/>
<g>
	
		<linearGradient id="SVGID_1_" gradientUnits="userSpaceOnUse" x1="18.034" y1="9.1292" x2="105.6124" y2="9.1292" gradientTransform="matrix(1 0 0 -1 0 46)">
		<stop  offset="0" style="stop-color:#7DD1D1"/>
		<stop  offset="1" style="stop-color:#13B1BC"/>
	</linearGradient>
	<path class="st1" d="M101.7,39c-1-0.5-2.2-0.2-3.2-0.3c-0.2,0-0.4,0-0.5,0s-0.2,0-0.3,0c-0.4,0.1-0.7,0-1-0.2
		c-0.6,0-1.2,0.2-1.7-0.1c-0.3,0.2-0.7,0.1-1,0c-0.3,0-0.7,0-1,0c-0.1,0-0.2-0.1-0.4-0.1c-0.1,0-0.2-0.1-0.3-0.1
		c-0.9-0.1-1.7-0.1-2.6-0.2c-0.1,0-0.2,0-0.4,0c-0.5,0-0.9,0-1.4,0c-0.1-0.1-0.2-0.1-0.3-0.2c-0.2,0-0.5,0-0.7-0.1
		c-0.1,0-0.1,0.1-0.2,0.1v-0.1c-0.3,0-0.7,0-1,0c-0.1,0-0.2,0-0.4,0c-0.1,0-0.2-0.1-0.3-0.1c-0.1,0-0.1,0.1-0.2,0.1
		s-0.1-0.1-0.2-0.1c-0.1,0.1-0.1,0.1-0.2,0.2c-0.2,0-0.4-0.1-0.7-0.1c0,0.2-0.1,0.4-0.1,0.5c0-0.2,0-0.4,0.1-0.5
		c-0.9-0.5-1.9-0.4-2.8-0.2l0,0c-0.3-0.3-0.6-0.2-1-0.2c-0.2-0.1-0.4-0.1-0.7,0c-0.1,0-0.2-0.1-0.3-0.1c-0.5,0.1-1-0.3-1.5-0.1
		c-0.1,0-0.2,0-0.3,0c-0.8-0.3-1.7-0.2-2.6-0.2c-0.2,0-0.5,0-0.7-0.1s-0.3-0.1-0.5,0c-0.1,0-0.2,0-0.3,0c-0.2-0.1-0.5-0.1-0.7-0.2
		c-0.1-0.1-0.2-0.1-0.3,0c-0.1,0-0.2,0-0.4,0c-0.3-0.1-0.6-0.3-0.9-0.2c-0.4,0-0.9-0.1-1.3-0.1c-0.1,0-0.2,0.1-0.3,0.1
		c-0.1-0.1-0.2-0.1-0.3-0.2c-0.1,0.1-0.1,0.1-0.2,0.2c-0.7-0.2-1.5-0.3-2.2,0.1c-0.2,0.1-0.4,0-0.5-0.2c0-0.2-0.1-0.2-0.2,0
		c-0.1,0-0.2,0-0.3,0c-0.1-0.2-0.2-0.2-0.3-0.1c-0.2,0-0.5,0.1-0.7,0c-0.2,0-0.4,0-0.5-0.1c-0.4,0.1-0.8,0.3-1.2-0.1
		c0,0.1,0,0.1,0,0.2c-0.2,0-0.3,0-0.5-0.1c0,0.1-0.1,0.1-0.1,0.1l0.1-0.1c0-0.1,0-0.1,0-0.2c-0.4,0.2-0.7,0.1-1,0c0,0.1,0,0.1,0,0.2
		c-0.1,0-0.2,0-0.3,0c-0.2,0.1-0.4,0.2-0.5,0.3c-0.1,0.2-0.1,0.4-0.2,0.5c0.1-0.2,0.1-0.4,0.2-0.5c0.2-0.1,0.4-0.2,0.5-0.3
		c0-0.1,0-0.1,0-0.2c-0.5,0-0.9,0-1.4,0c0,0.1,0,0.1,0,0.2c-0.1,0-0.2,0-0.3,0l0,0C59.1,36,59.1,36,59,35.9c-0.2,0.1-0.3,0.1-0.5,0
		c-1.8,0.1-3.6,0.3-5.4,0c-0.1,0-0.2,0-0.3,0c-0.2,0.1-0.3,0.2-0.5,0.1c-0.6,0-1.1,0-1.7,0c-0.1,0.1-0.2,0.1-0.3,0
		c-0.6,0-1.2-0.4-1.9,0c-0.6,0.5-1.2,0.1-1.8-0.1c-0.2,0-0.3,0-0.5,0c-0.1,0.1-0.2,0.1-0.3,0c-0.1,0-0.2,0-0.3-0.1
		c-0.4,0.2-0.7,0.3-1,0c-0.1,0-0.2,0-0.3,0c-0.6,0.3-1.2,0-1.7,0.2c0.1,0.1,0.2,0.2,0.3,0.4c0.9,0,1.7,0.1,2.6,0.1
		c0.5-0.1,0.9-0.1,1.4,0.1c0.7,0.1,1.4,0.5,2.1-0.1c0.2,0,0.4-0.1,0.5-0.1c-0.2,0-0.4,0.1-0.5,0.1c-0.7,0.6-1.4,0.2-2.1,0.1
		c-0.5-0.2-0.9-0.2-1.4-0.1c-0.9,0-1.7-0.1-2.6-0.1c-0.1-0.1-0.2-0.2-0.3-0.4c-0.1,0-0.2,0-0.3,0c-0.2,0.1-0.3,0.2-0.5,0.3
		c0.2-0.1,0.4-0.2,0.5-0.3c-0.8,0-1.6-0.1-2.4-0.1c-0.2,0-0.3,0-0.5-0.1c-0.3-0.1-0.6-0.2-0.9-0.4c-0.1,0-0.2,0-0.3,0
		c-0.2,0.2-0.4,0.1-0.5-0.1c-0.1,0-0.2-0.1-0.4-0.1c0,0.1,0,0.1,0,0.2c-0.3-0.1-0.7-0.2-1-0.3c-0.1,0.1-0.1,0.2-0.2,0.2
		c0.1-0.1,0.2-0.1,0.2-0.2c-0.4-0.2-0.7-0.3-1.1-0.1c-0.2-0.1-0.4-0.2-0.6-0.4c-0.1,0-0.2-0.1-0.3-0.1c-0.6,0-1.2,0-1.7,0
		c0-0.1,0-0.1,0-0.2c-0.2,0-0.3-0.1-0.5-0.1c-0.4,0.1-0.8-0.2-1.2-0.2l-0.1-0.1c-0.5,0-0.9,0-1.4,0c-0.1,0-0.2-0.1-0.4-0.1
		c-0.1,0-0.1-0.1-0.2-0.1s-0.2,0-0.3-0.1c-0.1,0-0.2,0-0.4,0.1c0-0.1,0-0.1,0-0.2c-0.2,0-0.5,0-0.7,0s-0.3-0.1-0.5-0.1
		c0-0.1,0-0.1-0.1-0.2c-0.1,0-0.2,0-0.3,0c-0.1,0-0.2,0.1-0.3,0.1c0.1,0.2,0.2,0.3,0.3,0.3c-0.1,0-0.2-0.1-0.3-0.3
		c-0.1,0-0.2,0-0.3,0c0-0.1,0-0.1-0.1-0.2c-0.4-0.1-0.9-0.2-1.3-0.3c-0.2,0-0.3-0.1-0.5-0.1c-0.1,0-0.2,0-0.3,0.1
		c-0.2,0-0.4-0.1-0.5-0.1s-0.2,0-0.3,0c-0.1,0-0.1,0.1-0.2,0.1s-0.2-0.1-0.3-0.1c-0.1,0-0.2,0-0.3,0c-0.3,0-0.6,0-0.9,0.1
		c0-0.1,0-0.1,0-0.2c-0.6-0.1-1.2-0.3-1.8,0c0.4,0.5,0.7,0.7,1.2,0.9c0.2,0.4,0.5,0.4,0.8,0.5c0.5,0,0.8,0.3,1.3,0.4
		c0,0.1,0,0.3,0,0.4c-0.4,0.1-0.8,0.1-1.2-0.1c-0.2,0-0.4,0-0.7-0.1c-0.3,0-0.6,0-0.9,0s-0.7-0.1-0.8,0.3c-0.1,0.5,0.4,0.5,0.7,0.6
		c0.5,0.2,1.1,0.3,1.6,0.5c0.3,0,0.6-0.1,0.9,0.2c0.1,0,0.2,0,0.3,0c0.2,0.1,0.3,0.2,0.5,0.3c0.3,0,0.4,0.4,0.7,0.3
		c0.1,0,0.3,0,0.4,0.1c0.3,0.1,0.6,0.1,0.9,0.2l0,0c0.1,0.2,0.2,0.3,0.4,0.1c0.1,0,0.3,0.1,0.4,0.1l0,0c0.1,0.1,0.1,0.2,0.2,0.4
		c0.1,0,0.2,0,0.3,0.1c0.2-0.1,0.4,0,0.5,0.2c0.1-0.1,0.3-0.1,0.4-0.2c0,0.1,0,0.1,0,0.2c0.1,0,0.2,0,0.3,0c0.2,0,0.3,0,0.5,0.1
		c0.2,0,0.3,0.1,0.5,0.1c0.1,0.1,0.1,0.1,0.2,0.2c0.3,0,0.6,0,0.9,0.1c0.1,0,0.2,0,0.3,0c0.2,0,0.5,0,0.7-0.1c0,0.1,0,0.1,0,0.2
		c0.2,0,0.3,0,0.5,0c0,0.1,0,0.1,0,0.2c0.2,0,0.4-0.1,0.6-0.1c0.7,0.1,1.4,0.2,2.1,0.3c0.2,0,0.4,0,0.6,0.1C34.2,39,34,39,33.8,39
		c0,0.1,0,0.1-0.1,0.2c0.3,0,0.5,0.3,0.9,0.1c0.2,0,0.3,0,0.5,0c0.1,0.1,0.2,0.2,0.4,0.1c0,0.1,0.1,0.1,0.1,0.2
		c0.3,0,0.6-0.1,0.9,0.2c0.3,0,0.7,0.1,1,0.1c0.9-0.1,1.8,0.1,2.8,0.1c0.1,0.1,0.2,0.2,0.4,0.2s0.3,0,0.5,0.1
		c0.1,0.1,0.1,0.2,0.2,0.3c0.1,0,0.2,0,0.3,0c1.7,0.1,3.4,0.2,5,0.3c0.3,0,0.6,0.1,0.8-0.2c0.1,0,0.2,0,0.3-0.1
		c0.2-0.2,0.4-0.2,0.6-0.1c-0.2,0-0.4,0-0.6,0.1c0.6,0.2,1.1,0.5,1.8,0.3c0.4,0,0.9,0,1.3,0.1c0.2,0.1,0.3,0.1,0.5,0
		c0.1,0,0.2,0,0.3,0l0,0c0.7,0.1,1.4,0.2,2.1,0c0.2,0,0.3,0,0.5,0c0.3,0.1,0.7,0.2,1,0.3c0.1,0,0.2,0,0.2,0c0-0.1,0.1-0.2,0.1-0.2
		c0.2,0.1,0.4,0,0.5-0.1c0.2,0.1,0.3,0.2,0.5,0c0.1,0,0.1,0,0.2,0c0.2,0.1,0.3,0.2,0.5,0.3c0.2-0.1,0.3-0.1,0.5-0.2
		c0.1,0,0.2,0,0.2-0.1l0,0c0.1,0.1,0.2,0.1,0.3,0.2c0.5,0,1,0,1.6,0.1c0.1,0,0.2,0,0.3-0.1s0.1-0.2,0.2-0.3
		c-0.1-0.1-0.2-0.2-0.3-0.3c-0.5-0.1-1-0.1-1.5-0.2c-0.2,0-0.3-0.1-0.5-0.1c-0.1,0-0.1,0-0.2,0c0,0.1,0.1,0.3,0.1,0.4
		c0,0.1,0,0.2,0,0.3c0-0.1,0-0.2,0-0.3s-0.1-0.3-0.1-0.4c-0.2-0.3-0.2-0.6-0.1-1c0.1,0,0.2,0,0.3,0c0.3,0,0.6,0,0.9,0
		c0-0.1,0-0.1,0-0.2l0,0c0.1,0.1,0.2,0.1,0.3,0.2c0.1,0,0.2,0,0.3,0s0.2,0,0.4,0c0.1,0,0.2,0,0.3,0c0-0.1,0-0.1,0-0.2
		c0.1,0,0.2,0,0.4,0c0,0.1,0,0.1,0,0.2c0.1,0,0.2,0,0.4-0.1c0.2-0.2,0.5-0.2,0.7-0.2c0.1,0,0.2,0,0.3,0c0.4,0.2,0.9-0.1,1.4,0.2
		c0.1,0,0.1,0,0.2,0h0.1c0.1,0,0.1,0,0.2,0c0.4-0.2,0.7-0.2,1.1,0.1c0.1,0,0.2,0,0.4,0c0.3-0.2,0.6-0.1,0.9-0.1c0.2,0,0.3,0,0.5,0.1
		c0.1,0,0.3,0,0.4,0c0.3,0,0.6,0,0.8,0.1c0.1,0,0.2,0,0.4,0c0.2,0,0.5,0,0.7,0c0.5-0.3,0.9,0,1.4,0c0.2-0.1,0.4-0.1,0.7-0.1
		c0.1,0,0.2-0.1,0.3-0.1c0.1,0,0.3,0,0.4,0v0.1c0.2,0,0.3,0,0.5,0.1c0.2-0.1,0.3-0.1,0.5-0.2c0.1,0,0.1,0.1,0.2,0.1
		c0.2,0,0.3-0.1,0.5-0.1c0.2,0.1,0.4,0.1,0.7,0.2l0,0c0.2,0,0.4,0,0.6,0c0.1,0,0.2,0.1,0.3,0.1c0.1-0.1,0.2-0.2,0.3-0.2
		c-0.1,0-0.2,0.1-0.3,0.2c0.4,0,0.7,0,1.1,0v0.1c0.2,0,0.3,0,0.5,0.1c0.1-0.1,0.1-0.1,0.2-0.2c0,0,0-0.1,0.1-0.1c0,0,0,0.1-0.1,0.1
		c0.2,0,0.3,0.1,0.5,0.1c0.3,0,0.6,0.1,0.9,0.1c0.1,0,0.2,0,0.3,0v-0.1c0.2,0.1,0.5,0.1,0.7-0.1c0.2,0,0.5,0,0.7,0.1
		c0.1,0,0.2,0.1,0.3,0.1c0.1,0,0.1,0.1,0.2,0.1c0.1-0.1,0.1-0.1,0.2-0.2c0.1,0,0.2,0.1,0.4,0.1v0.1c0.4,0,0.8,0,1.2,0
		c0-0.3,0.2-0.6,0.5-0.5c0,0.1,0,0.3,0,0.4c0.1,0,0.3,0.1,0.4,0.1c0.1,0.2,0.3,0.2,0.5,0.1c0.1,0.1,0.2,0.1,0.4,0
		c0.3,0,0.6,0.1,0.9,0.1c0.4,0,0.9-0.6,1.2,0.2c0.2,0,0.3,0,0.5,0.1c0.1-0.1,0.2-0.2,0.4-0.2c0.2,0,0.3,0,0.5,0c0-0.2,0-0.4,0-0.5
		c0.1-0.2,0.2-0.5,0.2-0.7c0.1-0.2,0.1-0.3,0.2-0.5c-0.1,0.2-0.1,0.3-0.2,0.5c0.2,0.2,0.4,0.4,0.7,0.3c0.5-0.2,1-0.2,1.6,0
		s1.2,0.2,1.7,0.1c0.6-0.1,1.1,0,1.7,0.3c0.2,0,0.3,0.1,0.3,0.4c-0.1,0-0.2,0-0.3,0c0,0.1-0.1,0.1-0.1,0.2c0,0.2,0,0.4-0.1,0.6
		c0.2,0,0.4,0.1,0.7,0.1c0.6,0,1.3,0.1,1.9,0.1c0.4-0.2,0.8,0.2,1.2,0.1c0.2,0,0.4,0.1,0.5,0.1c0.3-0.1,0.7-0.1,1-0.2
		c0.3-0.1,0.5-0.1,0.7,0.2c0.2,0,0.3,0.1,0.5,0.1c0.1,0,0.3,0,0.4,0c0.2,0,0.3,0,0.5,0c0.1-0.1,0.2-0.1,0.3,0c0.1,0,0.1,0,0.2,0
		c0-0.7,0.5-0.6,0.9-0.6c0.1-0.2,0.2-0.4,0.3-0.6c1.1-0.2,2.3-0.1,3.4,0c0.7,0.1,0.7,0.1,1.1-0.5C104.3,39,103,38.9,101.7,39z
		 M43.6,39.7c-0.1,0-0.3,0-0.4-0.1C43.3,39.6,43.4,39.7,43.6,39.7C43.6,39.6,43.7,39.6,43.6,39.7C43.7,39.6,43.6,39.6,43.6,39.7z
		 M44.6,39.8c-0.2,0-0.3,0-0.5,0C44.3,39.7,44.4,39.7,44.6,39.8c0.2-0.3,0.3-0.5,0.4-0.4C44.9,39.3,44.8,39.5,44.6,39.8z M56.8,36.4
		c-0.3,0.2-0.7,0.2-1,0.1C56.1,36.6,56.5,36.6,56.8,36.4c0.1,0,0.3-0.1,0.4-0.1C57.1,36.3,57,36.4,56.8,36.4z M58.7,36.5
		c-0.3,0.3-0.5,0.2-0.8,0C58.2,36.7,58.4,36.8,58.7,36.5c0-0.1,0-0.2,0-0.3C58.7,36.3,58.7,36.4,58.7,36.5c0.1,0.1,0.3,0.1,0.4,0.2
		l0,0C59,36.6,58.9,36.6,58.7,36.5z M81.5,38.1C81.5,38.1,81.5,38,81.5,38.1C81.4,38,81.4,38,81.5,38.1L81.5,38.1z"/>
	
		<linearGradient id="SVGID_2_" gradientUnits="userSpaceOnUse" x1="89.9101" y1="5.9707" x2="92.0465" y2="5.9707" gradientTransform="matrix(1 0 0 -1 0 46)">
		<stop  offset="0" style="stop-color:#7DD1D1"/>
		<stop  offset="1" style="stop-color:#13B1BC"/>
	</linearGradient>
	<path class="st2" d="M90.8,39.7c-0.3,0-0.8-0.1-0.9,0.5c0.3,0.1,0.7,0.1,1,0.2c0.3,0,0.6-0.3,0.9,0c0.1,0,0.1,0,0.2,0
		c0-0.2,0-0.4,0.1-0.6C91.6,39.7,91.2,39.6,90.8,39.7z"/>
	
		<linearGradient id="SVGID_3_" gradientUnits="userSpaceOnUse" x1="2.56" y1="27" x2="135.9067" y2="27" gradientTransform="matrix(1 0 0 -1 0 46)">
		<stop  offset="0" style="stop-color:#7DD1D1"/>
		<stop  offset="1" style="stop-color:#13B1BC"/>
	</linearGradient>
	<path class="st3" d="M134.2,32.9c-0.1,0-0.2,0-0.4,0c-0.3-0.4-0.5-0.4-0.8,0c-0.3-0.3-0.5-0.9-1-0.8c-0.2-0.3-0.3-0.3-0.5,0
		c-0.1,0-0.3,0-0.4,0c-0.3-0.1-0.7-0.2-1-0.3H130c-0.2-0.9-0.8-0.5-1.2-0.6c-0.2,0-0.5,0-0.7,0v0.1c-0.1,0-0.2,0-0.4,0
		c-0.1,0-0.2-0.1-0.3-0.1c-0.1,0-0.2,0-0.4,0c-0.2,0.1-0.3,0-0.5-0.1c-0.1,0-0.1,0.1-0.2,0.1c-0.3-0.2-0.6,0.1-0.9-0.3
		c-0.4-0.2-0.9,0.3-1.3-0.2c-1.4,0-2.8-0.2-4.1-0.5c-0.1-0.1-0.2-0.2-0.3-0.1c-0.3,0-0.6-0.2-0.9,0c-0.8-0.6-1.8,0-2.6-0.6
		c-0.2-0.1-0.5-0.1-0.7,0c-0.5,0.2-0.4-0.3-0.4-0.6c-0.1,0-0.3,0-0.4-0.1c0-0.1,0-0.2,0-0.4c-0.1,0-0.1-0.1-0.2-0.1
		c0.1,0,0.1,0.1,0.2,0.1c0.1-0.1,0.3-0.2,0.4-0.3c0.2,0,0.4,0,0.6-0.1c0.1,0,0.2,0,0.3,0c0.2,0.1,0.3,0.1,0.5,0.2
		c0.2,0,0.4,0,0.5-0.1c0.1,0.2,0.3,0.2,0.5,0.2c0.2,0.1,0.3,0.1,0.5,0.2c1.1-0.1,2.2-0.2,3.3-0.3c0.9-0.2,1.7-0.3,2.6-0.1
		c0.1,0,0.2,0,0.3,0c0.3-0.1,0.6-0.2,0.9-0.3v-0.1c0.2,0,0.4-0.1,0.5-0.1c0.2,0,0.5,0,0.7-0.1c0.2,0.1,0.5,0.1,0.7,0.2
		c0.1,0,0.3-0.1,0.4-0.1c0.5-0.3,0.6-1.2,1.2-1.3c0.4-0.3,0.8-0.4,1.2-0.4c0-0.1,0-0.3,0-0.4c-0.4-0.5-1.2,0-1.3-1
		c0.2-0.5,0.6-0.6,1-0.6c1.4,0,2.5,0,3.9-0.2c1.3-0.2,1-0.2,2.3-0.4c0.1-0.1,0.3-0.2-0.1-0.6c-0.1-0.1-1.7-0.3-3.7-0.3
		c-0.1-0.2-0.2-0.2-0.3-0.1c-0.2-0.1-0.4-0.2-0.7-0.1c-0.1,0-0.1,0-0.2,0c-0.2,0-0.5,0-0.7,0c-0.1,0-0.2,0-0.3,0s-0.2,0-0.4,0
		c-0.2-0.3-0.5-0.3-0.8-0.4c-0.1-0.2-0.2-0.1-0.3-0.1c-0.5,0-0.9,0-1.3-0.2c-0.1,0-0.3,0.1-0.4,0.1c0,0.3,0.1,0.7,0.1,1
		c-0.1-0.3-0.1-0.7-0.1-1c-0.2-0.3-0.6-0.4-0.6-1c0.2-0.1,0.3-0.3,0.5-0.4l0,0c0-0.2,0-0.4,0-0.6c-0.4-0.4-0.6-1.3-1.3-0.9
		c-0.1,0-0.2,0-0.3,0c-0.3-0.2-0.7,0.1-1-0.2c-0.3,0-0.6,0-0.9,0c-0.2,0.1-0.5,0.3-0.6-0.2c-0.1-0.7-0.6-0.5-0.9-0.6
		c-0.2-0.5-0.5-0.5-0.9-0.3c-0.3-0.1-0.6-0.1-0.8-0.2c-0.1,0-0.2-0.1-0.3-0.1c-0.2-0.1-0.3-0.2-0.5-0.2c-0.1-0.1-0.2-0.2-0.3-0.2
		c-0.4-0.3-0.5-0.8-0.5-1.3c-0.2-0.1-0.3-0.2-0.5-0.2c-0.5,0.6-1,0.3-1.6,0.4c-0.1,0-0.2,0-0.3,0c-0.3,0-0.6-0.1-0.9-0.1
		c-0.1-0.3-0.2-0.6-0.1-0.9c-0.1,0-0.1,0-0.2,0c-0.5-0.3-1-0.1-1.4,0c-0.3,0-0.7-0.1-1-0.1c-0.1,0-0.2,0.1-0.3,0.1
		c-0.2,0-0.3,0-0.5,0c-0.2,0.1-0.3,0.3-0.5,0.2c-0.1,0-0.2,0-0.3,0c-0.5,0.3-1,0.2-1.5,0c-0.3-0.1-0.5-0.2-0.8,0.1
		c-0.1,0-0.1,0-0.2,0c-0.5-0.1-1-0.1-1.5-0.2c-0.1,0-0.2-0.1-0.4-0.1v0.1c-0.1,0-0.1,0-0.2,0s-0.1-0.1-0.2-0.1c-0.3,0.2-0.7,0-1,0
		c-0.2,0-0.4,0.1-0.5,0.1c-0.2-0.1-0.3-0.1-0.5-0.1c-0.6-0.2-1.3,0.1-1.9-0.3c-0.1,0-0.1,0-0.2,0l0,0h-0.1c-0.9-0.1-1.9-0.2-2.8-0.4
		c-0.2,0-0.5,0-0.7-0.1c0.3,0,0.7-0.1,1-0.1c0.1-0.1,0.2-0.1,0.3,0c0.1,0,0.3,0,0.4,0c0.6,0.1,1.3-0.2,1.9,0.1
		c0.1,0,0.3,0.1,0.4,0.1c0.8-0.2,1.7,0.2,2.4-0.7l0,0c0.1,0,0.2,0,0.3,0.1c0.1,0,0.1,0.1,0.2,0.1l0,0c0.1,0.1,0.2,0.2,0.3,0.3
		c0.3,0,0.6,0.1,0.8,0.4l0,0c0.1-0.2,0.1-0.3,0.2-0.5c0-0.1-0.1-0.1-0.1-0.2c-0.2-0.1-0.4-0.1-0.6-0.1c0.2,0,0.4,0.1,0.6,0.1
		c0,0,0-0.1-0.1-0.1l0,0c0.1,0,0.1,0,0.1-0.1c0.2,0.1,0.5,0.3,0.7,0.1c0.1,0,0.1,0,0.2,0.1c0.1,0,0.1,0,0.2,0
		c0.3,0.4,0.7,0.2,1.1,0.1c0.2-0.2,0.4-0.3,0.6-0.4c-0.2,0.1-0.4,0.3-0.6,0.4c0.1,0,0.2,0.1,0.3,0.1c0.8-0.3,1.6,0,2.4,0
		c0.3-0.1,0.6-0.2,0.9-0.2c0.1,0.1,0.1,0.2,0.2,0.3c0.2,0,0.4,0,0.7,0c0.1,0,0.1-0.1,0.2-0.1c0.6-0.1,1.2,0.6,1.8,0.1
		c0.1,0,0.2,0,0.4,0c0.1,0,0.2,0,0.4,0c0.3,0.1,0.6,0.2,0.9,0c-0.1,0-0.1,0.1-0.1,0.2l0,0l0,0l0,0l0,0c0,0.3-0.2,0.6,0.2,0.7
		c0.4,0.1,0.7,0,0.7-0.6c0.9,0.3,1.9,0.4,2.9,0.3c0.3,0,0.7,0,0.8,0.5c0.5,0,1-0.2,1.4,0.2c0.1-0.2,0.3-0.3,0.5-0.2
		c0.2-0.1,0.5-0.1,0.6,0.2c0.1,0,0.2,0,0.3,0c0.1,0.1,0.1,0.2,0.2,0.3c0.1,0,0.3,0,0.4,0s0.2,0.1,0.3,0.1c0.1-0.1,0.2-0.1,0.4-0.2
		c0.1,0.1,0.1,0.1,0.2,0.2c0-0.2,0-0.4-0.1-0.5c0.3-1,1.1-0.4,1.6-0.6c0.2,0,0.4-0.1,0.5-0.1c0.5,0.2,1,0,1.5-0.3
		c-0.1-0.2-0.2-0.4-0.2-0.6c-0.3,0-0.6,0-0.9-0.1c-0.1,0-0.2,0.1-0.3,0.1c-0.3-0.5-0.5-1.4-0.9-1.3c-0.7,0.1-1.4-0.1-2,0.4
		c-0.3,0-0.4-0.3-0.6-0.5c-0.6-0.3-1.3-0.3-1.7-1.3c-0.2-0.6,0.1-0.9,0-1.4c-0.2,0-0.4-0.1-0.6-0.1c-0.2,0.3-0.3,0.3-0.5,0
		c-0.1,0-0.2,0-0.4,0c-0.2,0.2-0.3,0.1-0.4-0.1c-0.2,0-0.3-0.1-0.5-0.1c-0.4,0.1-0.8,0.2-1.2,0c-0.7-0.1-1.5-0.1-1.5-1.3
		c-0.3-0.1-0.7-0.1-1-0.2c-0.2,0-0.4,0-0.6,0c-0.3,0-0.6,0-0.9,0c-0.4,0.1-0.7,0-1.1-0.1c-0.3,0-0.6,0-0.9,0c-0.1,0-0.2,0-0.3,0
		c-0.1-0.1-0.2-0.2-0.4-0.2h-0.1c0,0,0,0-0.1,0c0,0,0,0,0.1,0c-0.3-0.1-0.5-0.2-0.8-0.3c-0.1,0-0.2,0-0.3,0
		c-0.1-0.1-0.2-0.1-0.4-0.2c-0.2,0-0.4,0.1-0.5,0.1s-0.2-0.1-0.3-0.1V6.5c-0.2-0.1-0.4-0.2-0.5-0.2s-0.2,0.1-0.4,0.1
		c-0.3-0.1-0.7,0-1-0.3c-0.1,0-0.1,0-0.2,0c0,0.1-0.1,0.2-0.1,0.3c-0.2,0-0.4-0.1-0.7-0.1c-0.2-0.2-0.3-0.4-0.5-0.4
		c0-0.1-0.1-0.2-0.1-0.3c-0.3,0-0.6-0.1-1-0.1c-1,0.5-1.9,0.4-2.9-0.1c-0.1,0-0.2,0-0.3,0c-0.2,0-0.5,0.1-0.7,0.1
		c-0.1,0-0.2-0.1-0.4-0.1c-0.2-0.1-0.5-0.2-0.7-0.3c-0.2-0.2-0.3-0.2-0.5-0.2c-0.1,0-0.2,0-0.4,0c-0.2-0.2-0.5-0.2-0.7-0.2
		c-0.3-0.2-0.7-0.4-1.1-0.3c-0.2,0-0.4-0.1-0.6-0.1c-0.1,0-0.1,0.1-0.2,0.1s-0.2-0.1-0.4-0.1c-0.7,0.7-1.5,0-2.2,0.4l0,0h-0.1
		C92.3,4,90.9,4,89.4,3.8v0.1V4c-0.3,0-0.6,0-0.9,0c-0.2,0-0.4,0-0.5,0c-0.4,0-0.7-0.4-1.1-0.2c-0.1-0.1-0.2-0.1-0.3-0.2
		c-0.1,0-0.3-0.1-0.4-0.1c-0.2-0.1-0.4,0-0.5,0.2c-0.4-0.1-0.7-0.2-1.1-0.4c-0.5-0.1-1-0.2-1.4-0.3v0.1c-0.1,0-0.3-0.1-0.4-0.1
		c-0.1,0.1-0.2,0.3-0.3,0.4c-0.2,0-0.4,0.1-0.6,0.1c-0.3-0.2-0.6,0-0.9-0.1c-0.3-0.2-0.7-0.3-1-0.1c-0.5,0.3-0.5-0.1-0.6-0.4
		c-0.1,0-0.2,0-0.4,0c-0.2,0-0.5,0.1-0.7,0.1c-0.4,0-0.7,0-1.1,0c-1,0-1.9-0.5-2.9-0.3c-0.2,0-0.3,0-0.5-0.1c-0.1,0-0.2,0-0.3,0
		c0,0.1,0,0.1-0.1,0.2v0.1V2.8c-0.1,0-0.2,0-0.4,0c-0.1,0-0.2,0-0.4,0C72.4,2.5,72.1,2.5,72,3c-0.8,0.2-1.4,0-1.6-1.1
		c-0.4,0-0.7,0-1.1,0c-0.1,0-0.2-0.1-0.3-0.1c-0.4,0.1-0.6,0.2-0.4,0.7l0,0c-0.1,0-0.1,0.1-0.2,0.1c-0.3-0.1-0.6-0.2-0.9-0.1
		c-0.3,0-0.6,0-0.9,0c-0.2-0.1-0.4,0-0.6,0.1c-0.1,0-0.3,0-0.4,0.1c0-0.1,0-0.1,0-0.2c-0.1,0-0.2,0-0.4,0c0,0.1,0,0.1,0,0.2
		c-0.1,0-0.3,0-0.4,0c-0.2-0.1-0.5,0-0.7-0.3c-0.2,0-0.4,0-0.5,0s-0.2,0.1-0.3,0.1c-0.3,0.2-0.7,0.3-0.7,0.8c-0.1,0-0.2,0.1-0.3,0.1
		c0,0.1-0.1,0.2-0.1,0.3c-0.1,0-0.3,0.1-0.3,0.3c0.1,0,0,0.1-0.1,0.2c-0.3-0.1-0.6,0-0.8,0.1c0,0.1-0.1,0.1-0.1,0.1L61,4.3
		c-0.1,0-0.1-0.1-0.2-0.1c-0.1,0-0.2,0.1-0.4,0.1c0-0.1-0.1-0.1-0.1-0.2c-0.3,0-0.6,0.1-0.8-0.3c-0.2,0-0.3,0-0.5,0.2
		c-0.1-0.1-0.3-0.1-0.4-0.2C58.5,3.9,58.4,4,58.3,4c-0.1,0.1-0.2,0.2-0.4,0.3v0.1l0,0c-0.1,0-0.2,0.1-0.3,0.1
		c-0.1,0.1-0.1,0.3-0.2,0.4C57.7,5,57.9,5,58,5v0.1c0.3,0,0.5-0.1,0.8-0.1c0,0,0.1,0.1,0.2,0.1l0,0c0.1,0,0.3,0.1,0.4,0.1
		c0.1,0,0.2,0.1,0.4,0.1c0.1-0.1,0.2-0.1,0.3-0.1c-0.1,0-0.2,0-0.3,0.1c0.2,0.2,0.3,0.2,0.5,0c0.6,0,1.2,0.2,1.8,0
		c0-0.2,0-0.4,0-0.5c0,0.2,0.1,0.4,0,0.5c0.3,0,0.6,0.1,0.9,0.1c0.1,0.3,0.3,0.3,0.5,0.3s0.5,0,0.7,0.1c0.1,0.2,0.2,0.2,0.4,0
		c0.2-0.1,0.3-0.1,0.5-0.2c0-0.2,0-0.3,0.1-0.5c0,0.2,0,0.3-0.1,0.5c1.2,0.4,2.6,0.1,3.8,0.7c0-0.1,0-0.1,0-0.2l0,0
		c0.2,0.1,0.6,0.1,0.4,0.5C69.1,7,68.8,7,68.4,6.8c-0.4,0.1-0.8,0-1.1,0.2c-0.1,0-0.2-0.1-0.3-0.1c-0.2,0-0.4,0-0.6,0
		c-0.6,0-1.2,0.1-1.7-0.1c-0.4,0.1-0.9,0.1-1.3-0.1c-0.2,0-0.3,0-0.5,0c-0.4,0-0.9,0.2-1.3-0.2c-0.1,0-0.2,0-0.4,0
		C61,6.7,60.8,6.9,60.6,7c0.2-0.1,0.4-0.3,0.6-0.4c-0.4-0.2-0.8,0.2-1.2,0c-0.1-0.1-0.2-0.2-0.3-0.2l0,0C59.1,6.2,58.6,6.1,58,6
		c-0.3,0-0.7,0-1-0.1c-0.1,0-0.3,0-0.4,0c-0.1,0-0.2,0.1-0.3,0.1V5.9c-0.3,0-0.6,0-1-0.1v0.1c-0.4,0-0.7-0.1-1.1-0.1
		c0,0.1,0,0.1,0,0.2c-1-0.2-1.9,0-2.9,0c0,0.1-0.1,0.2-0.2,0.2c0.1,0,0.1-0.1,0.2-0.2c0-0.1,0-0.2,0-0.2c-0.1,0-0.2,0-0.3,0
		c0,0.1,0,0.2,0,0.3c-0.3,0-0.6,0-0.8-0.4c-0.1,0-0.2,0-0.4,0C49.7,5.9,49.5,6,49.4,6c0-0.1-0.1-0.2-0.1-0.3c-0.2,0-0.4,0-0.7,0.1
		c-0.2-0.1-0.3-0.1-0.5-0.2c-0.1,0.1-0.3,0.1-0.4,0c-0.2,0-0.4,0-0.5,0.1c-0.2-0.1-0.4-0.1-0.5-0.1c-0.2-0.1-0.3-0.1-0.5-0.2
		c-0.1,0.1-0.3,0-0.4-0.1c-0.2,0-0.4,0-0.5,0c-0.1,0.1-0.3,0.1-0.4,0c-0.3,0-0.6,0.1-0.9,0.1c-0.2,0-0.3,0-0.5,0
		c-0.2-0.1-0.3-0.2-0.5-0.1c-0.1,0-0.2,0-0.4-0.1C42.3,5,42.1,5,41.8,5c-0.2-0.1-0.4-0.2-0.5-0.2c-0.3-0.1-0.6-0.1-0.9,0.1
		c-1.1-0.3-2.3,0-3.4-0.6c-0.1,0-0.2,0-0.4,0s-0.3,0-0.5,0c-0.5,0.1-1,0.2-1.4-0.1c-0.2,0-0.4,0-0.5,0c-1.3,0.1-2.5-0.1-3.8-0.4
		c-0.2,0-0.5,0-0.7-0.1c-1,0.1-1.9-0.3-2.9-0.3c-0.4,0-0.8,0.3-1.3,0.2c0-0.1,0-0.2,0-0.2c-0.3,0-0.6,0-0.9,0.2c-0.2,0-0.4,0-0.6,0
		c-0.7-0.2-1.4-0.4-2.1,0.1l-0.1,0.1c0,0.1-0.1,0.1-0.1,0.2c-0.4,0-0.2-0.9-0.7-0.6c-0.4,0.2-0.7,0.2-1.1,0.3
		c-0.4-0.1-0.8-0.1-1.1,0.1c-1,0.7-2.1,0.7-3.2,0.7c0,0.3,0.1,0.7,0.1,1c0.9,0,1.8-0.3,2.7,0.1c0.1,0,0.2,0,0.4,0
		c-0.1-0.2-0.1-0.4-0.1-0.6c0,0.2,0,0.4,0.1,0.6c0.3,0.3,0.9-0.1,1,0.6c0.1,0,0.2,0,0.4,0.1C21,5.8,21.7,6,22.5,6.2
		c0.2-0.4,0.4,0,0.5,0.1c1.3-0.4,2.5,0.2,3.7,0.4c0.2,0,0.3,0.3,0.5,0.5c0.9,0,1.8-0.1,2.7,0.2c0.1,0,0.2,0,0.4,0
		c0.2,0,0.4,0.1,0.5,0.1c1-0.2,1.9,0,2.9,0.1c0.1,0,0.3-0.1,0.4-0.1c0.1,0.1,0.1,0.1,0.2,0.2c0.1-0.1,0.2-0.1,0.4-0.2
		c0.2,0.1,0.5,0.1,0.7,0.2c0.1,0,0.2-0.1,0.4-0.1s0.4,0.1,0.5,0.1s0.1-0.1,0.2-0.1c0.5,0.1,0.9,0.2,1.4,0.2c0.1,0,0.3,0,0.4-0.1
		c0.2,0,0.4,0,0.5,0c0.2-0.2,0.3-0.1,0.5,0.1h0.1c0,0,0.1,0,0.1,0.1c0.1,0,0.2,0,0.2,0C40.3,8,40.9,8,41.5,8.1
		c0.1,0,0.1-0.1,0.2-0.1l0,0c0.1,0,0.2,0,0.3,0l0,0c0.3,0.1,0.5,0.2,0.8,0c0.2,0,0.5,0,0.7,0c0.2-0.1,0.3-0.2,0.5-0.2
		c-0.2,0-0.4,0.1-0.5,0.2c0.1,0.1,0.2,0.2,0.3,0.3c0.4,0.1,0.9-0.5,1.3,0c0.2,0,0.3,0.1,0.5,0.1c0.3-0.1,0.6-0.1,0.9,0
		c0.3,0,0.6,0.1,0.9,0.1c0.3,0,0.6-0.1,0.9,0l-0.1,0.1c-0.1,0-0.2,0-0.3,0.1c-0.2-0.1-0.4-0.1-0.7-0.2c-0.5,0.1-1,0-1.4,0.4
		c-0.2,0.3-0.5,0-0.7-0.1c-0.1-0.3-0.3-0.4-0.6-0.4c-0.1,0-0.2,0-0.3,0c-0.1,0.2-0.3,0.1-0.5,0.1l0,0c-0.1,0-0.2-0.1-0.4-0.1
		c-0.3,0.4-0.6,0.4-0.9,0.3c-0.1,0-0.2-0.1-0.3-0.2c-0.1,0-0.2,0-0.3-0.1c0-0.1,0-0.2-0.1-0.3c0,0-0.1,0-0.1-0.1
		c-0.1,0-0.1,0.1-0.2,0.1c-0.1,0-0.2,0-0.3,0.1c-0.3,0-0.7,0-1,0c-0.2,0.1-0.3,0.1-0.5,0c-0.1,0-0.2,0-0.3,0c0,0.1,0,0.2,0,0.2
		c0,0.1,0,0.2,0.1,0.3c-0.1-0.1-0.1-0.2-0.1-0.3c-0.2-0.1-0.5-0.1-0.7-0.2c0-0.1,0-0.1,0-0.2c-0.2,0-0.3,0-0.5,0
		c-0.3,0.2-0.6,0.1-0.9,0.2c-0.1,0-0.2,0-0.3,0c-0.1,0.2-0.2,0.4-0.3,0.4c0.1-0.1,0.2-0.2,0.3-0.4c-0.2,0-0.5,0.1-0.7,0.1
		c-0.1,0-0.2,0-0.3,0c-0.1-0.1-0.1-0.2-0.2-0.2c-0.1,0-0.2,0-0.3,0c-0.2,0.2-0.3,0.2-0.5,0c-0.1,0-0.2,0-0.3-0.1
		c-0.4,0-0.5,0-0.6-0.1c-0.4,0-0.8-0.1-1.2-0.1c-0.3,0.2-0.6,0.3-0.9,0.1V8c-0.1,0-0.2,0-0.3,0c-0.1,0-0.1-0.1-0.2-0.1
		S31.3,8,31.2,8c-0.2,0-0.4-0.1-0.7-0.1c-0.2,0-0.5,0-0.7,0.1c-0.3,0-0.6,0-0.9,0c-0.2,0.1-0.3,0.2-0.5,0.2
		c-0.2-0.1-0.3-0.1-0.5-0.2c-0.3,0-0.7,0-1,0c0,0.1,0,0.1-0.1,0.2c-0.1,0-0.2,0-0.3,0c-0.1-0.1-0.1-0.1-0.2-0.2
		c-0.2,0-0.4,0-0.7,0.1l0,0l0,0l0,0l0,0c-0.1,0.1-0.1,0.3-0.2,0.4c-0.3,0.2-0.6,0.4-0.9,0.6c-0.1,0-0.2,0-0.3-0.1c0,0.1,0,0.1,0,0.2
		c-0.2,0-0.3,0-0.5,0c-0.1,0-0.1,0.1-0.2,0.1c-0.6-0.2-1.2,0.1-1.7-0.3c-0.5,0-1,0-1.5-0.1c0,0.2,0,0.4-0.1,0.7
		c0.1,0.1,0.2,0.1,0.4,0.2c0.3,0,0.3,0.2,0.3,0.5l0,0c-0.1,0.3-0.1,0.7-0.2,1c-0.3,0.4-0.7,0.6-1.2,0.7c-1,0.1-1.9,0-2.9-0.1
		c-1.3-0.1-2.5-0.6-3.7-0.8c-2.1,0-4.2-0.1-6.3-0.1c-0.8,0-1.9-0.1-2.6,1.1c-0.2,0-0.4,0-0.5,0.3c-0.1,0.1-0.1,0.2-0.2,0.2
		c-0.3,0.2-0.9,0.3-0.7,0.9c0.1,0.5,0.3,1.2,1,0.9c0.1,0,0.2,0,0.3,0c0.2,0,0.4,0,0.5,0c0.3,0,0.7,0.1,1,0.1
		c0.3-0.2,0.6-0.2,0.9-0.1c0.2,0,0.3,0,0.5,0c0.6-0.4,1.2,0,1.8,0.1C9,14.7,9,15.1,9,15.5l0,0c0.3,0,0.7,0.1,1,0.1
		c0.4,0,0.9,0,1.3,0c0.3,0,0.5,0,0.8,0c0.6,0,1.2,0,1.8,0.2c0.4-0.1,0.7-0.1,1.1,0.1c0.1,0,0.2,0,0.3,0c0.6-0.2,1.1,0.4,1.7,0.3l0,0
		c0.4-0.5,0.8-0.2,1.3-0.2s1,0,1.5,0c0.1,0,0.2,0,0.4,0.1c0.3,0,0.6,0.1,0.8,0.1v-0.1c0.1,0,0.2,0.1,0.4,0.1c0.1,0,0.1-0.1,0.2-0.1
		c0.3,0.1,0.6,0.2,0.9,0.1c0.1,0,0.2,0.1,0.3,0.1c0.1,0,0.2,0,0.3,0.1c0,0.2,0.1,0.3,0.1,0.5c0,0.1,0,0.3,0,0.4h-0.1
		c0,0.2-0.1,0.4-0.1,0.6c0.1,0.3,0.1,0.5,0.3,0.7h0.1l0,0c0.1,0.4,0.4,0.4,0.6,0.2c0.5-0.1,0.9-0.1,1.4-0.2c0.3,0,0.6,0,0.9-0.1
		c0.1,0.1,0.1,0.2,0.2,0.2c0.3,0.1,0.5,0.1,0.8,0c0.2,0.1,0.5,0.1,0.7,0c0.4,0.1,0.8,0.2,1.2,0.3c0.1,0,0.2,0.1,0.3,0.1l0,0l0,0
		c0,0.2,0,0.3,0,0.5c-0.3,0-0.5,0.1-0.7,0.2c-0.5,0-0.9,0-1.4,0.2c-0.2,0-0.5,0-0.7,0v0.1c-0.2,0-0.5,0-0.7,0c-0.1,0-0.2,0-0.3,0V20
		c-0.1-0.1-0.2-0.2-0.4-0.4c-0.1,0.1-0.2,0.3-0.4,0.4c-0.1,0-0.2,0-0.3,0c-1.4-0.7-2.9-0.3-4.3-0.6c-0.1-0.2-0.3-0.1-0.5-0.1
		c0,0.1,0,0.2-0.1,0.3c-0.2,0.2-0.6,0.2-0.7,0.6c-0.1,0.1-0.2,0.2-0.3,0.3c-0.5,0.3-0.2,1-0.6,1.4c-0.7,0.7-0.8,1.6-0.8,2.6
		c0,0.5,0,1,0,1.5c0,0.7-0.5,1.8,0.7,1.9c0.6,0.1,1.2,0.2,1.3,1.2c0.2,0,0.3,0,0.5,0l0.1-0.1l0,0c0.1,0,0.1,0,0.2,0l0,0
		c0.1,0,0.2,0.1,0.4,0.1v0.1v0.1c0.1,0,0.2,0,0.4,0c0.1-0.1,0.1-0.1,0.2-0.2l0,0c0.1,0.1,0.1,0.2,0.2,0.4c0.2,0.2,0.4,0.5,0.8,0.3
		c0.2,0.1,0.3,0.1,0.5,0.2c0.1,0,0.1-0.1,0.2-0.1S22.9,30,23,30s0.2-0.1,0.4-0.1c0.2,0,0.4,0.1,0.7,0.1v0.1c0.4,0,0.3-0.6,0.7-0.6
		c0,0.1,0.1,0.2,0.1,0.4c0.4,0.6,0.9,0.4,1.4,0.4c0.1,0,0.2,0,0.2,0l0,0c0.6,0.5,1.3,0.3,2,0.4c0.1,0,0.2,0,0.3,0.1
		c0-0.1,0.1-0.2,0.1-0.2c0,0.1-0.1,0.2-0.1,0.2c0.2,0,0.4,0.1,0.5,0.1c0,0.1,0,0.1,0,0.2c0.2,0.1,0.3,0.1,0.5,0.2c0.3,0,0.6,0,0.9,0
		c0.1-0.1,0.2-0.2,0.4-0.3c-0.1,0.1-0.2,0.2-0.4,0.3c0.3,0.2,0.7,0.2,1,0.2c0.2,0,0.3,0,0.5,0s0.5,0.1,0.7,0.1l0,0l0,0
		c0.4,0.8,1.2,0.5,1.7,1c0.3,0,0.6,0.1,0.8,0.1c0.4-0.2,0.8,0.2,1.2,0c0.2,0.1,0.4,0.1,0.7,0.2c0.6,0.2,1.1,0.5,1.7,0.3
		c0.2,0,0.3,0,0.5,0c0-0.1,0-0.2,0.1-0.3c0,0.1-0.1,0.2-0.1,0.3c0.3,0.1,0.7,0.1,1,0.2c0.2,0.4,0.5,0.4,0.8,0.4
		c0.9,0.1,1.7,0.2,2.6,0.3c2.1,0.2,4.2,0.3,6.2,0.5c0.1,0,0.2,0,0.3,0l0,0c0.2,0.1,0.4,0.1,0.5,0.1s0.2,0,0.3,0
		c0.1-0.1,0.1-0.2,0.2-0.2c-0.1,0-0.1,0.1-0.2,0.2c0.2,0,0.4,0,0.5,0.1c0.2,0,0.3,0,0.5,0c0.1-0.1,0.2-0.2,0.4-0.3
		c-0.1,0.1-0.3,0.1-0.4,0.3c1,0,1.9,0.1,2.9,0.1c1.3,0,2.7,0,4,0.2c0.1,0,0.2,0,0.3,0c0-0.1,0-0.3,0-0.4c0.1,0.1,0.2,0.3,0.3,0.4
		c0.3,0,0.7,0.1,1,0.1c0.5-0.1,1.1-0.5,1.5,0.1c0.2,0,0.5,0.1,0.7,0.1c0.1,0,0.1,0,0.2,0c0.2,0,0.5,0,0.7,0s0.3,0,0.5,0s0.3,0,0.5,0
		c0.4-0.5,0.9-0.2,1.4-0.2l0,0c0,0.1,0,0.2,0,0.2c0.4,0,0.8,0.8,1.2,0.1c0.2,0,0.4,0,0.7,0c0.1-0.2,0.2-0.3,0.3-0.3
		c-0.1,0-0.2,0.1-0.3,0.3c0.2,0.1,0.3,0.2,0.5,0.2c0.1-0.1,0.2-0.2,0.2-0.4c0.2-0.3,0.5-0.4,0.9-0.3c0.5,0,1-0.1,1.5-0.1
		c0-0.1,0-0.1,0-0.2c0.2,0.1,0.3,0.2,0.5,0.3c0.2,0,0.3,0,0.5,0c0-0.1,0-0.1,0-0.2c0.3,0,0.6,0,0.9-0.2l0.1,0.1
		c0.2,0.4,0.4,0.5,0.7,0.6c0.2-0.1,0.3-0.1,0.5-0.2c0.2,0,0.4,0,0.5,0s0.2,0,0.3,0.1c0.8-0.1,1.7,0.1,2.5-0.2
		c0.1,0.1,0.3,0.2,0.4,0.2l0,0c0.5-0.2,0.8,0.5,1.3,0.2c0.2,0,0.3,0,0.5,0c0.2-0.2,0.5-0.4,0.7-0.6c-0.2,0.2-0.5,0.4-0.7,0.6
		c0.2,0.3,0.6,0.2,0.9,0.3c0.1,0,0.2,0,0.3,0c0.2-0.1,0.3-0.2,0.5-0.2c0,0,0.1-0.1,0.2-0.1c0-0.1,0-0.2,0.1-0.3
		c0.2-0.1,0.4-0.1,0.7-0.2c0.2,0.1,0.5,0.1,0.7,0.2c0.2,0,0.5,0,0.7,0.1c0.1-0.1,0.1-0.1,0.2-0.2c0.2,0,0.3,0,0.5,0.1
		c0.1-0.2,0.1-0.3,0.2-0.4c0.2,0,0.1,0.1,0.1,0.3c0,0.1,0,0.1,0,0.2c0.2,0,0.3,0,0.5,0c0.3,0,0.6-0.2,0.9,0.1c0.3,0,0.6-0.2,0.9,0.1
		c0.8-0.6,1.6,0.2,2.4,0.2c0.3,0,0.6,0.1,0.8,0.1c0.3,0,0.6-0.1,0.9,0.1c0.1,0,0.2,0,0.3,0c0.1-0.2,0.2-0.2,0.3,0
		c0.5,0,0.5-0.8,0.9-0.9c0.1-0.1,0.1-0.1,0.2-0.2c0.6-0.5,1.3-0.3,2-0.4c0.1-0.1,0.1-0.1,0.2-0.2c0,0.1,0.1,0.3,0.1,0.4h0.1
		c0.3,0,0.6-0.1,0.9-0.1c0.2,0.5,0.4,0.4,0.7,0.2c0.1,0,0.2,0,0.3,0c0.1,0.1,0.1,0.1,0.2,0.2c0.1,0,0.2,0,0.3,0
		c0.1,0,0.1-0.1,0.2-0.1c0.2,0.1,0.5,0.1,0.7-0.1c0.2,0,0.5,0,0.7,0.3c0.3,0,0.6,0,0.9,0v-0.1c0.1,0,0.2,0.1,0.4,0.1
		c0.1,0,0.2,0,0.4-0.1c0.1,0,0.1,0.1,0.2,0.1c0.2,0,0.5-0.1,0.7-0.1s0.5,0,0.7,0.1c0.2,0,0.3,0.1,0.5,0.1c0.1,0,0.1-0.1,0.2-0.1
		c0.3,0.2,0.7,0.2,1,0.1c0.2,0,0.3,0,0.5,0c0.1,0,0.2,0,0.4,0l0.1,0.1c0.1,0,0.2,0,0.4,0c0.2,0,0.4,0,0.7,0c0.1,0,0.2-0.1,0.4-0.1
		c0,0.1,0,0.1,0,0.2c0.2,0,0.4,0,0.5,0v0.1c0.3,0,0.6,0,0.9,0.1c0.9,0,1.8,0.1,2.7,0.2c0.3,0,0.6,0,0.9-0.1c0.1,0,0.2,0.1,0.3,0.1
		c0.2,0,0.4-0.1,0.5-0.1v0.1c0.1,0,0.2,0.1,0.4,0.1v-0.1c1.8,0.3,3.7,0.1,5.5,0.6c0-0.3,0.1-0.7,0.1-1c0-0.1,0-0.1,0-0.2
		c0.2-0.7,0.7-0.8,1.1-1c0.1,0,0.2,0.1,0.3,0.1l0,0c0.2,0.3,0.5,0.5,0.7,0.8c0.6,0.2,1.1-0.7,1.7-0.5c0.5,0.1,1-0.1,1.5,0.3
		c0.4-1,1.1-0.5,1.7-0.6c0.3-0.1,0.5,0.2,0.8,0.3c0.1-0.1,0.2-0.2,0.3-0.2c0-0.1,0-0.2,0-0.3s-0.1-0.3-0.1-0.4
		c0,0.1,0.1,0.3,0.1,0.4c0,0.1,0,0.2,0,0.3c0.3,0.2,0.5,0,0.7-0.1c0.1,0,0.2,0,0.3,0c0.1,0.1,0.2,0.2,0.4,0.1
		c0.2,0.1,0.3,0.1,0.5,0.2c0.6,0.1,1.1,0,1.7-0.1c1.4,0.2,2.8-0.3,4.1-0.2c0.6,0.1,1.1,0.3,1.7-0.1
		C135.2,33.6,134.9,32.6,134.2,32.9z M121.2,18.2c0,0.1,0,0.1,0,0.2C121.2,18.3,121.2,18.2,121.2,18.2c-0.2,0-0.4-0.1-0.5-0.2
		C120.9,18.1,121,18.1,121.2,18.2z M116.1,20.7c0,0-0.1,0.1-0.1,0.2C116.1,20.8,116.1,20.8,116.1,20.7z M115.6,21.9
		c0.1,0,0.1-0.1,0.1-0.1S115.7,21.9,115.6,21.9z M116.3,13.1V13l0,0C116.3,13.1,116.3,13.1,116.3,13.1c0,0.1,0,0.3,0,0.4l0,0
		C116.3,13.4,116.3,13.3,116.3,13.1z M115.9,10.2c-0.1,0.3-0.1,0.6,0,1C115.9,10.8,115.9,10.5,115.9,10.2z M108.2,9.1L108.2,9.1
		c0.2,0,0.3,0,0.5,0C108.6,9.1,108.5,9.1,108.2,9.1c0.2,0,0.4,0.1,0.5,0.1c0.8,0.1,1.7,0.1,2.5,0.3c0.2,0,0.8-0.1,0.5,0.6l0,0
		c-0.1,0-0.1,0.1-0.2,0.1l0,0c-0.2,0-0.5,0-0.7,0.1h-0.1l0,0c-0.1-0.1-0.2-0.1-0.3,0c-0.1,0-0.2,0-0.3,0l0,0
		c-0.5-0.4-1.1-0.4-1.6-0.4c-0.2,0-0.3-0.1-0.5-0.1l0,0C108,9.5,108.1,9.3,108.2,9.1z M65.1,5.1L65.1,5.1c-0.2-0.1-0.4-0.2-0.5-0.3
		c-0.1,0-0.2,0.1-0.3,0.1l0,0c0-0.1-0.1-0.3-0.1-0.4s0.1-0.3,0.1-0.4l0,0C64.4,4,64.4,4,64.5,3.9c0.1,0.2,0.1,0.3,0.2,0.5
		c0.2,0,0.5,0,0.7-0.1c0-0.3,0.1-0.5,0.1-0.5c-0.1,0.1-0.1,0.3-0.1,0.5c0.3,0.1,0.5,0.1,0.7-0.1c0.2,0,0.4,0,0.5-0.1
		s0.1-0.2,0.2-0.2c-0.1,0-0.1,0-0.2,0.2c0.1,0,0.2,0,0.4,0c0.2,0.3,0.6,0.3,0.8,0.3l0,0c0,0.2,0,0.5,0.1,0.7
		C66.9,5.2,66,5.1,65.1,5.1z M68.8,5.6c-0.2,0-0.4-0.1-0.5-0.1C68.5,5.5,68.7,5.5,68.8,5.6L68.8,5.6z M25.8,18.1c0-0.2,0-0.4,0-0.5
		C25.7,17.7,25.7,17.9,25.8,18.1c0.1,0,0.2,0,0.3,0.1C26,18.1,25.9,18.1,25.8,18.1z M20.8,22.4c0-0.1-0.1-0.1-0.1-0.1l0,0
		C20.8,22.3,20.8,22.3,20.8,22.4z M25.9,22.2c0-0.1,0-0.1,0-0.2C25.9,22.1,25.9,22.2,25.9,22.2z M25.6,30.1c0-0.1,0-0.3,0-0.4
		C25.6,29.9,25.6,30,25.6,30.1C25.7,30,25.9,30,26,30C25.9,30,25.7,30.1,25.6,30.1z M30,19L30,19L30,19L30,19z M30.9,30.5
		c-0.1,0-0.1,0-0.2,0C30.8,30.5,30.8,30.5,30.9,30.5L30.9,30.5z M31.5,8.3L31.5,8.3c0,0.2,0,0.4,0,0.5C31.6,8.7,31.5,8.5,31.5,8.3z
		 M34.3,31.8c-0.1,0-0.2,0-0.3,0l0,0C34,31.8,34.2,31.8,34.3,31.8c0-0.1,0.1-0.3,0.1-0.5C34.3,31.5,34.3,31.7,34.3,31.8L34.3,31.8z
		 M44.7,31.8c0-0.2,0.1-0.4,0.3-0.4l0,0C44.8,31.4,44.7,31.6,44.7,31.8z M44.9,8.9c-0.2,0-0.4,0.2-0.6,0.2C44.6,9,44.8,8.9,44.9,8.9
		C45,9,45.1,9.2,45.2,9.3C45.1,9.2,45,9,44.9,8.9z M65.7,10.6c-0.1,0-0.1,0-0.2,0C65.6,10.6,65.7,10.6,65.7,10.6L65.7,10.6z
		 M55.3,8.9C55.3,8.9,55.3,8.8,55.3,8.9C55.3,8.8,55.3,8.9,55.3,8.9L55.3,8.9z M68.8,10.3c0.2,0.1,0.4,0,0.6,0
		C69.2,10.3,69,10.4,68.8,10.3c0-0.1,0-0.1,0-0.2C68.8,10.2,68.8,10.2,68.8,10.3z M94.3,13.1L94.3,13.1c0-0.4,0-0.7,0.3-0.9
		C94.4,12.4,94.3,12.8,94.3,13.1z M83.5,11.4c0,0.2,0,0.3,0,0.5l0,0C83.5,11.8,83.5,11.6,83.5,11.4L83.5,11.4z M87.4,11.6
		c0,0,0-0.1-0.1-0.1C87.4,11.5,87.4,11.6,87.4,11.6L87.4,11.6z M79.5,11.6c0.2,0.1,0.5,0,0.7-0.1c0.1,0.1,0.2,0.1,0.3,0.2
		c-0.3-0.1-0.7-0.1-1,0.1c-0.2-0.1-0.4-0.1-0.6-0.2l0,0c0.1-0.1,0.1-0.2,0.2-0.3c-0.1,0.1-0.1,0.2-0.2,0.3
		C79,11.6,79.3,11.6,79.5,11.6z M78.3,11.5c-0.1,0-0.1,0-0.2,0s-0.1,0-0.2,0c0.1,0,0.2-0.1,0.3-0.1C78.2,11.4,78.3,11.5,78.3,11.5z
		 M96.8,13.5c-0.4,0-0.7-0.1-1.1,0c-0.4-0.1-0.7-0.2-1.1-0.3C95.4,13.3,96.1,13.3,96.8,13.5z M94.6,5.6L94.6,5.6
		c-0.1,0.1-0.2,0.1-0.2,0.2C94.4,5.7,94.5,5.6,94.6,5.6z M93,8.4v0.1C93,8.8,93.1,9,93.4,9c-0.2,0-0.3-0.3-0.4-0.5
		C92.9,8.5,93,8.5,93,8.4z M91.6,7c-0.1-0.1-0.2-0.2-0.2-0.2S91.5,6.9,91.6,7z M91.1,6.5c0.1,0.1,0.1,0.1,0.2,0.2
		C91.3,6.6,91.2,6.5,91.1,6.5c0-0.2-0.1-0.3-0.1-0.4C91,6.2,91.1,6.3,91.1,6.5z M69.2,4.3c0.1,0,0.2,0,0.3,0
		C69.4,4.2,69.3,4.3,69.2,4.3L69.2,4.3z M69.1,5.5L69.1,5.5c0-0.1,0-0.3,0-0.4c0.4-0.1,0.7-0.2,1.1-0.3C70.3,5,70.6,5,70.8,4.9
		c0.1-0.1,0.1-0.2,0.2-0.2c-0.1,0-0.1,0.1-0.2,0.2c0.2,0,0.5,0,0.7,0c0.4,0.1,0.8,0.2,1.3,0c0.1-0.1,0.1-0.2,0.2-0.2
		c-0.1,0-0.1,0.1-0.2,0.2C73,4.9,73.1,5,73.3,5c0.5,0.3,1,0.1,1.6,0.3l0,0c0.2,0.3,0.4,0.3,0.6,0.1c0.1,0,0.2-0.1,0.2-0.1
		c0.2,0.1,0.5,0.1,0.7,0.2c0.2,0,0.3,0,0.5,0C77,5.3,77,5.3,77.1,5.3c-0.1,0-0.1,0.1-0.2,0.2c0.1,0,0.3-0.1,0.4-0.1
		c0.3,0.2,0.7,0.2,1.1,0.2l0,0c0.1,0.1,0.2,0.1,0.3,0.2c0.1,0,0.1,0.1,0.2,0.1l0,0c0.2,0,0.3,0,0.5,0.1c0.2,0,0.4,0,0.6,0.1
		c0,0.2,0,0.4,0.1,0.7C80.1,6.9,80,6.9,80,7c-0.3,0-0.6,0-0.9,0.1c-0.2,0.2-0.4,0.3-0.6,0.3c0.2,0,0.4-0.1,0.6-0.3
		C78.7,7,78.4,7,78,7.1c-0.3,0-0.6,0-0.9-0.1c-0.2,0-0.5-0.1-0.7-0.1s-0.4,0-0.5,0c0,0.1-0.1,0.2-0.1,0.2s0.1-0.1,0.1-0.2
		c-0.2,0-0.4,0-0.6,0s-0.5-0.1-0.7-0.1l0,0c-0.6-0.5-1.3-0.3-2-0.3c-0.9-0.2-1.9-0.3-2.8-0.5c-0.1,0.1-0.2,0.2-0.2,0.1
		c0.1,0,0.1,0,0.2-0.1c-0.1,0-0.3-0.1-0.4-0.1C69.3,5.6,69.2,5.5,69.1,5.5z M51.3,8.8c-0.3,0.2-0.6,0.1-1,0C50.7,8.9,51,9,51.3,8.8
		l0.1-0.1l0,0C51.4,8.7,51.4,8.8,51.3,8.8z M56.9,34.3c-0.5,0-0.9,0-1.4,0c-0.1,0-0.2,0-0.3,0c0.1,0,0.2,0,0.3,0
		C56,34.3,56.4,34.3,56.9,34.3c0-0.1,0-0.3,0-0.4C56.9,34.1,56.9,34.2,56.9,34.3z M57.1,9.5c0.1,0,0.2-0.1,0.2-0.1
		c0.2,0,0.4,0,0.5,0C57.7,9.5,57.4,9.5,57.1,9.5z M58.5,34.1L58.5,34.1c-0.2,0.3-0.5,0.4-0.8,0.4C58,34.5,58.3,34.4,58.5,34.1
		L58.5,34.1c0.2,0,0.3,0,0.5,0.1C58.8,34.1,58.6,34.1,58.5,34.1z M59.7,21.9L59.7,21.9L59.7,21.9c0.1,0.4,0.2,0.9,0.3,1.3
		C59.9,22.7,59.8,22.3,59.7,21.9z M61.4,10.1c-0.1,0-0.2,0-0.3,0c0-0.1,0-0.1,0-0.2c-0.2,0-0.3,0-0.5,0S60.1,10,59.9,10
		s-0.3,0-0.5-0.1l0,0c-0.1,0-0.2,0-0.3-0.1c-0.2,0-0.3-0.1-0.5-0.1l0,0c0,0,0,0,0-0.1c0.1,0,0.2,0,0.2,0c0.1,0,0.1-0.1,0.2-0.1
		c-0.1-0.3-0.2-0.4-0.3-0.4c0.1,0,0.2,0.1,0.3,0.4c0.2,0.1,0.5,0.1,0.7,0.2V9.6c0.2,0,0.4,0,0.6,0v0.1c0.1,0,0.2,0,0.4,0
		c0.1,0.1,0.2,0.1,0.4,0c0.5,0,1,0,1.4,0.1c0,0.1,0,0.2,0,0.2s0.1,0,0.1,0.1C62.1,10.3,61.8,9.8,61.4,10.1z M63.4,10.2
		c-0.1-0.1-0.2-0.1-0.4-0.2c-0.1,0-0.1,0-0.2,0c0.1,0,0.2-0.1,0.3-0.1V10c0.2,0,0.5,0,0.7,0c0.2,0.3,0.6,0.2,0.9,0.4
		c-0.1,0.1-0.2,0.1-0.4,0c-0.1,0-0.2,0-0.4,0c-0.1,0-0.2,0-0.3,0C63.6,10.3,63.5,10.2,63.4,10.2z M66,34.5c-0.7-0.1-1.5,0.2-2.2,0
		c0.1-0.7,0.3-1.5,0.4-2.2c-0.1,0.7-0.2,1.5-0.4,2.2C64.5,34.7,65.3,34.4,66,34.5c0-0.1,0-0.1,0-0.2C66,34.4,66,34.5,66,34.5z
		 M70.4,10.9c-0.2,0-0.3,0-0.5,0.1c-0.5-0.1-0.9-0.2-1.4,0c-0.1,0-0.2,0-0.4,0c-0.2,0-0.4,0-0.5-0.1c0-0.1,0-0.1,0-0.2
		c-0.3,0-0.5,0-0.8,0c0,0.1,0,0.2,0.1,0.3s0.1,0.3,0.2,0.4C67,11.3,67,11.1,66.9,11l0,0c0-0.1,0-0.2-0.1-0.3c-0.2,0-0.3,0-0.5,0
		c0,0.1,0,0.2,0,0.3c-0.1,0.1-0.1,0.3-0.1,0.4c0-0.1,0.1-0.3,0.1-0.4c0-0.1,0-0.2,0-0.3c-0.1,0-0.2-0.1-0.3-0.1
		c-0.1,0.1-0.2,0.1-0.3,0h0.1c0.1-0.3,0.3-0.4,0.6-0.4c0.4,0.3,0.8,0.2,1.3,0.1c0-0.1,0-0.2,0-0.4c0,0.1,0,0.2,0,0.4
		c0.2,0,0.4,0.1,0.5,0.1l0,0c0.1,0,0.2,0,0.3,0c0.4,0.6,0.9,0.3,1.4,0.1c0.1,0.1,0.2,0.2,0.3,0.3c0.1-0.1,0.1-0.1,0.2-0.2
		c0-0.1,0.1-0.2,0.1-0.2c0,0.1-0.1,0.2-0.1,0.2c0.2,0,0.4,0.1,0.6,0.1c0-0.1,0-0.2-0.1-0.3c0,0.1,0.1,0.2,0.1,0.3
		c0.1,0,0.2,0.1,0.3,0.1C71,10.8,70.7,10.7,70.4,10.9z M71.6,34.3c0-0.1,0-0.2,0-0.2S71.6,34.2,71.6,34.3L71.6,34.3z M72.8,11.1
		c-0.2,0-0.3,0-0.5,0s-0.3,0-0.5,0c-0.1,0-0.1,0-0.2-0.1c0.5-0.1,1,0,1.5,0.1C73,11.1,72.9,11.1,72.8,11.1z M73.6,12L73.6,12
		L73.6,12c0-0.1,0-0.3,0-0.4C73.6,11.7,73.6,11.9,73.6,12z M73.6,11.2L73.6,11.2c-0.1-0.1-0.3-0.1-0.4-0.2c0.3,0,0.5,0.1,0.8,0.1
		C73.9,11.2,73.8,11.2,73.6,11.2z M74.3,11.2c0,0,0.1,0,0.1-0.1c0.1-0.1,0.2-0.2,0.2-0.2c-0.1,0-0.2,0.1-0.2,0.2
		c0.1,0.1,0.1,0.1,0.2,0.1C74.5,11.2,74.4,11.2,74.3,11.2z M74.7,11.2c0.1,0,0.1,0,0.2,0l0,0C74.9,11.2,74.8,11.2,74.7,11.2z
		 M89.2,14.8c-0.1,0-0.2,0.2-0.2,0.4C89,15,89.1,14.8,89.2,14.8s0.1,0,0.2,0.1C89.4,14.8,89.3,14.8,89.2,14.8z M97.8,34.1L97.8,34.1
		c0.2-0.3,0.4-0.6,0.6-0.8C98.1,33.5,98,33.8,97.8,34.1z M103.7,31.6c0-0.1,0-0.1,0.1-0.1C103.7,31.4,103.7,31.5,103.7,31.6
		c0,0.2,0.1,0.4,0.3,0.5C103.8,32,103.7,31.8,103.7,31.6z M107.5,28.5L107.5,28.5L107.5,28.5L107.5,28.5z M109.1,19.3
		c-0.1,0-0.2,0-0.3,0.1C108.9,19.3,109,19.3,109.1,19.3c0.2-0.2,0.3-0.4,0.3-0.5C109.4,18.9,109.3,19.1,109.1,19.3z M112.7,29
		c-0.2,0-0.4,0.1-0.6,0.3C112.2,29.1,112.4,29,112.7,29c0.1-0.1,0.1-0.3,0.2-0.4C112.8,28.7,112.7,28.9,112.7,29z M114,28.1
		c0.1,0,0.2,0,0.3-0.1l0,0C114.2,28.1,114.1,28.1,114,28.1z M125.9,33.1L125.9,33.1L125.9,33.1L125.9,33.1z"/>
</g>
</svg>
