<?xml version="1.0" encoding="utf-8"?>
<!-- Generator: Adobe Illustrator 23.0.6, SVG Export Plug-In . SVG Version: 6.00 Build 0)  -->
<svg version="1.1" id="Layer_1" xmlns="http://www.w3.org/2000/svg" xmlns:xlink="http://www.w3.org/1999/xlink" x="0px" y="0px"
	 viewBox="0 0 308.4 50" style="enable-background:new 0 0 308.4 50;" xml:space="preserve">
<style type="text/css">
	.st0{fill:#C4E7E8;}
</style>
<g>
	<path class="st0" d="M156.7,1c0,0-0.3-0.2-0.5-0.1C156.1,1,156.9,1.3,156.7,1z"/>
	<path class="st0" d="M149.9,1.7c-0.1-0.1-0.6-0.3-0.8,0C148.9,1.9,150,1.8,149.9,1.7z"/>
	<path class="st0" d="M190.4,3.6c-0.1-0.2-0.6-0.3-0.8-0.2C189.6,3.7,190.2,3.5,190.4,3.6z"/>
	<path class="st0" d="M220.4,4.3c-0.1,0-0.2,0-0.3,0c0,0.1,0,0.2,0,0.3c0.1,0,0.2,0,0.3,0C220.4,4.4,220.4,4.4,220.4,4.3z"/>
	<path class="st0" d="M189.1,3.6c0,0-0.3-0.2-0.5-0.1C188.5,3.5,189.3,3.8,189.1,3.6z"/>
	<path class="st0" d="M148.4,2.4C147.8,2.7,149.2,2.7,148.4,2.4L148.4,2.4z"/>
	<path class="st0" d="M147.6,2.5C148.1,2.9,148.1,2.1,147.6,2.5L147.6,2.5z"/>
	<path class="st0" d="M101.8,1.1c-0.1,0-0.2,0-0.3,0c0,0.1,0,0.2,0,0.3c0.1,0,0.2,0,0.3,0C101.8,1.3,101.8,1.2,101.8,1.1z"/>
	<path class="st0" d="M204.9,4c-0.1,0-0.2,0-0.3,0c0,0.1,0,0.2,0,0.3c0.1,0,0.2,0,0.3,0C204.9,4.2,204.9,4.1,204.9,4z"/>
	<path class="st0" d="M186.5,4.1c0.3,0,0.4-0.2,0.3-0.5c-0.3-0.1-0.4,0.1-0.7,0.1C186.2,3.9,186.5,4,186.5,4.1z"/>
	<path class="st0" d="M204.7,4.5C203.9,4,203.8,4.8,204.7,4.5L204.7,4.5z"/>
	<path class="st0" d="M189.9,4.1C190.4,4.6,190.5,3.7,189.9,4.1L189.9,4.1z"/>
	<path class="st0" d="M247.4,6C246.8,5.6,246.6,6.4,247.4,6L247.4,6z"/>
	<path class="st0" d="M151.5,3.7c-0.1-0.1-0.4-0.1-0.3-0.4C150.6,3.4,150.9,3.8,151.5,3.7z"/>
	<path class="st0" d="M212.9,5.4C211.9,4.9,212.1,5.7,212.9,5.4L212.9,5.4z"/>
	<path class="st0" d="M116.8,3.1c-0.1-0.2-0.2-0.3-0.5-0.3C116.4,2.9,116.5,3.1,116.8,3.1z"/>
	<path class="st0" d="M116.3,3.3C116.8,3,115.7,2.8,116.3,3.3L116.3,3.3z"/>
	<path class="st0" d="M181.6,5.2c0-0.2-0.9-0.2-0.5,0.1C181,5.2,181.6,5.2,181.6,5.2z"/>
	<path class="st0" d="M33.4,3.7c0.1-0.2-0.9-0.3-0.7,0.1C33.1,3.8,33.1,3.7,33.4,3.7z"/>
	<path class="st0" d="M30.4,3.8c-0.4,0-0.8,0-0.8,0.4c0.3,0,0.3,0.2,0.6,0.1C30.2,4.1,30.5,4.1,30.4,3.8z"/>
	<path class="st0" d="M52.7,5.1c-0.3-0.2-0.5-0.5-1-0.5C51.9,4.9,52.1,5.1,52.7,5.1z"/>
	<path class="st0" d="M28.3,4.8C28.8,5.3,28.8,4.4,28.3,4.8L28.3,4.8z"/>
	<path class="st0" d="M23.7,5.1c-0.1-0.4-0.3,0.1-0.7,0C23.1,5.4,23.6,5.1,23.7,5.1z"/>
	<path class="st0" d="M24.2,6.3c-0.2-0.4-0.8,0-1,0.1C23.5,6.8,23.7,6,24.2,6.3z"/>
	<path class="st0" d="M34.3,6.8c-0.3-0.1-0.5,0-0.5,0.2C34.1,6.7,34.3,7.6,34.3,6.8z"/>
	<path class="st0" d="M18.1,8.2c0.6,0.1,0.7-0.2,1.3-0.1c0-0.1-0.2-0.1-0.3-0.1c0.1-0.1,0.2-0.3,0.2-0.5c-0.1,0-0.2,0-0.2,0.1
		c0,0.3-0.3-0.2-0.7,0C18.7,8,18,7.8,18.1,8.2z"/>
	<path class="st0" d="M18.3,7.7c-0.1-0.4-0.4,0.2-0.8,0C17.6,8.1,18,7.7,18.3,7.7z"/>
	<path class="st0" d="M30.2,8.2c0.2,0,0.3,0,0.5,0c0-0.1,0-0.2,0-0.3c-0.2,0-0.3,0-0.5,0C30.2,8.1,30.2,8.1,30.2,8.2z"/>
	<path class="st0" d="M16,8.6c0-0.1,0.1-0.1,0.2-0.1c0.1-0.2-0.7-0.2-0.5,0.1C15.8,8.6,15.9,8.6,16,8.6z"/>
	<path class="st0" d="M25.5,8.9c-0.2,0-0.3,0.2-0.5,0.2C25,9.4,25.6,9.1,25.5,8.9z"/>
	<path class="st0" d="M16.5,9c0.1,0.4,0.5,0,0.3-0.3C16.6,8.8,16.7,9,16.5,9z"/>
	<path class="st0" d="M14.4,9C14.9,9.5,14.9,8.6,14.4,9L14.4,9z"/>
	<path class="st0" d="M14.2,9c-0.4-0.1-0.2,0.5-0.5,0.5C14,9.9,14.2,9.2,14.2,9z"/>
	<path class="st0" d="M5.4,10.1C4.9,9.7,4.8,10.5,5.4,10.1L5.4,10.1z"/>
	<path class="st0" d="M5.2,10.8c0,0.3,0.6,0.1,0.8,0.2C6.1,10.7,5.5,10.9,5.2,10.8z"/>
	<path class="st0" d="M30.3,11.8C29.7,12.2,30.8,12.3,30.3,11.8L30.3,11.8z"/>
	<path class="st0" d="M3,14.5c-0.1-0.2-0.3,0-0.5,0C2.7,14.7,2.9,14.5,3,14.5z"/>
	<path class="st0" d="M280.2,23.7c-0.2,0-0.3,0-0.5,0c0,0.1,0,0.2,0,0.3c0.2,0,0.3,0,0.5,0C280.2,23.9,280.2,23.8,280.2,23.7z"/>
	<path class="st0" d="M278.7,23.8C279.2,24.3,279.3,23.4,278.7,23.8L278.7,23.8z"/>
	<path class="st0" d="M0.8,24.2c0.2,0,0.1-0.3,0.3-0.3C1,23.6,0.4,24.1,0.8,24.2z"/>
	<path class="st0" d="M6,25c-0.3,0.1-0.3,0.2-0.2,0.4c0.1,0,0.2,0,0.3,0C6,25.3,6,25.2,6,25z"/>
	<path class="st0" d="M277.2,33.2C277.1,33.8,278,33.4,277.2,33.2L277.2,33.2z"/>
	<path class="st0" d="M10.6,28.6c-0.1,0.4,0.4,0.5,0.6,0.3C11.2,28.7,11,28.6,10.6,28.6z"/>
	<path class="st0" d="M247.5,36.6c-0.1,0-0.2,0-0.3,0c-0.1,0.3,0.2,0.3,0.5,0.3C247.7,36.8,247.5,36.8,247.5,36.6z"/>
	<path class="st0" d="M13.5,30.8c0-0.3-0.7-0.1-1-0.2C12.6,30.9,13.2,30.7,13.5,30.8z"/>
	<path class="st0" d="M15.3,31.7c0.4,0,0.5-0.1,0.5-0.4c-0.2,0-0.3,0-0.5,0C15.3,31.5,15.3,31.6,15.3,31.7z"/>
	<path class="st0" d="M235.1,37.9c-0.2,0.6,0.5,0.4,1,0.4c-0.1-0.1-0.2-0.2-0.2-0.4C235.6,38.1,235.5,37.9,235.1,37.9z"/>
	<path class="st0" d="M214.6,37.6C213.6,37.1,213.9,37.9,214.6,37.6L214.6,37.6z"/>
	<path class="st0" d="M17.9,32.6c0,0.4,1,0.4,0.8-0.1C18.4,32.7,18.2,32.3,17.9,32.6z"/>
	<path class="st0" d="M241.2,38.5c-0.8-0.1,0.1,0.4-0.3,0.4c0,0.2,0.4,0.1,0.7,0.1C241.4,38.9,241,38.9,241.2,38.5z"/>
	<path class="st0" d="M247.3,39c0.1,0.5,0.4,0,1,0.2C248.2,38.8,247.7,38.9,247.3,39z"/>
	<path class="st0" d="M246.4,38.8c-0.2,0.1-0.3,0.2-0.3,0.4C246.6,39.3,246.6,39,246.4,38.8z"/>
	<path class="st0" d="M242,38.8c0.1,0.3,0.9,0.1,1,0C242.8,38.5,242.4,39,242,38.8z"/>
	<path class="st0" d="M237.1,38.9c0.1,0.2,0.6,0.4,0.8,0.2C237.7,38.7,237.6,39,237.1,38.9z"/>
	<path class="st0" d="M153.5,37.7C154,38.2,154.1,37.4,153.5,37.7L153.5,37.7z"/>
	<path class="st0" d="M149.6,37.9c0.1,0.7,0.8,0,1.1,0C150.7,37.7,149.6,37.7,149.6,37.9z"/>
	<path class="st0" d="M20.1,34.8c0.2,0,0.3-0.2,0.5-0.2C20.6,34.3,20,34.6,20.1,34.8z"/>
	<path class="st0" d="M146.7,37.9c-0.2,0.1-0.5,0.2-0.5,0.5c0.5,0.1,0.4-0.2,0.8-0.1C146.9,38.2,146.6,38.2,146.7,37.9z"/>
	<path class="st0" d="M144.1,38.3c0.4,0.3,0.8,0.2,1.3,0C145.1,38,144.4,38.2,144.1,38.3z"/>
	<path class="st0" d="M60.2,36C59.6,36.4,60.7,36.5,60.2,36L60.2,36z"/>
	<path class="st0" d="M26.2,35.5c0.3-0.1,0-0.2,0-0.4C25.9,35.2,26.1,35.3,26.2,35.5z"/>
	<path class="st0" d="M20.8,35.6c0.2,0,0.3-0.2,0.3-0.4C20.9,35.3,20.8,35.4,20.8,35.6z"/>
	<path class="st0" d="M20.1,35.5c-0.1-0.1,0.5-0.1,0.5-0.1C20.7,35.1,19.7,35.1,20.1,35.5z"/>
	<path class="st0" d="M42.8,35.9c0.1,0.2,0.3,0.2,0.6,0.3C43.4,36,43.1,35.9,42.8,35.9z"/>
	<path class="st0" d="M115.7,38.2C116.1,38.6,116.8,38,115.7,38.2L115.7,38.2z"/>
	<path class="st0" d="M114.1,38.2C114.5,38.7,114.8,37.8,114.1,38.2L114.1,38.2z"/>
	<path class="st0" d="M63.1,36.9c-0.5,0-0.5,0.4-0.7,0.8C62.7,37.4,63.5,37.2,63.1,36.9z"/>
	<path class="st0" d="M99.7,38.2c0.1,0,0.2,0,0.3,0c0-0.1,0-0.2,0-0.3c-0.1,0-0.2,0-0.3,0C99.8,38.1,99.8,38.2,99.7,38.2z"/>
	<path class="st0" d="M20.4,36.3c0.1,0.4,0.5,0,0.3-0.2C20.6,36,20.7,36.3,20.4,36.3z"/>
	<path class="st0" d="M84,37.9c0-0.5-0.7,0.2-0.6-0.1C82.7,38,83.9,38.2,84,37.9z"/>
	<path class="st0" d="M78.9,37.9c0.3-0.2,0.3,0.1,0.8,0C80,37.6,78.7,37.5,78.9,37.9z"/>
	<path class="st0" d="M29.7,38c0.2,0.4,0.4,0.1,1,0.3C30.5,38.1,30,37.8,29.7,38z"/>
	<path class="st0" d="M38.6,38.9c0-0.1-0.3-0.1-0.3-0.3C37.9,38.8,38.5,39.2,38.6,38.9z"/>
	<path class="st0" d="M67.5,39.8c-0.2,0.1-0.3,0.2-0.3,0.4c0.3,0,0.3-0.1,0.5-0.1C67.6,40,67.5,40,67.5,39.8z"/>
	<path class="st0" d="M26.6,39.3C27,39.7,27.3,38.8,26.6,39.3L26.6,39.3z"/>
	<path class="st0" d="M29.2,39.5c-0.2,0.4,0.9,0.6,0.7,0C29.6,39.5,29.4,39.5,29.2,39.5z"/>
	<path class="st0" d="M54.9,40.7c-0.2,0-0.1,0.3-0.3,0.3c0.2,0.4,0.7-0.1,1.1,0C55.5,40.6,54.9,40.9,54.9,40.7z"/>
	<path class="st0" d="M38,40.2c-0.1,0.4,0.3,0.4,0.1,0.8c0.3,0,0.7,0,1,0C38.9,40.5,38.7,40.5,38,40.2z"/>
	<path class="st0" d="M33.7,40.4c0,0.3,0.5,0.3,1,0.3C34.9,40.2,34.1,40.4,33.7,40.4z"/>
	<path class="st0" d="M48.9,41.4c0,0.3,0.4,0.3,0.6,0.1C49.5,41.4,49.1,41.4,48.9,41.4z"/>
	<path class="st0" d="M48.2,41.8c0.3-0.1,0-0.2,0-0.4C47.9,41.5,48.2,41.6,48.2,41.8z"/>
	<path class="st0" d="M148.6,0.3c0.4,0-0.2-0.4-0.5-0.3C148.1,0.2,148.6,0.1,148.6,0.3z"/>
	<path class="st0" d="M159,1.2c0,0.1-0.1,0.1-0.2,0.1c0,0.3,0.4-0.2,0.8,0c0.4-0.1-0.7-0.2-1-0.3C158.7,1.2,158.9,1.2,159,1.2z"/>
	<path class="st0" d="M157.7,1.2C159,1.5,155.7,0.7,157.7,1.2L157.7,1.2z"/>
	<path class="st0" d="M247.8,36.5C247.6,36.6,247.8,36.5,247.8,36.5L247.8,36.5z"/>
	<path class="st0" d="M232.9,5.9C232.3,5.5,232,6.2,232.9,5.9L232.9,5.9z"/>
	<path class="st0" d="M31,9.2c0.4-0.1-0.3-0.4-0.6-0.4C30.3,9.1,31,8.9,31,9.2z"/>
	<path class="st0" d="M145.3,1.9C145.7,2.2,146.3,1.5,145.3,1.9L145.3,1.9z"/>
	<path class="st0" d="M202.5,3.9c-0.3,0.2-0.2,0-0.7,0C201.9,4.1,202.6,4.4,202.5,3.9z"/>
	<path class="st0" d="M195.9,4.4c1-0.1-0.6-1.1-0.6-0.4C195.9,3.7,195.5,4.1,195.9,4.4z"/>
	<path class="st0" d="M140.1,2.8c0.2,0,0.1-0.7-0.5-0.5C139.6,2.5,139.9,2.6,140.1,2.8z"/>
	<path class="st0" d="M194.2,4.7c0,0,0.1,0.1,0.1,0.1c-0.3,0-0.3-0.1-0.5-0.1c-0.2,0.2,0.7,0.4,0.6,0.7c0.1-0.1,0.4-0.1,0.5-0.2
		l0-0.1c0.2,0.1,0.4,0.2,0.6,0.2c0,0,0,0,0,0c0,0,0.1,0,0.1-0.1c0,0,0-0.1-0.1-0.1c-0.1,0-0.3-0.1-0.4-0.2c0-0.1,0.1,0,0.1,0
		c0.4-0.1-0.1-0.6-0.3-0.3l0,0c-0.1-0.1-0.2-0.2-0.3-0.4c0-0.2,0.2-0.2,0.3-0.2c-0.2-0.5-0.9,0.1-1.1-0.3c-0.2,0.1-0.3,0.3-0.3,0.5
		C194.1,4.3,193.9,4.7,194.2,4.7z"/>
	<path class="st0" d="M146.8,3.1C145.7,2.8,148.1,3.4,146.8,3.1L146.8,3.1z"/>
	<path class="st0" d="M97.7,2c0.5-0.1-0.4-0.2-0.3-0.4C96.8,1.8,97.8,1.9,97.7,2z"/>
	<path class="st0" d="M133.2,3C133.7,3.1,132.4,2.8,133.2,3L133.2,3z"/>
	<path class="st0" d="M203.9,5c0.2,0,0.4,0.2,1,0.3C204.9,4.9,204,4.9,203.9,5z"/>
	<path class="st0" d="M193.3,5.1c-0.1,0-0.2,0-0.3,0C193.7,5.7,193.4,3.8,193.3,5.1z"/>
	<path class="st0" d="M131.9,3.7c0-0.2-0.4-0.1-0.6-0.1c0,0.2,0.7,0.4,0,0.4c-0.5,0.2,0.5,0.2,0.5,0C131.6,3.8,131.6,3.7,131.9,3.7z
		"/>
	<path class="st0" d="M32.1,3.9c0.4-0.2-0.5-0.3-0.8-0.2C31.3,4.2,32,3.5,32.1,3.9z"/>
	<path class="st0" d="M31.5,7.2c0-0.3-0.3,0.2-0.7,0c0.2,0.1,0,0.5,0.5,0.4C31.3,7.4,31.3,7.2,31.5,7.2z"/>
	<path class="st0" d="M31.8,7.6c-0.3-0.4-0.5,0.4-1,0.2C31.1,8.2,31.6,7.7,31.8,7.6z"/>
	<path class="st0" d="M23.2,6.9C22.4,7.1,23,7.5,23.2,6.9L23.2,6.9z"/>
	<path class="st0" d="M29.4,7.4C28.7,8.1,29.4,8.5,29.4,7.4L29.4,7.4z"/>
	<path class="st0" d="M16.8,8.4c0,0.1-0.1,0.1-0.2,0.1c0,0.2,0.8,0,1-0.1c-0.3-0.5-0.6-0.3-1.3-0.3C16.3,8.4,16.6,8.4,16.8,8.4z"/>
	<path class="st0" d="M5.7,11.2c0,0.2,0.4,0.1,0.6,0.1c-0.2,0.2-0.1,0.3,0.2,0.3C6.5,11.1,6.2,11,5.7,11.2z"/>
	<path class="st0" d="M274.9,18.5c0,0.2,0,0.3,0,0.5c0.4,0.2,0.5-0.1,0.7,0.1c0.2-0.1,0-0.2,0.2-0.5
		C275.3,18.5,275.4,18.4,274.9,18.5z"/>
	<path class="st0" d="M11.1,12.8c0-0.1-0.2-0.1-0.2,0c-0.1,0-0.2-0.1-0.2-0.1C10.2,12.8,10.9,13,11.1,12.8z"/>
	<path class="st0" d="M274.4,20.2C274,20,275.5,20.9,274.4,20.2L274.4,20.2z"/>
	<path class="st0" d="M275.3,20.2c-0.4,0.1,0.2,0.4,0.3,0.5C276.1,20.6,275.3,20.4,275.3,20.2z"/>
	<path class="st0" d="M274,20.7C274.3,21.3,274.8,20.9,274,20.7L274,20.7z"/>
	<path class="st0" d="M3.1,18.6c0.3,0.2,0.5,0.5,1,0.5c0.2-0.5-0.7,0-0.5-0.5C3.5,18.6,3.3,18.6,3.1,18.6z"/>
	<path class="st0" d="M1,23.1c-0.1-0.1-0.3-0.1-0.5-0.1c0.1,0.2,0.3,0.2,0.3,0.4c0.2,0,0.1-0.3,0.3-0.3C1.1,22.9,1,23,1,23.1z"/>
	<path class="st0" d="M0.3,24.9c-0.3,0,0,0.5,0.3,0.4c0-0.1,0-0.3,0-0.4C0.4,24.9,0.3,25,0.3,24.9z"/>
	<path class="st0" d="M1.6,25.5c-0.5,0.3,0.4-0.2,0.3,0.1C2.5,25.6,1.5,25.1,1.6,25.5z"/>
	<path class="st0" d="M14,30.7c-0.1,0-0.2,0-0.2,0.1c0,0.1,0,0.2,0.1,0.2c0.1,0,0.3,0.1,0.4,0.1c0.3,0,0.5-0.1,0.8-0.2
		c0.6-0.1,0.4,0.4,1.1,0.3c-0.1-0.3-0.1-0.4-0.1-1c-0.4,0.1-0.6-0.1-0.5-0.4c-0.2,0.1-0.2,0.6-0.6,0.3c0,0-0.1-0.1-0.1-0.1
		c0-0.1-0.1-0.1-0.1-0.2l-0.1-0.1c-0.2-0.1-0.4-0.1-0.6,0c-0.1,0-0.1,0.1-0.1,0.2c0,0.1,0.2,0.1,0.3,0.1c0.1,0,0.1,0,0.2,0
		c0,0,0,0.1,0.1,0.1c0,0.1,0.1,0.1,0.1,0.2l-0.1,0c0.1,0.1,0.1,0.4,0.3,0.4l0.1,0C14.7,30.8,14.3,30.8,14,30.7z"/>
	<path class="st0" d="M247.3,38.1c0.1,0,0.2-0.1,0.3-0.1c0-0.1,0-0.2,0-0.3c-0.1,0-0.2,0-0.2,0.1c-0.1-0.1-0.3-0.1-0.3-0.3
		C246.7,37.6,247.6,37.7,247.3,38.1z"/>
	<path class="st0" d="M43.3,35.1C42.3,35.7,43.6,34.8,43.3,35.1L43.3,35.1z"/>
	<path class="st0" d="M147.6,38c0,0-0.3,0.2-0.3,0.3c0,0,0-0.1,0-0.1C147.1,38.8,148.2,38.1,147.6,38z"/>
	<path class="st0" d="M18,34.9c0.1,0,0.1,0,0.2,0C18,34.9,17.4,34.8,18,34.9z"/>
	<path class="st0" d="M18.2,34.9C18.2,34.9,18.2,34.9,18.2,34.9L18.2,34.9z"/>
	<path class="st0" d="M118.6,41.2C118.7,42,118.6,41,118.6,41.2L118.6,41.2z"/>
	<path class="st0" d="M70.9,40.1C70.4,39.8,70,40.6,70.9,40.1L70.9,40.1z"/>
	<path class="st0" d="M144.3,2C144.3,2,144.3,2,144.3,2c0.2-0.1,0.2-0.1,0.3-0.1c0,0,0.1,0,0.1,0c0.1,0,0.1-0.1,0.1-0.2
		c0-0.1-0.1-0.1-0.2-0.1c0,0-0.1,0-0.1,0c-0.1,0-0.2,0-0.3,0.1c-0.1,0-0.1,0.1,0,0.2C144.2,2,144.2,2,144.3,2z"/>
	<path class="st0" d="M141.5,2.1c0.1,0,0.3,0,0.4,0.1c0.1,0,0.2,0.1,0.4,0.1c0.1,0,0.1,0,0.2,0l0.1,0l0.1-0.1c0,0,0-0.1-0.1-0.1
		c-0.1,0-0.1,0-0.2,0l0,0c-0.1,0-0.2,0-0.4-0.1c-0.1,0-0.3-0.1-0.5-0.1c-0.1,0-0.1,0.1-0.1,0.1C141.4,2,141.4,2.1,141.5,2.1z"/>
	<path class="st0" d="M124.9,2.4C125,2.4,125,2.4,124.9,2.4c0.4,0,0.8,0.1,1.1,0.2c0,0,0,0,0.1,0c0.1,0,0.2,0,0.2-0.1
		c0-0.1,0-0.2-0.1-0.2c-0.5-0.2-0.9-0.3-1.3-0.2c-0.1,0-0.2,0.1-0.2,0.2C124.7,2.3,124.8,2.4,124.9,2.4z"/>
	<path class="st0" d="M130.6,2.9c0.3-0.1,0.5,0,0.8,0c0.2,0,0.3,0.1,0.5,0.1c0.1,0,0.2,0,0.3,0c0.1,0,0.1-0.1,0.1-0.2
		c0-0.1-0.1-0.1-0.2-0.1c-0.2,0-0.4,0-0.6,0c-0.3-0.1-0.7-0.1-1.1,0c-0.1,0-0.1,0.1-0.1,0.2C130.4,2.9,130.5,2.9,130.6,2.9z"/>
	<path class="st0" d="M73.3,2.5c0.5,0.2,1,0.2,1.4,0.1c0.1,0,0.1,0,0.2,0c0.1,0.1,0.3,0.2,0.4,0.2c0.1,0,0.2,0.1,0.2,0.1
		c0,0,0.1,0,0.1,0c0.1,0,0.1,0,0.1-0.1c0.1-0.1,0-0.1,0-0.2c-0.1-0.1-0.2-0.1-0.3-0.1c-0.2-0.1-0.3-0.1-0.3-0.2l-0.1-0.1l-0.1,0
		c-0.1,0-0.2,0-0.3,0c-0.4,0.1-0.8,0.1-1.2,0c-0.1,0-0.2,0-0.2,0C73.2,2.4,73.2,2.5,73.3,2.5z"/>
	<path class="st0" d="M29.6,12c-0.1,0-0.2,0-0.3,0c-0.1,0-0.1,0-0.2,0c-0.1,0-0.1,0.1-0.1,0.1c0,0.1,0.1,0.1,0.1,0.1c0,0,0,0,0,0
		c0.1,0,0.2,0,0.2,0c0.1,0,0.2,0,0.2,0c0.1,0,0.1,0,0.1-0.1C29.7,12,29.6,12,29.6,12z"/>
	<path class="st0" d="M244.8,38.9c-0.1,0-0.2,0-0.4-0.1c-0.2-0.1-0.4-0.3-0.7-0.2c-0.1,0-0.1,0.1-0.1,0.2c0,0.1,0.1,0.1,0.2,0.1
		c0.1,0,0.2,0,0.4,0.1c0.1,0.1,0.3,0.2,0.5,0.2c0,0,0.1,0,0.2,0c0.1,0,0.2-0.1,0.1-0.2C245,39,244.9,38.9,244.8,38.9z"/>
	<path class="st0" d="M155.2,37.8c-0.2,0-0.3,0-0.4,0c0,0-0.1,0-0.1,0c-0.1,0-0.1,0.1-0.1,0.1c0,0,0.1,0.1,0.1,0.1c0,0,0,0,0,0
		c0,0,0.1,0,0.1,0c0.1,0,0.2,0,0.3,0c0.1,0,0.1,0,0.1-0.1C155.4,37.8,155.3,37.8,155.2,37.8z"/>
	<path class="st0" d="M289.1,12.1c0,0.1,0,0.3,0.2,0.3c0-0.1,0.2-0.1,0.4,0C289.8,12.2,289.6,12.1,289.1,12.1z"/>
	<path class="st0" d="M281.2,18.5C280.2,18.2,280.7,18.9,281.2,18.5L281.2,18.5z"/>
	<path class="st0" d="M273.2,19.5c-0.2,0.4,0.8,0.2,1.2,0.2C274.6,19.4,273.6,19.6,273.2,19.5z"/>
	<path class="st0" d="M275.8,21.7c-0.5-0.1-1.2,0.2-0.6,0.3C275.1,21.8,276.1,22.1,275.8,21.7z"/>
	<path class="st0" d="M278.9,23.2c-0.3-0.1-1.6-0.2-1.4,0.3C278.1,23.5,278.3,23.3,278.9,23.2z"/>
	<path class="st0" d="M276.6,10.5c0,0,0-0.1,0-0.1l-0.1,0L276.6,10.5z"/>
	<path class="st0" d="M276.4,10.4c0,0,0,0.1,0,0.1l0.1,0L276.4,10.4z"/>
	<path class="st0" d="M279.1,23.1c0-0.1,0.2-0.1,0.2-0.2c-0.1,0-0.2,0-0.3,0c-0.1-0.1-0.3-0.2-0.5-0.2c0,0.2,0.2,0.3,0.4,0.3
		c0.2,0.1,0.5,0.2,0.1,0.4c0.7,0.1,0.6-0.1,0.8-0.3C279.4,23.2,279.1,23.2,279.1,23.1z"/>
	<path class="st0" d="M261.5,5.3c0.1,0,0.2,0,0.2-0.1l0,0.1c0,0.2,0.1,0.2,0.2,0.4c0.2,0,0.1-0.2,0.2-0.4c0.4-0.2,0.8,0.3,0.8,0
		l0-0.1c0.1,0,0.1,0.1,0.2,0.1c0,0,0,0.1,0.1,0.1c0,0,0,0,0,0c0,0,0.1,0,0.1,0l0.1-0.1l-0.1-0.1c0,0-0.1,0-0.1-0.1
		c0.1-0.4-0.3-0.5-0.8-0.5l0,0c0-0.1-0.1-0.1-0.1-0.2c0-0.1-0.1-0.1-0.2,0c-0.1,0-0.1,0.1-0.1,0.2c0,0,0.1,0.1,0.1,0.1l0,0
		c-0.1,0.1-0.3,0.1-0.3,0.3c-0.1,0-0.1,0-0.2,0c0,0-0.1,0-0.1,0c0,0-0.1,0.1,0,0.1C261.3,5.3,261.4,5.3,261.5,5.3z"/>
	<path class="st0" d="M298.3,11.9c-1.1-0.2-2.2-0.4-3.4-0.5c-0.8-0.1-1.5-0.2-2.2-0.3l0.1,0c-1.8-0.6-5.4-0.9-7.2-1.2
		c-2.2-0.6-3.4-0.7-5.7-1.1c0-0.1,0.4-0.1,0.4-0.2c-1.1-0.1-0.5,0.2-1.4,0.3c-0.4-0.1-0.4-0.2-0.2-0.3c-1.1,0.3-1.4-0.5-2.3-0.1
		c-1.9-0.9-5.8-0.2-8.4-1.1c-0.8,0-1.4,0-2.1-0.1c0,0,0-0.1-0.1-0.1c0.1-0.1,0.3-0.1,0.4-0.2c0,0,0.1-0.1,0-0.1c0,0-0.1,0-0.1,0
		c-0.2,0.1-0.3,0.1-0.5,0.2c0,0-0.1,0-0.1,0c-0.3-0.2-0.2-0.6-0.5-0.8c-0.2,0.1-0.4,0.1-0.5-0.1c-0.5,0.1-0.5,0.7-1.2,0.7
		c-0.6-0.8-1.4-0.3-1.9-0.4l0-0.2c0-0.1-0.1-0.1-0.2-0.1c-0.1,0-0.2,0.1-0.2,0.1l0,0.2c-0.3-0.1-0.3-0.4-0.8-0.3
		c-0.2,0.3-0.4,0.4-0.7,0.6c-0.1-0.2-0.7-0.3-0.3-0.5l-0.1,0c0-0.1,0.1-0.1,0.1-0.2c0-0.1,0.1-0.2,0.1-0.2c0,0,0-0.1,0-0.1
		c0,0-0.1,0-0.1,0c-0.1,0.1-0.1,0.2-0.2,0.3c0,0,0,0.1-0.1,0.1c-0.4,0-0.8,0-0.6-0.4c-0.2,0.4-0.6,0.5-0.7,1c-1.3,0-0.8-1.4-1.8-1.6
		c-0.3,0.1-0.5,0.4-1,0.4c0.9,0.2-0.3,0.6,0.6,0.8c-1.2-0.1-2.9,0.1-4.4-0.2c-0.1,0,0.1-0.2,0.2-0.1c-0.1-0.4-0.5,0-0.3,0.2
		c-1,0-1.8,0-2,0.3c-1.3-0.2-2.8,0-4.2-0.4c0.4,0.4-0.4,0.4-0.8,0.2c-0.1-0.1,0.1-0.7-0.6-0.7c0,0.2,0,0.4-0.2,0.4l-0.1,0.2
		l-0.1-0.2c-0.3,0-0.3,0.1-0.2,0.1c0,0.2-0.5,0-0.5,0.2c-0.1,0-0.2-0.1-0.3-0.1l0,0.1c-0.1-0.2-0.3-0.2-0.5-0.2
		c-0.1,0-0.2,0-0.2,0.1c0,0.1,0,0.1,0.1,0.1c0.1,0,0.2,0.1,0.3,0.1c0.1,0.3-0.3,0.2-0.3,0.3c0,0,0,0,0,0c-0.3-0.1-0.6,0-0.8,0
		c-0.9,0-1.4-0.3-2.3-0.3c0.3,0.3,0,0.5-0.3,0.3c-0.5,0.1,0.5,0.2,0.5,0.4c-0.1,0.2-0.4,0.1-0.7,0.1c-0.3-0.1-0.3-0.5-0.5-0.7
		c-0.2,0-0.4,0-0.6,0c-0.7-0.4-1.4-0.4-2.2-0.4c-0.5,0-0.9,0-1.3-0.1c0,0,0.1-0.1,0.1-0.1c0.1-0.1,0.1-0.2,0-0.3
		c-0.1-0.1-0.3-0.1-0.4,0c-0.1,0.1-0.2,0.2-0.3,0.2c0,0,0,0-0.1,0l-0.1,0l0,0c-0.1,0-0.2,0-0.3,0.1l-0.1,0c-0.5-0.4-0.7-0.5-1.3-0.5
		c0.1-0.1,0.2-0.2,0.2-0.4c-0.8-0.1-1.2-0.8-1.6-0.3c-0.6-0.3-0.8-0.8-1.6-0.4c-0.2-0.1-0.3-0.2-0.3-0.4c-0.1,0.5-0.8,0-0.8,0
		c-0.2,0-0.1,0.3-0.5,0.4c-0.2,0.1-0.6-0.1-0.8,0c0,0,0,0.3,0,0.3c0,0-0.9-0.2-1-0.3c-0.4-0.2-0.2-0.3-0.3-0.5c-0.3,0.2-0.6,0-1,0
		c0.6,0.5-0.3,0.2-0.6,0.2c-0.1-0.1-0.2-0.1-0.3-0.1c-0.1,0-0.1,0-0.2-0.1c-0.1,0-0.2,0-0.2,0.1c0,0.1,0,0.1,0.1,0.2
		c0.1,0,0.2,0.1,0.2,0.1c0.1,0,0.2,0.1,0.3,0.1l-0.1,0c-0.1,0-0.2,0-0.2,0.1c-0.2,0-0.3,0.1-0.5,0.2l0-0.1c-0.4,0-0.3-0.2-0.6,0
		l0.1,0.2l-0.2-0.1c-0.4,0.1-1.3,0.8-1.6,0c-0.3,0-0.4,0.2-0.3,0.5c-0.1,0-0.1,0-0.2,0l0,0c-0.2,0-0.3,0-0.5,0l0,0
		c-0.2-0.1-0.1-0.3-0.1-0.5c-0.3,0-0.2,0.3-0.7,0.2c-0.6-0.3-0.1-0.6-1-0.7c0.3,0.3,0,0.1-0.2,0.4c-1.8-0.3-2.3-0.5-4.1-0.2l0,0
		c0,0,0,0-0.1,0c-0.1,0-0.2,0-0.4,0c-0.2,0-0.3,0-0.5,0c0,0,0,0,0,0c-0.1,0-0.1,0-0.2,0.1c-0.4-0.1-0.8-0.1-1.2,0.2c0,0,0,0,0,0
		c-0.1,0-0.2-0.1-0.2-0.1c-0.1,0-0.1,0-0.2-0.1l0,0l0,0c-0.1,0-0.2,0.1-0.2,0.1c0,0,0,0-0.1,0l0,0l0,0c0,0,0,0.1,0,0.1
		c-0.2-0.1-0.3-0.1-0.5-0.1c-0.1,0-0.3,0-0.4-0.1c-0.1-0.4-0.8-0.3-1.2-0.1c-0.2,0-0.4,0-0.6-0.1l0,0c0-0.1-0.1-0.1-0.2-0.1
		c-0.1,0-0.1,0.1-0.1,0.1l0.1,0.1l0.1,0c0.2,0.1,0.4,0.1,0.6,0.1c0.1,0,0.2,0,0.3,0l0,0.1c0.3,0.2,0.6,0.4,1,0.2l0,0
		c0.2,0.1,0.3,0.1,0.5,0.1c0.2,0,0.3,0,0.5,0.1c0,0,0,0,0.1,0c0,0,0,0,0,0l0.1,0c0.2,0,0.4,0,0.5,0.1c0,0,0,0,0,0l0.2,0.2
		c0,0,0.1,0.1,0.2,0.1c0,0,0.1,0,0.1,0c0.1,0,0.1,0.1,0.2,0.1c0,0,0,0,0,0c0.1,0,0.1,0,0.1-0.1c0-0.1,0-0.1-0.1-0.1
		c0,0-0.1,0-0.1-0.1c0,0,0,0,0,0l0.2-0.1c0,0,0-0.1,0-0.1c0,0-0.1,0-0.1,0l-0.2,0.1l-0.2-0.1c0-0.1,0-0.1,0.1-0.2
		c0.2-0.2,0.6-0.2,1-0.1c0,0,0,0.1,0.1,0.1l0,0.3c0,0,0,0.1,0.1,0.1c0.1,0,0.1,0,0.1-0.1l0-0.3c0.1,0,0.2,0,0.3,0c0.1,0,0.2,0,0.3,0
		l0,0c1.1,0,1.9,0.2,2,0.3c0,0.2,1.3,0.3,1.1-0.1c0.2,0,0.1,0.2,0.2,0.3l0.1,0l0,0.1c0,0.1,0,0.2,0,0.3c-0.2,0-0.5,0-0.7-0.1
		c-0.3-0.1-0.6-0.1-0.9-0.1c-0.1,0-0.2,0.1-0.2,0.2c0,0.1,0.1,0.2,0.2,0.2c0.2,0,0.5,0.1,0.7,0.1c0.3,0.1,0.5,0.1,0.8,0.1
		c0,0,0.1,0,0.1,0c0,0,0,0,0,0l0,0l0,0c0.1,0,0.1,0,0.2,0c0,0.2,0,0.2,0.2,0.3c-0.6,0.5-2.1-0.2-3.6-0.4c-0.6-0.1-1.2,0.1-1.8,0.1
		c-0.6-0.1-0.9-0.5-1.5-0.3l0,0c0,0-0.1,0-0.1-0.1c-0.2-0.1-0.4-0.2-0.8-0.1c-0.1,0-0.2,0.1-0.1,0.2c0,0.1,0.2,0.1,0.3,0.1
		c0.1,0,0.2,0,0.3,0.1c0.1,0,0.2,0.1,0.3,0.1l-0.1,0c-0.9,0.1-3.3,0.1-3.9-0.5c0,0,0,0,0.1,0c0.3,0.2,0.7,0.2,1,0.2
		c0.2,0,0.3,0,0.5,0c0.3,0,0.5,0,0.8,0c0,0,0.1,0,0.1-0.1c0,0,0-0.1-0.1-0.1c-0.3,0-0.5,0-0.8,0c-0.5,0-1,0-1.4-0.2l0,0l0,0
		c-0.1,0-0.2,0.1-0.2,0.1l0-0.1c-0.4,0-0.9,0-1.3,0c-0.1,0.3,0.1,0.3,0.2,0.5c-0.1-0.1-0.6-0.3-0.5,0.1c-0.2-0.2-0.6-0.2-0.8-0.4
		c-0.2,0.1-0.3,0.2-0.3,0.4c0-0.4-1.1,0-1-0.5c-1.3,0.5-3.1-0.5-4.1,0c0,0.2,0.3,0.1,0.5,0.1c-0.3,0.4-0.6-0.2-1-0.2
		c-0.1-0.1-0.1-0.1-0.2-0.1c0,0-0.1,0-0.1,0c0,0,0,0.1,0,0.1c0.1,0,0.1,0.1,0.2,0.1l-0.1,0c-0.3-0.1-0.6,0.1-0.3,0.1
		c-1.2-0.1-4.9-0.4-6.3-0.4c0.2,0.2,0.2,0.3,0,0.5c-0.3,0-0.3-0.1-0.6-0.1c0,0,0-0.1-0.1-0.1c0,0,0-0.1,0-0.1c0,0-0.1-0.1-0.1-0.1
		c-0.1,0-0.1,0.1-0.1,0.1c0,0,0,0.1,0,0.1c0,0.1,0,0.2,0.1,0.3l-0.1,0c-0.6,0-1.4,0.1-1.1-0.5c-0.6-0.1-0.6,0.3-0.8,0.5
		c-0.3,0-0.2-0.4-0.6-0.3c0.1,0.3-0.3,0.3-0.3,0.1l0,0c0,0,0,0,0,0c-0.1-0.1,0-0.1,0-0.3c0.1-0.1,0.1-0.2,0.1-0.3l0,0l0,0
		c-0.4-0.5-0.9-0.7-1.4-0.6l-0.1,0l0,0.1c0,0.1,0,0.2,0,0.2c-0.1,0-0.2,0-0.3,0c-0.1,0-0.2,0-0.3,0l0-0.1c-0.4-0.1-0.8-0.1-0.8-0.5
		c-0.4,0.5-1,0-1.8,0.1l0,0.1c-0.2-0.1-0.3-0.1-0.5-0.1l-0.1,0c0,0,0,0,0,0c-0.1,0-0.1,0-0.1,0.1c0,0.1,0,0.1,0.1,0.1l0.1,0
		c0.1,0,0.3,0,0.4,0.1l-0.1,0c-0.4,0.1,0.4,0.3,0.3,0.5c0.1-0.1,0.3-0.1,0.5-0.1l0.2-0.1l-0.1,0.2c0.4-0.1,0.2,0.3,0.5,0.3
		c0.6-0.3,0.3,0,1.1,0l0,0c0.1,0.1,0.1,0.2,0.2,0.3l-0.1,0c-1.2,0.2-1.9,0-3.7,0c0.6-0.6-0.1-0.2-1-0.4c0-0.1,0-0.2,0-0.3l-0.1,0
		c0.1-0.1,0.1-0.1,0.1-0.2l0,0l0,0c-0.2-0.4-0.7-0.5-1.2-0.5c-0.1,0-0.1,0.1-0.1,0.1c0,0,0.1,0.1,0.1,0.1c0.3-0.1,0.7,0.1,0.9,0.3
		c0,0,0,0-0.1,0.1c-1.3,0-3.4,0-4.7-0.3c-0.3,0-0.9,0.2-0.8-0.3c-0.7,0.5-0.9-0.2-1.8,0.1l0,0.1c-0.1,0-0.3-0.1-0.4-0.1l-0.1,0
		c-0.3,0-0.3-0.2-0.3-0.5c-0.4,0-0.8,0-0.8-0.3c0-0.1,0.2-0.1,0.3-0.1c0-0.2-0.3-0.1-0.5-0.1l0,0.1c-0.1-0.1-0.2-0.2-0.3-0.3
		c0,0-0.1-0.1-0.1-0.1c-0.1,0-0.1,0-0.2,0c0,0,0,0.1,0,0.1c0.1,0,0.1,0.1,0.2,0.1c0.1,0,0.1,0.1,0.2,0.1c-0.3,0-0.5,0.1-0.6,0.2
		c-0.2,0-0.8-0.5-0.2-0.4c0-0.2-0.5-0.1-0.5-0.3c-0.3,0.1-0.3,0.2-0.2,0.4c-0.4,0-0.3-0.2-0.7,0c0-0.3,0.1-0.4,0.5-0.4
		c0.1-0.4-0.8-0.1-0.6-0.5c-0.7,0.6-1.1-0.5-1.6,0.1l0,0c-0.1,0-0.1,0-0.2-0.1c-0.1,0-0.2,0-0.2,0c0,0.1,0,0.1,0,0.2
		c0.1,0,0.1,0.1,0.2,0.1l0,0c0.3,0.4-0.2,0.4-0.7,0.3c0-0.1-0.1-0.3,0-0.4l0,0l0,0c-0.1-0.1-0.1-0.1-0.2-0.2l0,0l0,0
		c-0.1,0-0.2,0-0.3,0c-0.1,0-0.3,0-0.4,0c0,0,0,0,0,0c-0.1,0-0.1,0-0.1,0.1c0,0,0,0.1,0.1,0.1c0.2,0,0.3,0,0.4,0c0.1,0,0.2,0,0.3,0
		c0,0,0.1,0.1,0.1,0.1c-0.1,0.2-0.1,0.4,0,0.6l-0.1,0c-0.3,0-0.2,0.3-0.7,0.2l0,0c-0.3-0.1-0.6-0.2-0.8-0.1c-0.1,0-0.2,0.1-0.3,0.2
		l0,0c-0.1,0-0.1,0-0.2,0l0,0c0,0,0,0,0,0c-0.1-0.3-0.5-0.5-0.9-0.4c-0.1,0-0.2,0.1-0.2,0.2c0,0.1,0.2,0.2,0.3,0.2
		c0.1,0,0.2,0,0.3,0.1c-0.4,0.4-1.6,0-2,0.1c-0.2-0.1-0.4-0.1-0.5-0.1l0,0c-0.4-0.4-2.2,0.2-2.1-0.6c-1.1,0-1.9,0.1-3.1-0.2l0.1,0.2
		l-0.2-0.1c-0.1,0-0.1,0-0.2,0.1c-0.1,0-0.2,0-0.4,0c-0.1,0-0.2,0-0.2,0.1c0,0.1,0,0.1,0.1,0.2c0.1,0,0.3,0.1,0.4,0.1
		c0.1,0,0.2,0,0.3,0l0,0.1c0,0.1,0,0.3,0,0.4c-0.6-0.2-0.7-0.2-1.5-0.2c0,0.2,0,0.3,0,0.5c0.4,0.1,1,0,1,0.4
		c0.5-0.5,1.3-0.3,1.6,0.2c-1.9,0.2-3.9-0.2-6-0.7c0,0.3-0.8,0.5-1.1,0.4c-0.1,0-0.2-0.3-0.2-0.3c-0.6,0-1.2,0.1-2,0.1
		c0.2,0-0.4,0.3-0.8,0.1c-1.1-0.4-2.2-0.7-3.2-0.5c-0.6-0.9-1.9-0.3-3.6-0.2l0,0c0,0,0,0,0,0c-0.3,0-0.6-0.1-0.9-0.1
		c-0.4-0.1-0.7-0.2-1.1-0.1c-0.1,0-0.1,0.1-0.1,0.1c0,0.1,0.1,0.1,0.1,0.1c0.4,0,0.7,0,1,0.1c0.3,0.1,0.6,0.1,0.9,0.1c0,0,0,0,0,0
		c0,0,0.1,0.1,0.1,0.2c-0.5,0.2-1.3-0.2-2-0.2c0,0.1,0,0.3,0,0.4c-0.6,0-0.8-0.3-1.3-0.3l0,0c-0.1,0-0.2-0.1-0.2-0.1
		c-0.1,0-0.1,0-0.2,0.1c0,0,0,0.1,0,0.1c-0.5,0,0.7,0.5-0.2,0.4l0,0.1c-0.1,0-0.2,0-0.3,0c-0.1,0-0.1,0.1-0.1,0.2c0,0,0,0,0.1,0.1
		c-1.1,0.2-1.9,0.2-2.9-0.1c0.2,0.2,0.2,0.3,0,0.5c-0.8-0.2-1.2-0.7-1.8-0.3c0.2-0.3,0.4-0.5,0.2-0.9c-0.5-0.1-0.5,0.2-0.8,0.2
		c-0.4,0-0.1-0.4,0-0.5c0.1,0,0.1,0,0.2,0c0.1,0,0.2,0,0.2-0.1c0-0.1-0.1-0.1-0.2-0.1c-0.1,0-0.2,0-0.4,0l0,0
		C128.7,3,128,3,127.7,2.7l0-0.1c-0.1-0.2-0.6-0.3-0.9-0.2l0,0l0,0c-0.1,0.1-0.1,0.2-0.1,0.2l0,0l0,0c0,0.1,0.1,0.1,0.2,0.2l-0.1,0
		c-0.2,0.2,0.3,0.4-0.3,0.5c0,0-0.1,0-0.1,0c0,0-0.1,0-0.1,0c-0.1,0-0.2,0-0.3,0c0,0,0,0,0,0c-0.1,0-0.2,0-0.2,0.1l-0.4,0
		c0-0.4-0.5-0.5-0.5-0.9c-0.7,0.3-0.2,0.9-1.3,0.7c-0.3-0.1,0.2-0.4,0.3-0.5c-0.3-0.2-0.4-0.3,0-0.5c0-0.3-0.6-0.1-0.8-0.2
		c0.5-0.5-0.9-0.8-0.6-1c0-0.3-0.4,0.1-0.7,0c-0.4-0.2-0.8-0.3-1.2-0.4c-0.1,0-0.2,0-0.4,0c-0.1,0-0.2,0-0.2,0.1
		c0,0.1,0,0.2,0.1,0.2c0.1,0,0.3,0,0.4,0c0.4,0,0.8,0.1,1.1,0.3l0,0c0.1,0.2,0.6,0.7,0.3,0.8l0,0.1c-0.1-0.1-0.3-0.1-0.5-0.1
		c-0.1,0-0.2,0.1-0.3,0.2c-0.2,0-0.5,0.1-0.6,0c0,0,0-0.1,0-0.1c0,0,0-0.1-0.1-0.1c0,0-0.1,0-0.1,0.1c0,0.1,0,0.2,0.1,0.3
		c0.1,0.1,0.2,0.1,0.3,0.1c0.1,0,0.3,0,0.4,0l0.1,0l0-0.1c0-0.1,0.1-0.1,0.1-0.1c0.1,0,0.1,0,0.2,0c0,0.1,0,0.1,0,0.2
		c0.2,0,0.5,0,0.5-0.1c-0.1,0.3,0.5,0.4,0.5,1c-0.9-0.2-1.1-0.7-1.9-0.7c-0.1,0.1-0.2,0.3-0.2,0.5c-0.2-0.1-0.6-0.3-0.5,0.1
		c-0.5-0.1-0.8-0.3-1.1-0.5c-0.7,0.3-0.8,0.1-1.6,0c0.9,0.6-1.9,1-2.4,0.5c-0.1-0.1-0.1-0.2-0.2-0.2l0,0l-0.1,0
		c-0.1,0-0.2,0.1-0.3,0.1c0,0-0.1,0-0.1,0c0,0,0,0,0,0c-0.1,0-0.3,0-0.4,0c-0.3,0-0.6-0.1-0.8,0c-0.1,0-0.1,0.1-0.1,0.1
		c0,0.1,0.1,0.1,0.2,0c0.2-0.1,0.4,0,0.6,0c0.1,0,0.3,0,0.4,0.1c0,0,0.1,0,0.1,0c0,0,0.1,0,0.1-0.1c0,0,0.1,0,0.1,0
		c0.1,0,0.1-0.1,0.2-0.1c0.1,0.1,0.1,0.1,0.2,0.2l0,0c0,0.2-0.5,0.2-0.5,0l-0.1,0.1l-0.1,0.1c-1,0.1-2.4,0.4-2.8-0.3
		c-0.3,0-0.1,0.4-0.3,0.5c-0.4-0.4-1.4-0.8-1.9-0.7c0,0.1,0.2,0.2,0.3,0.1c-1.4,0.7-3.4,0.2-5.5,0.1c-0.7,0.8-1.7-0.6-2.9-0.1
		c-0.2-0.1-0.2-0.3-0.5-0.3c0,0.1,0.1,0.1,0.2,0.1c-1.7,0-4.5,0.1-7.2-0.3c-0.8,0.8-2.5-0.4-3.7,0.2c-0.2-0.1-0.4-0.2-0.2-0.3
		c-1.6,0.1-3.3-0.1-5-0.4c0,0.2,0.2,0.2,0.2,0.4c-1.6-0.4-3.2-0.3-4.4-0.4l0,0.1c-0.4-0.2-0.9-0.2-1.3,0c-0.4-0.1-1.7-0.2-2.3,0.1
		c-0.1,0.4,0.1,0.5,0.3,0.7c-0.6,0.2-1.6,0.3-2.3,0.2c-0.2,0-0.3-0.2-0.5-0.3c-1-0.1-3.4,0.3-4.7,0.1c-0.2,0-0.1-0.1-0.2-0.3
		c-2.1,0.5-4.7,0-6.8,0.3l0,0c0,0-0.1,0-0.1,0c-0.1,0-0.2,0-0.2,0l0,0c-0.3-0.1-1.4-0.2-2.1,0c0,0,0,0,0,0c-0.2,0-0.4,0-0.7,0
		c-0.2,0-0.4,0-0.6,0c0,0,0,0,0,0c-0.3-0.1-0.6,0-0.8,0.1l-0.1,0c0,0,0,0,0,0c-0.7,0-0.8,0-1.4-0.2c-0.9,0.6-1.6,0.1-3.1,0.3l0,0.1
		c-0.4-0.1-0.7-0.1-1.1-0.1c-0.2,0-0.4,0-0.5,0c0,0-0.1,0-0.1,0c-0.5-0.1-0.8-0.4-1.3-0.1c-0.4-0.7-1.1-0.4-2.3-0.4
		c0,0.5,0.2,0.4,0,0.8c-0.6-0.2-0.9-0.4-1.3,0.1c-0.2,0-0.4,0-0.5,0c-0.3,0-0.3-0.3-0.3-0.6c-0.3,0-0.3,0.3-0.5,0.5
		c0.1-0.4-1.1-0.1-1.3-0.2c0,0-0.3-0.3-0.2-0.3c-0.4,0-0.9,0.7-1.5,0.2c-0.3,0.4-1.1,0.4-2,0.3c0.5,0.4-0.5,0.2-0.6,0.5
		c-0.1,0-0.1-0.1-0.2-0.1l0,0C38.7,3.7,38,4,37.3,4.3c0,0-0.1,0-0.1,0c-0.5-0.3-1.5-0.2-1.9,0.2c-1-0.3-1.3,0.1-2.6-0.1
		c0,0.1,0,0.2,0,0.3c-1.1,0.2-2.3,0.3-3.4,0.5c-1.5,0.2-3.1,0.4-4.4,0.7c-0.1,0-0.2,0.1-0.1,0.2c0,0.1,0.1,0.1,0.2,0.1
		c0,0,0,0,0.1,0c1.3-0.3,2.8-0.5,4.4-0.7c1.2-0.1,2.3-0.3,3.5-0.5l0,0C33.5,5.2,33.9,5,34.5,5c-0.7,1-2.7,0.5-4.2,0.7
		c-0.1,0-0.3,0.2-0.3,0.3c-0.8,0.1-2,0-2.6,0.2c-0.2,0-0.7,0.4-1.1,0.1c-0.2,0.5-0.7-0.1-0.8,0.4l0,0c-0.2,0.1-0.4,0.1-0.6,0.2
		c-0.2,0-0.3,0.1-0.5,0.1c-0.1,0-0.1,0.1-0.1,0.1c0,0,0.1,0.1,0.1,0.1c0,0,0,0,0.1,0c0.2,0,0.3-0.1,0.5-0.1c0.2-0.1,0.5-0.1,0.7-0.2
		l0,0.1c0.7,0,1.1,0.3,2.1,0.1c0.2,0,0.5-0.2,0.5-0.2c0.7-0.1,1.6,0.2,2.3-0.1c0.2,0,0.1,0.2,0.2,0.4c0.2-0.1,0.3-0.3,0.5-0.5
		c0.4,0.1,1,0.3,1.1-0.1c0.2,0,0.1,0.2,0.2,0.4c-0.7,0.2-0.1,0.4-0.2,0.9c0.8,0,0.9-0.2,1.6-0.2c-0.6-0.3-0.2-0.7-0.6-0.9
		C33.6,6.3,34.1,6,35,6.2l0-0.1c0.1,0,0.2,0.1,0.3,0.1c0.1,0,0.1,0,0.1,0.1c0.1,0.1,0.2,0.1,0.3,0c0.1,0,0.1,0,0.2,0
		c0,0.4,0.1,0.1,0.4,0.1c0,0.1,0,0.1,0,0.1c-0.5,0,0.1,0.4-0.3,0.5l0,0c0,0,0,0,0,0c-0.2,0-0.6-0.1-0.7,0.1c0,0,0,0.1,0.1,0.1
		c0,0,0,0,0,0c0,0,0.1,0,0.1-0.1c0-0.1,0.2-0.1,0.4,0c0.1,0,0.1,0,0.2,0l-0.1,0.1c0,0.3,0.6,0.1,0.8,0.2l0,0c0,0-0.1,0.1-0.1,0.1
		c0,0,0,0,0,0C34.9,8,33.5,7.5,32,8c0,0.1,0.2,0.1,0.2,0.3l0,0c-0.1,0-0.2,0.1-0.4,0.1c-0.2,0-0.4,0-0.6,0.1c-0.1,0-0.1,0.1-0.1,0.2
		c0,0,0.1,0.1,0.1,0.1c0,0,0.1,0,0.1,0c0.1-0.1,0.3-0.1,0.5-0.1c0.2,0,0.3,0,0.5-0.1l0,0c0.1,0.2,0.2,0,0.5,0
		c-0.1,0.1-0.1,0.2-0.3,0.2c-0.1,0.3,0.6-0.3,0.5,0.3c0.2-0.2,0-0.5,0.5-0.6c0.3,0-0.2,0.4,0.3,0.5c0.4-0.1,0.7-0.5,1.1-0.1l0,0
		C35,8.9,35,9,35,9c-0.1,0.1-0.6,0-0.6,0.2l0,0c0,0,0,0-0.1,0l-0.2,0c-0.1,0-0.3,0-0.4,0c-0.1,0-0.2,0.1-0.1,0.2
		c0,0.1,0.1,0.1,0.2,0.1c0,0,0,0,0,0c0.1,0,0.2,0,0.3,0l0.2,0c0,0,0,0,0,0c0,0,0,0,0,0c0,0,0,0,0,0c-0.1,0.5-0.4,0-1,0.1
		c0.1,0.3,0.1,0.3,0,0.6c-0.4,0.1-0.2-0.3-0.5-0.3v0c0-0.1-0.1-0.2-0.2-0.2c-0.1-0.1-0.1-0.1-0.1-0.2c0.1-0.1,0.3-0.2,0.5-0.2
		C32.8,9.1,32.4,9,32,8.9l0,0c-0.2,0-0.4,0.1-0.5,0.2c-0.1,0.1-0.3,0.1-0.4,0.1c-0.1,0-0.1,0-0.1,0.1c0,0.1,0.1,0.1,0.1,0.1
		c0,0,0,0,0,0c0.2,0,0.4-0.1,0.5-0.2c0.1-0.1,0.2-0.1,0.4-0.1l0,0c0,0.2,0,0.2-0.2,0.3c0,0.2,0.3,0.1,0.5,0.1l0,0
		c0,0.1,0.1,0.2,0.2,0.3c0.1,0.1,0.1,0.2,0.2,0.2l-0.1,0c-0.7,0.1-2.2-0.2-2.6,0.7c-0.4-0.1,0.4-0.7-0.5-0.7c0,0-0.1-0.1-0.1-0.1
		c-0.1-0.1-0.2-0.2-0.2-0.3c0,0,0-0.1,0.1-0.1c0,0,0.1-0.1,0-0.1c0,0-0.1,0-0.2,0C29.1,9.6,29,9.6,29,9.7c0,0.2,0.1,0.3,0.3,0.4
		c0.1,0,0.1,0.1,0.1,0.1l-0.1,0c-0.3-0.1-0.3-0.4-0.8-0.3c0.2,0.2,0.2,0.3,0,0.5l-0.1,0c-0.1-0.1-0.2-0.2-0.3-0.2
		c-0.1-0.1-0.2-0.1-0.3-0.2l0.1,0c0.5,0,0.1-0.2,0.4-0.4c0,0,0,0,0,0l0,0c0,0,0,0,0,0l0,0l0,0c0.1-0.3,0-0.5-0.2-0.7
		c-0.1-0.1-0.2-0.2-0.2-0.3l0-0.1l-0.2,0c-0.5-0.1-1-0.2-1.5,0l0,0l0,0c0,0.1-0.1,0.1-0.1,0.2l0,0.1c0,0,0,0.1,0.1,0.1c0,0,0,0,0,0
		c0,0,0,0,0,0c0,0,0,0,0,0c0,0,0,0,0,0c0.1,0,0.3,0.1,0.5,0.1l0.1,0c0,0,0,0,0,0c0.1,0,0.1,0,0.1-0.1c0,0,0-0.1-0.1-0.1l-0.1,0
		c-0.1,0-0.2,0-0.3,0c0,0,0-0.1,0-0.1c0.4-0.2,0.8-0.1,1.3,0l0.1,0c0,0.1,0.1,0.2,0.2,0.3c0.1,0.2,0.2,0.3,0.2,0.5
		c-0.7-0.1-0.7-0.1-1.2-0.2c0.2,0.2,0.1,0.3-0.2,0.3c0,0.1,0.7,0.3,0.2,0.4c0.1,0.2,0.5-0.1,0.6,0.3l0-0.1c0.1,0.1,0.2,0.2,0.4,0.3
		c0.1,0,0.2,0.1,0.3,0.2c0,0-0.1,0-0.1,0c-0.3,0.1-0.6,0.2-0.8,0.3c-0.1,0-0.3,0-0.4,0c-0.1-0.3,0.2-0.2,0.5-0.2
		c-0.2-0.5-1.3,0.2-1.5-0.4c-0.5,0.5-0.2,0.3-0.8,0.8c-0.4,0,0.1-0.6-0.5-0.4c0-0.3,0-0.6,0.3-0.6c-0.4-0.3-0.9,0-1.1,0
		c0-0.5,0.9-0.2,1-0.6c-0.4-0.2-0.4-0.3,0-0.5l0,0c0.1,0,0.2-0.1,0.3-0.1l0.1,0c0.1,0,0.2-0.1,0.1-0.2c-0.1-0.1-0.2-0.1-0.3-0.1
		l-0.1,0c-0.1,0-0.1,0-0.2,0.1l0,0c-0.2,0-0.4,0-0.7,0l-0.2,0.1l0.1-0.2c-0.2-0.1-0.2-0.2-0.3-0.4c-0.4-0.2-0.7,0.4-0.8,0
		c-0.4,0.1-0.4,0.6-0.8,0.8c-0.1,0-0.2,0-0.3,0l0,0c-0.8-0.4-1.8-0.3-2.6,0l-0.1,0l0,0.1c0,0.1,0.1,0.2,0.1,0.3l0,0
		c0,0.1-0.3,0.1-0.3,0.2l0,0c-0.2,0.1-0.4,0.1-0.6,0.1c-0.3,0-0.6,0.1-0.9,0.2c0,0,0,0,0,0c-0.2,0-0.4,0.1-0.6,0.1l0-0.1
		c-0.2-0.2-0.4-0.3-1-0.3c0.4,0.7-0.3,0.6-0.8,0.9l0,0c0,0-0.1,0-0.1,0c-0.1,0-0.2,0-0.2,0l0,0c-0.1,0-0.1,0-0.2,0
		c0-0.2,0.1-0.3,0.3-0.4c0.1-0.3-0.9,0.3-1-0.2c0,0.3,0.4,0.6-0.3,0.9l0,0.1c-0.3-0.1-0.6-0.1-0.8,0l0,0c0,0.1-0.1,0.1-0.1,0.2l0,0
		l0,0c0,0.1,0.1,0.1,0.2,0.2c0,0,0.1,0,0.1,0c0,0,0.1,0,0.1,0c0,0,0-0.1,0-0.2c-0.1-0.1-0.1-0.1-0.1-0.1c0,0,0,0,0-0.1
		c0.1-0.1,0.3-0.1,0.4,0c1,0.4,0.9,0.3,1.8,0c0-0.2-0.2-0.2-0.3-0.4c0,0,0,0,0,0c0.1,0.1,0.3,0.1,0.6,0.1c0,0.2,0,0.4,0,0.6
		c0.4,0,0.6,0,0.8,0.2l0,0c0.1,0.1,0.2,0.2,0.2,0.3c-0.3,0.2-0.9,0-0.9-0.3c0,0.6-0.9-0.4-2.3,0.1c0.1,0.2,0.3,0.5,0.8,0.4
		c0,0,0,0.1,0,0.1l0,0l0,0c-0.3-0.1-0.6-0.2-1-0.2c0,0,0,0,0,0c0-0.1,0-0.2-0.1-0.3l0-0.1l-0.1,0c-0.1-0.1-0.2-0.1-0.3-0.1
		c-0.1,0-0.3-0.1-0.4-0.2l-0.1-0.1l-0.1,0.1c-0.1,0.1-0.3,0.1-0.4,0.2c0,0-0.1,0-0.1,0.1c-0.1-0.1-0.3-0.2-0.3-0.4
		c0-0.1-0.1-0.2-0.2-0.2c-0.1,0-0.2,0.1-0.2,0.2c0,0.2,0.2,0.5,0.4,0.7c0,0,0,0,0,0c0.1,0.4,0.5,0.6,0.8,0.7c0,0,0,0,0,0.1
		c-0.1,0-0.1,0.1-0.2,0.2c0,0,0,0.1,0,0.1c0,0,0,0,0,0c0,0,0.1,0,0.1,0c0-0.1,0.1-0.1,0.2-0.2l0,0.1c0.2,0,0.4,0,0.7,0
		c0-0.2,0.1-0.2,0.2-0.4c0,0,0.1-0.1,0.1-0.1c0,0,0.1-0.1,0.1-0.1c0.3,0,0.5,0.1,0.8,0.2c0,0.1,0.1,0.1,0.1,0.1
		c-0.4,0.3-0.6,0.4-0.3,1c-0.5-0.5-0.4,0-0.8,0.2c-0.3-0.1,0-0.6-0.6-0.4c0.1,0.1,0.7,0.4,0,0.4c0,0-0.1,0-0.1-0.1l0,0l0,0
		c-0.2,0-0.3,0-0.4,0l0,0l0,0.1l-0.3,0c0.1-0.1,0.2-0.2,0.2-0.4c-0.5,0.1-0.6,0.5-1,0.7c-0.3,0-0.1-0.4-0.5-0.4
		c0-0.1,0.3-0.1,0.5-0.1c-0.3-0.3-0.8-0.4-0.5-0.9c-0.3,0.4-0.7,0.2-1,0.5c-0.5,0.1-0.1-0.4-0.6-0.3c0,0.1,0,0.3,0,0.4
		c-0.1,0-0.2-0.1-0.3-0.1c0-0.3,0.4-0.4,0.6-0.6c0.5,0,0.8-0.2,1.1-0.4L9.6,12c0.1,0,0.1,0,0.2,0.1c0.1,0,0.2,0,0.2,0
		c0-0.1,0-0.1-0.1-0.2c-0.1,0-0.2-0.1-0.4-0.1l-0.1,0l-0.2,0.1c-0.4,0.2-0.6,0.4-1.1,0.4l0-0.1c-0.2,0-0.1-0.1,0-0.1
		c-0.4-0.1-0.9,0.2-1.5,0.1c-0.1,0-1.2-0.6-1.5,0.1l0,0c0,0,0,0-0.1,0l-0.1,0c-0.1,0-0.3,0-0.3,0c-0.1,0-0.2,0-0.2,0
		c-0.1,0.1,0,0.1,0,0.2c0.1,0.1,0.3,0.1,0.5,0.1l0,0v0C6,13.2,6,13.1,6.8,13.8c0.7,0,1.4,0,1.6,0.4c-0.1,0-0.1,0-0.2,0
		c0,0-0.1,0-0.1,0l0,0c-0.3-0.6-0.4,0.2-1-0.2c-0.3,0.3,0.1,0.3-0.2,0.5c-0.9-0.1-1.6-0.2-2.4,0.1c-0.1,0-0.2,0-0.3,0
		c-0.2,0-0.5,0-0.7-0.1c-0.1,0-0.3,0-0.3,0.1c0,0.1,0,0.2,0.2,0.3C3.7,15,3.9,15,4.2,15c0.1,0,0.2,0,0.3,0c0,0.1,0,0.2,0,0.3
		c1.3-0.1,2,0.2,2.9,0.5c-0.5,0.4-0.8,0.1-0.8,0.5c-0.2,0-0.4,0-0.5,0c-0.5,0-1,0-1.4,0.1C4,16.2,3.3,16.1,2.5,16
		c-0.1,0-0.2,0.1-0.3,0.1c0,0.1,0.1,0.2,0.2,0.2c0.8,0.1,1.4,0.2,2,0.4c0.1,0.2,0.3,0.2,0.4,0.3C4.9,17,5,17,5,17
		c0,0.1,0.1,0.2,0.2,0.2c0,0,0,0,0,0c0.1,0,0.1,0,0.2-0.1l0.7,0c0.1,0,0.1,0,0.1-0.1c0,0,0-0.1-0.1-0.1l-0.6,0
		c0-0.2-0.3-0.3-0.4-0.3c0.3-0.1,0.7-0.1,1.1-0.1c0.2,0,0.5,0,0.7,0l0,0c0,0.2,0.3,0.1,0.5,0.1c0.2,0.5-0.7,0-0.5,0.5
		c0.6,0.1,0.8,0,1,0.2c-1,0.2-1.3,0.2-2.4-0.2l-0.1,0.1l-0.1,0.1c-0.2,0-0.4,0-0.7,0l0,0.1c-0.2-0.1-0.4-0.1-0.6-0.1
		c-0.2,0-0.3,0-0.4,0c-0.1,0-0.2,0-0.3,0.1c-0.1,0.1,0,0.2,0.1,0.2c0.2,0.1,0.4,0.1,0.6,0.1c0.1,0,0.2,0,0.3,0c0,0.1,0,0.2-0.2,0.2
		c0,0.1,1.1,0,0.5,0.4c0.4,0.2,1.1-0.2,1.5,0.3c0.1,0.3-0.8-0.2-0.3,0.1c-0.1,0.2-0.1,0-0.3,0l0,0c-0.1-0.1-0.2-0.1-0.3-0.2
		c-0.1,0-0.1,0-0.2,0.1c-0.1,0-0.1,0.1,0,0.2c0,0,0.1,0,0.2,0C4.8,19,4.6,19.1,4.3,19c-0.2,0.4,0.5,0.2,0.5,0.5l0.1,0c0,0,0,0,0,0
		c0.1,0.1,0.2,0.3,0.4,0.3c0,0,0,0,0,0.1c-0.1,0-0.1,0-0.2,0c0,0-0.1,0-0.1,0c-0.1,0-0.2,0.1-0.1,0.2c0,0.1,0.1,0.1,0.2,0.1
		c0,0,0,0,0.1,0c0,0,0.1,0,0.1,0c0.1,0,0.2,0,0.3-0.1c0,0,0,0,0.1,0c0,0,0,0,0,0l0.1,0c0.1,0,0.2,0,0.3,0l0,0c0.2,0,0.3,0,0.5,0
		C6.6,20.7,6,20.5,6,20.9c-0.1,0-0.3,0-0.4,0c-0.2,0-0.4-0.1-0.6,0l0-0.1c-0.4,0.1-1.1-0.2-0.6-0.3c-0.2-0.2-0.5-0.1-0.7,0
		c0-0.1-0.1-0.2,0-0.2l0,0l0,0C3.5,20,3.3,20,3,20c-0.1,0-0.1,0-0.1,0.1c0,0,0,0.1,0.1,0.1c0.2,0,0.3,0,0.4,0c0,0.1,0,0.2,0.1,0.4
		l-0.1,0C2.9,20.2,2,20.5,2,21c-0.3,0-0.7,0-1,0l0,0.1c-0.1,0-0.2,0-0.3,0c0,0-0.1,0-0.1,0c-0.1,0-0.1,0.1-0.1,0.1
		c0,0.1,0.1,0.1,0.1,0.1c0,0,0,0,0,0c0.1,0,0.1,0,0.2,0c0,0,0.1,0,0.1,0c0.4,0.5,1.2,0.3,1.9,0.4c-0.8,0.7,2.9,1,1.4,1.2
		C5,23.1,6,23.2,6.8,23.4c0,0.4-1.1,0.3-1.3,0.1l0,0.1c-0.1-0.1-0.2-0.2-0.3-0.2c-0.1,0-0.1,0-0.2,0.1c0,0.1,0,0.1,0.1,0.1
		c0.1,0,0.1,0.1,0.2,0.1l-0.1,0c0,0.1,0,0.2,0,0.4c-0.2,0.2-0.3,0.3-0.4,0.5c0,0-0.1,0-0.2,0c-0.1,0-0.1,0-0.2,0
		c-0.1,0-0.2-0.1-0.3-0.1c-0.4-0.1,0.2-0.2-0.2-0.4c-0.3,0-0.5,0-0.8,0c0,0,0,0,0,0c-0.1-0.1-0.1-0.2-0.3-0.4c0-0.1,0-0.1-0.1-0.2
		c0-0.1-0.1-0.1-0.2-0.1c-0.1,0-0.2,0.1-0.1,0.2c0,0.1,0,0.1,0.1,0.2c-0.1,0-0.2,0-0.3,0.1l-0.1,0l0,0c0,0.1,0,0.2-0.1,0.3
		c0,0.1,0,0.1,0.1,0.1c0,0,0,0,0,0c0.1,0,0.1,0,0.1-0.1c0-0.1,0-0.1,0-0.2c0.1,0,0.1,0,0.2,0c0.1,0.1,0.1,0.2,0.2,0.3c0,0,0,0,0,0
		l0,0c0,0.1,0,0.3,0,0.4c0.4,0.1,0.9,0.3,1.5,0.3l0-0.1c0.1,0,0.2,0,0.3,0c0.1,0,0.2,0,0.3,0c0,0,0.1,0,0.1,0l0.1,0l0-0.1
		c0-0.2,0.1-0.4,0.4-0.5l0,0.1c1-0.1,1.2,0.4,2.1,0.4c0,0.1,0,0.1,0,0.2c-0.1,0-0.2,0-0.2,0c0,0,0,0,0,0c-0.1,0-0.1,0-0.1,0.1
		c0,0,0,0.1,0.1,0.1c0,0,0,0,0,0c0.2,0,0.3,0,0.4-0.1l0,0.1c0.1,0,0.1,0,0.2,0c-0.2,0.5-1.4,0.3-2,0.9c0,0.8,1.3,0.9,0.8,1.7
		c0.9,0.2,0.7-0.1,1.6-0.1l0,0c-0.1,0.3-0.5,0.4-0.8,0.5c-0.1,0-0.1,0.1-0.1,0.1c0,0,0.1,0.1,0.1,0.1c0,0,0,0,0,0
		C8,28,8.4,27.8,8.6,27.5c0.1,0,0.2-0.1,0.4-0.1c0,0,0,0,0,0c0,0,0,0.1,0.1,0.1C9,27.6,9,27.6,9,27.7c-0.6,0.3-0.4,1,0.2,1.1
		c0,0.1,0,0.1,0,0.2c0,0.1,0,0.2,0.1,0.2c0,0,0,0,0.1,0c0.1,0,0.2,0,0.2-0.1c0.1-0.2,0-0.3,0-0.5c0,0,0,0,0,0l0.1,0
		c0.1-0.3-0.1-0.5-0.1-0.7c0,0,0-0.1,0-0.1c0,0,0,0,0.1,0c0.1,0.1,0.2,0.1,0.3,0.1c0.2,0,0.2,0.1,0.3,0.2c0,0,0.1,0.1,0.1,0.1
		c0,0,0,0,0,0c0.1,0,0.1-0.1,0.1-0.1c-0.1-0.2-0.3-0.2-0.4-0.3c-0.1,0-0.2-0.1-0.2-0.1c0,0,0,0,0,0l0,0c0.1,0,0.1-0.1,0.1-0.2
		c0,0,0,0,0,0c0,0,0.1,0,0.1,0c0.4-0.1,0.7-0.1,1,0c0,0.1-0.2,0.1-0.3,0.1c0.3,0.3,0.3,0.1,0.2,0.5c0.8,0.3,1.8,0.2,2.8,0.3
		c0.2,0,0.2,0.3,0.5,0.4c1.1,0.3,2.5,0,2.9,0.2c0.2,0.1,0,0.5,0.3,0.3l0,0c0,0.1,0.1,0.2,0.1,0.3c0,0.2,0.1,0.5,0.6,0.6l0,0.1
		c0.1,0,0.1,0,0.2,0c-0.2,0.5-0.7,0-1.3,0.1c0,0.2-0.2,0.3-0.2,0.5c0.2,0,0.4,0,0.6,0c0,0.1,0,0.2-0.1,0.2c0,0,0,0.1,0.1,0.1
		c0,0,0,0,0,0c0,0,0.1,0,0.1,0c0-0.1,0.1-0.2,0.1-0.3c0.2,0.1,0.4,0.2,0.8,0.2c0,0.3-0.1,0.6-0.5,0.5c0.1,0.2,0.3,0.2,0.6,0.3
		c0,0,0,0,0,0c0,0,0,0,0,0c0,0.1,0,0.2,0,0.2l0,0.1l0.1,0c0.1,0.1,0.2,0.1,0.4,0.1c0.1,0,0.1,0,0.2,0c0,0.1,0,0.1,0.1,0.2
		c-0.1,0.1-0.1,0.1-0.2,0.2c-0.1,0-0.1,0.1-0.2,0.1c-0.1,0.1-0.1,0.1,0,0.2c0,0,0.1,0,0.1,0c0,0,0.1,0,0.1,0c0.1,0,0.1-0.1,0.2-0.1
		c0.2-0.1,0.3-0.2,0.3-0.3l0,0l0,0c0-0.1-0.1-0.2-0.1-0.3l0,0l0,0c-0.1-0.1-0.2-0.1-0.4-0.1c-0.1,0-0.1,0-0.2,0c0,0,0,0,0-0.1
		c0,0,0-0.1,0-0.1l0,0c1.3-0.1,0.3-1.1,0.8-1.3c0.1-0.4-0.7-0.1-0.8-0.4l0,0c0.1,0,0.2-0.1,0.2-0.1c1.1,0,1.7,0.5,2.9,0.7
		C21.8,31,21.2,31,20.7,31c0.1,0.3,0.2,0.8,0.6,1.2c0,0.1-0.1,0.1-0.1,0.2c-0.1,0-0.1,0-0.3,0c0,0,0,0,0,0c-0.1,0-0.1,0-0.1,0.1
		c0,0.1,0.1,0.1,0.1,0.1c0.2,0,0.3,0,0.4-0.1l0,0c-0.2,0.3-0.2,0.6-0.7,0.6c0.1,0.4,0.6,0.5,0.6,0.9c0.1,0,0.2-0.1,0.3-0.1l0,0
		c0.2,0.1,0.3,0.1,0.5,0.1c0.2,0,0.4,0,0.5-0.1l0,0.1c0.8,0.1,1.2,0.6,2.2,0.6c0,0.1,0,0.2-0.1,0.3c-0.3-0.1-0.4,0.2-0.7,0.1
		c0,0.2,0.5,0.1,0.5,0.3l0,0c0,0.1-0.1,0.1-0.1,0.2c0,0,0,0.1,0,0.1c-0.3-0.1-0.4,0.1-0.7,0.1l0,0c0,0,0,0,0,0
		c-0.1-0.1-0.2-0.1-0.4-0.2c-0.1,0-0.2-0.1-0.2-0.1l0,0c-0.5-0.4-1.4-0.1-1.6,0c0.2,0.5,1.1,0.5,1.4,0.4c0.1,0,0.1,0.1,0.2,0.1
		c0.1,0,0.1,0,0.2,0.1c0.2,0.2,0.1,0.8,0.6,0.8l0,0.3c0,0,0,0.1,0.1,0.1c0.1,0,0.1,0,0.1-0.1l0-0.3c0.3-0.2,0.5-0.4,1-0.5
		c0.2,0.5,0.5,0.3,1.3,0.4c-0.1-0.5,0.3-0.5,0.2-0.9c-0.6-0.1-0.8,0.1-1.3,0.1c-0.1-0.1-0.3-0.2-0.5-0.3c0,0,0,0,0,0
		c0-0.1,0-0.1,0.1-0.2l0.1,0c0.2,0,0.2-0.3,0-0.3l-0.1,0c0.1-0.1,0.1-0.3,0.1-0.4c0.3-0.4,1-0.6,1,0.2c0.5-0.4,0.5,0.3,1.1,0.2
		c0-0.1,0.4-0.5,0-0.5c0.2-0.2,0.6-0.2,0.8-0.4c0.2,0.5-0.2,0.6,0.3,1.2c0.4-0.4,1.2,0.6,1.5-0.1c0.1,0,0.3,0,0.4,0c0,0,0,0,0,0
		c0.1,0,0.1,0,0.1-0.1c0-0.1,0-0.1-0.1-0.2c-0.2-0.1-0.4-0.1-0.6,0l0-0.1c-0.1,0-0.1,0-0.2,0c0.6-0.4,1.9-0.2,2.6,0.1
		c-0.2,0.3-0.2,0.6-0.1,0.8l0,0.1l0.1,0c0,0,0.1,0.1,0.2,0.1c0,0,0.1,0,0.1,0c0,0,0.1,0,0.1,0c0.1-0.1,0-0.1,0-0.2
		c-0.1,0-0.1-0.1-0.2-0.1c0-0.2,0-0.4,0.1-0.6l0,0c0.5,0.1,0.3,0.1,0.8,0c0,0,0,0,0,0c0.1,0.1,0.2,0.2,0.4,0.3c0,0,0,0,0,0
		c0.1,0,0.1,0,0.1-0.1c0,0,0-0.1-0.1-0.1c-0.1,0-0.2-0.1-0.2-0.2c0,0,0,0-0.1-0.1l0.1,0c0.4-0.3,0.6,0.1,1.1,0
		c0.4-0.3,0.4-0.9,1.3-0.7c0.4,0,0.1,0.5,0.2,0.6c0.3,0.2,0.2,0,0.7,0l0.1,0c-0.1,0.2-0.1,0.4-0.1,0.6c-0.1,0-0.1,0-0.1,0.1l-0.1,0
		c-0.1,0-0.2,0.1-0.2,0.1c0,0.1,0.1,0.1,0.2,0.1l0.1,0c0,0,0,0,0,0c-0.1,0.1-0.1,0.2-0.1,0.2l0,0.1l0,0c0.1,0.1,0.2,0.2,0.2,0.3
		l-0.1,0c-0.2-0.4-1.4,0-1.5-0.6c-0.5,0.4-1.5,0.5-1.6-0.2C33,35.6,33,35.9,33,36.1c-0.5,0.1-1.3-0.5-1.8,0c0,0.4,0.5-0.3,0.3,0.3
		c0,0.3-0.7,0-1,0.1c0.2-0.4,0.2-0.7-0.1-0.9c-0.4,0.3-0.8,0.1-1.1,0.2l0,0c-0.1-0.1-0.3-0.1-0.4-0.1c-0.1,0-0.3,0-0.4-0.1
		c0,0-0.1,0-0.1,0c0,0,0,0.1,0,0.1c0.1,0.1,0.3,0.1,0.5,0.1c0.1,0,0.2,0,0.3,0.1c0.3,0.2,0.1,0.3-0.3,0.4l0,0c0,0,0,0-0.1,0
		c0,0-0.1,0-0.1,0c0-0.2-0.2-0.2-0.2-0.4c-0.1,0.1-0.4,0.1-0.7,0.1l0.1,0.2l-0.2-0.1c0.1,0.4-0.2,0.5-0.2,0.8c0.3,0,0.5,0,0.8,0
		c-0.2-0.2-0.2-0.3,0.2-0.4l0,0c0.1,0,0.1,0,0.2,0l0,0c0.2,0.2,0.4,0.4,0.6,0.5c0.2-0.1,0.4-0.2,0.7-0.2c0.4-0.2,0.9,0.4,1.1,0.4
		c0.4,0,0.9-0.3,1.3-0.2c1.1,0.1,2.2,0.4,3.6,0.5c0.4,0,0.9-0.1,1.3-0.1c0.5,0,0.9,0.3,1.3,0.3c0.3,0,1.7-0.3,1.6,0.2
		c0.8,0.4,1.2-0.2,2.1-0.3c0.9,0.5,3,0.3,4,0.3c0,0,0.1,0.1,0.2,0.1c0.1,0,0.1,0,0.1,0c0.2,0,0.4,0,0.6-0.1c0.1,0,0.1,0,0.2,0
		c0,0,0,0,0,0c0.2,0,0.4,0.1,0.6,0.1c0.2,0,0.5,0.1,0.7,0.1c0,0,0,0,0,0c0,0,0.1,0,0.1,0c0.2,0.1,0.3,0.1,0.5,0.1
		c0.1,0,0.3,0,0.4-0.1l0,0c0.8,0,1.9,0.2,2.4-0.1c-0.1-0.2-0.3-0.2-0.6-0.3c0.1-0.4,0.9-0.2,0.7-0.8c-0.9,0.4-0.8-0.9-1.6-0.9l0,0
		c0,0,0,0,0,0c0-0.1,0-0.1,0-0.2c0-0.1-0.1-0.1-0.1-0.1l0-0.3l0.1,0c0.4-0.6,1.1,0.5,1.5-0.2c0.7,0.5,0.9,0.3,1.6,0
		c0.4,0.1,0,0.7,0.3,0.8c0.5-0.3,0.6,0.3,0.8,0l0-0.1c0.2,0,0.4,0.1,0.6,0.1c0.4,0,0.7,0.1,0.8,0.3l-0.1,0c-0.6,0-1,0.2-1.5,0
		c-0.2,0.1-0.3,0.2-0.3,0.4c-0.1-0.4-0.2-0.1-0.7,0.1c-0.5,0.1-0.2-0.4-0.8-0.3l0,0c-0.1,0-0.1,0-0.2,0c-0.1,0-0.2,0-0.2-0.1
		c0-0.1-0.2-0.1-0.2-0.1c-0.1,0-0.1,0.1-0.1,0.2c0.1,0.2,0.3,0.2,0.5,0.2c0,0,0.1,0,0.1,0c0.3,0.3,0,0.5,0.3,0.9l0,0
		c-0.1,0-0.2,0-0.2,0.1c-0.1,0-0.1,0-0.2,0c-0.1,0-0.2,0.1-0.2,0.1c0,0.1,0.1,0.1,0.2,0.1c0,0,0,0,0,0c0.2,0,0.3,0,0.3-0.1
		c0,0,0.1,0,0.1,0c1.2,0.7,3.5,0.3,4.8,0.4l0,0c0.1,0,0.1,0,0.2,0c0.1,0,0.2,0,0.3,0c0.2,0,0.2-0.1,0.3,0c0,0,0,0,0.1,0
		c0.5,0.1,1.2,0.2,1.6,0.2c0,0,0,0,0,0c0,0,0,0,0,0c0.2,0,0.5,0,0.8,0c0.3,0,0.6,0,1,0l0,0c1-0.1,2,0.2,2.6,0.1
		c0.4-0.1,0.4-0.3,0.7-0.4c0.2,0,0.5,0.2,0.6,0.1c0.2-0.1,0.4-0.7,0.8-0.6l0,0l0,0c0.1,0,0.2,0,0.3,0c0,0.1,0,0.2,0,0.3
		c1-0.2,1.6,0.1,2-0.6c-0.3,0-0.4-0.1-0.5-0.3l-0.1,0c0.1-0.2,0-0.5-0.1-0.6c0,0,0,0,0,0l0,0c0.3-0.2,0.6-0.5,1.3-0.4
		c0-0.4-0.5-0.4-0.6-0.7c-0.8,0.9-3.7-0.9-1.3-0.4c0.4-0.6,1.7-1,1.5-0.1c0.2,0,0.3-0.2,0.5-0.2c-0.2,0.8,1,0.5,1.9,1.1
		c0,0.2,0,0.3,0,0.5l0,0.1c0,0,0,0,0,0c-0.2,0.1-0.3,0-0.4-0.1l-0.1,0.1l0,0l0.1-0.2c-0.4-0.2-0.4-0.5-1-0.3c0.3,0.3-0.1,0.2,0,0.6
		c0.3,0,0.6,0,0.9,0c0.1,0.1,0.3,0.1,0.4,0.1c0,0,0.1,0,0.1,0l0,0c1,0.2,0.9,0,1.6-0.2c0-0.3-0.1-0.4-0.5-0.4
		c0.2-0.2,0.5-0.3,0.7-0.5c0,0,0.1,0,0.1,0c0.2-0.1,0.3-0.1,0.6,0c0.1,0,0.3,0.1,0.5,0.1c0.1,0,0.2,0,0.3,0c0.5,0.4,1.3,0,1.7,0.5
		c-0.3,0.1-0.6,0.1-1,0.1c-0.2,0-0.4,0-0.6,0c0,0,0,0,0,0c0,0,0,0,0,0c0,0,0,0,0,0c0,0,0,0,0,0c-0.2-0.1-0.5-0.1-0.6,0
		c-0.1,0-0.2,0.1-0.2,0.2c0,0.1,0.2,0.2,0.3,0.1c0.1,0,0.1,0,0.2,0l0,0c0,0.1,0,0.1-0.1,0.2c0,0.1,0,0.2,0.2,0.2c0,0,0,0,0.1,0
		c0.1,0,0.2-0.1,0.2-0.1c0-0.1,0-0.1,0.1-0.2l0-0.1c0.2,0,0.3,0,0.5,0c0.5,0,0.9,0,1.4-0.2l0,0c0.5,0.2,0.4,0.1,0.8-0.1
		c0-0.1-0.2-0.1-0.3-0.1c0.2-0.4,0.8-0.4,1.3-0.5l0,0c0,0,0,0,0,0c0.1,0.2,0.1,0.3,0,0.4c0,0,0,0,0,0l-0.4,0.3c0,0,0,0.1,0,0.1
		c0,0,0,0,0.1,0c0,0,0.1,0,0.1,0l0.3-0.3c0,0,0,0,0,0c0.1,0.1,0.2,0.1,0.2,0.2l0,0l0.1,0c0.1,0.1,0.3,0.1,0.4,0.2l0,0l0.2,0
		c0,0,0,0,0,0c0,0.1-0.1,0.2-0.1,0.3c0,0,0,0.1-0.1,0.1c-0.1,0-0.1,0-0.2,0c-0.2,0-0.3,0-0.3,0c-0.1-0.1-0.3,0-0.4,0.1
		c-0.1,0.1,0,0.2,0.1,0.3c0.1,0.1,0.3,0.1,0.4,0.1c0.1,0,0.3,0,0.4,0c0.1,0,0.1,0,0.2,0c0.2,0.4,0.5,0.6,0.8,0.8c0,0,0,0,0.1,0
		c0,0,0.1,0,0.1,0c0,0,0-0.1,0-0.1c-0.3-0.2-0.6-0.5-0.7-0.8c0,0,0.1-0.1,0.1-0.2c0,0,0,0,0-0.1c0,0,0-0.1,0.1-0.1
		c0.1-0.1,0.1-0.2,0.1-0.3l0,0c0.7-0.1,0.7,0.3,1,0.5c0,0,0,0.1,0.1,0.1c0.1,0.1,0.2,0.3,0.5,0.4c0,0,0,0.1,0,0.1
		c0,0-0.1,0.1-0.2,0.1c-0.1,0-0.3,0-0.3,0.1c0,0.1,0.1,0.2,0.2,0.2c0,0,0.1,0,0.1,0c0.2,0,0.4-0.1,0.6-0.2c0.1-0.1,0.1-0.3,0.1-0.4
		c0.2-0.1,0.3-0.2,0.4-0.4l0,0c0,0.2,0.2,0.2,0.5,0.5c0.4,0,0.1-0.6,0-0.6c1,0.3,0.9-0.2,1.7-0.3c0.1,0,0.3,0.1,0.4,0.1
		c0.1,0,0.2,0,0.3,0.1c0.1,0.1,0.1,0.4,0.4,0.4c0.3-0.5,1.1-0.2,1.3,0c0.5-0.2,0.7-0.2,1.3-0.1c-0.6,0.6,0.5,0.1,1-0.1
		c0.3,0.2-0.1,0.5,0.3,0.8c0.4-0.1,1.6-0.2,1.8-0.1c0.3,0-0.3-0.4,0.5-0.2c0-0.2,0-0.4,0-0.6c0,0,0,0,0.1,0c0,0,0,0,0,0
		c0.2,0,0.3,0,0.5,0c0.1,0,0.2,0,0.3,0c0,0,0.1,0,0.1,0c0.2,0,0.3,0,0.5,0.1c0.1,0,0.1,0,0.2,0l0,0c0.2,0.3,1,0.5,0.3,0.8l-0.3,0
		C94.1,38,94,38,94,38c0,0,0,0.1,0.1,0.1l0.2,0c0,0.1,0,0.2,0,0.2c1.2,0.2,1.8-0.2,2.8-0.2c0.2-0.2,0.2-0.3-0.2-0.4
		c0.2-0.5,1.4-0.1,1.8-0.3c-0.2-0.1-0.4-0.1-0.1-0.3c0.1,0,0.2,0,0.3,0c0,0,0,0.1,0.1,0.1l-0.1,0c0,0.1,0,0.2,0,0.3
		c0.7,0.2,1.5,0.1,2,0.2l0,0c0,0,0,0,0.1,0c0,0,0,0,0,0c0.1,0,0.3,0,0.4-0.1c0.1,0,0.3-0.1,0.4,0c0.1,0,0.3-0.1,0.2-0.2
		c0-0.1-0.1-0.2-0.2-0.2c0,0,0,0,0,0c-0.2,0-0.4,0-0.6,0.1c0,0-0.1,0-0.2,0c0.1-0.1,0-0.2,0-0.4c-0.7,0-1,0.2-1.8,0.1c0,0,0,0,0,0
		l-0.1,0c-0.1-0.1-0.3-0.1-0.6,0l0,0c-0.1-0.4-0.5,0.1-0.8,0c-0.4,0.1-0.3-0.3-0.6-0.3c1-0.3,2.2-0.1,3.4,0c0.6,0,1.7,0.6,2.1-0.1
		c0.2,0.3,0.6,0.3,0.8,0c0.1,0.4,1.1,0.1,1,0.7c-0.5,0.1-1.1,0.1-1.7,0c-0.1,0-0.2,0-0.3,0.1c0,0.1,0.1,0.2,0.2,0.2
		c0.2,0,0.3,0,0.5,0c0.4,0,0.9,0,1.3-0.1l0.1,0l0,0c0.8,0.3,1.7-0.1,2.4-0.1c-0.2,0.5,1,0.3,1.1,0c2.2,0.8,5.7,0,8.6,0.2
		c-0.1-0.3,0.3-0.2,0.3-0.4c1.3,1,3.7,0,4.9,0.5c0.5,0,0.8-0.4,1.3-0.4c0.5,0,0.6,0.3,1,0.4c0.2,0.1,0.5-0.6,0.5,0
		c1.3-0.8,4.5-0.6,5.5-0.1c0.2-0.1,0.3-0.2,0.3-0.4c2.2,0,3.8,0,5.9,0.2c1.4-1.1,3.8,0,5.4-0.9c1.3,0.4,2.4,0.2,3.4,0.3
		c0.6,0.1,1.2,0.5,1.5,0.4c0.3-0.1,0.9-0.2,1-0.2c0,0,0-0.2,0-0.3c0.3-0.1,0.9,0.2,1.3-0.2c0.5,0.3,1.3,0.1,1.3,0.4
		c0.9-0.1,1.8,0.2,2.1-0.6c0.2,0.1,0.2,0.4,0.3,0.1c0.2,0,0.1,0.1,0,0.1c0.2,0.4,0.6-0.1,0.8-0.1c1,0.2,1.9,0.6,3.1,0.6
		c0.1,0,0.5-0.4,0.5-0.4c0.5-0.1,1.7,0,1.6,0.4l0,0c-0.1,0-0.1,0-0.2,0.1c-0.1,0-0.1,0.1-0.1,0.2c0,0,0.1,0.1,0.1,0.1
		c0,0,0.1,0,0.1,0c0.1,0,0.1,0,0.2-0.1l0,0c0,0.3,0.9-0.5,1,0.2c0.4-0.1,0.1-0.7,0.8-0.5c0-0.2-0.1-0.2-0.1-0.3c0.1,0,0.2,0,0.3,0
		c0.1,0,0.2,0,0.4,0l0,0c0.3,0,0.3,0.1,0.3,0.3c0.5,0,1,0,1.5,0c0.1-0.4,0-0.7,0.2-0.8c0-0.1-0.3-0.1-0.5-0.1c0,0,0-0.1,0-0.2
		c0-0.1,0-0.2,0-0.3l0.1,0c0.5,0.1,1.1,0,1.6,0.3c0,0,0,0.1,0,0.1l0.1,0.1c0,0-0.1,0-0.1,0.1c0,0,0,0-0.1,0c-0.2,0-0.4,0.1-0.5,0.2
		c0,0.1,0,0.1,0.1,0.1c0,0,0,0,0.1,0c0.1,0,0.1,0,0.1-0.1c0-0.1,0.1-0.1,0.3-0.1c0,0.1,0,0.1,0,0.2l0,0.1l0,0.1l0,0
		c0.1,0.2,0.4,0.2,0.6,0.2c0,0,0,0,0,0c0.1,0,0.2-0.1,0.2-0.1c0-0.1-0.1-0.2-0.2-0.2c-0.1,0-0.2,0-0.3-0.1c0-0.1,0-0.2,0-0.3l0.1,0
		c0.5,0,0.9,0,1.1-0.2c-0.1,0.3,0.9,0.4,1.3,0.7c0.2-0.2,0.3-0.5,0.9-0.4c0,0.1,0.1,0.1,0.1,0.1l0,0c-0.6,0-0.1,0.1-0.2,0.4
		c0.5,0,0.9-0.4,0.4-0.5c0-0.1-0.1-0.1-0.1-0.2l0.1,0c0.4,0.2,0.5,0.3,0.3,0.7c0.7,0.1,0.7-0.4,1.1-0.5c0.6,0.6,0.9,0.4,2.3,0.4
		c0-0.3,0.8-0.6,0.3-0.9c0.3-0.5,1.5-0.4,2-0.1c0,0.3-0.7,0-0.8,0.2c0,0.2,0.5,0.1,0.6,0.3c0,0,0,0.1-0.1,0.1c0,0.1-0.1,0.1-0.1,0.2
		c0,0,0,0.1,0.1,0.1c0,0,0,0,0,0c0,0,0.1,0,0.1-0.1c0-0.1,0.1-0.1,0.1-0.2c0.1-0.1,0.1-0.2,0.1-0.3l0.1,0.1c0,0.2,1.2-0.2,0.8,0.2
		c1.1-0.2,2.9,0.7,4.1-0.1c-0.1-0.2-0.3-0.2-0.3-0.4c0.4,0,1,0,1,0.3c0,0.6-0.7-0.2-0.7,0.4c0.9,0.2,1.5,0,2-0.1
		c-0.2,0.6,1.9-0.1,1.9,0.4c0.7-0.4,0.9-1.1,2.3-0.8c0.2,0,0.1,0.3,0.2,0.5c1.4-0.2,2.1-0.1,3.4,0c0-0.2,0.2-0.2,0.2-0.4
		c0.7,0.6,1.1,0.2,2.1,0.4c0-0.7,1.1-0.5,1.6-0.3c0,0.1-0.2,0.1-0.3,0.1c0.8,0.3,1.6,0.2,2-0.2c0.4,0.1-0.2,0.2,0.2,0.4
		c1,0,1.8-0.7,2.4,0.1c0.6-0.2,0.6,0,1.1-0.1c0-0.2-0.3-0.1-0.5-0.1c0.6-0.4,1.8-0.3,2.1,0.3c1.4-0.4,1.9-0.2,3.3,0
		c0-0.1,0-0.3,0-0.4c0.5,0,1.2-0.1,1,0.2c0.8,0.5,2.1,0.1,2.9-0.1c0.3,0.1,0.3,0.6,0.6,0.3c-0.9-0.3,1.6-0.7,1-0.1
		c0.2,0.1,0.8-0.5,1.1-0.1l0,0c0.2,0.2,0.4,0.3,0.6,0.3c0,0,0,0,0.1,0c0.1,0,0.2,0,0.3-0.1l0,0c0.1,0.1,0.4,0.1,0.6,0.1
		c0-0.1,0-0.2-0.2-0.3c0.1-0.1,0.8-0.4,0.9-0.1c-0.2,0.1-0.3,0.1-0.5,0.1c-0.1,0-0.1,0-0.1,0.1c0,0,0,0.1,0.1,0.1c0,0,0,0,0,0
		c0.3,0,0.5-0.1,0.8-0.2l0,0.1c0.6,0.2,1.2,0.1,1.8,0c0.5,0.2-0.2,0.5,0.2,0.6c0-0.6,1-1.3,1.6-0.6c-0.1,0.3-0.9,0-1,0.2
		c0.2,0.2,0.7,0.3,1,0.5c0.8-0.4,1.2,0,1.8-0.1c-0.1-0.2-0.4-0.4-0.5-0.7c0.3,0.5,0.8,0,1,0.5c0.4-0.1,0.9-0.2,1.3,0
		c0,0.1,0,0.1,0,0.2l0,0.1l0.1,0c0.1,0,0.2,0.1,0.3,0.1c0.1,0,0.2,0,0.3,0l0,0.1c1.1-0.5,2.2,0.1,3.3,0c0.2,0,0.1,0.2,0.2,0.4
		c0.6,0,0.7-0.6,1-0.9c0.5,0,0.8,0.3,1.1,0c-0.1,0.4-0.1,0.2,0,0.6c0.2-0.7,0.7-0.3,1.5-0.6c0.2,0.1-0.2,0.7,0.6,0.5
		c0-0.2,0-0.3,0-0.5c0.3,0.2,1,0.2,1.3,0.4c0.4-0.1-0.2-0.2,0.2-0.4c0.6-0.1,0.5,0.3,1,0.3c0.1-0.2,0.3-0.2,0.6-0.2
		c0.1,0,0.2,0.1,0.2,0.1c0,0,0,0,0,0l-0.1,0.1c-0.1,0.1-0.1,0.2,0,0.3c0,0,0.1,0,0.2,0.1c0.1,0,0.1,0,0.2-0.1l0.1-0.1
		c0.1-0.1,0.1-0.1,0.2-0.1c0,0,0.1,0,0.1-0.1c0,0,0.1,0,0.1,0c0.1,0,0.2-0.1,0.1-0.2c0-0.1-0.1-0.1-0.2-0.1c0,0-0.1,0-0.1,0
		c-0.1-0.2-0.3-0.3-0.5-0.3c0-0.1,0-0.1,0-0.2c0.1,0,0.3,0,0.4,0c0,0,0,0,0,0c0.1,0,0.1,0,0.1,0c0.4-0.1,0.6-0.1,0.9,0.1
		c0,0.3,0,0.5-0.3,0.5c0.1,0.4,0.3-0.1,0.6,0l0-0.1c0.2,0.1,0.4,0.2,0.6,0.3c0.1,0,0.1,0.1,0.2,0.1c0,0,0,0,0.1,0
		c0.1,0,0.1,0,0.1-0.1c0-0.1,0-0.1-0.1-0.2c-0.1,0-0.1-0.1-0.2-0.1c-0.2-0.1-0.4-0.2-0.5-0.3l0.1,0c0.1-0.2,0.3,0,0.3,0.1
		c0.2-0.1,0.3-0.2,0.3-0.4c0.3,0.4,0.7,0.2,1.1,0.4c0.2-0.4,0.9-0.8,1.1-0.5l0,0c0.1,0.1,0.3,0.2,0.5,0.3l0,0
		c-0.3,0.4-0.1,0.4-0.3,0.6c0.5,0.4,1.2-0.1,1.6-0.2c0.1-0.2-0.1-0.2-0.3-0.3c0.4-0.2,1-0.1,1.8,0.2l0,0c0.1,0.1,0.2,0.1,0.2,0.2
		l0,0l0.1,0c0.1,0,0.1,0,0.2,0c0.1,0,0.2,0,0.3,0c0.1,0,0.1-0.1,0-0.1c0,0-0.1-0.1-0.2,0c-0.1,0-0.1,0-0.2,0c0-0.1-0.1-0.1-0.2-0.2
		l0,0h0c0-0.5,0.2,0,0.5-0.2l0,0c0.9,0.1,1.7,0.3,2.5,0.5c0.3,0.1,0.6,0.2,0.9,0.3c0,0,0,0,0.1,0c0.1,0,0.2,0,0.2-0.1
		c0-0.1,0-0.2-0.1-0.2c-0.3-0.1-0.6-0.2-0.9-0.3c-0.8-0.2-1.5-0.4-2.4-0.5c0.1-0.1,0.4,0.2,0.3-0.3c0.4-0.1,0.3,0.3,0.6,0.3
		c1.5-0.3,2.7,0.2,3.9-0.2l0,0c0.1,0,0.1,0,0.2,0.1c0.1,0.1,0.3,0.1,0.5,0.1c0.1,0,0.2,0,0.4-0.1c0.1,0,0.1-0.1,0-0.2
		c-0.1-0.1-0.2-0.1-0.2,0c-0.1,0.1-0.2,0-0.5-0.1c0,0-0.1,0-0.2,0c0-0.1,0-0.2,0-0.3c0.5,0,1.2-0.2,1.6-0.1c0.1,0,0.2,0,0.2,0.1
		c0,0,0.1,0,0.1-0.1c0.5-0.2,1.7,0.1,3.1,0c-0.2,0.1-0.1,0.2,0.1,0.3c0,0.1,0.1,0.1,0,0.2c0,0,0,0.1,0.1,0.1c0,0,0,0,0,0
		c0.1,0,0.1,0,0.1-0.1c0-0.1,0-0.2-0.1-0.3l0.1,0c0.2,0,0-0.1,0-0.3c0.6,0.1,0.7-0.2,1.3-0.1c0-1,1.3-0.9,2-0.9c0.4,0,0.8-0.2,1-0.2
		c0.6,0,1.3,0.3,1.9,0.3l0-0.1c0.1,0.1,0.3,0.1,0.4,0.1c0.1,0,0.2,0,0.3,0l0,0c0.4,0,1.4-0.3,1.3,0.4c0.2,0,0.5,0,0.5-0.1
		c0.1,0,0.2,0,0.2,0l0.1-0.2c-0.1,0-0.2,0-0.4-0.1l0.1,0c0.2-0.2,0.1-0.2,0-0.4c0.8,0.2,1.3,0.6,1.9,0.6c0.2,0.1,0,0.2-0.2,0.3
		c0.3,0.2,0.6,0.2,0.9,0.1c0,0.1,0,0.2,0,0.3c0.2,0,0.5,0,0.7-0.1c0,0,0,0.1,0,0.2c0.1,0,0.3-0.1,0.5-0.2c0.6-0.1,1.1-0.1,1.5-0.1
		c0.1,0.1,0.1,0.1,0.1,0.3c0.3-0.1,0.5-0.2,0.8-0.2c0,0,0,0,0.1,0c0,0,0.1,0.1,0.2,0.1c0,0,0,0,0,0c0.1,0,0.2,0,0.1-0.1
		c0,0,0,0-0.1-0.1c0.4,0,0.7,0.1,1.2,0.3c0-0.1,0.2-0.1,0.3-0.1c0.1-0.5-0.3-0.6-0.6-0.8c0-0.1,0.1-0.2,0.1-0.2c1.6-0.1,3.7,0.2,5,0
		c0.1-0.2-0.3-0.3,0.2-0.6c0.2,0.1,0.5,0.1,1,0.1c-1.2-0.3-2.3-0.4-2.9-0.4c0-0.6,1.9-0.3,2.3-0.4c0.4,0,0.1-0.4,0.4-0.5
		c0.9,0,1.4,0,1.9-0.1c0-0.7-2.5-0.2-1.8-0.9c0,0,0,0,0,0c0,0,0.1,0,0.1,0c0.2,0,0.3,0,0.5,0.1c0.2,0,0.4,0.1,0.6,0.1c0,0,0,0,0.1,0
		c0.2,0.3,0.9,0.2,0.9,0.6c0.3-0.2,0.3-0.4,0.1-0.6c0.5,0.1,0.6,0.1,0.9-0.1c-0.6,0-0.8-0.2-1,0c0-0.1-0.1-0.1-0.1-0.2
		c-0.2,0-0.3,0-0.5,0.1c-0.1,0-0.2-0.1-0.3,0c-0.3,0-0.4,0-0.7-0.1c-0.2,0-0.4-0.1-0.7-0.1c0,0,0,0,0,0c0,0-0.1,0-0.1,0
		c0-0.3-0.8-0.2-1,0c-0.1-0.5-1.3,0.1-1-0.4c-0.6-0.1-1,0.2-1.4,0l-0.1,0l0,0c0.1-0.1,0.2-0.1,0.3-0.2c0,0,0-0.1,0-0.1
		c-0.1,0-0.1,0-0.2,0c-0.1,0.1-0.2,0.1-0.3,0.2c-0.8,0.1-1.7,0.2-2.2,0.1c0-0.1,0-0.2,0-0.2c0,0,0,0,0,0c0.1,0,0.1-0.1,0.1-0.1
		c0,0-0.1,0-0.1,0c0-0.1,0-0.1-0.1-0.2c0.2,0,0.5,0,0.8,0c0.5,0,2-0.4,2.3,0.1c0.3,0,0.2-0.2,0.4-0.3c0,0,0,0,0,0
		c0.1,0.1,0.2,0.2,0.4,0.2c0-0.1,0-0.1,0-0.1c0.8,0.1,1.6,0.2,2.3,0.2c0.1,0,0.2,0,0.3,0c0.4,0,0.7,0,1.1,0c0.2,0.2,0.3,0.4,0.5,0.2
		c0,0.3-0.3,0.4,0.2,0.5l0,0c0.1,0.1,0.3,0.2,0.5,0.2c0.1,0,0.2,0,0.2,0.1c0.1,0.1,0.1,0.1-0.1,0.2c0.9,0.4,0.8-0.6,2-0.2
		c0-0.3-0.3-0.4-0.3-0.7c0.3,0.6,1.2,0.3,1.5,0.7c0.2-0.1,0.3-0.4,0.3-0.1c0.3,0.1,0-0.5-0.2-0.5c0.2-0.2,0.8-0.1,1-0.4
		c-0.1-0.1-0.2-0.3-0.2-0.4c0.9,0,1.8,0,2.8,0.1c-0.3-0.4-0.7-0.7-1-1c-0.6,0.2-1.2-0.1-1.5-0.3c0,0,0.1,0,0.1-0.1c0,0,0,0,0-0.1
		c1.7,0,3.8,0.4,4.9-0.2c-1.9-0.2-2.2-0.6-3.5-0.3c-0.1-0.1-0.3-0.2-0.5-0.3c0,0,0.1,0,0.1,0c-0.1-0.4-0.6-0.1-0.6-0.3
		c-0.1,0-0.2,0.1-0.2,0.2c-0.4-0.1-0.8-0.1-1.2-0.2c0-0.1,0-0.1-0.1-0.2c0.6,0.3,0.6-1,1.5-1.1c-0.2-0.4-0.9-0.3-1-0.8
		c-1.2,0.4-1.3-0.8-2.4-0.5c0-0.2,0-0.2,0.2-0.3c0.1-0.3-0.8,0.1-0.6-0.3c-0.4,0.3-0.7,0.7-0.8,1.1c-0.2-0.2-0.8-0.2-0.8-0.7
		c-0.2,0.1-0.3,0.3-0.7,0.4c-0.2-0.1-0.3-0.2-0.5-0.3c0.8-0.7-0.7-1.2-0.8-2.2c-0.7,0.1-0.9-0.2-1.1-0.4c1.2,0,2.4,0,3-0.2l0,0
		c0.1,0,0.2,0,0.3,0c0,0,0,0,0,0c0.2,0,0.3-0.1,0.3-0.1c0-0.1-0.1-0.2-0.3-0.2c-0.1,0-0.1,0-0.2,0c-0.6-0.3-1.3-0.1-2.2-0.1
		c0,0,0-0.1,0-0.1c0.2,0,0.4,0,0.4-0.2c-0.1-0.1-0.3-0.1-0.4-0.1c0,0,0-0.1-0.1-0.1c0,0-0.1,0.1-0.2,0.1c-0.8-0.2-1.6-0.1-2.3-0.2
		c0,0-0.1-0.1-0.1-0.1c0.1-0.1,0.6,0,0.8-0.1c-0.1-0.1-0.3-0.3-0.6-0.3c0.7,0,0.8-0.3,1.4-0.2c0,0.1,0,0.1,0,0.2c0,0,0,0-0.1,0
		c-0.1,0-0.2,0.1-0.3,0.2c0,0,0,0.1,0.1,0.1c0,0,0,0,0,0c0,0,0.1,0,0.1,0c0-0.1,0.1-0.1,0.2-0.1c0,0,0.1,0,0.1-0.1l0,0
		c-0.2,0.4,0.3,0.3,0.3,0.5c0.3,0,0-0.6-0.3-0.5l0,0c0.1-0.1,0-0.2,0-0.3l0.1,0c0-0.1-0.3-0.2-0.4-0.3c0.1,0,0.2,0,0.4,0
		c0.2,0,0.3,0.1,0.6,0.1c0,0,0,0,0,0c0.1,0,0.3,0,0.3-0.1c0-0.1-0.1-0.1-0.2-0.1c-0.1,0-0.3,0-0.4-0.1c-0.2-0.1-0.5-0.1-0.9-0.1
		c-0.5-0.2-1.4-0.2-1.6-0.1c0,0,0,0,0,0c-0.1,0-0.1,0,0,0c0-0.1-0.3-0.2,0-0.2l0-0.1c0.1,0,0.1,0,0.2,0c0.1,0,0.2,0,0.3,0
		c0.1,0,0.2,0,0.3,0c0,0,0,0,0,0c0.1,0,0.2,0,0.2-0.1c0,0-0.1-0.1-0.2-0.1c-0.1,0-0.3,0-0.4,0c-0.1,0-0.1,0-0.2,0c0,0,0,0,0,0
		c0,0,0,0,0,0c0,0,0,0,0,0c0.1,0,0.3,0,0.4-0.1c0,0,0,0,0,0c0.1,0,0.2,0,0.2,0l0.1,0l0,0c0-0.1,0-0.2-0.1-0.3l0,0c0,0,0-0.1,0-0.1
		c0.1,0,0.1,0,0.2,0c0.2,0,0.5,0,0.6,0c0.1,0,0.3,0,0.4-0.1c0.1-0.1,0-0.2-0.1-0.2c-0.3-0.1-0.7-0.1-1,0c-0.1,0-0.2,0-0.3,0l0,0
		c-0.2,0-0.5-0.1-0.7-0.2c0.1,0,0.1-0.1,0.2-0.1l0-0.1c0.2,0,0.4,0,0.6,0c0.3,0,0.5,0,0.7,0c0.1,0,0.2,0,0.4,0
		c0.1,0,0.1-0.1,0.1-0.1c0-0.1-0.1-0.1-0.1-0.1c-0.1,0-0.2,0-0.4,0c-0.4,0-0.8,0-1.2,0c-0.1-0.2-0.6,0-0.8-0.1
		c0.2-0.2,0.5-0.4,0.7-0.5c0.4,0.1,0.9,0.1,1.1-0.1l0-0.1c0.2,0.1,0.4,0.1,0.6,0.1c0.2,0,0.3,0,0.5,0l0,0c0.2-0.2,1.4,0.1,1.2-0.3
		l0-0.1c0,0,0,0,0,0c0.2,0.1,0.4,0.1,0.6,0.1c0,0,0,0,0,0c0.1,0,0.1,0,0.2,0c0.1,0,0.2,0,0.3,0l-0.1,0.1c0.1,0,0.2,0,0.3,0l0.2,0.1
		c0.3,0.2-0.2,0.3,0.1,0.5c0,0,0,0,0,0c0,0,0,0.1,0,0.1c0.1-0.1,0.4-0.2,0.5,0c0.1-0.1,0.2-0.2,0.3-0.3c0.1,0,0.1,0,0.3,0
		c0,0,0,0,0.1,0.1l0,0l0,0c0.1,0,0.2,0,0.4,0c0.2,0,0.4,0,0.6-0.1l-0.1,0.1c0.3,0.3,1.1,0,1-0.2l0,0c0.3-0.1,0.6,0,0.9,0
		c0.2,0.1,0.4,0.2,0.6,0.2c0-0.1,0-0.1,0-0.2c0,0,0.1,0,0.1,0c0.1,0,0.1,0,0.2,0c0.1,0,0.1,0,0.1-0.1c0,0-0.1-0.1-0.2-0.1
		c-0.1,0-0.1,0-0.2,0c0.1-0.1,0.1-0.2,0.3-0.2c-0.2-0.4-0.8-0.7-1.1-0.3c0.1-0.1,0.1-0.2,0.1-0.3c0.8,0.1,1.8,0.1,2.7,0.2l0,0
		c0.1,0.1,0.3,0.2,0.5,0.2c0,0,0.1,0,0.1,0c0.1,0,0.1,0,0.2,0c0.1,0,0-0.1-0.1-0.1c-0.2-0.1-0.3-0.1-0.4-0.2
		c-0.3-0.4-1.7-0.5-2.6-0.6c0.5,0,0.6,0.1,1.2,0.1c0-0.3,0-0.5,0.3-0.5c0.1-0.3-0.8-0.3-0.3-0.4c0-0.1-0.1-0.1-0.1-0.1
		c1-0.2,1.5,0.3,2-0.1l0,0c0.5,0.1,1,0.2,1.5,0.2c0.7,0.1,1.4,0.2,2,0.3c0,0,0.1,0,0.1,0c0.1,0,0.1,0,0.2,0c0.1,0,0-0.1-0.1-0.1
		c-0.7-0.2-1.4-0.3-2.1-0.4c-0.5-0.1-1-0.1-1.4-0.2c-0.9-0.5-2.9,0-3-0.9l0,0c0.2,0,0.5,0.1,0.7,0.2c0.2,0,0.3,0.1,0.5,0.1
		c0,0,0.1,0,0.1,0c0.1,0,0.2,0,0.2-0.1c0.1-0.1,0-0.1-0.1-0.2c-0.2,0-0.3-0.1-0.5-0.1c-0.3-0.1-0.6-0.2-1-0.2l0,0
		c-0.7,0-1.3-0.1-2-0.1c0,0-0.1,0-0.1,0c-0.1,0-0.1,0-0.2,0l0,0c-0.4,0-0.5-0.2-1-0.2c0-0.3,0.3-0.4,0-0.6c-0.5,0.2-0.5,0-1.1,0
		c0.1-0.3-0.6-0.5-0.6-1c0.7-0.1,0.7,0.7,1.3,0.3l0,0c0.2,0.2,0.4,0.3,0.4,0.4c0,0,0.1,0.1,0.1,0.1c0,0,0,0,0,0c0,0,0.1-0.1,0.1-0.1
		c0-0.1-0.2-0.3-0.5-0.5l0.1,0c0-0.3,0-0.5,0-0.8c-0.4,0.3-0.4-0.4-0.8,0c0.1-0.3,0.1-0.3,0.1-0.4c1.1-0.1,3.3,0.5,3.6,0.2
		c0.6,0.1,1.3,0.2,1.9,0.3c0.6,0.1,1.1,0.1,1.6,0.2c0,0,0,0,0,0l0,0c0.3,0,0.9,0.3,1.3,0.1c0.6,0.3,1.4,0.3,2.1,0.3
		c0.5,0,0.9,0,1.3,0.1c0,0,0,0,0.1,0c0.1,0,0.2,0,0.2-0.1c0-0.1,0-0.1-0.2-0.1c-0.5-0.1-1-0.1-1.4-0.1c-0.7,0-1.4,0-2-0.3
		c-0.1,0-0.2,0-0.2,0l0,0c-0.1-0.2-1.6-0.4-1.6-0.2c-0.4-0.1-0.8-0.1-1.2-0.1c-0.7-0.1-1.3-0.1-2-0.3c0,0-0.1,0-0.1,0
		c-0.9-0.2-2.6-0.1-3.2-0.5l-0.1,0.1l-0.1-0.2c-1,0.1-0.4-0.4,0-0.1l0.1-0.1l0.1,0.2c0.3,0,0.7,0,0.6-0.2c0.7,0.1,1.1,0.3,1.6,0
		c1.5,0.8,4.3,0.3,6.8,0.5c2.8,0.2,5.3,0.8,7,0.7l0-0.1c0.7,0.1,1.5,0.2,2.3,0.3c1.1,0.1,2.3,0.3,3.3,0.5c0,0,0.1,0,0.1,0
		c0.1,0,0.2,0,0.2-0.1C298.5,12,298.5,11.9,298.3,11.9z M210.2,4.7c-0.2-0.1-0.3-0.1-0.5-0.1c0,0,0-0.1,0-0.1c0,0,0,0,0.1,0
		c0.1,0,0.1-0.1,0.1-0.1c0,0,0.1,0,0.1,0.1c0.1,0,0.1,0.1,0.2,0.1C210.2,4.6,210.2,4.7,210.2,4.7z M35.5,6.1c-0.1,0-0.1-0.1-0.2-0.1
		c0,0,0,0-0.1,0c0.2-0.2,0.5-0.3,0.6,0.1C35.7,6.1,35.6,6.1,35.5,6.1z M12.2,12.1L12.2,12.1c-0.1,0-0.1,0-0.2,0l0,0
		c-0.3-0.1-0.5-0.2-0.5-0.4c0,0,0,0,0.1,0c0.1,0,0.2-0.1,0.3-0.1c0.1,0.1,0.3,0.1,0.4,0.1c0.1,0,0.1,0,0.2,0.1c0,0,0,0.1,0,0.1
		C12.3,12,12.3,12.1,12.2,12.1z M5.8,19.8c0,0-0.1,0-0.1,0c0-0.1,0-0.1-0.1-0.1l0-0.1l-0.1,0c-0.1,0-0.2-0.1-0.2-0.1l0,0
		c0.3,0.1,0.7,0.1,0.8,0.3C5.9,19.7,5.8,19.7,5.8,19.8z M4.4,22c0-0.2-0.1-0.5,0.2-0.5l0,0c0.1,0,0.1,0,0.2,0c0,0,0.1,0,0.1,0
		C4.7,21.7,4.9,22.1,4.4,22z M5.1,21.4L5.1,21.4c-0.1,0-0.2,0-0.3,0c0,0-0.1,0-0.1,0C4.4,21,5,21.2,5.2,21c0.1,0,0.2,0,0.3,0
		c0.1,0,0.3,0.1,0.4,0.1c0.1,0,0.3,0,0.4-0.1l0,0.1c0.2,0,0.3,0,0.5,0C7,21.6,6.8,21.5,7,21.8C6.1,22,5.3,21.3,5.1,21.4z M10.2,16.3
		c-0.1,0.3,0.6-0.1,0.2,0.1c0,0.1,0,0.2-0.2,0.1C10,16.6,10,16,10.2,16.3z M9.3,24.6L9.3,24.6c0.1-0.1,0.1-0.2,0.1-0.3c0,0,0,0,0,0
		l0,0c0.2,0,0.3,0,0.3,0.1c-0.2,0,0,0.1,0,0.3c-0.7-0.1,0.1,0.3-0.3,0.2c0-0.2-0.3-0.1-0.4-0.2C9.1,24.6,9.2,24.6,9.3,24.6L9.3,24.6
		z M9.2,24.3C9.2,24.3,9.2,24.4,9.2,24.3c-0.2,0.1-0.4,0.2-0.5,0.2l0-0.1c-0.3-0.1-0.1-0.4-0.5-0.1C8.2,23.8,9,24.2,9.2,24.3z
		 M7.8,14.6c0.2,0,0.3,0,0.3-0.1L8,14.4c0.1,0,0.2,0,0.2,0c0.1,0,0.2,0,0.2,0c0,0.1,0.1,0.1,0.1,0.2C8.3,14.5,7.9,15,7.8,14.6z
		 M9.8,26.5c-0.9,0-1.1,0.2-1.9-0.1c0.2-1.3,1.6-0.4,2.3-0.1h0C10,26.5,9.9,26.5,9.8,26.5z M11.3,27.3c-0.4-0.1-0.8-0.1-1.3,0
		c0,0,0,0,0,0c0-0.1,0-0.2-0.1-0.2l0.1,0c0,0,0-0.1,0-0.1c0.1,0,0.2-0.1,0.4-0.1c0.5,0,0.8,0.2,1.1,0.4
		C11.4,27.2,11.4,27.2,11.3,27.3L11.3,27.3z M11.4,14.1c-0.1,0-0.2,0.1-0.3,0.1c0-0.1,0-0.3,0-0.4l0.3,0c0,0.1,0.1,0.2,0.1,0.3
		L11.4,14.1z M11.9,13.9c-0.1,0-0.2,0-0.2,0c0-0.1,0-0.1,0-0.2l0,0c0.1,0,0.2,0,0.2,0c0,0.1,0.1,0.1,0.2,0.2L11.9,13.9z M12.3,15
		C12.6,14.6,11.8,16,12.3,15L12.3,15z M13.8,14.9c0-0.1,0-0.2-0.2-0.1c0,0.1,0,0.3-0.2,0.3c-0.1-0.3,0.6-0.6,0.7-0.4
		C13.9,14.6,14,14.9,13.8,14.9z M33.7,12.2c0,0.1,0.1,0.2,0.2,0.3c-0.2,0-0.2,0.2-0.5,0.1C33.4,12.4,33.5,12.2,33.7,12.2z
		 M23.1,12.2c-0.1,0.1-0.4,0.1-0.6,0.1l0-0.1c0,0,0,0,0,0l0.1-0.1l0,0.1C22.9,12.2,23.1,12,23.1,12.2z M23,11.4
		c-0.5,0,0.4,0.4-0.3,0.2l0,0.1c-0.1-0.1-0.3-0.2-0.4-0.2c-0.2-0.1-0.3-0.1-0.4-0.2c0,0,0,0,0.1,0C22.2,11.3,22.9,11.1,23,11.4z
		 M22.3,10.3L22.3,10.3c0.2,0.1,0.3,0.1,0.4,0.3c-0.1,0-0.2,0.1-0.3,0.1c0-0.1,0-0.1,0-0.2C22.4,10.5,22.3,10.4,22.3,10.3z
		 M21.4,8.9L21.4,8.9c0,0,0,0.1,0,0.1c-0.1,0-0.1,0-0.2,0c-0.2,0-0.5,0-0.7,0.1l0,0.1c0,0.1-0.1,0.1-0.1,0.2c-0.3-0.2-0.6-0.3-1-0.4
		c0,0,0-0.1,0-0.1C19.9,8.6,20.8,8.6,21.4,8.9z M16.1,11.5L16.1,11.5c0,0,0-0.1,0-0.1c0.3-0.5,0.7-0.3,1-0.6
		c-0.3-0.1-0.6-0.3-0.5-0.7l0,0c0.2,0,0.3-0.1,0.5-0.1c0,0.1,0,0.2,0,0.3c0,0.2,0,0.4,0.1,0.6c0,0,0.1,0.1,0.1,0.1c0,0,0.1,0,0.1,0
		c0.1,0,0.1-0.1,0.1-0.2c-0.1-0.1-0.1-0.3-0.1-0.4c0-0.1,0-0.3,0-0.4c0.2-0.1,0.4-0.1,0.7-0.2c0.2,0,0.5-0.1,0.7-0.2l0,0
		c0.7,0,0.4,0.1,0.2,0.3c0.9-0.1,1.3,0.2,1.6-0.2l0,0c0.1-0.1,0.2-0.2,0.3-0.3c0.1,0,0.2,0,0.3,0c0.1,0,0.2,0,0.4,0l0,0
		c0.5-0.1,0.8,0.1,1.1,0.2c0.1,0.4-0.6,0.3-0.2,0.6c-0.4,0-0.7,0-0.8,0.2c0.1,0,0.2,0,0.3,0l0.1,0c0,0.1,0.1,0.2,0.1,0.2
		c0,0.1,0,0.2,0.1,0.3l-0.1,0c-0.2,0-0.5,0-0.5,0.1l0.1,0c-0.1,0.1-0.2,0.1-0.2,0.2l0,0l0,0c0.1,0.2,0.4,0.3,0.6,0.4
		c0.1,0,0.2,0.1,0.3,0.2L22.3,12c0,0,0,0,0,0.1c-0.1,0-0.2,0-0.3,0c-0.1,0-0.1,0-0.1,0c-0.1-0.2-0.3-0.2-0.7-0.2
		c-0.2-0.2-0.4-0.3-0.6-0.4c0,0,0,0,0,0c-0.1-0.1-0.1-0.3-0.4-0.3c0.1,0.1,0.2,0.2,0.3,0.3c0,0,0,0.1,0,0.1c0.2,0.1,0.4,0.2,0.6,0.4
		c0,0,0,0,0,0c-0.2,0.2-0.8,0.2-1,0l0,0c0,0,0,0,0,0c0,0,0,0-0.1,0c0-0.1,0-0.2-0.1-0.2l0-0.1l-0.1,0c-0.1,0-0.3,0-0.5-0.1l-0.1,0
		c-0.1,0-0.2,0.1-0.2,0.1c0,0.1,0.1,0.1,0.2,0.2l0.1,0c0.1,0,0.2,0,0.3,0c0,0,0,0.1,0,0.1c0,0,0,0,0,0.1c-0.6,0.2-1.2,0.1-1.8,0.1
		c-0.2,0-0.3,0-0.5,0c0-0.1,0-0.1,0-0.2c0-0.1-0.1-0.1-0.1-0.1c-0.1,0-0.1,0.1-0.1,0.1c0,0.1,0,0.1,0,0.2l0,0
		c-0.2-0.1-0.3-0.2-0.5-0.3l0,0.1C16.4,11.8,16.2,11.6,16.1,11.5z M21.8,12.7c0-0.1,0-0.3,0-0.4l-0.1,0c0.1,0,0.2,0,0.2,0
		c0.1,0,0.2,0,0.3,0c0,0,0,0,0,0c0,0,0,0,0,0l0,0.1C21.9,12.3,22.1,12.6,21.8,12.7z M21.5,13.6c0-0.2,0.1-0.3,0.3-0.4
		C22,13.4,22,13.7,21.5,13.6z M15.4,13.9c0.1-0.5,0.8-0.3,1.5-0.3l0,0c0.1,0.1,0.3,0.2,0.4,0.3c0,0,0,0,0,0l0,0c0,0,0,0.1,0,0.1
		l-0.1,0c-0.3,0-0.5,0-0.8,0C16.3,13.6,15.8,14.2,15.4,13.9z M17.4,13.3c0,0,0-0.1,0-0.1c0.1,0,0.3,0,0.4,0c0,0,0,0,0,0
		C17.8,13.3,17.6,13.4,17.4,13.3C17.5,13.4,17.4,13.4,17.4,13.3z M16.4,14.3C16.4,14.4,16.5,14.4,16.4,14.3
		C16.5,14.4,16.5,14.4,16.4,14.3c0.4,0,0.7,0,1,0l0.2,0l0,0c0.2,0,0.2,0,0.3,0.1c0,0,0,0,0,0c0,0,0,0.1,0,0.1
		C17.4,14.4,16.1,15.1,16.4,14.3z M18.1,29.9c-0.1-0.1-0.2-0.2-0.2-0.4c0-0.1-0.1-0.2-0.1-0.3l0,0c0.4,0,0.6,0,0.8,0.2l0.1,0
		c-0.1,0.1-0.1,0.1-0.2,0.2C18.3,29.6,18.2,29.7,18.1,29.9z M18,14.4L18,14.4c0.1,0.2,0.8,0,0.8,0.3c-0.3,0,0.1,0.2-0.2,0.3
		c0.1-0.4-0.6,0.3-0.6-0.1l-0.1,0c0.1-0.1,0.1-0.2,0.1-0.3C18,14.5,18,14.5,18,14.4C18.1,14.4,18,14.4,18,14.4z M18.7,29.9
		c-0.1,0-0.3,0-0.4,0c0.1-0.1,0.1-0.2,0.3-0.3c0.1,0,0.1-0.1,0.2-0.2l0,0c0.2,0,0.1,0.2,0.2,0.3l0,0C18.9,29.8,18.8,29.8,18.7,29.9z
		 M20.4,14.7c-0.3,0.2-0.8,0-0.9-0.3C20,14.6,20.3,14.6,20.4,14.7C20.5,14.6,20.4,14.7,20.4,14.7z M20.7,13.1
		c-1-0.1-1.8-0.6-2.7-0.1c0,0,0,0-0.1,0c-0.2,0-0.4,0-0.6,0.1l0-0.1c0-0.1-0.2-0.1-0.2-0.3c0.2,0,0.1-0.2,0.2-0.4c0,0,0,0,0,0
		c0.1,0,0.3,0,0.4,0c0.1,0,0.3,0,0.4,0c0.5,0,1.1,0,1.6-0.1c0,0,0,0,0.1,0l0,0c0.3,0.3,1.3,0,1.5,0.4C20.8,12.7,20.6,12.9,20.7,13.1
		z M21.9,14.9c-0.3-0.2-0.5,0.2-1.1,0l0,0c0-0.1,0-0.1,0.1-0.2c0,0,0-0.1,0-0.1l0,0c0.5-0.3,0.9,0.1,1.4-0.1c0,0.1,0,0.1,0,0.2
		C22.1,14.7,22.1,14.9,21.9,14.9z M21.8,33.7L21.8,33.7c0,0,0-0.1,0-0.1c0.3,0,0.6,0,0.6,0.1l0,0C22.2,33.8,22,33.8,21.8,33.7z
		 M23.6,14.1c-0.2,0.3,0.1,0.4-0.2,0.5c-0.3-0.4-0.4,0.3-1,0.1l-0.1,0c0-0.1,0.1-0.2,0.1-0.3c0.4-0.1,0.4-0.5,0.8-0.5l0,0
		c0.1,0,0.2,0,0.3,0c0.1,0,0.2,0,0.2,0l0,0C24.1,14.1,23.8,14.4,23.6,14.1z M25.2,13.3L25.2,13.3C25.3,13.3,25.3,13.3,25.2,13.3
		c0.1,0,0.2,0,0.3,0c0.2,0,0.4,0,0.5-0.1l0,0c0,0,0,0.1,0,0.1l0,0c-0.1,0-0.2,0.1-0.2,0.1C25.5,13.5,25.3,13.5,25.2,13.3z
		 M25.4,12.8c0.4-0.1,0.7-0.2,0.9-0.1c0,0.1,0.1,0.2,0.1,0.3l-0.1,0C26.3,13,26,13,25.9,13.1c-0.2,0-0.4,0-0.6,0
		C25.2,13.1,25.4,13,25.4,12.8z M26,13.9L26,13.9L26,13.9c0.1-0.1,0.1-0.1,0.2-0.1c0.1,0,0.2,0,0.3,0c0,0.2,0.3,0.3,0,0.4
		c-0.1-0.3-0.5,0-0.2,0.1C25.9,14.3,25.8,14.1,26,13.9z M27.7,33C27.7,33,27.6,33.1,27.7,33c-0.7,0.1-1,0.4-1.5,0.2
		c0.5,0-0.6-0.4,0-0.5c0.3,0.4,0.8-0.1,1.1-0.1C27.5,32.8,27.6,32.9,27.7,33C27.7,33,27.7,33,27.7,33z M28,33.2L28,33.2
		c0,0,0-0.1,0-0.1l0,0c0.8,0.1,1.1-0.5,1.6,0C29,33.4,28.6,33.7,28,33.2z M30.9,12.4c-0.4,0.3-1.1,0.5-1.6,0.1
		c0.5,0.5-0.5,0.2-0.8,0.1l0,0c-0.2,0-0.3-0.1-0.4-0.2c-0.1-0.1-0.2-0.1-0.2-0.1c0,0-0.1,0-0.1,0c0,0,0,0.1,0,0.1
		c0.1,0,0.1,0.1,0.2,0.1c0.1,0.1,0.3,0.2,0.4,0.2c0.1,0.1,0.1,0.2,0,0.2c-0.1-0.2-1.3,0.1-1.6-0.2c0-0.1-0.1-0.2-0.1-0.3l0,0l-0.1,0
		c-0.3-0.1-0.8-0.1-1.3,0.1l0,0c-0.2,0-0.4,0-0.7,0c0,0.2,0,0.3,0,0.5c-0.6-0.2-0.3,0.4-1,0.2c0.3,0.3,0,0.2,0,0.5
		c-0.1,0-0.1,0-0.2,0c-0.3-0.6,0.8-0.7,1-1.3c0.1,0,0.2,0,0.3,0c0.2,0,0.4,0,0.6-0.1c0,0,0-0.1,0-0.1c0,0-0.1,0-0.2,0
		c-0.1,0.1-0.2,0.1-0.4,0.1c-0.1,0-0.3,0-0.4,0.1l0,0c-0.3,0.2-0.2,0-0.7,0c0.3-0.6,1.2-0.3,2-0.2c-0.2-0.2-0.1-0.2,0-0.4l0,0
		l0.2,0.2c0,0,0,0,0.1,0c0,0,0,0,0.1,0c0,0,0-0.1,0-0.1l-0.2-0.2l0,0c0.3-0.1,0.6,0.1,1,0.4c0.2-0.3,0.9-0.2,1-0.4
		c0-0.1,0-0.2,0-0.3l0,0c0.1-0.1,0.3-0.2,0.6-0.3c0.1,0,0.1,0,0.2-0.1c0,0,0,0,0,0c0,0,0.1,0,0.1,0l0.1,0c0.2,0.1,0.1,0.3,0,0.5
		c0.7,0.2,1.5,0.5,2-0.1c0.1,0.2,0.2,0.3,0.3,0.5C30.2,11.8,30.9,12.2,30.9,12.4z M31.8,11.2c0.8-0.1,0.5,0.2,1.1-0.2
		c0,0.2,0.3,0.2,0.3,0.4C32.2,11.8,32.6,11.7,31.8,11.2z M34,34c-0.5,0.1-0.3-0.3-0.6-0.4c0.1,0.4-0.3,0.2-0.3,0
		c0.6,0,0.6-0.2,1.1,0C34.2,33.8,34.1,33.9,34,34z M66.1,3.8C66.2,4.6,65.4,3.8,66.1,3.8L66.1,3.8z M63.6,5.5c0.3,0,0.7-0.6,1.5-0.6
		c0.3,0.4,0.8,0,0.5,0.4c0.3,0,0.4,0.1,0.7,0.1c0.1-0.1,0.1-0.4,0.3-0.4c0,0.1,0,0.2,0,0.3c0.1,0,0.2,0.1,0.2,0.1
		c-1.2,0.2-2.4,0.4-3.1,0.2l0,0C63.6,5.6,63.6,5.5,63.6,5.5L63.6,5.5z M65.2,11.1c0-0.1-0.1-0.1-0.1-0.2l0.1,0
		C65.9,10.9,65.9,11.2,65.2,11.1z M65.1,11.3L65.1,11.3c-1,0-1-0.3-0.1-0.2C65,11.1,65,11.2,65.1,11.3L65.1,11.3z M64.1,9.8
		c0.3,0.5-0.7,0.5-0.8,0.2C63.7,10.1,63.4,9.6,64.1,9.8z M62.1,3.5c0.3,0.1,0.5,0.1,0.4,0.4C62.3,3.8,62.2,3.6,62.1,3.5
		C62.1,3.5,62.1,3.5,62.1,3.5z M60.9,3.8c0.1,0,0.2,0,0.3,0c0,0.1,0,0.2,0,0.3c-0.2,0-0.3,0-0.3-0.1l0,0C60.9,3.8,60.8,3.8,60.9,3.8
		L60.9,3.8z M59.2,3.6c0.2,0,0.4,0,0.6,0c0.6-0.1,0.5,0.3,0.9,0.3c0,0,0,0.1,0.1,0.1c0,0,0,0,0,0l0,0c-0.4,0-0.5,0.2-1,0.1l0,0
		c-0.1,0-0.2,0-0.3,0l0,0c-0.3-0.2-0.6-0.2-0.8-0.3c0-0.1,0-0.1,0-0.2C58.8,3.7,59,3.6,59.2,3.6z M58.4,3.7
		C58.4,3.7,58.4,3.7,58.4,3.7C58.4,3.7,58.4,3.7,58.4,3.7c0,0.1,0,0.1,0,0.2c0,0,0,0,0.1,0l0,0c-0.3,0-0.5,0-0.5-0.2
		C58.1,3.7,58.3,3.7,58.4,3.7z M45.9,4.1L45.9,4.1C45.9,4.1,45.9,4.1,45.9,4.1c0.1,0,0.2,0,0.3,0c0.2,0,0.4,0,0.5,0l0,0
		c1.3,0.2,3.5-0.1,4.7,0c-0.3,0.3,0.5,0.4,0.5,0.1c-0.1-0.2-0.2-0.3-0.3-0.5l0-0.1c0.2,0,0.3,0,0.5,0c0.3,0,0.6,0,0.9,0
		c0.3,0.2-0.3,0.6,0.3,0.4l0.1,0c-0.1,0.2-0.1,0.3,0,0.5c0,0.1,0.1,0.2,0,0.3c0,0,0,0,0,0c-0.1,0-0.1,0-0.2,0l0,0l0,0
		c-0.1,0.1,0,0.3,0.1,0.4c0,0,0,0,0.1,0c0,0,0,0,0,0c0,0,0.1-0.1,0-0.1c-0.1-0.1-0.1-0.2-0.1-0.3c0,0,0.1,0,0.1,0c0,0,0,0,0.1,0
		c0.1,0,0.2,0.1,0.3,0.2c0.1,0.1,0.2,0.1,0.3,0.2c0,0,0,0,0.1,0c0.1,0,0.1,0,0.1-0.1c0-0.1,0-0.1-0.1-0.2c-0.1,0-0.2-0.1-0.3-0.1
		c-0.1-0.1-0.2-0.1-0.3-0.2c0-0.1,0-0.2,0-0.4c0-0.1-0.1-0.2-0.1-0.2c0.3,0.1,0.7-0.1,1.2,0c0.1,0.7,0.7,0.1,1.1,0.4l0.1,0
		c0,0,0,0,0,0c-0.1,0.1-0.1,0.3-0.2,0.3c0,0,0,0.1,0,0.1c0,0.1,0,0.1,0.1,0.1c0,0,0,0,0,0c0.1,0,0.1,0,0.1-0.1c0,0,0-0.1,0-0.1
		C56,5,56,4.9,56.1,4.8c0,0,0.1,0.1,0.1,0.1c0,0.1,0.1,0.2,0.3,0.3c-0.1-0.4,0.8,0.1,0.7-0.2c0-0.2-0.3-0.3-0.6-0.3l0,0
		c-0.1-0.1-0.1-0.1-0.2-0.2l0,0c0.5-0.2,1.5-0.1,1.9,0.4c0.3-0.2,1-0.1,1.1-0.5l0,0c0.1,0,0.1,0,0.2,0c0,0.5,0.9,0.5,1.3,0.3
		c0,0.3-0.3,0.4,0.2,0.5c0.1-0.5,0.8,0.1,1.1-0.2c-0.1,0.5,0.7,0.3,0.9,0.5c0,0,0,0,0,0c-0.5,0.1-1.7,0.3-2.9,0.2
		c0-0.5-0.4,0-0.9-0.1c-0.2-0.1-0.3-0.2-0.5-0.3l-0.1,0l-0.1,0c0,0-0.1,0-0.2,0c-0.1,0-0.2,0.1-0.4,0.1l0-0.1c-1,0.3-2.6,0-3.4,0.7
		c0.4,0.2,0.8,0.4,1,0.4C54.9,7,54.1,7,53.5,6.8c0.3-0.2,0.4-0.6,0.7-0.9c-0.9-0.2-1.2,0-2,0.2l0,0c-0.1,0-0.1,0-0.2,0l0,0
		c-1.1-0.4-2.1,0.1-3.6,0.2c-0.4-0.2-0.4-0.4-0.5-0.5c-0.1,0.3-0.6,0.4-0.8,0.6l0,0c0,0,0,0,0,0c0,0-0.1,0-0.1,0
		c-0.2-0.2-0.7-0.2-0.3-0.5C46.5,6,46.3,6,46.2,5.7c0.2-0.2,0.7-0.2,0.8-0.5l0,0c0.1,0,0.3,0,0.4,0c0.5,0,1,0,1.6-0.1
		c0.1,0,0.2-0.1,0.2-0.2c0-0.1-0.1-0.1-0.2-0.1c-0.7,0.1-1.3,0.2-2,0.1c0,0,0,0,0,0c-0.7-0.2-1.1-0.2-2.2-0.2
		C44.8,3.9,45.8,4.7,45.9,4.1z M62.4,10.8c-0.4,0-0.6,0-0.8-0.2c0-0.4,0.6-0.4,1-0.5C62.7,10.5,62.3,10.5,62.4,10.8z M59.3,10.7
		c0-0.2,0-0.4-0.2-0.5c0.1,0,0.2,0,0.3,0c0.1,0,0.2,0,0.2,0.1C59.3,10.3,59.9,10.7,59.3,10.7z M58.2,31.3c-0.3,0.1-0.8-0.2-0.3-0.3
		c0,0.5,0.3-0.5,0.5,0C58.2,31.1,58.1,31.2,58.2,31.3z M59.1,6.1L59.1,6.1c-0.1,0-0.2,0.1-0.3,0.1c-0.1,0-0.2,0.1-0.2,0.2
		c0,0.1,0.1,0.1,0.2,0.1c0,0,0,0,0.1,0c0.1,0,0.2,0,0.3-0.1l0,0l0,0c0.2,0,0.3,0,0.3,0.1c-0.5,0.1-0.3,0.1-0.8,0c0,0.2,0,0.3,0,0.5
		c-0.2,0-0.4,0-0.7,0c0.2-0.4,0.1-0.5-0.1-0.8c0.2-0.2,0.4-0.3,0.5-0.5c0.1,0,0.2-0.1,0.2-0.1c0.1,0,0.1,0,0.1,0
		c0.1,0,0.3,0.1,0.4,0.2l-0.1,0C59.1,5.9,59.1,6,59.1,6.1L59.1,6.1z M58.3,14.3c0-0.1,0-0.2,0-0.3c0-0.1,0.7-0.3,0.7-0.1
		C58.6,14,58.8,14.4,58.3,14.3z M58.2,9.4c0-0.4,0.9-0.7,1-0.6c-0.4,0.1,0.4,0.3,0.2,0.6C59.1,9.6,58.8,9.3,58.2,9.4z M56.1,9.3
		C56,9.2,56,9.2,55.9,9.1c0,0-0.1-0.1-0.1,0c0,0-0.1,0.1,0,0.1c0.1,0.1,0.1,0.2,0.2,0.3l-0.1,0c-0.2,0.3-1.1,0.1-1.1-0.2
		c0.1,0.3-0.2,0.2-0.5,0.2c0,0,0,0,0-0.1c0-0.2,0-0.3-0.1-0.4l0,0l-0.1,0c-0.2,0-0.3,0-0.5,0c0,0,0,0,0,0l-0.1,0c-0.1,0-0.1,0-0.2,0
		c0.9-0.3,1.2,0,2.2-0.3c0.3,0.3,1,0.3,1.1,0.7C56.5,9.3,56.3,9.3,56.1,9.3z M54.1,9.5c-0.2,0-0.3,0-0.4-0.1c0-0.1,0-0.1,0-0.2
		c0,0,0,0,0,0c0.1,0,0.2,0,0.3,0C54,9.3,54.1,9.4,54.1,9.5C54.1,9.5,54.1,9.5,54.1,9.5z M53.1,9.2c0.1,0,0.2,0.1,0.3,0.1
		c0,0.1,0,0.1,0,0.2c0,0,0,0,0.1,0.1l0,0c-0.2,0-0.3,0-0.5,0C53,9.3,53,9.3,53.1,9.2L53.1,9.2z M55.3,8c-0.2,0-0.3,0.2-0.7,0.1
		C54.4,7.7,55.3,7.8,55.3,8z M56.7,11c-0.1,0-0.3,0-0.3-0.1c0.2,0,0.4,0,0.7,0c0.2,0.4-0.7,0.5-0.8,0.2C56.4,11.1,56.7,11.2,56.7,11
		z M52.2,6.9c-0.3-0.1-0.7-0.1-0.6-0.4c0.2,0,0.3,0,0.3-0.1l0,0c0,0,0,0,0,0c0,0,0.1,0,0.1,0C52,6.6,52.2,6.7,52.2,6.9z M48.3,11.6
		c0-0.1-0.1-0.1-0.1-0.2c0,0,0,0,0-0.1c0.6-0.1,0.6,0.3,1,0.4l0,0c0,0,0.1,0,0.1,0.1c0.1,0,0.2,0.1,0.2,0.1l-0.1,0
		c-0.7-0.1-0.6,0.2-1.1,0C48.4,11.7,48.4,11.6,48.3,11.6L48.3,11.6z M49.4,11.6C49.4,11.6,49.4,11.6,49.4,11.6
		c0.2-0.1,0-0.5,0.3-0.5c0.1,0.1,0.4,0.6,0,0.6C49.6,11.7,49.5,11.6,49.4,11.6z M47.4,11.9c-0.7,0.1-0.7-0.1-0.8-0.3
		c-0.3,0.2-0.5,0.4-1.1,0.4c0-0.1-0.1-0.1-0.1-0.2c-0.1-0.1-0.1-0.2-0.1-0.3c0,0,0-0.1,0-0.1c0.7-0.3,2-0.2,2.7-0.1c0,0,0,0.1,0,0.1
		l0,0C48,12.1,46.9,11.4,47.4,11.9z M46.8,6.7c0.1,0,0.1,0,0.2,0v0c0.2,0,0.1,0.2,0.2,0.3c-0.4,0-0.8,0-0.8-0.3
		C46.5,6.7,46.7,6.7,46.8,6.7L46.8,6.7z M44.5,7.5c-0.2,0.1-0.4,0.2-0.8,0.1C43.5,7.2,44.6,7.2,44.5,7.5z M42.5,9.7
		c0-0.3,0.2-0.5,0.7-0.5c0.4,0.9,1.6-0.1,2.3,0.6c-2,0.6-3.2,0.1-4.7,0.5c0-0.2,0.2-0.2,0.2-0.4l0,0c0.4-0.1,0.9-0.2,1.2-0.4
		C42.4,9.4,42.3,9.7,42.5,9.7z M42.4,11.8c1.1,0.4,1.1-0.8,1.8-0.3l0.2-0.1l-0.1,0.2c0.3,0,0.3,0.1,0.5,0.1l0,0
		c0.1,0.1,0.1,0.2,0.2,0.3c0,0,0.1,0.1,0.1,0.1c-0.3,0.1-1.3,0.1-1.6-0.3C43.3,12.2,42.6,12,42.4,11.8z M43.3,12.8
		c0,0.1,0,0.2,0,0.3c-0.1,0-0.2,0-0.3,0c0-0.1,0-0.2,0-0.3C43.1,12.8,43.2,12.8,43.3,12.8z M41.4,12.5c-0.8,0.2-1.4-0.3-1.5,0.2
		c0,0,0,0,0,0c-0.1-0.1-0.3-0.2-0.3-0.4l0-0.1c0.6-0.3,1.5-0.6,1.9,0.1C41.1,12.3,41.3,12.4,41.4,12.5z M39.7,13.1L39.7,13.1
		c0,0,0.1,0,0.2,0l0,0c0,0.2,0.2,0.3,0.2,0.5c-0.6,0-1.3,0-1.5-0.3C39,13.1,39.3,13.3,39.7,13.1z M38.4,12.2c0.1,0,0.6-0.3,0.6,0
		l0,0.1C38.9,12,38.6,12.6,38.4,12.2z M41.3,8c0.2,0,0.3,0,0.5,0c0,0.1,0,0.2,0,0.3c-0.2,0-0.3,0-0.5,0C41.3,8.2,41.3,8.1,41.3,8z
		 M40.2,6.1c0-0.1,0-0.1,0.1-0.2c0.3-0.2,0.7,0,0.8,0.3c-0.3,0-0.5,0-0.8,0l0,0C40.1,6.1,40.1,6.1,40.2,6.1z M41.9,9.3
		c-0.3,0.2-0.6,0.3-1,0.4l0,0c-0.5,0.2-0.7-0.1-1-0.2C40.5,9.2,40.9,9.4,41.9,9.3z M39.4,4.5L39.4,4.5c0.1,0,0.2,0.1,0.3,0.1
		c0,0,0,0,0,0l0,0c0,0,0,0.1,0,0.1C39.4,4.8,39,4.5,39.4,4.5z M39.8,5.8L39.8,5.8c0,0.1,0,0.1,0,0.2c0,0,0,0.1,0,0.1
		c-0.1,0-0.1,0.1-0.1,0.2c-0.2,0-0.3,0-0.5,0C38.8,5.9,39.5,5.4,39.8,5.8z M39.7,6.9c-0.3,0.6-0.9,0.1-1.5,0.5
		C38.5,7.1,38.9,6.9,39.7,6.9z M37.9,6.2c0.2,0,0.6,0,0.6,0.1c-0.3-0.1-0.4,0.1-0.6,0.1C37.9,6.4,37.9,6.3,37.9,6.2z M39.5,8.2
		c0,0.2,0,0.3,0,0.5c-0.6-0.3-1.2,0-1.8,0.1C37.9,8.3,39,8.5,39.5,8.2z M36.9,4.9c0-0.1,0.3-0.1,0.3-0.2l0,0c0.1,0,0.1,0,0.2,0l0,0
		c0.2,0,0.1,0.2,0.2,0.3c0,0.1-0.1,0.1-0.2,0.1C37.4,4.7,36.4,5.2,36.9,4.9z M36.4,6.8c0-0.1,0-0.2,0-0.3l-0.1,0
		c0.1-0.1,0.1-0.2,0-0.4l0.1,0c0.6,0.2,1.1-0.7,1.1-0.1l0.1,0c0,0.1-0.1,0.3-0.1,0.4l0,0C37.1,6.8,37,6.6,36.4,6.8z M36.9,7.6
		L36.9,7.6C36.8,7.6,36.8,7.6,36.9,7.6c0-0.1,0-0.1,0.1-0.2C37.3,7.2,37.2,8.1,36.9,7.6z M36.9,8.4c0,0.2,0,0.4-0.2,0.4l0,0
		c0,0-0.1,0-0.1-0.1c0,0-0.1,0-0.1,0C36.6,8.6,36.7,8.5,36.9,8.4z M36.5,9.6c0.3,0,0.3-0.1,0.7-0.1c0,0.2,0,0.2-0.2,0.3l0,0
		c-0.1,0-0.2,0-0.3,0C36.7,9.7,36.6,9.7,36.5,9.6C36.5,9.6,36.5,9.6,36.5,9.6z M35.2,8.8c0.6-0.1,0.7,0.3,1,0l0.1,0
		c0,0.1,0.1,0.1,0.2,0.2c0,0,0,0,0,0c-0.1,0.2-0.8,0-1.1,0.1l-0.1,0.1C35.3,9,35.3,8.9,35.2,8.8L35.2,8.8z M35.1,14.3
		c0-0.2-0.3-0.1-0.3-0.3c0.2,0,0.3-0.1,0.5,0C35.3,14.1,35.3,14.3,35.1,14.3z M35.2,9.7c0.3,0,0.6,0,0.7,0.1l0,0
		c-0.1,0.1-0.2,0.1-0.3,0.2l0-0.1C35.4,9.9,35.3,9.8,35.2,9.7z M35.5,11.3c0.3-0.4,0.5-0.7,0.4-1.2c0.1-0.1,0.2-0.1,0.3-0.1l0,0.1
		c0.1,0,0.1-0.1,0.2-0.1c0,0,0,0,0,0c0.1,0,0.2,0,0.2,0c0.1,0,0.2,0,0.3,0l0,0c0,0.7,0,1.3-0.7,0.8c-0.1,0.5,0.4,0.5,0.6,0.8
		c-0.3,0-0.5,0-0.5,0.2c0,0,0,0-0.1,0C36.1,11.7,35.6,11.7,35.5,11.3z M36.5,12.7c-0.1-0.3-0.5-0.3-0.2-0.5l0,0c0,0,0,0,0.1,0
		c0,0,0,0,0,0c0.1,0,0.2,0,0.2,0l0,0c0.1,0,0.1,0,0.2,0C36.8,12.4,36.7,12.6,36.5,12.7z M36.6,34.2c0.3-0.3,0.5-0.1,1-0.5
		c0,0.1,0.3,0.1,0.3,0.3c-0.3,0,0,0.6-0.5,0.5l0,0c-0.1,0-0.2,0-0.3,0l0,0C37.1,34.3,36.6,34.4,36.6,34.2z M37.5,35.5
		c0.1,0,0.1-0.1,0.2-0.1l0,0c0,0.1,0,0.1,0.1,0.1c0,0,0,0.1,0,0.1c0,0,0,0,0,0c0,0,0,0,0,0l0,0c-0.1,0-0.1,0-0.2,0
		c-0.1,0-0.2,0-0.3-0.1C37.4,35.6,37.5,35.5,37.5,35.5z M37.3,35.3c-0.1,0-0.2,0.1-0.2,0.2c0,0,0,0,0,0l-0.3,0c0-0.2,0-0.3,0.1-0.4
		c0.1,0,0.1-0.1,0.2-0.1l0,0c0.1,0,0.1,0,0.2,0C37.2,35.1,37.3,35.1,37.3,35.3C37.4,35.2,37.3,35.2,37.3,35.3z M38,36.6
		c-0.4-0.2-1-0.2-1.3-0.4l0,0c0,0-0.1-0.1-0.1-0.1c0,0,0.1-0.1,0.1-0.1c0,0,0,0,0,0l0.3,0c0,0,0.1,0,0.1,0c0.1,0.1,0.3,0.1,0.4,0.1
		c0.1,0,0.2,0,0.3,0l0,0C38.3,36.2,38.2,36.5,38,36.6z M40.8,36.5c-0.1,0.3-1,0.3-1.3,0.1c0-0.2,0.2-0.2,0.2-0.4
		c0.2,0,0.4-0.1,0.7-0.1C40.4,36.4,41,36.1,40.8,36.5z M49.1,37.8C49,37.8,49,37.7,49.1,37.8c-0.1-0.2,0-0.3,0-0.4l0,0
		c0.1,0,0.1,0,0.2,0c0.1,0.2,0.3,0.2,0.3,0.4l0,0C49.4,37.9,49.2,37.9,49.1,37.8z M48.9,37.3L48.9,37.3L48.9,37.3L48.9,37.3z
		 M50.2,35.8c-0.1,0-0.2,0-0.2-0.1c-0.1,0-0.2,0-0.3-0.1c-0.1,0-0.1,0-0.2,0c0,0,0,0.1,0,0.1c0.1,0.1,0.3,0.1,0.4,0.1
		c0.1,0,0.1,0,0.2,0c0,0,0,0,0,0c0,0,0,0,0,0.1c0,0,0,0,0,0c0,0.1,0,0.1,0,0.2l-0.2,0c-0.1,0-0.2,0.1-0.2,0.1c0,0.1,0.1,0.1,0.2,0.1
		l0.2,0c0,0.1,0,0.3,0,0.4c-0.3,0-0.3,0.1-0.5,0.1c-0.2-0.1-0.3-0.3-0.5-0.4c0,0.3-0.6,0.1-0.6,0.4c-0.1,0-0.1,0-0.2,0
		c-0.1,0-0.1,0-0.2,0.1c0,0.1,0,0.1,0.1,0.1c0.1,0,0.2,0,0.3,0c0.1,0,0.1,0,0.2,0l0,0.1c0.1,0,0.2,0.1,0.2,0.1l0,0
		c0,0.1,0,0.2-0.1,0.3c-0.2,0-0.3,0-0.5-0.1c-0.2,0-0.4-0.1-0.5-0.1c0-0.2-0.1-0.4-0.2-0.5c-0.2-0.2-0.5-0.2-0.7-0.2
		c-0.2,0-0.4,0-0.5-0.1l0.1,0c0.2-0.5,1.1,0.1,1.1-0.4c-0.6-0.3-0.9-0.9-1.8-0.4c0.3,0.5-0.2,0.8,0.3,1l0-0.1
		c0.2,0.1,0.5,0.2,0.7,0.1c0.2,0,0.4,0,0.5,0.1c0.1,0.1,0.1,0.2,0.1,0.4c-0.1,0-0.1,0-0.2,0c-0.2,0-0.3,0-0.5,0
		c-0.2-0.1-0.2-0.4-0.4-0.5c-2,0.1-3.8-0.3-4.9-1.4c-0.4,0-1-0.1-1,0.2l0,0.1c-0.3,0-0.7,0-1,0.1l0-0.1c-0.5-0.3-0.5-0.6-1.3-0.4
		c0-0.1,0-0.2-0.1-0.2l0.1,0c0,0,0-0.1,0-0.1c0.7-0.2,2.3-0.1,2-0.9c0.7,0,1,0.1,1.5,0.3l0,0c0,0.1-0.1,0.2-0.1,0.3
		c0,0.1,0.1,0.1,0.2,0.1c0,0,0,0,0,0c0.1,0,0.2-0.1,0.2-0.1c0,0,0-0.1,0-0.1c0.8-0.4,1.9,0.2,2.9,0.1c0.1,0.4-0.2,0.3-0.2,0.6
		c0.7-0.1,1.2,0.3,1.6,0l0-0.1c0.2,0.1,0.5,0.1,0.7,0.1c0.2,0,0.4,0,0.7,0.1c0,0,0,0,0,0c0.1,0,0.1,0,0.2-0.1c0-0.1,0-0.1-0.1-0.2
		c-0.2-0.1-0.5-0.1-0.7-0.1c-0.2,0-0.3,0-0.5,0c0.8-0.6,2.4-0.1,3.7,0.4L50.2,35.8z M50.2,9.1c-0.1,0-0.1,0.1-0.2,0.1l0,0l0-0.1
		c-0.3,0-0.4-0.1-0.5-0.3c0.1-0.1,0.4-0.1,0.7-0.1C50.2,8.9,50.2,9,50.2,9.1z M50.4,9.7c0-0.2-0.1-0.2-0.1-0.4
		c0.1,0,0.1-0.1,0.2-0.1l0,0.1c0.2,0.1,0.8-0.1,0.8,0.2C51,9.6,50.6,9.5,50.4,9.7z M50.7,11.7c0.2-0.2,0.6-0.2,0.6,0.1
		C50.9,11.9,50.8,12.1,50.7,11.7z M52.1,10.8C51.8,11.5,50.9,10.8,52.1,10.8L52.1,10.8z M52.3,9.5c-0.1,0-0.2,0-0.2,0.1
		c-0.1,0-0.2,0-0.3,0C51.6,9.3,52.4,9.2,52.3,9.5z M52.6,14c0.1-0.4,1.6-0.5,1.8-0.1C53.8,14.1,53.1,13.8,52.6,14z M54.9,11.2
		c0.1,0,0.3,0,0.3-0.1c-0.5-0.2-0.4,0-1,0c0,0.3,0,0.5-0.3,0.5c0-0.2-0.2-0.1-0.3,0c0-0.2-0.1-0.3-0.2-0.4c0.5,0.1,0.8-0.1,0.5-0.4
		c0.9,0.2-0.1-0.4,0.7-0.4c0,0.7,0,0.1,0.5,0.1c0,0.4,0.4,0.5,0.5,0.8C55.3,11.3,55,11.4,54.9,11.2z M57.1,36.3c0,0,0,0.1-0.1,0.1
		c-0.3,0-0.4-0.1-0.6-0.1l0,0c-0.2-0.3-0.7-0.4-1-0.4c-0.1,0-0.3,0-0.4-0.1c0.7-0.5,1.1-0.3,1.9-0.3c0,0.1,0,0.2,0.1,0.3
		c0,0.1,0,0.2,0.1,0.4l-0.1,0C57.1,36.2,57.1,36.3,57.1,36.3L57.1,36.3z M65.2,36.8c-0.4,0.2-1.5-0.1-1.8,0.2
		c0.1,0.2,0.7,0.2,0.5,0.7c-0.4,0.1-1.2-0.2-1.3,0.1l0,0.1c-0.1-0.1-0.2-0.1-0.2-0.2l0,0l0,0c-0.1,0-0.2,0-0.3,0c-0.1,0-0.1,0-0.2,0
		c-0.1,0-0.1,0-0.1,0.1c0,0,0.1,0.1,0.1,0.1c0.1,0,0.1,0,0.2-0.1c0.1,0,0.1,0,0.2,0c0,0,0.1,0.1,0.2,0.1c0,0.2-0.4,0.2-0.5,0.3
		c-0.3,0-0.5,0-0.8,0c-0.2,0-0.5,0-0.7,0l0-0.1c-0.1,0-0.1,0-0.2,0c-0.1-0.3,0.3-0.2,0.3-0.4c-0.3,0-0.3-0.2-0.7-0.1
		c-0.2-0.4,0.5-0.1,0.3-0.5c-1.3-0.1-1.4,0.1-2,0.7c0.2,0,0.3,0,0.3,0.1l0,0.1c-0.2,0-0.3,0-0.5,0c-0.1,0-0.2,0-0.2,0l0,0
		c0-0.1-0.3-0.1-0.3-0.3c0.2,0,0.1-0.2,0.2-0.4l-0.2,0.1l0.1-0.2c-0.8,0,0.2-0.6-0.3-0.8l0,0c0,0,0-0.1,0.1-0.1
		c0.3,0,0.5-0.1,0.5-0.4c-0.2,0-0.3-0.1-0.5-0.1c0-0.1,0-0.1,0-0.2c0.6-0.2,0.8-0.1,1.5,0C59,36,59,36.1,59,36.2c0,0,0,0-0.1,0
		c0,0-0.1,0.1-0.1,0.1c0,0,0,0.1,0,0.1c0,0,0,0,0.1,0c0,0,0.1,0,0.1,0c0,0,0,0,0.1-0.1c0,0,0.1,0,0.1-0.1l0,0l0,0
		c0-0.2,0-0.4-0.2-0.6l0,0c0.3,0.1,0.3-0.1,0.3-0.2c0.8,0.2,1.7-0.2,2-0.1c-0.3-0.1-0.3,0.6,0,0.5c0.2,0,0.1-0.3,0.3-0.3
		c0.4,0.7,2.2,0.1,2.6,0.7c-0.2,0-0.5,0-0.5,0.1c0.2,0,0.1,0.3,0.3,0.3c0.4-0.3,0.6-0.2,1.1-0.1C65.2,36.7,65.3,36.8,65.2,36.8
		L65.2,36.8z M68,36.6L68,36.6C68,36.6,68,36.6,68,36.6c0.1,0.1,0.1,0.3,0.1,0.4c-0.3,0.1-0.5,0.3-0.8,0.5l0,0
		c-0.2-0.1-0.4-0.1-0.5,0l0,0c-0.2-0.4-0.8-0.7-1.4-0.8c0-0.1-0.1-0.1-0.1-0.2l0,0l0.1,0c0-0.1,0-0.3,0-0.4c0.4-0.2,1.6-0.1,1.1,0.2
		C67.2,36.3,67.7,36.3,68,36.6z M66.5,11C67.4,10.7,66.9,11.3,66.5,11L66.5,11z M68.3,9.6c-0.1,0-0.2,0-0.3,0c0-0.1,0-0.2,0-0.3
		c0.1,0,0.2,0,0.3,0C68.3,9.5,68.3,9.6,68.3,9.6z M73.3,12.2c-0.2,0-0.3,0-0.5,0c0-0.3,0.1-0.4,0.5-0.4C73.3,12,73.3,12.1,73.3,12.2
		z M73.8,13.4c0.1,0,0.2,0,0.3,0c0,0.1,0,0.2,0,0.3c-0.1,0-0.2,0-0.3,0C73.8,13.6,73.8,13.5,73.8,13.4z M75.1,35.3
		C75,35.3,75,35.3,75.1,35.3c-0.2,0.1-0.4,0.1-0.7,0c-0.2-0.1-0.5-0.1-0.8,0c0.4-0.5,1.6-0.4,1.9-0.1C75.4,35.2,75.3,35.3,75.1,35.3
		L75.1,35.3z M80.3,35.4c-0.1,0-0.1,0-0.2,0c-0.1,0-0.3,0-0.3,0.1c0,0.1,0,0.2,0.1,0.2c0.1,0,0.2,0.1,0.3,0.1l0,0
		c0,0.2-0.2,0.3-0.2,0.5l0.1,0.1c0,0,0,0-0.1,0c-0.1,0-0.1,0-0.2,0l-0.1,0c-0.1,0-0.2-0.1-0.3-0.1c0-0.1-0.1-0.2-0.2-0.3
		c0.1-0.2,0-0.4-0.1-0.5c0,0,0,0,0,0l0.1,0c0-0.3,0.3-0.4,0.3-0.6C79.8,35,80.7,35.2,80.3,35.4z M79.3,3.3c-0.4-0.2-0.1-0.3-0.3-0.4
		c-0.2,0.1-0.2,0.3-0.5,0.2c0.2-0.3-0.1-0.4,0.2-0.5c0.1,0.2,0.1,0,0.2-0.1c0.3-0.1,0.6-0.1,0.8,0c0.1,0.2,0.5,0.5,1.1,0.6
		c0.5,0.1,1.8,0,0.8,0.2C81.1,3.5,80.1,3.3,79.3,3.3z M82.1,37.3c0,0-0.1-0.1-0.1-0.2c0,0,0-0.1-0.1-0.1c0.3,0.1,0.5-0.3,0.5,0.1
		C82.3,37.1,82.2,37.2,82.1,37.3z M88.9,35.4c0.1,0,0.2-0.1,0.3-0.1c0,0.3,0,0.4-0.3,0.4L88.9,35.4C88.9,35.4,88.9,35.4,88.9,35.4
		L88.9,35.4z M87.7,34.8c-0.2,0.5,0.5,0.4,0.6,0.7l0,0.1c-0.3,0-0.5,0-0.8-0.1c-0.1,0-0.3,0-0.4,0c0-0.1,0-0.1-0.1-0.2l0-0.1
		C87.2,35,87.3,34.8,87.7,34.8z M84,35.1c0.5-0.2,1.2-0.2,1.8-0.3c0.2,0.2,0.4,0.4,0.8,0.5l0,0.1c0,0.1,0,0.1,0.1,0.2
		c-0.5,0.1-1,0.1-1.6,0c-0.3,0-0.6-0.1-1-0.1c0,0,0-0.1-0.1-0.1c0-0.1-0.1-0.2-0.1-0.3L84,35.1z M83.8,35.2c0,0.1,0,0.1,0.1,0.2
		c0,0,0,0.1,0.1,0.1c-0.1,0-0.3,0-0.4,0l0-0.1C83.5,35.3,83.6,35.3,83.8,35.2z M89.7,36.7c-0.6,0-1.3-0.4-1.6,0.1
		c-0.5-0.6-1.2-0.1-1.8-0.6c0,0.2,0,0.4-0.3,0.4c-0.1,0-0.3-0.1-0.4-0.1c-0.1,0-0.3-0.1-0.4-0.1c-0.4-0.2-1.8-0.4-1.7-0.4
		c0,0-0.4,0.4,0-0.1l0,0c0.1,0,0.2,0,0.3,0c0.1,0,0.2,0,0.2,0c0,0,0,0,0.1,0c0.3,0,0.6,0,0.9,0.1c0.3,0,0.6,0.1,0.8,0.1
		c0.3,0,0.7,0,1-0.1c0,0,0,0,0.1,0c0.2,0,0.4,0,0.5,0.1c0.2,0,0.5,0.1,0.7,0.1c0.1,0,0.2,0,0.4,0c0.3,0.3,0.4,0.2,1.1,0.4
		c0-0.1,0.2-0.1,0.2,0C89.7,36.4,89.7,36.6,89.7,36.7z M91.7,34.3c0.4-0.1,0.3,0,1-0.1c0,0.2,0.5,0.5,0.2,0.5c0-0.1,0-0.2-0.2-0.1
		c0,0.1,0,0.2,0,0.3C92.1,34.8,91.6,34.8,91.7,34.3z M90.6,36.8c-0.2-0.1-0.3-0.3-0.5-0.4c0,0.1-0.1,0.1-0.2,0.1
		c0-0.4,0.6-0.4,0.8-0.2l0,0c0,0.1,0,0.2,0,0.2l0,0C90.8,36.7,90.8,36.8,90.6,36.8z M93.2,36.7c-0.1,0-0.2,0-0.3,0
		c-0.1,0-0.3,0-0.4,0c-0.4-0.3-0.7-0.1-1.2-0.2c0,0,0-0.1,0-0.1l0,0c0.5-0.4,1.1,0.2,1.8,0.1l0.1,0L93.2,36.7z M94.1,35.3
		c0.4,0.3-0.2,0.4,0.2,0.6l0,0c-0.1,0-0.1,0-0.2,0c0-0.1-0.3-0.1-0.5-0.1C93.6,35.4,93.7,35.2,94.1,35.3z M94.2,36.8L94.2,36.8
		c0,0-0.1,0-0.1,0c-0.2-0.1-0.4-0.1-0.6-0.1l0-0.2c0.1-0.1,0.2-0.3,0.5-0.2l0,0c0.1,0,0.2,0,0.2,0c0.5,0.3,1.4-0.5,1.4,0.4
		C95,37,94.7,36.5,94.2,36.8z M99.5,35.1c-0.8-0.5-1,0-1.5-0.4c0.3-0.2,1-0.1,1.5-0.1C99.5,35,99.2,34.9,99.5,35.1z M103.4,35.4
		c0.3,0,0.4,0.1,0.5,0.3C103.6,35.6,103.4,35.5,103.4,35.4z M106.3,36.4c0.4,0,0.5-0.2,0.8-0.2C107.1,36.6,106.5,36.7,106.3,36.4z
		 M106.8,35.3c0.6,0.1,0.2-0.5,0.8-0.4C108.2,35.3,107.1,35.7,106.8,35.3z M110.7,35.3c0-0.1,0-0.3,0-0.4c0.3,0.1,1-0.1,1,0.2
		c-0.1,0-0.3,0-0.3,0.1c0.1,0,0.2,0.1,0,0.1C111.3,35,111.1,35.5,110.7,35.3z M111.3,36.5c0.1,0,0.2-0.1,0.2-0.3
		c0.4,0,0.7,0.1,0.8,0.3C111.9,36.6,111.6,36.6,111.3,36.5z M114.6,6.5c-0.4,0-0.6,0-0.6-0.3c0.3-0.1,0.3-0.2,0.2-0.3
		c0.2,0,0.3,0,0.5,0C114.8,6.1,114.5,6.1,114.6,6.5z M114.8,5.7L114.8,5.7c-0.3,0-0.6-0.1-0.8,0.1l0-0.1
		C113.4,5.6,114.9,5.4,114.8,5.7z M118.2,36.9c0.2-0.3-0.8-0.3-0.2-0.5c0,0.3,0.3-0.2,0.7,0C118.8,36.8,118.4,36.8,118.2,36.9z
		 M118.4,6.2c-0.1-0.4,0.8-0.5,0.8-0.1C118.7,6,118.7,6.5,118.4,6.2z M120.2,35.6c-0.1-0.5,1.1-0.7,1.5-0.3
		C120.8,35.1,120.8,35.9,120.2,35.6z M125.2,3.7l0.3,0l0,0.6c0,0,0,0,0,0c0,0,0,0,0,0.1c-0.4,0-0.4-0.3-0.6-0.4
		C125,3.9,125.2,3.8,125.2,3.7z M125,36.6c0.2-0.1,1.2-0.2,1.3,0C125.6,36.4,125.2,37.2,125,36.6z M126.5,35.3c0-0.1,0-0.2-0.2-0.1
		c0,0.1,0,0.3-0.2,0.3c0-0.2-0.4-0.1-0.5-0.3C125.8,35,127.2,35.1,126.5,35.3z M126.1,4.2l0-0.5c0,0,0.1,0,0.1,0c0,0,0.1,0,0.1,0
		c0.3,0.1,0.8,0.1,0.9,0.4C126.5,3.9,126.4,4.5,126.1,4.2z M127.5,2.8c-0.2,0-0.4,0-0.6,0c0,0,0-0.1-0.1-0.1c0-0.1,0-0.1,0.1-0.1
		c0.2,0,0.5-0.1,0.6,0.1L127.5,2.8C127.5,2.8,127.6,2.8,127.5,2.8L127.5,2.8z M135,3.9c-0.1,0-0.2-0.1-0.2-0.1c0,0,0,0,0,0
		C135,3.8,135,3.9,135,3.9L135,3.9z M148.8,35.8c-0.4,0.1-0.3,0-1,0.1c-0.1-0.6,0.5-0.5,1-0.6C148.8,35.5,148.8,35.6,148.8,35.8z
		 M158.1,35.5c-0.5,0-1.1,0.1-1.1-0.3C157.3,35.4,158.3,35.1,158.1,35.5z M161.2,35.5L161.2,35.5c0.2,0,0.6-0.5,0.8-0.1
		c-0.1,0-0.1,0.1-0.1,0.2c0,0,0,0-0.1,0c-0.2,0-0.4,0.1-0.6,0C161.2,35.6,161.2,35.5,161.2,35.5z M159.5,3.8L159.5,3.8
		C159.5,3.8,159.5,3.8,159.5,3.8c0.2,0,0.4,0.1,0.5,0.1l0,0c-0.5,0.2,0,0.4-0.5,0.5C159.5,4,159.1,4,159.5,3.8z M158.8,35.6
		c0.5-0.5,1.4-0.6,1.9-0.1c0,0,0,0.1,0,0.1c0,0,0,0-0.1,0c-0.1,0-0.3-0.1-0.5,0l-0.1,0c0,0-0.1,0.1-0.1,0.1
		C159.6,35.5,158.9,35.4,158.8,35.6z M162.6,36.6L162.6,36.6c-0.5,0.4-1.1-0.5-1.4,0c-0.1,0-0.1,0-0.2,0c-0.2,0-0.3,0-0.5,0
		c-0.4-0.1-1.9,0-1.6-0.4c0,0.1,0.1,0.1,0.2,0.1c-0.2-0.6,1,0,1-0.4c0.1,0,0.2-0.1,0.3-0.2c0,0,0.1,0,0.1,0c0.1,0,0.2,0.1,0.3,0.1
		c0,0,0,0,0,0c0,0,0,0,0.1,0c0,0,0,0,0,0c0.1,0,0.3,0.1,0.4,0.1c0.2,0,0.4,0,0.6-0.1c0,0,0.1,0,0.1,0c0.2,0.1,0.4,0.2,0.6,0.2
		c0,0,0,0.1,0,0.1C162.6,36.4,162.6,36.5,162.6,36.6z M163.2,3.8c0.1,0,0.1-0.1,0.2-0.2c0,0,0,0,0,0c0.1,0,0.3,0,0.5,0.1l0,0
		C164.1,4,163.1,4,163.2,3.8z M169.6,4.1c0.1,0,0.2,0,0.3,0c0,0.1,0.1,0.2,0.2,0.3C169.8,4.3,169.5,4.4,169.6,4.1z M171.2,4.9
		c0-0.1,0-0.2,0-0.3c0,0,0-0.1,0-0.1l0,0c0,0,0,0,0.1,0l0.1,0c0.1,0,0.1,0,0.2,0C171.7,4.8,171.6,4.9,171.2,4.9z M179,5.5
		C178.1,5.8,178.2,5,179,5.5L179,5.5z M180,20.5C181.3,20.2,180.9,20.9,180,20.5L180,20.5z M185.9,5.1c-0.1,0.1-0.2,0.3,0,0.5l0,0
		c-0.8,0.1-1-0.3-1.5-0.4l0,0c0,0-0.1-0.1-0.1-0.2c0-0.1,0-0.1,0-0.2c0,0,0.1,0,0.1,0c0.2,0,0.4,0,0.6-0.1c0.1-0.1,0.1-0.1,0.1-0.3
		c0,0,0,0,0,0c0.3,0,0.6,0.2,0.8,0.5C185.9,5,185.9,5.1,185.9,5.1z M196.9,26.6c-0.4,0-0.5-0.2-0.6-0.4c0.2,0,0.4,0,0.7,0
		C196.9,26.4,196.9,26.5,196.9,26.6z M211,37.2c-0.2,0-0.4-0.1-0.5-0.2c0,0,0,0,0,0l0,0c0.3,0,0.6,0,0.7,0.1l0.1,0
		C211.2,37.1,211.1,37.2,211,37.2z M216.9,5.9c-0.4-0.2-0.1-0.3-0.3-0.4c0,0.2-0.3,0.1-0.5,0.1l-0.1,0c0-0.1,0-0.2,0-0.2
		c0.9-0.1,1.2,0.2,1.7,0.1C217.8,5.8,217.3,5.8,216.9,5.9z M219.2,5.9C219.2,5.9,219.2,5.9,219.2,5.9c-0.5,0-0.8,0-0.8-0.4l0,0
		c0,0,0,0,0.1,0l0.1,0c0.1,0,0.2,0,0.3,0c0.1,0.1,0.1,0.2,0.3,0.2l0,0C219.2,5.8,219.2,5.9,219.2,5.9z M222.7,4.7L222.7,4.7
		c0.1,0.1,0.2,0.3,0.3,0.4c-0.5,0.1-0.5-0.1-0.6-0.3C222.5,4.7,222.6,4.7,222.7,4.7z M220.6,37.9c-0.1,0-0.2,0-0.2,0
		c0-0.1,0-0.1,0-0.2c0.1-0.1,0.1-0.2,0.2-0.2C220.6,37.7,220.6,37.8,220.6,37.9z M219.4,6.1L219.4,6.1C219.3,6,219.3,6,219.4,6.1
		c0-0.1,0-0.1,0-0.1c0.6-0.1,1.1,0.1,1.9-0.1c0.1,0.3-0.1,0.3-0.2,0.5C220.4,6.4,220.4,6.1,219.4,6.1z M222.3,36.9
		c-0.1,0.6-1.3,0.1-1.3-0.2c0.4-0.3,0.8,0,1,0.3c0.2-0.1,0.1-0.5,0.5-0.4c0.1,0,0.2,0,0.3,0c0,0.3,0.3,0.4,0.3,0.7
		C222.5,37.4,222.9,36.7,222.3,36.9z M232.1,36.9L232.1,36.9c-0.2,0-0.3,0-0.5,0l0,0C231,36.5,232.2,36.3,232.1,36.9z M233.2,6.8
		c-0.2-0.3-0.5,0.2-0.5-0.2l0,0c0.1,0,0.2,0,0.3-0.1l0,0c0,0,0.1,0,0.1,0C233.2,6.7,233.2,6.8,233.2,6.8L233.2,6.8z M235.8,7.3
		L235.8,7.3c0.2,0,0.4,0,0.5,0.1l0,0.1c0.2,0,0.1,0.2,0.2,0.3C236,7.7,235.8,7.6,235.8,7.3z M236.8,6.9c0,0.2-0.3,0.1-0.5,0.1l0,0
		c-0.2,0-0.3,0-0.5-0.1l-0.1,0c-0.2-0.1-0.2-0.3-0.6-0.3c0.2,0.4-0.5,0.1-0.3,0.5c-0.6-0.1-0.5-0.4-1,0c0-0.2,0.2-0.2,0.2-0.4
		c-0.3,0-0.4,0.2-0.5,0l-0.1,0l0,0c0-0.1,0-0.2-0.1-0.3c0.5,0.1,1,0.1,1.4,0.1C235.6,6.6,236.2,6.6,236.8,6.9L236.8,6.9z
		 M237.3,37.3c-0.1,0-0.1-0.1-0.2-0.1c0,0,0,0,0-0.1c0.1,0,0.6-0.3,0.7,0C237.6,37.2,237.5,37.3,237.3,37.3z M238.3,35.4
		c0.1-0.1,0.5,0.1,0.5,0.1C238.9,35.7,238.2,35.4,238.3,35.4z M240.5,8c0.3,0.1,0.4-0.1,0.7-0.1l0,0c0.1,0,0.1,0.1,0.2,0.1
		C241.3,8.4,240.6,8.3,240.5,8z M241.5,7.9c-0.1,0-0.2-0.1-0.3-0.2l0.1,0c0.2-0.4-0.4-0.2-0.3-0.5c0.2,0,0.4-0.1,0.5,0
		c0.1,0,0.1,0,0.1,0C241.7,7.5,241.6,7.7,241.5,7.9L241.5,7.9z M243.3,7.6c0.3,0.1,0.6-0.4,0.7,0C243.8,7.7,243.3,7.9,243.3,7.6z
		 M245,34.9c0.1-0.3-0.3-0.3-0.2-0.6c0.7,0.5,1.1-0.2,1.5,0.3C245.9,34.6,245.5,34.7,245,34.9z M258,35.2c-0.1,0-0.2,0-0.3,0
		c-0.1-0.2,0.3-0.5,0.3-0.2C257.8,35,257.9,35.1,258,35.2z M269.5,21.1C269.4,21,269.4,21,269.5,21.1c-0.1-0.1,0-0.1,0-0.1
		C269.8,21,269.6,21,269.5,21.1z M276.6,31.7c-0.2,0.1,0.1,0.2,0,0.4l0,0c-0.1,0-0.2-0.1-0.3-0.1c-0.2,0-0.3-0.1-0.3-0.2
		c0,0,0,0,0,0l0.1,0C275.9,31.5,276.7,31.5,276.6,31.7z M270.5,19.8C270.5,19.8,270.5,19.8,270.5,19.8c0.1-0.1,0.1-0.1,0.1-0.1
		c0,0,0,0,0,0.1c0,0,0.1,0,0.1-0.1c0.1,0,0.3,0,0.4,0c0,0,0.1,0.1,0.1,0.1C271,19.9,270.8,19.9,270.5,19.8
		C270.5,19.9,270.5,19.8,270.5,19.8L270.5,19.8z M270.2,17.5c0,0-0.1-0.1-0.1-0.1C270.2,17.4,270.3,17.4,270.2,17.5
		C270.3,17.5,270.3,17.5,270.2,17.5z M272.8,17.9c-0.2,0-0.4,0-0.6,0c0,0,0-0.1,0-0.1C272.5,17.7,272.6,17.8,272.8,17.9
		C272.8,17.8,272.8,17.8,272.8,17.9z M273.1,17.2c-0.7,0-1.4,0-1.4,0c-0.1,0-0.1-0.1-0.2-0.2c0.4-0.1,0.8-0.3,1.1,0.1
		c0.2-0.1,0-0.1,0-0.3c0.4,0,0.7,0,0.9,0.1c0,0.1,0,0.1,0,0.2C273.4,17.2,273.3,17.2,273.1,17.2z M274.2,17.3L274.2,17.3
		C274.2,17.3,274.2,17.3,274.2,17.3c-0.4,0-0.4-0.1-0.4-0.1c0,0,0,0-0.1-0.1c0-0.1,0-0.2-0.1-0.3l0.1,0c0.3,0,0.6,0,0.6,0.1
		C274.3,17.1,274.3,17.2,274.2,17.3z M280.8,15.4c0.4,0,0.5,0.1,0.4,0.3c-0.2,0-0.4,0.2-0.3,0.4c-0.1-0.1-0.4-0.5-0.4-0.7
		C280.7,15.4,280.8,15.4,280.8,15.4z M278.5,15.9L278.5,15.9c0.4,0,0.8,0,1.1,0c0.3,0.5,0.5,0.1,0.3,0.7c-0.4-0.1-0.7-0.2-0.6-0.5
		c-0.3,0-0.5,0-0.7,0c-0.1,0-0.1-0.1-0.1-0.1l-0.1,0C278.5,16,278.5,15.9,278.5,15.9z M277.7,15.5c0.1,0,0.2,0.1,0.2,0.1l0,0
		c0,0.1,0.2,0.1,0.3,0.2c0,0,0,0,0,0C277.8,16,277.3,15.6,277.7,15.5z M279.1,18c-0.1,0-0.1,0-0.2,0l0,0c-0.4,0-1.3-0.3-1.2,0.2
		c-0.2,0-0.4,0-0.6,0c0,0-0.1,0-0.1-0.1l0.1,0c0,0-0.1-0.1-0.1-0.1C277.6,17.8,278.4,17.8,279.1,18z M275.5,17.6L275.5,17.6
		c-0.1,0-0.1,0-0.2,0C275.4,17.5,275.4,17.5,275.5,17.6c0,0,0.1,0,0.1,0C275.6,17.6,275.5,17.6,275.5,17.6z M275.7,16.8
		C275.7,16.8,275.7,16.9,275.7,16.8c0.1,0.2-0.1,0.2-0.1,0.4c0,0-0.1,0-0.1,0c-0.1,0-0.1,0-0.2,0l0,0c-0.3-0.1-0.1-0.3,0.1-0.4
		C275.5,16.8,275.6,16.8,275.7,16.8z"/>
	<path class="st0" d="M186.8,5c0,0,0.1,0,0.1,0c0,0,0.1,0,0.1,0c0.4-0.3,0.9-0.3,1.5-0.3c0.1,0,0.2,0,0.3,0c0,0,0,0,0.1,0
		c0,0,0.1,0,0.1,0c0.1,0,0.2,0,0.2,0c0,0,0.1,0,0.1,0c0.1,0,0.1,0,0.2,0c0.3,0.8,1.2,0.3,2.1,0.4l0-0.1c0.1,0.1,0.2,0.1,0.3,0.2
		c0,0,0,0,0.1,0c0.1,0,0.1,0,0.1-0.1c0-0.1,0-0.1-0.1-0.2c-0.1,0-0.1,0-0.2-0.1c0.2-0.1,0.3-0.1,0.5-0.1l0,0c0.1,0,0.2,0,0.2,0
		c0-0.1,0-0.1,0-0.2l-0.1-0.1l0,0c-0.3,0-0.6,0.1-0.8,0.2l0-0.1c0.1-0.3-0.5,0.2-0.6-0.1c0,0,0-0.1,0-0.1c0-0.1,0-0.2,0.1-0.3
		c0.1,0,0.3,0,0.4,0c0.5,0.1,1,0.1,1.5,0.1c0.1,0,0.1,0,0.1-0.1c0,0-0.1-0.1-0.1-0.1c-0.5,0-1,0-1.4-0.1c-0.2,0-0.3,0-0.5-0.1
		l-0.1,0l0,0c-0.1,0.1-0.1,0.3-0.2,0.4c0,0,0,0.1,0,0.1c0,0,0,0,0.1,0.1l0,0c-0.4,0.1-1-0.4-1.3-0.1c-0.1,0-0.1,0-0.2,0c0,0,0,0,0,0
		c0,0,0.1-0.1,0.1-0.1c0.1,0,0.2,0,0.3,0c0.1,0,0.1,0,0.1-0.1c0,0,0-0.1-0.1-0.1c-0.2,0-0.3,0-0.5,0l-0.1,0l0,0c0,0,0,0.1-0.1,0.1
		c0,0,0,0,0,0c0,0-0.1,0-0.1,0l0-0.2c0,0,0-0.1-0.1-0.1c-0.1,0-0.1,0-0.1,0.1l0,0.3c0,0,0,0,0,0c-0.1,0-0.2,0-0.2,0
		c-0.6,0-1.2,0-1.7,0.4C186.7,4.8,186.7,4.9,186.8,5z"/>
	<path class="st0" d="M265.5,6.1c0,0,0.1,0.1,0.2,0.1c0,0,0.1,0,0.1,0c0.1,0,0.1-0.1,0.1-0.2l0,0c-0.1-0.1-0.1-0.2-0.1-0.2
		c0-0.1-0.1-0.1-0.2-0.1c-0.1,0-0.1,0.1-0.1,0.2C265.4,5.9,265.4,6,265.5,6.1z"/>
	<path class="st0" d="M200,4.4c0.1,0,0.2,0,0.4-0.1l0,0c0.1,0,0.2,0,0.2,0c0-0.1,0-0.1-0.1-0.2L200.3,4l-0.1,0c-0.3,0.1-0.4,0-0.4,0
		c0-0.1-0.2-0.1-0.2,0c-0.1,0-0.1,0.1,0,0.2C199.6,4.2,199.7,4.4,200,4.4z"/>
	<path class="st0" d="M184,4c0.1-0.1,0.3,0,0.4,0c0.1,0,0.2,0,0.3,0c0.1,0,0.1,0,0.2,0c0.1,0,0.1-0.1,0.1-0.1c0-0.1-0.1-0.1-0.2-0.1
		c-0.1,0-0.2,0-0.4,0c-0.2,0-0.4-0.1-0.6,0c-0.1,0-0.1,0.1,0,0.1C183.9,4,184,4,184,4z"/>
	<path class="st0" d="M149.5,3.4c0,0.1,0.1,0.1,0.2,0.1c0,0,0,0,0,0c0,0.1,0.1,0.2,0.3,0.2c0,0,0.1,0,0.1,0c0.1,0,0.1-0.1,0.1-0.1
		c0-0.1-0.1-0.1-0.2-0.1c0,0,0,0,0,0l0,0c0,0,0,0,0,0c0-0.1-0.1-0.2-0.3-0.2C149.6,3.3,149.5,3.4,149.5,3.4z"/>
	<path class="st0" d="M71.9,2.5L71.9,2.5c0.1,0,0.2,0,0.3,0c0,0,0.1,0,0.1,0c0,0,0.1,0,0.1,0c0.1-0.1,0-0.1,0-0.2
		c-0.1-0.1-0.2-0.1-0.3-0.1l-0.1,0c-0.1,0-0.2,0-0.2,0.1C71.7,2.4,71.8,2.5,71.9,2.5z"/>
	<path class="st0" d="M68.3,2.4c0.1,0,0.2,0,0.3,0c0,0,0,0,0,0c0,0,0.1,0,0.1,0c0,0,0-0.1-0.1-0.1c-0.1,0-0.2,0-0.4,0
		c-0.2,0-0.3,0-0.4-0.1c0,0-0.1,0-0.1,0c0,0,0,0.1,0,0.1C68,2.4,68.2,2.4,68.3,2.4z"/>
	<path class="st0" d="M36.4,3.5C36.4,3.5,36.4,3.5,36.4,3.5c0.1,0,0.3-0.1,0.4-0.1l0.1,0c0,0,0.1-0.1,0.1-0.1c0,0-0.1-0.1-0.1,0
		l-0.1,0c-0.1,0-0.2,0.1-0.4,0.1C36.3,3.4,36.3,3.4,36.4,3.5C36.3,3.5,36.3,3.5,36.4,3.5z"/>
	<path class="st0" d="M8.5,10.2c0.1,0.1,0.5,0.6,0.2,0.3C8.1,10.6,9.6,10.9,9,11c0.1,0.3,0.5-0.2,0.3,0.4c0.2,0,0.5-0.7,0.7-0.4
		c0.4,0,0.1-0.6,0-0.6c0.1,0,0.2,0,0.3,0l0,0c0.2,0.1,0.4,0.1,0.7,0.1c0.7,0,1.3-0.2,1.9-0.3l0.1,0c0.1,0,0.2,0,0.2-0.1
		c0-0.1,0-0.1-0.1-0.2L13,10l0-0.1l-0.1,0l-0.1,0l-0.1,0c-0.7,0.2-1.5,0.4-2.2,0.2c0.1-0.1,0.4-0.1,0.6-0.1c-0.1-0.3,0-0.4,0.3-0.4
		C10.2,9.3,10,9,8.8,9.3C9.2,9.8,9.1,10,8.5,10.2z"/>
	<path class="st0" d="M19.3,11c0.1,0,0.2,0,0.2,0c0.5,0,0.9-0.2,1.4-0.5c0.1-0.1,0.1-0.1,0-0.2c-0.1,0-0.2,0-0.2,0
		c-0.4,0.4-0.9,0.5-1.3,0.4c-0.1,0-0.2,0-0.2,0.1C19.1,10.9,19.2,11,19.3,11z"/>
	<path class="st0" d="M276.1,20.4C276.2,20.4,276.2,20.4,276.1,20.4c0.1,0,0.2,0,0.2,0c0.1-0.1,0.1-0.2,0.1-0.3l0-0.1l-0.1,0
		c0,0-0.1,0-0.1-0.3c0-0.1-0.1-0.1-0.2-0.1c-0.1,0-0.1,0.1-0.1,0.1c0,0,0,0.1,0,0.1c-0.4-0.1-0.3,0.2,0,0.2c0,0.1,0.1,0.2,0.2,0.2
		c0,0,0,0.1,0,0.1C276.1,20.3,276.1,20.3,276.1,20.4z"/>
	<path class="st0" d="M278.4,21.2l0.1,0c0.2,0,0.3,0,0.5,0c0,0,0.1,0,0.1,0c0,0,0,0,0,0c0.1,0,0.1,0,0.1-0.1c0-0.1-0.1-0.1-0.1-0.1
		c0,0-0.1,0-0.1,0c-0.2,0-0.3,0-0.5,0c-0.4-0.4-1-0.6-1.5-0.6c-0.1,0-0.2,0-0.2,0.1c0,0.1,0,0.1,0.1,0.1
		C277.5,20.6,278.1,20.7,278.4,21.2L278.4,21.2z"/>
	<path class="st0" d="M2.7,13.3C2.7,13.3,2.7,13.3,2.7,13.3c0.2-0.1,0.3-0.1,0.4-0.2l0.1-0.1c0,0,0.1-0.1,0-0.1c0,0-0.1,0-0.1,0
		L3,13c-0.1,0.1-0.3,0.1-0.4,0.2C2.6,13.2,2.6,13.3,2.7,13.3C2.6,13.3,2.6,13.3,2.7,13.3z"/>
	<path class="st0" d="M254.8,35.5c-0.2,0-0.4,0.1-0.6,0.2c-0.1,0.1,0,0.1,0,0.2c0,0,0.1,0,0.1,0c0,0,0.1,0,0.1,0
		c0.1-0.1,0.2-0.1,0.4-0.1c0.1,0,0.1-0.1,0.1-0.1C254.9,35.5,254.9,35.5,254.8,35.5z"/>
	<path class="st0" d="M17.2,32.6c-0.1,0-0.2,0-0.2,0.1c0,0,0,0.1,0,0.1c0,0-0.1,0.1-0.1,0.2c-0.1,0-0.1,0.1-0.2,0.1
		c-0.1,0-0.1-0.1-0.2-0.1c-0.2-0.1-0.4-0.2-0.7-0.2l0,0c0-0.1,0-0.2,0-0.3c-0.2,0.2-0.9,0.2-0.6-0.3c-0.4,0-0.6,0.2-1.1,0.1
		c0.1-0.3-0.2-0.3-0.5-0.3l0,0c0,0,0,0,0,0c-0.2-0.1-0.4-0.2-0.6-0.2c-0.1,0-0.3,0.1-0.3,0.2c0,0.1,0.1,0.2,0.2,0.2
		c0.1,0,0.2,0,0.3,0c0.1,0.1,0.1,0.3,0.1,0.5c0.1-0.1,0.4-0.1,0.7-0.1c-0.2,0.2,0.5,0.4,0,0.5c0,0.5,0.5-0.3,0.5,0.1l0.1,0
		c0,0,0,0,0,0c-0.1,0.1-0.1,0.1-0.2,0.1c0,0-0.1,0.1,0,0.1c0,0,0,0,0.1,0c0,0,0,0,0,0c0.1,0,0.1-0.1,0.2-0.1l0,0
		c0.4,0.3,0.9-0.3,1.3-0.5l0,0c0.2-0.1,0.4,0,0.6,0.1c0.1,0,0.2,0.1,0.3,0.1l0.1,0l0.1-0.1c0.1-0.1,0.1-0.1,0.2-0.1l0,0l0,0
		c0-0.1,0.1-0.1,0.1-0.2c0,0,0-0.1,0-0.1C17.3,32.7,17.2,32.6,17.2,32.6z"/>
	<path class="st0" d="M18.6,33.6L18.6,33.6c-0.1-0.1-0.2-0.1-0.2-0.2c0-0.1-0.1-0.1-0.2-0.1c-0.1,0-0.1,0.1-0.1,0.1
		c0.1,0.1,0.1,0.2,0.2,0.2c0,0.1,0,0.1-0.1,0.2c0,0.1,0,0.1,0.1,0.1c0,0,0,0,0,0c0.1,0,0.1,0,0.1-0.1C18.6,33.8,18.7,33.7,18.6,33.6
		L18.6,33.6z"/>
	<path class="st0" d="M16.6,34.2c0,0-0.1,0.1-0.1,0.1c-0.1,0.1-0.3,0.2-0.2,0.3c0,0,0.1,0.1,0.1,0.1c0,0,0,0,0,0
		c0,0,0.1-0.1,0.1-0.1c0,0,0.1-0.1,0.2-0.2c0.1,0,0.1-0.1,0.1-0.1c0,0,0-0.1,0-0.1C16.7,34.2,16.6,34.2,16.6,34.2z"/>
	<path class="st0" d="M52.5,36l0.3,0C52.7,36,52.6,36,52.5,36z"/>
	<path class="st0" d="M50.1,5.1C50.1,5.2,50.2,5.2,50.1,5.1c0.2,0,0.2,0,0.2,0c0,0,0.1-0.1,0.2,0c0.1,0,0.2,0,0.2,0.1l0.1,0l0,0
		c0,0,0.1,0,0.2-0.1c0.1,0,0.2-0.1,0.3-0.1c0.1,0,0.1-0.1,0.1-0.2c0-0.1-0.1-0.1-0.2-0.1c-0.2,0-0.3,0.1-0.4,0.2c0,0,0,0-0.1,0
		c0,0-0.1,0-0.1,0c-0.2,0-0.5-0.1-0.7,0.1C50,5,50,5.1,50.1,5.1z"/>
	<path class="st0" d="M42.7,40.5c-0.1,0-0.2,0-0.2,0.1c-0.1,0.1-0.3,0.4,0,0.7c0,0,0.1,0.1,0.1,0.1c0,0,0.1,0,0.1,0
		c0.1,0,0.1-0.1,0-0.2c-0.1-0.1-0.1-0.2,0-0.4C42.8,40.7,42.8,40.6,42.7,40.5z"/>
</g>
</svg>
