<?xml version="1.0" encoding="utf-8"?>
<!-- Generator: Adobe Illustrator 23.0.6, SVG Export Plug-In . SVG Version: 6.00 Build 0)  -->
<svg version="1.1" id="Layer_5" xmlns="http://www.w3.org/2000/svg" xmlns:xlink="http://www.w3.org/1999/xlink" x="0px" y="0px"
	 viewBox="0 0 125.3 37.5" style="enable-background:new 0 0 125.3 37.5;" xml:space="preserve">
<style type="text/css">
	.st0{fill:#A8E2E2;}
</style>
<title>shop-stroke-l11</title>
<g>
	<path class="st0" d="M112,28.1l-1.4-0.8l-0.7,0.2h-0.4v0.3h0.4c0.3,0.3,0.8,0.2,0.9,0.7l0.3,0.1c0.1-0.1,0.4-0.1,0.5,0h0.8h0.5
		C112.9,28.1,112.9,28.1,112,28.1z"/>
	<path class="st0" d="M56.2,2.4c-0.5-0.5-1-0.2-1.5,0h0.9H56.2z"/>
	<path class="st0" d="M123.2,20.1c-0.8-0.4-1.7-0.5-2.6-0.4v0.1c-0.6-0.2-1.2-0.4-1.9-0.4c-0.3,0-0.5-0.2-0.5-0.5
		c-0.7,0.1-1.4,0.6-1.8-0.4c-0.4,0.5-0.7-0.4-1.1-0.1l-0.5-0.1c-0.4,0-0.9,0-1.3-0.1c-0.5,0.3-1,0-1.5,0l-2.2-0.2l-0.9,0.1
		c-0.1,0-0.2-0.1-0.2-0.2c0,0,0.1,0,0.1,0.1v-0.3c0,0,0.1,0,0.1-0.1c0.2-0.2,0.7-0.3,1-0.2l0.5-0.1c0,0,0-0.1,0.1-0.2l0.2,0.1
		c0,0,0-0.1-0.1-0.2c0.2,0,0.2,0.2,0.2,0.3c0.5,0.1,1.1,0.2,1.6,0.1l0.4-0.1v-0.1l0.7,0.1c0-0.1,0-0.1,0-0.2v-0.3l-0.1-0.2h-0.1
		l-0.3-0.1l0.3-0.2l0.1-0.1l0,0l0.4-0.1V16l0.9,0.3h0.2h0.2l0.4,0.2c0.7-0.1,1.4-0.1,2.1,0.1v-0.1l0.1-0.3l-0.4-0.1l-0.8-0.1
		l-2.7-0.2v0.1l-0.4-0.1v-0.1l-1.1-0.3c-0.4,0-0.8,0-1.1-0.1l-0.7,0.3c-0.3,0.1-0.5,0.1-0.8,0h-0.4l-0.4-0.2l-1.5-0.2l-0.4,0.1h-0.3
		c-0.2,0-0.5,0-0.7,0v-0.5l-0.1,0.1v-0.3c-0.7-0.3-0.9-1-1.6-1.2h0.1c-0.1-0.3-0.4-0.2-0.7-0.2c-0.5,0.1-0.9,0-1.4-0.1
		c0.1-0.2,0.3-0.2,0.7-0.1c0.4,0.1,0.9,0.2,1.1-0.4c-0.7,0.1-1.5,0-2.2-0.2l-1.1-0.1h-0.4l-0.1,0.4c-0.1,0-0.1,0-0.2,0l0.2-0.4h-0.2
		v0.4c-0.2,0-0.3-0.1-0.5-0.1c0.1-0.1,0.3-0.2,0.4-0.4l-1.4-0.4c-0.4,0-0.7-0.6-0.9,0.2v0.2c0,0,0,0,0,0.1h-0.1c0-0.1,0-0.2,0-0.3
		v-0.2L97.5,12l-0.1-0.1l-0.1-0.5l-0.6,0.1c-0.1,0.2-0.2,0.3-0.4,0.3c0.1,0,0.2-0.1,0.4-0.3c0,0,0-0.1,0-0.2l-0.3,0.1h-0.3l-0.8-0.1
		h-0.4v0.1c0,0,0,0,0,0.1l-0.3-0.2h-0.4L94,11.5c-0.3,0-0.6-0.1-0.9-0.3c-0.1,0.2-0.2,0.1-0.2,0.1c-0.9,0.2-1.8-0.3-2.7,0.1
		l-0.3-0.3h-0.6c-0.1,0.1-0.2,0.1-0.2,0.1l0.1-0.1L88.9,11l0,0h-0.2h-0.1c0-0.1,0-0.2-0.1-0.3c0,0,0,0,0.1,0l0.7,0.1l1.2-0.1
		c0.1-0.1,0.2-0.1,0.3,0h0.4c0.6,0.1,1.2-0.1,1.8,0.1l0.3-0.1c0.8-0.1,1.6,0.1,2.2-0.5c0.1-0.1,0.1-0.3,0.2-0.3s0.1,0.2,0.1,0.3
		l0.2,0.1c0.4-0.1,0.7-0.1,1.1,0c0-0.1,0-0.1,0-0.1v-0.1l0.1,0.1c0.3,0.1,0.6,0.3,0.7,0.1c0.1-0.1,0.2-0.1,0.3,0.1
		c0.3,0.3,0.7,0.2,1,0.1c0.3-0.3,0.8-0.4,0.8-0.8c0.2,0.7-0.5,0.8-0.8,1l0.3,0.1c0.7-0.1,1.5-0.2,2.2-0.1l0.8-0.2l0.2,0.2h0.6
		l0.2-0.1c0.6-0.1,1.1,0.5,1.6,0.1c-0.2-0.9-0.2-0.9-1-0.4H104l-0.1-0.8c-0.1,0-0.1,0-0.1,0V9.4c0.1-0.3,0.2-0.4,0.4-0.4
		c0,0,0,0.1-0.1,0.1l-0.2,0.4l0.4,0.6h0.1c0.8-0.5,0.8-0.5,1,0.4h0.3c0.1-0.2,0.2-0.2,0.3,0c0.1,0.1,0.3,0.1,0.5,0.1v0.2
		c-0.1,0-0.1,0.1-0.1,0.1c0.1,0,0.1,0,0.2,0c0,0.2-0.1,0.3,0.2,0.4c0.3,0.1,0.6,0,0.7-0.3c0.8,0.2,1.6,0.3,2.4,0.2
		c0.3,0,0.6,0,0.7,0.4c0.4,0,0.9-0.2,1.3,0.1c0.1-0.1,0.3-0.2,0.5-0.2c0.2-0.1,0.5-0.1,0.6,0.1h0.2c0-0.2,0-0.3,0.2-0.3l0,0
		c0,0.1,0,0.1,0,0.2l0.2,0.2h0.1l0,0l0.3,0.1l0.3-0.1v-0.2c0.3-0.8,1-0.4,1.5-0.5c0.2,0,0.3,0,0.5-0.1l0.4-0.7l-0.2,0.1
		c-0.7-0.9-1.8-0.5-2.7-0.7c-0.3,0-0.4-0.2-0.5-0.4c-0.5-0.2-1.2-0.2-1.5-1c-0.1-0.4,0.2-0.7,0-1l-0.5-0.1c-0.2,0.2-0.3,0.2-0.5,0
		h-0.3c0,0.1-0.1,0.1-0.1,0.1c-0.1,0.1-0.2,0-0.3-0.1L109.7,7c-0.4,0.1-0.8,0.1-1.1,0c-0.6-0.1-1.3,0-1.4-0.9l-1-0.1h-0.6h-0.8
		c-0.3,0-0.7,0-1-0.1H103h-0.3l0,0l-0.2-0.1v0.1c-0.1,0-0.1-0.1-0.1-0.2h-0.1c-0.1,0-0.1,0-0.2,0l-0.5-0.1h-0.2l-0.1-0.1L101,5.4
		l-0.5,0.1v0.1l-0.3-0.1c0,0.1-0.1,0.1-0.1,0.2c0-0.1,0.1-0.2,0.1-0.3V5.3l-0.5-0.2l-0.3,0.1v0.1c-0.3-0.1-0.6,0-0.9-0.2h-0.2
		l-0.2,0.3l-0.6-0.1c0.1,0.3,0.3,0.6,0.6,0.6c-0.4,0.1-0.5-0.2-0.6-0.5c-0.1-0.1-0.3-0.3-0.5-0.3c-0.3,0.2-0.7,0.3-1,0.2
		c-0.2-0.1-0.5,0-0.7,0.2c-0.2,0.3-0.4,0.6-0.7,0c-0.2-0.3-0.8-0.2-1.2-0.2c-0.5,0-0.9,0-1.1-0.4L92,4.8c-0.1,0.2-0.3,0.5-0.5,0.4
		c-0.1,0-0.1-0.1-0.1-0.2l0.1,0.1c0.3,0.1,0.3-0.3,0.5-0.4l-0.6-0.2v0.1c-0.1-0.2-0.3-0.2-0.5-0.2c-0.1,0.3-0.2,0.2-0.3,0.1
		c0.1,0.1,0.2,0,0.2-0.2h-0.3c0,0,0,0.1,0.1,0.1c-0.2-0.1-0.5-0.2-0.7-0.2c0,0.2,0.1,0.6-0.2,0.6c0.3,0,0.1-0.4,0.2-0.6
		c-0.3-0.2-0.7-0.3-1-0.2h-0.3l-0.2-0.1c-0.1,0.3-0.3,0.5-0.5,0.6C88,4.3,88.1,4.2,88.2,4h-0.3c-0.6,0.5-1.4,0-2.1,0.3
		c0.3,0.2,0.7,0.3,0.7,0.7l0,0c-0.1-0.4-0.5-0.4-0.7-0.7h-0.1c-0.1,0.2-0.1,0.3-0.3,0.3c0.1,0,0.2-0.2,0.3-0.3
		c-1.3-0.3-2.6-0.5-4-0.5V4c0.1,0.2,0.2,0.5,0.4,0.5c-0.2,0-0.3-0.2-0.4-0.5h-0.8c-0.6,0.7-1,0.1-1.5-0.2l-0.3-0.1H79h0.1l-0.4-0.1
		c0,0.1,0.1,0.1,0.2,0.2c-0.1,0-0.1,0-0.3,0c-0.2-0.1-0.4,0-0.5,0.1c-0.5,0.3-0.8,0.4-1-0.3L76,3.4l0,0l-0.4-0.1l-0.3,0.3h0.3
		c0,0.1-0.1,0.3,0.1,0.3l0,0C75.7,4,75.6,4,75.6,4s-0.1-0.2-0.1-0.3l-0.2-0.1l-0.6,0.1c-0.2-0.2-0.5,0-0.8-0.1c0,0,0,0,0,0.1v0.1
		c-0.1,0-0.2,0.1-0.3,0.1c-0.1,0-0.2,0-0.3,0c0.2,0,0.4-0.1,0.5-0.2c0,0,0-0.1-0.1-0.1c-0.2-0.2-0.6-0.2-0.9-0.1
		c-0.4,0.2-0.5-0.1-0.6-0.3H72l-0.6,0.1c0.5,0.2,0.9,0.5,1.4,0.6c-0.1,0-0.2,0-0.2,0.1c-0.4-0.1-0.8-0.3-1.2-0.5h-1
		c-0.9,0.4-1.9,0.3-2.7-0.2h-0.5h-0.3h-0.3c0.1,0.1-0.1,0.2,0.1,0.3l0,0c-0.1,0.1-0.1,0.1-0.1,0.1s-0.1-0.2-0.1-0.3h-0.3l0.1-0.1
		C66,3,65.8,3.1,65.7,3.4c0.1,0.1,0.3,0,0.5-0.1c-0.1,0.2-0.4,0.2-0.6,0.2c-0.7,0.1-1.3,0-1.5-0.8h-1l-0.3-0.1
		c-0.3,0-0.4,0.1-0.3,0.4h-0.1l-0.2,0.1c0,0,0,0,0,0.1c-0.3-0.1-0.5-0.1-0.7-0.1c0,0,0,0.1,0.1,0.1c-0.1-0.1-0.1-0.1-0.2-0.2H61
		h-0.4h-0.7c-0.4,0-0.9,0.2-1-0.2l-0.3-0.1c-0.3,0.3-0.7,0.3-1,0h-0.9c-0.2,0.5-0.7,0.4-1,0.4C55.2,3,54.8,3,54.3,3s-1,0.2-1.5,0.1
		c-1-0.2-2.1-0.2-3.1,0c-0.5,0.2-1.1,0.1-1.4-0.3c-0.3,0-0.6,0.3-0.8,0l-0.4-0.1c-0.4,0.3-0.9,0.1-1.3,0.1c-0.7-0.2-1.6-0.1-2.2,0.4
		c-0.5,0.4-1.2,0.4-1.7,0h-0.1l0.1-0.7l-1.3-0.1l-0.2,0.2C40.3,2.8,40.2,3,40,2.7l-1.2-0.1h-0.6L38,2.9h-0.1c-0.7,0.5-1.6,0-2.3,0.3
		l-2.5,0.3c-0.7,0-1.3,0.1-1.9,0.2C30.5,3.9,29.7,4,29.4,3c-0.1-0.2-0.1-0.7-0.6-0.4c-0.7,0.2-1.3,0.2-2,0.2V2.7l-0.7-0.1h-0.4
		c0,0.1,0,0.1-0.1,0.2h-0.2c0-0.1,0-0.1,0-0.2c-0.5-0.1-1.2-0.1-1.7,0.2c0.1,0.4,0,0.7-0.1,1c0-0.3,0-0.5,0-0.8c0-0.1-0.1-0.1-0.3,0
		c0-0.1,0.1-0.1,0.1-0.2c-0.2-0.1-0.5-0.1-0.7,0.1c0,0.1,0,0.1,0,0.2L22.1,3c-0.1,0-0.3,0.1-0.4,0.2h-0.2h-0.2L21.2,3l-0.3-0.3
		l-0.6,0.1C20.2,3,20,3.2,19.7,3.3C19.1,4,19.2,3.2,19,3c-0.3,0.1-0.7-0.3-1.1,0.1v0.1c-0.3-0.1-0.5,0.1-0.6,0.2l0,0h-0.9
		c0,0,0,0,0,0.1c-0.3-0.4-0.7-0.3-0.8-0.1c-0.3,0.2-0.5,0.1-0.6-0.1l-0.2,0.1c-0.1,0.1-0.2,0.2-0.4,0.3c-0.1,0.3-0.2,0.6-0.5,0.7
		L14,5.1l-0.1-0.7c0.4-0.1,0.5-0.4,0.5-0.7L14,3.6l-0.2,0.7V4.2l0.1-0.7h-0.2c-0.4-0.1-0.9,0-1.3,0.2l0.2,0.1
		c0.2,0.1,0.5-0.1,0.6,0.2c0.1,0.2-0.1,0.3-0.3,0.3V4.2c-0.3,0.2-0.4,0.6-0.8,0.5C11.6,4.9,11.2,5,10.7,5c-0.1,0.3-0.6,0.3-0.6,0.7
		l1,0.7l0.1-0.1C12,6.4,12.4,5.9,13,5.6c0.2,0.1,0.4-0.1,0.5-0.2L13.6,6c0.8-0.1,1.7-0.1,2.5,0v0.1H16c-0.2,0.4,0.2,0.5,0.4,0.6
		c-1.3,0-2.3,0.3-2.9,1.4C14,8,14.4,7.8,14.8,7.6c0.5-0.3,1.1-0.5,1.7-0.6l0,0l0,0c0.2,0,0.4,0,0.6,0c1,0,1.9,0,2.9,0.1l0.2,0.1
		c-1,0-2-0.1-3-0.1c-0.8,0-1.6,0.2-2.3,0.8C14.4,8,14,8.1,13.7,8.3c-0.2,0-0.4,0-0.6-0.3l-0.7-0.1c-0.1,0.2-0.3,0.3-0.4,0.4
		c-0.4,0.3-0.6,0.6-0.7,1c-0.2,0.2-0.2,0.4-0.2,1c-0.1,0.4-0.4,0.7-0.8,0.9c-0.9,0.6-1.8,1.1-2,2c0,0-0.1,0-0.1,0.1l-0.1,0.2l0,0
		c-0.5,0.5-0.7,1.1-1.2,1.8c0,0,0,0-0.1-0.1H5.9c0.2,0.1,0.4,0.3,0.6,0.4c-0.7,0.7-1,1.7-2.1,2.1c-1,0.5-1.5,1.4-1.4,2.4
		c0.6-0.1,0.5-0.5,0.5-0.9c0.1-0.6,0.5-1,1.1-0.9c0.5,0,0.7-0.5,1.1-0.7l0.1-0.4c0-0.3,0.2-0.5,0.4-0.6c0-0.2,0.2-0.4,0.4-0.4
		c0-0.2,0.1-0.3,0.2-0.4c0,0,0.1,0,0.1,0.1c-0.1,0.1-0.2,0.3-0.2,0.4l0.1,0.1c0,0,0,0-0.1,0s-0.1-0.1-0.1-0.1
		c-0.2,0-0.4,0.2-0.4,0.4l0,0C6,16.8,5.9,17,5.9,17.3H5.8l-0.1,0.4l0,0c-0.4,0.1-0.6,0.6-1,0.6l0.2,1.2c0.1,0,0.3,0.1,0.5,0.1
		c-0.1,0-0.3,0-0.5-0.1l-0.2-1.1c-0.7-0.1-1.1,0.2-1.1,0.9c0,0.4,0.1,0.8-0.5,0.9c-0.1,0.1-0.1,0.3,0,0.4c0.2,0,0.4,0.1,0.2,0.3
		c0,0.3-0.4,0.7,0.2,0.9c0.2-0.1,0.2,0,0.3,0.1c-0.1-0.1-0.1-0.1-0.2,0V22h0.3L4,22.2l0.4,0.1h0.5l0,0l0.6,0.3h0.3v-0.1
		c-0.2-0.3-0.5-0.4-0.7-0.6l0,0c0.3,0.2,0.6,0.3,0.7,0.6l0.4,0.1c0.5-0.1,0.5,0.1,0.5,0.4L7,23.2l0,0v0.1v0.3l0.1,0.2v0.1l0.3-0.1
		l0.1-0.3l0.1-0.1l0.5,0.2v0.1v0.1c-0.3,0.2-0.4,0.5-0.9,0.4s-1-0.1-1.5,0l-0.1,0.4c1.1,0.1,2.1,0.1,3.1,0c0.4,0,0.8,0,0.6,0.6
		c0.4,0.1,0.7-0.5,1.1-0.2c0.2-0.3,0.5-0.3,0.8-0.4c0.2,0.1,0.5,0.1,0.5,0.5l0.5-0.1h0.9c0-0.1-0.1-0.3-0.2-0.3l0,0
		c0.1,0.1,0.1,0.2,0.1,0.2l0.2,0.1l0.6,0.1h0.4l0.2-0.1h0.4c0-0.1-0.1-0.1-0.2-0.1c0.1,0,0.1,0,0.2,0.1l1.2,0.1l0.2-0.1l0.2,0.3
		l0.4,0.1c0.1,0,0.2,0.1,0.2,0.2c0.2,0,0.3,0.1,0.4,0.2l0,0c-0.1-0.1-0.2-0.1-0.5-0.2h-0.3l-0.5,0.1v0.1l0.9,1l0.2-0.1
		c-0.1-0.3,0.2-0.6,0.2-0.8h0.1c0.1,0.2-0.2,0.5-0.2,0.8c-0.1,0-0.1,0.1-0.2,0.1H17l0,0l-1-0.9l-1.3,0.2h-0.3l0,0
		c-0.3,0.1-0.4,0.3-0.6,0.5l0.1,0.2c0.2-0.1,0.3-0.2,0.5-0.4c-0.1,0.2-0.3,0.4-0.6,0.5v0.2c-0.2,0-0.4,0-0.6,0.1v-0.1L12.9,27
		c-0.5-0.1-1,0-1.5,0.2v0.2c-0.3,0.9-0.9,0.4-1.4,0.5c0,0.9,0.8,0.6,1.2,0.8l0.4-0.1h0.7l0,0v0.1c-0.5,0.7-1,1.3-0.1,2.1
		c0.8,0.2,1.7,0.4,2.5,0.7c0.2,0.1,0.3,0.1,0.5,0v0.1c0.4,0.2,0.8,0.3,1.2,0.4l0.2-0.7c0,0,0,0,0.1,0l-0.2,0.6
		c0.1,0.1,0.3,0.1,0.5,0V32c0.3,0.1,0.6,0.1,0.9,0.1c0.2,0.2,0.6,0.4,1,0.3l0.2,0.1l0.3-0.1c0.2-0.3,0.3,0,0.5,0.1h0.3
		c0.6-0.3,1.1,0.3,1.6,0.1c0-0.2-0.1-0.4-0.3-0.4c0.2,0.1,0.4,0.2,0.4,0.5h0.6c0-0.3,0.2-0.6,0.5-0.8c0.1-0.1,0.3-0.2,0.4,0
		c0,0.1,0.1,0.2,0.1,0.3v0.1c-0.1-0.1-0.1-0.2-0.1-0.3c-0.1-0.2-0.3-0.1-0.4,0c-0.3,0.2-0.5,0.5-0.5,0.8c1,0.1,1.9,0.2,2.7,0.3
		c0.5,0,0.6-0.2,0.7-0.5c-0.4-0.1-0.8-0.1-1.2-0.1v-0.1c0.4,0,0.8,0,1.2,0.1c0-0.2,0.1-0.4,0.2-0.5h0.1c-0.1,0.2-0.3,0.4-0.2,0.6
		l0.6-0.1h0.2c0.3-0.2,0.4-0.2,0.6-0.2c-0.1,0-0.3,0-0.5,0.2c0.3,0.2,0.5,0.2,0.8,0.2l0,0c0.3,0.1,0.6,0,0.7-0.2l-0.1-0.2
		c0.1,0,0.3,0,0.4,0s0.1,0.1,0.2,0.2c0,0.1,0.1,0.1,0.1,0.1c0.2-0.1,0.4-0.2,0.6-0.2c0,0,0,0,0.1,0c0,0.1,0,0.1,0,0.2v0.2L29.5,33
		c0.3,0,0.6-0.2,0.9,0h0.4c0.3-0.1,0.6,0.2,0.9,0.1c-0.3-0.7-1-0.3-1.5-0.6l0,0l0,0h0.1l0,0c0.5,0.3,1.2-0.1,1.5,0.6l1,0.1
		c0.6,0.1,1.1,0.2,1.8,0.1l-0.1-0.5v-0.1l0,0l0.1,0.5l0.7,0.1l-0.1,0.1h0.3c0-0.1-0.1-0.2-0.2-0.1c0.1-0.3,0.2-0.2,0.3,0h0.3
		c0.1-0.1,0.3-0.2,0.5-0.2l0.1-0.4v0.1l0.6,0.1H37h-0.5l-0.1,0.4c-0.2-0.1-0.4,0-0.5,0.2l0.3,0.1c0.3-0.1,0.7,0.1,0.7-0.3
		c0.1,0,0.1-0.1,0.1-0.1l0,0c1,0,1.9-0.1,2.9,0c-0.1-0.2-0.3-0.3-0.5-0.3h0.1c0.2,0,0.5,0.1,0.5,0.3l0.9,0.1h0.7h0.3
		c0.4,0.1,1,0.2,1.4,0.2s0.8,0.1,1-0.3h-0.1c0.1,0,0.1,0,0.2,0l0.3-0.1l0.2,0.1c0,0.1,0,0.1,0,0.2l0.7,0.1h0.2
		c0.1-0.1,0.2-0.2,0.3-0.3c0.2,0,0.3,0.1,0.5,0.1c0.1,0.1,0.2,0.2,0.3,0.3h0.3c0.1-0.1,0.1-0.2,0.2-0.2l0,0h0.1
		c0.1,0,0.1,0.1,0.2,0.2l0.2,0.1h0.5l0.2-0.1l0.1-0.4c0.1-0.1,0.1-0.2,0.2-0.2l0,0l0,0l0,0l-0.1,0.1h0.1l-0.1,0.3l0.3,0.1l0.2-0.2
		c0.5,0,0.8,0,1.2,0.1c0.5,0.1,1.2-0.1,1.5,0.4l0.2,0.2l0.2-0.3l-0.1-0.5l-0.1-0.1C52,33,52,32.9,52,32.8c0,0.1,0,0.1,0.1,0.2
		l0.5-0.1v-0.3c0.8,0.2,1.5,0.2,2.3,0.2l0.4-0.1c0.1,0,0.2,0,0.3,0.2c0.4,0.1,0.8,0.1,1.2-0.1v-0.2l0.1,0.1l0.3,0.2
		c0.2,0,0.5,0,0.7,0.1h0.3h0.3c0.1-0.1,0.2-0.1,0.3,0l0,0v0.1L59,33l0.6,0.1l0.2-0.1c0.1-0.4,0.2-0.4,0.3-0.4C60,32.7,60,32.8,60,33
		l0.7,0.1l0.2,0.1c0.3,0,0.6,0.2,1,0h0.4c0.1,0,0.1-0.1,0.2-0.1l0.4,0.1H63h0.1l0.9-0.1h0.3l0.6,0.1l0.5,0.1l0.1-0.1v-0.5
		c0.4,0,0.8-0.1,1,0.1c-0.2,0-0.3,0-0.5,0l0.1,0.4l0.7,0.2h0.1c0.3,0,0.6,0,0.9,0.1l0.2-0.1c0-0.2,0-0.4,0.2-0.4s0.1,0.3,0.1,0.4
		l0,0v0.1h0.2h0.1h0.2c0.1-0.1,0.2-0.2,0.4-0.2c0.1,0,0.2-0.1,0.2-0.1c0.1,0,0.1,0.1,0.1,0.1l0,0c-0.2,0-0.3,0.1-0.3,0.3h0.3l0,0
		l0,0h0.2l0,0h0.1c0-0.1,0-0.1,0-0.2c0-0.1,0.1-0.1,0.2,0c-0.1,0-0.1,0.1-0.2,0.2h0.4l0.3,0.1H71v-0.5l-0.1-0.1
		c0.2-0.2,0.4-0.4,0.7-0.4c-0.2,0.1-0.4,0.3-0.5,0.4L71,33.7c0.2,0,0.5,0,0.7-0.1l1.1,0.1c-0.1-0.2-0.3-0.3-0.5-0.3
		c0-0.1,0-0.3,0-0.4c0,0.1,0,0.2,0,0.2c0.2,0,0.4,0.1,0.5,0.3l0.7,0.1l0.1-0.1c0.2-0.1,0.5,0,0.6,0.2c0.4,0.1,0.7,0.1,1.1,0.1v0.1
		l0.7,0.2h0.2c0-0.1-0.1-0.2-0.2-0.3c0.1,0,0.1,0.1,0.2,0.1h0.3c0.1-0.1,0.2-0.2,0.4-0.2c0,0.1,0.1,0.1,0.1,0.2l0.6,0.1l0,0
		l-0.7-0.1c-0.2,0-0.3,0.1-0.4,0.2h0.2c0.5,0,0.9,0.2,1.4,0V34c0-0.2,0-0.3-0.1-0.3l0,0c0.2,0,0.2,0.2,0.2,0.3v0.1l0.4,0.1l0,0
		c0.4,0.3,0.9,0.1,1.4,0.1h0.7c0-0.4-0.2-0.8,0.4-1.3l0,0c-0.5,0.4-0.3,0.9-0.4,1.3l0.7,0.1l0.2,0.1h0.3l0.2-0.1l0.3,0.1l0.2-0.1
		l0.4-0.2c0,0,0,0,0,0.1l-0.4,0.2c0.2,0,0.3,0,0.5,0h0.1h0.6h0.6h0.3v0.1l0.7,0.1v-0.2l-0.7-0.1v-0.1c0,0,0-0.1-0.1-0.2l0.5,0.1
		c0.2-0.1,0.3-0.3,0.4-0.3c0.3-0.1,0.6-0.7,1-0.4c0.1,0.1,0.1,0.1,0.2,0.2c-0.3,0-0.5,0.4-0.9,0.4c-0.2,0-0.3,0.2-0.4,0.3l0.1,0.2
		l1,0.1l0.2-0.1v-0.1l0.6,0.1l0.4-0.1l0.2-0.2c0.3-0.3,0.9-0.4,1-0.8c-0.1-0.4-0.1-0.8,0-1.2v-0.1c0,0.1,0.1,0.1,0.1,0.2v0.1
		c-0.1,0.4-0.1,0.8,0,1.2c0,0,0,0,0.1,0c-0.2,0.4-0.7,0.5-1,0.8l1,0.1c0,0,0-0.1,0-0.2c0,0,0,0,0,0.1c0.5,0,0.9,0,1.4,0.1
		c0.7,0.1,1.2-0.4,1.7-0.4v0.1l0,0c-0.6,0.1-1,0.5-1.7,0.4c-0.5-0.1-0.9-0.1-1.4-0.1h-1l-0.2,0.2l0.4,0.1h0.4c1.6,0.1,3.2,0,4.8-0.1
		h0.3l1.2,0.1h0.3h0.1c0.1,0,0.1,0,0.1,0c0.3,0.1,0.7,0.1,1,0.1h0.4l0.1,0.1c0.3,0.2,0.6,0,0.9,0l0,0c0.2,0.1,0.5,0.1,0.7,0.1
		c-0.1-0.1-0.3-0.2-0.4-0.2c0.1,0,0.2,0,0.3,0c0.3,0.1,0.6,0,0.7-0.3s0.4-0.4,0.8-0.5c0.2,0,0.4,0,0.5,0.2c0.4,0.3,0.8,0.1,1.2,0V34
		c-0.3-0.3-0.8-0.2-1.2-0.2c-0.4,0-0.8,0-1.1-0.3l-0.9-0.1c-0.2,0.1-0.3,0.1-0.5,0c-0.4,0-0.6-0.5-1-0.4c-0.7,0.3-1.4,0.1-1.9-0.4
		l-0.3-0.1l-0.3-0.1h-0.3v0.2h-0.4c-0.1,0-0.1,0.2-0.2,0.2c-0.6,0-1.3-0.3-1.7-0.7c0.4,0.4,1,0.6,1.6,0.6c0.1,0,0.2-0.1,0.2-0.2
		c-0.4-0.3-1-0.3-1.3-0.7l-0.9-0.1l0.1,0.1l-0.5-0.2c-0.1,0.1,0,0.2-0.2,0.4c-0.2,0.1-0.3,0.4-0.6,0.4c-0.1,0-0.2-0.1-0.2-0.2
		l0.1,0.1c0.3,0.1,0.5-0.3,0.6-0.4s0.2-0.3,0.2-0.4c-0.2-0.1-0.5-0.1-0.7,0l-0.4,0.2v0.1l-0.6-0.1l-0.2-0.2c-0.2,0-0.3,0.1-0.4,0.2
		c0,0.1,0,0.2,0.1,0.3c-0.2-0.1-0.3-0.4-0.2-0.6c-0.2,0-0.4-0.1-0.4-0.3c0-0.2-0.2-0.2-0.4-0.2c-0.2,0.3-0.4,0.1-0.6,0.2
		c-0.1-0.1-0.3-0.1-0.4,0c-0.1,0-0.1-0.1-0.2-0.2l0.2-0.3l-1.5-0.2l-0.2,0.4c0.1,0.1,0.3,0.1,0.5,0.2c-0.4,0-0.7,0.1-1.1-0.2
		l-1.2,0.1c-0.1,0-0.1-0.1-0.2-0.1h-0.3l0,0h-0.1h-0.8l-0.1-0.1h-0.3c0,0.1,0.1,0.3-0.1,0.3c-0.1,0-0.2-0.1-0.2-0.1h0.1
		c0.1,0,0.1-0.1,0.2-0.2l-0.4-0.1l0,0l0,0h-0.9h-0.1L80,30.2c-0.4-0.1-0.8-0.1-1.3-0.1l0,0h-0.3c-0.3,0.3-0.8,0.3-1.2,0
		c0.3,0.1,0.7,0.1,1-0.1l-0.3-0.1h-1.1l0,0L76.7,30l-0.1,0.2c0,0.2,0,0.4,0,0.6c0.1,0.8-0.3,1.1-1.2,0.8l0.1,0.3c0,0,0,0-0.1,0
		c0.2,0.6,0.2,1.1,0.2,1.7l0,0c0-0.6-0.1-1.1-0.2-1.6l-0.1-0.5c0.9,0.2,1.3,0,1.2-0.7c0-0.2,0-0.4,0-0.6c-0.1,0-0.3-0.1-0.4-0.1
		c0.1,0,0.2,0,0.3,0v-0.2l-0.2-0.1h-0.3v0.1c0,0,0,0.1,0.1,0.1h-0.7c0,0.1,0,0.3-0.2,0.3c0,0.1,0,0.2,0,0.3c0-0.1,0-0.2,0-0.3v-0.1
		c0.1,0,0.1-0.1,0.1-0.3h-0.1V30h-0.3c0,0.8-0.8,0.8-1.3,1.1c0-0.1,0-0.1-0.1-0.2h-0.1c0.6-0.3,1.4-0.3,1.4-1.1l-0.3-0.1l-0.5,0.1
		c0,0.1,0,0.1,0,0.1v-0.1l-0.3-0.2l0,0v-0.1h-0.1v-0.3h-0.2C73.1,29,72.8,29,72.6,29h-0.4c-0.3,0-0.6,0-0.4,0.4l0,0h-0.1
		c-0.2,0-0.4,0.1-0.6,0.1H71l0,0c-0.1,0-0.2,0-0.3,0l0,0C70,28.9,69,28.6,68,28.6l0,0c-0.2-0.1-0.3-0.1-0.5-0.2l-0.4-0.1l-0.5,0.1
		c-0.1,0-0.3,0-0.4,0.1c-0.3-0.1-0.5-0.2-0.8-0.4h-0.3c-0.3,0.2-0.7,0.3-1.1,0.2c-2.2-0.6-4.5-0.5-6.8-0.9c-0.4,0-0.6,0.1-1,0
		c0.9-0.1,1.7-0.2,2.6-0.1c1.2,0.2,2.4,0.1,3.5-0.2c0-0.6-0.2-1-0.6-1.2c0,0,0.1,0,0.2,0.1c0.1,0,0.1,0,0.2,0c0.2,0.2,0.3,0.5,0.3,1
		c0.3,0.1,0.6,0.2,1,0.1L63.3,27l1-0.3l-0.4-0.2H64l0.3,0.1c0.1,0.1,0.3,0.2,0.4,0.3c-0.1-0.1-0.2-0.1-0.3-0.2l-1,0.3v0.1v0.1
		l0.2,0.2l0.4,0.1c0.4-0.1,0.8,0.1,1.1-0.2c-0.1-0.1-0.2-0.2-0.3-0.3c0.1,0.1,0.2,0.1,0.3,0.2h0.1v-0.6c0-0.2,0.1-0.4,0.2-0.6v0.1
		c-0.1,0.2-0.1,0.4-0.1,0.6c0.1,0,0.1,0.1,0.2,0.2c0-0.1-0.1-0.1-0.2-0.2v0.6h0.3c0-0.1,0-0.2-0.1-0.3c0,0.1,0.1,0.2,0.1,0.3
		l0.3,0.2c0.8-0.1,1.6-0.1,2.4,0.1c0.3-0.1,0.6,0,0.7,0.2c0.3-0.5,0.7-0.7,1.5-0.3c0.9,0.2,1.8-0.6,2.6,0h0.7c0.3-0.3,0.7-0.1,1-0.2
		c0,0,0,0,0-0.1H75c0-0.3,0-0.6-0.1-0.9H75c0.1,0.3,0.1,0.6,0.1,0.9l0.5,0.1l0,0l0,0l1.5,0.1c0.2,0.1,0.5,0,0.7-0.1
		c0.7,0.1,1.5,0.2,2.2,0.1h0.8c0.6,0,0.2,0.3,0.2,0.5l0.9,0.1l0.3-0.1c0-0.1,0-0.1,0-0.2s0-0.2,0-0.4C82.4,27,82.7,27,83,27
		c0-0.5,0.4-0.6,0.7-0.8l0,0h0.4c-0.2,0.5-1.1,0.4-1.1,1.2c-0.3,0-0.6,0-0.8,0.3c0.7,0.2,1.4,0,2.1,0.3H85l0.6,0.2l0.6-0.1h0.3
		l1.1,0.1h1l0.1,0.2l3.2,0.5v-0.1l0.4-0.1v0.1c0.6,0.4,1.4-0.1,2,0.3c0.4-0.4,0.8-0.3,1.2-0.2c-0.4,0-0.8-0.2-1.2,0.2
		c0.4,0.1,0.7,0.1,1.1,0.2c0.9,0.1,2-0.2,2.8,0.5c0.9,0.3,1.9-0.1,2.8,0.3c0.1-0.5,0.2-0.8,0.9-0.7l0.5-0.1c0,0,0,0,0.1,0h0.1
		c0.2,0,0.5,0.2,0.6-0.2c0.1,0,0.1,0,0.2,0c0.2-0.3,0.4-0.6,0.8-0.5c0.4-0.1,0.9-0.1,1.3,0c0.3-0.3,0.7-0.1,1.1-0.2v-0.1h0.9
		l0.1-0.1h0.2c0,0,0,0.1,0.1,0.1l1.2,0.1l0.3-0.5v-0.3l-0.2-0.1l-0.9-0.1c-0.6,0-1.3-0.4-2,0v0.1h-0.2c-0.2,0-0.6,0.4-0.8,0.2
		c0.2,0,0.5-0.2,0.7-0.2c-0.3-0.3-0.5-0.3-0.8-0.3l0,0h-0.9c-0.1,0.3-0.2,0.4-0.3,0.3c0.1-0.1,0.1-0.2,0.2-0.4l-0.4-0.1l-0.2,0.3
		l-1.4-0.2c-0.7,0.1-1.5,0-2.2-0.3c-0.5,0.2-1,0-1.5,0h-0.6h-1.1c0,0.3,0.3,0.7,0.3,1c0-0.3-0.3-0.7-0.3-1l-0.5-0.2
		c0,0.2,0,0.3,0,0.6c0,0.3-0.1,0.5-0.4,0.6l0,0c0.2-0.1,0.2-0.3,0.2-0.5s0-0.4,0-0.6s0.2-0.4,0.4-0.4L96.4,26h-0.8v-0.1h-0.7
		c0.1,0.2,0.3,0.6,0.5,0.5c0,0,0,0,0.1-0.1c0,0.1,0,0.2-0.2,0.2c-0.3,0-0.5-0.2-0.6-0.5l-0.5-0.3c-0.1,0-0.1,0.1-0.2,0.2
		c0-0.1,0.1-0.2,0.2-0.3l0.2-0.2c-0.7-0.8-0.3-1.7,0-2.6h-0.3l-0.3-0.1l-0.1,0.2c0,0.1,0.1,0.2,0.2,0.3c0,0,0,0-0.1,0
		c-0.2,0.1-0.2-0.2-0.2-0.3l-1.3-0.1c0,0,0,0,0,0.1l-0.9-0.2c-0.9-0.4-2,0.3-2.9-0.4c-0.1,0.1-0.1,0.3-0.1,0.4
		c-0.1-0.2,0-0.4,0.1-0.6h0.1v-0.4c-0.3-0.2-0.6-0.2-0.9-0.2c-0.2-0.2-0.1-0.4-0.1-0.5c0,0.1,0.1,0.1,0.2,0.2c0.3,0,0.6,0,0.9,0.2
		c0.5,0.1,0.9-0.1,1.3-0.3c0.5-0.2,1.1-0.3,1.6-0.1c1,0.1,1.9,0.1,2.9,0.1c0,0.1-0.1,0.1-0.1,0.2c0.4,0,0.8,0.2,1.2,0.4l1.7-0.2
		c0-0.2-0.1-0.7-0.3-0.6c-0.6,0.5-1.1-0.1-1.6-0.2c-0.2,0-0.4,0-0.6,0.1c0.2-0.3,0.5-0.5,0.9-0.4c0.5,0.1,0.9,0.7,1.6,0.2
		c0.1-0.2,0.3,0.3,0.3,0.6h0.2c0,0.1,0,0.2,0,0.3c0.6,0.3,1.2,0.7,1.9,0.4l0.2-0.7c-0.4-0.1-0.8,0.1-1.1-0.2
		c-0.3-0.3-0.6-0.4-0.8-0.3c0.1-0.4,0.4-0.5,1,0c0.3,0.2,0.7,0.1,1.1,0.2h0.4v0.3l1.7,0.1c0-1.1-0.1-1.1-1.2-0.9l-0.1,0.1v-0.3
		l-0.1-0.1c0.1-0.1,0.3-0.3,0.4-0.4c0.2-0.3,0.3-0.5,0-0.8c-0.1-0.1-0.3-0.1-0.4-0.1c0.1-0.3,0.4-0.4,0.7-0.2c0.3,0.2,0.2,0.5,0,0.8
		s-0.5,0.4-0.6,0.8c0.1-0.1,0.3-0.1,0.4-0.1c1-0.3,1.1-0.2,1.1,0.9l0.2,0.1h0.1L103,21c0,0.1,0,0.1,0,0.2c0.2,0.1,0.6,0.1,0.8,0.4
		c0.4-0.2,0.9-0.1,1.4-0.2c-0.2-0.6-0.9-0.4-1.3-0.7c-0.3-0.2-0.5-0.2-0.7-0.2c0.1-0.5,0.4-0.5,0.9-0.1c0.4,0.3,1.1,0.1,1.3,0.7
		l0.4,0.1c0,0.2-0.1,0.4-0.1,0.5v0.1l2.8,0.1c0.2-0.2,0.5-0.4,0.8-0.3c1.1-0.2,2.1-0.6,3.2-0.2l0.4,0.1c1.2-0.4,2.4-0.6,3.7-0.4
		c0.3-0.2,0.5-0.2,0.8-0.2h0.7c0,0,0-0.1,0.1-0.1l0,0c0.1,0,0.2,0,0.3,0c0.1,0,0.1,0.1,0.2,0.1c0.2,0,0.5,0,0.7,0.1h0.4h0.2l0.6-0.2
		c0-0.2-0.1-0.4-0.1-0.6c0,0.2,0.1,0.3,0.1,0.5l0.7,0.1l0.4,0.1h1.1h0.7h0.1C123.7,20.4,123.5,20.3,123.2,20.1z M105.1,7.3
		c0-0.3,0.2-0.6,0.4-0.7c-0.1,0.1-0.1,0.2-0.1,0.4c-0.2,0.6-0.2,1.2-0.1,1.8c0.1,0.2,0.2,0.3,0,0.4c-0.2,0.1-0.2,0-0.3,0
		c0,0,0,0,0-0.1C104.9,8.5,104.9,7.9,105.1,7.3z M100,9.5c0-0.1,0-0.2-0.1-0.3c0.7,0.4,1.1,0.9,1.8,0.8c0,0.1,0.1,0.1,0.1,0.2
		C101,10.5,100.6,9.9,100,9.5z M102.4,9.7L102.4,9.7c-0.1-0.2-0.3-0.3-0.6-0.1c0,0,0,0-0.1,0.1c0-0.1-0.1-0.3,0.1-0.4
		c0.3-0.2,0.5,0,0.6,0.2l0.2,0.2v0.2L102.4,9.7z M103,9.5c-0.1,0.2-0.1,0.3-0.3,0.4l0,0C102.8,9.8,102.9,9.7,103,9.5L103,9.5z
		 M99.5,6.3c0.1,0,0.1,0,0.2,0c0.1,0.3,0.1,0.5,0,0.7c0-0.2,0-0.4-0.1-0.5c-0.1,0,0-0.1-0.2,0c-0.1,0.1-0.2,0.6-0.5,0.3
		c-0.1-0.1-0.1-0.2-0.1-0.2l0.1,0.1C99.3,7,99.4,6.3,99.5,6.3z M96.5,7c0,0.5,0,0.9,0.7,0.5c0.1-0.1,0.3,0,0.5,0.1
		c0.4,0.2,0.8,0.3,1.3,0.3l0.1-0.4c0,0,0.1,0,0.1,0.1h0.4c0-0.2,0.1-0.3,0.1-0.5c0,0.1,0,0.2,0,0.3v0.1c0.7,0.1,1.5,0.1,2.3,0.2
		c0.1,0,0.6-0.1,0.4,0.4V8l-0.1,0.1c0,0.1,0,0.1,0,0.2l-0.6,0.1c0-0.1,0-0.1-0.1-0.2h-0.1h-0.3h-0.3v0.1c-0.5-0.3-1-0.4-1.5-0.3
		c0.2,0.3,0.2,0.5,0,0.7l0,0c0,0,0,0.1-0.1,0.1s-0.1,0.1-0.1,0.1l0,0c0-0.2,0.1-0.3,0.2-0.3c0.1-0.2,0.1-0.5,0-0.7l-0.4,0
		c-0.5,0-1-0.1-1.3-0.2c-0.1-0.1-0.3-0.2-0.5-0.1C96.3,8,96.5,7.5,96.5,7z M94.4,34.4c0.2,0,0.4,0,0.6,0.1l0,0
		C94.8,34.4,94.6,34.4,94.4,34.4z M94.6,33.8c0,0.1-0.1,0.2-0.2,0.2C94.5,33.9,94.5,33.9,94.6,33.8z M96.8,34.9L96.8,34.9L96.8,34.9
		c-0.1-0.6-0.3-0.9-0.7-1C96.5,34,96.7,34.4,96.8,34.9z M94.2,34.5L94.2,34.5C94.2,34.5,94.2,34.5,94.2,34.5z M92.6,33.2
		c0.5,0.1,1.1,0.1,0.7,0.8c-0.2,0.4,0.5,0.3,0.6,0.6c0,0,0.1,0,0.1-0.1c-0.1,0-0.2,0.1-0.2,0.2c-0.1-0.2-0.8-0.2-0.6-0.6
		C93.5,33.4,93,33.4,92.6,33.2c-0.1,0.1-0.2,0.1-0.2,0.2C92.4,33.3,92.5,33.2,92.6,33.2z M91.6,33.4c0.1,0,0.2-0.1,0.2-0.3
		C91.8,33.3,91.8,33.3,91.6,33.4z M91.7,32.7c-0.2,0.3-0.4,0.4-0.3,0.7C91.2,33.1,91.5,33,91.7,32.7z M83.8,34.1
		c0-0.2,0-0.3,0.1-0.5c0.2,0,0.2,0.1,0.3,0.2l0,0C84,33.9,83.9,34,83.8,34.1z M81.1,33.2c0,0.1,0,0.1,0,0.2
		C81.1,33.3,81.1,33.2,81.1,33.2z M82.7,33.5C82.7,33.6,82.7,33.6,82.7,33.5C82.7,33.6,82.7,33.6,82.7,33.5z M79.9,34
		c0.1-0.1,0.2-0.2,0.2-0.4C80.1,33.8,80.1,33.9,79.9,34L79.9,34z M80.1,33.4c0-0.1-0.1-0.2-0.2-0.2c0,0,0,0,0.1,0
		S80.1,33.3,80.1,33.4z M80,30.5c-0.2-0.1-0.5-0.1-0.8-0.2C79.5,30.4,79.7,30.4,80,30.5z M76.8,33.6c-0.1-0.3-0.3-0.6-0.1-0.8l0,0
		c0.2-0.1,0.3-0.1,0.4,0C76.7,33,76.7,33.3,76.8,33.6z M76,32.5c0,0.1,0,0.2,0,0.3c-0.1-0.1-0.1-0.2-0.1-0.5l0,0
		C76,32.3,76,32.4,76,32.5z M71.5,30c-0.1,0.4,0.6,0.7,0,1.1c-0.4,0.2-0.5,0.4-0.6,0.7L70.6,32c0.1-0.4,0.1-0.7,0.6-0.9
		c0.5-0.4-0.1-0.7-0.1-1.1H71.5z M70.3,33.4C70.3,33.4,70.2,33.4,70.3,33.4c0-0.2,0-0.6,0.3-0.4C70.5,33.1,70.5,33.4,70.3,33.4z
		 M71.9,32.6v-0.2c-0.2-0.2-0.3-0.5-0.6-0.6l0.1-0.1c0.5,0.1,0.5,0.5,0.8,0.7v0.2C72.1,32.6,72,32.6,71.9,32.6z M72.3,32.1
		c0.1-0.2,0.1-0.4,0.2-0.6C72.4,31.7,72.3,31.9,72.3,32.1z M73.6,29.6c0,0.1,0,0.2,0.1,0.3C73.5,29.9,73.6,29.7,73.6,29.6z
		 M73.2,30.9L73.2,30.9L73.2,30.9L73.2,30.9z M98.2,16.5L98.2,16.5c0.3,0.4,0.8,0.4,1.1,0.1C98.8,17,98.5,16.9,98.2,16.5z M89,24.1
		v0.1c0-0.2,0-0.4,0-0.5v-0.1C89.1,23.7,89.1,23.9,89,24.1z M82.5,26.2L82.5,26.2L82.5,26.2z M15.7,30.1c0-0.5,0.1-0.9-0.8-1.1
		c0.1,0.4,0.3,0.8,0.5,1.1h-0.1c-0.2-0.3-0.3-0.7-0.4-1.2C15.8,29.1,15.8,29.6,15.7,30.1L15.7,30.1z M10.1,12.7c0,0.1,0,0.1,0,0.2
		C10.1,12.9,10.1,12.8,10.1,12.7z M16.8,9.3l0.1,0.1C17,9.5,17,9.5,17,9.6c-0.1,0-0.1-0.1-0.2-0.1C16.8,9.4,16.8,9.4,16.8,9.3
		c-0.1,0-0.1,0-0.2-0.1l0,0C16.8,9.2,16.8,9.3,16.8,9.3z M24.6,7c0.5,0,1.1,0,1.6,0.1c0,0.1,0,0.3-0.1,0.5l0,0l0,0c0,0,0,0,0,0.1
		c0,0,0,0,0,0.1c0,0-0.1,0-0.1-0.1h-0.3c-0.1,0-0.1,0.1-0.2,0.1h-0.1c0.1,0,0.2-0.1,0.3-0.2C25.3,7.5,24.8,7.5,24.6,7z M19.3,6.8
		c-0.1,0-0.2,0-0.4,0l0,0C19.1,6.7,19.2,6.7,19.3,6.8z M21.9,6.9c-0.3-0.2-0.6-0.5-1-0.6c0.1,0,0.2,0,0.2,0c0.2,0.2,0.4,0.4,0.6,0.5
		c0.6,0.2,1,0.1,1.4,0.2c-0.1,0-0.2,0-0.3,0C22.5,7,22.2,7,21.9,6.9z M74.9,4.3L74.9,4.3C74.9,4.2,74.9,4.2,74.9,4.3
		C74.9,4.2,74.9,4.2,74.9,4.3z M87,6.1c0.2,0.1,0.3,0.1,0.4,0C87.3,6.2,87.2,6.4,87,6.1C87,6.2,87,6.1,87,6.1z M86.6,7.5
		c0,0.2,0.2,0.4,0.5,0.5c0.3,0.1,0.4-0.1,0.4-0.3c0,0.2,0.1,0.7-0.4,0.5c-0.1,0-0.1,0-0.1,0C86.7,8.1,86.6,7.8,86.6,7.5z M99.9,16.9
		L99.9,16.9L99.9,16.9L99.9,16.9L99.9,16.9z M100.2,17.8L100.2,17.8C100.2,17.8,100.2,17.8,100.2,17.8z M93.2,12.9
		c0.2,0,0.3-0.1,0.4-0.2c0,0.1-0.1,0.1-0.1,0.2C93.4,12.9,93.3,12.9,93.2,12.9z M99,13.2l-0.1,0.1c0,0,0,0-0.1,0.1
		c0-0.2,0-0.4,0-0.5c0.1,0,0.1-0.1,0.2-0.1C99,12.9,99,13,99,13.2z M97.3,12.9c0.3,0.2,0.4,0.7,0.8,0.4l0,0L98,13.4
		c-0.2,0-0.4-0.1-0.7-0.2c0-0.1-0.1-0.1-0.1-0.1L97.3,12.9c-0.5-0.2-0.9-0.4-1.4-0.5c0.1,0,0.2,0,0.3,0C96.6,12.6,97,12.7,97.3,12.9
		z M92.1,12.5c0,0.1,0.1,0.2,0.1,0.3c-0.1,0-0.2,0-0.3,0l0,0c0-0.1,0-0.1-0.1-0.2C91.9,12.5,92,12.5,92.1,12.5L92.1,12.5z
		 M44.2,32.3c0-0.2-0.2-0.2-0.3-0.2V32c0.2,0,0.3,0.1,0.4,0.2L44.2,32.3z M9.5,22.4c-0.1-0.3,0.4-0.6-0.1-0.8
		c-0.2,0.1-0.3,0.3-0.4,0.3c0.2,0,0.3-0.2,0.3-0.3c0,0-0.1,0-0.1-0.1c0.1,0,0.2,0,0.3,0.1C10,21.8,9.5,22.1,9.5,22.4
		C9.6,22.4,9.5,22.4,9.5,22.4z M53.7,5.2L53.7,5.2h0.2C53.9,5.2,53.8,5.3,53.7,5.2c-0.1,0.3-0.2,0.5-0.3,0.7h-0.2
		C53.4,5.7,53.5,5.4,53.7,5.2z M42.7,31.5C42.7,31.4,42.7,31.4,42.7,31.5c0.1-0.1,0.2,0,0.4,0.1v0.1C43,31.6,42.8,31.5,42.7,31.5z
		 M34.5,31.4v-0.1C34.6,31.3,34.6,31.4,34.5,31.4L34.5,31.4z M59,5.4L59,5.4c-0.1,0.3-0.2,0.6-0.5,0.7C58.8,5.9,58.9,5.7,59,5.4z
		 M59.6,5.6L59.6,5.6c0,0.3,0.1,0.5,0.1,0.8l0,0C59.7,6.1,59.6,5.9,59.6,5.6z M19.4,12.1L19.4,12.1c0,0.1,0,0.3,0,0.4
		c0-0.1-0.1-0.1-0.2-0.2c0.1,0.1,0.1,0.1,0.2,0.2C19.4,12.4,19.4,12.2,19.4,12.1z M36.1,6.9C36.1,7,36.2,7,36.3,7
		C36.2,7,36.2,7,36.1,6.9C36.1,7,36,6.9,36.1,6.9C36,6.9,36,6.9,36.1,6.9C36,6.9,36,6.9,36.1,6.9L36.1,6.9C36,6.9,36,6.9,36.1,6.9z
		 M60.1,9L60.1,9c0,0,0.1,0.1,0.1,0.2h-0.1C60.1,9.1,60.1,9.1,60.1,9L60.1,9z M62.6,10.3L62.6,10.3L62.6,10.3L62.6,10.3z M62.3,8.3
		C62.3,8.3,62.3,8.4,62.3,8.3C62.3,8.4,62.3,8.4,62.3,8.3L62.3,8.3L62.3,8.3z M76.6,11.4L76.6,11.4L76.6,11.4L76.6,11.4z M79.3,11
		L79.3,11C79.3,10.9,79.3,10.9,79.3,11C79.3,10.9,79.3,10.9,79.3,11C79.3,10.9,79.3,10.9,79.3,11z M79.6,10.9L79.6,10.9L79.6,10.9
		L79.6,10.9L79.6,10.9z M76.4,10.4l-0.2-0.1l0,0c-0.2-0.1-0.5-0.2-0.7-0.4h0.1C75.8,10.1,76.1,10.2,76.4,10.4L76.4,10.4z M75.3,9.9
		c0.1,0.1,0.1,0.2,0.2,0.4l0,0C75.4,10.2,75.4,10,75.3,9.9L75.3,9.9z M37.2,25.5c0.1-0.1,0.1-0.3,0-0.5c0.1,0,0.1-0.1,0.2-0.1l0,0
		C37.4,25.1,37.4,25.3,37.2,25.5z M32,27.1L32,27.1V27C32,27,32.1,27,32,27.1C32.1,27.1,32.1,27.1,32,27.1L32,27.1z M13.3,12.3h0.2
		l0,0l0.1,0.1h-0.1h-0.2C13.3,12.4,13.3,12.3,13.3,12.3z M18.2,12.8C18.2,12.8,18.3,12.8,18.2,12.8C18.3,12.8,18.2,12.8,18.2,12.8z
		 M18.2,12.8L18.2,12.8L18.2,12.8L18.2,12.8z M36.3,9.8C36.4,9.9,36.4,9.9,36.3,9.8C36.4,9.9,36.4,9.9,36.3,9.8L36.3,9.8z
		 M33.8,10.8L33.8,10.8L33.8,10.8L33.8,10.8z M33.5,13.2v0.1c0.1,0.1,0.1,0.1,0.2,0.1l0,0c-0.1,0.1-0.1,0-0.2,0l0,0c0,0,0,0,0-0.1
		S33.5,13.2,33.5,13.2L33.5,13.2z M35.3,10.7C35.3,10.7,35.3,10.6,35.3,10.7C35.3,10.6,35.3,10.7,35.3,10.7L35.3,10.7z M34.3,10
		c-0.1,0-0.1-0.1-0.2-0.1c0.1,0,0.1,0,0.2,0C34.3,9.9,34.3,9.9,34.3,10z M34.5,9.5c-0.1,0-0.1,0-0.2,0C34.3,9.5,34.4,9.4,34.5,9.5
		C34.4,9.4,34.4,9.5,34.5,9.5z M36.7,9.5L36.7,9.5c0-0.1,0-0.1,0-0.1C36.8,9.4,36.8,9.4,36.7,9.5C36.8,9.5,36.8,9.5,36.7,9.5z
		 M32.1,25.6c0-0.1,0.1-0.1,0.2-0.2c0,0.1,0,0.2,0,0.2C32.2,25.7,32.1,25.7,32.1,25.6L32.1,25.6z M33.9,27L33.9,27l-0.2,0.2v-0.1
		c0.1-0.1,0.1-0.2,0.2-0.2l0,0C34,27,34,27,33.9,27z M33.8,26c-0.4,0-0.7-0.3-0.8-0.6h0.1c0.1,0.3,0.4,0.6,0.9,0.4
		c0.1,0,0.2,0,0.3,0L34.1,26C34,26,33.9,26,33.8,26z M33.8,25.5c0.4,0,0.4-0.3,0.4-0.6c0,0,0,0,0.1,0C34.3,25.3,34.3,25.5,33.8,25.5
		z M39.1,10.2L39.1,10.2c0.1-0.1,0.1,0,0.2,0c0,0,0,0,0,0.1C39.2,10.2,39.2,10.2,39.1,10.2z M41.7,7.7L41.7,7.7L41.7,7.7L41.7,7.7z
		 M39.7,9L39.7,9L39.7,9L39.7,9z M13.4,12.6L13.4,12.6L13.4,12.6L13.4,12.6z M10.4,17.2c0,0.2,0.2,0.2,0.3,0.3c0,0,0,0-0.1,0
		C10.5,17.4,10.4,17.3,10.4,17.2z M10.1,18.5L10.1,18.5c0.1,0,0.1,0,0.2,0l0,0H10.1L10.1,18.5L10.1,18.5z M34.7,26.1
		c0-0.1-0.1-0.2-0.3-0.2l-0.1-0.1c0.3,0,0.5-0.1,0.6,0.2c0,0.1,0,0.2,0,0.2C34.8,26.2,34.7,26.2,34.7,26.1z M36.7,26.2
		c0.1-0.1,0.1-0.2,0.2-0.2c0,0.1-0.1,0.1-0.1,0.2C36.8,26.2,36.7,26.2,36.7,26.2z M51.5,8.5L51.5,8.5C51.5,8.4,51.5,8.4,51.5,8.5
		C51.5,8.4,51.5,8.4,51.5,8.5C51.5,8.4,51.5,8.4,51.5,8.5C51.5,8.4,51.5,8.4,51.5,8.5z M48.7,8.2l-0.1-0.1l0,0
		C48.6,8.1,48.7,8.2,48.7,8.2z M14.8,13.2L14.8,13.2L14.8,13.2c-0.1-0.1-0.1-0.2-0.1-0.4c0,0,0,0,0.1,0C14.8,12.9,14.8,13,14.8,13.2
		z M13.2,11.5c0,0.2,0.1,0.5,0.2,0.7L13.3,12c-0.1,0-0.2,0-0.3,0.1c-0.1-0.2-0.1-0.3-0.1-0.5C13,11.5,13.1,11.5,13.2,11.5z
		 M12.5,20.7c0-0.2,0.1-0.4,0.4-0.4c0.1,0,0.2,0,0.3,0c-0.2,0-0.3,0.2-0.3,0.4c0,0.4,0,1-0.7,0.9c0,0,0,0-0.1,0
		C12.5,21.5,12.5,21.1,12.5,20.7z M28.1,26.6c0,0.1,0.1,0.1,0.2,0.1l0,0C28.2,26.7,28.1,26.6,28.1,26.6L28.1,26.6z M31.8,29.1
		C31.9,29,31.9,29,31.8,29.1C31.9,29,31.9,29,31.8,29.1C31.9,29.1,31.9,29.1,31.8,29.1z M42.5,26.1L42.5,26.1
		c-0.1-0.1-0.2-0.2-0.3-0.5h0.1c0.2,0.5,0.5,0.3,0.9-0.1l0,0l0,0C43,26,42.7,26.2,42.5,26.1z M84.4,10.3L84.4,10.3
		c0-0.1,0.2-0.1,0.4,0C84.7,10.3,84.5,10.3,84.4,10.3z M73.9,7.3c-0.1,0-0.1,0-0.2,0c0-0.3,0-0.5-0.2-0.7C73.7,6.8,73.9,7,73.9,7.3z
		 M73.8,8.6L73.8,8.6c0,0.1-0.1,0.1-0.1,0.2C73.7,8.8,73.7,8.8,73.8,8.6C73.7,8.7,73.8,8.6,73.8,8.6z M73.2,8.8
		C73.1,8.8,73.1,8.8,73.2,8.8C73.1,8.8,73.1,8.8,73.2,8.8C73.1,8.8,73.1,8.8,73.2,8.8z M61.8,5.7C61.4,6,61,6.1,60.6,6.4l0,0
		C60.9,6.1,61.4,5.9,61.8,5.7L61.8,5.7z M45.1,7.7c0,0,0.1,0.1,0.2,0.1c0.2,0,0.3,0.2,0.4,0.3h-0.1c-0.1,0-0.2,0-0.3,0
		C45.1,8,45,8,44.9,7.8l0,0C45,7.7,45,7.7,45.1,7.7z M38,7.6L38,7.6c0,0,0-0.1,0-0.2l0,0C38,7.4,38,7.4,38,7.6L38,7.6z M15.6,11.7
		v-0.1C15.6,11.6,15.6,11.6,15.6,11.7L15.6,11.7c0.1,0.2,0.2,0.2,0.2,0.3v0.1c0,0.1-0.1,0.1-0.2,0.2l0,0l-0.3,0.1v-0.1
		c0-0.2-0.1-0.4-0.2-0.6C15.3,11.7,15.4,11.7,15.6,11.7z M11.4,21.3L11.4,21.3L11.4,21.3L11.4,21.3z M11.2,21.6
		c-0.1,0-0.1,0-0.2-0.1c0,0-0.1,0-0.2,0c0.1,0,0.2,0,0.3,0l0,0C11.1,21.6,11.1,21.6,11.2,21.6z M11.4,22.5c0.2-0.1,0.3-0.2,0.5-0.2
		c-0.1,0-0.2,0.1-0.3,0.2c-0.2,0.1-0.4,0.1-0.5,0.1C11.2,22.6,11.3,22.5,11.4,22.5z M11.4,21.6C11.4,21.5,11.4,21.5,11.4,21.6
		c0-0.1,0.1-0.1,0.1-0.2c0,0,0,0.1,0.1,0.1v0.1c0.1,0.2,0.4,0.3,0.6,0.4v0.1C11.8,21.9,11.5,21.8,11.4,21.6z M18.7,29.7h-0.1h-0.1
		C18.6,29.7,18.7,29.6,18.7,29.7C18.7,29.6,18.7,29.6,18.7,29.7z M34.5,28.5c0-0.1,0-0.1,0-0.2C34.5,28.3,34.5,28.4,34.5,28.5
		L34.5,28.5L34.5,28.5z M43.3,26.4c-0.1-0.1-0.1-0.2-0.1-0.3C43.3,26.3,43.3,26.3,43.3,26.4C43.4,26.4,43.4,26.4,43.3,26.4z
		 M44,25.7L44,25.7L44,25.7L44,25.7z M68,23.3c0.1-0.1,0.2-0.2,0.2-0.2v0.1c-0.1,0.1-0.2,0.2-0.2,0.4C68,23.5,68,23.4,68,23.3z
		 M84.9,8.5c-0.1-0.2,0.1-0.2,0.3-0.2C85.1,8.3,84.8,8.3,84.9,8.5z M85.5,7.7L85.5,7.7c0.1,0,0.2,0,0.2-0.2
		c-0.1-0.2-0.2-0.4-0.4-0.4c0,0,0,0-0.1,0s-0.1,0.1-0.1,0.2c0,0,0,0.1,0.1,0.2c0,0-0.1-0.1-0.1-0.2c0-0.2,0-0.2,0.1-0.2
		c0,0,0.1,0,0.2,0c0.2,0.1,0.4,0.2,0.4,0.4S85.7,7.7,85.5,7.7z M84.9,6.3c-0.1,0.2-0.2,0.2-0.2,0.2S84.8,6.4,84.9,6.3
		c0-0.2-0.1-0.4,0.2-0.4l0,0C84.9,5.9,85,6.1,84.9,6.3z M84.4,8c0-0.1,0.1-0.1,0.1-0.2C84.5,7.8,84.5,7.9,84.4,8z M83.1,6.8
		c-0.2,0.1-0.3,0-0.3-0.2s0.1-0.4,0.3-0.4c0.1,0,0.1,0,0.1,0c-0.3,0-0.3,0.3-0.3,0.4C82.8,6.7,82.9,6.8,83.1,6.8z M76.5,9.4v0.1
		C76.4,9.5,76.4,9.5,76.5,9.4C76.4,9.4,76.4,9.4,76.5,9.4C76.4,9.4,76.4,9.4,76.5,9.4z M72.1,7.7C72,7.7,72,7.7,72.1,7.7
		C72,7.7,72,7.7,72.1,7.7C72,7.7,72.1,7.7,72.1,7.7L72.1,7.7z M59.5,4.9L59.5,4.9L59.5,4.9L59.5,4.9c-0.1,0-0.1,0.1-0.2,0.1l0,0
		C59.4,5,59.4,4.9,59.5,4.9z M59.3,5C59.2,5,59.2,5.1,59.3,5L59.3,5L59.3,5L59.3,5z M38,7.3L38,7.3L38,7.3L38,7.3L38,7.3z M33.8,5.5
		c-0.1,0-0.1,0-0.2-0.1V5.3c0,0,0,0,0.1,0C33.8,5.4,33.8,5.4,33.8,5.5z M11.4,20.6L11.4,20.6c-0.4,0.1-0.8,0.1-1.3,0.1l0,0
		C10.5,20.7,10.9,20.7,11.4,20.6z M18.7,29.1L18.7,29.1c0,0.1,0,0.1,0,0.2c0-0.1-0.1-0.1-0.1-0.2l-0.1,0.6l0,0c0-0.3,0-0.5,0.1-0.6
		H18.7z M86.5,12l0.1-0.1c0,0,0,0,0.1,0.1C86.6,12,86.6,12,86.5,12C86.6,12,86.6,12,86.5,12z M87.9,11c-0.5-0.3-1.1,0.1-1.5-0.4l0,0
		C86.8,10.9,87.4,10.6,87.9,11C87.9,10.9,87.9,10.9,87.9,11c0.1-0.1,0.2-0.1,0.3,0H87.9z M83.2,5.4L83.2,5.4
		C83.3,5.5,83.3,5.5,83.2,5.4l0.2,0.3c0.2,0.2,0.4,0.4,0.8,0.5v0.1c-0.4,0-0.6-0.3-0.9-0.5L83.2,5.4c0,0.1-0.1,0.1-0.2,0.1
		c-0.4,0.3-0.6,0.4-0.8,0.3c0.2,0,0.4-0.2,0.8-0.4C83,5.4,83.1,5.4,83.2,5.4z M73.1,5.5L73.1,5.5C73,5.5,73,5.5,73.1,5.5L73.1,5.5z
		 M72,5.4L72,5.4h0.5c0,0.1,0.1,0.1,0.1,0.2h0.1c0.1,0,0.2-0.1,0.3-0.1L73.1,6L73,6.1l0.2,0.4c-0.1,0-0.1-0.1-0.2-0.1l0.1,0.7l0,0
		L72.8,7c-0.1,0-0.1,0-0.2,0c-0.1-0.1-0.3-0.1-0.4,0l0,0c0.1-0.5,0.6-0.1,0.9,0L73,6.5V6.4V6.2h-0.8l-0.1,0.1
		c-0.3,0.2-0.7,0.2-0.9-0.1h-0.8c-0.1,0.1-0.1,0.1-0.2,0.1l0,0h-0.1c0.1,0,0.2-0.1,0.3-0.2L69.7,6c0.1,0.1,0.1,0.2,0.2,0.2h-0.1
		l-0.1-0.1h-0.5l0,0h-0.1L69.2,6h-0.5l0,0L67,5.6c0.8-0.5,1.5,0.3,2.2,0c0.4-0.1,0.7,0,1,0.2c0.3-0.6,0.8-0.3,1.2-0.3
		c0.2,0,0.3-0.1,0.5-0.2L72,5.4z M62.4,4.4L62.4,4.4C62.4,4.5,62.4,4.5,62.4,4.4L62.4,4.4L62.4,4.4z M56.6,5.2
		c-0.2,0.1-0.4,0.3-0.5,0.7L56,5.8C56.2,5.5,56.4,5.3,56.6,5.2L56.6,5.2z M53.9,5.1L53.9,5.1C53.9,5.1,53.9,5.2,53.9,5.1
		C53.9,5.1,53.8,5.1,53.9,5.1C53.8,5.1,53.8,5.1,53.9,5.1C53.8,5.1,53.9,5.1,53.9,5.1z M40.9,4.7c-0.2,0.4-0.4,0.7-0.7,0.9H40
		c0.3-0.2,0.4-0.5,0.7-1c0.3-0.4,0.5-0.5,0.8-0.4C41.3,4.3,41,4.4,40.9,4.7z M27.8,4.5L27.8,4.5L27.8,4.5L27.8,4.5z M23,8.2
		c-0.1,0-0.1,0.1-0.2,0.1c-0.1-0.2-0.3,0-0.5,0c0,0,0,0-0.1,0l0,0h-0.3C22.1,8.1,22.3,8,22.5,8c0.1-0.1,0.3-0.2,0.5,0
		C23,8.1,23.1,8.1,23,8.2C23.1,8.2,23,8.2,23,8.2z M11.7,10.6C11.7,10.6,11.7,10.7,11.7,10.6C11.7,10.7,11.7,10.7,11.7,10.6
		C11.7,10.7,11.7,10.7,11.7,10.6z M11.5,11.2c-0.1,0.8-0.2,1-0.8,0.8C11.3,12.1,11.4,11.9,11.5,11.2c0-0.1,0-0.2,0.1-0.4
		C11.5,11,11.5,11.1,11.5,11.2z M9.8,13.1c0.1,0,0.2,0,0.2,0C9.9,13.1,9.8,13.1,9.8,13.1z M10.5,23c0.2-0.8-0.4-0.6-0.9-0.6
		C10.1,22.3,10.8,22.1,10.5,23c0.1,0.1,0.2,0.2,0.4,0.2h-0.1C10.6,23.2,10.5,23.1,10.5,23z M13.5,28.5c0,0.1-0.1,0.1-0.2,0.1
		C13.3,28.6,13.3,28.5,13.5,28.5C13.4,28.6,13.5,28.6,13.5,28.5z M37.6,32.4C37.5,32.4,37.5,32.4,37.6,32.4L37.6,32.4z M37.6,32.3
		L37.6,32.3C37.6,32.3,37.6,32.2,37.6,32.3L37.6,32.3z M44.2,32.4C44.2,32.3,44.3,32.3,44.2,32.4C44.3,32.3,44.3,32.3,44.2,32.4
		C44.3,32.4,44.2,32.4,44.2,32.4L44.2,32.4z M46.4,26.7c0,0.1,0,0.2,0.1,0.4h-0.3v0.1l0,0c0,0,0-0.1,0.1-0.1h-0.6v0.2h-0.1v-0.2
		c-0.2,0-0.5,0-0.7,0.1c0-0.1,0.1-0.2,0.1-0.3l-0.3-0.1c-0.2,0.1-0.4,0-0.5-0.2c0.3,0,0.6,0,0.9,0c-0.1,0.3-0.1,0.5,0.5,0.1
		c0.3-0.1,0.6,0.1,0.8-0.1l-0.1-0.1C46.2,26.6,46.3,26.6,46.4,26.7C46.3,26.6,46.4,26.7,46.4,26.7L46.4,26.7c0.2,0,0.4,0.1,0.5,0.1
		C46.8,26.8,46.6,26.8,46.4,26.7z M71,25.6c0.1,0,0.3-0.1,0.4-0.1l0,0C71.3,25.5,71.1,25.6,71,25.6L71,25.6z M84.9,25.5
		c-0.2,0-0.4-0.1-0.6-0.2l-0.4-0.1c0.1,0,0.2,0,0.4,0c0.3,0,0.6,0.1,0.8,0.3L84.9,25.5z M87.4,24L87.4,24C87.3,24,87.4,24,87.4,24z
		 M87.5,23.7c0.1,0,0.1-0.1,0.2-0.1C87.6,23.6,87.6,23.6,87.5,23.7z M87.5,22.5c0-0.1,0-0.2,0.1-0.2c0,0.2,0,0.3-0.1,0.4
		C87.5,22.6,87.5,22.6,87.5,22.5z M94.4,17.7L94.4,17.7C94.4,17.8,94.4,17.8,94.4,17.7L94.4,17.7z M94.6,17.9
		C94.6,17.9,94.6,17.8,94.6,17.9C94.6,17.8,94.6,17.9,94.6,17.9z M96.3,18.1C96.3,18.2,96.3,18.2,96.3,18.1
		c-0.1,0.1-0.3,0.3-0.4,0.8C96,18.5,96.1,18.2,96.3,18.1z M96.6,18.2c0.1,0.1,0.2,0.2,0.4,0.3C96.8,18.4,96.7,18.3,96.6,18.2
		L96.6,18.2z M100.4,19.3c0,0.2-0.2,0.3-0.4,0.4C100.1,19.5,100.2,19.4,100.4,19.3z M106.4,17.4c-0.2-0.3-0.3-0.6-0.1-0.9l0,0v-0.1
		l0,0v0.1c0.1,0,0.1,0,0.2,0.1s0.2,0.2,0.3,0.2c0,0,0,0.1,0.1,0.1c0.2,0.2,0.3,0.5,0.1,0.7C106.7,17.8,106.6,17.5,106.4,17.4z
		 M105.8,15c-0.1,0.1,0,0.2,0.1,0.3c-0.1,0-0.2-0.1-0.2-0.1C105.7,15.1,105.7,15,105.8,15z M103,13.4C103,13.4,102.9,13.4,103,13.4
		c-0.3,0-0.6,0-0.8-0.1v-0.1C102.5,13.4,102.7,13.4,103,13.4z M88.2,7c0,0.1,0,0.2,0,0.3c-0.1,0-0.2-0.1-0.3-0.1
		c-0.3,0-0.4,0.3-0.4,0.4c0-0.1,0-0.1,0-0.1c0-0.2,0.1-0.4,0.4-0.5C88,7,88.2,6.9,88.2,7z M88,6.4c0-0.1-0.1-0.2-0.2-0.3
		c-0.1-0.1-0.3-0.1-0.4,0L87.5,6c0.1-0.1,0.3-0.1,0.4,0S88.1,6.2,88,6.4z M86.9,4.8L86.9,4.8c0,0.5,0.7,0.8,0.2,1.2
		c0.3-0.4-0.4-0.6-0.4-1C86.7,4.9,86.8,4.8,86.9,4.8z M86.2,6.5c0.1-0.2,0.2-0.4,0.1-0.7c0-0.2-0.1-0.4,0-0.6
		c-0.1,0.2,0,0.4,0.1,0.6C86.5,6,86.5,6.3,86.2,6.5c0,0.1,0,0.3-0.2,0.3C86.1,6.7,86.1,6.6,86.2,6.5z M82.9,4.3
		c-0.2,0-0.4-0.1-0.5,0C82.6,4.1,82.7,4.3,82.9,4.3z M81.4,5.2L81.4,5.2c-0.1,0.2-0.3,0.3-0.4,0.4c0,0-0.1,0.1-0.2,0.1
		C81,5.5,81.2,5.4,81.4,5.2z M80.1,5.5L80.1,5.5c0,0.1,0.1,0.4,0.1,0.6c0,0.3,0.1,0.8-0.3,1C80.1,6.9,80,6.5,80,6.2
		C80,5.9,79.7,5.7,80.1,5.5z M79.4,7.3C79.5,7.3,79.5,7.3,79.4,7.3L79.4,7.3c0.1,0.4,0,0.7-0.1,1.1c-0.1,0-0.1,0-0.2,0
		c0.1-0.3,0.2-0.5,0.2-0.8C79.3,7.4,79.4,7.3,79.4,7.3z M77.2,6.7c0.2-0.4,0.4-0.9,0.8-1.1c-0.3,0.3-0.4,0.7-0.6,1
		c-0.1,0.3-0.2,0.7-0.2,1L77,7.5C77.1,7.2,77.1,7,77.2,6.7z M75.3,4.3c0,0.1,0,0.1-0.1,0.2l0,0C75.2,4.5,75.2,4.5,75.3,4.3
		c-0.1-0.1-0.2-0.2-0.3-0.2c0,0,0,0,0.1,0C75.3,4.1,75.3,4.2,75.3,4.3z M55.1,4.6L55.1,4.6c-0.1,0-0.2,0-0.2,0l0,0l-0.1-0.1h-0.1
		C54.8,4.4,55,4.4,55.1,4.6z M50.3,4.8c0.3-1,0.9-1.2,1.8-0.9C52.4,4,52.7,4,53,3.9c0,0,0,0.1-0.1,0.1c-0.2,0-0.5,0-0.7,0
		c-0.8-0.3-1.5-0.1-1.8,0.9c-0.1,0.2-0.5,0.5-0.6,0.3l-0.1-0.1C49.9,5.3,50.2,5,50.3,4.8z M47.4,4.6c0.3-0.3,0.4-0.5,0.8-0.1
		c0.4,0.4,1,0.1,1.4,0.5c-0.4-0.3-1-0.1-1.3-0.4c-0.4-0.4-0.5-0.3-0.8,0.1c-0.4,0.6-0.8,0.7-1.1,0.3C46.7,5.2,47,5.1,47.4,4.6z
		 M45.6,4.2c0.1-0.2,0.2-0.1,0.3,0.1C45.8,4.2,45.7,4.1,45.6,4.2c-0.2,0.8-1,0.8-1.4,1.4c0,0.1-0.1,0.1-0.2,0.2h-0.2
		c0,0,0.1-0.1,0.1-0.2C44.4,5,45.2,5,45.6,4.2z M39.2,3.2c0.6-0.1,1.2-0.1,1.7,0H41C40.4,3.8,39.9,3.5,39.2,3.2
		c-0.3,0.3-0.6,0.2-0.9,0C38.6,3.3,38.9,3.4,39.2,3.2z M38.9,4.8L38.9,4.8c-0.3,0.1-0.6,0.4-0.9,0.6l0,0c-0.1,0-0.1,0-0.2,0l0,0
		C38.2,5.2,38.5,4.6,38.9,4.8z M36,4.6c0.1,0.1,0.1,0.3,0.2,0.4l0,0c0-0.1-0.1-0.2-0.1-0.3c0-0.1-0.1-0.2-0.3-0.4l0,0
		C35.8,4.4,35.9,4.5,36,4.6z M35.1,4.7L35.1,4.7C35.1,4.7,35.1,4.7,35.1,4.7c-0.4-0.1-0.6-0.1-0.7-0.1C34.5,4.5,34.7,4.5,35.1,4.7z
		 M28.7,4.6h-0.1c-0.1-0.2-0.2-0.4-0.4-0.7c0,0,0-0.1,0.1-0.1C28.5,4.1,28.7,4.4,28.7,4.6z M27.1,4.2c0,0,0,0.1,0,0.2H27
		C27,4.4,27,4.3,27.1,4.2c0.2-0.3,0-0.6-0.2-1.1C27.1,3.5,27.3,3.8,27.1,4.2z M22.9,3.9C23,3.8,23,3.7,23.1,3.5
		C23,3.7,22.9,3.9,22.9,3.9C22.9,4,22.9,3.9,22.9,3.9z M16.6,4c0.2,0,0.3,0,0.4,0.1C16.9,4.1,16.7,4.1,16.6,4
		c-0.3,0.1-0.3,0.1-0.3-0.1C16.3,4,16.4,4,16.6,4z M14,5.2L14,5.2L14,5.2L14,5.2z M17.8,6.7c0.3-0.3,0.7,0,1.1,0l0,0
		c-0.4,0-0.7-0.2-1,0l0,0c-0.1,0-0.2,0-0.2,0C17.7,6.7,17.8,6.7,17.8,6.7z M20.5,7.1c0.4,0,0.8,0,1.2,0c0.8,0.1,1.6,0.2,2.4,0.5
		c0.4,0.3,0.7,0.3,1,0.3H25l0,0c-0.3,0-0.5,0-0.9-0.2c-0.8-0.3-1.6-0.5-2.4-0.5C21.3,7.2,20.8,7.2,20.5,7.1L20.5,7.1z M19.1,8.7
		c-0.1,0-0.1,0-0.2,0c0-0.1,0.1-0.2,0.1-0.3C19,8.5,19,8.6,19.1,8.7z M17.2,8.7c-0.1,0-0.2,0-0.3,0.1c-0.1-0.1-0.2-0.1-0.3-0.1V8.6
		l-0.3,0.1c0,0,0,0,0-0.1c0.1,0,0.1-0.1,0.2-0.1C16.8,8.4,17,8.5,17.2,8.7z M10.1,12l0.2-0.2c0.5-0.4,0.9-1,1.2-1.5l0,0l0,0
		c-0.3,0.6-0.7,1.1-1.2,1.6L10.1,12c-0.5,0-0.6,0.2-0.7,0.5C9.4,12.2,9.6,12,10.1,12z M8.4,13.6c0,0.4-0.1,0.9-0.4,1.2l0,0L7.6,15
		C8,14.6,8.2,14.1,8.4,13.6L8.4,13.6c0.4,0,0.6-0.4,0.8-0.7h0.1C9.1,13.2,8.9,13.6,8.4,13.6z M7.2,15.4c0.1-0.1,0.3-0.3,0.4-0.4
		c0,0,0.1,0.1,0.1,0.2C7.6,15.3,7.5,15.4,7.2,15.4c0.1,0.1,0.1,0.1,0.1,0.1C7.2,15.5,7.2,15.5,7.2,15.4L7.2,15.4z M6.4,17.2
		c-0.1,0.1-0.3,0.1-0.5,0.1C6.1,17.3,6.3,17.2,6.4,17.2z M6.2,21c-0.1,0.1-0.2,0.1-0.3,0.1C6,21.1,6,21,6.2,21
		c0.1-0.1,0.3-0.2,0.5-0.2C6.6,20.8,6.4,20.9,6.2,21z M12.5,24.6c-0.3,0.1-0.6,0.1-0.9,0v-0.1h0.1c0.2,0.1,0.4,0.1,0.6,0
		C12.4,24.6,12.4,24.6,12.5,24.6L12.5,24.6z M12.9,28c0,0-0.1,0-0.1,0.1C12.9,28,12.9,28,12.9,28z M15.6,30.6L15.6,30.6
		c0.1,0.1,0.1,0.1,0.2,0.2C15.8,30.7,15.7,30.7,15.6,30.6h0.1c0,0.1,0,0.1,0,0.2C15.7,30.7,15.7,30.7,15.6,30.6z M19.1,31.1
		c0,0,0-0.1,0-0.2h0.1c0,0.1,0,0.2,0,0.3c-0.1,0.3-0.1,0.5,0,0.6C19,31.7,18.9,31.5,19.1,31.1z M26.6,32.3c0-0.1,0-0.2,0-0.2l0,0
		C26.6,32.1,26.6,32.2,26.6,32.3z M32.8,32.9c0.3-0.1,0.5-0.3,0.7-0.5h0.2C33.4,32.5,33.2,32.9,32.8,32.9L32.8,32.9z M34.6,32.7
		c0.1,0,0.1-0.1,0.2-0.2c0.1-0.1,0.1-0.1,0.2-0.2l0,0h0.1c0,0,0,0.1-0.1,0.1C34.9,32.5,34.8,32.6,34.6,32.7z M38.5,32.4L38.5,32.4
		c0.4,0.1,0.7,0.1,1,0h0.2C39.4,32.6,38.9,32.6,38.5,32.4z M42.6,32.9c-0.1,0-0.1,0-0.2-0.1C42.5,32.8,42.6,32.8,42.6,32.9
		c0.1,0,0.2,0,0.3,0C42.8,32.9,42.7,32.9,42.6,32.9z M50.2,33C50.2,33,50.1,33,50.2,33c-0.1-0.2-0.1-0.2,0-0.3c0,0,0,0,0,0.1
		C50.2,32.8,50.2,32.9,50.2,33c0.1-0.1,0.1-0.2,0.2-0.2v0.1C50.4,32.9,50.3,33,50.2,33z M57.2,26.2c-1.5,0.3-2.9,0.3-4.4,0.3
		c-0.5,0-1,0.1-1.4,0.1c-0.6,0.4-1.2,0-1.8,0.3c0,0,0,0,0-0.1h-0.3h-0.1h-0.4c-0.5,0.1-0.9-0.1-1.3-0.1l0,0
		c-0.1-0.1-0.2-0.2-0.3-0.2c0.3-0.1,0.6-0.1,1-0.3c0.7,0.1,1.3,0,2-0.3c0.1,0,0.1,0,0.2,0.1l0.4-0.1c0.4,0,0.8,0.1,1.1,0.2l1,0.1
		c0.2-0.2,0.4-0.3,0.6-0.2c0.4-0.3,0.9-0.3,1.3-0.2l0,0h0.6h0.4c0,0,0,0,0,0.1h0.1h0.5c0-0.1,0-0.3,0.2-0.3c0.2,0.1,0.1,0.3,0.1,0.4
		h0.5c0.3-0.1,0.6-0.3,0.9-0.2C58,26.2,57.6,26.1,57.2,26.2z M63.2,26.4v-0.1c0.1-0.1,0.2-0.3,0.4-0.3c0-0.1,0-0.2,0.1-0.3h0.1
		c0,0.1,0,0.3-0.1,0.4c-0.2,0-0.3,0.1-0.3,0.3H63.2z M70.5,26.1L70.5,26.1c0.1,0,0.1-0.1,0.2-0.1H71C70.9,26.1,70.7,26.1,70.5,26.1z
		 M73.5,26.4c0.1-0.1,0.2-0.2,0.3-0.3h0.4C74,26.4,73.8,26.7,73.5,26.4z M82.5,26.7L82.5,26.7c-0.2-0.1-0.3-0.1-0.3-0.2
		c0.1,0,0.1,0.1,0.2,0.1s0.2,0,0.3-0.1c0-0.1,0-0.1,0-0.2c0.1,0,0.1,0.1,0.1,0.3C82.7,26.6,82.6,26.7,82.5,26.7z M89,27.9
		c-0.7-0.2-1.8,0.4-2-0.8c-0.1-0.5-0.3-0.6-0.7-0.4c-0.6,0.3-0.9,0.1-1.1-0.5h0.2c0.2,0.2,0.5,0.2,0.9,0.1h0.1c0,0,0,0,0.1,0h0.3
		c0.1,0.1,0.1,0.2,0.2,0.4c0.3,1.2,1.2,0.7,2,0.8c0.3,0,0.5,0,0.5-0.2C89.5,27.7,89.5,28,89,27.9z M91,26.7c0-0.1,0-0.1,0-0.2
		c0.2-0.1,0.5-0.1,0.6,0C91.4,26.5,91.2,26.6,91,26.7z M93.8,27.7c0,0,0-0.1-0.1-0.1h0.9c-0.1-0.4-0.3-0.4-0.6-0.5l0,0v-0.3h0.1v0.3
		c0.2,0.1,0.6,0,0.7,0.5L93.8,27.7z M96.7,28.4c-0.2,0.2-0.5,0.4-0.9,0.4C96.1,28.8,96.5,28.6,96.7,28.4z M93.7,27.5L93.7,27.5
		c-0.3-0.3-0.4-0.7-0.4-1.1C93.3,26.8,93.5,27.2,93.7,27.5z M93.1,25c0.1,0,0.2,0.1,0.2,0.2C93.3,25.1,93.2,25.1,93.1,25
		c-0.1,0.1-0.2,0.1-0.2,0.2C92.9,25,93,25,93.1,25z M92.7,25.7c0,0.1,0,0.2,0,0.2c0,0.4-0.2,0.9-0.4,1.3c-0.1,0.1-0.1,0.2-0.2,0.3
		c0-0.1,0-0.3,0.2-0.4c0.2-0.4,0.4-0.8,0.4-1.3C92.7,25.8,92.7,25.7,92.7,25.7z M91.1,24.4c-0.2,0.8-1.1,1.2-1.3,2
		c-0.1,0.2-0.2,0.3-0.3,0.5c0-0.1,0-0.2,0-0.3c0-0.3,0.2-0.4,0.3-0.6c0.3-0.8,1.1-1.2,1.3-2c0-0.1,0-0.1,0-0.2
		C91.3,24,91.2,24.2,91.1,24.4z M87.7,20.6l-0.1-0.1c-0.2-0.1-0.8,0.2-1,0.5c0,0,0,0,0-0.1c0-0.4,0.8-0.8,1.1-0.7
		C88,20.3,88,20.4,87.7,20.6z M91.7,20.5L91.7,20.5c-0.1-0.1-0.1-0.1-0.1-0.1c0-0.1-0.1-0.2-0.1-0.2c0.1,0.1,0.1,0.2,0.1,0.2
		L91.7,20.5C91.8,20.5,91.7,20.5,91.7,20.5z M91.1,19c0,0.7,0.9,0.3,1,0.9C92,19.4,91,19.7,91.1,19z M91.5,18.7c-0.1,0-0.2,0-0.3,0
		C91.3,18.7,91.4,18.6,91.5,18.7c0.4,0.2,1,0.2,1,0.8C92.4,18.9,91.9,18.9,91.5,18.7z M94.2,17.9L94.2,17.9L94.2,17.9
		C94.3,17.9,94.2,17.9,94.2,17.9c0,0.2,0.1,0.3,0.2,0.3c0,0,0,0-0.1,0C94.2,18.1,94.1,18,94.2,17.9z M94.5,20.2
		C94.4,20.2,94.4,20.2,94.5,20.2c-0.3,0-0.3-0.1-0.3-0.2C94.2,20.1,94.3,20.2,94.5,20.2c0-0.1,0.1-0.1,0.1-0.2s-0.1-0.2-0.3-0.2
		c0.2,0,0.3,0.1,0.4,0.2C94.7,20.1,94.6,20.2,94.5,20.2z M95.5,20.3C95.5,20.3,95.5,20.2,95.5,20.3c0.5,0.1,0.6-0.3,0.7-0.5
		C96.1,20.1,96,20.4,95.5,20.3z M96.9,19.2c0.2-0.1,0.4-0.1,0.4-0.2C97.3,19.1,97.2,19.2,96.9,19.2z M99.2,19.9L99.2,19.9v-0.1h-0.1
		c0-0.1,0-0.1,0-0.1l0.1,0.1V19.9z M100.8,18.3c0.1,0,0.2-0.1,0.3-0.2C101.1,18.2,101,18.3,100.8,18.3z M100.9,17L100.9,17
		c0.2,0.5,0.2,0.8,0.2,1C101.1,17.8,101,17.5,100.9,17z M102.2,19.1c0,0.4,0.2,0.7,0.6,1c0.1-0.4,0.3-0.8,0.2-1.2
		c0.2,0.4-0.1,0.8-0.2,1.3C102.4,19.9,102.2,19.5,102.2,19.1z M102.9,18.8C102.9,18.9,103,18.9,102.9,18.8
		C103,18.9,102.9,18.9,102.9,18.8z M103.4,17.3c-0.4,0.1-0.6,0-0.7-0.2c0.1,0.1,0.3,0.1,0.5,0c0.4-0.2,0.6-0.6,0.8-0.9h0.2l0,0
		C104.1,16.6,103.8,17,103.4,17.3z M106.5,20.2c-0.2-0.1-0.2-0.2-0.2-0.4s0.1-0.6-0.1-0.7c-0.1-0.1-0.2,0-0.3,0
		c0-0.2,0.1-0.3,0.3-0.4c0.1-0.1,0.1-0.3,0.4-0.1c0.3,0.2,0.1,0.5,0.1,0.7s0.1,0.3,0.2,0.4s0.1,0,0.2,0c-0.1,0.1-0.2,0.3-0.3,0.4
		C106.7,20.2,106.6,20.3,106.5,20.2z"/>
	<path class="st0" d="M35.4,2.5l-1.9-0.1c-0.3,0.1-0.5-0.1-0.8,0.2s-0.4,0.1-0.5-0.2h-0.9c-0.2,0.7,0.3,0.8,0.7,0.8
		c0.4,0,0.9-0.3,1.1,0.3l2.4-0.3L35.4,2.5z"/>
	<path class="st0" d="M36.4,2.5H36h-0.3C35.9,2.6,36.2,2.8,36.4,2.5z"/>
	<path class="st0" d="M76.7,28.2c-0.8-0.1-1.4,0.6-2.1,0.8l0.4,0.6c0.4-0.7,1.1-0.4,1.6-0.4c0.2,0,0.3,0.1,0.4,0.2l0.3-0.1l0.1-0.4
		c-0.2-0.2-0.4-0.4-0.5-0.7H76.7z"/>
	<path class="st0" d="M109.9,15.4c0.3,0.1,0.6,0.1,0.8,0C110.4,15.1,110.2,15.2,109.9,15.4z"/>
	<path class="st0" d="M109.1,15.3l0.4,0.2C109.4,15.3,109.3,15.1,109.1,15.3z"/>
	<path class="st0" d="M116.2,22.4c-0.1,0.3-0.2,0.5-0.4,0.6c-0.1,0.1-0.3,0.2-0.5,0.2h-0.4h-0.2h-0.2l0.1,0.3l0.2,0.2v0.1l0.2,0.1
		l0.3-0.1c0.3-0.2,0.7,0,1.1-0.1l0.1-0.5v-0.4l-0.1-0.4C116.4,22.4,116.2,22.4,116.2,22.4z"/>
	<path class="st0" d="M106,26.4c0-0.3,0.1-0.5,0.4-0.6c0.6,0.1,1.1-0.2,1.7,0h0.3l0.6,0.3c0.7-0.3,1.4-0.3,2.1-0.2h0.3l0.1-0.9
		c-1,0.2-1.9,0.1-2.8-0.1l-1.7-0.1h-0.1V25c0,0.2-0.2,0.3-0.4,0.3h-0.7l-0.1,0.6l-0.1,0.6L106,26.4L106,26.4z"/>
	<path class="st0" d="M78,28.9c0.1-0.3,0.6-0.3,0.4-0.7c-0.5,0.1-1,0.1-1.4-0.1v0.2c0.1,0.3,0.3,0.5,0.5,0.6H78z"/>
	<path class="st0" d="M80.8,27.4l-0.5,0.9l0.5-0.1l0.1-0.3C80.9,27.7,81.3,27.4,80.8,27.4z"/>
	<path class="st0" d="M102.3,21.3c0,0.1,0,0.1,0.1,0.1L102.3,21.3z"/>
	<path class="st0" d="M104.6,25.5C104.7,25.5,104.7,25.6,104.6,25.5l0.6,0.2c0.2-0.2,0.3-0.1,0.5,0.1l0.1-0.6l-0.3-0.2l-0.6-0.1
		c0.2-0.3,0.4-0.2,0.6-0.2c0.4-0.1,0.9-0.1,1.4,0h0.1c0.6-0.2,1.2-0.3,1.9-0.4l0.2-0.1l-0.3-0.8l-2-0.2l-0.4,0.1
		c-0.5,0.2-1.1-0.1-1.6,0l0,0l-0.9-0.1h-0.4c-0.1-0.3-0.2-0.5-0.1-0.8c-0.6-0.3-0.6,0.3-0.8,0.5l-0.7-0.2l-0.7-0.2l-0.2,0.2l0,0
		c-1,0.2-1.9-0.2-2.9,0.2v0.4c0.1,0.7-0.9,0.2-0.9,0.8c0,0.1,0,0.1,0.1,0.2c-0.1-0.1-0.2-0.2-0.2-0.3c0-0.5,1-0.1,0.9-0.8v-0.4h-0.5
		c0,0,0,0.1-0.1,0.1h-0.3v-0.1l-0.4-0.1c-0.6-0.1-1.2,0.3-1.8-0.2l-0.4,0.3c-0.4,0.9-0.8,1.8,0,2.6c0.8,0.1,1.5,0.1,2.1-0.2
		c0.3-0.1,0.7-0.2,1-0.1V25c0.2-0.3,0.1-0.4-0.1-0.6c0.2,0.1,0.4,0.3,0.2,0.7c0.7,0.1,1.4-0.1,1.9,0.4h0.3c0.2-0.2,0.5-0.3,0.8-0.3
		c0.3-0.4,0.5-0.3,0.6,0.1C102.4,25.5,103.5,25.6,104.6,25.5z M104.8,23.7L104.8,23.7C104.8,23.8,104.8,23.8,104.8,23.7
		c-0.3,0.1-0.4,0.2-0.5,0.2C104.4,23.8,104.5,23.7,104.8,23.7z M102.8,24.7c0-0.2-0.1-0.3-0.1-0.5C102.7,24.4,102.8,24.5,102.8,24.7
		z M102.7,23.9c-0.4,0.2-0.4,0.6-0.4,1C102.3,24.5,102.2,24.1,102.7,23.9z"/>
	<path class="st0" d="M100.7,25.3c0.1,0.1,0.4,0.1,0.6,0.1C101.1,25,101,24.9,100.7,25.3z"/>
	<path class="st0" d="M97.7,25.5l-0.8,0.1l-0.4,0.2v0.4c0.4,0,0.8-0.1,1.2-0.3C97.7,25.8,97.7,25.6,97.7,25.5z"/>
	<path class="st0" d="M109.7,24.2h0.2c0.7,0,1.3-0.2,2,0c0.2-0.3,0.6-0.1,0.8-0.5c-0.3-0.2-0.3-0.5-0.5-0.8l-0.8,0.1
		c-0.1,0.3-0.2,0.2-0.4,0.1l-0.2,0.2v0.2h-0.2c-0.6-0.5-1.1-0.2-1.7-0.1l0.3,0.8C109.2,24.2,109.7,24.2,109.7,24.2z"/>
	<path class="st0" d="M109.6,35.5c-0.5-0.1-0.7-0.5-1.1-0.6c-0.8-0.2-1.7-0.4-2.6-0.5c-1.1-0.3-2.3-0.4-3.5-0.4v0.2v0.2l0.1,0.2
		l0.2,0.1c0.1-0.1,0.2-0.2,0.4-0.1c0.1,0,0.1,0.1,0.1,0.2c0.2,0,0.5,0,0.7,0c1.8,0.6,3.7,0.6,5.5,1.1c0.1,0,0.3,0.2,0.4,0
		c0-0.1,0-0.1,0-0.1C109.8,35.7,109.7,35.5,109.6,35.5z"/>
	<path class="st0" d="M104.4,13.4c0.7,0.3,0.9,1,1.6,1.2C105.5,14.2,105.5,13.3,104.4,13.4z"/>
	<path class="st0" d="M3.1,20.6l0.2,0.3C3.4,20.7,3.3,20.7,3.1,20.6z"/>
	<polygon class="st0" points="65.1,33.4 65.2,33.4 65.3,33.3 64.7,33.2 	"/>
	<path class="st0" d="M73.4,33.7l0.7,0.1L74,33.7C73.8,33.5,73.6,33.5,73.4,33.7z"/>
	<path class="st0" d="M6.2,22.7l0.1,0.2l0.4,0.2C6.7,22.8,6.6,22.5,6.2,22.7z"/>
	<path class="st0" d="M52.2,33.1l0.1,0.5C52.5,33.4,52.4,33.2,52.2,33.1z"/>
	<path class="st0" d="M6.7,16.3C6.7,16.3,6.7,16.4,6.7,16.3C6.8,16.4,6.8,16.4,6.7,16.3z"/>
	<path class="st0" d="M6.6,16.3L6.6,16.3L6.6,16.3z"/>
	<path class="st0" d="M93.4,5.1c0.4,0,1-0.1,1.2,0.2c0.3,0.5,0.5,0.3,0.7,0c0.1-0.1,0.4-0.2,0.7-0.2s0.7,0,1-0.2l-0.1-0.1L96,4.7
		c-0.8,0.3-1.8,0.3-2.7,0H93l-0.6,0.1C92.6,5.2,93,5.1,93.4,5.1z"/>
	<path class="st0" d="M115.9,9.2c-0.6,0-1.2,0.1-1.8,0.3c0.9,0.3,2-0.2,2.7,0.7C116.5,9.8,116.3,9.2,115.9,9.2z"/>
	<path class="st0" d="M118,10.6l-0.2-0.5H117l-0.4,0.7C117.1,10.9,117.6,10.9,118,10.6z"/>
	<path class="st0" d="M96,10.6l0.3,0.2c0.3,0,0.5,0.1,0.7,0.3l0.2-0.3l-0.1-0.2C96.7,10.5,96.4,10.5,96,10.6z"/>
	<path class="st0" d="M95.7,10.2c-0.2,0-0.2,0.2-0.2,0.3h0.3C95.8,10.4,95.9,10.2,95.7,10.2z"/>
	<path class="st0" d="M97.8,10.5l0.2,0.1h0.1C98.1,10.4,97.9,10.3,97.8,10.5z"/>
	<polygon class="st0" points="97.1,10.4 97.1,10.5 97.2,10.5 	"/>
	<path class="st0" d="M114.8,11.7c0-0.1,0-0.2-0.2-0.4v0.2L114.8,11.7z"/>
	<path class="st0" d="M118.5,15v-0.3c0,0,0-0.1-0.1-0.1c-0.1-0.2-0.5-0.3-0.7-0.1C117.8,14.8,118.1,15,118.5,15z"/>
	<path class="st0" d="M116.9,14.4l-0.3-0.1C116.6,14.5,116.7,14.6,116.9,14.4z"/>
	<path class="st0" d="M80.9,3.9l-0.5-0.1c-0.3,0-0.6-0.3-1-0.1C79.9,4.1,80.3,4.6,80.9,3.9z"/>
	<path class="st0" d="M78.3,3.7l-1-0.3C77.5,4.1,77.8,4.1,78.3,3.7z"/>
	<path class="st0" d="M70.4,3.3c-0.8-0.1-1.7-0.2-2.7-0.2C68.5,3.6,69.5,3.7,70.4,3.3z"/>
	<path class="st0" d="M105.5,10.7h0.3C105.7,10.4,105.6,10.5,105.5,10.7z"/>
	<path class="st0" d="M111.8,12.4c-0.5-0.2-0.9,0-1.4,0C110.9,12.6,111.4,12.6,111.8,12.4z"/>
	<path class="st0" d="M71.3,6.2c0.3,0.2,0.7,0.2,0.9-0.1C71.9,6,71.5,6,71.3,6.2C71.2,6.2,71.3,6.2,71.3,6.2z"/>
</g>
</svg>
