<?xml version="1.0" encoding="utf-8"?>
<!-- Generator: Adobe Illustrator 21.1.0, SVG Export Plug-In . SVG Version: 6.00 Build 0)  -->
<svg version="1.1" id="Layer_1" xmlns="http://www.w3.org/2000/svg" xmlns:xlink="http://www.w3.org/1999/xlink" x="0px" y="0px"
	 viewBox="0 0 1600 238" style="enable-background:new 0 0 1600 238;" xml:space="preserve">
<style type="text/css">
	.st0{opacity:0.17;}
	.st1{fill:#064C56;}
</style>
<g class="st0">
	<path class="st1" d="M1577.9,117.4c0-0.4,0-0.7,0.1-1.1c-1.3-0.8-2.7-0.8-4,0c-2.1-1.5-2-4.1-2.4-6.4c0.5-0.5,1-0.9,1.5-1.4
		c2.7-0.4,1.9-3.1,2.6-4.8c0.3-0.2,0.5-0.4,0.7-0.7c1.9,0.1,4.5-0.1,5.1-1.6c1.6-4.2,5.1-3.4,7.8-4.7c-0.3-0.7-0.7-1.4-1-2.1
		c-4.7,0.4-9.5,0.9-14.2,1.3c-0.6,0-1.3,0.1-1.9,0.1c-0.8,0-1.6,0-2.4-0.1c-1.5-0.4-2.9,0-4.1,1.1c-0.7,0.1-1.3,0.2-2,0.3
		c-1.4-0.2-2.7-0.4-4.1-0.6l-0.4-0.1c-2.7-3.1-5.2,0.5-7.9,0.1c-1-0.6-2-0.7-3-0.2c-4-0.6-7.9-1.9-11.9-1.8c0,0,0.1,0,0.1-0.1
		c0.3-0.5,0.7-1.1,1-1.6c6.4-2,14.1-1.9,21.2-3c3.7-0.5,6-1.9,5.7-3.5c-0.2-1.7-4-1.4-6.5-1.6c-7.7-0.4-15.5-1.2-23.2-0.3
		c-0.7-0.2-1.4-0.3-2.1-0.5c-2.7,0.4-5.4,0.4-8-0.3c-4,0-8.1-0.1-12.1-0.1c-1.4,0.2-2.8,0.3-4.2,0.5c-1.4,0-2.8,0-4.2,0.1
		c-4.9-2.4-10.6-3.1-17.7-2.9c-6.4,0.2-13,0.4-19.3-0.5c-0.7-0.3-1.4-0.6-2.1-0.9c-4.1,0.1-8.4-0.5-12.2,0.7
		c-0.7-0.2-1.5-0.4-2.2-0.6c-1.2,0-2.5,0-3.7,0c0,0,0,0-0.1,0l-0.1-0.1c0-0.4,0.1-0.7,0.1-1.1c0-0.7-0.1-1.4-0.1-2.1
		c0.2-2.2,1.1-4,2.3-5.7c1.4-0.1,1.9-1.6,3.5-1.8c5.6-0.6,11.1-1.8,16.7-0.7c2,0.4,3.2-0.1,3.5-2.7c0.4-2.7-0.6-3-2.8-3
		c-1.2,0-2.5-0.9-3.8-1.4c-2.1,4.6-4.6,3.7-7.3,0.7c-1.5,0-3,0-4.5-0.1c-0.3,1.8-0.5,3.5-2.7,3.6c-2.2-1.8-5-0.5-7.4-1.6
		c-2-0.2-4,0.4-6-0.6c-2.1,0.3-4.2,1.1-6.3-0.1c-1-0.1-2.1-0.2-3.1-0.2c-0.5,0.9-1.2,1.2-2.1,1.1c-1,0.3-2.1,0.5-3.1,0.8
		c-1.7-0.1-3.4-0.9-5.1-0.2c-0.7-0.1-1.4-0.2-2-0.3c-1.1-0.1-2.1-0.3-3.2-0.4c-0.1,0.2,0,0.4,0.2,0.6c-0.7-0.1-1.5-0.2-2.2-0.2
		c-1-0.2-2-0.5-3-0.7c-2.1,0.8-4.1-0.1-6.2-0.2c-0.3,0-0.7,0-1,0c-0.4,0.1-0.7,0.2-1.1,0.3c-0.9-1.1-1.9-1.2-3-0.4
		c-1.5-0.2-3.1-0.4-4.6-0.6c0.1,0.4,0.1,0.9,0.2,1.3c-1.4-0.2-2.8-0.3-4.2-0.5c-0.2-0.7-0.4-1.3-0.8-1.9l0.1-0.2
		c-3.3-1.8-7,2.1-10.1-1c-0.3,0.1-0.6,0.1-0.9-0.1c-1.6,0.1-4.1,1.6-2.8-2.3c0-0.9,0.1-1.9,0.1-2.8c-0.7-0.2-1.5-0.4-2.2-0.6
		c-1.8,1.1-3.4-0.5-5-0.6c-0.7,0-1.4,0-2.1,0c-0.3,0.1-0.7,0.1-1,0.1c-4.7,1.1-9.1-0.3-13.5-1.7c0-4.5,4.1-1.3,5.4-3.4
		c0.2-1.6,1.3-2,2.6-1.9c-1.2-6,4-1.7,5.2-3.8c0.3,0.1,0.7,0.1,1,0.2c2.4-0.8,5.1-0.3,7.2-2.2c0-0.4,0-0.8,0-1.2
		c2.6-0.2,3.6,0.9,2.8,3.7c0,2.4,1.3,3.1,3.3,3.9c3.6,1.3,7.3-0.5,10.8,0.8c1.1-0.5,2.2-0.2,3.2,0.2c1,0.1,1.9,0.3,2.9,0.4
		c0.8-0.2,1.6-0.2,2.1,0.7c1,0.1,2,0.1,3.1,0.2c1.8-1,3.5-0.8,5.3,0c1.4-0.1,2.7-0.2,4.1-0.3c1.9-2,3.3-0.9,4.4,1
		c0.8-0.1,1.6-0.3,2.4-0.4c1.3-2.2,3.7-1.6,5.5-2.3c0.7,0.2,1.3,0.4,2,0.6c8.3-0.8,16.5,0.7,24.8,0.7c4.2-0.8,8.1,0.8,12.1,1.4
		c3.1,0.3,6.1,0.5,9.2,0.8c5.8-0.8,11.5-1.7,17.3-0.2c0.1-0.6,0.1-1.2,0.2-1.8c-3.1-2.9-6.7-1.4-10.1-1.1c-5.5,0.4-11-2.3-16.5,0.3
		c-5.1-1-10.2-3-15.4-2.4c-4.9,0.5-8.6,0-10.8-6.2c-0.8,4.5-3.8,3.9-6.2,4.3c-2.2,0.4-4.3,0.6-6.5,1l-0.2-0.3
		c-0.1-1.2-0.5-2.1-1.7-2.4c-2.2-3.6-5.7-2.5-8.8-2.8c-5.2-0.5-11.3,3.2-15.4-3.6c-0.3-0.5-1.6-0.1-2.4-0.2
		c-6.6-0.9-13.1,0.3-19.7,0.4c-0.9,0.2-1.7,0.4-2.6,0.6c-1-0.2-2.1-0.4-3.1-0.5c-1.3,0.2-2.7,0.3-4,0.5c-1.7-0.3-3.4-0.6-5.1-1
		c-0.7-0.1-1.4-0.2-2.1-0.3c-1.4,0-2.7-0.1-4.1-0.1c-4.1-0.1-8.3-0.2-12.4-0.2c-1,0-2,0-3,0c-1.4,0-2.8-0.1-4.2-0.1
		c-0.3,0.2-0.7,0.1-1,0c-1-0.1-2.1-0.1-3.1-0.2c-0.7-0.1-1.3-0.2-2-0.2c-0.7-0.2-1.4-0.3-2.1-0.5c-1-0.3-1.9-0.6-2.9-0.9
		c-1.1,0.3-2.1,0.7-3.2,1c-0.1,1.1-0.1,2.2-0.2,3.3c0.1-1.1,0.1-2.2,0.2-3.3c-1-0.2-2-0.4-3-0.6c-0.4-0.5-0.7-1-1-1.5
		c-0.3-0.2-0.6-0.2-0.9-0.1c-0.2-0.3-0.5-0.3-0.8-0.2c-0.8,0.6-1.7,1.1-2.5,1.7c0.8-0.6,1.7-1.1,2.5-1.7c0-0.2-0.1-0.5-0.2-0.7
		c-0.8-0.1-1.5-0.2-2.3-0.3c-0.1,0.3,0,0.6,0.2,0.8c-0.7-0.1-1.5-0.3-2.2-0.4c0.2-0.2,0.3-0.4,0.3-0.7c-0.8,0-1.5,0-2.3,0
		c-0.7,0.2-1.4,0.4-2.1,0.7c-1-0.3-2-0.5-3-0.8c-0.7-0.4-1.3-0.8-2-1.2c-1.7-0.2-3.4-0.4-5.2-0.6c-1-0.1-2-0.1-3-0.2
		c-0.9-1.2-1.9-0.7-3-0.2c-2.4-1.6-3.7-0.2-4.7,2c0.2,2.1,1.5,2.6,3.1,2.7c1,0,2.1,0,3.1,0l0,0c-0.6,1.8-1.8,2-3.2,1.6
		c-5.1-0.3-10.2-0.7-15.3-1c-2-0.2-4.1-0.6-6,0.5c-2.4,0-4.8,0.1-7.2,0.1c-0.7,0-1.4,0-2,0c-13,0-26.1,0-39.1,0
		c-1.3-0.2-2.7-0.5-4-0.7c0.3-1.4,1.1-2.4,2.1-3.2c-1.2-0.1-2.4-0.1-3.7-0.2c-0.2,1.2-0.4,2.4-0.6,3.7c0.6,0.2,1.2,0.4,1.7,0.1
		c-0.6,0.2-1.1,0.1-1.7-0.1c-1,0.1-1.9,0.2-2.9,0.4c-1.7-0.6-3.4-0.6-5.1-0.1c-2.4-0.7-4.8-0.9-7.2-0.2c-2.4-0.1-4.7-0.2-7.1-0.3
		c-0.7,0-1.4,0-2.2,0c-1.7-0.6-3.4-0.5-5.1,0.2c-3-1-6.1-0.8-9.2-0.8c-0.7,0.1-1.4,0.3-2.1,0.4c-1-0.3-2-0.6-3.1-0.9
		c-0.3,0.1-0.7,0.2-1,0.3c-4.5-1.3-8.9,1-13.3,0.3c0,0.5,0,1,0,1.5c-5.1-1.5-10.6,1.4-15.6-1.7c-3.1,0.9-6.1,2.2-9.2,1.8
		c3.1,0.4,6.1-0.9,9.2-1.8c-2.6-2.7-6.5,1.4-9-1.8c-0.7-0.1-1.4-0.2-2-0.3c-0.8,0.7-1.5,1.4-2.3,2.1c-0.3-0.1-0.6-0.1-0.9,0
		c0,0,0,0,0,0c-2.7-0.1-5.5-0.2-8.2-0.3c-1.4-0.1-2.7-0.2-4.1-0.4c-2-0.8-4-1.6-6-2.4c-0.6,0.3-1.2,0.5-1.8,0.8
		c-1.6,1.8-3.8,0.7-5.7,1.2c0-0.2,0.1-0.4,0.2-0.6c-0.7,0.1-1.4,0.2-2.1,0.4c-3.4,0-6.9,0-10.3-0.1c-6,1.4-12.1,0.1-18.1-0.3
		c-1.5-0.1-3-0.4-4.5-0.6c-0.6,0.3-1.2,0.9-1.8,0.9c-12.5-0.7-24.9,0.7-37.3,0.6c-0.7,0.1-1.4,0.1-2.1,0.2c-1.8-0.8-4.4-0.2-5.6-2.2
		c2.3-0.1,4.6-0.1,6.8-0.2c0.7-1.6,1.4-3.2,2.1-4.8c4.5,0.7,9.1,1.1,13.9,0.9c2.5-0.5,4.9-1.1,0.6-1.9c-2.4-0.5-5.2-0.6-6.8-1.7
		c-5.6,0.4-11.2,0.8-16.9,1.2c-1.1,0.2-2.2,0.3-3.2,0.5c-3.4,0-6.9,0.1-10.3,0.1c-2,0-4.1,0-6.1,0c-1.4,0-2.8,0-4.2,0
		c-3-0.3-5.5,0.3-8.1,0.8c0,0,0,0,0,0c-2.4-0.7-4.7-1.4-7.1-2.2l-0.3-0.1l-0.2,0c-0.9,0.4-1.8,0.8-2.7,1.2c-1.4-0.3-2.8-0.7-4.1-1
		c-8.3,0-16.8,0.5-24.9-1c-0.6,0.2-1.3,0.3-1.9,0.5c-1.4,0-2.8-0.1-4.2-0.1c-0.6-0.1-1.2-0.3-1.8-0.4l0,0c-0.1,0-0.1,0-0.2,0
		c-1.8-0.5-3.7-0.9-5.5-1.1c-1.8,0.1-3.5-0.4-5-1.5c-0.9,0-1.9,0.1-2.8,0.1l-0.2-0.2c0,0,0,0,0,0c-2-0.9-3.5,1.1-5.3,1.2
		c-0.6,0-1.1-0.1-1.7-0.1c0,0,0-0.1,0-0.1c-0.4,0-0.7,0-1.1,0c-0.1,0-0.1,0-0.2,0c-0.7-0.1-1.5-0.1-2.2-0.2c-2-0.3-4-0.6-6-0.9
		c-1-1-2.1-0.8-3.2-0.3c-1.6-0.4-3.3-0.8-4.9-1.2c-0.3,0.2-0.6,0.4-1,0.5c-6.8-1.7-13.8-0.7-20.6-1.8c-0.7-0.1-1.3-0.2-2-0.2
		c-1.7-0.2-3.4-0.4-5.1-0.6c-1.1,0.4-1.8,1.2-2.4,2.3c-0.2,0.6-0.5,1.1-0.7,1.7c0,0-0.1,0-0.1,0c-1.3-0.1-2.7-0.2-4-0.3
		c-2-0.3-4.1-0.7-6.1-1c-1.4,0-2.9,0-4.3,0c-1.3,0-2.6,0-3.9,0c-3.5,0.1-7,0.2-10.4,0.3c-1.5-0.3-2.9-0.5-4.4-0.8l0,0
		c-0.6,0.2-1.1,0.4-1.7,0.6c-3.4-0.7-7-0.7-10.5-0.4c-2,0-3.9-0.1-5.9-0.1c-2.8,0-5.7-0.1-8.5-0.1c-1.3,0-2.6,0-3.9,0.1
		c-4.1-0.6-8.1-1.5-12.6-1c-2.8-0.3-5.6-0.5-8.4-0.8c0.1,0.2,0.2,0.3,0.4,0.5c-6.2-0.1-12.3-0.2-18.5-0.3c-0.8,0.2-1.5,0.4-2.3,0.5
		c-1.3,0-2.6,0.1-3.9,0.1c-2.2-0.3-4.3-0.5-6.5-0.8c-1.9,0-3.8,0-5.8,0c-2.3-0.1-4.5-0.2-6.8-0.3c-12.2-0.2-24.4-0.4-36.6-0.6
		c-26.2-0.8-52.4-1-78.5-0.2c-3.8-0.2-5.7,1-7.7,2.2c0.8,0.3,1.6,0.6,2.4,0.9c4,0.7,7.9,0,11.9-0.2c4.7,0.5,9.3,0.3,14,0
		c3.5,0.1,7.1,0.2,10.6,0.3c4.8,0.1,9.6,0.2,14.4,0.3c6.1-0.4,12.1-0.5,18.2,0.1c5,0.1,10,0.3,15,0.4c0,0,0,0,0,0
		c6,0.1,12.2-1.2,18.1,0.5c5.9,2.4,11,6,20.5,3.1c1.3,0.6,2.7,1.1,4,1.7c0,0,0,0,0,0c0.9,1,2.2,1.6,4.8,1.2c1.9,0.1,3.8,0.1,5.7,0.2
		c1.3-0.9,2.2-1,3-0.7c-0.8-0.4-1.8-0.3-3,0.7c1.5,0.1,2.9,0.2,4.4,0.4c5.9,4.3-3.3,2.5-6,3.3c0,0,0,0,0,0
		c-6.9-0.4-13.8-0.9-20.7-1.3c-1.3,0.8-2.7,0.8-4.3,0.2c-2.2-0.1-4.3-0.2-6.5-0.4c0.1,1.1-1,2-2.6,2.8c0,0,0,0,0,0
		c-7.2,0-12.2,1.2-13,5c4.7,0,9.5,0.1,14.2,0.1c2.7,0.5,5.4,0.6,8.2,0.2c4.4-2.1,7.1,0,10.3,0.9c5.4,0.1,10.9,0.3,16.3,0.4
		c1.4-0.2,2.9-0.4,4.3-0.6c2,0.1,3.9,0.1,5.9,0.2c0,0.3,0.1,0.6,0.1,1c5.5-0.8,11-0.6,16.4,0.1c0.2,0,0.5,0,0.7,0
		c-0.2,1.3,0,2.9,0.7,4.5c5.2,1.1,10.4-0.2,15.5,0.1c3.3,0.7,6.6,1.3,9.9,2c1,0.1,2,0.2,3,0.3c-0.1-1.6,0-3,0.4-4.1
		c-0.4,1.1-0.5,2.5-0.4,4.1c0.3,0.2,0.6,0.5,0.9,0.7c-4.8,0-9.5,0-14.1-0.8c-0.3,1.1-0.9,1.6-2,1.5c1,0.1,1.6-0.5,2-1.5
		c-1.4,0.2-2.9,0.4-4.3,0.6c-2,0-4,0.1-6.1,0.1c-1.2,1.1-2.2,1.5-3.2,1.5c1,0,2-0.4,3.2-1.5c-2.2-0.1-4.3-0.2-6.5-0.3
		c0-0.2,0.1-0.3,0.3-0.5c-3.4,0.2-6.8,0.4-10.2,0.6c-1.8,0.8-3.7,1.6-5.3,1.9c1.6-0.3,3.4-1,5.3-1.9c-1.4-0.2-2.8-0.4-4.2-0.6
		c-2-0.1-3.9-0.2-5.9-0.3c0,0,0,0,0,0c-0.2-0.6-0.3-1.1-0.5-1.7c-1.2-0.2-2.5-0.4-3.8-0.6c-1.5,0-3.1-0.1-4.6-0.1
		c-1.2,0.1-2.4,0.2-3.6,0.3c-2.3,0.4-4.5,0.3-6.6-0.3c-4.7,0.3-9.4,0.6-14.1,0.9c-2.9-0.1-5.8-0.4-8.4,0.5c-3.4,0-6.7,0-10.1,0
		c-3.5-1-7.3-0.6-11-0.6c-25.9-0.1-51.7-0.1-77.6-0.1c-1.3-0.1-2.7-0.1-4-0.2c-2.1-0.1-4.2-0.3-6.3-0.4c-3.4,0.2-6.8,0.4-10.2,0.5
		c-0.6-0.2-1.2-0.5-1.8-0.7c-1.4,0.1-2.8,0.2-4.2,0.4c0,0,0,0,0,0c-2.2-0.6-4.3-0.6-6.4,0.1c-3.4,0-6.8,0-10.2,0
		c-2.8-0.2-5.7-0.4-8.5-0.6c-0.8,0-1.5-0.1-2.3-0.1c0,0,0,0,0,0c-9.6-0.9-18.7,1.8-28.3,0.9c-1.3,0.1-2.7,0.1-4,0.2
		c-2.1-0.3-4.2-0.5-6.3-0.8c-0.7-0.1-1.3-0.2-2-0.2c0,0,0,0,0,0c-1.4,0-2.8,0.1-4.2,0.1c-1.3,0-2.7,0-4,0c-2.1,0-4.2,0-6.3-0.1
		c-2,0-4,0-6,0.1c-5-0.7-9.9-1-14.5,0.5c-3.5-0.2-7-0.4-10.5-0.6c-0.1,0.6,0.1,1.2-0.5,1.7c0.6-0.5,0.3-1.1,0.5-1.7l0,0
		c-0.4-0.3-0.6-0.5-0.8-0.8c-1.7-0.2-3.3-0.3-5-0.5c-1.4,0.4-2.8,0.8-4.1,1.2c-0.7-0.2-1.4-0.4-2-0.6c-2.4,0.5-4.5,0.3-6.3-0.6
		c-2-0.1-4.1-0.2-6.1-0.3c-5.5,0.3-11.1,0.6-16.6,0.9c-2.6-0.8-5.4-0.7-8.3-0.3c-1.4,0.2-2.8,0.4-4.2,0.6c0.1,0.3,0.1,0.6,0.1,0.9
		c-2.6,0.1-5.2,0.3-7.9,0.4c-1.2,0.6-2.6,0.6-4.1,0.3c-2.4,0.4-4.6,0.3-6.4-0.7c-2.6,0-5.1,0-6.6-1.3c-0.4,0-0.7-0.2-0.9-0.3
		c-0.2,0.3-0.5,0.5-0.9,0.6c-0.9-0.2-1.8-0.4-2.8-0.6c-1.1,0.2-2.1,0.3-3.2,0.5c-0.6,0.6-1.2,1.1-1.8,1.7c-0.6,0-1.3-0.1-1.9-0.2
		c-0.8,0.3-1.6,0.5-2.4,0.8c-2.1-0.3-4.2-0.6-6.3-1c-6.2-0.3-12.5-0.6-18.7-0.8l-0.3-0.1c0.1-0.3,0.3-0.7,0.4-1
		c-2.7-0.4-5.4-0.8-8.2-1.1c-2.8,0-5.5-0.1-8.3-0.1c-2.1,0.4-4.1,0.3-6-0.1c-3.5,0.1-6.9,0.2-10.4,0.3c-0.2,0.2-0.6,0.3-1,0.3
		c0,0.6,0,1.2,0.1,1.7c-1,0.4-2,0.8-3,1.3c-0.7-0.2-1.3-0.4-2-0.6c-0.8,0.2-1.6,0.3-2.4,0.5c-1.3-0.1-2.7-0.2-4-0.3l0.3,0.3
		c-2.1-0.1-4.3-0.2-6.4-0.3c-5.6,0.3-9.8-1.1-14-2.6c-1.5,0.2-3,0.4-4.5,0.6c-1.9-0.9-3.9-1.2-6.2-0.2c-1.4,0.1-2.8,0.1-4.1,0.2
		c-1.5-0.4-3-0.8-4.4-1.2c-4.3,1.3-9,1-13.7,0.8c-0.9-0.1-1.7-0.3-2.6-0.4c-0.8,0.3-1.5,0.6-2.3,0.9c-0.1-0.3-0.2-0.5-0.2-0.8
		c-1.1,0-2.2,0-3.4,0c0.2,0.2,0.3,0.5,0.4,0.8c-0.9-0.1-1.7-0.1-2.6-0.2c-1.4-0.5-2.7-1.1-4.2-0.1c-7-1.6-14-3.1-21-4.7
		c-0.3-3,4.8-2.6,8.6-3c0.2-3.7,1.5-7.4-3.5-10.7c-3.1-0.6-6.2-0.5-9.3-0.1c0,0.6,0.1,1.3,0.1,1.9c0,0,0,0,0,0
		c-6.1,0.4-12.2,0.7-18.2,1.1c-1.2,0.1-2.5,0.3-3.7,0.4c-5.7,1.8-13.6-0.1-18.8,2.4c-6.9,0-13.8,0-20.7,0c-4.7-0.2-9.4-0.5-14.2-0.7
		c-2,0.9-4,1.7-6.4,0.2c-3.4-0.1-6.7-0.3-10.1-0.4c-0.7,0.5-1.4,0.9-2.1,1.4c-0.6-0.2-1.2-0.3-1.8-0.4c0-0.4,0-0.7-0.1-1.1
		c-4.1,0.1-8.1,0.2-12.2,0.3c-0.4,1.1-2.3,1.3-4.1,1.6c-0.1-0.3-0.2-0.6-0.2-0.9c-2.7,0.1-5.4,0.2-8.1,0.3c-0.1,0.6-0.3,1.2-0.4,1.9
		c-1.4,0.9-2.7,1.9-4.1,2.8c-1.3,0-2.6-0.1-3.9-0.1c-0.3-0.5-0.9-0.9-2.2-0.8c-1.2,1.6-1,3.5-4.2,4.8c-1.8-0.1-3.7-0.3-5.5-0.4
		c-2.4,0.4-4.8,0.8-7.1,1.2c-4.8-1-9.2-0.2-13.6,0.5c-4.9-2.7-4.4,0-5.3,1.2c0.6,0.8,0.1,1.2-1.8,0.8c-1.7,0-3.7,0-4.3,0.8
		c-0.7,1,1.2,1.3,2.9,1.4c2,0.2,3.9,0.3,5.9,0.4c1,1.2,2.8,2.4,2.7,3.6c-0.3,5.7,6.7,7.1,17,7.3c5.3,0.1,11.1-0.5,15.9,1.3
		c3.4-0.1,6.8-0.2,10.2-0.3c2.6,0.6,5.3,0.6,8.1,0.4c1.4,0,2.8,0.1,4.1,0.1c1.4,0.1,2.7,0.1,4.1,0.2c1.2,0.2,2.4,0.4,3.6,0.6
		c1.5,0.1,3.1,0.3,4.6,0.4c4.5-0.6,7.9,1.4,12.3,1.2c5.8,1.6,12.4,1,18.6,1.8c3.7,0.6,8.1,0.2,11.3,1.6c-0.8,1.3-3.6,0.7-5,1.3
		c-6.3-0.4-12.2,1.6-18.6,0.6c-7,2.1-15.1,1.3-22.7,2c-5.7,0.5-10.4,1.7-11,4.3c-0.9,3.7-5.1,7-5.8,10.7c-1.2,0.5-2.3,1-3.5,1.5
		c-3.5,0.2-7.4-0.4-10.2,1.1c-1.5,0.1-3.1,0.3-4.6,0.4c-0.5-0.1-1-0.1-1.4,0.1c-10-0.4-15.4,2.5-18.7,6.3c-2.1,2.5-2.7,1.8-4,0
		c-3.8-0.3-6.1,0.8-8.3,2c-2.8-0.1-5.5-0.1-8.3-0.2c-3.5-0.2-6.8,0-9.8,0.9c-2.3,0-4.5,0-6.8,0c-1.1,0-2.3,0-3.4,0
		c-2.8-0.5-6.1-0.6-6.7,0.9c-0.8,2,3.3,2.5,6.6,2.9c3.1,1,8.7,0.5,9,3.3c-1.8,0.9-1.1,1.5,1.3,1.7c5.3,1.1,10.8,1.4,16.4,1
		c4.8,0.7,9.2,2.2,14.5,1.7c4.6-0.3,8.9-0.2,12.9,0.7c-4-0.9-8.3-1-12.9-0.7c1.3,1.9,5.9,1.2,8.1,2.4c2.9-0.2,5.7-0.3,8.6-0.5
		c1.9,0.1,3.9,0.3,5.8,0.4c2.7,0.3,5.4,0.7,8.1,1c5.1-0.9,9.5-0.6,12.5,1.9c-0.4,0.3-0.8,0.7-1.2,1c4.9,2.8,4.7,5.2-2.6,7
		c-5,0.3-9.2,2-14.6,1.6c-1.3,0.6-2.6,1.2-3.9,1.9c6,1.1,12.2,1.7,18.6,0.9c2.6,0.3,4.9,0.8,2.7,2.2c-2.3,1.6-4.8,3.5-9.6,2.7
		c-4.2-0.7-8.1,0-12-0.3c-15.4,2.2-20.4,5.6-15.7,10.9c1.3,0.4,2.5,0.8,3.8,1.2c1.2,2.3-3.4,5.4,3.9,7c0.1,0.6,0.2,1.2,0.2,1.8
		c1.2,0.8,2.3,1.6,3.5,2.3c0.9,0.2,1.8,0.4,2.7,0.6c0.7,0.6,1.4,1.3,2.1,1.9c1.4,0,2.8,0,4.1,0c5.4,0.1,10.8,0.3,16.2,0.4
		c2,0.6,4.2,0.5,6.5,0.3c1.6,0.3,3.3,0.8,4.7,0.7c8.1-0.5,12.3,0.9,13.7,4.9c2.1,6.2,10.5,9.6,23.4,10.8c6.4,0.6,8.4,2.4,6.9,5.7
		c-3.7,8,0.8,11.6,15.1,13.2c-2-4.3-4-8.6-6-12.8c-0.3,0.3-0.3,0.9-0.7,1.1c-0.2,0.1-0.4,0.1-0.7,0c0.3,0.1,0.5,0.1,0.7,0
		c0.4-0.2,0.5-0.8,0.7-1.1c2,4.3,4,8.6,6,12.8l-0.2,0.4c9.5-0.9,6.4,3.2,9,5c0.7,0.1,1.2,0.2,1.7,0.4c6.3-0.3,12.6-0.3,18.7,0.6
		c9.1,2.2,19.7,0.9,28.8,2.9c1.9-0.1,3.7-0.2,5.6-0.3c0.3-0.5,0.7-1,1-1.4l0,0c-0.3,0.5-0.7,1-1,1.4c1.7,0,3.4,0,5.1-0.1
		c3.3,0,6.7,0,10,0c-0.8,0.7-1.5,1.5-2.3,2.2c-6.1-0.3-12.4,0.8-18.5-0.6c-3.4-0.1-6.9-0.2-10.3-0.4c-3.4,0.5-6.6,1.7-10.2,0.2
		l0.1-0.2c-0.6,0.1-1.1,0.1-1.7,0.2c-0.3,0-0.6-0.1-0.8-0.2c-0.6,0.1-1.2,0.1-1.7,0c-4.5,1.3-9.6,0.9-14.6,0.9
		c-3.8,0-6.8,0.3-4.8,2.7c1,0,2,0.1,3,0.1c4.2-0.4,6.5,0.5,7.2,2.5c1.7,0.4,3.4,0.8,5.2,1.3c14.5,2.5,29.6,3.6,44.4,5.5
		c4.6,0.6,9,1.4,13.7,1.5c4.5,0,6.7,1.2,8.4,2.9c2.6,0.4,5.1,0.9,7.7,1.3c2.2-0.7,3.9-0.3,5.4,0.5c0.9-0.2,1.8-0.5,2.7-0.7
		c0.6,0,1.2,0,1.8,0c0.7,0.6,1.5,1.3,2.2,1.9c1.2,1.3,3.5,2,6.5,2c0.4,0.2,0.9,0.2,1.5,0.2c4.5-0.2,9.3,0.5,13.1-1.2
		c-0.1-0.3-0.2-0.5-0.3-0.8c3.3-1.3,7.7-1,10.8-0.5c14.9,2.1,29.6,2.6,44.5,0.5c6.9,0,13.7-1.2,20.7-0.4c0.7,0,1.4,0.1,2,0.2
		c1.4-0.1,2.8-0.2,4.2-0.3c1.3-0.2,2.6-0.5,3.8-0.7c0-1,0.1-1.9,0.1-2.9c0.1-0.3,0.1-0.8,0.2-1c-0.1,0.2-0.1,0.7-0.2,1
		c0,1-0.1,1.9-0.1,2.9c-1.3,0.2-2.6,0.5-3.9,0.7c0.2,0.2,0.3,0.5,0.4,0.7c4.2,0.5,8.7,0.6,12.1,2.1c4,0,8.1,0.1,12.1,0.1
		c1.1-0.4,2.4-1.1,3.2-1c16.8,2.2,33.7-0.1,50.7,0.6c10.4,0.5,21.3,1.7,32,0.4c0,0,0,0,0,0c3.6,0.1,7.2,0.1,10.9,0.2
		c4.8,0.1,9.6,0.8,14.5,0.1c8,1.6,16.8-1.4,24.7,1.1c2.1-0.1,4.1-0.2,6.2-0.2c1.3-0.5,2.7-0.9,4-1.4c1.7,0.3,3.1,0.2,4-0.6
		c1.5-0.2,2.9-0.3,4.4-0.5c3.1-0.2,3.9,0.5,3.3,1.8c6.5,1,13,0.2,19.4,0c0.8-1.4,1.9-3,5.7-2.6c8,0.9,15.5-0.8,23.3-0.7
		c5.7-0.6,11.2-0.3,16.5,1c8.7-0.3,17.4-0.7,26.1-1c0.7,0.1,1.5,0.3,2.2,0.4c6.7-0.1,13.3-0.2,20-0.3c0.1-0.6,0.3-1.2,0.4-1.7
		c0.7-0.1,1.3-0.2,2-0.4c4.5-1.8,8.8-1.6,13.1-1c-4.3-0.7-8.6-0.8-13.1,1c3.5,0.6,7.7-0.1,11,1.1c1.2,0.4,2.4,0.8,3.6,1.1
		c1.1-1,2.2-0.3,3.3,0.1c0.8-0.1,1.5-0.2,2.3-0.3c0.2-0.5,0.5-1,0.7-1.6c5.5,0,11-0.1,16.5-0.1c10.8-1.5,22,0.5,32.9-0.8
		c2.8,0,5.5-0.1,8.3-0.1c0.5,0.1,1.1,0.2,1.7,0.2c0,0.3-0.1,0.6-0.2,0.9c2.5,1,5.4,0.7,8.3,0.6c0.1-0.5,0.3-1.1,0.4-1.6
		c8.1-0.5,16.8,1.2,24.4-1.4c4.4,0.6,8.7,0.6,13-0.2c1.2,0.1,2.4,0.2,3.7,0.3c2.6,0.8,5.4,1.3,8.3,0.3c5.6-0.1,11.1-0.4,16.2-1.6
		c1.5,0,3.1-0.1,4.6-0.1c4.1,0.3,8.1,0.7,12.2,1c3.4-0.1,6.8-0.3,10.2-0.4c2-0.2,3.9-0.4,5.9-0.6c0.8,0.2,1.5,0.5,2.3,0.7
		c1.2,0,2.4-0.1,3.6-0.1c3.9-1.4,8.2-2.2,13.1-1.1c1.3-0.2,2.5-0.4,3.8-0.6c0.7,0.2,1.4,0.3,2,0.5c3.5-1.2,7.8-1.3,11.9-1.7
		c2.1,0.1,3.7-0.4,5-1.1c0,0,0,0,0,0c1.9,0,3.7,0,5.6,0.1c4.2,0,8.5,0,12.7,0c4,0.2,8,0.5,12.1,0.7c7.6,0.8,15.2,1.7,22.8,2.5
		c2,0,4.1,0,6.1,0c0.7,0.3,1.4,0.7,2.1,1c2.1,0.1,4.2,0.3,6.3,0.4c-0.1-0.3-0.2-0.5-0.3-0.8c2.8,0.1,5.6,0.3,8.4,0.4
		c10.1,1.7,21.7,0.4,31.3,3.2c4.7,0.1,9.5,0.3,14.2,0.4c-0.2,0.2-0.3,0.3-0.4,0.5c1.4-0.1,2.8-0.3,4.3-0.4
		c12.4,1.2,24.7,2.3,37.1,3.5c0.8,0.1,1.6,0.1,2.4,0.2c2.6-0.1,5.1-0.1,7.7-0.2c-1.4-1.6-5.1-2.4-7.4-3.7c2.3,1.3,6.1,2,7.4,3.7
		c1.9,0.7,4.2,0.8,6.5,0.6c1.3,0,2.7,0,4,0c2.7,0.2,5.4,0.3,8.1,0.5c2.6,0.7,5.4,1.2,8.5,0.9c2,0.1,4.1,0.3,6.1,0.4
		c6.7,1,13.7,1.5,20.7,1.7c1.3,0.1,2.6,0.2,4,0.3c2.7,0.8,5.5,0.7,8.4,0.2c1.3,0,2.6,0,3.8,0.1c20.5,1.6,41.1,3,61.8,0.6
		c1.4-0.1,2.7-0.3,4-0.4c4.5,0.6,8.5-0.3,12.7-0.8c1.9-0.3,3.9-0.7,5.8-1c4.7,1.1,9.8-0.1,14.5,0.6c1.9,0,3.7-0.1,5.6-0.1
		c0.5-0.6,1-1.2,1.5-1.8c-5.1-0.1-10.2-0.2-15.4-0.3c5.1,0.1,10.2,0.2,15.4,0.3c18.2,0.6,35.2-2.2,52.4-4.2c1.4-0.1,2.7-0.2,4.1-0.2
		c1.4,0,2.8,0.1,4.2,0.1c1.4,0,2.7,0,4.1,0c1.4,0,2.8,0,4.1,0c4.8,0.4,10.2-0.4,14.5,1c4.8,1.6,7.2,0.1,10.1-1.2
		c1.9,2.1,5.8,2.5,10,2.5c5.7-0.1,11.4-0.4,17.1-0.6c7.3-0.7,14.5-1.7,22.1-0.9c5.4,0.3,10.7,0.7,16.1,1c1.8,0,3.6,0,5.4,0
		c0.6-0.1,1.1-0.2,1.5-0.4c0.6,0.1,1.2,0.1,1.9,0.1c1.6-0.3,3.1-0.7,4.7-1c0.9-0.2,1.9-0.3,2.8-0.5c3.2-0.6,6.5-1.4,5.7-3.3
		c-1.1-2.6-5.4-0.8-8.2-1c-1-0.1-2-0.1-2.9-0.2c-2,0.7-4.1,1.3-6.1,2c-22.6-0.7-45.2-1.8-67.8-0.3c-1.9-0.3-3.8-0.7-5.7-1
		c-0.2-0.2-0.4-0.4-0.7-0.5c-2-0.1-5.4,0-5.8-0.5c-6.7-7.2-21.5-3.4-31.9-5.5c0,0-0.1,0-0.1,0c0,0,0.1,0,0.1,0
		c1.1-3.1,7.4-1.9,10.9-2.9c4.1,0.3,8.3,0.6,12.4,0.9c3.6,1.6,6.9-0.8,10.4-0.1l-0.3,0.4c6.9,0.1,13.8,0.1,20.7,0.2
		c2.2-0.2,4.4-0.4,6.6-0.5c2.3-0.1,4.7-0.3,5.6,1.1l0,0c3.4,0,6.9,0,10.3-0.1c2.8,0.4,5.5,0.8,8.3,1.2c1.7-0.3,3.3-0.6,5-0.9
		c-2-1.7,0.7-2,3.3-2.2c-0.5-0.6-0.7-1.3-1.2-2c0.5,0.7,0.7,1.3,1.2,2c0.8,0.2,1.6,0.5,2.4,0.7c0.6-0.1,1.2-0.3,1.7-0.5
		c2,0,3.9,0.1,5.9,0.1c0,0.3,0,0.5,0.2,0.8c1.3-0.4,2.6-0.8,3.9-1.2c0.7,0,1.5,0.1,2.2,0.1c0.8,0.1,1.6,0.2,2.4,0.3
		c0.4-0.2,0.6-0.5,0.8-0.7c-0.4-0.2-0.9-0.3-1.3-0.5c0,0,0,0,0,0c0.4,0.2,0.9,0.3,1.3,0.5c1.6-0.2,3.3-0.3,4.9-0.5
		c0.8-1.3,3-1.8,5.6-2.1c0.1-0.8,0.2-1.6,0.3-2.4c-3.9-0.2-4.8-1.9-6.1-3.4c15.8,0.3,31.6-1.9,47.4-2.8c0.5,0,1.1-0.3,1.3-0.7
		c1.8-3.3,4.6-2.4,7.3-2.1c2.2,0.2,4.6,0.9,6.5-0.7c0.7-0.7,1.5-1.1,2.3-1.3c1.4,0,2.9,0.1,4.3,0c0.2,0.1,0.5,0.1,0.7,0.2
		c5.1,1.7,10.1,0.8,15.2,0.9c1.3,0,2.5-0.1,3-1.4c2.1-4.9,5.8-6.8,10.5-7.6c1.8-0.3,2.9-2.2,3-4.1c0.2-1.8-1.5-2.3-2.8-2.6
		c-2.3-0.6-3.9-3.1-6.5-3.1c-1.7,1-3.4,2.3-5.2,0.3c-0.7,0-1.4,0-2.1,0c-2.1,1.8-4.2,0.5-6.3,0.1c-1.8,2-4,1.4-6.2,1.1
		c-1.6,1.5-2.7-0.6-4.1-0.7c-1.8,0.9-3.5,0.2-5-0.8c-0.7-0.3-1.4-0.5-2.1-0.8c-1.3,0.2-2.7,0.4-4,0.6c-1.1-0.1-2.2-0.2-3.2-0.4
		c-2,0.2-4,0.4-6.1,0.6c-2.4,1.1-4.9,0.7-7.3,0c-2.7,0-5.4,0-8.1,0c-0.7,0.6-1.4,0.6-2-0.2c-1.4-0.1-2.7-0.2-4.1-0.2
		c-0.9,0.3-1.6,0.1-2-0.9c-1.5-0.2-3.1-0.4-4.6-0.7c-0.6-0.3-1.2-0.5-1.8-0.8c-0.3-0.4-0.7-0.6-1.2-0.5c-0.1-0.1-0.3-0.1-0.4-0.2
		c-0.2,0-0.5,0-0.7,0.1c-1.1-0.4-2.2-0.7-3.3-1.1c-0.8,0.2-1.5,0.5-2.3,0.7c-0.1-0.2-0.1-0.5-0.1-0.7c-1.3-0.1-2.6-0.2-3.9-0.3
		c-0.7-0.2-1.5-0.4-2.2-0.6c-0.3,0-0.7-0.1-1-0.1c0,0,0,0,0,0c-0.2-0.3-0.5-0.4-0.8-0.5c-0.7,0.8-1.4,0.8-2.1,0.1
		c-1.3-0.2-2.7-0.4-4-0.5c-1.7,0.6-2.5-0.5-3.2-2c-0.6-0.1-1.3-0.2-1.9-0.3c-1.3,0.3-2.6,0.6-3.3,2.1c-0.3,0.1-0.6,0.3-0.9,0.5
		c-1-0.4-1.9-0.8-2.9-1.2c-0.4-0.1-0.7-0.3-1.1-0.4c-0.2,0.2-0.3,0.4-0.5,0.5c0.2-0.1,0.3-0.3,0.5-0.5c-1.1-0.1-2.1-0.3-3.2-0.4
		c-0.7,0-1.3,0-2,0c-1.7-0.1-3.5-0.2-5.2-0.2c-0.7-0.4-1.4-0.8-2.1-1.1c2.3-0.7,4.5-1,6.9,0.1c1.4,0,2.8,0,4.1,0
		c2.5-0.8,5.4-0.7,8.2-0.7c1.3-0.2,2.7-0.4,4-0.6c4.7-1,9.5-1.2,14.5-0.6c2,0.3,3.9,0.5,5.9,0.8c1.7-1.8,4.6-2.5,8.7-2.1
		c1.3-0.2,2.5-0.3,3.8-0.5c6.5-2.8,15.3-2.4,22.9-3.7c3.2-0.5,7.2-1.3,6.9-3.1c-0.4-2.5-5.3-1.3-8.2-1.6c-4.4-0.4-10,0.7-12.8-1.8
		c0.2-0.2,0.3-0.4,0.5-0.6c3.8-0.3,7.6-0.6,11.3-0.8c1.3,0,2.6,0,3.8,0c1.6-0.2,3.2-0.4,4.8-0.5c4.6,0,8.2-0.9,10.8-2.7
		c0.2,0.1,0.3,0.3,0.5,0.4c1.2-0.4,2.7-0.3,3.8-0.9c0.3,0,0.6,0,0.9-0.1c5.1,0.3,9.7,0.2,14.8-0.7c3.2-0.6,7.4-2.7,11.8-0.6
		c5.7-0.8,6-2.5,2.4-4.3c-0.9-0.4-1.7-0.9-2.5-1.4c0.8-0.6,1.5-1.2,2.3-1.8c1,1.3,2.1,1.8,3.8,1.3c1.4-0.5,3-0.2,3.2,2
		c0.7,0,1.3-0.1,2-0.1c-0.7-1.2,0.1-2,0.7-2.8c0,0,0,0,0,0c1.2-0.3,2.4-0.7,3.6-1c1-0.8,1.9-1.9,3-2.3c-1.1,0.4-2,1.5-3,2.3
		c0.7,0.6,1.3,1.1,2,1.7c0.7-0.6,1.3-1.1,2-1.7c0.4-0.6,0.9-1.3,1.3-1.9c1-0.1,2-0.1,3-0.2c0.5-0.5,0.9-1,1.4-1.5
		c0.6-0.1,1.3-0.3,1.9-0.4c0.4,0,0.7,0,1.1,0.1c0-0.3,0-0.7,0-1C1575.1,124.4,1578.6,121.7,1577.9,117.4z M752.9,30.6
		c0.5,1.2,2.9,2.1,4.6,3.1C755.8,32.7,753.4,31.8,752.9,30.6z M752.8,30.4c0,0.1,0,0.1,0.1,0.2C752.8,30.5,752.8,30.4,752.8,30.4z
		 M1478,146C1478,146,1478,146,1478,146c0.5-0.2,1-0.3,1.6-0.2v0C1479,145.8,1478.5,145.8,1478,146z M1474.4,146.1
		c-0.4-1-0.3-1.9-0.1-2.9c0,0,0,0,0,0C1474,144.1,1474,145.1,1474.4,146.1C1474.4,146.1,1474.4,146.1,1474.4,146.1z M661.1,75.1
		c-0.2,0-0.5,0-0.7,0.1C660.6,75.2,660.8,75.1,661.1,75.1c0.4,0,0.7,0.1,1.1,0.2c0,0,0,0,0,0C661.8,75.2,661.4,75.1,661.1,75.1z
		 M1396.2,165.4C1396.2,165.4,1396.2,165.4,1396.2,165.4c0.1-0.1,0.2-0.2,0.3-0.3c0,0,0,0,0,0
		C1396.4,165.2,1396.3,165.3,1396.2,165.4z M1335,160.9C1335,160.9,1335,160.9,1335,160.9c-0.1,0.2-0.3,0.4-0.4,0.6
		C1334.7,161.3,1334.8,161.1,1335,160.9z M1312.5,161.9c0.1,0,0.2,0,0.2,0.1C1312.7,161.9,1312.6,161.9,1312.5,161.9z M1312.7,162
		c0.1,0.1,0.2,0.2,0.3,0.4C1312.9,162.2,1312.8,162.1,1312.7,162z M1344.2,167c0.2-0.5,0.4-0.9,0.8-1.2
		C1344.6,166.1,1344.4,166.5,1344.2,167L1344.2,167z M1349,186.7C1349,186.7,1349,186.7,1349,186.7L1349,186.7
		C1349,186.7,1349,186.7,1349,186.7L1349,186.7z M932.9,190.9c0.3-0.2,0.5-0.4,0.8-0.6c0,0,0,0,0,0
		C933.5,190.5,933.2,190.7,932.9,190.9z M841.3,35.9L841.3,35.9C841.3,35.9,841.3,35.9,841.3,35.9L841.3,35.9
		C841.3,35.9,841.3,35.9,841.3,35.9z M844.8,35.2C844.8,35.2,844.8,35.2,844.8,35.2L844.8,35.2C844.8,35.2,844.8,35.2,844.8,35.2
		C844.8,35.2,844.8,35.2,844.8,35.2z M843.9,42L843.9,42L843.9,42L843.9,42L843.9,42z M844.7,35.8c-0.3,1.4-0.6,2.7-0.8,4.1
		C844.1,38.5,844.4,37.1,844.7,35.8C844.7,35.8,844.7,35.8,844.7,35.8z M843.9,40.1c0,0.1,0,0.1,0,0.2l0,0
		C843.9,40.2,843.9,40.2,843.9,40.1z M841.3,35.9L841.3,35.9c0.1,0.6,0.1,1.2,0.1,1.8C841.4,37.1,841.3,36.5,841.3,35.9z
		 M628.4,185.5c0.3,0.2,0.7,0.4,1,0.6C629.1,185.9,628.7,185.7,628.4,185.5C628.4,185.5,628.4,185.5,628.4,185.5z M1345.9,196.1
		c-0.2,0-0.5,0.1-0.7,0.1C1345.4,196.2,1345.7,196.2,1345.9,196.1z M1345.2,196.3c-0.3,0.1-0.5,0.2-0.7,0.4
		C1344.7,196.5,1344.9,196.4,1345.2,196.3z M1511.7,114.8c-1.7-2.4-4.4-3.9-5.1-6.9c-2.1-0.6-2.9,0.4-3.4,1.7
		c0.5-1.3,1.3-2.3,3.4-1.7C1507.2,110.9,1509.9,112.4,1511.7,114.8c0.3,0.5,0.7,1,0.9,1.6C1512.3,115.8,1512,115.3,1511.7,114.8z
		 M1445.2,78.4c0-0.1,0-0.3,0.1-0.5C1445.2,78.1,1445.2,78.3,1445.2,78.4z M829.5,33c0.7,0.2,1.3,0.5,1.8,0.9
		C830.7,33.5,830.1,33.2,829.5,33C829.5,33,829.5,33,829.5,33z M835.9,36.2C835.9,36.2,835.9,36.2,835.9,36.2c-1.4,0-2.9,0.7-4.3,0
		C833,36.9,834.5,36.2,835.9,36.2z M832.2,43C832.2,43,832.2,43,832.2,43L832.2,43c0.9-0.2,1.7-0.3,2.5-0.4c0.4,0.1,0.8,0.2,1.2,0.4
		c0.4-0.1,0.9-0.1,1.3-0.2c0,0,0,0,0,0c-0.4,0.1-0.9,0.1-1.3,0.2c0,0,0.3,0.3,0.3,0.3c-3.8,0.1-6.2,1.4-8.9,2.4
		c-0.5-0.1-1.1-0.1-1.6-0.2c0.2-0.7,0.4-1.5,0.5-2.2l0,0c0,0,0,0,0,0c0,0,0,0,0,0h0l0,0c0.3,0,0.6,0,0.9,0
		C828.9,44.3,830.6,43.7,832.2,43z M1056.5,209.3C1056.5,209.3,1056.5,209.3,1056.5,209.3C1056.5,209.3,1056.5,209.3,1056.5,209.3z
		 M1126.6,216.9c-0.5-0.1-0.9-0.2-1.3-0.3C1125.8,216.7,1126.2,216.8,1126.6,216.9z M1128.8,217.1c-0.5,0-1-0.1-1.5-0.1
		C1127.8,217,1128.3,217.1,1128.8,217.1z M1526.9,104.9c2.2,3,4.8,7.8,4.8,9c0,0.7-0.2,1.7-0.6,2.1c0.4-0.4,0.6-1.4,0.6-2.1
		C1531.8,112.7,1529.1,107.9,1526.9,104.9z M1392.9,65.1c0.1,0.5,0.2,1,0.2,1.5c-1.6,3-3.2,3.5-4.1-0.4c0,0,0,0,0-0.1
		C1390.4,65.8,1391.6,65.5,1392.9,65.1z M1218.2,44c0.2,0.4,0.4,0.7,0.5,1.1C1218.6,44.7,1218.4,44.3,1218.2,44z M1216,36.5
		C1216,36.5,1216,36.5,1216,36.5c-0.3,0.4-0.6,0.9-1,1.3C1215.3,37.4,1215.6,37,1216,36.5z M1126.9,35c-0.6-0.1-1.1-0.3-1.7-0.6
		C1125.8,34.7,1126.3,34.9,1126.9,35z M822.9,32.8c0.6-0.1,1.2-0.1,1.8-0.2c0,0,0,0,0,0C824.1,32.6,823.5,32.7,822.9,32.8
		c1.4,2,4.1,2.8,8,2.7c-0.1,0-0.1,0.1-0.2,0.1c-3.7-0.3-7.5-0.5-11.2-0.8c0-0.5,0-1,0.1-1.4C820.7,33.2,821.8,33,822.9,32.8z
		 M798.8,34L798.8,34c0.1,0,0.2-0.1,0.2-0.1C798.9,33.9,798.8,33.9,798.8,34z M809.3,33.3c-1-0.2-2-0.4-3-0.6
		c-0.1-0.2-0.2-0.3-0.3-0.5c2.1-0.5,4.2-0.3,6.2,0.1c0,0,0,0,0,0c0.9,0.8,1.4,2,2.7,2.2c-0.8,0.1-1.7-0.2-2.6-0.8
		C811.3,34,810.2,33.9,809.3,33.3z M812.2,40.2C812.2,40.2,812.1,40.2,812.2,40.2C812.1,40.2,812.2,40.2,812.2,40.2z M764.9,47.3
		c0.2,0,0.5,0,0.7,0C765.3,47.3,765.1,47.3,764.9,47.3z M619.4,49.4c0.2,2.9-0.4,5.8,1.3,8.6c0.3,0.5,0.7,1,1.1,1.5
		c-0.5-0.5-0.8-1-1.1-1.5C619,55.2,619.6,52.3,619.4,49.4C619.4,49.4,619.4,49.4,619.4,49.4z M630.2,49.1c-0.3,0.1-0.5,0.1-0.8,0.2
		C629.7,49.3,630,49.2,630.2,49.1z M628.1,49.5c0,0-0.1,0-0.1,0C628,49.5,628,49.5,628.1,49.5z M567.5,44.2c0-0.1,0-0.1,0-0.2
		C567.5,44.1,567.5,44.1,567.5,44.2z M567.3,42.6c0,0.2,0.1,0.4,0.1,0.6C567.3,42.9,567.3,42.7,567.3,42.6z M567.4,43.2
		c0,0.1,0,0.2,0.1,0.2C567.4,43.4,567.4,43.3,567.4,43.2z M567.5,43.6c0,0,0,0.1,0,0.1C567.5,43.7,567.5,43.6,567.5,43.6z
		 M543.6,72.4c2.1,0.2,4.1,0.3,6.2,0.5c2.7-0.4,5.4-0.7,8.1-0.2c2,0,4.1,0,6.1-0.1c11.2-1.1,22.4,0.1,33.5,0.4c8,0.2,16,1,24,0.5
		c1.4-0.2,2.9-0.4,4.3-0.6c4.1-0.2,8.1,0,12.1,0.5c1.5-0.2,2.9-0.3,4.4-0.5c3.4-0.4,6.8-0.3,10,0.5c0,0,0,0,0,0
		c1.3,0.7,2.7,0.9,4.3,0.3c0.1,0,0.1,0,0.2,0c0.3,0.2,0.6,0.4,1,0.6c0.3,1,1,1.2,1.8,1.3c0.1,0.2,0.3,0.4,0.4,0.6
		c-0.6,0.3-1.2,0.6-1.4,1c-2,0.1-4.1,0.2-6.1,0.2c-2.7-0.8-5.4-0.8-8.1,0c-16.3,0.1-32.4,2.1-48.8,0.3c-3.6-0.4-7.4-0.1-10.9,0.6
		c-4.8,0-9.6,0-14.4,0c-2.9,0.2-5.8,0.3-7.3,1.7c-2.3,0.1-4.6,0.1-6.9,0.2c0-0.3-0.1-0.5-0.2-0.7c-2.7,0-5.4,0-8.2,0
		c-0.7,0.2-1.4,0.3-2.1,0.5c-3.4,0.2-6.8,0.5-10.2,0.7c-6.2-0.1-12.3-0.1-18.5-0.2c-1.4-0.4-2.9-0.8-4.3-1.3
		c-3.5,0.3-6.5,0.1-8.5-1.5c-2.9-0.5-5.4,0.1-7.8,0.6c-0.7-0.1-1.3-0.3-2-0.4c0,0,0,0,0,0c-4.1-0.1-8.3-0.2-12.4-0.3
		c-3.4,0-6.8,0-10.2-0.1c-1.2-0.1-2.3-0.3-3.5-0.4c-0.2-0.6-0.4-1.1-0.6-1.7c8.6-1.1,20.4,1.8,25-4.3c1,0,2.1,0,3.1,0.1c0,0,0,0,0,0
		c1,4.5,9,1.6,13.1,2.8c1.3-0.1,2.7-0.2,4-0.3c0.1-0.3,0.1-0.6,0.1-1c1.9-0.2,3.9-0.4,5.8-0.7C527.1,69.8,535.3,72.5,543.6,72.4z
		 M570.4,195.8c1.1-0.4,2.3-0.7,3.4-1.1C572.7,195.1,571.5,195.5,570.4,195.8l-0.3,0.2L570.4,195.8z M459.2,70.8
		C459.2,70.8,459.2,70.8,459.2,70.8c0.1-1.2,1.5-2.9,0.2-3.8C460.7,67.9,459.4,69.6,459.2,70.8z M457.7,66.4c0.5,0.1,1,0.2,1.3,0.3
		C458.7,66.6,458.2,66.5,457.7,66.4z M385.3,179c-0.2,0.1-0.4,0.1-0.6,0.2C384.9,179.1,385.1,179.1,385.3,179z M383.7,179.6
		c-0.4,0.1-0.7,0.3-1,0.4C383,179.9,383.3,179.7,383.7,179.6z M341,45.7c0.5,0,0.8,0,1.1,0.1C341.8,45.7,341.5,45.7,341,45.7
		c-1.7,0.4-2.6,1-2.4,1.9C338.4,46.7,339.3,46.1,341,45.7z M381.3,180.7c-1.5,0.9-2.6,1.9-2.8,3.3c4.1,1.3,8.2,2.6,12.4,3.9
		c-4.1-1.3-8.2-2.6-12.4-3.9C378.7,182.6,379.7,181.5,381.3,180.7z M299.9,183.9c-3.9-0.1-4.8,1.5-6.4,2.7
		C295.1,185.4,296,183.8,299.9,183.9c0.1-0.2,0.3-0.3,0.4-0.5C300.2,183.5,300,183.7,299.9,183.9z M293.1,186.8
		c-0.3,0.2-0.6,0.3-1,0.5C292.5,187.2,292.8,187,293.1,186.8z M308.6,182c0.7,0.1,1.4,0.2,2.1,0.2C310,182.2,309.3,182.1,308.6,182
		c-0.7,0-1.5,0-2.2,0C307.1,181.9,307.8,182,308.6,182z M284.4,192c3.6,0,5.8-1.6,9.1-2C290.2,190.3,288,192,284.4,192l-0.2,0.1
		C284.2,192.1,284.4,192,284.4,192z M308.2,193.5C308.2,193.5,308.2,193.5,308.2,193.5C308.2,193.5,308.2,193.5,308.2,193.5z
		 M372.5,190.4C372.5,190.4,372.5,190.4,372.5,190.4c-4.8,0.1-9-2.6-13.3-2.3C363.5,187.9,367.7,190.6,372.5,190.4z M383.1,190
		c1.9-0.1,3.8-0.2,5.7-0.3C386.9,189.8,385,189.9,383.1,190c-2.4,1.6-5.1,1.2-7.9,0.8C378,191.3,380.7,191.6,383.1,190z
		 M392.6,191.5c1.2,0.2,2.4,0.3,3.7,0.3C395,191.8,393.7,191.7,392.6,191.5c-0.6-0.1-1.1-0.3-1.7-0.5
		C391.4,191.2,392,191.4,392.6,191.5z M403.1,191.8c0.1,0,0.2,0,0.4,0C403.4,191.8,403.2,191.8,403.1,191.8
		c-1.2-0.1-2.5-0.1-3.7-0.1C400.6,191.7,401.9,191.7,403.1,191.8z M328.3,47.4c0.3-0.1,0.7-0.1,1-0.2
		C329,47.3,328.6,47.3,328.3,47.4z M285.6,46.1c-0.7-0.7-1-1.9-1.6-3.8c0,0,0,0,0,0C284.5,44.2,284.9,45.5,285.6,46.1z M125.8,128
		c3.1-3.7,9.4-6.8,1.3-10.2C135.2,121.2,128.9,124.3,125.8,128z M125.4,128.5c-0.3,0.3-0.5,0.7-0.6,1
		C124.9,129.2,125.1,128.9,125.4,128.5z M125.9,117.3c0.2,0.1,0.4,0.1,0.6,0.2C126.2,117.5,126.1,117.4,125.9,117.3z M168.6,97.1
		c0.4,0.2,0.8,0.3,1.3,0.4C169.4,97.4,169,97.2,168.6,97.1C168.6,97.1,168.6,97.1,168.6,97.1z M188.5,77.7c0.4-0.3,0.6-0.7,0.7-1.1
		c-0.1-0.8-0.6-1.4-2.2-1.4c1.6,0,2.1,0.6,2.2,1.4C189.1,77,188.9,77.3,188.5,77.7z M170.7,30.6c-0.3,1-1.5,2.2-1.1,3.2
		C169.2,32.8,170.4,31.6,170.7,30.6C170.7,30.6,170.7,30.6,170.7,30.6c1.4,0,2.7,0,4.1,0c2.3-0.7,6.4,0.6,8.8,0
		c-2.3,0.6-6.5-0.6-8.8,0C173.5,30.6,172.1,30.6,170.7,30.6z M157.9,66C157.9,66,157.9,66,157.9,66c0.3-0.2,0.7-0.4,0.9-0.6
		C158.6,65.6,158.2,65.8,157.9,66z M248.3,194.3c-0.1,0-0.2-0.1-0.2-0.1C248.1,194.2,248.2,194.2,248.3,194.3z M248.4,194.3
		c0.1,0,0.1,0,0.2,0.1C248.5,194.4,248.5,194.4,248.4,194.3z M253,194.7C253,194.7,253,194.7,253,194.7c0.4-0.9,1.1-1.8,1.4-2.7
		C254.2,192.8,253.4,193.8,253,194.7z M520.2,217.5c-0.1,0-0.2,0-0.2,0.1C520.1,217.6,520.1,217.6,520.2,217.5z M648.3,201.9
		c-2.1,0.2-4.2,0.3-6.4,0.5c-3.3,1-6.7,1.1-10.2,0.1c-1.4,0-2.8,0-4.2,0c-4.6,1.3-9.5,1.1-14.5,0.7c-4,0.3-8,0.6-12,0.9
		c-1.4,0-2.9-0.1-4.3-0.1c-8.2-0.8-16.3-0.7-24.5,0.1c-1.2,0.9-2.5,1.3-3.9,1.1c1.4,0.2,2.7-0.2,3.9-1.1c-2.1,0.1-4.3,0.1-6.4,0.2
		c-6.9-0.6-13.7-0.1-20.4,0.4c-8.9-1.9-17.9,1.5-26.8-0.2c0.1,0.3,0.1,0.7,0.2,1c-1.4,0.2-2.7,0.3-4.1,0.5c-0.5,0.6-0.6,1.1-0.6,1.5
		c-0.1-0.4,0.1-0.9,0.6-1.5c-7.1-2-16.3,1-22.8-2.2c-0.6,0.1-1.3,0.1-1.9,0c-4,0.8-8.3,0.8-12.5,0.6c-2.7,0.8-5.2,0.7-7.3-0.5
		c-0.4,0.1-0.7,0-1-0.1c-0.6,0.1-1.2,0.1-1.8-0.1c-5.1,0.1-10.2,0.2-15.3,0.2c-4.9,2.5-10.4,0.5-15.6,0.5c-7.2,0.3-11.5,5-20.2,2.9
		c-2.1,0-4.2,0-6.4,0l0,0c2.1,0,4.2,0,6.4,0c0.6-1.3,1.3-2.6,1.9-3.9l0.1-0.3c-2.9,0.4-5.9,0.8-8.8,1.3c-0.6,0.7-1.2,1.4-1.8,2
		c0,0,0,0,0,0c-3.3,0.3-3.6-0.9-4.1-1.9c-2-0.4-4.1-0.7-6.1-1.1c-3.3,0.1-6.6,0.3-9.9,0.4c-4.9-0.2-9.8-0.4-14.6-0.5
		c-2.9,0.2-6.1,0.2-8.4,1.3c3.9,0.6,7.9,0.9,11.7,0.9c-3.8,0.1-7.8-0.3-11.7-0.9c-2.6,0-4.7-0.5-6.1-1.5c-2.7,0-5.4,0-8.1,0.1
		c-0.3,0.9-0.5,2-3,2c-1.5,0-1.6-0.9-1.3-1.5c-4-0.5-8-1-12-1.6c-1.7,0-3.3-0.1-5-0.1c-1.9,0.2-3.8,0.4-5.6,0.6
		c-1.3,0.8-2.7,1-4.1,0.1c-1.3-0.2-2.5-0.3-3.8-0.5c-2.4,0.9-4.8,1.5-7.2-0.1c-1,0-1.9-0.1-2.9-0.1c-3.2,1.4-6.2,2.3-9-0.3
		c-10.4-0.2-21,0.4-30.8-2c0.7-1,1.3-2.1,2-3.1c1.4-0.3,2.8-0.5,4.3-0.8c1.3,0,2.7-0.1,4-0.1c8.9,1.2,17.9-1.3,26.8,0.2
		c1.9-0.1,3.9-0.2,5.8-0.3c0.1-0.3,0.2-0.5,0.3-0.8c-0.3-0.3-0.4-0.6-0.4-0.9c0,0.3,0.2,0.6,0.4,0.9c5.7-2.2,11.6-3.4,18.5-1
		c1.4,0,2.7,0.1,4.1,0.1c0.5-0.2,1.1-0.3,1.8-0.4c4.4,0.2,8.7,0.5,13.1,0.7c0.6-0.1,1.2-0.1,1.7-0.2c13.8-0.8,27.4-0.2,41,0.9
		c1.5,0,3,0,4.5,0c0.3-0.1,0.6-0.2,0.9-0.4c0,0.1,0,0.3,0.1,0.4l0.6,0.2c9-0.9,18.8,1.4,27.2-1.6c0.8-0.2,1.6-0.4,2.4-0.5
		c0,0,0,0,0,0c0.7,0.6,1.7,1,3.4,0.9c-0.4,0.2-0.5,0.4-0.4,0.6c0,0,0,0,0,0c2.2,1.4,5.8,1.3,8.8,1.8c0.7-0.3,1.3-0.5,2-0.8
		c2,0.2,4,0.3,6,0.5c2.8,0,5.6-0.1,8.3-0.1c2.1,0.1,4.2,0.2,6.3,0.3l0.2-0.3l0-0.3c1.1,0,2.2,0.1,3.2,0.1c0,0,0,0,0,0
		c3,1.8,7.4,0.7,11,1.2c-0.1-0.4-0.2-0.7-0.3-1.1c3.4,0.1,6.8,0.1,10.3,0.2c4.6,1.2,9.8,0,14.5,0.9c2.8-0.4,5.5-0.8,8.3-1.2
		c1.3,0.2,2.7,0.3,4,0.5c2.7-0.1,5.4-0.2,8.2-0.2c3.4,0.3,6.9,0.7,10.3,1c2-0.1,4.1-0.2,6.1-0.2l-0.1,0c0.1-0.3,0.2-0.6,0.2-0.9
		c2.8,0.3,5.6,0.6,8.4,0.9c1.3-0.2,2.5-0.5,3.8-0.7c-0.1,0.3-0.2,0.5-0.2,0.8c1.6,0,3.2,0.1,4.8,0.1c0-0.3,0-0.5-0.1-0.8
		c1.3,0,2.6-0.1,3.9-0.1c4.1,0.2,8.2,0.4,12.3,0.6c0.8-0.1,1.5-0.3,2.3-0.4l0,0c10.9,1.1,21.9,0.3,32.8,0c2-0.1,4.1-0.2,6.1-0.3
		c4.4,1.4,9.7,0.5,14.4,1.2c2-0.4,4.1-0.7,6.1-1.1c3.5,0,6.9-0.1,10.4-0.1c2.3,0.4,4.2,0,6.2-0.5c0.7,0.3,1.4,0.6,2.1,0.8
		c0.5,0,1,0,1.5,0c0.2,1.6,1,3.7,2,5.6C650.5,201.8,649.4,201.9,648.3,201.9z M716,215.1c0.9,0.1,1.7,0.3,2.6,0.5
		C717.7,215.4,716.8,215.2,716,215.1z M753.1,199.9c-1.3,0.4-2.7,0.7-4,1.1c-4.4,1.3-7.4-0.1-10.6-1.3c-18.1,2.1-36.4,2.3-54.8,2.2
		c1.2-0.6,2.5-1,3.8-1.6c3,0.6,4.9-1.7,7.1-3.2c0.2-0.6,0.3-1.1,0.5-1.7c4.9,0,9.8,0,14.7,0c5.4,0.1,10.9,0.2,16.3,0.4
		c5.1,1.7,11.1,0,16.4,1.1c2,0,4.1,0.1,6.1,0.1c2.1-0.1,4.2-0.2,6.3-0.3c6.5,0.1,13,0.2,19.5,0.4c0,0,0,0,0,0
		c0.5,0.6,0.9,1.1,1.4,1.7c-0.8,0.3-1.6,0.6-2.4,0.9c-2,0-4.1,0.1-6.1,0.1C762.6,199.1,758,203.2,753.1,199.9z M814.8,213.2
		c0.8-0.1,1.7-0.3,2.5-0.4C816.5,212.9,815.7,213,814.8,213.2C814.8,213.2,814.8,213.2,814.8,213.2z M990.6,211
		c0.1-0.3,0.2-0.7,0.3-1C990.9,210.3,990.8,210.7,990.6,211z M991.2,208.9c0.4-1.6,1.1-3.1,4.5-4.1c0,0,0,0,0,0
		C992.3,205.9,991.6,207.4,991.2,208.9z M1055.3,211.4c0.3-0.2,0.6-0.4,0.8-0.6c0.3-0.3,0.6-0.6,0.6-0.9c-0.1,0.3-0.3,0.6-0.6,0.9
		C1055.8,211,1055.6,211.2,1055.3,211.4z M1129.6,217.2c0.8,0,1.6,0.1,2.3,0.1C1131.2,217.3,1130.4,217.2,1129.6,217.2z M1132,217.3
		c3.4,0.2,6.6,0.5,6.9,2.2C1138.6,217.8,1135.4,217.5,1132,217.3z M1137.9,222.3C1137.9,222.3,1137.9,222.3,1137.9,222.3
		c2.5-0.1,5-0.2,7.5-0.4C1142.9,222.1,1140.4,222.2,1137.9,222.3z M1327.6,210.2c0,0.1,0.1,0.2,0.2,0.3
		C1327.7,210.4,1327.7,210.3,1327.6,210.2z M1382.3,203.2c-0.4-0.1-0.8-0.3-1.3-0.4C1381.5,202.9,1381.9,203.1,1382.3,203.2
		C1382.4,203.2,1382.4,203.2,1382.3,203.2z M1389.6,197.1C1389.6,197.1,1389.6,197.1,1389.6,197.1
		C1389.6,197.1,1389.6,197.1,1389.6,197.1z M1389.9,196.8c0.9-1,2.7-1.8,5-2.5c0,0,0,0,0,0C1392.6,195,1390.7,195.8,1389.9,196.8z
		 M1371.4,190.3c1.3-0.1,2.7-0.2,4,0c0.7,0,1.3,0.1,2,0.1c1.2,0.5,2.3,0.4,3.1-1c0.7-0.1,1.4-0.2,2.1-0.2c1,0.5,2.1,1,3.1,1.5
		c0.7,0.1,1.3,0.2,2,0.3c0.7,0,1.4,0.1,2.1,0.1c0.7,0,1.3,0.1,2,0.1c0.7,0,1.4,0,2.1,0.1c1.4,0.2,2.7,0.4,4.1,0.6
		c0.6,0.3,1.3,0.5,1.9,0.8c-0.3,0-0.7,0-1,0.1C1389.7,192,1380.6,191.2,1371.4,190.3z M1421.8,202.6c0.2,0.2,0.3,0.3,0.5,0.5
		C1422.1,202.9,1422,202.7,1421.8,202.6z M1427,201.9c-0.1,0.4-0.1,0.7-0.1,1.1C1426.8,202.6,1426.9,202.3,1427,201.9
		c0.4-1.8,1.9-3.6,2.6-5.5c0,0,0,0,0,0C1428.9,198.3,1427.4,200,1427,201.9z M1443.7,199.7c-0.1,0.4-0.2,0.8-0.4,1.3
		C1443.5,200.6,1443.6,200.1,1443.7,199.7s0.1-0.8,0.1-1.3C1443.8,198.9,1443.8,199.3,1443.7,199.7z M1429.6,164.1
		C1429.6,164.1,1429.7,164.1,1429.6,164.1C1429.7,164.1,1429.6,164.1,1429.6,164.1z"/>
	<path class="st1" d="M1475.8,65.5c0.2,0.9,0.2,2.5,1.4,2.4c0.5,0,1.1-1.2,1.4-1.9c0.4-1.1-0.3-1.6-1.4-1.9
		C1476.7,64.2,1475.6,64.2,1475.8,65.5z"/>
	<path class="st1" d="M1595.5,117.1c-3.9-2.8-7.6-0.4-11.4,0.5c-0.7,0.1-1.4,0.1-2.2,0.2c-1-1.6-2.1-2.7-3.9-1.5
		c-0.1,0.3-0.1,0.7-0.1,1.1c0.7,4.3-2.8,7-3.7,10.8c0,0.3,0,0.7,0,1c1,0,2,0.1,3,0.1c2.2-0.1,4.6,0.4,5.6-2.7c1.8-0.5,3-1.8,4-3.6
		c1-0.3,2-0.4,2.4-1.7c2.1-0.5,4.2-1,6.2-1.5C1597.6,119.1,1597.4,118.1,1595.5,117.1z M1580.7,126.5
		C1580.7,126.5,1580.7,126.5,1580.7,126.5c0.1-2.8,2.6-4.5,3.3-7C1583.3,122.1,1580.8,123.7,1580.7,126.5z"/>
	<path class="st1" d="M832.5,17.9C832.5,17.9,832.5,17.9,832.5,17.9l0.3-0.2L832.5,17.9z"/>
	<path class="st1" d="M1517.2,151.1c1.5,0.3,2.9,0.7,4.4,1c2.7-0.5,7,0.4,7.9-1.8c0.6-1.5-2.1-1.7-4.1-2.1
		C1522.6,149.2,1514.2,146.5,1517.2,151.1z"/>
	<path class="st1" d="M625.9,72.9c-1.4,0.2-2.9,0.4-4.3,0.6C624.3,75.3,625.3,74.5,625.9,72.9z"/>
	<path class="st1" d="M642.4,72.9c-1.5,0.2-2.9,0.3-4.4,0.5C640,74.3,641.4,74,642.4,72.9z"/>
	<path class="st1" d="M716.2,218.1C716.2,218.1,716.2,218.1,716.2,218.1c-0.1,0-0.1,0-0.2,0L716.2,218.1z"/>
</g>
</svg>
