<?xml version="1.0" encoding="utf-8"?>
<!-- Generator: Adobe Illustrator 23.0.6, SVG Export Plug-In . SVG Version: 6.00 Build 0)  -->
<svg version="1.1" id="Layer_1" xmlns="http://www.w3.org/2000/svg" xmlns:xlink="http://www.w3.org/1999/xlink" x="0px" y="0px"
	 viewBox="0 0 680 409.3" style="enable-background:new 0 0 680 409.3;" xml:space="preserve">
<style type="text/css">
	.st0{fill:#C1E7E8;}
</style>
<g>
	<path class="st0" d="M358.6,60.7c-0.1-0.2-0.9-1.6-1.2-0.8C357.2,60.4,359.1,62.2,358.6,60.7z"/>
	<path class="st0" d="M343.7,67c-0.3-0.7-1.5-2.2-1.8,0C341.7,68.1,344,67.6,343.7,67z"/>
	<path class="st0" d="M435.7,70.4c-0.5-1.5-1.5-2.2-1.9-0.8C433.9,71.5,435.1,70,435.7,70.4z"/>
	<path class="st0" d="M503.2,68.3c-0.2,0-0.5,0-0.7,0c0.1,0.6,0.1,1.1,0.2,1.7c0.2,0,0.5,0,0.7,0C503.3,69.4,503.2,68.8,503.2,68.3z
		"/>
	<path class="st0" d="M432.7,70.5c-0.1-0.2-0.9-1.6-1.2-0.8C431.4,70.2,433.2,72,432.7,70.5z"/>
	<path class="st0" d="M340.8,71.4C339.8,73.6,342.9,73.4,340.8,71.4L340.8,71.4z"/>
	<path class="st0" d="M339.1,72.3C340.5,75.4,340.1,69.6,339.1,72.3L339.1,72.3z"/>
	<path class="st0" d="M235.8,73.4c-0.2,0-0.5,0-0.7,0c0.1,0.6,0.1,1.1,0.2,1.7c0.2,0,0.5,0,0.7,0C235.9,74.5,235.9,74,235.8,73.4z"
		/>
	<path class="st0" d="M468.4,69.8c-0.2,0-0.5,0-0.7,0c0.1,0.6,0.1,1.2,0.2,1.7c0.2,0,0.5,0,0.7,0C468.5,70.9,468.4,70.4,468.4,69.8z
		"/>
	<path class="st0" d="M427.3,74.9c0.6-0.2,0.7-1.5,0.4-3.5c-0.8-0.3-0.9,0.6-1.4,0.9C426.5,73.5,427.1,73.7,427.3,74.9z"/>
	<path class="st0" d="M468.3,73.2C466.2,70.2,466.5,75.5,468.3,73.2L468.3,73.2z"/>
	<path class="st0" d="M434.9,73.9C436.3,77,435.9,71.3,434.9,73.9L434.9,73.9z"/>
	<path class="st0" d="M564.8,74C563.1,71,563.1,76.4,564.8,74L564.8,74z"/>
	<path class="st0" d="M348.6,79.9c-0.3-0.9-0.9-0.9-1-2.6C346.5,77.8,347.4,80.6,348.6,79.9z"/>
	<path class="st0" d="M487.1,77.2C484.7,74.1,485.7,79.4,487.1,77.2L487.1,77.2z"/>
	<path class="st0" d="M270.6,83.1c-0.3-1.1-0.6-1.8-1.3-1.7C269.6,82.4,269.9,83.1,270.6,83.1z"/>
	<path class="st0" d="M269.6,84.8C270.6,82.8,268,81.4,269.6,84.8L269.6,84.8z"/>
	<path class="st0" d="M417,82.9c0-1.4-2.1-1.2-1,0.9C415.8,83.4,417,82.8,417,82.9z"/>
	<path class="st0" d="M84.3,105.7c0-1.5-2.2-1.5-1.4,0.9C83.7,106.9,83.8,105.9,84.3,105.7z"/>
	<path class="st0" d="M77.8,107.5c-0.9,0.1-1.9,0.2-1.6,2.6c0.6-0.1,0.9,1,1.5,0.8C77.6,109.4,78.1,109.1,77.8,107.5z"/>
	<path class="st0" d="M128.6,110.9c-0.9-1-1.4-3.2-2.5-3.4C126.6,109.6,127.2,111.2,128.6,110.9z"/>
	<path class="st0" d="M73.7,114.5C75.1,117.7,74.7,111.9,73.7,114.5L73.7,114.5z"/>
	<path class="st0" d="M63.7,117.3c-0.5-2.6-0.7,0.8-1.5,0C62.5,119.4,63.5,117.5,63.7,117.3z"/>
	<path class="st0" d="M65.5,125c-0.7-2.5-1.8,0.3-2.1,0.9C64.3,128.7,64.1,123.7,65.5,125z"/>
	<path class="st0" d="M88.4,126.3c-0.8-0.3-1.1,0.2-0.9,1.7C88,125.6,88.9,131.5,88.4,126.3z"/>
	<path class="st0" d="M53.2,139.1c1.4,0.6,1.4-1.5,2.9-0.9c-0.1-0.8-0.5-0.7-0.8-0.8c0.2-0.8,0.2-2,0-3.5c-0.3-0.2-0.3,0.3-0.3,0.9
		c0.1,2.2-0.7-1.2-1.5,0C54.4,138,52.7,136.4,53.2,139.1z"/>
	<path class="st0" d="M53.3,135.6c-0.5-2.5-0.8,1.1-1.8,0C52,138.6,52.6,136.2,53.3,135.6z"/>
	<path class="st0" d="M80.2,136.8c0.4,0,0.7,0,1.1,0c-0.1-0.6-0.1-1.2-0.2-1.7c-0.4,0-0.7,0-1.1,0C80.1,135.7,80.2,136.2,80.2,136.8
		z"/>
	<path class="st0" d="M48.8,142.6c-0.1-0.7,0.1-0.8,0.3-0.9c0-1.7-1.8-1.2-1,0.9C48.3,142.6,48.5,142.6,48.8,142.6z"/>
	<path class="st0" d="M70.1,142.2c-0.5,0.3-0.4,1.5-0.9,1.8C69.5,146.1,70.5,144,70.1,142.2z"/>
	<path class="st0" d="M50.1,145.2c0.4,2.4,1.2,0,0.6-1.7C50.3,143.6,50.6,145.1,50.1,145.2z"/>
	<path class="st0" d="M45.3,145.3C46.7,148.4,46.3,142.6,45.3,145.3L45.3,145.3z"/>
	<path class="st0" d="M45,145.3c-1-0.3,0,3.2-0.8,3.5C45.1,151.5,45,146.6,45,145.3z"/>
	<path class="st0" d="M26,155.1C24.6,152,25,157.8,26,155.1L26,155.1z"/>
	<path class="st0" d="M26,159.4c0.1,1.9,1.3,0.4,1.9,0.8C27.9,158.4,26.6,159.9,26,159.4z"/>
	<path class="st0" d="M82.8,160.9C81.7,163.6,84.2,163.8,82.8,160.9L82.8,160.9z"/>
	<path class="st0" d="M23.6,184.5c-0.4-1.5-0.7-0.1-1.1,0C22.9,186.1,23.2,184.7,23.6,184.5z"/>
	<path class="st0" d="M649.8,184.6c-0.4,0-0.7,0-1.1,0c0.1,0.6,0.1,1.2,0.2,1.7c0.4,0,0.7,0,1.1,0
		C649.9,185.7,649.9,185.2,649.8,184.6z"/>
	<path class="st0" d="M646.6,185.5C648,188.7,647.6,182.9,646.6,185.5L646.6,185.5z"/>
	<path class="st0" d="M25,250.1c0.4-0.2,0.1-1.7,0.6-1.7C25,246.1,24,249.1,25,250.1z"/>
	<path class="st0" d="M37.1,254.2c-0.7,0.5-0.7,1.4-0.1,2.6c0.2,0,0.5,0,0.7,0C37.5,256.1,37.2,255.4,37.1,254.2z"/>
	<path class="st0" d="M649.5,248.5C649.6,252.5,651.4,250,649.5,248.5L649.5,248.5z"/>
	<path class="st0" d="M49.9,277.3c0.1,2.7,1.2,3.1,1.6,1.7C51.3,277.5,50.8,277,49.9,277.3z"/>
	<path class="st0" d="M585.3,278.2c-0.2,0-0.5,0-0.7,0c0,1.8,0.7,1.6,1.3,1.7C585.7,279.2,585.4,279.1,585.3,278.2z"/>
	<path class="st0" d="M57.8,290.9c-0.2-1.9-1.6-0.3-2.3-0.8C55.8,292,57.2,290.4,57.8,290.9z"/>
	<path class="st0" d="M62.4,296.9c0.8,0.1,1.1-0.7,0.9-2.6c-0.4,0-0.7,0-1.1,0C62.3,295.2,62.4,296,62.4,296.9z"/>
	<path class="st0" d="M558.4,289.1c-0.2,3.8,1.4,2.3,2.4,2.5c-0.3-0.7-0.5-1.4-0.6-2.6C559.7,290.7,559.3,289.2,558.4,289.1z"/>
	<path class="st0" d="M512.3,291.7C509.6,288.9,511,294.4,512.3,291.7L512.3,291.7z"/>
	<path class="st0" d="M68.8,301.9c0.3,2.6,2.4,2.3,1.8-0.9C70.1,302.7,69.4,300,68.8,301.9z"/>
	<path class="st0" d="M572.3,292.3c-1.8-0.7,0.5,2.8-0.5,2.6c0.2,1.2,1,0.7,1.6,0.8C573.1,294.4,572.1,295,572.3,292.3z"/>
	<path class="st0" d="M586.4,293.7c0.6,3.1,0.9,0.1,2.3,0.8C588.1,292.2,587.1,293.5,586.4,293.7z"/>
	<path class="st0" d="M584.1,292.9c-0.4,0.4-0.7,1.1-0.5,2.6C585,296.2,584.8,294.2,584.1,292.9z"/>
	<path class="st0" d="M574.3,294c0.3,1.9,2,0.6,2.2,0C575.9,291.6,575.5,295.2,574.3,294z"/>
	<path class="st0" d="M563.4,295.9c0.5,1.5,1.5,2.2,1.9,0.8C564.8,293.8,564.6,296.3,563.4,295.9z"/>
	<path class="st0" d="M375.7,306.4C377.1,309.6,376.7,303.8,375.7,306.4L375.7,306.4z"/>
	<path class="st0" d="M367,308.3c0.6,4.3,1.8-0.2,2.6,0C369.4,306.8,367,306.9,367,308.3z"/>
	<path class="st0" d="M75.3,316.5c0.5-0.3,0.4-1.5,0.9-1.8C75.9,312.6,74.8,314.7,75.3,316.5z"/>
	<path class="st0" d="M360.5,309.3c-0.5,0.8-1,1.3-0.8,3.5c1.1,0.7,0.8-1.2,1.8-0.9C361.2,311,360.6,311,360.5,309.3z"/>
	<path class="st0" d="M354.9,312c1,2.2,2,1.2,2.9-0.1C357.1,309.7,355.5,311.8,354.9,312z"/>
	<path class="st0" d="M165.7,315.6C164.6,318.3,167.1,318.5,165.7,315.6L165.7,315.6z"/>
	<path class="st0" d="M89.2,319.7c0.6-0.6-0.1-1.6-0.2-2.6C88.4,317.7,89.1,318.7,89.2,319.7z"/>
	<path class="st0" d="M77.3,321.6c0.4-0.4,0.7-1.1,0.5-2.6C77.3,319.4,77.1,320.2,77.3,321.6z"/>
	<path class="st0" d="M75.7,320.8c-0.2-0.3,1-0.9,1-0.9C76.7,318.6,74.6,318.8,75.7,320.8z"/>
	<path class="st0" d="M126.7,319c0.3,1.2,0.9,1.6,1.6,1.7C128.1,319.1,127.5,318.7,126.7,319z"/>
	<path class="st0" d="M291.4,317.5C292.4,320.1,293.6,316.5,291.4,317.5L291.4,317.5z"/>
	<path class="st0" d="M287.8,318.5C288.9,321.2,289,315.4,287.8,318.5L287.8,318.5z"/>
	<path class="st0" d="M172.8,320.7c-1.1,0.2-0.9,3.1-1,5.2C172.4,324.5,173.8,322.8,172.8,320.7z"/>
	<path class="st0" d="M255.7,321.7c0.2,0,0.5,0,0.7,0c-0.1-0.6-0.1-1.2-0.2-1.7c-0.2,0-0.5,0-0.7,0
		C255.6,320.5,255.7,321.1,255.7,321.7z"/>
	<path class="st0" d="M76.9,326c0.4,2.4,1.2,0,0.6-1.7C77.1,324.5,77.4,326,76.9,326z"/>
	<path class="st0" d="M220.2,323.2c-0.4-3-1.5,1.6-1.5-0.8C217.4,324.2,220.1,324.8,220.2,323.2z"/>
	<path class="st0" d="M208.9,324.3c0.5-1.6,0.7,0.5,1.8,0C211,321.6,208.1,321.7,208.9,324.3z"/>
	<path class="st0" d="M98.8,335.9c0.8,2.5,0.9,0.7,2.4,1.7C100.7,335.8,99.4,334.3,98.8,335.9z"/>
	<path class="st0" d="M119.4,339.8c-0.2-0.9-0.8-0.6-0.9-1.7C117.6,338.9,119.2,341.9,119.4,339.8z"/>
	<path class="st0" d="M184.5,339.4c-0.4,0.4-0.7,1.1-0.5,2.6c0.6,0.2,0.6-0.8,1-0.9C184.9,340.5,184.6,340.3,184.5,339.4z"/>
	<path class="st0" d="M92.7,344.7C93.8,347.4,93.9,341.6,92.7,344.7L92.7,344.7z"/>
	<path class="st0" d="M98.6,345.4c-0.1,3,2.4,4,1.5,0C99.6,345.4,99.1,345.4,98.6,345.4z"/>
	<path class="st0" d="M157,347.7c-0.4,0.2-0.1,1.7-0.6,1.7c0.8,2.6,1.5-0.7,2.6-0.1C158.3,347.2,157.2,349.1,157,347.7z"/>
	<path class="st0" d="M118.8,348.5c0,2.6,0.9,2.5,0.8,5.2c0.7,0,1.5,0,2.2,0C121.1,350.3,120.6,349.9,118.8,348.5z"/>
	<path class="st0" d="M109.4,350.4c0.2,2.2,1.4,1.7,2.4,1.7C111.8,348.9,110.2,350.9,109.4,350.4z"/>
	<path class="st0" d="M143.9,354c0.3,2,1.2,2,1.5,0.8C145.3,353.7,144.5,354.2,143.9,354z"/>
	<path class="st0" d="M142.7,356.7c0.6-0.6-0.1-1.6-0.2-2.6C141.9,354.7,142.6,355.6,142.7,356.7z"/>
	<path class="st0" d="M339.9,57.6c0.9-0.4-0.6-2.4-1.3-1.7C338.9,57.1,339.8,56.2,339.9,57.6z"/>
	<path class="st0" d="M363.8,61.4c0.1,0.7-0.1,0.8-0.3,0.9c0.2,1.9,0.8-1.1,1.8,0c0.7-0.9-1.7-1.5-2.4-1.7
		C363.1,61.4,363.5,61.3,363.8,61.4z"/>
	<path class="st0" d="M360.9,61.5C363.9,63.2,356.2,58.9,360.9,61.5L360.9,61.5z"/>
	<path class="st0" d="M585.7,276.9C585.3,277.7,585.9,277.3,585.7,276.9L585.7,276.9z"/>
	<path class="st0" d="M532.2,76.3C530.7,73.8,530.5,78.5,532.2,76.3L532.2,76.3z"/>
	<path class="st0" d="M82.6,142.8c0.8-0.8-1-2.6-1.7-2.6C81,142.6,82.4,141,82.6,142.8z"/>
	<path class="st0" d="M333.6,68.9C334.8,71,335.5,66.4,333.6,68.9L333.6,68.9z"/>
	<path class="st0" d="M462.8,69.9c-0.6,1.5-0.5-0.1-1.5,0C461.6,70.9,463.4,73.2,462.8,69.9z"/>
	<path class="st0" d="M448.6,74.5c2.1-1-2-7.3-1.7-2.6C448.1,69.8,447.5,72.8,448.6,74.5z"/>
	<path class="st0" d="M322.5,76c0.5,0.1-0.3-4.8-1.4-3.4C321.4,74.4,322,74.9,322.5,76z"/>
	<path class="st0" d="M444.9,77.2c0.1,0.3,0.2,0.6,0.3,0.8c-0.6,0.3-0.7-0.8-1.2-0.8c-0.4,1.7,1.9,2.4,1.9,4.3
		c0.2-0.7,1-0.5,0.9-1.7l-0.2-0.6c0.5,0.6,0.9,1.2,1.5,1.5c0,0,0,0,0.1,0c0.1,0,0.2-0.1,0.2-0.4c0-0.3-0.1-0.5-0.2-0.6
		c-0.4-0.2-0.7-0.7-1-1.1c0.1-0.5,0.3-0.1,0.3,0.3c0.9-0.8-0.7-3.8-0.9-1.7l-0.1,0.2c-0.2-0.8-0.5-1.6-0.8-2.3
		c-0.1-1,0.2-1.2,0.6-1.3c-0.8-3.4-1.9,0.6-2.7-1.7c-0.4,0.6-0.5,1.9-0.4,3.5C444.3,74.3,444.1,77.1,444.9,77.2z"/>
	<path class="st0" d="M337.7,76.6C335.1,75.2,340.8,78.8,337.7,76.6L337.7,76.6z"/>
	<path class="st0" d="M227.3,80.5c1.1-0.9-0.9-1.4-1-2.6C225,79.4,227.2,79.3,227.3,80.5z"/>
	<path class="st0" d="M307.3,78.9C308.4,79.5,305.3,77.8,307.3,78.9L307.3,78.9z"/>
	<path class="st0" d="M466.8,76.7c0.6,0.2,1,1.6,2.4,1.7C469,75.8,467,76,466.8,76.7z"/>
	<path class="st0" d="M443.2,79.8c-0.2,0-0.5,0-0.7,0C444.4,83.7,442.5,71.3,443.2,79.8z"/>
	<path class="st0" d="M304.9,84.1c-0.2-1.2-1-0.7-1.5-0.8c0.1,1.3,1.8,2.7,0.2,2.6c-1,1.1,1.1,1.1,1.1,0
		C304.2,84.8,304.2,84.1,304.9,84.1z"/>
	<path class="st0" d="M81.5,107.4c0.8-1.8-1.4-2-1.9-0.8C80.1,109.7,81.1,104.6,81.5,107.4z"/>
	<path class="st0" d="M82.5,129.9c-0.3-2.2-0.5,1.2-1.5,0c0.5,0.8,0.4,3.2,1.3,2.6C82.2,131.2,82.1,130,82.5,129.9z"/>
	<path class="st0" d="M83.5,132.4c-1-2.9-0.8,2.6-2,1.8C82.2,136.5,82.9,132.8,83.5,132.4z"/>
	<path class="st0" d="M63.7,129.4C62.1,130.8,63.6,133.6,63.7,129.4L63.7,129.4z"/>
	<path class="st0" d="M77.9,131.7C76.9,136.2,78.6,138.6,77.9,131.7L77.9,131.7z"/>
	<path class="st0" d="M50.4,140.8c0.1,0.7-0.1,0.8-0.3,0.9c0.1,1.3,1.7-0.5,2.1-0.9c-1-3.1-1.5-1.8-3.1-1.7
		C49.2,141,49.8,140.8,50.4,140.8z"/>
	<path class="st0" d="M27.4,162c0.2,1.2,1,0.7,1.5,0.8c-0.3,1.1-0.2,1.8,0.5,1.7C29,161.5,28.4,160.9,27.4,162z"/>
	<path class="st0" d="M634.5,151.2c0.1,1.1,0.2,2.3,0.3,3.5c1,1.1,1.1-0.5,1.6,0.8c0.5-0.8-0.2-1.3,0-3.5
		C635.5,150.8,635.6,150.2,634.5,151.2z"/>
	<path class="st0" d="M40.4,171.3c-0.2-1-0.4-0.5-0.4,0c-0.3,0.2-0.4-0.3-0.4-0.9C38.6,171.5,40.2,173,40.4,171.3z"/>
	<path class="st0" d="M634.5,162.4C633.6,161.2,637.5,166.8,634.5,162.4L634.5,162.4z"/>
	<path class="st0" d="M636.7,162.4c-0.9,0.6,0.8,2.6,1.1,3.4C638.7,165,636.7,163.9,636.7,162.4z"/>
	<path class="st0" d="M634.1,165.9C635,170,636,167,634.1,165.9L634.1,165.9z"/>
	<path class="st0" d="M26.6,212.1c0.9,1,1.4,3.2,2.5,3.4c0.2-3.3-1.7-0.1-1.4-3.4C27.3,212.1,26.9,212.1,26.6,212.1z"/>
	<path class="st0" d="M24.6,242.4c-0.3-0.5-0.7-0.9-1.2-0.8c0.2,1.1,0.8,1.3,1,2.6c0.4-0.2,0.1-1.7,0.6-1.7
		C24.8,241.4,24.6,241.9,24.6,242.4z"/>
	<path class="st0" d="M24.3,254.4c-0.7-0.2,0.3,3.3,1,2.6c-0.1-0.9-0.2-1.7-0.2-2.6C24.7,255,24.4,255.5,24.3,254.4z"/>
	<path class="st0" d="M27.6,258.7c-0.9,2.1,0.6-1.6,0.8,0.9C29.8,259.1,27.3,256.1,27.6,258.7z"/>
	<path class="st0" d="M58.9,290.5c-0.2-0.2-0.4,0.1-0.5,0.5c0,0.5,0.1,1,0.3,1.2c0.3,0.3,0.7,0.4,1,0.4c0.6,0,1.2-0.7,1.5-1.8
		c1.2-0.5,1.3,2.5,2.6,1.7c-0.5-2-0.6-2.8-1-6.9c-0.9,0.5-1.4-0.3-1.3-2.6c-0.4,1-0.1,3.9-1.2,1.9c-0.1-0.3-0.2-0.5-0.2-0.8
		c-0.1-0.4-0.2-0.8-0.4-1.2l-0.2-0.4c-0.4-0.6-0.9-0.6-1.3,0c-0.2,0.3-0.2,0.9-0.1,1.4c0.2,0.5,0.4,0.7,0.6,0.5
		c0.2-0.2,0.3-0.2,0.3-0.2c0.1,0.2,0.2,0.5,0.2,0.8c0.1,0.4,0.3,0.9,0.4,1.3l-0.1,0.1c0.4,0.7,0.4,2.4,1,2.6l0.1,0.1
		C60.4,290.6,59.7,291.1,58.9,290.5z"/>
	<path class="st0" d="M585.9,287.7c0.3-0.2,0.3-0.9,0.7-0.9c-0.1-0.6-0.1-1.2-0.2-1.7c-0.3-0.2-0.3,0.3-0.3,0.9
		c-0.4-0.4-0.7-0.7-0.9-1.7C584.2,285,586.1,285.5,585.9,287.7z"/>
	<path class="st0" d="M127.2,312.9C125.4,317.3,127.9,311.3,127.2,312.9L127.2,312.9z"/>
	<path class="st0" d="M362.7,309.3c-0.1,0-0.5,1.5-0.6,1.7c0-0.1-0.1-0.7-0.1-0.9C362.1,315.2,364,309.8,362.7,309.3z"/>
	<path class="st0" d="M70.6,317.5c0.2,0,0.3,0.1,0.4,0.1C70.6,317.5,69.1,317.2,70.6,317.5z"/>
	<path class="st0" d="M71,317.5C71.1,317.5,71.1,317.6,71,317.5L71,317.5z"/>
	<path class="st0" d="M299.8,337.2C300.7,342.7,299.6,335.7,299.8,337.2L299.8,337.2z"/>
	<path class="st0" d="M192.3,340.2C191.1,338.8,190.6,343.8,192.3,340.2L192.3,340.2z"/>
	<path class="st0" d="M331.3,70.2c0.1,0,0.1,0,0.2-0.2c0.1-0.3,0.2-0.4,0.4-0.5c0.1-0.1,0.2-0.2,0.3-0.3c0.1-0.2,0.2-0.7,0-1.1
		c-0.1-0.4-0.3-0.5-0.5-0.3c-0.1,0.1-0.1,0.2-0.2,0.2c-0.1,0.2-0.3,0.3-0.5,0.7c-0.1,0.3-0.1,0.7,0,1.1
		C331.1,70.1,331.2,70.2,331.3,70.2z"/>
	<path class="st0" d="M325.2,71c0.3-0.1,0.6,0.1,0.9,0.3c0.3,0.2,0.6,0.4,0.9,0.4c0.1,0,0.2,0,0.4-0.1l0.1-0.1l0.1-0.9
		c0-0.3-0.1-0.7-0.2-0.8c-0.1-0.1-0.3,0-0.3,0.3l0,0.3c-0.3,0.1-0.5-0.1-0.9-0.3c-0.4-0.2-0.8-0.5-1.2-0.3c-0.1,0-0.2,0.4-0.2,0.7
		C324.9,70.8,325.1,71,325.2,71z"/>
	<path class="st0" d="M288.4,76.9c0,0,0.1,0,0.1,0c0.8,0,1.6,0.4,2.6,1.2c0.1,0,0.1,0.1,0.2,0.1c0.2,0,0.3-0.3,0.4-0.7
		c0-0.5-0.1-1.2-0.4-1.4c-1.1-0.9-2.1-1.5-3.1-1.3c-0.2,0-0.4,0.5-0.3,1.1C287.9,76.4,288.1,76.9,288.4,76.9z"/>
	<path class="st0" d="M301.3,79.1c0.5-0.7,1.1-0.4,1.8-0.1c0.4,0.2,0.8,0.4,1.1,0.4c0.2,0,0.5-0.1,0.7-0.3c0.2-0.2,0.2-0.8,0.1-1.3
		c-0.1-0.5-0.4-0.7-0.6-0.5c-0.3,0.4-0.8,0.1-1.3-0.1c-0.8-0.4-1.6-0.8-2.4,0.3c-0.2,0.3-0.2,0.9-0.1,1.3
		C300.8,79.1,301.1,79.3,301.3,79.1z"/>
	<path class="st0" d="M172.9,89.2c1.2,1.5,2.3,0.8,3.2,0.2c0.1-0.1,0.2-0.2,0.4-0.2c0.3,0.8,0.8,1.2,1.1,1.5
		c0.2,0.2,0.4,0.4,0.6,0.6c0.1,0.1,0.2,0.1,0.2,0.1c0.1,0,0.2-0.1,0.3-0.4c0.1-0.4,0-0.9-0.2-1.2c-0.2-0.3-0.5-0.6-0.7-0.8
		c-0.4-0.4-0.7-0.6-0.9-1.3l-0.2-0.6l-0.3,0.2c-0.2,0.1-0.4,0.2-0.6,0.4c-0.9,0.6-1.8,1.2-2.7,0c-0.2-0.2-0.4-0.1-0.5,0.3
		C172.6,88.4,172.7,88.9,172.9,89.2z"/>
	<path class="st0" d="M81.3,161.9c-0.2,0-0.5,0.1-0.6,0.2c-0.1,0.1-0.3,0.2-0.4,0.2c-0.2,0.1-0.3,0.4-0.2,0.9
		c0.1,0.4,0.2,0.7,0.4,0.7c0,0,0,0,0,0c0.2-0.1,0.4-0.2,0.5-0.2c0.2-0.1,0.3-0.2,0.5-0.2c0.2,0,0.3-0.3,0.3-0.8
		C81.6,162.3,81.5,162,81.3,161.9z"/>
	<path class="st0" d="M580.7,294.2c-0.2,0.2-0.4-0.1-0.9-0.9c-0.4-0.7-1-1.8-1.7-1.2c-0.2,0.2-0.3,0.7-0.2,1.2
		c0.1,0.5,0.4,0.8,0.6,0.6c0.3-0.2,0.5,0.1,0.9,0.8c0.3,0.6,0.8,1.4,1.3,1.4c0.1,0,0.2,0,0.3-0.1c0.2-0.1,0.3-0.7,0.2-1.2
		C581.1,294.4,580.9,294.1,580.7,294.2z"/>
	<path class="st0" d="M379.5,306.1c-0.4,0-0.6,0.2-0.9,0.3c-0.1,0.1-0.2,0.1-0.2,0.1c-0.2,0.1-0.2,0.4-0.2,0.8
		c0.1,0.3,0.2,0.6,0.3,0.6c0,0,0,0,0,0c0.1,0,0.2-0.1,0.3-0.2c0.2-0.1,0.4-0.3,0.7-0.3c0.2,0,0.3-0.3,0.2-0.7
		C379.8,306.4,379.7,306.1,379.5,306.1z"/>
	<path class="st0" d="M662.2,105.3c0.1,0.8,0.1,1.9,0.6,2c0-0.8,0.5-0.4,0.9,0C663.7,105.8,663.2,105.2,662.2,105.3z"/>
	<path class="st0" d="M648.7,149.9C646.3,148.1,647.8,152.2,648.7,149.9L648.7,149.9z"/>
	<path class="st0" d="M631.4,158.3c-0.2,2.4,1.9,0.9,2.9,1.3C634.5,157.2,632.4,158.7,631.4,158.3z"/>
	<path class="st0" d="M638.7,172.3c-1.2-0.7-2.5,1.5-1.2,2C637.2,172.7,639.7,174.7,638.7,172.3z"/>
	<path class="st0" d="M646.6,181.6c-0.7-0.7-3.8-0.8-3.1,2.1C645,183.5,645.4,182.1,646.6,181.6z"/>
	<path class="st0" d="M633.1,97.1c0-0.2,0-0.4-0.1-0.7l-0.2,0.3L633.1,97.1z"/>
	<path class="st0" d="M632.6,96.5c0,0.2,0,0.4,0.1,0.7l0.2-0.3L632.6,96.5z"/>
	<path class="st0" d="M647,180.9c-0.1-0.7,0.3-0.8,0.3-1.3c-0.3,0-0.5,0-0.8,0c-0.3-0.7-0.7-1.1-1.3-0.9c0.1,1.6,0.6,2.2,1.1,2.2
		c0.5,1,1.3,1.4,0.5,2.7c1.5,0.6,1.4-1,1.7-2C647.9,181.4,647.1,181.7,647,180.9z"/>
	<path class="st0" d="M596,66.3c0.2,0,0.3-0.3,0.5-0.5l0,0.7c0,1.4,0.5,1.5,0.6,2.6c0.4-0.2,0.2-1.6,0.1-2.6c0.8-1.1,2,1.9,1.8,0
		l-0.1-0.4c0.2,0.2,0.3,0.5,0.4,0.6c0,0.3,0.1,0.6,0.2,0.7c0,0,0.1,0,0.1,0c0.1,0,0.2-0.1,0.2-0.4l0.1-0.9l-0.4-0.5
		c-0.1-0.1-0.2-0.3-0.3-0.4c-0.1-2.9-1.1-3.1-2.1-3.2l0,0.2c-0.1-0.3-0.2-0.7-0.3-1.1c-0.1-0.4-0.4-0.5-0.5-0.3
		c-0.1,0.2-0.1,0.7,0,1.1c0.1,0.3,0.2,0.6,0.3,0.9l-0.1-0.1c-0.1,0.8-0.6,0.9-0.5,2.1c-0.1,0.1-0.3,0-0.4-0.3
		c-0.1-0.2-0.2-0.3-0.3-0.1c-0.1,0.2-0.1,0.5,0,0.8C595.4,66,595.7,66.3,596,66.3z"/>
	<path class="st0" d="M682.7,101.9c-2.6-1.2-5.3-1.9-7.9-2.5c-1.8-0.4-3.5-0.8-5.1-1.4l0.1-0.2c-4.4-3.8-12.6-4.9-16.8-6.4
		c-5.3-3.7-8.1-3.6-13.5-5.8c-0.1-0.9,0.8-0.6,0.8-1.4c-2.5-0.1-1,1.4-3.1,2.1c-1-0.4-1.1-1-0.7-2c-2.3,2.4-3.3-3-5.1,0.1
		c-4.7-5.5-13.2-0.1-19.6-5.7c-1.9,0.3-3.2,0.2-4.8,0.1c-0.1-0.3-0.2-0.6-0.3-0.9c0.2-0.5,0.5-1,0.7-1.4c0.1-0.1,0.1-0.3,0-0.5
		c-0.1-0.2-0.2-0.2-0.2-0.1c-0.3,0.5-0.6,1-0.9,1.6c-0.1,0-0.1,0-0.2,0c-0.7-1.1-0.9-3.8-1.6-5.1c-0.4,1-0.8,0.9-1.2-0.8
		c-1.1,1.1-0.7,4.8-2.1,5.2c-1.9-5.2-3.3-1.5-4.6-2.5l-0.1-1.3c0-0.5-0.3-0.9-0.5-0.9c-0.2,0-0.4,0.4-0.3,0.9l0.1,1.3
		c-0.7-0.4-0.9-2.4-2-1.7c-0.2,1.7-0.6,3-1.1,4.3c-0.5-1.5-1.7-1.7-1.1-3.4l-0.1,0c0-0.4,0.1-0.8,0.1-1.2c0-0.6,0.1-1.1,0.1-1.5
		c0.1-0.2,0-0.5-0.1-0.7c-0.1-0.2-0.2-0.1-0.3,0.1c-0.1,0.5-0.2,1.2-0.2,1.8c0,0.2,0,0.4-0.1,0.7c-0.9,0.2-1.7,0.2-1.6-2.6
		c-0.1,2.6-1,3.7-0.8,6.9c-2.9,0.3-2.6-8.9-5-10.3c-0.7,0.8-0.8,2.6-2,2.6c2.2,0.8-0.2,4.4,1.9,5.1c-2.9-0.7-6.5,1.4-10-0.7
		c-0.2-0.1,0.1-1.3,0.3-0.9c-0.4-2.4-1.2,0-0.6,1.7c-2.4,0-4,0.1-4.2,2.7c-3.1-1-6.3,0.4-9.7-1.5c1.1,2.9-0.7,2.8-1.7,1.8
		c-0.4-0.6-0.3-4.7-1.9-4.3c0.1,1.2,0.3,2.4-0.1,2.6l-0.1,1.3l-0.3-1.3c-0.7-0.2-0.7,0.8-0.3,0.9c0,1.2-1.1,0.3-0.9,1.7
		c-0.3-0.2-0.4-0.9-0.8-0.8l0,0.4c-0.4-1-0.8-1.3-1.3-1.6c-0.2-0.1-0.3,0.2-0.3,0.6c0,0.4,0.1,0.8,0.3,0.9c0.3,0.2,0.5,0.3,0.7,0.6
		c0.3,1.7-0.5,1.3-0.5,2.4c0,0,0-0.1-0.1-0.1c-0.7-0.5-1.3-0.2-1.8,0.3c-2,0.3-3.3-1.7-5.3-1.6c1,1.8,0.4,3.6-0.6,1.7
		c-1,1,1.3,1.1,1.3,2.6c0,1.2-0.9,0.7-1.4,0.9c-0.7-0.8-1-3-1.5-4.3c-0.4,0-0.9,0-1.3,0c-1.7-2.6-3.5-2.4-5.1-1.9
		c-1,0.3-2,0.4-3-0.1c0.1-0.3,0.1-0.4,0.2-0.8c0.2-0.6,0.1-1.4-0.2-2c-0.3-0.5-0.7-0.5-0.8,0.1c-0.2,0.7-0.4,1.2-0.5,1.6
		c0,0-0.1,0.1-0.1,0.1l-0.2-0.3l0.1,0.3c-0.2,0.1-0.4,0.3-0.6,0.4l-0.2,0.1c-1.3-2.4-1.9-3-3.2-3.3c0.1-0.7,0.3-1.4,0.1-2.6
		c-1.9-0.5-3.1-4.9-3.8-1.7c-1.6-1.8-2.4-4.9-3.9-2.5c-0.5-0.4-0.9-1.1-1-2.6c0.1,3.2-1.7,0-1.8,0c-0.5,0.3-0.1,1.9-0.9,2.6
		c-0.5,0.5-1.3-0.4-1.8,0c0,0,0.2,1.7,0.2,1.7c0,0-2.1-1.4-2.4-1.7c-0.9-1.2-0.6-1.9-1.1-3.4c-0.5,1.7-1.3,0.3-2.2,0
		c1.8,3.3-0.7,1.1-1.3,1.7c-0.3-0.4-0.6-0.6-0.8-0.8c-0.2-0.1-0.3-0.2-0.5-0.3c-0.2-0.2-0.4,0-0.4,0.4c0,0.4,0.1,0.9,0.3,1.1
		c0.2,0.2,0.4,0.3,0.6,0.4c0.3,0.2,0.6,0.4,0.8,0.8l-0.1,0.1C508,68,508,68.5,508,69c-0.3,0.3-0.6,0.7-0.9,1.4l-0.1-0.4
		c-1,0.1-0.9-1.4-1.5,0l0.3,1.3l-0.6-0.4c-0.8,1.1-2.4,5.6-3.7,0.1c-0.6,0.2-0.7,1.5-0.4,3.5c-0.1,0-0.2,0-0.4,0l0,0.2
		c-0.4-0.1-0.7-0.2-1.1-0.2l-0.1,0c-0.5-0.3-0.5-2.1-0.7-3.4c-0.7,0-0.2,2.4-1.3,1.8c-1.5-1.7-0.6-3.9-2.6-4.3c0.9,2,0,0.9-0.1,2.6
		c-4.2-1.6-5.4-2.8-9.3-0.7l0,0.3c0,0-0.1-0.1-0.1-0.1c-0.3,0-0.5-0.1-0.8-0.2c-0.4-0.1-0.7-0.2-1.1-0.2c0,0,0,0,0,0
		c-0.1,0-0.3,0.2-0.3,0.4c-0.9-0.3-2-0.6-2.5,1.3c0,0-0.1,0.1-0.1,0.1c-0.2-0.3-0.4-0.5-0.6-0.7c-0.1-0.2-0.3-0.3-0.4-0.5l-0.1-0.1
		l-0.1,0c-0.2,0.1-0.4,0.4-0.5,0.7c0,0.1-0.1,0.2-0.1,0.3l-0.1,0.1l0,0.2c0,0.2,0,0.5,0,0.8c-0.4-0.3-0.8-0.4-1.2-0.4
		c-0.3,0-0.6-0.1-0.8-0.3c-0.6-2.8-2-2-2.9-0.7c-0.4,0.2-0.9,0-1.4-0.3l-0.1-0.3c-0.1-0.4-0.3-0.5-0.5-0.4c-0.1,0.2-0.2,0.6-0.1,1
		l0.3,0.9l0.2,0.2c0.4,0.3,0.9,0.6,1.4,0.6c0.2,0,0.4-0.2,0.6-0.4l0,0.5c0.7,1,1.7,2.7,2.3,0.8l0,0c0.4,0.3,0.8,0.4,1.2,0.4
		c0.4,0,0.7,0,1.1,0.5c0,0,0.1,0,0.1,0.1c0,0,0.1,0.1,0.1,0.1l0.1,0c0.4,0,0.9,0.1,1.2,0.5c0,0.1,0,0.1,0.1,0.2l0.7,1.3
		c0.1,0.2,0.3,0.4,0.4,0.4c0.1,0,0.2-0.1,0.2-0.2c0.1,0.1,0.3,0.4,0.4,0.5c0,0,0.1,0,0.1,0c0.1,0,0.2-0.2,0.2-0.5
		c0-0.4-0.1-0.7-0.3-0.9c-0.1-0.1-0.2-0.2-0.3-0.3c0-0.1-0.1-0.2-0.1-0.3l0.3-1c0.1-0.2,0-0.5-0.1-0.6c-0.1-0.2-0.2-0.2-0.3,0
		l-0.3,0.8l-0.5-0.9c0-0.4,0-0.9,0-1.2c0.4-1.5,1.2-1.3,2.1-0.9c0.1,0.2,0.1,0.3,0.2,0.5l0.2,2.1c0,0.3,0.2,0.5,0.3,0.5
		c0.1,0,0.2-0.2,0.2-0.5l-0.2-1.8c0.2,0,0.5,0.1,0.7,0.1c0.3,0.1,0.5,0.1,0.8,0.2l0,0.2c2.4,0,4.3,0.9,4.6,1.6
		c0.2,1.2,3.2,2,2.5-0.9c0.4,0,0.4,1.1,0.5,1.7l0.2-0.2l0.1,0.7c0,0.6,0.1,1.1,0.1,1.7c-0.5,0.1-1.1-0.2-1.7-0.5
		c-0.7-0.4-1.4-0.8-2.1-0.7c-0.3,0.1-0.4,0.7-0.4,1.3c0.1,0.7,0.4,1.1,0.7,1.1c0.5-0.1,1.1,0.2,1.7,0.6c0.6,0.4,1.2,0.7,1.9,0.7
		c0.1,0,0.2,0,0.2,0c0,0,0.1,0.1,0.1,0.2l0,0l0,0.3c0.1,0,0.2,0,0.4,0c0,1,0.2,1.5,0.5,1.7c-1,3.2-4.9-1.1-8.2-1.6
		c-1.5-0.2-2.7,1.2-4,0.9c-1.4-0.3-2.5-3.3-3.5-1.7l0,0c-0.1-0.1-0.2-0.2-0.3-0.3c-0.5-0.7-1.1-1.6-1.8-0.8c-0.2,0.3-0.3,1-0.1,1.6
		c0.2,0.6,0.5,0.9,0.7,0.6c0.2-0.2,0.4-0.1,0.8,0.6c0.2,0.3,0.4,0.5,0.7,0.7l-0.1,0.2c-1.9,0.6-7.4,1.5-9-2.4c0-0.1,0.1-0.2,0.1-0.3
		c0.8,1,1.6,1.2,2.5,1.2c0.3,0,0.7-0.1,1-0.1c0.6-0.1,1.2-0.2,1.7,0c0.1,0,0.2-0.2,0.2-0.5c0-0.3-0.1-0.5-0.2-0.6
		c-0.6-0.1-1.2,0-1.8,0c-1.2,0.2-2.3,0.3-3.4-1.1l-0.1-0.2l-0.1,0.1c-0.1,0.2-0.3,0.6-0.4,0.9l0-0.5c-1,0-2,0-2.9,0.1
		c0,1.8,0.5,2.3,0.7,3.4c-0.4-0.5-1.5-2-1,0.9c-0.6-1.3-1.5-1.3-2.1-2.6c-0.4,0.4-0.6,1.1-0.5,2.6c-0.3-2.9-2.4-0.1-2.5-3.4
		c-2.6,3.9-7.4-2.8-9.1,1c0.2,1,0.7,0.7,1.2,0.8c-0.4,2.9-1.4-1.3-2.2-0.8c-0.2-0.4-0.4-0.6-0.6-0.9c-0.1-0.2-0.3-0.1-0.3,0.2
		c0,0.3,0,0.6,0.2,0.7c0.2,0.2,0.4,0.5,0.5,0.9l-0.2-0.1c-0.7-0.4-1.3,0.6-0.7,0.9c-2.8-0.7-11.2-1.3-14.5-1.5
		c0.5,1.3,0.6,2.2,0.3,3.5c-0.6,0.1-0.8-0.7-1.3-0.8c-0.1-0.3-0.2-0.6-0.2-0.9c0-0.2-0.1-0.4-0.1-0.6c-0.1-0.3-0.2-0.4-0.3-0.4
		c-0.1,0.1-0.2,0.4-0.1,0.6c0,0.2,0.1,0.4,0.1,0.5c0.1,0.5,0.2,1.1,0.4,1.7l-0.3-0.2c-1.3-0.1-3.1,1.2-2.9-3.4
		c-1.5-0.7-1.3,1.9-1.5,3.5c-0.7,0-0.7-2.3-1.6-1.7c0.4,1.8-0.5,2.1-0.7,0.9l0,0c0,0,0-0.1,0-0.1c-0.2-0.6-0.2-0.9-0.1-1.8
		c0.1-0.7,0.2-1.4,0-2.3l0-0.3l-0.1-0.2c-1.3-3.1-2.5-4.4-3.5-3.6l-0.3,0.2l0.1,0.7c0.1,0.6,0.1,1,0,1.2c-0.1,0.3-0.4,0.3-0.7,0.3
		c-0.2,0-0.5,0.1-0.7,0.2l0-0.4c-0.9-0.5-2-0.7-2.2-3.4c-0.7,3.1-2.1,0.3-4,1l0.1,0.5c-0.4-0.4-0.8-0.6-1.2-0.6l-0.2,0c0,0,0,0,0,0
		c-0.1,0-0.2,0.2-0.2,0.5c0,0.3,0.1,0.6,0.3,0.7l0.2,0c0.3,0.1,0.6,0.2,0.9,0.5l-0.2,0.1c-0.8,0.5,1.1,1.6,1.1,3.4
		c0.3-0.5,0.5-0.9,1-0.9l0.5-0.4l-0.1,1.3c0.8-0.5,0.7,1.6,1.3,1.7c1.1-2.3,0.8-0.3,2.6-0.1l0-0.2c0.2,0.7,0.5,1.3,0.7,1.8l-0.1,0.1
		c-2.6,1.8-4.3,0.7-8.4,1c0.9-4.1-0.4-1.6-2.4-2.5c-0.1-0.6-0.1-1.2-0.2-1.7l-0.1,0.1c0.1-0.4,0.1-0.8,0.2-1.2l0-0.2l-0.1-0.2
		c-0.8-2.3-1.9-3.5-2.9-2.8c-0.1,0.1-0.2,0.4-0.1,0.7c0.1,0.3,0.2,0.5,0.3,0.4c0.7-0.5,1.6,0.3,2.2,2.1c0,0.2-0.1,0.3-0.1,0.4
		c-2.9,0.4-7.7,0.4-10.7-0.7c-0.6-0.2-1.9,1.8-2-1.7c-1.2,3.4-2.2-1-4,0.9l0,0.4c-0.3-0.3-0.7-0.3-1-0.4l-0.2,0
		c-0.6-0.3-0.9-1.5-1-3.3c-0.9,0.1-1.8,0.2-2-1.7c-0.1-0.8,0.4-0.7,0.7-0.9c-0.2-1-0.7-0.7-1.2-0.8l0,0.5c-0.3-0.7-0.5-1.2-0.8-1.6
		c-0.1-0.2-0.3-0.4-0.4-0.7c-0.1-0.2-0.3-0.2-0.4,0.1c-0.1,0.3,0,0.7,0.1,1c0.1,0.3,0.3,0.5,0.4,0.7c0.2,0.3,0.3,0.6,0.5,0.9
		c-0.7,0.1-1.2,0.6-1.3,1.7c-0.4-0.3-2.1-3-0.6-2.6c-0.2-1.2-1.1-0.3-1.3-1.7c-0.7,0.5-0.7,1.4-0.1,2.6c-1,0.1-0.9-1.4-1.5,0
		c-0.2-1.9,0-2.8,0.9-2.6c-0.1-2.7-1.9-0.3-1.8-3.4c-1.1,4.1-2.8-2.9-3.6,0.9l0,0.2c-0.1-0.1-0.3-0.3-0.4-0.4
		c-0.2-0.2-0.4-0.1-0.5,0.3c-0.1,0.4,0,0.9,0.2,1.1c0.2,0.2,0.3,0.4,0.5,0.5l0,0c1,2.8-0.2,2.4-1.4,1.9c-0.2-0.8-0.3-1.7-0.2-2.8
		l0-0.3l-0.1-0.3c-0.2-0.4-0.3-0.9-0.6-1.2l-0.1-0.1l-0.1,0c-0.2,0-0.5,0-0.7,0.1c-0.3,0-0.6,0.1-0.9,0.1c0,0,0,0,0,0
		c-0.1,0-0.2,0.2-0.2,0.6c0,0.3,0.2,0.6,0.3,0.6c0.4,0.1,0.7,0,1-0.1c0.2,0,0.4,0,0.6-0.1c0.1,0.2,0.2,0.3,0.3,0.6
		c-0.1,1.5,0.1,2.7,0.4,3.9l-0.3-0.2c-0.7,0-0.2,2.4-1.3,1.8l0,0c-0.6-0.5-1.4-1.1-2-0.4c-0.2,0.2-0.3,0.7-0.5,1.5l-0.1-0.2
		c-0.1,0-0.2,0-0.4,0l0,0c0,0,0,0,0,0c-0.5-1.9-1.4-2.9-2.3-2.5c-0.3,0.1-0.4,0.8-0.3,1.5c0.1,0.7,0.5,1.2,0.7,1
		c0.3-0.1,0.5,0.1,0.7,0.4c-0.7,2.8-3.6,0.2-4.5,1.4c-0.4-0.4-0.9-0.7-1.2-0.8l0,0c-1.2-2.7-4.8,1.9-5.1-3.4
		c-2.4,0.6-4.1,0.8-7.1-0.7l0.3,1.3l-0.6-0.4c-0.3-0.1-0.3,0.3-0.3,0.7c-0.3,0.1-0.6,0.1-0.8-0.1c-0.2-0.2-0.4,0.1-0.4,0.5
		c0,0.4,0.1,0.9,0.3,1c0.3,0.2,0.6,0.4,0.9,0.3c0.2,0,0.4-0.1,0.6-0.3l0,0.4c0.1,0.9,0.2,1.7,0.2,2.6c-1.5-1.5-1.6-1.4-3.4-0.8
		c0.1,1.1,0.2,2.3,0.3,3.4c1,0.4,2.2-0.1,2.4,2.5c0.8-3.3,2.7-2.5,3.8,0.8c-4.1,2-8.9-0.8-13.9-3.2c0.2,2.3-1.4,3.3-2.3,2.6
		c-0.1-0.1-0.6-1.7-0.5-1.7c-1.4,0.1-2.7,0.9-4.3,0.9c0.4,0-0.7,1.8-1.8,0.9c-2.6-2.2-5.3-4.2-7.6-2.4c-1.8-5.7-4.5-1.8-8.2-0.7
		l0,0.3c0,0,0,0,0,0c-0.7,0.2-1.4-0.2-2.1-0.6c-0.8-0.5-1.7-0.9-2.6-0.6c-0.1,0-0.2,0.4-0.2,0.7c0.1,0.3,0.2,0.6,0.4,0.5
		c0.8-0.3,1.6,0.1,2.4,0.6c0.7,0.3,1.3,0.7,2,0.7c0,0,0.1,0,0.1,0c0.1,0.3,0.2,0.6,0.3,1.1c-0.9,1.6-3-0.8-4.5-0.8
		c0.1,0.9,0.2,1.7,0.2,2.6c-1.3,0.3-1.9-1.6-3.1-1.7l0.1,0.3c-0.2-0.2-0.4-0.4-0.5-0.5c-0.2-0.1-0.3,0.1-0.3,0.4
		c0,0.2,0.1,0.5,0.1,0.7c-1.2,0.3,1.9,3-0.1,2.6l0.1,0.4c-0.3-0.1-0.5-0.1-0.6,0.1c-0.2,0.1-0.3,0.6-0.2,1c0,0.2,0.1,0.3,0.2,0.4
		c-2.2,1.6-4,2-6.6-0.1c0.5,1.3,0.6,2.2,0.3,3.4c-1.9-1.5-3-4.4-4.2-1.6c0.3-2.2,0.6-3.4-0.2-6c-1.2-0.7-1,1.4-1.7,1.8
		c-0.8-0.1-0.5-2.4-0.4-3.2c0.1-0.1,0.3-0.2,0.4-0.2c0.2,0,0.4-0.4,0.3-0.9c0-0.5-0.2-0.9-0.5-1c-0.2,0-0.4,0.1-0.8,0.3l0-0.3
		c-0.3-0.7-1.9-0.7-2.8-2.5l-0.1-0.6c-0.5-1.5-1.4-1.6-2.1-0.9l-0.1,0.1l0,0.1c-0.1,0.5-0.1,1.1-0.2,1.7l0,0.2l0.1,0.2
		c0.1,0.4,0.3,0.7,0.5,1.1l-0.2-0.1c-0.3,1.3,1,2.3-0.3,3.4c-0.1-0.1-0.2-0.2-0.3-0.2c-0.1,0-0.2,0-0.3,0.1c-0.2,0-0.4,0.1-0.6,0.3
		c0,0-0.1-0.1-0.1-0.1c-0.2,0-0.3,0.3-0.4,0.7l-0.8,0c-0.2-2.9-1.4-3-1.6-5.8c-1.3,2.3,0.1,6.1-2.5,5.2c-0.8-0.3,0.3-2.7,0.4-3.5
		c-0.8-1-1.1-2.2-0.3-3.4c-0.1-1.9-1.3-0.4-1.9-0.8c0.8-3.3-2.5-5.4-2.1-6.9c-0.2-1.8-0.7,0.7-1.6,0.2c-1-1.5-2-1.9-3-2.1
		c-0.3-0.1-0.6-0.1-0.8-0.2c-0.2-0.1-0.4,0.3-0.4,0.8c0,0.5,0.2,1,0.4,1.1c0.3,0.1,0.6,0.2,0.9,0.2c0.9,0.2,1.8,0.5,2.6,1.7
		l-0.1,0.1c0.4,1.1,1.9,4.5,1.2,5.2l0.1,0.6c-0.4-0.5-0.8-0.8-1.1-0.5c-0.3,0.2-0.4,0.7-0.4,1.4c-0.4,0.2-1,0.5-1.3,0
		c-0.1-0.2-0.1-0.5-0.2-0.9c0-0.3-0.1-0.5-0.2-0.6c-0.1,0-0.2,0.2-0.2,0.4c0,0.8,0.2,1.4,0.4,1.8c0.2,0.4,0.5,0.6,0.8,0.6
		c0.3,0,0.6-0.1,0.9-0.3l0.3-0.1l0-0.4c0-0.5,0-0.8,0.2-1c0.1-0.1,0.3-0.1,0.5,0.1c0,0.5,0.1,1,0.1,1.5c0.5,0.1,1.1,0.1,1-0.9
		c0,1.8,1.5,2.8,1.7,6.9c-2.2-1-3-4.7-4.8-4.2c-0.2,0.8-0.2,2,0,3.5c-0.4-0.5-1.5-2-1,0.9c-1.2-0.3-2-2-2.9-3.4
		c-1.3,2.4-1.8,0.7-3.7,0.1c2.4,3.7-3.5,7.4-5.1,3.7c-0.2-0.6-0.4-1.1-0.6-1.6l-0.1-0.2l-0.1,0.1c-0.3,0.2-0.5,0.5-0.7,0.7
		c-0.1,0.1-0.1,0.2-0.2,0.2c0,0-0.1-0.1-0.1-0.1c-0.3,0.1-0.6-0.1-1-0.2c-0.6-0.2-1.3-0.5-1.8,0.3c-0.1,0.2-0.1,0.6,0,1
		c0.1,0.3,0.3,0.5,0.4,0.3c0.4-0.6,0.9-0.4,1.4-0.2c0.3,0.1,0.6,0.3,0.9,0.2c0.1,0,0.2,0,0.3,0c0.1,0,0.2-0.2,0.2-0.4
		c0.1-0.1,0.2-0.1,0.2-0.2c0.1-0.2,0.3-0.4,0.5-0.5c0.2,0.4,0.4,0.8,0.5,1.3l-0.1,0c0,1.1-1,1.1-1.1,0l-0.1,0.4l-0.1,0.4
		c-2.1,0.7-5.1,3.4-6.4-1.6c-0.7,0.2,0.1,2.9-0.4,3.5c-1.2-2.9-3.7-4.7-4.8-4.2c0,0.5,0.7,1.1,0.8,0.8c-2.8,4.8-7.5,1.9-12.3,2
		c-1.1,5.3-4.2-3.8-6.6,0.1c-0.4-0.6-0.6-2-1.3-1.7c0,0.7,0.2,0.8,0.4,0.9c-3.9,0.5-10,1.7-16.2-0.6c-1.4,5.2-5.9-2-8.3,1.9
		c-0.4-0.3-1.1-1.5-0.5-1.7c-3.5,0.7-7.6-0.2-11.5-1.5c0,1.4,0.5,1.5,0.6,2.6c-3.8-2.1-7.3-1.2-10.1-1.5l0.1,0.7
		c-1-1.1-2.1-0.9-2.9,0.2c-0.9-0.6-3.9-1.2-5,1c-0.1,2.8,0.6,3.3,1.1,4.3c-1.3,1.5-3.3,2.7-5,1.8c-0.5-0.3-0.7-1.6-1.3-1.7
		c-2.4-0.4-7.4,3-10.5,1.9c-0.4-0.1-0.4-1-0.5-1.7c-4.3,3.7-10.6,1-15.1,3.7l0,0.1c-0.1-0.1-0.1-0.2-0.2-0.2c-0.2,0-0.3,0.1-0.5,0.2
		l0-0.2c-0.7-0.9-3.2-0.9-4.6,0.5c0,0,0,0,0,0c-0.5,0.2-1,0.3-1.5,0.4c-0.4,0.1-0.9,0.2-1.3,0.4c0,0,0,0,0,0
		c-0.8-0.4-1.4,0.1-1.8,0.5l-0.2,0.1c0,0,0,0.1,0,0.1c-1.5,0.3-1.8,0.4-3.3-0.9c-1.5,4.5-3.6,1.3-6.7,2.7l0.1,0.4
		c-0.9-0.6-1.6-0.4-2.4-0.1c-0.4,0.1-0.8,0.3-1.1,0.3c-0.1,0-0.1,0.1-0.2,0.2c-1.2-0.7-2.2-2.8-3-0.6c-1.3-4.6-2.7-2.1-5.4-2.5
		c0.3,3.2,0.6,2.5,0.5,5.2c-1.5-1-2.3-2.5-2.8,0.7c-0.4,0.1-0.8,0.2-1.2,0.2c-0.8-0.2-0.9-2.2-1.1-4.3c-0.7,0.3-0.5,2.3-0.8,3.5
		c-0.1-2.7-2.5-0.2-3-0.8c0,0-0.7-1.7-0.5-1.7c-0.8,0.1-1.6,4.7-3.1,1.8c-0.4,2.7-2.2,2.8-4.2,2.7c1.3,2.5-1.1,1.2-1.1,3.2
		c-0.2-0.2-0.3-0.3-0.5-0.5l0.1-0.1c-2.2-2.5-3.6-0.5-4.9,1.7c-0.1,0-0.1,0.1-0.2,0.1c-1.3-2.2-3.5-0.8-4.2,1.9
		c-2.4-2-2.9,0.9-5.9,0.1c0.1,0.7,0.1,1.4,0.2,2.1c-2.3,1.6-4.8,2.8-7.2,3.9c-3.3,1.5-6.6,3.1-9.5,5.7c-0.2,0.2-0.3,0.9-0.2,1.5
		c0.1,0.5,0.3,0.8,0.5,0.8c0.1,0,0.1,0,0.2-0.1c2.8-2.5,6-4,9.4-5.6c2.5-1.2,5-2.4,7.4-4.1l0,0c1.6,0.5,2.4-0.7,3.6-0.9
		c-0.9,7-5.8,4.1-9.1,5.3c-0.2,0.1-0.5,1.7-0.6,1.7c-1.7,1.1-4.4,0.7-5.7,1.8c-0.3,0.3-1.3,2.6-2.5,0.9c-0.2,3.1-1.6-0.4-1.6,2.6
		l0.1,0.1c-0.4,0.5-0.8,0.9-1.3,1.3c-0.4,0.3-0.7,0.6-1.1,1c-0.1,0.2-0.2,0.6-0.1,0.9c0.1,0.3,0.2,0.5,0.3,0.4c0,0,0.1,0,0.1-0.1
		c0.3-0.4,0.7-0.7,1-1c0.5-0.4,1-0.9,1.4-1.5l0,0.4c1.6-0.4,2.7,1.4,4.8-0.1c0.4-0.3,0.8-1.7,0.9-1.7c1.5-0.5,3.7,1.2,5.1-1
		c0.4,0.1,0.5,1.6,0.6,2.6c0.4-0.9,0.5-2.3,0.8-3.5c1,0.8,2.3,1.5,2.5-0.9c0.4,0.1,0.5,1.6,0.6,2.6c-1.4,1.7,0,2.9,0.2,6
		c1.7-0.3,1.9-1.3,3.5-1.8c-1.5-1.9-0.9-4.8-2-6c0.8-1.7,1.8-3.2,3.8-2.7l-0.1-0.6c0.2,0.2,0.5,0.4,0.6,0.6c0.1,0.1,0.2,0.2,0.3,0.3
		c0.2,0.5,0.5,0.5,0.6,0c0.1-0.1,0.3-0.2,0.4-0.2c0.2,2.7,0.3,0.7,0.9,0.7c0.1,0.4,0.1,0.7,0.1,0.9c-1.2,0.1,0.5,2.5-0.2,3.4
		l0.1,0.1c0,0,0,0,0,0c-0.5-0.3-1.3-0.7-1.4,1c0,0.3,0.1,0.6,0.2,0.7c0,0,0.1,0,0.1,0c0.1,0,0.2-0.1,0.2-0.4c0-0.7,0.3-0.7,0.9-0.3
		c0.2,0.1,0.3,0.1,0.4,0.1l-0.3,0.4c0.1,1.9,1.3,0.4,1.9,0.8l0.1,0c0,0.2-0.1,0.5-0.1,0.7c0,0.1,0,0.2,0,0.3
		c-3.5,3.8-6.9,0.9-10.1,4.4c0.1,0.7,0.4,0.9,0.5,1.7l0.1,0.1c-0.2,0.2-0.5,0.4-0.8,0.5c-0.4,0.2-0.8,0.4-1.2,0.9
		c-0.1,0.2-0.1,0.7,0,1.1c0.1,0.2,0.2,0.4,0.3,0.4c0.1,0,0.1,0,0.2-0.1c0.3-0.4,0.6-0.6,1-0.7c0.3-0.2,0.7-0.4,1-0.7l0,0.3
		c0.3,1.3,0.4-0.4,1.1,0c-0.1,0.8-0.2,1.5-0.6,1.7c0.1,2.3,1.2-2.3,1.3,1.7c0.3-1.7-0.4-3.1,0.7-4.3c0.7,0.3-0.1,2.7,1.1,3.4
		c0.8-0.6,1.3-3.2,2.5-0.9l0-0.3c0.1,0.4,0.3,0.9,0.4,1.3c-0.2,0.9-1.3,0.1-1.3,1.6l0,0.1c-0.1-0.1-0.1-0.2-0.2-0.2l-0.4,0
		c-0.3,0-0.6,0-0.8,0.1c-0.2,0.1-0.3,0.6-0.2,1.1c0.1,0.4,0.3,0.8,0.5,0.7c0,0,0.1,0,0.1,0c0.2-0.1,0.4-0.1,0.6,0l0.4,0c0,0,0,0,0,0
		c0,0,0,0,0.1-0.1c0,0,0.1,0,0.1,0c0,3.1-0.9,0.1-2.1,0.9c0.5,2,0.5,2.3,0.4,4.3c-0.8,0.5-0.7-1.6-1.3-1.7l0,0
		c-0.2-0.6-0.3-1.1-0.5-1.5c-0.2-0.4-0.3-0.8-0.4-1.2c0.2-0.7,0.5-1.2,0.9-1.6c-0.8-1.2-1.8-2-2.8-2.5l0.1,0.3
		c-0.5,0.1-0.8,0.6-1.1,1.1c-0.3,0.5-0.5,0.9-0.8,1c-0.2,0-0.2,0.4-0.2,0.7c0,0.4,0.2,0.6,0.3,0.6c0,0,0,0,0,0
		c0.5-0.1,0.8-0.7,1.1-1.2c0.2-0.5,0.5-0.8,0.8-0.9l0,0.1c0.2,1,0.1,1.5-0.2,1.7c0.2,1,0.7,0.7,1.2,0.8l0.1-0.1
		c0.2,0.8,0.4,1.5,0.7,2.1c0.2,0.5,0.4,1,0.5,1.5l-0.2-0.1c-1.4,1.1-5.1-0.9-5.4,5.3c-1-0.4,0.4-5.1-1.5-4.3
		c-0.1-0.2-0.2-0.5-0.3-0.7c-0.3-0.6-0.7-1.3-0.7-1.8c0-0.3,0.1-0.6,0.2-0.9c0.1-0.2,0.1-0.6,0-0.8c-0.1-0.3-0.3-0.3-0.4-0.1
		c-0.2,0.5-0.4,1.1-0.3,1.7c0.1,1.1,0.5,1.9,0.9,2.7c0.1,0.3,0.2,0.6,0.4,0.8l-0.2-0.1c-0.7-0.4-0.9-2.5-2-1.7
		c0.5,1.3,0.6,2.2,0.3,3.4l-0.2,0.1c-0.3-0.7-0.6-1.2-0.9-1.6c-0.3-0.3-0.5-0.7-0.7-1.2l0.1,0.1c1.1-0.1,0.1-1.6,0.6-3.1
		c0,0,0.1,0,0.1-0.1l0-0.1c0-0.1,0-0.1,0.1-0.2l-0.1,0l0-0.3c0-1.8-0.4-3.2-0.8-4.4c-0.3-0.8-0.5-1.5-0.6-2.3l-0.1-0.4l-0.5-0.3
		c-1.2-0.7-2.4-1.4-3.5,0.4l-0.1,0.1l0,0.2c0,0.5,0,1,0,1.5l0,0.3c0,0.2,0.1,0.3,0.2,0.5c0,0,0,0.1,0,0.1c0,0,0,0,0,0
		c0,0,0,0.1,0.1,0.1c0,0,0-0.1,0-0.1c0.3,0.3,0.7,0.3,1.1,0.4l0.2,0c0,0,0,0,0,0c0.1,0,0.2-0.2,0.2-0.5c0-0.3-0.1-0.5-0.3-0.6
		l-0.2,0c-0.3,0-0.6-0.1-0.8-0.2c0-0.3,0-0.6,0-0.8c0.9-1.3,1.8-0.8,3-0.1l0.1,0.1c0.2,0.8,0.4,1.6,0.6,2.3c0.4,1.1,0.6,2.1,0.7,3.2
		c-1.7-0.2-1.5-0.3-2.9-0.8c0.5,1.1,0.5,1.8-0.2,1.7c0,0.9,1.7,1.7,0.6,2.6c0.4,1.2,1-0.8,1.6,1.7l0-0.6c0.3,1,0.7,1.5,1.1,1.9
		c0.3,0.3,0.5,0.6,0.7,1c-0.1,0.1-0.2,0.2-0.3,0.3c-0.5,0.5-1.2,1.1-1.5,2.5c-0.3,0-0.6,0-1,0c-0.3-1.8,0.4-1.7,0.9-1.8
		c-0.7-3.5-2.7,1.6-3.5-2.5c-0.8,3.3-0.1,2.3-1.4,5.2c-0.9,0.4-0.2-3.9-1.3-2.6c-0.3-2.1-0.5-4.2,0.3-4.3c-1.1-1.8-2-0.1-2.6,0
		c-0.4-3.3,1.8-1.8,1.8-4.4c-1-1.3-1-2.1-0.3-3.4l-0.1-0.1c0.2-0.2,0.4-0.4,0.5-0.6l0.2-0.3c0.2-0.3,0.3-1,0.1-1.7
		c-0.2-0.6-0.5-0.9-0.8-0.6l-0.3,0.3c-0.1,0.1-0.3,0.3-0.4,0.4l0,0c-0.5,0-1,0-1.5,0l-0.5,0.5l0.1-1.3c-0.4-0.6-0.7-1.6-1-2.6
		c-1-1.1-1.3,2.6-1.8,0c-0.9,0.9-0.5,4.2-1.4,5.2c-0.2,0-0.5,0-0.7,0l0,0.1c-2-2.4-4.3-1.7-5.8,0.6l-0.2,0.3l0.1,0.6
		c0.1,0.8,0.3,1.5,0.4,2.1l-0.1-0.1c0,0.9-0.7,0.6-0.6,1.7l0,0c-0.4,0.5-0.9,0.8-1.3,1.1c-0.6,0.4-1.2,0.7-1.8,1.7c0,0,0,0.1,0,0.1
		c-0.5,0.2-0.9,0.6-1.3,1l0-0.4c-0.5-1.5-1.2-2.2-2.4-1.7c1.3,4.7-0.4,4.1-1.3,6.1l0,0.1c-0.1-0.1-0.1-0.2-0.2-0.1
		c-0.2,0-0.3,0.2-0.5,0.3l0-0.2c-0.1,0-0.2,0-0.4,0c-0.2-1.5,0.1-2.2,0.5-2.6c0-1.9-1.8,2-2.3-0.8c0.3,2,1.4,3.8-0.2,6l0.1,0.5
		c-0.7-0.5-1.4-0.4-1.8,0.4l-0.1,0.3c0,0.4-0.1,0.8-0.1,1.4l0,0.2l0.1,0.2c0.1,0.4,0.3,0.9,0.6,1.4c0.1,0.1,0.2,0.2,0.2,0.2
		c0.1,0,0.2-0.1,0.2-0.2c0.1-0.3,0-0.8-0.1-1c-0.2-0.4-0.3-0.6-0.4-0.9c0-0.2,0-0.3,0-0.5c0.3-0.4,0.6-0.4,0.9-0.3
		c2.4,2.2,2.3,1.8,4-0.1c-0.2-1.1-0.7-1.4-0.9-2.4c0,0,0,0,0.1,0c0.4,0.5,0.8,0.8,1.4,0.7c0.1,1.4,0.3,2.9,0.4,4.3
		c0.8-0.3,1.4,0.1,1.9,0.8l0-0.1c0.3,0.7,0.6,1.4,0.7,2c-0.7,1.3-2,0.4-2.2-1.9c0.4,4.3-2.1-2.3-5.1,1c0.5,1.5,1,3,2.1,2.6
		c0,0.3,0.1,0.6,0.1,0.9l0,0.3l0,0c-0.7-0.6-1.5-1.2-2.3-1c0-0.1,0-0.1,0-0.2c-0.1-0.7-0.2-1.4-0.3-2l-0.1-0.4l-0.2-0.2
		c-0.2-0.3-0.5-0.6-0.8-0.8c-0.3-0.2-0.7-0.5-1.1-1l-0.3-0.4l-0.2,0.4c-0.3,0.4-0.5,0.9-0.8,1.4c-0.1,0.2-0.2,0.3-0.2,0.5
		c-0.4-0.7-0.8-1.6-0.9-2.9c-0.1-0.6-0.3-1.1-0.6-1.1c-0.3,0.1-0.4,0.6-0.4,1.2c0.2,1.6,0.7,3.1,1.4,4.3c0,0.1,0,0.2,0,0.3
		c0.5,2.6,1.5,3.8,2.3,4.6c0,0.2,0,0.3,0,0.5c-0.1,0.3-0.2,0.7-0.3,1.1c0,0.2,0,0.5,0.1,0.7c0,0,0.1,0.1,0.1,0.1
		c0.1,0,0.1-0.1,0.2-0.2c0.1-0.4,0.2-0.8,0.3-1.1l0,0.5c0.5,0,1,0,1.5,0c-0.2-1.3,0.2-1.5,0.1-2.5c0.1-0.3,0.2-0.6,0.2-0.7
		c0.1-0.2,0.1-0.5,0.1-0.8c0.6-0.1,1.2,0.3,1.9,0.9c0.1,0.4,0.2,0.5,0.4,0.5c-0.7,2.4-1,2.8-0.1,6.9c-1.4-3-0.9,0.2-1.7,1.8
		c-0.7-0.3-0.4-3.9-1.7-2.6c0.3,0.6,1.7,2.6,0.3,2.6c-0.1-0.1-0.1-0.3-0.2-0.4l-0.1-0.2l-0.1-0.1c-0.4-0.2-0.7-0.2-1,0l-0.1,0.1
		l0,0.6l-0.7,0c0.1-0.7,0.2-1.4,0.1-2.5c-1,0.9-1.1,3.5-1.7,5.2c-0.7-0.1-0.5-2.8-1.3-2.6c0-1,0.6-0.7,1-0.9c-0.8-2.3-2.2-2.7-1.7-6
		c-0.5,3-1.5,1.2-1.9,3.5c-1.1,1.1-0.5-2.8-1.6-1.7c0.1,0.9,0.2,1.7,0.2,2.6c-0.3-0.2-0.4-0.9-0.8-0.8c-0.2-2.3,0.7-2.6,1-4
		c1.2-0.1,1.7-1.5,2.3-3.1l0.2-0.5c0.2,0.1,0.4,0.2,0.5,0.4c0.2,0.2,0.4,0,0.4-0.3c0-0.4-0.1-0.8-0.2-1c-0.2-0.2-0.6-0.5-0.9-0.6
		l-0.2,0l-0.4,1c-0.6,1.7-1,2.9-2.2,2.7l0-0.5c-0.4-0.2-0.3-0.9-0.1-0.9c-1-0.9-2,1.4-3.2,0.9c-0.3-0.1-3.1-3.5-3.2,0.9l0,0.1
		c0,0-0.1-0.1-0.1-0.1l-0.2,0c-0.3,0-0.6-0.1-0.7-0.2c-0.2-0.3-0.4-0.2-0.5,0.2c-0.1,0.4,0,0.9,0.2,1.2c0.3,0.5,0.7,0.5,1.2,0.6l0,0
		l0,0c2.4,4.4,2.2,3.7,4.5,8.6c1.6-0.2,3.2-0.2,3.9,2.4c-0.2,0.1-0.3,0-0.5,0.1c-0.1,0-0.2,0.1-0.3,0.1l0.1-0.1
		c-1-3.6-0.9,1.4-2.3-0.8c-0.5,1.8,0.4,1.7,0,3.5c-2.2-0.5-3.7-0.8-5.4,0.9c-0.3,0-0.5-0.1-0.8,0c-0.5,0-1.1,0-1.5-0.3
		c-0.3-0.2-0.6,0.2-0.6,0.9c0,0.7,0.2,1.4,0.5,1.7c0.7,0.4,1.3,0.4,1.9,0.4c0.2,0,0.5,0,0.7,0c0.1,0.6,0.1,1.1,0.2,1.7
		c2.8-0.9,4.6,0.8,6.9,2.5c-0.7,3-1.6,1.2-1.5,3.7c-0.4,0.1-0.8,0.1-1.2,0.1c-1.1,0-2.2,0-3.2,1c-1.5-1-3.2-1.8-5.1-2.3
		c-0.3-0.1-0.5,0.4-0.5,1c0,0.7,0.3,1.2,0.6,1.3c1.8,0.5,3.4,1.2,4.8,2.2c0.3,1.1,0.8,1.4,1.1,1.6c0.1,0.1,0.3,0.2,0.4,0.3
		c0.1,0.6,0.3,1.2,0.6,1.2c0,0,0,0,0,0c0.2,0,0.3-0.2,0.3-0.5l1.5,0c0.1,0,0.2-0.2,0.2-0.5c0-0.3-0.2-0.5-0.3-0.5l-1.4,0
		c-0.2-1.3-0.7-1.8-1.1-2c0.7-0.5,1.5-0.6,2.3-0.6c0.5,0,1.1,0,1.6-0.1l0,0.2c0.2,1,0.7,0.7,1.2,0.8c0.8,3.3-1.6,0.2-0.8,3.5
		c1.3,0.3,1.9,0,2.3,0.8c-2.2,1.2-2.8,1.4-5.6-0.8l-0.1,0.4l-0.1,0.4c-0.5,0-1,0-1.5,0l0,0.4c-0.5-0.7-1.1-0.6-1.5-0.5
		c-0.4,0.1-0.7,0.1-0.9-0.2c-0.2-0.3-0.5-0.1-0.6,0.5c-0.1,0.5,0.1,1.2,0.3,1.4c0.5,0.6,1,0.5,1.4,0.4c0.3,0,0.5-0.1,0.6,0
		c0.1,0.8,0,1.3-0.2,1.4c0,0.5,2.4,0,1.3,2.6c1.1,1.5,2.4-1.4,3.5,1.7c0.5,1.8-2-1.2-0.7,0.9c0,1.3-0.3-0.1-0.7,0l0,0.3
		c-0.2-0.5-0.5-0.9-0.7-1c-0.1,0-0.3,0-0.5,0.5c-0.1,0.3-0.1,0.9,0.1,1.2c0.1,0.2,0.3,0.2,0.4,0.1c0,1.2-0.5,1.7-1.3,1.5
		c-0.1,2.8,1.3,1.2,1.4,3.4l0.1-0.1c0,0,0,0.1,0,0.1c0.3,0.9,0.7,1.7,1.1,2c0,0.1,0.1,0.3,0.1,0.4c-0.1,0.1-0.2,0.3-0.3,0.3
		c-0.1,0-0.2,0.1-0.3,0.2c-0.2,0.2-0.3,0.7-0.2,1.2c0.1,0.4,0.3,0.7,0.5,0.7c0,0,0.1,0,0.1,0c0.1-0.1,0.2-0.1,0.2-0.2
		c0.2-0.1,0.3-0.2,0.6-0.4c0.1,0,0.1,0.1,0.2,0.1c0,0,0,0,0,0l0.2,0c0.2,0,0.4-0.1,0.6-0.2l0,0.2c0.4,0,0.7,0,1.1,0
		c0.8,3.2-0.8,1.8-0.4,4.2c-0.3,0.1-0.6,0.1-1-0.1c-0.4-0.2-0.9-0.3-1.3-0.2l0-0.4c-0.8,0.7-2.5-0.9-1.6-1.7
		c-0.7-1.2-1.1-0.5-1.7-0.1c-0.1-0.6-0.2-1.1-0.2-1.4l0-0.3l-0.1-0.2c-0.3-0.5-0.8-0.6-1.4-0.6c-0.1,0-0.2,0.3-0.2,0.6
		c0,0.3,0.2,0.6,0.3,0.5c0.4-0.1,0.7,0,0.9,0.2c0,0.7,0.2,1.6,0.5,2.5l-0.3-0.2c-1.4-2-3.3,0-3,3.5c-0.7,0-1.5,0-2.2,0l0.1,0.5
		c-0.3-0.1-0.5-0.1-0.7,0c-0.1,0-0.2,0.1-0.3,0.1c-0.2,0-0.3,0.4-0.2,0.8c0,0.4,0.2,0.7,0.4,0.7c0,0,0,0,0,0c0.1,0,0.3-0.1,0.4-0.1
		c0.1,0,0.1,0,0.2,0c1.3,3.4,3,1.5,4.6,2.3c-1.3,4.8,7.1,5.8,4,7.7c1.9,1.4,4.2,1.3,6.1,2.5c0.2,2.6-2.2,2.1-2.9,0.9l0,0.4
		c-0.3-0.8-0.6-1.3-0.9-1.5c-0.2-0.1-0.3,0.1-0.3,0.5c0,0.4,0.1,0.8,0.3,0.9c0.2,0.2,0.4,0.4,0.5,0.7l-0.2-0.1
		c0.1,0.8,0.2,1.6,0.2,2.4c-0.3,1.1-0.5,2.3-0.5,3.6c-0.1,0-0.2-0.1-0.4-0.1c-0.2-0.1-0.3-0.1-0.5-0.2c-0.2-0.2-0.4-0.3-0.6-0.4
		c-0.9-0.5,0.3-1.3-0.6-2.6c-0.6,0-1.2,0-1.8,0c0,0,0,0,0,0c-0.2-0.8-0.4-1.5-0.8-2.6c-0.1-0.4-0.2-0.9-0.3-1.4
		c-0.1-0.5-0.3-0.8-0.5-0.8c-0.2,0.1-0.3,0.6-0.2,1.1c0.1,0.4,0.2,0.8,0.2,1.2c-0.2,0.2-0.5,0.3-0.7,0.6l-0.1,0.2l0,0.3
		c0,0.6,0,1.2,0.1,1.8c0,0.4,0.2,0.8,0.4,0.8c0,0,0,0,0,0c0.2,0,0.3-0.3,0.3-0.7c0-0.4,0-0.9,0-1.4c0.1-0.1,0.3-0.3,0.4-0.4
		c0.3,0.7,0.4,1.3,0.6,1.9c0,0.1,0,0.1,0.1,0.2l0,0c0.1,0.9,0.2,1.7,0.2,2.6c1.1,0.8,2.1,1.7,3.5,1.7l-0.1-0.5
		c0.2-0.1,0.4,0,0.6,0.1c0.2,0.1,0.4,0.2,0.6,0.2c0.1,0,0.2,0,0.3-0.1l0.2-0.2l-0.1-0.7c-0.1-1.3,0-2.5,0.4-3.6l0.1,0.4
		c2.2-0.7,3,2.7,5,2.5c0,0.4,0.1,0.9,0.1,1.3c-0.2,0.2-0.3,0.3-0.5,0.3c0,0,0,0-0.1,0c-0.1,0-0.2,0.2-0.2,0.5c0,0.3,0.1,0.6,0.3,0.6
		c0,0,0,0,0.1,0c0.3,0,0.6-0.4,0.9-0.7l0,0.6c0.1,0,0.2,0,0.4,0c-0.2,3.6-3,2.3-3.8,6.1c0.5,5.1,3.5,6,2.9,11.2c2.2,1,1.5-1,3.6-0.9
		l0.1,0c-0.1,1.8-0.8,2.6-1.5,3.3c-0.1,0.1-0.2,0.5-0.1,0.9c0.1,0.3,0.2,0.5,0.3,0.5c0,0,0.1,0,0.1,0c0.8-0.7,1.6-1.7,1.7-3.9
		c0.2-0.3,0.4-0.6,0.8-0.6c0,0,0,0.1,0,0.1c0,0.2,0.1,0.4,0.2,0.6c0,0.4-0.1,0.8-0.1,1.2c-1.2,2.1-0.2,6.6,1.3,7.4
		c0.1,0.4,0.1,0.8,0.1,1.2c0,0.5,0.2,1.1,0.4,1.3c0,0,0.1,0,0.1,0c0.2,0,0.3-0.3,0.4-0.8c0-1.2-0.2-2.3-0.4-3.1c0-0.1,0-0.2-0.1-0.2
		l0.3,0c0-2.3-0.5-3-0.8-4.6c0-0.2,0-0.4,0.1-0.6c0.1,0,0.1,0,0.2,0c0.3,0.4,0.5,0.7,0.8,0.9c0.4,0.2,0.6,0.4,0.7,1
		c0.1,0.2,0.2,0.4,0.3,0.4c0,0,0,0,0.1,0c0.1-0.1,0.2-0.4,0.1-0.7c-0.3-1.2-0.7-1.5-1.1-1.7c-0.2-0.2-0.4-0.3-0.6-0.5
		c0-0.1,0.1-0.1,0.1-0.2l0,0c0.2,0,0.2-0.6,0.2-1.1c0-0.1,0-0.2,0-0.3c0.1,0.1,0.2,0.1,0.3,0.1c0.8-0.5,1.5-0.5,2.2-0.2
		c-0.1,0.5-0.4,0.5-0.6,0.7c0.8,1.7,0.7,0.7,0.7,3.4c1.9,1.6,4.2,0.6,6.4,1.6c0.6,0.2,0.8,2.2,1.3,2.6c2.6,1.8,5.6-0.4,6.7,0.7
		c0.6,0.6,0.4,3,0.9,1.7l0-0.2c0.1,0.5,0.3,1.1,0.4,1.7c0.3,1.5,0.6,3.5,1.7,4l0,0.5c0.1,0,0.2,0,0.4,0c-0.1,3.5-1.6,0.2-2.9,0.9
		c0.2,1.5-0.3,1.8,0,3.5c0.5,0,0.9,0,1.4,0c0,0.5,0.1,1.1,0,1.5c0,0.3,0.1,0.6,0.2,0.7c0,0,0.1,0,0.1,0c0.1,0,0.2-0.1,0.2-0.3
		c0-0.6,0-1.3,0-1.9c0.5,0.7,1.1,1.1,1.9,0.8c0.3,2.3,0.2,3.7-0.8,3.5c0.3,1.1,0.9,1.6,1.6,1.7c0,0.1,0,0.2,0,0.3c0,0,0,0,0,0
		c0,0.6,0.1,1.1,0.2,1.5l0.1,0.4l0.2,0.2c0.3,0.3,0.6,0.5,0.9,0.6c0.1,0.1,0.3,0.1,0.4,0.2c0.1,0.4,0.2,0.9,0.3,1.3
		c-0.1,0.4-0.3,0.9-0.4,1.3c-0.1,0.3-0.2,0.6-0.3,0.9c-0.1,0.4-0.1,0.9,0.1,1.3c0.1,0.2,0.2,0.2,0.3,0.2c0.1,0,0.2-0.1,0.2-0.3
		c0.1-0.3,0.2-0.6,0.3-0.9c0.3-0.8,0.5-1.4,0.6-2l0-0.3l-0.1-0.3c-0.1-0.7-0.3-1.5-0.4-2.1l0-0.2l-0.1-0.2c-0.3-0.5-0.6-0.6-1-0.8
		c-0.1,0-0.3-0.1-0.4-0.2c0-0.1,0-0.3,0-0.4c0-0.2-0.1-0.3-0.1-0.5l0-0.1c2.9-1.1-0.2-7.6,1-8.7c-0.1-2.7-1.7-0.6-2.1-2.5l-0.1,0
		c0.1-0.3,0.3-0.5,0.4-0.8c2.5,0,4,3,6.9,4.2c-0.2,2-1.5,1.8-2.8,1.8c0.4,2.2,0.9,5.5,2.2,7.7c0,0.5-0.1,0.8-0.2,1.3
		c-0.2,0.1-0.3,0.3-0.5,0.3c0,0-0.1,0-0.1,0c-0.1,0-0.2,0.2-0.2,0.5c0,0.3,0.2,0.6,0.3,0.6c0.4,0,0.6-0.2,0.8-0.4l0,0.3
		c-0.2,1.8-0.1,4.1-1.1,4.3c0.4,2.8,1.7,3,2,6c0.3-0.2,0.3-0.9,0.7-0.9l-0.1-0.3c0.4,0.4,0.8,0.6,1.1,0.6c0.4,0,0.8-0.3,1.2-0.7
		l0,0.4c1.9,0.7,3.1,3.8,5.4,3.3c0,0.6,0,1.1,0,1.7c-0.8-0.3-0.7,1.2-1.5,0.9c0.2,1.2,1.1,0.3,1.3,1.7l0.1,0c0,0.4,0,0.8,0,1.2
		c0,0.2,0.1,0.4,0.1,0.5c-0.8-0.4-0.9,0.6-1.4,0.9l-0.1,0.2c0,0,0-0.1,0-0.1c-0.3-0.5-0.6-0.8-1-1.1c-0.2-0.2-0.4-0.4-0.6-0.6l0-0.1
		c-1.4-2.5-3.1-0.4-3.7,0.1c0.9,3.5,2.8,3.4,3.5,2.6c0.2,0.2,0.4,0.4,0.5,0.5c0.2,0.2,0.3,0.3,0.4,0.4c0.7,1.5,0.6,5.1,1.9,4.9
		l0.2,2.2c0,0.3,0.1,0.5,0.3,0.5c0.1,0,0.2-0.2,0.2-0.5l-0.2-2.2c0.6-1.2,0.8-3,1.8-3.4c0.7,3.5,1.3,1.6,3.2,2.5
		c-0.6-3,0.2-3.3-0.2-6c-1.4-0.6-1.7,1.1-2.9,0.9c-0.3-0.8-0.8-1.3-1.3-1.7c0-0.1,0-0.2,0-0.3c0-0.5,0-1,0-1.5l0.1,0.1
		c0.4-0.2,0.2-1.7-0.2-1.7l-0.3,0.2c0.1-1,0.1-1.9,0-2.8c0.4-2.5,1.8-4.2,2.3,0.8c0.8-2.5,1.3,1.7,2.7,0.8c0.1-0.5,0.6-3.3-0.3-3.4
		c0.3-1.3,1.3-1.3,1.6-2.6c0.7,3.4-0.1,4.2,1.5,7.7c0.7-2.6,3,3.6,3.2-0.8c0.3-0.1,0.6-0.1,0.9,0.1c0,0,0.1,0,0.1,0
		c0.1,0,0.2-0.2,0.3-0.5c0-0.4-0.1-0.8-0.3-1c-0.4-0.3-0.9-0.4-1.5-0.1l0-0.5c-0.1,0-0.2,0-0.4,0c1.2-2.6,4-1.5,5.8-0.1
		c-0.3,1.8,0.1,4,0.2,5.1l0.1,0.5l0.2,0.2c0.1,0.1,0.3,0.3,0.5,0.6c0.1,0.1,0.2,0.2,0.2,0.2c0.1,0,0.2-0.1,0.3-0.4
		c0.1-0.4,0-0.9-0.2-1.2c-0.1-0.2-0.3-0.4-0.4-0.5c-0.2-1.4-0.3-2.8-0.1-3.7l0,0.2c1.1,0.6,0.8,0.6,1.8,0c0,0,0,0.1,0,0.1
		c0.3,0.8,0.6,1.6,1.1,1.7c0,0,0,0,0,0c0.1,0,0.2-0.2,0.2-0.6c0-0.3-0.1-0.6-0.3-0.7c-0.2-0.1-0.4-0.4-0.7-1.2
		c-0.1-0.1-0.1-0.3-0.2-0.5l0.1,0.1c0.6-2,1.3,0.7,2.6,0c0.6-2.1,0.3-6,2.5-5.2c0.8-0.2,0.5,3.1,0.8,4.3c0.9,1.4,0.5-0.1,1.5,0
		l0.1,0c-0.1,1.2,0,2.5,0.2,3.7c-0.1,0.1-0.2,0.3-0.2,0.5l-0.2,0c-0.2,0-0.4,0.4-0.3,0.9c0,0.5,0.3,0.9,0.5,0.9l0.2,0
		c0,0.1,0,0.1,0,0.2c-0.1,0.6-0.2,1.1-0.2,1.6l0,0.3l0.1,0.3c0.2,0.6,0.5,1.2,0.7,1.8l-0.2,0c-0.7-2.6-3.2,0-3.6-3.4
		c-0.7,2.8-3.1,3.4-3.8-0.8c-0.8-0.4-0.6,1.2-0.5,2.6c-1.1,0.7-3.3-3.1-4,0.1c0.2,2.4,0.8-2.1,0.9,1.7c0.1,1.9-1.5,0.4-2.1,0.9
		c0.2-2.6,0-4.4-0.9-6c-0.7,2-1.7,0.9-2.4,1.8l0,0.3c-0.3-0.3-0.7-0.4-0.9-0.4c-0.3,0-0.6,0-0.8-0.3c-0.1-0.2-0.3-0.1-0.3,0.1
		c-0.1,0.2,0,0.6,0.1,0.8c0.4,0.6,0.8,0.5,1.1,0.5c0.3,0,0.6,0,0.8,0.3c0.9,1.3,0.3,1.9-0.3,3l0,0.1c0-0.1-0.1-0.2-0.1-0.2
		c-0.1,0-0.2-0.1-0.2-0.1c-0.1-1.2-0.5-1.4-0.6-2.4c-0.3,0.7-0.7,0.9-1.4,0.9l0.3,1.3l-0.6-0.4c0.5,2.6-0.1,3.1,0.1,5.2
		c0.6,0,1.2,0,1.8,0c-0.5-1.2-0.6-2.1,0.1-2.6l-0.1-0.2c0.1,0.1,0.3,0.2,0.4,0.2l0,0c0.6,1.3,1.2,2.4,1.8,3.4
		c0.5-0.5,0.8-1.3,1.3-1.7c0.7-1.6,2.3,2.4,2.8,2.5c0.8,0.2,1.8-1.9,2.8-1.8c2.6,0.4,5.1,2.4,8.3,2.4c0.9,0,1.9-1,2.9-0.9
		c1.1,0.1,2.2,1.6,3.1,1.7c0.7,0,3.5-2.7,3.8,0.8c2.1,2.5,2.5-1.7,4.5-2.7c2.4,3.1,7,1.2,9.3,1.3c0.1,0.2,0.3,0.4,0.4,0.5
		c0.1,0,0.2,0,0.3,0c0.5,0,0.9-0.2,1.3-0.5c0.1-0.1,0.2-0.1,0.3-0.2c0,0,0,0,0,0c0.4,0.1,0.9,0.3,1.3,0.5c0.5,0.3,1.1,0.5,1.7,0.6
		c0,0,0,0,0,0c0.1,0,0.1-0.1,0.2-0.2c0.4,0.3,0.7,0.5,1.1,0.5c0.3,0,0.6-0.3,0.8-0.6l0,0.3c1.7-0.4,4.4,0.8,5.4-1
		c-0.4-1.2-0.9-1.6-1.6-1.7c0-2.5,1.8-1.3,1-5.2c-1.7,2.9-2.4-5.8-4.2-6l0,0c0-0.1,0-0.2,0-0.2c0-0.4,0-0.8-0.1-1.3
		c-0.1-0.4-0.2-0.7-0.3-0.8l-0.2-2.1l0.3,0.2c0.5-4.2,2.7,3,3.1-1.8c1.9,3.1,2.1,1.8,3.7-0.1c0.9,0.3,0.4,4.6,1.2,5.2
		c0.9-2.1,1.5,1.6,1.8,0l-0.1-0.4c0.4,0.3,0.9,0.4,1.3,0.5c1,0.1,1.6,0.3,2,1.7l-0.1-0.1c-1.2,0.4-2.2,1.3-3.3,0.1
		c-0.3,0.6-0.4,1.6-0.5,2.6c-0.5-2.6-0.4-0.6-1.4,0.9c-1.1,0.7-0.7-3-2-1.7l0,0.1c-0.2-0.1-0.3-0.1-0.5-0.2
		c-0.3-0.1-0.4-0.1-0.5-0.4c-0.1-0.4-0.4-0.6-0.6-0.4c-0.2,0.3-0.2,0.8,0,1.3c0.4,1.2,0.9,1.3,1.2,1.3c0.1,0,0.1,0.1,0.2,0.1
		c1,2.2,0.4,3.6,1.2,5.8l0,0c-0.2,0.1-0.4,0.3-0.5,0.4c-0.1,0.2-0.2,0.3-0.4,0.4c-0.2,0-0.3,0.5-0.3,1c0.1,0.5,0.3,0.9,0.5,0.9
		c0,0,0,0,0,0c0.4-0.1,0.6-0.3,0.7-0.6c0.1-0.1,0.2-0.2,0.2-0.2c3.2,4.3,8,1.3,11,1.3l0-0.2c0.1,0.1,0.3,0.1,0.4,0.1
		c0.3,0,0.5-0.2,0.7-0.4c0.3-0.3,0.5-0.4,0.7-0.2c0,0,0.1,0,0.1,0c1.1,0.6,2.7,1.2,3.7,0.9c0,0,0.1,0.1,0.1,0.1c0,0,0,0,0.1,0
		c0.5-0.2,1.1-0.3,1.7-0.3c0.7-0.1,1.4-0.2,2.1-0.5l0,0.3c2.2-1,4.6,0.7,5.9-0.1c0.8-0.5,0.8-2.3,1.2-2.6c0.4-0.3,1.2,1.3,1.5,0.8
		c0.4-0.6,0.4-4.5,1.4-4.3l-0.1-0.2l0.1-0.1c0.2-0.1,0.4-0.2,0.7,0c0.1,0.7,0.1,1.3,0.2,2c2.1-1.5,3.8,0.6,4-4.4
		c-0.6,0-1-0.6-1.3-1.7l-0.2,0.1c0-1.5-0.3-3-0.7-4.3c0-0.1,0-0.1,0-0.2l0.1,0.1c0.5-1.6,1.1-3.2,2.7-2.6c-0.3-2.4-1.4-2.3-1.9-4.3
		c-1.2,5.9-8.8-5.2-3.2-2.5c0.6-3.8,3.1-6.8,3.2-0.9c0.5-0.3,0.4-1.5,0.9-1.7c0.1,5.4,2.5,2.8,5.1,6.8c0.1,1.2,0.2,2.3,0.3,3.5
		l0.1,0.4c0,0,0,0-0.1,0c-0.3,0.4-0.6,0-1.1-0.7l-0.2,0.8l0,0l0.1-1.3c-1.1-1.1-1.2-3.3-2.4-1.7c0.8,1.6-0.1,1.6,0.4,4.3
		c0.7,0,1.4,0,2.1,0c0.3,0.4,0.7,0.8,1,0.8c0.1,0,0.2-0.1,0.3-0.2l0,0.2c2.4,0.9,2.1-0.1,3.5-1.8c-0.1-1.9-0.6-2.7-1.3-2.6
		c0.3-1.3,1-2,1.3-3.4c0.1,0,0.1,0,0.2-0.1c0.3-0.7,0.7-0.5,1.3-0.1c0.3,0.2,0.7,0.5,1.1,0.4c0.2,0,0.4-0.1,0.6-0.3
		c1.3,2.7,3-0.2,4.1,3.2c-0.6,0.6-1.3,0.7-2.1,0.7c-0.5,0-0.9,0.1-1.4,0.2c0,0,0,0,0,0c0,0-0.1,0-0.1-0.1c0,0-0.1-0.1-0.1-0.1
		c0,0-0.1,0-0.1,0c-0.5-0.4-1.1-0.4-1.5-0.1c-0.3,0.2-0.4,0.9-0.2,1.6c0.1,0.7,0.5,1.1,0.8,0.9c0.2-0.1,0.3-0.1,0.4-0.2l0,0.1
		c0,0.5,0,0.9,0,1.3c0,0.7,0.2,1.4,0.6,1.6c0,0,0.1,0,0.1,0c0.3,0,0.4-0.4,0.5-1c0-0.5,0-0.9,0-1.4l0-0.7c0.4-0.1,0.8-0.2,1.2-0.2
		c1,0,2.1,0,2.9-1.3l0.1,0.3c1.2,0.9,1,0.4,1.8-0.9c-0.1-0.8-0.5-0.7-0.8-0.8c0.2-2.4,1.6-2.7,2.6-3.5l0-0.3c0,0,0,0,0,0
		c0.4,1.2,0.5,1.8,0.3,2.4c0,0.1,0,0.1,0,0.2l-0.7,2.1c-0.1,0.2,0,0.5,0.1,0.8c0.1,0.1,0.1,0.2,0.2,0.2c0.1,0,0.1-0.1,0.1-0.2
		l0.6-1.7c0,0,0,0,0,0c0.3,0.4,0.4,0.7,0.5,1.2l0.1,0.3l0.1,0.2c0.3,0.4,0.7,0.8,1.1,1l0.1,0l0.3-0.3c0,0,0.1-0.1,0.1-0.1
		c0,0.6,0,1.2-0.1,1.7c0,0.3,0,0.6,0,0.8c-0.2,0.1-0.3,0.1-0.5,0.3c-0.4,0.3-0.5,0.4-0.7,0.1c-0.3-0.4-0.7-0.2-0.8,0.5
		c-0.1,0.7,0.1,1.5,0.4,1.9c0.3,0.4,0.6,0.5,0.9,0.5c0.3,0,0.6-0.2,0.8-0.4c0.1-0.1,0.2-0.2,0.4-0.2c0.6,2.3,1.5,3.9,2.2,5.2
		c0.1,0.1,0.1,0.1,0.2,0.1c0.1,0,0.1-0.1,0.2-0.2c0.1-0.2,0-0.6-0.1-0.8c-0.9-1.6-1.6-3-2.1-4.9c0.1-0.3,0.1-0.6,0-1
		c0-0.2-0.1-0.2-0.1-0.4c0-0.3,0-0.6,0-0.9c0.1-0.7,0.1-1.5,0.1-2.3l0,0.1c1.6-1.1,1.7,2.1,2.6,3.1c0.1,0.2,0.1,0.4,0.2,0.6
		c0.3,1,0.7,2.2,1.3,2.8c0,0.3,0,0.6,0,0.7c0,0.2-0.2,0.7-0.5,0.5c-0.3-0.1-0.6,0.4-0.5,1.1c0,0.7,0.3,1.4,0.6,1.5
		c0.1,0,0.2,0.1,0.3,0c0.5,0,0.9-0.6,1.2-1.6c0.2-0.9,0.1-1.9,0-2.9c0.3-0.9,0.5-1.6,0.7-2.7l0.1,0.2c0.2,1.3,0.6,1.5,1.4,3.4
		c0.8-0.2-0.1-3.8-0.4-4.3c2.3,1.6,1.8-1.9,3.7-2.6c0.3,0.3,0.7,0.5,1,0.6c0.3,0.1,0.5,0.3,0.8,0.5c0.3,1,0.4,2.8,1.2,2.2
		c0.2-3.7,2.3-1.7,2.9-0.1c0.9-1.8,1.4-1.6,2.9-0.9c-0.9,4.3,1.2,0.6,2.1-0.9c0.7,1.4,0.1,3.2,1.2,5.2c0.8-0.9,3.5-1.8,4-0.9
		c0.7-0.4-0.8-2.4,0.9-1.7c-0.1-1.4-0.3-2.8-0.4-4.2c0.1,0.1,0.1,0.2,0.2,0.2c0,0,0,0,0,0c0.3,0,0.7-0.1,1-0.2
		c0.2-0.1,0.4-0.1,0.6-0.2c0.1,0.1,0.2,0.2,0.3,0.1c0.4-0.1,0.8,0.2,1.3,0.5c0.1,0.1,0.2,0.2,0.4,0.2l0,0c0.6,2,2.6,3,1.3,5.1
		l-0.6,0c-0.1,0-0.2,0.2-0.2,0.5c0,0.3,0.1,0.5,0.3,0.5l0.6,0c0.1,0.6,0.1,1.1,0.2,1.7c2.9,1,3.9-1.6,6.1-1.8
		c0.3-1.3,0.2-2.1-0.6-2.6c0.1-3.1,3.1-0.7,3.8-2.7c-0.6-0.6-1-0.6-0.4-2.2c0.3-0.1,0.5-0.2,0.6-0.1c0.1,0.2,0.1,0.4,0.2,0.6l-0.2,0
		c0.1,0.6,0.1,1.2,0.2,1.7c1.7,0.9,3.5,0.4,4.5,0.8l0-0.1c0.1,0,0.1,0.1,0.2,0.1c0,0,0.1,0,0.1,0c0.3-0.1,0.5-0.3,0.8-0.5
		c0.3-0.2,0.5-0.4,0.9-0.4c0.3,0,0.5-0.6,0.4-1.3c-0.1-0.7-0.4-1.3-0.7-1.3c0,0,0,0,0,0c-0.5,0-0.9,0.3-1.2,0.5
		c-0.1,0.1-0.2,0.1-0.3,0.2c0.2-0.9,0-1.2-0.3-2.4c-1.5-0.1-2.2,1.5-4,0.9c0-0.1,0-0.1-0.1-0.2l-0.2-0.3c-0.3-0.4-0.8-0.4-1.3-0.1
		l0-0.3c-0.5-2.5-1.1,0.5-1.8,0c-0.9,0.6-0.9-1.7-1.6-1.7c2-2,4.9-1.3,7.6-1c1.5,0.1,4.1,3.4,4.7-1c0.6,2.1,1.6,2.1,1.8,0
		c0.5,2.6,2.5,0.7,2.7,4.6c-1.2,0.5-2.4,0.9-3.7,0.6c-0.3-0.1-0.5,0.4-0.5,1c0,0.6,0.3,1.2,0.5,1.3c0.4,0.1,0.8,0.2,1.2,0.1
		c1,0,1.9-0.4,2.8-0.7l0.2-0.1l0,0c2.1,1.7,3.8-0.9,5.4-1c-0.1,3.1,2.3,1.8,2.6-0.1c5.5,5,12.8-1.5,19.5-0.4
		c-0.4-1.9,0.6-1.2,0.5-2.6c3.5,6.7,8.3-1,11.3,2.4c1.2-0.1,1.6-2.7,2.7-2.6c1,0.1,1.6,2.1,2.4,2.5c0.5,0.3,0.7-3.8,1.1,0
		c2.5-5.6,9.6-5.2,12.3-2c0.3-0.6,0.4-1.6,0.5-2.6c5-0.5,8.6-1,13.2-0.3c2.4-7.5,8.6-0.7,11.5-7.1c3.1,2.6,5.6,0.8,7.9,1.6
		c1.3,0.5,3,3.3,3.5,2.5c0.7-0.9,1.9-1.5,2-1.8c0.1-0.1-0.2-1.7-0.2-1.7c0.7-0.6,2.2,0.9,2.8-1.8c1.2,2,2.9,0.2,3.2,2.5
		c2-1.1,4.2,1,4.4-4.4c0.4,0.5,0.8,2.4,0.8,0.8c0.4,0.2,0.3,0.9,0.1,0.9c0.7,2.6,1.3-0.6,1.8-0.9c2.5,1.1,4.7,3.7,7.3,3.3
		c0.3,0,0.8-2.6,0.9-2.6c1-0.7,3.7-0.5,3.9,2.5l0.1,0c-0.1,0.2-0.3,0.4-0.4,0.6c-0.1,0.2-0.1,0.8,0,1.1c0.1,0.2,0.2,0.4,0.3,0.4
		c0.1,0,0.1,0,0.2-0.1c0.1-0.2,0.2-0.3,0.3-0.5l0,0.2c0.3,1.7,1.6-3.4,2.3,0.8c0.8-0.6-0.1-4.5,1.5-3.5c0-1.2-0.3-1.4-0.5-2.1
		c0.2,0,0.3,0,0.6,0c0.3,0.1,0.6,0.1,0.9,0l0,0.3c0.6-0.3,0.8,0.7,0.9,1.7c1.1,0,2.2,0,3.3-0.1c0.1-2.6-0.4-4.4-0.1-5.2
		c-0.2-1-0.7-0.7-1.2-0.8c0-0.3,0-0.6,0-1c0-0.5-0.1-1.2-0.1-1.8l0.3,0.2c1.3,0.7,2.5,0,3.8,1.7c0,0.3,0.1,0.6,0.1,0.9l0.2,0.4
		c-0.1,0.1-0.1,0.3-0.1,0.5c0,0-0.1,0.1-0.1,0.1c-0.4,0.3-0.8,0.7-0.9,1.7c0,0.4,0.1,0.8,0.2,0.9c0,0,0.1,0.1,0.1,0.1
		c0.1,0,0.2-0.2,0.2-0.4c0-0.4,0.3-0.6,0.5-0.8c0.1,0.5,0.1,1,0.2,1.4l0,0.5l0,0.3l0.1,0.3c0.4,1.1,1.1,1.2,1.6,1.4c0,0,0,0,0.1,0
		c0.3,0,0.4-0.4,0.4-1c0-0.6-0.3-1.2-0.5-1.3c-0.2,0-0.5-0.1-0.7-0.3c0-0.5-0.1-1.3-0.3-2.1l0.2,0.1c1.1,0.1,2-0.4,2.4-1.8
		c0,2.1,2.2,2.3,3.3,4.3c0.4-1.2,0.4-3.3,1.9-2.6c0.1,0.3,0.2,0.6,0.3,0.9l-0.1,0c-1.4-0.1-0.1,0.7-0.1,2.6c1,0.1,1.7-2.7,0.5-3.4
		c-0.1-0.3-0.2-0.7-0.4-1.1l0.2,0.1c1.1,1.1,1.3,1.8,1.1,4.3c1.6,0.5,1.2-2.9,2.2-3.5c1.8,3.9,2.3,2.2,5.4,2.5
		c-0.2-2.1,1.5-4.1,0.2-6c0.3-3.2,3.1-3.2,4.3-1c0.1,1.8-1.6,0.3-1.7,1.8c0.2,1.6,1.3,0.5,1.6,1.7c0,0.3-0.1,0.5-0.1,0.7
		c-0.1,0.4-0.1,0.8-0.1,1.3c0,0.3,0.1,0.6,0.2,0.7c0,0,0.1,0,0.1,0c0.1,0,0.2-0.2,0.2-0.4c0-0.4,0.1-0.7,0.1-1
		c0.1-0.5,0.1-1.1,0.1-1.8l0.2,0.5c0.2,1.6,2.6-1.4,1.9,0.8c2.4-1.3,6.9,4,9-1.9c-0.2-1.1-0.8-1.3-1-2.6c1,0,2.1-0.5,2.4,1.7
		c0.3,3.7-1.7-1.4-1.2,2.6c2.2,1.1,3.3,0,4.3-0.9c-0.1,4.3,4.1-1.1,4.7,2.5c1.2-2.6,1.3-7.3,4.6-6.1c0.5,0.3,0.5,2.2,0.7,3.4
		c3-1.4,4.7-1,7.6-1c-0.2-1.4,0.2-1.5,0.1-2.6c1.9,3.8,2.7,1.1,5,2.5c-0.5-4.4,2.1-3.8,3.4-2.7c0.1,0.8-0.4,0.7-0.7,0.9
		c2,1.7,3.6,0.8,4.2-1.8c0.9,0.5-0.3,1.4,0.6,2.6c2.2-0.3,3.5-5.3,5.5-0.1c1.2-1.2,1.4,0,2.5-0.9c-0.2-1-0.7-0.7-1.2-0.8
		c1-3,3.8-2.1,4.9,1.6c2.8-2.8,4.2-1.6,7.3-1c-0.1-0.9-0.2-1.7-0.2-2.6c1.2-0.2,2.7-1.1,2.3,0.8c2.1,2.9,4.8,0.1,6.5-1
		c0.7,0.7,1,3.8,1.6,1.7c-2.2-1.8,3.2-5,2.1-0.9c0.6,0.9,1.3-3.6,2.5-0.9l0-0.1c0.5,1,1.1,1.6,1.5,1.6c0,0,0.1,0,0.1,0
		c0.2,0,0.4-0.3,0.6-0.8l0,0.1c0.4,0.7,0.9,0.9,1.5,0.8c0-1-0.2-1.5-0.5-1.7c0.2-0.8,1.4-2.6,2-1.1c-0.3,0.5-0.7,0.9-1.1,1
		c-0.1,0-0.2,0.3-0.1,0.6c0,0.3,0.1,0.5,0.3,0.5c0,0,0,0,0,0c0.6-0.2,1.1-0.9,1.6-1.6l0,0.6c1.4,1.5,2.7,0.5,4-0.1
		c1.2,1-0.2,3.3,0.8,4.3c-0.4-4.2,1.4-8.7,3.3-4.4c0,1.9-1.9,0.1-2,1.8c0.7,1.6,1.8,2,2.5,3.4c1.5-2.7,2.6-0.2,4-0.9
		c-0.5-1.5-1.1-2.5-1.5-4.3c0.9,3.4,1.7,0.1,2.5,3.4c0.8-0.5,1.9-1.6,2.8-0.2c0.1,0.5,0.1,1,0.2,1.6l0.1,0.4l0.2,0.2
		c0.3,0.3,0.5,0.4,0.8,0.4c0.2,0,0.4-0.1,0.6-0.2l0,0.4c2.2-3.3,5,0.1,7.3-1c0.4,0.1,0.5,1.6,0.6,2.6c1.4-0.4,1.1-4,1.6-6.1
		c1.1-0.3,1.9,2,2.6-0.1c0,2.7-0.1,1.7,0.4,4.3c0.1-4.5,1.4-2.4,2.9-4.4c0.5,0.4,0,4.5,1.8,3.4c-0.1-1.2-0.2-2.3-0.3-3.5
		c0.9,1.4,2.4,0.9,3.2,2.5c0.8-0.5-0.6-1.3,0.1-2.6c1.3-0.9,1.2,2.1,2.4,1.7c0.1-1.1,0.6-1.6,1.3-1.7c0.2,0.2,0.4,0.4,0.5,0.7
		c0,0.1,0,0.2-0.1,0.3l-0.1,0.4c-0.1,0.5-0.1,1.3,0.2,1.7c0.1,0.2,0.3,0.3,0.4,0.3c0.1,0,0.3-0.1,0.3-0.4l0.1-0.4
		c0.1-0.4,0.2-0.7,0.3-0.9c0.1-0.2,0.1-0.3,0.2-0.6c0.1-0.1,0.2-0.2,0.3-0.2c0.2-0.1,0.3-0.6,0.2-1.1c-0.1-0.5-0.3-0.8-0.5-0.7
		c-0.1,0-0.2,0.2-0.3,0.2c-0.4-1-0.8-1.6-1.3-1.9c0-0.5-0.1-1-0.1-1.5c0.3-0.1,0.6-0.2,0.9-0.2c0,0,0,0,0,0c0.1,0,0.2-0.1,0.3-0.3
		c0.9-0.5,1.2-0.5,2.1,0.2c0.3,2,0.2,3.2-0.4,3.5c0.5,2.6,0.7-0.8,1.5,0l-0.1-0.6c0.5,0.9,1,1.6,1.6,2.1c0.2,0.2,0.4,0.3,0.5,0.5
		c0.1,0.1,0.1,0.1,0.2,0.1c0.1,0,0.2-0.2,0.3-0.5c0.1-0.4-0.1-0.9-0.3-1.1c-0.2-0.2-0.4-0.4-0.6-0.6c-0.5-0.5-0.9-1-1.3-1.7l0.2,0
		c0-1.2,0.6-0.1,0.8,0.8c0.3-0.6,0.4-1.6,0.5-2.6c1,2.4,1.7,1.2,2.8,2.5c0.3-2.8,1.5-5.3,2.2-3.5l0.1-0.1c0.3,1,0.9,1.4,1.2,1.6
		l0,0.2c-0.4,2.4,0,2.4-0.3,4.3c1.4,2.7,2.7-1,3.5-1.8c0-1.5-0.4-1.6-0.9-1.7c0.8-1.7,2.1-1.2,4.1,0.7l0.1,0.1
		c0.2,0.5,0.4,0.9,0.5,1.2l0.1,0.3l0.1,0.1c0.1,0.1,0.3,0.1,0.4,0.1c0.2,0,0.4-0.1,0.5-0.4c0.1-0.2,0.1-0.6,0-0.9
		c-0.1-0.3-0.3-0.4-0.4-0.2c-0.1,0.2-0.3,0.2-0.5,0.1c-0.1-0.4-0.3-0.8-0.5-1.2l0-0.1l0,0c-0.4-3.4,0.6,0.3,0.9-1.7l0-0.2
		c2,0.2,3.9,1.5,6,3c0.7,0.5,1.5,1.1,2.3,1.5c0,0,0.1,0,0.1,0c0.2,0,0.3-0.3,0.4-0.8c0-0.6-0.2-1.1-0.4-1.3c-0.8-0.5-1.5-1-2.2-1.5
		c-1.9-1.4-3.8-2.6-5.7-3c0.3-0.4,1,1.2,0.4-2.1c0.9-0.7,0.9,1.7,1.6,1.7c3.1-2,6.1,0.5,8.7-1.9l0-0.2c0.1,0.1,0.3,0.2,0.4,0.4
		c0.3,0.3,0.7,0.8,1.2,0.8c0.3,0,0.5-0.2,0.7-0.7c0.1-0.3,0.1-0.9,0-1.3c-0.2-0.4-0.4-0.5-0.6-0.2c-0.2,0.5-0.5,0.3-1.1-0.3
		c-0.1-0.1-0.2-0.2-0.4-0.3c-0.1-0.6-0.1-1.1-0.2-1.7c1.1-0.4,2.5-1.4,3.6-0.9c0.3,0.1,0.4,0.3,0.5,0.4c0.1-0.1,0.1-0.3,0.2-0.4
		c1-1.7,3.9,0.4,6.9-1c-0.3,1-0.2,1.6,0.4,1.7c0.1,0.4,0.2,0.8,0.2,1.3c0,0.3,0.1,0.5,0.3,0.5c0,0,0,0,0,0c0.1,0,0.2-0.2,0.2-0.5
		c-0.1-0.9-0.2-1.5-0.4-2.2l0.1,0c0.5-0.4-0.1-0.7-0.2-1.7c1.4,0.6,1.4-1.5,2.9-0.9c-0.6-6.4,2.2-6,3.8-6.1c0.9-0.1,1.6-1.8,2-1.8
		c1.4,0.1,3.1,1.5,4.6,1.6l-0.2-0.7c0.3,0.4,0.7,0.7,1,0.7c0.2,0,0.4-0.2,0.6-0.4l0,0.3c0.8,0.1,2.8-2.5,3.2,2.5
		c0.5,0.1,1.1,0.1,1-0.9c0.2,0.1,0.4,0.1,0.5,0.2l0-1.3c-0.2-0.1-0.5-0.2-0.8-0.3l0.2-0.3c0.3-1.1,0-1.4-0.2-2.6
		c2,1,3.4,3.9,4.7,3.4c0.5,0.3,0.2,1.5-0.2,1.7c0.7,1.1,1.5,0.9,2.1,0.7c0.1,0.8,0.1,1.5,0.2,2.3c0.5-0.2,1-0.4,1.5-0.7
		c0.1,0.3,0.1,0.6,0.2,1c0.2-0.3,0.5-0.9,0.9-1.5c1.2-0.5,2.4-1,3.4-1.2c0.2,0.4,0.3,0.9,0.4,1.7c0.6-0.7,1.1-1.1,1.6-1.5
		c0,0.1,0.1,0.2,0.1,0.3c0.1,0.3,0.2,0.4,0.4,0.4c0,0,0,0,0.1,0c0.2-0.1,0.3-0.3,0.2-0.6c0-0.2-0.1-0.3-0.2-0.5
		c0.8-0.2,1.7,0.2,2.9,1.8c-0.1-0.8,0.4-0.7,0.7-0.9c-0.1-3.3-1.1-3.9-2-5.1c0-0.6,0-1.1,0.1-1.6c3.5-1,8.5,0.5,11.2-0.8
		c0.2-1.1-0.8-1.8,0.1-4c0.6,0.5,1.3,0.9,2.4,0.6c-2.8-1.4-5.3-2-6.7-1.9c-0.3-3.7,4-2.4,4.8-3.5c0.9-0.2-0.1-2.9,0.6-3.4
		c1.9-0.5,3-0.3,4.1-0.8c-0.5-5-5.8-0.8-4.7-5.3c0,0,0,0,0,0c0.1,0,0.1,0.1,0.2,0.1c0.4,0,0.8,0.2,1.2,0.4c0.5,0.2,0.9,0.5,1.5,0.4
		c0,0,0.1,0,0.1,0c0.6,1.9,2.1,1.1,2.4,3.9c0.6-1.7,0.3-2.7-0.1-4.1c1.1,0.3,1.5,0.7,2.1-0.8c-1.3,0.3-1.9-1.1-2.2,0.3
		c-0.1-0.5-0.3-0.9-0.4-1.5c-0.4,0.1-0.7,0.4-1.1,0.7c-0.2-0.2-0.4-0.4-0.6-0.3c-0.5,0.3-1,0.1-1.6-0.2c-0.4-0.2-1-0.4-1.5-0.4
		c0,0,0,0,0,0c-0.1,0-0.1,0.1-0.2,0.1c-0.3-2-1.8-0.9-2.3,0c-0.5-3.3-2.7,1.3-2.6-2.6c-1.5-0.2-2.1,1.6-3.2,0.1l-0.3,0.1l0,0
		c0.2-0.5,0.3-1,0.6-1.6c0.1-0.2,0-0.4-0.1-0.6c-0.1-0.1-0.3-0.1-0.4,0.1c-0.2,0.5-0.3,0.9-0.5,1.3c-1.7,0.9-3.6,1.4-5,1.1
		c-0.1-0.5-0.1-1.1-0.3-1.6c0,0,0.1,0,0.1-0.1c0.1-0.1,0.2-0.4,0.1-0.6c-0.1-0.2-0.2-0.1-0.3-0.1c-0.1-0.4-0.2-0.8-0.3-1.2
		c0.5,0,1.2,0,1.8-0.2c1.2-0.4,4.2-3.1,5.1-0.1c0.6-0.2,0.4-1.5,0.7-2c0,0,0.1,0,0.1,0c0.3,0.8,0.6,1.3,1.1,1.3c0-0.4,0-0.7-0.1-1
		c1.9,0.7,3.6,0.9,5.3,0.8c0.2,0.2,0.4,0.1,0.7,0c0.8-0.1,1.6-0.3,2.4-0.5c0.5,1.2,0.9,2.7,1.4,1.4c0.2,2.2-0.4,2.7,0.7,3.4l0-0.3
		c0.4,0.9,0.8,1.2,1.2,1.4c0.2,0.1,0.4,0.2,0.6,0.4c0.2,0.5,0.2,0.9-0.1,1.1c2.2,2.4,1.4-4.4,4.2-1.8c-0.1-2.1-0.8-2.6-1.1-4.3
		c1.1,3.6,2.9,2,3.7,4.2c0.3-0.5,0.3-2.4,0.7-0.9c0.6,0.4-0.3-3.2-0.7-3.4c0.4-1.4,1.7-1,2-2.6c-0.3-0.9-0.5-1.7-0.7-2.4
		c1.9-0.3,4-0.5,6.2,0c-0.8-2.5-2.1-4.3-2.9-6.7c-1.1,1.5-2.7-0.1-3.5-1.7c0.1-0.1,0.2-0.2,0.2-0.4c0-0.1-0.1-0.3-0.2-0.5
		c3.9-0.2,8.9,2.1,10.9-2.2c-4.3-1-5.2-3.2-8-1.2c-0.3-0.9-0.8-1.5-1.4-2c0.1-0.1,0.1-0.3,0.3-0.2c-0.6-2.5-1.4-0.2-1.6-1.7
		c-0.2,0.3-0.3,0.7-0.3,1.1c-0.9-0.3-1.9-0.5-2.8-0.7c-0.1-0.4-0.1-0.8-0.3-1.2c1.5,2.1,0.7-6.6,2.6-7.8c-0.6-2.5-2.3-1.9-2.7-5.1
		c-2.4,2.9-3.6-5.3-5.7-2.5c-0.2-1-0.1-1.5,0.2-1.7c0-2.3-1.7,0.7-1.6-1.7c-0.8,1.8-1.1,4.6-1.1,7.8c-0.7-1.6-2-1.3-2.2-4.3
		c-0.4,0.9-0.5,2.3-1.2,2.6c-0.5-0.3-0.7-1.5-1.3-1.7c1.4-4.7-2.3-7.8-3.2-14.6c-1.4,0.8-2-0.9-2.6-2.7c2.7-0.4,5.5-0.5,6.6-2.2
		l0-0.1c0.2,0.1,0.5,0.1,0.7,0.1c0,0,0,0,0,0c0.4,0,0.7-0.4,0.6-1c0-0.6-0.4-1-0.8-1.1c-0.1,0-0.3-0.1-0.4-0.1
		c-1.4-1.7-3.1-0.5-4.9,0c0-0.2,0-0.4,0-0.6c0.5-0.1,0.9-0.3,0.7-1.2c-0.3-0.3-0.7-0.4-1-0.6c-0.1-0.3-0.1-0.6-0.2-0.9
		c-0.1,0.3-0.2,0.4-0.3,0.5c-1.9-0.8-3.8-0.4-5.3-0.9c-0.1-0.3-0.2-0.3-0.2-0.4c0.3-0.7,1.4-0.3,1.6-1.1c-0.4-1-0.9-1.6-1.6-2
		c1.5,0.1,1.5-2.1,3-1.4c0.1,0.4,0.2,0.8,0.1,1.4c0,0.1-0.1,0.2-0.1,0.2c-0.2,0.3-0.4,0.7-0.5,1.3c0,0.2,0.1,0.4,0.2,0.5
		c0,0,0.1,0,0.1,0c0.1,0,0.2-0.1,0.2-0.3c0.1-0.4,0.2-0.7,0.4-1c0.1-0.1,0.1-0.2,0.2-0.4l0,0c-0.2,2.7,0.8,2.1,1.1,3.4
		c0.8-0.3-0.3-4-1-3.4l0-0.1c0.1-0.8-0.1-1.6-0.3-2.3l0.2,0c-0.2-0.9-0.8-1.1-1.1-1.9c0.3-0.1,0.5,0,1,0.2c0.4,0.2,0.8,0.4,1.3,0.4
		c0,0,0,0,0,0c0.3,0,0.5-0.4,0.5-0.8c0-0.5-0.3-0.9-0.6-0.9c-0.3,0-0.6-0.2-0.9-0.3c-0.6-0.3-1.3-0.6-2-0.2
		c-1.2-1.4-3.2-0.8-3.7-0.6c0,0,0,0,0,0c-0.2,0-0.1,0,0,0c-0.1-0.7-0.8-1-0.1-1.3l-0.1-0.4c0.1,0,0.3,0.1,0.4,0.1
		c0.2,0,0.4,0,0.6-0.1c0.2,0,0.4-0.1,0.7-0.1c0,0,0,0,0.1,0c0.2,0,0.3-0.2,0.3-0.5c0-0.3-0.2-0.5-0.4-0.5c-0.3,0-0.6,0.1-0.8,0.1
		c-0.1,0-0.3,0-0.4,0c0-0.1,0-0.2-0.1-0.2c0,0,0.1,0,0.1,0c0,0,0,0,0,0c0.3,0,0.5-0.3,0.7-1c0-0.1,0-0.1,0-0.2
		c0.2-0.1,0.4-0.2,0.5-0.4l0.1-0.2l0-0.3c0-0.6-0.2-1.3-0.4-1.9l0.1,0c0-0.2,0-0.4-0.1-0.7c0.1,0,0.3,0,0.4-0.1
		c0.5-0.2,1-0.3,1.4-0.1c0.4,0.2,0.7,0,0.8-0.5c0.1-0.5-0.1-1-0.5-1.2c-0.8-0.4-1.5-0.2-2.2,0c-0.2,0.1-0.5,0.1-0.7,0.2l0-0.2
		c-0.6-0.1-1.1-0.5-1.7-0.8c0.1-0.2,0.3-0.4,0.4-0.5l-0.1-0.5c0.5,0.1,1,0.2,1.4,0.2c0.6,0,1.1-0.1,1.7-0.2c0.3,0,0.6-0.1,0.8-0.1
		c0.2,0,0.3-0.4,0.2-0.8c0-0.4-0.3-0.8-0.4-0.7c-0.3,0-0.6,0.1-0.8,0.1c-0.9,0.1-1.8,0.2-2.7,0c-0.2-1.3-1.3-0.1-1.8-0.6
		c0.3-1.4,0.8-2.6,1.2-3.7c1,0.3,2,0.3,2.4-1.1l-0.1-0.4c0.4,0.3,0.9,0.5,1.4,0.5c0.4,0,0.7-0.2,1.1-0.4l0,0.2
		c0.2-1.5,3.3,0.6,2.6-2.1l-0.1-0.4c0,0,0.1,0.1,0.1,0.1c0.5,0.7,0.9,0.8,1.3,0.4c0,0,0,0,0,0c0.2,0,0.3,0,0.4,0c0.2,0,0.5,0,0.7,0
		l-0.1,0.5c0.2,0,0.4,0,0.7,0l0.5,0.3c0.7,1.2-0.3,1.9,0.6,3c0,0,0,0,0,0c0,0.3,0,0.6,0.1,1c0.2-0.6,0.9-1.4,1.1,0
		c0-0.9,0.2-1.7,0.4-2.3c0.1-0.1,0.3-0.1,0.6-0.1c0.1,0.1,0.1,0.3,0.2,0.4l0.1,0.1l0.1,0c0.3,0.1,0.6,0.1,0.8,0.1
		c0.5,0,0.9-0.3,1.3-0.6l-0.1,0.5c0.8,1.9,2.4,0,2.2-1.4l-0.1-0.2c0.7-0.4,1.4-0.2,2.1,0c0.5,0.4,1,0.9,1.4,1.4
		c-0.1-0.5,0-0.8-0.1-1.2c0.1,0,0.1,0,0.2,0c0.1,0,0.3,0,0.4,0c0.2,0,0.3-0.3,0.2-0.6c-0.1-0.3-0.2-0.5-0.4-0.4
		c-0.2,0-0.3-0.1-0.5-0.1c0-0.7,0.2-1.1,0.5-1.3c-0.8-2.5-2.2-4.3-2.7-1.7c0.2-0.8,0.1-1.6,0.1-2.3c1.9,0.4,4.2,0.4,6.2,0.7l0-0.3
		c0.4,0.7,0.7,1.1,1.2,1.5c0.1,0.1,0.2,0.1,0.3,0.1c0.2,0,0.3-0.1,0.4-0.3c0.1-0.3,0-0.7-0.2-0.9c-0.4-0.3-0.6-0.6-0.9-1.1
		c-1-2.6-4.1-2.7-6.3-3.6c1.1-0.4,1.4,0.5,2.8,0.1c-0.3-2-0.2-3.2,0.4-3.5c0.2-1.8-2-1.7-1-2.6c-0.1-0.6-0.2-0.8-0.4-0.9
		c2.2-1.5,3.6,2,4.4-1.4l-0.1-0.2c1.2,0.6,2.4,0.9,3.5,1.1c1.6,0.4,3.2,0.7,4.7,1.9c0.1,0.1,0.2,0.1,0.3,0.1c0.2,0,0.3-0.1,0.4-0.3
		c0.1-0.3,0-0.8-0.3-1c-1.6-1.3-3.3-1.7-5-2c-1.1-0.2-2.2-0.5-3.3-1c-2.4-3.2-6.6,0.3-7.3-5.1l0,0c0.6,0.2,1.1,0.5,1.7,1
		c0.4,0.3,0.8,0.6,1.3,0.8c0.1,0,0.1,0.1,0.2,0.1c0.2,0,0.4-0.2,0.5-0.5c0.1-0.4-0.1-0.9-0.4-1.1c-0.4-0.2-0.8-0.5-1.1-0.8
		c-0.7-0.5-1.5-1-2.3-1.2l0-0.2c-1.6-0.2-3-0.1-4.4-0.1c-0.1,0-0.1,0-0.2,0c-0.2,0-0.3,0-0.5,0l0-0.1c-0.9,0-1.2-1.5-2.3-0.8
		c-0.2-2.1,0.4-2.7-0.4-4.3c-1,1.2-1.2,0.2-2.6,0.1c0-2-1.6-3.4-2.1-6.9c1.6-1,2.1,4.5,3.1,1.7l0-0.1c0.6,1.2,1,2.2,1.2,2.8
		c0.1,0.2,0.1,0.3,0.2,0.3c0,0,0,0,0.1,0c0.1-0.1,0.1-0.4,0.1-0.6c-0.2-0.8-0.7-1.9-1.4-3.4l0.2,0.1c-0.2-1.7-0.3-3.4-0.5-5.2
		c-0.6,2.3-1.2-2.3-1.8,0c0.1-1.7,0-2.1-0.1-2.9c2.5-0.7,7.7,2.4,8.2,0.2c1.5,0.6,3,1,4.5,1.2c1.3,0.3,2.5,0.5,3.7,0.9c0,0,0,0,0,0
		l0,0.1c0.6,0.2,2.2,1.6,3,0.2c1.6,1.6,3.3,1.7,4.9,1.6c1,0,2,0,3,0.4c0.1,0,0.1,0,0.1,0c0.2,0,0.4-0.2,0.5-0.6
		c0-0.4-0.2-0.8-0.4-0.9c-1.1-0.4-2.2-0.4-3.3-0.4c-1.7,0-3.3,0-4.6-1.6c-0.2-0.2-0.4-0.1-0.5,0l-0.1-0.1c-0.4-1-4-2.6-3.6-1.3
		c-0.9-0.3-1.8-0.5-2.7-0.7c-1.5-0.3-3.1-0.6-4.6-1.3c-0.1,0-0.1,0-0.2,0c-2.3-1.2-6,0-7.5-2.5l-0.1,1l-0.3-1
		c-2.2,0.8-1.1-2.4-0.1-0.7l0.1-1l0.3,1c0.7-0.1,1.6,0.1,1.3-1.4c1.7,0.5,2.6,2,3.7-0.1c3.9,4.7,9.9,1.4,15.5,1.7
		c6.4,0.4,12.4,3.9,16.1,3.1l-0.1-0.4c1.7,0.6,3.5,1,5.3,1.5c2.6,0.6,5.2,1.2,7.7,2.4c0.1,0,0.1,0,0.2,0c0.2,0,0.4-0.2,0.4-0.5
		C683.1,102.4,683,102,682.7,101.9z M480.6,73.4c-0.4-0.3-0.8-0.5-1.2-0.5c0-0.2,0-0.5,0-0.6c0-0.1,0.1-0.1,0.1-0.2
		c0.1-0.2,0.2-0.4,0.3-0.5c0.1,0.1,0.2,0.2,0.3,0.4c0.2,0.2,0.4,0.4,0.5,0.7C480.6,72.8,480.6,73.1,480.6,73.4z M90.6,121.4
		c-0.2-0.2-0.3-0.3-0.5-0.5c-0.1,0-0.1-0.1-0.2-0.2c0.3-1.2,1-1.8,1.4,0.3C91,121.1,90.8,121.2,90.6,121.4z M42.6,166.9L42.6,166.9
		c-0.1,0-0.3,0-0.4,0l0.1,0.3c-0.7-0.6-1.1-1.3-1.5-2.3c0-0.1,0.1-0.1,0.1-0.2c0.2-0.3,0.3-0.6,0.5-0.9c0.4,0.4,0.7,0.7,1,0.9
		c0.1,0.1,0.3,0.2,0.4,0.3c0,0.2,0.1,0.6,0.1,0.9C42.8,166.3,42.7,166.6,42.6,166.9z M33.2,219.6c-0.1,0-0.2,0.1-0.3,0.1
		c-0.1-0.4-0.2-0.7-0.2-1l-0.2-0.5l-0.3-0.1c-0.2,0-0.4-0.4-0.5-0.8l0.1-0.1c0.7,0.5,1.6,0.4,2,1.7C33.4,218.8,33.3,219,33.2,219.6z
		 M31.6,234.5c-0.1-1.4-0.5-3.3,0-3.5l0-0.3c0.1,0.1,0.3,0.2,0.4,0.3c0.1,0.1,0.2,0.2,0.3,0.2C32,232.1,32.8,235.2,31.6,234.5z
		 M32.7,230.1l0,0.3c-0.2-0.2-0.4-0.4-0.6-0.5c-0.1-0.1-0.2-0.1-0.3-0.2c-0.8-1.8,0.7-0.7,1-1.9c0.2,0,0.5,0.1,0.8,0.2
		c0.3,0.1,0.6,0.3,1,0.3c0.3,0,0.6-0.3,0.9-0.8l0.1,0.7c0.4,0,0.7,0,1.1,0c0.7,2.7,0.1,2.3,0.8,4.3
		C35.3,233.9,33.1,229.8,32.7,230.1z M40.8,195.4c0,1.9,1.3-1.1,0.4,0.9c0,0.5,0,1-0.3,0.9C40.5,196.8,40.2,193,40.8,195.4z
		 M44.4,250.4l0-0.3c0-0.4,0.1-0.9,0-1.7c0-0.1-0.1-0.1-0.1-0.2l0.1-0.2c0.4-0.1,0.7,0.2,0.8,0.9c-0.5,0.4,0.1,0.8,0.2,1.7
		c-1.7-0.6,0.5,1.7-0.6,1.7c-0.2-1-0.8-0.6-1.1-1.3c0.2-0.2,0.4-0.5,0.7-0.6L44.4,250.4z M43.9,248.8c0,0.2,0,0.5,0,0.7
		c-0.4,0.1-0.7,0.5-1,1l0-0.7c-0.8-0.6-0.5-2.6-1.2-0.8C41.3,245.5,43.4,247.9,43.9,248.8z M34.3,184.3c0.4,0.1,0.6-0.2,0.7-0.9
		l-0.3-0.3c0.2,0,0.3-0.1,0.5-0.2c0.2-0.1,0.4-0.1,0.5-0.1c0.2,0.5,0.4,0.7,0.4,1.4C35.4,183.8,34.8,186.8,34.3,184.3z M46.7,263.5
		c-1.9,0.1-2.3,1.4-4.2,0.1c-0.5-8.9,3.2-3,5.1-1l0,0C47.1,263,46.9,263.3,46.7,263.5z M50.6,268.2c-0.9-0.5-1.9-0.5-2.9,0.1
		c0,0,0,0.1-0.1,0.1c-0.1-0.6-0.2-1-0.3-1.4l0.1,0c0-0.3-0.1-0.6-0.1-0.8c0.2-0.2,0.5-0.5,0.8-0.9c1.2,0,2,1.2,2.7,2.5
		c-0.1,0-0.2,0-0.4,0L50.6,268.2z M41.9,179.9c-0.3,0.2-0.3,0.9-0.7,0.9c-0.1-0.8-0.2-1.7-0.2-2.5l0.7,0c0.1,0.6,0.2,1.2,0.4,1.8
		L41.9,179.9z M43,179c-0.2,0-0.4,0-0.6,0c-0.1-0.4-0.2-0.8-0.2-1.2l0-0.3c0.2-0.1,0.3-0.1,0.5,0c0.1,0.3,0.3,0.7,0.5,1.1L43,179z
		 M44.7,185.9C45,183.1,44.1,192.5,44.7,185.9L44.7,185.9z M47.9,184.9c-0.1-0.5-0.2-1-0.5-0.9c0,0.7,0.2,1.7-0.2,1.7
		c-0.5-2.2,1-4.1,1.2-2.6C48,183.2,48.3,184.7,47.9,184.9z M90.7,162.5c0.1,0.9,0.4,1,0.5,1.7c-0.5,0.1-0.4,1.1-1,0.9
		C90.1,163.6,90.3,162.9,90.7,162.5z M67,164.7c-0.3,0.7-0.7,0.9-1.4,0.9l0-0.5c0,0,0.1,0,0.1-0.1l0.2-0.6l0,0.4
		C66.6,164.9,66.7,163.2,67,164.7z M66.2,159.5c-1,0,1.1,2.3-0.6,1.7l0.1,0.6c-0.4-0.7-0.8-1.2-1.1-1.5c-0.5-0.4-0.8-0.6-1-1.3
		c0-0.1,0.1-0.2,0.1-0.3C64.5,159,65.8,157.7,66.2,159.5z M64,152.6L64,152.6c0.5,0.5,0.8,0.8,1,1.8c-0.2,0.1-0.3,0.6-0.5,0.7
		c-0.1-0.3-0.1-0.7-0.2-1.1C64.2,153.5,64.1,153.1,64,152.6z M61,143.2L61,143.2c0,0.2,0,0.5,0,0.7c-0.1,0-0.3,0-0.4,0
		c-0.5-0.1-1-0.1-1.4,1l-0.1,0.4c0,0.5-0.1,0.8-0.2,1.2c-0.8-1.1-1.6-2-2.6-2.3c-0.1-0.3-0.1-0.4-0.2-0.7
		C57.4,141.7,59.4,141.2,61,143.2z M50.8,161.6l0.1,0c0-0.3-0.1-0.6-0.1-0.9c0.3-3.4,1.4-2.2,1.8-4.4c-0.7-0.8-1.4-1.6-1.5-4.3
		L51,152c0.3-0.3,0.6-0.6,1-0.8c0.1,0.7,0.2,1.4,0.3,2.2c0.1,1.2,0.2,2.5,0.7,3.8c0.1,0.2,0.2,0.4,0.3,0.4c0.1,0,0.1,0,0.2-0.1
		c0.1-0.3,0.1-0.8,0-1.2c-0.3-0.9-0.4-1.8-0.5-2.9c-0.1-0.8-0.2-1.7-0.4-2.6c0.4-0.6,0.9-0.9,1.4-1.2c0.5-0.3,1-0.7,1.5-1.3l0,0.2
		c1.5-0.2,0.9,0.4,0.5,1.7c1.9-0.8,3.1,1,3.5-1.8l-0.1-0.1c0.3-0.6,0.4-1.3,0.5-2.2c0.1-0.3,0.4-0.3,0.7-0.3c0.3,0,0.6,0,0.8-0.2
		l0,0.1c1.1-0.5,1.8,0.6,2.7,0.8c0.4,2.7-1.1,2.3,0,4.3c-0.9-0.1-1.5,0.5-1.7,1.8c0.2,0,0.5,0,0.7,0l0.1-0.2c0.1,0.5,0.2,1,0.3,1.6
		c0.1,0.7,0.2,1.4,0.5,2.1l-0.2-0.2c-0.5-0.1-1.1-0.1-1,0.9l0.2,0.1c-0.2,0.4-0.3,0.9-0.4,1.6l0,0.2l0.1,0.3c0.4,1.6,1,2.1,1.5,2.6
		c0.3,0.3,0.6,0.6,0.8,1l-0.3,0.8c0,0.1,0,0.2,0,0.4c-0.2,0.1-0.4,0.2-0.6,0.3c-0.1,0.1-0.2,0.1-0.3,0.2c-0.3-1.4-0.9-1.5-1.7-1.4
		c-0.6-1.1-1.2-1.9-1.7-2.5c0,0-0.1,0.1-0.1,0.1c-0.2-1-0.4-2.3-1.1-1.8c0.2,0.9,0.6,1.6,1,2.1c0,0.2,0,0.4,0.1,0.5
		c0.5,0.6,1,1.4,1.6,2.4c0,0.1,0,0.1,0,0.2c-0.4,1.2-1.6,1.2-2.2,0l0,0.1c0-0.1,0-0.1-0.1-0.2c-0.1-0.1-0.1-0.1-0.2-0.1
		c-0.1-0.6-0.2-1.2-0.3-1.6l-0.1-0.4l-0.2-0.1c-0.3-0.2-0.7-0.3-1.1-0.3l-0.2,0c-0.2-0.1-0.4,0.4-0.3,0.9c0,0.5,0.3,1,0.5,1l0.2,0
		c0.2,0,0.5,0,0.7,0.1c0,0.2,0.1,0.5,0.1,0.7c0,0.1,0,0.3,0,0.4c-1.2,1.2-2.6,1.3-4,1.2c-0.4,0-0.8,0-1.2,0
		c-0.1-0.4-0.2-0.8-0.2-1.3c-0.1-0.4-0.2-0.6-0.4-0.6c-0.1,0-0.2,0.4-0.2,0.7c0.1,0.4,0.1,0.8,0.2,1.2l0,0c-0.5-0.3-0.7-1.5-1.3-1.7
		l0,0.4C51.6,163.4,51.1,162.2,50.8,161.6z M64.4,168.2c-0.1-0.9-0.2-1.7-0.2-2.6l-0.2-0.1c0.2-0.1,0.3-0.1,0.5-0.3
		c0.2-0.1,0.4-0.2,0.6-0.3c0,0,0,0,0,0.1c0,0.1,0.1,0,0.1,0.1l0.1,0.6C64.4,165.5,65.1,168.1,64.4,168.2z M64.2,174.3
		c-0.2-1.5,0.1-2.2,0.5-2.6C65.4,172.9,65.6,175,64.2,174.3z M51,178c-0.1-3.1,1.7-2.5,3.1-2.7l0.1-0.3c0.4,0.8,0.8,1.4,1.1,1.8
		c0,0,0.1,0,0.1,0.1l0,0.2c0,0.3,0.1,0.6,0.1,0.8l-0.2,0.1c-0.6,0.2-1.1,0.4-1.7,0.5C52.7,175.9,51.9,179.8,51,178z M55,173.8
		c0-0.2,0-0.5-0.1-0.7c0.3-0.3,0.6-0.3,1-0.3c0,0,0.1,0,0.1,0c-0.2,0.6-0.4,1-0.7,1.4C55.1,174.1,55.1,173.9,55,173.8z M53.4,180.6
		c0.1,0.1,0.1,0.2,0.2,0.2c0,0,0,0,0,0c0.6-0.1,1.3-0.3,1.9-0.6l0.4-0.2l0,0.3c0.4-0.1,0.6,0.1,0.7,0.6c0,0.1,0,0.2,0,0.2
		c0,0.2,0,0.4,0,0.6C55.6,180.8,53.2,185.7,53.4,180.6z M67.6,284c-0.4-0.4-0.6-1.1-0.8-2.4c-0.1-0.7-0.3-1.4-0.5-2.1l0.1,0
		c0.8-0.3,1.4,0.1,1.9,0.8l0.2-0.2c-0.1,0.4-0.2,0.9-0.4,1.2C67.9,282.1,67.6,282.9,67.6,284z M57,180.6l0.1-0.2
		c0.4,1.5,1.7-0.1,2,1.7c-0.5,0.3,0.5,1.5-0.2,1.7c-0.1-2.4-1.2,2.2-1.5-0.8l-0.2,0.2c0.1-0.6,0.1-1.2,0.1-1.7c0-0.2,0-0.4,0-0.5
		C57.2,180.8,57.1,180.7,57,180.6z M68.8,283.8c-0.3,0-0.6,0-0.9,0c0.1-0.7,0.2-1.2,0.4-1.8c0.1-0.3,0.2-0.8,0.3-1.1l0,0.3
		c0.4,0,0.4,1,0.5,1.7l0.1,0C69.1,283.3,69,283.5,68.8,283.8z M62.7,182.2c-0.6,1.6-1.9,0.2-2.3-1.8c1.3,0.9,1.9,1.2,2.3,1.3
		C62.7,181.8,62.7,182,62.7,182.2z M62.1,171.7c-2.4-0.7-4.4-3.6-6.2,0c-0.1,0-0.1,0-0.2,0c-0.5,0-1-0.1-1.4,0.6l0-0.5
		c-0.1-0.7-0.4-0.8-0.5-1.7c0.4-0.1,0.2-1.5,0.1-2.5c0,0,0,0,0.1,0c0.3,0,0.6,0,0.9,0c0.3,0,0.6,0,0.9,0c1.2,0,2.3-0.3,3.4-1.3
		c0,0.1,0.1,0.1,0.1,0.1l0,0.2c0.9,1.7,3-0.1,3.5,2.5C62.2,169,61.9,169.8,62.1,171.7z M66.1,182.8c-0.7-1.2-1.1,1.6-2.6,0l-0.1,0.1
		c0-0.4,0-0.9,0-1.2c0-0.2-0.1-0.4-0.1-0.5l0,0c0.9-2.1,2.2,0.6,3.1-0.8c0,0.4,0,0.7,0,1C66.4,181.9,66.5,182.8,66.1,182.8z
		 M78.2,308.7L78.2,308.7c0-0.3,0-0.6,0-0.9c0.6,0.1,1.4-0.4,1.5,0.8l0,0C79.3,309.2,78.7,309.2,78.2,308.7z M69.3,177.6
		c-0.3,2.2,0.4,2.7,0,3.5c-0.9-2.8-0.8,2.3-2.1,0.9l-0.1,0c0-0.6,0-1.2,0-1.7c0.8-0.7,0.5-3.3,1.5-3.5l-0.1-0.3
		c0.2,0.1,0.5,0.3,0.7,0.3c0.2,0,0.3-0.2,0.5-0.3l0,0.3C70.6,177.4,69.9,179.3,69.3,177.6z M72.4,171.5l0.1-0.2
		c0,0.1,0.1,0.3,0.1,0.3c0.2,0,0.3,0,0.5,0c0.4,0,0.8-0.1,1.1-0.5l0,0.3c0,0.3,0.1,0.6,0.1,0.9l0.1,0.1c-0.2,0.2-0.3,0.5-0.5,0.7
		C73.2,173.4,72.6,172.9,72.4,171.5z M72.5,168.1c0.8-0.9,1.5-1.2,2-0.8c0.1,0.5,0.3,1.1,0.4,1.7l-0.1-0.1c-0.2,0.6-0.7,0.6-0.9,1.4
		c-0.3,0.3-0.8,0.3-1.2,0.3C72.3,170.1,72.7,169.4,72.5,168.1z M74.7,175.8l-0.1-0.1l0.1-0.1c0.1-0.2,0.3-0.4,0.4-0.6
		c0.2,0,0.4,0,0.6,0c0.1,1.5,0.8,2.2,0.2,2.6c-0.5-2.1-1.1-0.2-0.3,0.9C74.6,178.5,74.3,177,74.7,175.8z M90.9,302.7
		c0,0.2,0,0.4,0,0.6c-1.5,0.5-1.8,2.5-3.1,0.9c1.2-0.3-1.7-2.6-0.3-3.4c1.1,2.9,1.6-1.2,2.5-0.9c0.5,1.6,0.8,2.3,1,2.6
		C91,302.5,90.9,302.6,90.9,302.7z M91.8,304.1l-0.1,0.1c0-0.3,0-0.7,0-1l0,0c1.9,0.4,2.2-3.3,3.7-0.1
		C94.2,305,93.4,307.2,91.8,304.1z M84.6,164.4c-0.7,2.3-2.2,3.5-3.6,0.9c1.3,2.9-1.1,1.3-1.8,0.9l0,0.3c-0.4-0.1-0.7-0.6-1.1-1.1
		c-0.2-0.3-0.4-0.7-0.6-0.9c-0.1-0.1-0.2,0-0.3,0.2c0,0.3,0,0.6,0.2,0.7c0.2,0.2,0.4,0.5,0.6,0.8c0.3,0.5,0.7,1,1.1,1.2
		c0.2,0.6,0.4,1.2,0,1.4c-0.2-1.1-2.7,1.2-3.7-0.7c-0.1-0.6-0.3-1.3-0.4-1.9l-0.1-0.3l-0.1-0.1c-0.8-0.8-1.8-0.5-2.9,0.7l0-0.2
		c-0.5,0-1,0-1.5,0c0.1,1.2,0.2,2.3,0.3,3.4c-1.6-1.1-0.5,2.8-2,1.8c0.7,1.6,0.2,1.2,0.3,3.2c-0.1,0-0.3,0-0.4,0
		c-1.2-4.2,1.4-4.9,1.4-8.9c0.2-0.1,0.4-0.2,0.6-0.2c0.4,0,0.9,0,1.2-1.1c0.1-0.3,0-0.6-0.1-0.8c-0.1-0.2-0.3-0.1-0.3,0.1
		c-0.1,0.6-0.4,0.6-0.8,0.6c-0.3,0-0.6,0-0.9,0.4l0-0.3c-0.6,1.5-0.5-0.1-1.5,0c0.2-4,2.5-2.2,4.2-1.8c-0.5-1.1-0.3-1.4-0.2-2.6
		l0-0.2l0.5,1c0.1,0.1,0.1,0.1,0.2,0.1c0.1,0,0.1-0.1,0.1-0.2c0.1-0.2,0-0.5-0.1-0.7l-0.5-1l0.1,0.1c0.7-0.8,1.4,0.8,2.4,2.5
		c0.3-2.3,1.8-1.8,2-2.6c-0.1-0.6-0.1-1.2-0.2-1.7l-0.1,0c0.2-0.9,0.6-1.4,1.1-1.9c0.1-0.1,0.3-0.3,0.4-0.4c0,0,0,0,0,0
		c0.1,0,0.1,0,0.2-0.1l0.3-0.3c0.5,0.8,0.4,1.9,0.3,3.4c1.7,1,3.6,2.8,4.3-0.9c0.3,1.3,0.7,2.2,1.1,3.4
		C82.7,160.8,84.4,163.4,84.6,164.4z M85.7,156.6c1.8-0.7,1.3,1.4,2.4-1.8c0.2,1.2,0.7,1.4,1,2.6C87,160.2,87.9,159.4,85.7,156.6z
		 M105.8,308.1c-1.1,0.8-1-2.2-1.7-2.5c0.5,2.8-0.6,1.3-0.7,0c1.2-0.3,1.3-1.3,2.6,0C106.1,306.7,105.9,307.4,105.8,308.1z
		 M157.6,99.1C158.4,104.3,156,99.7,157.6,99.1L157.6,99.1z M153.3,111.2c0.6-0.2,1.2-4.1,2.9-4.4c0.8,2.4,1.9-0.2,1.3,2.6
		c0.7-0.4,1,0.6,1.6,0.8c0.2-0.7,0-2.4,0.5-2.6c0.1,0.6,0.1,1.1,0.2,1.7c0.3-0.2,0.4,0.3,0.4,0.9c-2.6,1.8-5.1,3.4-6.8,1.9l0,0
		C153.3,111.8,153.2,111.5,153.3,111.2L153.3,111.2z M160.5,148.2c-0.1-0.3-0.3-0.7-0.4-1l0.2,0.1
		C161.9,146.7,162.1,148.6,160.5,148.2z M160.3,149.2l-0.2-0.1c-2,0.6-2.2-1.3-0.2-0.9c0.1,0.3,0.2,0.6,0.3,0.9L160.3,149.2z
		 M157,139.7c1,3.3-1.3,3.5-1.7,1.8C156.5,142,155.5,138.4,157,139.7z M148.5,98.5c0.6,0.7,1.2,0.8,1.3,2.5
		C149.1,99.8,148.7,99.1,148.5,98.5C148.4,98.5,148.4,98.5,148.5,98.5z M146,100.2c0.2,0,0.5,0,0.7,0c0.1,0.6,0.1,1.1,0.2,1.7
		c-0.4,0.1-0.7-0.2-0.8-0.8l0,0c-0.1-0.4-0.2-0.7-0.3-1L146,100.2z M142,99.7c0.4-0.1,0.9-0.2,1.3-0.4c1.2-0.9,1.3,1.6,2.2,1.6
		c0.1,0.2,0.2,0.4,0.2,0.6c0,0.1,0.1,0.1,0.1,0.2l0,0.1c-0.9,0-0.9,1.5-2.1,0.9l0,0.2c-0.2-0.1-0.5-0.1-0.7-0.2l-0.1,0
		c-0.8-1.5-1.5-0.9-1.9-1.6c-0.1-0.4-0.1-0.8-0.2-1.1C141.2,99.9,141.6,99.8,142,99.7z M140.3,100.3
		C140.3,100.3,140.3,100.2,140.3,100.3C140.3,100.3,140.3,100.3,140.3,100.3c0.1,0.5,0.2,0.9,0.2,1.4c0,0.2,0.1,0.2,0.2,0.3l0,0.1
		c-0.6,0.3-1-0.2-1.2-1.4C139.7,100.3,140,100.1,140.3,100.3z M112.7,106l0-0.1c0.1,0,0.1,0.2,0.2,0.2c0.1,0,0.3,0,0.5,0
		c0.4,0,0.8-0.1,1.2-0.3l0,0.2c3,1.2,7.8-1.7,10.6-1.1c-0.4,2.1,1.5,2.5,1.2,0.8c-0.3-1.3-0.7-2.2-1.1-3.4l-0.1-0.5
		c0.4,0,0.8-0.1,1.1-0.3c0.7-0.2,1.3-0.3,1.9,0c0.8,1.5-0.2,4.3,0.9,2.4l0.2-0.2c-0.1,1.1,0.1,2.1,0.3,3.1c0.2,0.7,0.3,1.4,0.3,2
		c0,0.1-0.1,0.2-0.1,0.3c-0.1,0-0.3,0.1-0.4,0.2l-0.1,0.1l0,0.2c0,0.9,0.3,1.8,0.5,2.7c0.1,0.2,0.1,0.3,0.2,0.3c0,0,0.1,0,0.1-0.1
		c0.1-0.1,0.1-0.4,0-0.7c-0.2-0.6-0.4-1.2-0.4-1.7c0.1-0.1,0.1-0.1,0.2-0.1c0,0.1,0.1,0.2,0.1,0.2c0.3,0.2,0.5,0.6,0.8,1
		c0.3,0.4,0.5,0.8,0.8,1.1c0,0,0.1,0.1,0.1,0.1c0.1,0,0.2-0.2,0.3-0.5c0-0.4-0.1-0.9-0.3-1.1c-0.2-0.2-0.4-0.5-0.7-0.9
		c-0.3-0.4-0.6-0.8-0.9-1.1c0-0.8-0.2-1.6-0.3-2.4c-0.1-0.6-0.2-1.2-0.3-1.6c0.7,0.8,1.4-0.9,2.7-0.2c0.6,4.4,1.7,0.3,2.8,2.5
		l0.1-0.1c0,0,0,0,0,0.1c-0.1,0.9-0.1,1.7-0.2,2.3c0,0.2,0,0.4,0,0.5c0,0.3,0.1,0.7,0.3,0.8c0,0,0.1,0,0.1,0c0.1,0,0.2-0.2,0.2-0.5
		c0-0.2,0-0.4,0-0.6c0-0.4,0-1,0.1-1.6c0.1,0.2,0.2,0.4,0.3,0.6c0.2,0.9,0.4,1.5,0.8,1.8c-0.5-2.3,1.8,0.6,1.3-1.8
		c-0.2-1.5-0.8-1.9-1.6-1.7l0,0.2c-0.2-0.4-0.3-0.7-0.5-1l0.1-0.1c1-1.3,3.3-1.3,4.6,2.5c0.4-1.7,2.3-0.7,2.2-3.4l0,0
		c0.1,0,0.2,0.1,0.4,0.1c0.4,3.2,2.4,3.1,3.1,1.5c0.2,2.2-0.5,2.7,0.7,3.4c-0.2-3.4,1.8,0.8,2.4-1.8c0,3.5,1.7,2,2.5,3.3
		c0,0,0,0.1,0,0.1c-1.2,0.7-3.7,2.1-6.4,1.8c-0.3-3.7-1-0.1-2.1-0.7c-0.4-0.7-0.9-1.5-1.4-1.8l-0.1-0.1l-0.1,0.2
		c-0.1,0.1-0.2,0.2-0.3,0.3c-0.2,0.2-0.5,0.4-0.8,0.9l-0.1-0.4c-2.1,2-5.8,0.2-7.2,5.3c1.1,1.3,2,2.2,2.4,2.5
		c-1.3,2.9-3.1,2.9-4.6,1.8c0.6-1.4,0.5-4.2,0.9-6.1c-2.1-1-2.6,0.6-4.2,1.8l0.1,0.3c-0.1-0.1-0.3-0.2-0.4-0.2l0,0
		c-2.8-2.4-4.7,1.1-7.9,1.9c-1-1.2-1.1-2.4-1.4-3.4c-0.1,2.2-1,2.8-1.4,4.4l0,0.1c0,0-0.1-0.1-0.1-0.1c-0.1,0-0.2-0.1-0.3-0.1
		c-0.5-1.3-1.7-1.3-1-3.3c-0.4,1-0.8,0.9-1.2-0.8c0.4-1.3,1.4-1.6,1.5-3.5l-0.1-0.2c0.3,0,0.6,0.1,0.9,0.1c1.2,0,2.3-0.4,3.6-1.2
		c0.2-0.1,0.3-0.7,0.2-1.3c-0.1-0.6-0.4-0.9-0.6-0.8c-1.6,1-2.9,1.3-4.4,1.1c0,0,0,0-0.1,0.1c-1.6-1.5-2.6-1.3-5-1.1
		C110,104.6,112.7,109.7,112.7,106z M154,146.6c-0.8,0.3-1.4-0.1-1.9-0.8c-0.2-2.7,1.1-2.7,1.9-3.5
		C154.5,144.7,153.6,144.6,154,146.6z M147,146.8c-0.1-1.5-0.3-2.7-0.7-3.4c0.2,0,0.5,0,0.7,0c0.2,0,0.5,0.1,0.5,0.8
		C146.8,144.4,148.3,146.5,147,146.8z M158.1,284.7c-0.7,1-1.9-1.3-0.9-1.7c0.4,3,0.4-3.7,1.1,0C158,283.2,157.9,283.7,158.1,284.7z
		 M143.5,115.9L143.5,115.9c-0.2,0.2-0.4,0.4-0.5,0.5c-0.2,0.2-0.3,0.8-0.2,1.4c0.1,0.5,0.3,0.9,0.6,0.9c0,0,0.1,0,0.1,0
		c0.2-0.1,0.4-0.3,0.6-0.5l0,0l0,0.2c0.4-0.1,0.7,0.2,0.8,0.8c-1.1,0.6-0.6,0.6-1.8,0c0.1,1.2,0.2,2.3,0.3,3.5c-0.5,0-1,0-1.5,0
		c0.2-2.6,0-3.4-0.9-5.2c0.3-1.1,0.7-1.9,0.7-3.4c0.2-0.2,0.3-0.4,0.5-0.5c0.1-0.1,0.2-0.2,0.3-0.3c0.3,0.3,0.7,0.9,1,1.4l-0.1,0.1
		c0,0.3,0.1,0.6,0.1,0.9L143.5,115.9z M147.1,170.9c-0.1-0.6-0.1-1.2-0.2-1.7c0-0.8,1.4-2.3,1.4-0.9
		C147.6,168.7,148.3,171.7,147.1,170.9z M143.6,138.2c-0.2-2.5,1.5-5.2,1.8-4.3c-0.9,0.8,1.1,1.6,0.8,4.3
		C145.7,139.7,144.9,137.4,143.6,138.2z M138.9,138.3c-0.2-0.5-0.3-0.9-0.5-1.5c-0.1-0.2-0.2-0.3-0.3-0.2c-0.1,0.1-0.1,0.4,0,0.7
		c0.2,0.6,0.4,1.4,0.8,2.1l-0.2-0.1c-0.2,2.1-2.4,0.8-2.7-0.8c0.3,1.8-0.3,1.7-0.9,1.7c0-0.1,0.1-0.2,0-0.4
		c-0.1-1.1-0.3-1.8-0.5-2.4l-0.1-0.3l-0.1-0.1c-0.4-0.2-0.8-0.1-1,0c0,0,0-0.1-0.1-0.1l-0.2-0.1c-0.1,0-0.3-0.2-0.5-0.2
		c1.8-2.2,2.8-0.1,4.8-2.5c0.9,1.6,2.4,1.5,3,4.3C139.8,138.3,139.3,138.3,138.9,138.3z M134.5,140.1c-0.4,0.1-0.8,0-1-0.6
		c0-0.4,0-0.7,0-1c0,0,0,0,0,0c0.2-0.1,0.4-0.2,0.6-0.1c0.1,0.3,0.2,0.7,0.2,1.3C134.4,139.8,134.5,140,134.5,140.1z M132.2,138.1
		c0.3,0.2,0.6,0.3,0.8,0.4c0,0.4,0,0.7,0,1.1c0,0.2,0.1,0.3,0.2,0.4l0,0.1c-0.4,0-0.7,0-1.1,0c-0.2-1-0.1-1.5,0.2-1.7L132.2,138.1z
		 M136.2,129.7c-0.5,0.3-0.6,1.2-1.4,0.9C134,128.2,136.2,128.2,136.2,129.7z M141.4,149.5c-0.3-0.2-0.7,0-0.8-0.8c0.5,0,1,0,1.5,0
		c0.7,2.5-1.2,3.7-1.7,1.8C140.8,150.2,141.4,150.5,141.4,149.5z M128.6,122.9c-0.7-0.4-1.6-0.3-1.7-2.6c0.4,0.1,0.6-0.2,0.7-0.9
		l0-0.1c0,0.1,0.1,0.1,0.1,0.1c0.1,0,0.2,0.1,0.3,0.1C128,121.3,128.4,121.8,128.6,122.9z M123,155.1c-0.1-0.4-0.2-0.9-0.3-1.5
		c0-0.1-0.1-0.2-0.1-0.3c1.3-0.8,1.5,2.1,2.4,2.5l0-0.3c0.1,0.1,0.2,0.2,0.3,0.3c0.2,0.2,0.4,0.5,0.6,0.9l-0.1-0.1
		c-1.5-0.2-1.3,1.2-2.6,0c-0.1-0.6-0.1-1.2-0.2-1.7L123,155.1z M125.4,154.9C125.4,154.9,125.4,154.8,125.4,154.9
		c0.3-0.8-0.3-3.3,0.3-3.4c0.3,0.5,1.2,4.1,0.4,4.3C125.9,155.4,125.6,155.1,125.4,154.9z M121.2,157.6c-1.6,0.6-1.7-0.5-2-1.7
		c-0.4,1.4-0.8,3-2.2,2.6c-0.1-0.3-0.2-0.7-0.3-1c-0.2-0.6-0.3-1.1-0.5-1.6c0-0.3,0-0.5-0.1-0.8c1.3-2.3,4.3-1.5,6.1-1
		c0.1,0.3,0.1,0.6,0.2,0.9l0-0.1C122.7,158.9,119.6,154.1,121.2,157.6z M116.4,123c0.1,0.1,0.3,0.1,0.4,0.1l0,0
		c0.4,0,0.4,1.1,0.5,1.7c-0.9,0.2-1.8,0.2-2-1.7c0.4,0,0.7,0,1.1,0L116.4,123z M111.8,128.4c-0.4,0.7-0.9,1.2-1.8,0.9
		C109.3,126.8,111.7,127,111.8,128.4z M108.9,144c-0.2-2.2,0.2-3.4,1.2-3.5c1.4,5.9,3.6-1.1,5.5,3.3c-4,4.6-7.2,1.2-10.2,4.5
		c-0.2-1.4,0.2-1.5,0.1-2.6l-0.1-0.2c0.8-0.5,1.8-1.5,2.4-3.3C108.3,142,108.3,144,108.9,144z M109.8,157.8c2.8,2.5,2-5.6,3.8-2.7
		l0.5-0.5L114,156c0.6-0.3,0.7,0.8,1.2,0.8l0-0.1c0.2,0.7,0.4,1.4,0.6,2c0.1,0.3,0.2,0.6,0.3,0.9c-0.5,1-2.9,0.8-3.7-1.9
		C112.1,160.1,110.6,159.5,109.8,157.8z M112.6,164.7c0.1,0.6,0.1,1.1,0.2,1.7c-0.2,0-0.5,0-0.7,0c-0.1-0.6-0.1-1.2-0.2-1.7
		C112.1,164.7,112.4,164.7,112.6,164.7z M108.1,163c-1.6,1.3-3.5-2-3.1,1.7c0,0,0,0-0.1,0c-0.2-1-0.7-1.3-0.9-2.4l-0.1-0.9
		c1.2-2.2,2.9-4.5,4.4-0.1C107.3,161.3,107.9,162,108.1,163z M104.8,167.4l0-0.2c0.1,0.1,0.3,0.1,0.4,0.1l0,0
		c0.1,1.5,0.6,1.8,0.7,3.4c-1.3,0-2.9,0.5-3.5-1.7C103.2,167,103.9,168.8,104.8,167.4z M101.3,161.4c0.2-0.2,1.2-2.1,1.5-0.1
		l0.1,0.9C102.1,160.2,101.9,163.8,101.3,161.4z M104.9,132.9c0.4,0,0.7,0,1.1,0c0.1,0.6,0.1,1.1,0.2,1.7c-0.4,0-0.7,0-1.1,0
		C105,134,104.9,133.5,104.9,132.9z M101.1,120.1c0-0.4,0-0.7,0-1.1c0.6-1.5,1.5,0.1,1.9,1.8c-0.6,0-1.2,0-1.8,0l-0.1,0.1
		C101.1,120.7,101.1,120.4,101.1,120.1z M107.1,141.5c-0.5,1.4-1.2,2.2-1.9,2.6l0,0c-1.1,1.2-1.6-0.6-2.3-0.8
		C104,140.7,105,142.2,107.1,141.5z M98.3,109.7L98.3,109.7c0.3,0.2,0.6,0.5,0.8,0.7c0,0,0,0,0.1,0l0,0.1c0,0.3,0.1,0.6,0.1,0.9
		C98.6,112.1,97.4,109.7,98.3,109.7z M100.2,118.3l0.1-0.1c0,0.5,0,1,0,1.5c0,0.2,0,0.4,0,0.5c-0.1,0.3-0.1,0.9-0.1,1.5
		c-0.4,0-0.7,0-1.1,0C98,119.5,99.1,116,100.2,118.3z M100.6,126.1c-0.2,4.2-1.9,1.1-3,3.5C97.9,127.2,98.9,126,100.6,126.1z
		 M96.2,121.8c0.6,0,1.2-0.3,1.4,0.8c-0.8-0.3-0.9,0.5-1.3,0.9C96.3,123,96.3,122.4,96.2,121.8z M101,134.7c0.1,1.2,0.2,2.3,0.3,3.4
		c-1.6-1.8-2.6,0.2-4,0.9C97.6,135.8,100.2,136.9,101,134.7z M93.1,113.3c0-0.9,0.7-0.6,0.6-1.7l0,0c0.1,0,0.3-0.1,0.4-0.2l0,0.2
		c0.4,0,0.4,1,0.5,1.7c0.1,0.7-0.1,0.8-0.3,0.9C94,111.5,92.1,115.4,93.1,113.3z M93.2,126.2c-0.1-0.6-0.1-1.1-0.2-1.7l-0.1,0.1
		c0.1-0.6,0-1.6-0.4-2.8l0.3,0.2c1.5,1.5,2-5,2.5-0.9l0.1-0.1c0,0.9,0,1.8,0.1,2.7l0,0C94.8,125.7,94.4,124.5,93.2,126.2z
		 M94.8,131.4l-0.2,0.2c0-0.2,0.1-0.4,0.1-0.6c0-0.2,0.1-0.4,0.1-0.6C95.5,128.2,95.7,134.3,94.8,131.4z M95.3,136.5
		c0.1,1.2,0.3,2.4-0.1,2.6l0.1,0.3c-0.1-0.1-0.2-0.2-0.2-0.3c-0.1-0.1-0.1-0.2-0.2-0.3C94.7,137.6,94.9,136.9,95.3,136.5z
		 M95.3,144.3c0.7,0.1,0.7-1.1,1.4-0.9c0.2,1,0.1,1.5-0.2,1.7l0,0c-0.2,0-0.4-0.1-0.6-0.2c-0.2-0.1-0.4-0.1-0.5-0.2
		C95.3,144.7,95.3,144.5,95.3,144.3z M91.8,139.2c1.2-0.7,1.7,1.6,2.2,0l0.1-0.2c0.1,0.5,0.3,0.8,0.6,1.2c0,0,0,0,0,0
		c-0.1,1.5-1.8,0.2-2.4,0.7l-0.1,0.6c-0.1-0.7-0.3-1.6-0.6-2.4L91.8,139.2z M95.3,176.2c-0.1-1.1-0.7-0.8-0.9-1.7
		c0.5-0.3,0.5-1,1.1,0C95.5,175.2,95.7,176.2,95.3,176.2z M92.4,145.2c0.6,0.1,1.4-0.4,1.6,0.8l0,0c-0.2,0.4-0.4,0.8-0.6,1.2
		l-0.1-0.3C92.9,146.6,92.6,146.2,92.4,145.2z M94.2,156.4c0.5-2.6,0.7-4.7,0-8c0.2-0.4,0.3-0.8,0.5-1l0.1,0.4
		c0.2-0.1,0.3-0.4,0.4-0.6c0,0,0,0.1,0.1,0.1c0.2,0,0.4,0.1,0.6,0.2c0.3,0.1,0.5,0.2,0.8,0.2l0,0.1c0.6,4.7,0.8,8.5-1,5.2
		c0,3.6,1.3,3.4,2,5.1c-0.7-0.3-1,0.2-0.9,1.5c-0.1,0-0.1,0.1-0.2,0.1C95.7,158.8,94.6,158.7,94.2,156.4z M97.2,165
		c-0.4-1.8-1.3-1.7-0.7-3.4l0-0.1c0.1,0.1,0.1,0.1,0.2,0.1c0,0,0,0,0.1,0c0.2-0.1,0.3-0.2,0.5-0.3l0,0.3c0.1,0,0.2,0,0.4,0
		C97.7,163.1,97.6,164.4,97.2,165z M111.8,308.9c0.6-1.9,1.1-1.1,1.9-3.5c0.2,0.9,0.8,0.6,0.9,1.7c-0.7,0.3,0.3,3.8-0.8,3.5l0,0.2
		c-0.2-0.1-0.5-0.2-0.7-0.2l-0.1,0C112.8,309.4,111.9,310.3,111.8,308.9z M114.7,317.1c0.1-0.2,0.2-0.5,0.3-0.8l0.1,0.3
		c0,0.6,0.1,0.7,0.3,0.8c0,0.2,0.1,0.4,0.1,0.6c0,0.1,0.1,0.2,0.1,0.3c0,0,0,0,0,0l0,0.1c-0.2-0.1-0.3-0.1-0.5-0.2
		c-0.3-0.1-0.5-0.1-0.7-0.3C114.5,317.7,114.5,317.3,114.7,317.1z M114,315.6c-0.1,0.3-0.3,0.7-0.4,1.1c0,0,0,0,0,0l-0.6,0
		c-0.1-1-0.2-2-0.2-2.9c0.1-0.2,0.2-0.5,0.4-0.5l0,0c0.1,0,0.3,0.1,0.4,0.1c0.1,1,0.3,1.3,0.5,2C114.1,315.4,114.1,315.5,114,315.6z
		 M116.5,324.3c-0.9-1.3-2.4-0.9-3.2-2.5l0,0.3c-0.1-0.3-0.3-0.6-0.4-0.9c0-0.3,0.1-0.6,0.1-0.9c0-0.1,0-0.2,0-0.2l0.8,0
		c0.1,0,0.1-0.2,0.2-0.2c0.4,0.3,0.7,0.5,1.1,0.6c0.2,0.1,0.4,0.1,0.7,0.2l0,0.2C116.8,321.5,116.7,323.8,116.5,324.3z M122.7,323.4
		c-0.1,2-2,2.4-2.9,0.9c-0.2-1.4,0.2-1.5,0.1-2.6c0.5-0.3,0.9-0.5,1.4-0.5C121.6,322.5,122.9,320.5,122.7,323.4z M142,330
		c-0.1-0.2-0.1-0.3-0.2-0.5c0-1,0-1.8,0-2.3l0.1,0.1c0.1,0,0.2,0,0.4,0c0.2,1.1,0.8,1.3,1,2.6l0.1,0.1
		C142.9,330.3,142.4,330.3,142,330z M141.4,326.9L141.4,326.9l0.1,0.1L141.4,326.9z M143.2,316.3c-0.2-0.1-0.4-0.2-0.5-0.3
		c-0.3-0.1-0.5-0.2-0.7-0.5c-0.1-0.2-0.3-0.1-0.4,0.3c0,0.3,0,0.7,0.2,0.9c0.3,0.4,0.6,0.5,0.9,0.6c0.1,0.1,0.3,0.2,0.4,0.3
		c0,0,0,0,0,0.1c0,0.1,0,0.3,0,0.4c0,0.1,0,0.1,0,0.2c0,0.4,0.1,0.8,0.1,1.2l-0.4,0c-0.2,0-0.3,0.4-0.3,0.9c0,0.5,0.3,0.9,0.5,0.9
		l0.4,0c0.1,0.9,0.2,1.7,0.2,2.6c-0.6-0.2-0.6,0.8-1,0.9c-0.4-0.9-0.9-1.7-1.3-2.6c0.1,1.7-1.2,0.9-1.2,2.5c-0.2,0-0.3,0-0.5-0.2
		c-0.2-0.1-0.3,0.1-0.4,0.5c0,0.4,0.1,0.8,0.3,0.9c0.2,0.2,0.4,0.3,0.7,0.3c0.1,0,0.3-0.1,0.4-0.2l0,0.5c0.3-0.2,0.4,0.3,0.4,0.9
		l0,0c0,0.5,0,1.1,0,1.8c-0.4-0.1-0.8-0.2-1.2-0.4c-0.4-0.2-0.8-0.3-1.2-0.4c-0.1-1.1-0.4-2.4-0.9-3.5c-0.6-1.1-1.2-1-1.7-1
		c-0.4,0-0.8,0-1.1-0.5l0.2-0.2c0.2-3.5,2.4,0.6,2.3-2.6c-1.5-1.7-2.5-5.7-4.3-2.5c1.1,2.9,0,5.3,1.4,6.9l0-0.6
		c0.6,0.9,1.1,0.9,1.6,0.8c0.5,0,0.9-0.1,1.3,0.6c0.3,0.7,0.5,1.6,0.6,2.7c-0.1,0.1-0.3,0.1-0.4,0.2c-0.4,0.2-0.7,0.4-1.1,0.4
		c-0.5-0.7-0.7-2.4-1.3-3.2c-4.4,1-8.8-1.3-11.8-8.4c-1,0-2.2-0.4-2,1.8l0.1,0.6c-0.8,0-1.6,0.2-2.3,0.8l0-0.5
		c-1.2-1.8-1.6-3.9-3.1-2.5c-0.1-0.5-0.2-1.1-0.3-1.6l0.1-0.1c0-0.3-0.1-0.6-0.1-0.9c1.5-1.6,5.2-1.3,3.8-6.1
		c1.5-0.4,2.4,0.8,3.5,1.7l0.1-0.1c0,0.8,0,1.4,0,1.9c0.1,0.5,0.3,0.9,0.5,0.9c0,0,0,0,0,0c0.2,0,0.3-0.5,0.3-1c0-0.2,0-0.6,0-1
		c1.5-2.9,4.4,0.9,6.5,0c0.5,2.4-0.3,2.2,0,4.3c1.5-1,2.9,2,3.7-0.1l-0.1-0.4c0.6,0.3,1.1,0.4,1.7,0.4c0.5,0,1,0.1,1.5,0.3
		c0,0,0.1,0,0.1,0c0.2,0,0.3-0.3,0.3-0.6c0-0.4-0.2-0.9-0.4-1c-0.6-0.3-1.1-0.3-1.6-0.4c-0.4,0-0.8-0.1-1.2-0.2
		c1.3-4.2,5.4-1,8.4,1.6L143.2,316.3z M125.6,138.3c-0.1,0.2-0.2,0.5-0.4,0.7l0,0l0-0.5c-0.6,0-1-0.6-1.3-1.7
		c0.3-0.7,0.7-0.9,1.4-0.9C125.5,136.7,125.5,137.5,125.6,138.3z M126.3,142c0-1.3-0.4-1.5-0.6-2.4c0.1-0.2,0.2-0.4,0.3-0.7l0,0.4
		c0.6,0.5,1.8-1,1.9,0.8C127.6,141.1,126.7,141.1,126.3,142z M128.3,155.8c0.4-1.1,1.3-1.2,1.5,0.8
		C129,156.7,128.9,158.3,128.3,155.8z M131,148.8C130.8,153.6,128.2,149.1,131,148.8L131,148.8z M130.6,140.2
		c-0.2,0.1-0.4,0.1-0.3,0.9c-0.2,0-0.5,0-0.7,0C128.8,138.9,130.6,138.5,130.6,140.2z M134.1,170.3c0-2.5,3.3-4,4-0.9
		C136.9,171,135.1,169,134.1,170.3z M137.5,151.3c0.3-0.2,0.7,0,0.7-0.9c-1.2-0.9-0.8-0.1-2.2,0c0.3,2,0.2,3.2-0.4,3.5
		c-0.2-1-0.5-0.5-0.7,0c-0.1-1.2-0.4-1.9-0.6-2.6c1.2,0.4,1.7-1.1,0.9-2.6c2.3,1.2-0.6-2.9,1.2-2.6c0.5,4.6,0.1,0.7,1.2,0.8
		c0.2,2.6,1.2,2.9,1.6,5.2C138.5,152,137.7,152.4,137.5,151.3z M159.1,318.3c0,0.3,0,0.6,0,0.9c-0.7,0.3-1-0.6-1.5-0.8l0,0.3
		c-0.7-2.2-1.7-2.5-2.6-2.6c-0.3,0-0.6-0.2-0.9-0.3c1.2-3.6,2.3-2.4,4.1-2.6c0,1,0.2,1.5,0.5,1.7c0.1,0.7,0.2,1.5,0.5,2.4l-0.3,0.2
		C159,317.8,159,318.1,159.1,318.3L159.1,318.3z M177.5,319.7c-0.7,1.7-3.3-0.2-3.9,1.8c0.5,1.5,1.6,1.1,1.5,4.3
		c-0.8,0.6-2.8-1-2.9,0.9l0.1,0.4c-0.2-0.4-0.4-0.7-0.6-1l-0.1-0.1l-0.1,0c-0.3-0.1-0.5,0.2-0.7,0.4c-0.1,0.1-0.2,0.3-0.3,0.3
		c-0.1,0.1-0.2,0.3-0.1,0.6c0.1,0.3,0.2,0.5,0.3,0.4c0.2-0.1,0.3-0.3,0.4-0.4c0.1-0.2,0.3-0.3,0.4-0.3c0.1,0.2,0.3,0.5,0.4,0.7
		c0.2,1.6-0.7,1.2-0.8,2.2c-0.6,0.3-1.2,0.4-1.8,0.4c-0.5,0-1,0.1-1.6,0.3l0-0.4c-0.1,0-0.2,0-0.4,0c-0.4-1.9,0.6-1.2,0.5-2.6
		c-0.7,0.1-0.9-1-1.6-0.8c-0.7-2.8,1.1-0.7,0.4-3.5c-3.1-0.6-3.1,1-3.9,5.3c0.4-0.1,0.7,0.2,0.8,0.9l0.1,0.4c-0.4-0.2-0.7-0.1-1,0.2
		c-0.2,0.2-0.4,0.3-0.5,0.3l0,0c-0.2-0.9-0.8-0.6-0.9-1.7c0.4-0.2,0.2-1.6,0.1-2.6l-0.5,0.4l0.1-1.3c-1.8,0.1,0-4-1.2-5.2l-0.1,0.1
		c0-0.3,0-0.6,0-1c0.8,0.1,1-0.8,0.8-2.6c-0.6,0.1-0.8-0.7-1.3-0.8c-0.1-0.4-0.2-0.7-0.2-1c1.3-1.6,1.7-0.8,3.4,0
		c0.4,0.9,0.6,1.8,0.6,2.7c0,0.1-0.1,0.2-0.1,0.3c-0.1,0.2-0.2,0.4-0.2,0.6c-0.1,0.3,0,0.7,0.1,0.9c0.1,0.1,0.1,0.1,0.2,0.1
		c0.1,0,0.2-0.1,0.2-0.3c0-0.1,0.1-0.2,0.2-0.4c0.1-0.1,0.1-0.3,0.2-0.5l0.1-0.2l0-0.2c-0.1-1.1-0.2-2.5-0.8-3.8l0,0
		c0.7,0.3,0.6-0.7,0.6-1.7c2,1.1,3.6-2,4.3-0.9c-0.7-0.6-0.2,4.1,0.3,3.4c0.4-0.2,0.1-1.7,0.6-1.7c1.4,4.4,4.9,0.4,6.3,4.2
		c-0.5-0.1-1.1-0.1-1,0.9c0.4,0.2,0.4,1.7,0.9,1.7c0.6-2,1.2-1.1,2.4-0.9c0.1,0.3,0.3,0.7,0.4,1L177.5,319.7z M183.6,317.9l0-0.2
		C183.7,317.8,183.7,317.8,183.6,317.9c0.3,1,0.5,1.8,0.6,2.7c-0.6,1-1,2.2-1.5,3.4l0.1,0.3c-0.5-0.5-0.9-0.4-1.2-0.2l0-0.1
		c-0.8-2.9-2.2-4.2-3.7-5c-0.1-0.3-0.3-0.7-0.4-1l0-0.1l0.2,0.1c-0.1-0.9-0.2-1.7-0.2-2.6c0.8-1.3,3.6-1.4,2.7,0.8
		C181.6,315.9,182.9,316.1,183.6,317.9z M163.2,147.3C165.1,144.8,164.4,149.4,163.2,147.3L163.2,147.3z M166.4,137.7
		c-0.2,0-0.5,0-0.7,0c-0.1-0.6-0.1-1.1-0.2-1.7c0.2,0,0.5,0,0.7,0C166.3,136.6,166.3,137.2,166.4,137.7z M179.3,153.9
		c-0.4,0-0.7,0-1.1,0c-0.2-1.9,0-2.8,0.9-2.6C179.2,152.2,179.2,153,179.3,153.9z M181.1,161.6c0.2,0,0.5,0,0.7,0
		c0.1,0.6,0.1,1.2,0.2,1.7c-0.2,0-0.5,0-0.7,0C181.2,162.8,181.2,162.2,181.1,161.6z M198.5,307.6c0,0-0.1,0-0.1,0.1
		c-0.3,0.6-0.7,0.4-1.3,0c-0.5-0.3-1.2-0.7-1.7-0.1c0.5-3.6,3.3-3.3,4.2-1.2c-0.3,0.5-0.5,0.9-1,0.9L198.5,307.6z M210.2,306.9
		c-0.1-0.1-0.3-0.1-0.4-0.2c-0.3-0.2-0.6,0.1-0.6,0.8c0,0.6,0.2,1.4,0.5,1.6c0.3,0.2,0.5,0.3,0.8,0.4l0,0.1c0.2,1.5-0.3,1.8,0,3.4
		l0.2,0.5c0,0.1-0.1,0.2-0.1,0.3c-0.1,0.1-0.3,0.2-0.4,0.4l-0.2,0.2c-0.3-0.2-0.5-0.4-0.7-0.7c-0.2-0.8-0.5-1.3-0.7-1.6
		c0.2-1.2-0.2-2.4-0.5-3.3c0,0,0-0.1,0-0.1l0.2,0.1c-0.3-2.1,0.3-2.7,0.3-4.3C209,304.7,211.2,305.5,210.2,306.9z M186.9,93.3
		c-1-1.2-0.4-1.7-1-2.6c-0.3,0.6-0.2,2-0.9,1.7c0.3-2.2-0.4-2.7,0-3.4c0.3,1.2,0.4,0.2,0.3-0.9c0.5-0.8,1.2-0.9,1.9-0.5
		c0.3,1.4,1.5,3,2.9,3.9c1.1,0.8,4.1-0.5,1.9,0.8C191,94.1,188.5,92.9,186.9,93.3z M215.6,319.3c-0.1-0.2-0.3-0.6-0.4-1.2
		c-0.1-0.3-0.2-0.5-0.2-0.7c0.7,0.3,0.9-2,1.1,0.4C215.9,318.2,215.7,318.8,215.6,319.3z M229.5,304.9c0.3-0.2,0.3-0.9,0.7-0.9
		c0.3,1.7,0.2,2.7-0.5,2.6l-0.1-1.3C229.5,305.2,229.5,305.1,229.5,304.9L229.5,304.9z M226.6,301.5c-0.1,3.6,1.4,2.3,1.9,4.2l0,0.4
		c-0.6,0.2-1.2,0-1.8-0.2c-0.3-0.1-0.6-0.2-0.9-0.2c-0.1-0.4-0.2-0.7-0.3-1.2l-0.1-0.5C225.6,302.8,225.7,301.4,226.6,301.5z
		 M218.4,304.3c1-1.4,2.6-1.6,3.8-2.7c0.6,1.2,1.2,2.6,2,3.3l0.1,0.4c0.1,0.5,0.2,0.9,0.3,1.4c-1,1-2.2,0.8-3.5,0.5
		c-0.7-0.2-1.5-0.3-2.2-0.3c-0.1-0.3-0.2-0.6-0.2-0.9c-0.1-0.6-0.3-1.3-0.5-2L218.4,304.3z M218,305.2c0.1,0.4,0.2,0.8,0.3,1.1
		c0.1,0.3,0.2,0.7,0.3,1c-0.3,0.2-0.6,0.1-1-0.1l0-0.3C217.3,305.6,217.6,305.3,218,305.2z M232.1,313.5c-1.4,0.3-3.3-2.5-3.6,0.9
		c-1.4-3.6-2.7-0.5-4.4-3.4c0.3,1.6,0.1,2.4-0.4,2.5c-0.3-0.2-0.6-0.4-0.9-0.6c-0.3-0.1-0.7-0.3-1-0.6c-0.9-1.2-4.2-2-4-2.1
		c-0.1,0-0.6,2.6-0.1-0.9l-0.1-0.2c0.2,0.1,0.4,0.2,0.7,0.2c0.2,0,0.3-0.1,0.5-0.2c0.1,0,0.1,0.1,0.2,0.1c0.7-0.1,1.4,0.1,2.1,0.2
		c0.6,0.1,1.3,0.3,1.9,0.3c0.8,0,1.5-0.4,2.2-1.2c0.1,0,0.1,0.2,0.2,0.2c0.4,0,0.8,0.2,1.2,0.3c0.6,0.2,1.1,0.4,1.7,0.3
		c0.3,0,0.5-0.1,0.8-0.2c0.9,1.9,1.1,1.5,2.8,2.5c0-1,0.3-0.5,0.4,0C232,311.8,232.2,312.8,232.1,313.5z M235,297
		c0.8-0.9,0.8-0.3,2.1-0.9c0.1,1.2,1.5,3.2,0.7,3.4c-0.1-0.5-0.1-1-0.4-0.9c0.1,0.6,0.1,1.2,0.2,1.7
		C236.3,300.5,235.1,300.5,235,297z M234.4,314.3c-0.4-0.9-0.9-1.7-1.3-2.6c0.1,0.7-0.1,0.8-0.3,0.9c-0.3-2.6,1-3.1,1.7-1.8l0,0.2
		c0.1,0.5,0.1,1,0.2,1.5l-0.1-0.1C234.8,313.6,234.7,314.1,234.4,314.3z M240.1,312.7c-0.2,0.1-0.4,0.1-0.6,0.2
		c-0.3,0.1-0.6,0.2-0.9,0.2c-1.1-1.9-1.7-0.4-2.8-1.4c0-0.3-0.1-0.6-0.1-0.8l0-0.1c0.8-2.5,2.5,1.2,4,0l0.3-0.2L240.1,312.7z
		 M241.1,303c1,1.8-0.1,2.8,0.8,4.3l0,0.1c-0.1-0.1-0.3-0.1-0.4-0.2c-0.2-0.9-0.7-0.6-1.2-0.8C240,304.2,240.1,302.7,241.1,303z
		 M242.4,313.3L242.4,313.3c-0.1,0-0.2-0.1-0.3-0.2c-0.5-0.4-1-0.7-1.5-0.6l-0.1-1.1c0.2-0.6,0.2-1.8,0.9-1.5l0-0.1
		c0.2,0.1,0.4,0.2,0.5,0.3c1.3,1.7,2.8-3.7,3.4,2.4C244.3,314.1,243.3,311.3,242.4,313.3z M253,301c-2.1-2.9-2.3,0-3.5-2.5
		c0.5-1.5,2.1-0.7,3.2-0.9C253,299.9,252.3,299.3,253,301z M261.9,301.7c0.6-0.1,1,0.7,1.3,1.7C262.6,303.5,262.2,302.7,261.9,301.7
		z M269.1,307.6c0.9,0.1,1-1.4,1.7-1.8C271.1,308.9,269.9,310.1,269.1,307.6z M269.6,300.7c1.3,0.6,0.1-3.5,1.6-2.6
		C272.8,300.4,270.5,303.3,269.6,300.7z M278.3,299.7c-0.1-0.9-0.2-1.7-0.2-2.6c0.7,0.5,2.1-1.1,2.3,0.8c-0.3,0.2-0.7,0-0.7,0.9
		c0.2,0,0.5,0.7,0.1,0.9C279.5,297.4,279.2,300.8,278.3,299.7z M280.5,307.4c0.3-0.2,0.4-0.7,0.2-1.7c0.9-0.1,1.6,0.4,2,1.7
		C281.7,307.8,281.1,308.2,280.5,307.4z M268,106.4c-0.8,0.3-1.4-0.2-1.6-1.7c0.6-0.4,0.6-1.2,0.3-2.2c0.3-0.3,0.7-0.3,1.1,0
		C268.2,103.7,267.5,104,268,106.4z M267.8,101.3l0,0.3c-0.6-0.6-1.4-0.6-1.9,0.2l0-0.5C264.6,100.5,267.9,99.4,267.8,101.3z
		 M296.1,308.8c0.3-2.2-1.9-2.1-0.7-3.4c0.3,2.2,0.5-1.2,1.5,0C297.4,308.1,296.5,308.1,296.1,308.8z M276.2,103.7
		c-0.4-2.7,1.4-3.5,1.8-0.9C276.7,102.4,277.2,105.8,276.2,103.7z M299.6,299.2c-0.5-3.3,2-4.6,3.1-2.6
		C300.7,296.2,301.4,301.4,299.6,299.2z M289.9,85.5l0.8,0l0.3,3.7c0,0,0,0,0,0.1c0,0.1,0,0.2,0,0.4c-0.9,0.2-1.1-1.9-1.7-2.6
		C289.6,86.7,289.8,86.3,289.9,85.5z M311.2,305.1c0.3-0.9,2.5-1.8,2.9-0.1C312.4,303.8,312,308.8,311.2,305.1z M313.7,296.4
		c-0.1-0.5-0.1-1-0.4-0.9c0,0.7,0.2,1.7-0.2,1.7c-0.1-1.4-1.1-0.5-1.3-1.7C311.8,294,314.9,294.4,313.7,296.4z M292.1,88.7l-0.3-3.1
		c0.1,0,0.1-0.1,0.2-0.1c0.1,0,0.2,0,0.3-0.1c0.7,0.8,1.8,0.6,2.2,2.3C292.8,86.6,293.1,90.7,292.1,88.7z M294.5,79.2
		c-0.5,0-0.9,0-1.4,0c-0.1-0.2-0.1-0.3-0.2-0.5c0-0.4,0-0.7,0.1-0.9c0.4-0.3,1-0.5,1.4,0.4l0.1,0.6c0,0.1,0.1,0.1,0.1,0.2
		L294.5,79.2z M311.9,84.9c-0.3,0.2-0.4-0.3-0.4-0.8c0,0.1,0.1,0.1,0.1,0.2c0.2,0.1,0.3,0.3,0.5,0.5L311.9,84.9z M363.9,294.6
		c-0.8,0.9-0.8,0.3-2.1,0.9c-0.7-3.9,0.9-3.5,1.8-4.4C363.7,292.3,363.8,293.4,363.9,294.6z M384.5,290.7c-1.1-0.1-2.5,0.8-2.7-1.7
		C382.7,289.6,384.5,287.4,384.5,290.7z M391.4,289.7L391.4,289.7c0.4-0.3,1.1-3.5,1.8-0.9c-0.3,0-0.2,0.6-0.2,1.2
		c0,0-0.1,0-0.1,0.1c-0.5,0.3-1,0.5-1.4,0.3C391.4,290.2,391.4,289.9,391.4,289.7z M366.5,78.7l0-0.1c0,0,0.1,0.1,0.1,0.1
		c0.3,0.1,0.7,0.3,1.1,0.7l0,0.1c-1,1.2,0.3,2.4-0.8,3.5C366.9,80.2,366,80.3,366.5,78.7z M386,290.7c0.7-3.4,2.7-4.1,4.3-1
		c0,0.3,0,0.6,0,0.9c0,0-0.1,0-0.1-0.1c-0.3-0.3-0.8-0.7-1.2,0.1l-0.1,0.3c0,0.2-0.1,0.4-0.3,0.5C387.9,290.3,386.3,289.8,386,290.7
		z M395.2,296.7l-0.2-0.2c-0.6,2.7-2.5-2.8-2.8,0.7c-0.1,0-0.2,0-0.4,0c-0.4-0.1-0.8-0.1-1.2,0.2c-0.9-0.7-4.2,0.6-3.8-2.5
		c0,0.7,0.2,0.8,0.4,0.8c-0.9-3.8,2.2-0.1,2-2.6c0.2-0.3,0.4-0.6,0.5-1.1c0-0.1,0.1,0,0.3,0.2c0.2,0.2,0.5,0.4,0.8,0.3
		c0,0,0,0,0,0.1c0.1,0,0.1,0.1,0.2,0.1c0,0,0,0,0,0c0.3,0.3,0.6,0.4,0.9,0.4c0.5,0,1-0.3,1.4-0.6c0.1,0,0.2-0.1,0.2-0.1
		c0.5,0.4,0.9,1.1,1.4,1.5c0,0.2,0,0.4,0,0.7C395,295.2,395.1,295.9,395.2,296.7z M374.9,77.6c0.3,0,0.2-0.8,0.2-1.5
		c0,0,0-0.1,0-0.1c0.2-0.2,0.8,0.2,1.2,0.6l0,0.1C377.1,79.1,374.9,79.2,374.9,77.6z M389.3,78.2c0.2,0,0.5,0,0.7,0
		c0.1,0.9,0.4,1,0.5,1.7C390,79.8,389.3,80.1,389.3,78.2z M393.5,83.3c-0.1-0.6-0.1-1.2-0.2-1.7c0-0.3-0.1-0.6-0.1-0.9l0,0
		c0,0.1,0.1,0.1,0.1,0.2l0.3,0.1c0.2,0,0.3,0.1,0.4,0.2C394.5,82.2,394.4,83.4,393.5,83.3z M411.3,85.6
		C409.5,87.8,409.2,82.6,411.3,85.6L411.3,85.6z M423.6,185.5C426.4,183.4,425.9,188,423.6,185.5L423.6,185.5z M426.5,81.7
		c-0.1,0.9-0.2,2.1,0.3,3.5l0,0c-1.7,0.9-2.3-1.7-3.5-2.5l0,0.2c-0.1-0.3-0.3-0.7-0.4-1.2c0-0.4-0.1-0.9-0.1-1.3
		c0.1,0,0.2-0.1,0.3-0.1c0.5,0,1-0.1,1.2-1c0.1-0.4,0.2-1,0.1-1.8c0,0,0.1,0,0.1,0c0.7,0,1.6,1.5,2.2,2.9
		C426.6,80.9,426.5,81.3,426.5,81.7z M465.4,222.7c-0.9,0.2-1.3-1.3-1.7-2.6c0.5,0,1,0,1.5,0C465.2,220.9,465.3,221.8,465.4,222.7z
		 M504,289.8c-0.4,0.1-0.9-0.4-1.3-1.3c0,0,0,0,0,0l0-0.1c0.6,0.1,1.4-0.4,1.6,0.8l0.2-0.1C504.4,289.5,504.2,289.8,504,289.8z
		 M496.5,79.6c-1-1.1-0.4-1.7-1-2.6c0,1-0.6,0.7-1,0.9l-0.3-0.2c0-0.5-0.1-1-0.1-1.5c1.9-1,2.8,0.8,3.9,0
		C498.3,78.8,497.3,79.1,496.5,79.6z M501.5,79.4c0,0,0,0.1,0,0.1c-1,0.2-1.9,0-1.9-2.6l0-0.1c0.1,0,0.1,0.2,0.2,0.2l0.2,0
		c0.3,0,0.5,0.1,0.8,0.1c0.2,0.7,0.4,1.3,0.8,1.5l0.1,0C501.6,78.9,501.6,79.1,501.5,79.4z M508.6,70.5l0,0.3c0.4,0.6,0.7,1.6,1,2.6
		c-1,0.7-1.2-0.9-1.6-2.1C508.1,70.9,508.3,70.6,508.6,70.5z M526,292.9c-0.2,0-0.4,0.2-0.5,0.1c-0.1-0.4-0.1-0.7-0.1-1
		c0.1-0.5,0-1.4,0.4-1.4C525.9,291.4,525.9,292.1,526,292.9z M502.1,80.4l-0.2,0.2c0-0.2,0.1-0.4,0.1-0.6c0-0.2,0-0.3,0.1-0.4
		c1.3-0.8,2.6,0.1,4.3-0.9c0.3,1.8,0,2.3,0,3.5C504.7,82.3,504.3,80.2,502.1,80.4z M529,285.3c0.2,4-2.8,0.9-3-0.8
		c0.7-2.2,1.8,0.2,2.4,1.7c0.3-0.8-0.2-3.2,0.9-2.6c0.2,0,0.5,0,0.7,0c0.1,2.2,0.8,2.7,1.1,4.3C529.9,288.6,530.3,284.4,529,285.3z
		 M550.9,283.2L550.9,283.2c-0.4,0-0.7,0.1-1.1,0.2l0-0.2C548.3,281.2,550.7,279.4,550.9,283.2z M533.5,82.4c-0.7-1.9-1,1.5-1.2-1.5
		l0.1-0.1c0.3-0.2,0.4-0.3,0.6-0.5l0,0.3c0.1,0,0.2,0,0.3,0C533.4,81.3,533.5,81.9,533.5,82.4L533.5,82.4z M539.7,85L539.7,85
		c0.4,0,0.8,0.1,1.2,0.3l0,0.4c0.4,0,0.4,1.1,0.5,1.7C540.5,87.6,539.8,87.1,539.7,85z M541.6,82.2c0,1-0.6,0.7-1,0.9l0.1,0.2
		c-0.4-0.2-0.7-0.3-1.1-0.3l-0.2,0c-0.6-0.3-0.6-2.2-1.5-1.6c0.7,2.8-1.1,0.7-0.4,3.5c-1.4-0.7-1.4-2.4-2.2,0
		c-0.2-1.4,0.2-1.5,0.1-2.6c-0.6-0.2-0.8,1.5-1.1,0l-0.1,0.1l0-0.2c-0.1-0.5-0.2-1.1-0.3-1.8c1.1,0.6,2.2,0.4,3.3,0.1
		C538.7,80.2,540.2,80,541.6,82.2L541.6,82.2z M562.8,284.7c-0.2-0.2-0.3-0.3-0.4-0.5c0-0.1,0-0.2,0-0.4c0.2-0.3,1.2-2.2,1.5,0
		C563.5,284.3,563.3,284.7,562.8,284.7z M563.8,271.7c0.2-0.7,1.1,0.6,1.2,0.8C565.4,274.1,563.6,272.3,563.8,271.7z M550.7,88.9
		c0.8,0.4,0.9-0.6,1.4-0.9l-0.1-0.2c0.1,0.2,0.3,0.4,0.4,0.6C552.8,91.3,551.2,90.7,550.7,88.9z M552.8,87.4c-0.2-0.3-0.5-0.6-0.7-1
		l0.2-0.2c0.2-2.6-1-1-1.1-3c0.4-0.3,0.8-0.5,1.2-0.2c0.1,0.1,0.2,0.1,0.3-0.1c0.3,1.9,0.2,3.2,0,4.1L552.8,87.4z M556.6,85.4
		c0.8,0.8,1-2.6,1.5,0C557.9,85.6,556.9,87.5,556.6,85.4z M578.4,267.1c0-2.1-0.8-1.9-0.8-4.3c1.8,3.1,2.2-1.8,3.5,1.7
		C580.3,265,579.4,265.4,578.4,267.1z M607.7,266.2c-0.2,0.1-0.5,0-0.8-0.2c-0.3-1.6,0.3-3.3,0.7-1.2
		C607.2,265.2,607.6,265.5,607.7,266.2z M624.1,169.5c-0.1-0.2-0.2-0.3-0.3-0.5c0.1-0.1,0.1-0.2,0.2-0.5
		C624.8,168.8,624.5,169.1,624.1,169.5z M647.2,239c-0.5,0.4,0.2,1.1,0.2,2.6l0,0.1c-0.2-0.2-0.4-0.4-0.6-0.5
		c-0.5-0.2-0.7-0.4-0.8-1.1c0,0,0,0,0,0l0.2-0.2C645.4,237.8,647.2,237.4,647.2,239z M625.5,160.9c0-0.2,0-0.3,0-0.3
		c0.1,0,0.1-0.1,0.2-0.1c0.1,0.1,0.1,0.2,0.1,0.4c0.1,0.1,0.2-0.1,0.2-0.4c0.3,0,0.6,0,0.9,0c0.1,0.2,0.2,0.4,0.2,0.6
		c-0.4,0.3-0.9,0.4-1.4,0.4C625.6,161.2,625.5,161,625.5,160.9L625.5,160.9z M623.5,145.5c-0.1-0.2-0.2-0.5-0.3-0.7
		c0.2,0.1,0.3,0.2,0.5,0.3C623.6,145.3,623.6,145.4,623.5,145.5z M629.4,147.3c-0.5,0.2-0.9,0.2-1.4-0.1c0-0.3-0.1-0.6-0.1-1
		c0.6,0,1,0.3,1.5,0.6C629.4,147.1,629.4,147.2,629.4,147.3z M629.8,143.1c-1.6-0.2-3.1,0-3.2,0.3c-0.2-0.3-0.4-0.6-0.5-1.1
		c0.9-0.5,1.6-2.1,2.4,0.3c0.5-0.4-0.1-0.8-0.2-1.7c0.8-0.1,1.6-0.1,2.1,0.7c0.1,0.3,0.1,0.7,0.2,1.1
		C630.4,142.8,630.1,142.9,629.8,143.1z M632.3,143.5L632.3,143.5c-0.1,0-0.1-0.1-0.2-0.1c-0.7,0-0.8-0.3-0.8-0.3
		c0-0.2-0.1-0.2-0.2-0.3c-0.1-0.7-0.2-1.3-0.3-1.8l0.1,0c0.6,0.1,1.4-0.4,1.5,0.8C632.2,141.8,632.4,142.8,632.3,143.5z
		 M645.8,129.2c0.8-0.1,1.1,0.6,1.1,1.9c-0.4,0.1-0.8,1.5-0.4,2.6c-0.3-0.9-1.2-3.4-1.3-4.5C645.4,129.2,645.6,129.2,645.8,129.2z
		 M640.9,132.9L640.9,132.9c0.9,0,1.7,0,2.6,0c1,3.5,1.2,0.5,1.2,4.7c-1.1-0.6-1.8-1.4-1.6-3c-0.6,0-1.2,0-1.7,0.1
		c-0.1-0.3-0.3-0.5-0.4-0.8l-0.1,0.1C640.9,133.6,640.9,133.2,640.9,132.9z M638.8,130.5c0.2,0.2,0.4,0.4,0.6,0.6l-0.1,0.2
		c0.2,0.8,0.6,0.7,0.8,1.4c0,0.1,0,0.2,0,0.3C639.3,133.7,638.1,131.4,638.8,130.5z M643.7,146.7c-0.2,0-0.3,0.1-0.5,0.1l0-0.2
		c-1-0.1-3-1.5-2.6,1.7c-0.4,0.2-0.8,0.3-1.3,0.2c-0.1-0.2-0.2-0.3-0.2-0.5l0.1,0c-0.1-0.3-0.2-0.5-0.4-0.7
		C640.1,145.7,641.9,145.8,643.7,146.7z M635.3,145l0-0.1c-0.1,0-0.2-0.1-0.3-0.2c0.1-0.1,0.2-0.1,0.3-0.2c0.1,0.1,0.3,0.3,0.4,0.5
		C635.5,145,635.4,144.9,635.3,145z M635.2,139.8c0,0.1,0.1,0.1,0.1,0.2c0.2,1.4-0.2,1.5-0.1,2.6c-0.1-0.1-0.2-0.2-0.3-0.1
		c-0.2,0.1-0.3,0.2-0.5,0.3l0-0.1c-0.7-0.6-0.4-2.3,0-3C634.7,139.7,635,139.7,635.2,139.8z"/>
	<path class="st0" d="M428.4,80.3c0.1,0.2,0.2,0.3,0.3,0.2c0.1,0,0.2-0.1,0.2-0.3c0.7-2.2,1.9-2.3,3.2-2.4c0.2,0,0.4,0,0.6,0
		c0.1,0,0.1,0.2,0.1,0.2c0.1,0,0.1,0,0.2-0.1c0.1-0.1,0.3-0.3,0.4-0.4c0.1,0,0.2-0.2,0.2-0.3c0.1,0.1,0.3,0.1,0.4,0.1
		c1.2,5.5,3,2,5,2.5l-0.1-0.7c0.3,0.5,0.6,0.8,0.9,1c0,0,0.1,0.1,0.1,0.1c0.1,0,0.3-0.2,0.3-0.5c0-0.4-0.1-0.9-0.3-1.1
		c-0.1-0.1-0.3-0.3-0.5-0.5c0.3-0.5,0.7-0.8,1.1-0.9l0.1,0.2c0.2,0.2,0.4,0.1,0.4-0.2c0.1-0.4,0-0.8-0.2-1.1l-0.3-0.4l-0.1,0
		c-0.8,0-1.3,0.6-1.7,1.5l-0.1-0.8c-0.1-2.2-1,1.4-1.4-0.3c0-0.2,0-0.5,0-0.7c0-0.7,0-1.3,0-1.9c0.3,0.1,0.7,0.1,1,0.2
		c1.1,0.3,2.3,0.5,3.4,0.3c0.1,0,0.2-0.3,0.2-0.6c0-0.3-0.2-0.6-0.3-0.5c-1.1,0.3-2.2,0-3.3-0.3c-0.4-0.1-0.8-0.2-1.2-0.2l-0.2,0
		l-0.1,0.3c-0.1,0.9-0.1,1.8-0.1,2.7c0,0.2,0,0.5,0,0.7c0,0.2,0.1,0.3,0.2,0.4l0,0.1c-0.9,0.5-2.4-2.2-2.9-0.2
		c-0.1,0-0.3-0.1-0.4-0.2c0-0.1-0.1-0.2-0.1-0.3c0-0.3,0.1-0.6,0.1-0.8c0.2-0.2,0.5-0.2,0.8-0.2c0.1,0,0.2-0.2,0.2-0.5
		c0-0.3-0.1-0.5-0.3-0.5c-0.4-0.1-0.7,0.1-1,0.3l-0.1,0.1l0,0.3c0,0.3,0,0.6-0.1,0.9c0,0,0,0,0,0c-0.1,0-0.2,0.1-0.2,0.2l-0.1-1.3
		c0-0.3-0.1-0.5-0.3-0.5c-0.1,0-0.2,0.2-0.2,0.5l0.2,1.7c0,0,0,0,0,0c-0.2,0-0.4,0-0.5,0c-1.4,0.1-2.8,0.1-3.6,2.9
		C428.2,79.4,428.2,79.9,428.4,80.3z"/>
	<path class="st0" d="M605.3,70.5c0.1,0.3,0.3,0.5,0.4,0.5c0.1,0,0.1,0,0.2-0.1c0.2-0.2,0.2-0.7,0-1.1l0-0.1
		c-0.2-0.6-0.4-1.1-0.4-1.4c-0.1-0.4-0.3-0.7-0.5-0.6c-0.2,0.1-0.2,0.6-0.1,1.1C604.9,69.3,605.1,69.9,605.3,70.5z"/>
	<path class="st0" d="M457.5,73.4c0.2,0,0.5-0.2,0.8-0.5l0,0c0.2,0.2,0.4,0.1,0.5-0.3c0.1-0.4,0-0.9-0.2-1.2l-0.5-0.6l-0.2,0.3
		c-0.6,1-0.8,0.4-0.9,0.1c-0.1-0.4-0.4-0.5-0.5-0.2c-0.1,0.3-0.1,0.8,0,1.2C456.7,72.7,457,73.4,457.5,73.4z"/>
	<path class="st0" d="M421.6,74.3c0.3-0.4,0.6-0.3,1-0.1c0.2,0.1,0.5,0.2,0.7,0.2c0.1,0,0.3,0,0.4-0.2c0.1-0.1,0.2-0.5,0.1-0.9
		c-0.1-0.4-0.3-0.5-0.4-0.4c-0.2,0.2-0.5,0-0.9-0.1c-0.5-0.2-1-0.5-1.4,0.2c-0.1,0.2-0.1,0.6,0,0.9
		C421.3,74.4,421.5,74.5,421.6,74.3z"/>
	<path class="st0" d="M344.1,78.3c0.1,0.4,0.3,0.8,0.4,0.7c0,0,0.1,0.2,0.1,0.3c0.1,0.4,0.4,1,0.7,1c0.1,0,0.1,0,0.2-0.1
		c0.2-0.1,0.2-0.5,0.1-1c-0.1-0.4-0.3-0.7-0.5-0.5c0,0,0,0,0,0l0,0c0,0-0.1-0.2-0.1-0.3c-0.1-0.4-0.4-1.1-0.8-1
		C344.1,77.5,344,77.9,344.1,78.3z"/>
	<path class="st0" d="M169.7,89.3l0.2,0.1c0.2,0,0.4,0.1,0.4,0.2c0.1,0.1,0.2,0.2,0.2,0.2c0.1,0,0.2-0.1,0.3-0.4
		c0.1-0.4,0-0.9-0.2-1.2c-0.3-0.4-0.5-0.5-0.8-0.5l-0.1,0c-0.2-0.1-0.4,0.3-0.4,0.7C169.3,88.8,169.5,89.3,169.7,89.3z"/>
	<path class="st0" d="M161.7,89.3c0.2,0,0.5,0,0.7,0.2c0,0,0,0,0.1,0c0.1,0,0.2-0.1,0.2-0.3c0-0.3-0.1-0.5-0.2-0.6
		c-0.3-0.2-0.6-0.2-0.8-0.2c-0.3,0-0.7,0-1-0.5c-0.1-0.1-0.2-0.1-0.3,0.1c0,0.2,0,0.5,0.1,0.7C160.9,89.3,161.3,89.3,161.7,89.3z"/>
	<path class="st0" d="M90.9,103.9C91,103.9,91,103.9,90.9,103.9c0.3-0.2,0.6-0.4,0.8-0.7L92,103c0.1-0.1,0.1-0.4,0.1-0.6
		c-0.1-0.3-0.2-0.4-0.3-0.3l-0.3,0.3c-0.2,0.2-0.5,0.5-0.7,0.6c-0.1,0.1-0.2,0.3-0.1,0.6C90.7,103.7,90.8,103.9,90.9,103.9z"/>
	<path class="st0" d="M33,155c0.3,0.8,1.5,3.8,0.5,1.7c-1.2,1.1,2.3,2.3,1.1,3.4c0.3,1.7,0.9-1.4,1,2.6c0.5-0.3,0.6-4.9,1.2-2.6
		c0.8-0.2-0.1-3.8-0.4-4.3c0.2,0,0.5,0,0.7,0l0-0.2c0.5,0.4,1.1,0.6,1.6,0.6c1.5,0,2.9-1.4,4-2.5l0.2-0.2c0.2,0,0.3-0.2,0.4-0.6
		c0-0.5,0-1-0.3-1.2l-0.1,0.9l0-1l-0.2-0.1l-0.2,0l-0.3,0.3c-1.4,1.4-3.1,3-4.8,2c0.1-0.8,0.8-0.5,1.3-0.7c-0.3-1.7-0.2-2.7,0.5-2.6
		c-3-2.5-3.8-4.2-6-1.6C34.2,152.1,34.2,153.2,33,155z"/>
	<path class="st0" d="M57.6,157.5c0.2,0.1,0.4,0.1,0.6,0.1c1.1,0,2-1.3,2.7-3.9c0.1-0.4,0-0.9-0.1-1.2c-0.2-0.3-0.4-0.3-0.5,0.1
		c-0.7,2.5-1.6,3.6-2.7,3.2c-0.2-0.1-0.4,0.2-0.4,0.7C57.3,157,57.4,157.4,57.6,157.5z"/>
	<path class="st0" d="M638.6,163.4c0.1,0.1,0.1,0.2,0.2,0.2c0.1,0,0.2-0.1,0.2-0.3c0.2-0.7,0.1-1.5,0-2.2l-0.1-0.5l-0.2-0.2
		c0,0-0.2-0.3-0.4-1.9c-0.1-0.4-0.3-0.8-0.4-0.7c-0.2,0.1-0.3,0.5-0.2,0.9c0,0.2,0.1,0.3,0.1,0.5c-1-0.4-0.5,1.3,0.2,1.1
		c0.1,0.6,0.3,1,0.5,1.3c0,0.3,0.1,0.7,0,0.8C638.4,162.7,638.4,163.2,638.6,163.4z"/>
	<path class="st0" d="M644.3,168.4l0.2-0.2c0.3-0.4,0.7-0.3,1.1-0.2c0.1,0,0.2,0.1,0.3,0.1c0,0,0,0,0,0c0.2,0,0.3-0.3,0.3-0.7
		c0-0.4-0.2-0.8-0.4-0.8c-0.1,0-0.2,0-0.3-0.1c-0.4-0.1-0.8-0.2-1.2,0.1c-1.1-2.6-2.6-3.4-3.7-3.7c-0.2,0-0.3,0.3-0.3,0.7
		c0,0.4,0.2,0.8,0.4,0.9c1,0.2,2.4,1,3.4,3.5L644.3,168.4z"/>
	<path class="st0" d="M22,176.8c0,0,0.1,0,0.1-0.1c0.2-0.5,0.5-0.9,0.7-1.3L23,175c0.1-0.1,0.1-0.4,0-0.6c-0.1-0.2-0.2-0.3-0.3-0.1
		l-0.2,0.4c-0.2,0.4-0.5,0.9-0.7,1.4c-0.1,0.2-0.1,0.4,0,0.6C21.8,176.8,21.9,176.8,22,176.8z"/>
	<path class="st0" d="M600.8,268.9c-0.5,0.1-0.9,0.7-1.2,1.6c-0.1,0.4,0,0.8,0.1,1.1c0.1,0.1,0.2,0.2,0.2,0.2c0.1,0,0.2-0.1,0.2-0.3
		c0.2-0.6,0.4-1,0.8-1c0.2,0,0.3-0.4,0.2-0.9C601.2,269.2,601,268.9,600.8,268.9z"/>
	<path class="st0" d="M67.2,302.3c-0.2-0.1-0.3,0.1-0.3,0.5c0,0.2,0,0.4,0,0.6c0,0.3,0,0.7-0.1,1.1c-0.1,0.3-0.2,0.5-0.3,0.8
		c-0.2-0.2-0.3-0.3-0.5-0.5c-0.5-0.6-1.1-1.3-1.7-0.9l0,0c-0.1-0.6-0.1-1.2-0.2-1.7c-0.4,1.2-1.8,1.7-1.6-1.7
		c-0.8,0.3-1.3,1.4-2.5,0.9c0-1.8-0.7-1.6-1.3-1.7l-0.1,0.2c0,0,0,0,0,0c-0.5-0.8-1-0.9-1.6-1c-0.3,0-0.6,0.5-0.6,1.3
		c0,0.8,0.3,1.4,0.6,1.5c0.2,0,0.5,0.1,0.7,0.2c0.3,0.8,0.5,1.8,0.6,3.1c0.3-0.7,0.7-0.9,1.4-0.9c-0.2,1.6,1.4,2.9,0.3,3.4
		c0.3,3.1,1-1.9,1.2,0.8l0.1-0.1c0,0,0,0.1,0,0.1c-0.1,0.4-0.2,0.7-0.3,0.9c-0.1,0.1-0.1,0.4,0,0.7c0,0.2,0.1,0.3,0.2,0.3
		c0,0,0.1,0,0.1,0c0.2-0.2,0.3-0.6,0.4-1l0,0.1c1.1,1.6,1.9-2.1,2.6-3.5l-0.1-0.2c0.4-0.4,0.8,0,1.4,0.7c0.2,0.3,0.5,0.6,0.8,0.8
		l0.2,0.2l0.1-0.4c0.1-0.5,0.3-0.7,0.4-1l0.1-0.2l0-0.3c0-0.5,0-0.9,0.1-1.3c0-0.3,0-0.5,0-0.6C67.5,302.8,67.3,302.4,67.2,302.3z"
		/>
	<path class="st0" d="M71.1,308.4l-0.1-0.1c-0.2-0.2-0.3-0.5-0.5-1c-0.1-0.3-0.3-0.5-0.4-0.3c-0.1,0.2-0.2,0.5-0.1,0.9
		c0.2,0.6,0.4,1.1,0.6,1.4c0,0.4,0,0.8,0,1.6c0,0.4,0.1,0.7,0.3,0.8c0,0,0.1,0,0.1,0c0.1,0,0.2-0.2,0.2-0.5c0-1,0-1.7-0.1-2.5
		L71.1,308.4z"/>
	<path class="st0" d="M66.9,313.3c-0.1,0.3-0.1,0.5-0.2,0.8c-0.2,0.7-0.5,1.5-0.3,2.3c0.1,0.2,0.1,0.3,0.2,0.3c0,0,0,0,0.1,0
		c0.1-0.1,0.1-0.4,0.1-0.7c-0.1-0.2,0.1-0.8,0.3-1.3c0.1-0.3,0.2-0.6,0.2-0.9c0.1-0.2,0-0.5-0.1-0.7C67.1,313.1,67,313.1,66.9,313.3
		z"/>
	<path class="st0" d="M148.4,317.3l0.7,0C148.9,316.9,148.6,317.1,148.4,317.3z"/>
	<path class="st0" d="M122.7,111.7c0.1,0.1,0.2,0.2,0.2,0.2c0.1,0,0.2-0.1,0.3-0.4c0.1-0.3,0.1-0.4,0.6,0c0.2,0.1,0.4,0.3,0.6,0.3
		l0.1,0l0.1-0.1c0.1-0.1,0.2-0.3,0.3-0.6c0.2-0.4,0.3-0.7,0.6-1c0.2-0.2,0.3-0.7,0.2-1.2c-0.1-0.5-0.4-0.7-0.6-0.6
		c-0.4,0.3-0.6,0.9-0.8,1.3c0,0.1-0.1,0.2-0.1,0.2c-0.1,0-0.2-0.1-0.3-0.2c-0.4-0.3-1.1-0.8-1.4,0.8
		C122.4,110.9,122.5,111.5,122.7,111.7z"/>
	<path class="st0" d="M129.5,349.6c-0.2-0.2-0.4-0.1-0.5,0.4c-0.1,0.7-0.3,2.6,0.5,4.4c0.1,0.2,0.2,0.3,0.3,0.3
		c0.1,0,0.2-0.1,0.2-0.2c0.1-0.3,0.1-0.9-0.1-1.3c-0.3-0.7-0.3-1.3-0.2-2.5C129.9,350.4,129.8,349.9,129.5,349.6z"/>
</g>
</svg>
