<?xml version="1.0" encoding="utf-8"?>
<!-- Generator: Adobe Illustrator 23.0.6, SVG Export Plug-In . SVG Version: 6.00 Build 0)  -->
<svg version="1.1" id="Layer_1" xmlns="http://www.w3.org/2000/svg" xmlns:xlink="http://www.w3.org/1999/xlink" x="0px" y="0px"
	 viewBox="0 0 680 240.1" style="enable-background:new 0 0 680 240.1;" xml:space="preserve">
<style type="text/css">
	.st0{fill:#C1E7E8;}
</style>
<g>
	<path class="st0" d="M344.2,39.1c-0.1-0.1-0.8-1-1-0.6C342.8,38.9,344.5,40,344.2,39.1z"/>
	<path class="st0" d="M329.6,42.6c-0.3-0.4-1.2-1.3-1.7,0C327.6,43.2,329.8,43,329.6,42.6z"/>
	<path class="st0" d="M416.4,46.8c-0.3-0.9-1.2-1.4-1.8-0.5C414.5,47.4,415.8,46.5,416.4,46.8z"/>
	<path class="st0" d="M480.4,47.1c-0.2,0-0.5,0-0.7,0c0,0.3,0,0.7,0,1c0.2,0,0.5,0,0.7,0C480.4,47.8,480.4,47.5,480.4,47.1z"/>
	<path class="st0" d="M413.6,46.8c-0.1-0.1-0.8-1-1-0.6C412.3,46.6,413.9,47.6,413.6,46.8z"/>
	<path class="st0" d="M326.5,45.1C325.3,46.4,328.4,46.4,326.5,45.1L326.5,45.1z"/>
	<path class="st0" d="M324.8,45.5C325.9,47.5,325.9,44,324.8,45.5L324.8,45.5z"/>
	<path class="st0" d="M227,43.8c-0.2,0-0.5,0-0.7,0c0,0.3,0,0.7,0,1c0.2,0,0.5,0,0.7,0C226.9,44.5,227,44.1,227,43.8z"/>
	<path class="st0" d="M447.4,47.2c-0.2,0-0.5,0-0.7,0c0,0.3,0,0.7,0,1c0.2,0,0.5,0,0.7,0C447.3,47.9,447.3,47.6,447.4,47.2z"/>
	<path class="st0" d="M408,49.2c0.6-0.2,0.8-0.8,0.6-2.1c-0.7-0.3-0.9,0.3-1.4,0.5C407.4,48.4,408,48.5,408,49.2z"/>
	<path class="st0" d="M447,49.2C445.3,47.4,445.1,50.5,447,49.2L447,49.2z"/>
	<path class="st0" d="M415.4,48.8C416.4,50.8,416.5,47.3,415.4,48.8L415.4,48.8z"/>
	<path class="st0" d="M538.2,52C536.9,50.2,536.5,53.4,538.2,52L538.2,52z"/>
	<path class="st0" d="M333.2,50.3c-0.3-0.5-0.8-0.6-0.8-1.6C331.4,49.1,332.1,50.7,333.2,50.3z"/>
	<path class="st0" d="M464.5,52C462.5,50.2,462.9,53.3,464.5,52L464.5,52z"/>
	<path class="st0" d="M259.1,50.3c-0.1-0.6-0.5-1-1.1-1.1C258.2,50,258.5,50.4,259.1,50.3z"/>
	<path class="st0" d="M258.1,51.4C259.2,50.2,256.8,49.3,258.1,51.4L258.1,51.4z"/>
	<path class="st0" d="M397.7,53.7c0.1-0.8-1.9-0.7-1.1,0.5C396.5,54.1,397.7,53.7,397.7,53.7z"/>
	<path class="st0" d="M81.1,59.4c0.1-0.9-1.9-0.9-1.4,0.5C80.4,60.1,80.6,59.6,81.1,59.4z"/>
	<path class="st0" d="M74.8,60.3c-0.9,0-1.8,0.1-1.7,1.5c0.6-0.1,0.7,0.6,1.4,0.5C74.5,61.5,74.9,61.3,74.8,60.3z"/>
	<path class="st0" d="M122.6,63.5c-0.7-0.6-1-2-2.1-2C120.7,62.7,121.3,63.7,122.6,63.5z"/>
	<path class="st0" d="M70.4,64.4C71.5,66.3,71.5,62.9,70.4,64.4L70.4,64.4z"/>
	<path class="st0" d="M60.6,65.9c-0.3-1.5-0.7,0.5-1.4,0C59.3,67.1,60.4,65.9,60.6,65.9z"/>
	<path class="st0" d="M61.8,70.4c-0.5-1.5-1.7,0.1-2.1,0.5C60.3,72.7,60.6,69.7,61.8,70.4z"/>
	<path class="st0" d="M83.4,71.8c-0.7-0.1-1.1,0.1-1,1C83,71.4,83.4,74.9,83.4,71.8z"/>
	<path class="st0" d="M49,78.6c1.3,0.4,1.5-0.9,2.8-0.5c-0.1-0.5-0.4-0.4-0.7-0.5c0.2-0.5,0.4-1.2,0.3-2.1c-0.3-0.1-0.3,0.2-0.3,0.5
		c-0.1,1.3-0.6-0.7-1.4,0C50.2,78,48.8,77,49,78.6z"/>
	<path class="st0" d="M49.4,76.5c-0.3-1.5-0.9,0.6-1.7,0C47.9,78.2,48.7,76.9,49.4,76.5z"/>
	<path class="st0" d="M74.8,77.8c0.4,0,0.7,0,1,0c0-0.3,0-0.7,0-1c-0.4,0-0.7,0-1,0C74.7,77.2,74.8,77.5,74.8,77.8z"/>
	<path class="st0" d="M44.5,80.6c-0.1-0.4,0.1-0.5,0.3-0.5c0.2-1-1.6-0.8-1.1,0.5C44,80.6,44.3,80.6,44.5,80.6z"/>
	<path class="st0" d="M64.8,80.9c-0.5,0.2-0.5,0.9-1,1C63.9,83.1,65.1,81.9,64.8,80.9z"/>
	<path class="st0" d="M45.7,82.1c0.2,1.4,1.1,0.1,0.6-1.1C45.9,81.2,46,82.1,45.7,82.1z"/>
	<path class="st0" d="M41.1,82.1C42.2,84,42.2,80.6,41.1,82.1L41.1,82.1z"/>
	<path class="st0" d="M40.7,82.1c-0.9-0.3-0.3,1.9-1,2C40.4,85.8,40.7,82.9,40.7,82.1z"/>
	<path class="st0" d="M22.1,87.5C21,85.5,20.9,89,22.1,87.5L22.1,87.5z"/>
	<path class="st0" d="M21.7,90.1c-0.1,1.1,1.2,0.3,1.8,0.5C23.6,89.5,22.3,90.3,21.7,90.1z"/>
	<path class="st0" d="M75.4,92.3C74.1,93.9,76.4,94.1,75.4,92.3L75.4,92.3z"/>
	<path class="st0" d="M17.5,105c-0.3-0.9-0.7,0-1,0C16.7,105.9,17.1,105,17.5,105z"/>
	<path class="st0" d="M610.2,120.1c-0.4,0-0.7,0-1,0c0,0.3,0,0.7,0,1c0.4,0,0.7,0,1,0C610.1,120.7,610.1,120.3,610.2,120.1z"/>
	<path class="st0" d="M607,120.5C608.1,122.4,608.1,118.9,607,120.5L607,120.5z"/>
	<path class="st0" d="M13.7,144.2c0.4-0.1,0.3-1,0.6-1.1C14,141.7,12.8,143.5,13.7,144.2z"/>
	<path class="st0" d="M24.8,146.8c-0.7,0.3-0.7,0.8-0.3,1.6c0.2,0,0.5,0,0.7,0C25,148.1,24.9,147.5,24.8,146.8z"/>
	<path class="st0" d="M604.8,158.1C604.6,160.6,606.5,159.1,604.8,158.1L604.8,158.1z"/>
	<path class="st0" d="M35.2,161c-0.1,1.6,0.9,1.9,1.4,1.1C36.5,161.1,36,160.8,35.2,161z"/>
	<path class="st0" d="M541.8,174.3c-0.2,0-0.5,0-0.7,0c-0.2,1.1,0.5,1,1.1,1.1C542.1,174.9,541.9,174.9,541.8,174.3z"/>
	<path class="st0" d="M41.6,169.3c0-1.1-1.5-0.2-2.1-0.5C39.6,169.9,41,169,41.6,169.3z"/>
	<path class="st0" d="M45.5,173c0.8,0.2,1.1-0.4,1.1-1.5c-0.4,0-0.7,0-1,0C45.5,171.9,45.5,172.4,45.5,173z"/>
	<path class="st0" d="M515.5,180.1c-0.4,2.3,1.1,1.4,2.1,1.5c-0.2-0.4-0.4-0.8-0.4-1.5C516.6,181.1,516.4,180.2,515.5,180.1z"/>
	<path class="st0" d="M471.6,180.6C469.3,178.8,470.3,182.2,471.6,180.6L471.6,180.6z"/>
	<path class="st0" d="M51.1,176.1c0.1,1.5,2.1,1.4,1.7-0.5C52.2,176.5,51.8,175,51.1,176.1z"/>
	<path class="st0" d="M528.4,182.4c-1.6-0.5,0.3,1.7-0.7,1.6c0.1,0.7,0.9,0.5,1.4,0.5C529,183.6,528,184,528.4,182.4z"/>
	<path class="st0" d="M541.6,183.6c0.4,1.8,0.9,0.1,2.1,0.5C543.3,182.7,542.3,183.4,541.6,183.6z"/>
	<path class="st0" d="M539.6,183.1c-0.4,0.2-0.7,0.7-0.7,1.6C540.1,185.1,540,183.8,539.6,183.1z"/>
	<path class="st0" d="M530.1,183.4c0.2,1.1,1.9,0.4,2.1,0C531.9,182,531.1,184.2,530.1,183.4z"/>
	<path class="st0" d="M519.7,184.3c0.3,0.9,1.2,1.4,1.8,0.5C521.1,183.1,520.8,184.6,519.7,184.3z"/>
	<path class="st0" d="M341.2,186.2C342.3,188,342.4,184.5,341.2,186.2L341.2,186.2z"/>
	<path class="st0" d="M332.9,187c0.3,2.6,1.7-0.1,2.5,0.1C335.2,186.3,332.9,186.2,332.9,187z"/>
	<path class="st0" d="M56.2,184.9c0.5-0.2,0.5-0.9,1-1C57,182.7,55.8,183.9,56.2,184.9z"/>
	<path class="st0" d="M326.7,187.5c-0.5,0.5-1.1,0.7-1,2c1,0.5,0.9-0.7,1.7-0.5C327.1,188.5,326.5,188.5,326.7,187.5z"/>
	<path class="st0" d="M321.1,188.9c0.9,1.4,1.9,0.7,2.8,0C323.3,187.7,321.7,188.9,321.1,188.9z"/>
	<path class="st0" d="M141.8,186.6C140.6,188.1,142.9,188.4,141.8,186.6L141.8,186.6z"/>
	<path class="st0" d="M69,187.2c0.6-0.4,0.1-0.9,0-1.5C68.5,186,69,186.6,69,187.2z"/>
	<path class="st0" d="M57.6,188c0.4-0.2,0.7-0.7,0.7-1.6C57.8,186.7,57.5,187.1,57.6,188z"/>
	<path class="st0" d="M56.2,187.5c-0.2-0.2,1.1-0.5,1.1-0.5C57.3,186.2,55.3,186.3,56.2,187.5z"/>
	<path class="st0" d="M104.6,187.7c0.2,0.7,0.8,1,1.4,1.1C105.9,187.8,105.4,187.5,104.6,187.7z"/>
	<path class="st0" d="M260.6,190.8C261.3,192.3,262.8,190.2,260.6,190.8L260.6,190.8z"/>
	<path class="st0" d="M257.1,191.2C258,192.9,258.5,189.4,257.1,191.2L257.1,191.2z"/>
	<path class="st0" d="M148.2,189.8c-1.1,0.1-1.1,1.8-1.4,3.1C147.4,192.1,148.9,191.1,148.2,189.8z"/>
	<path class="st0" d="M226.5,192.4c0.2,0,0.5,0,0.7,0c0-0.3,0-0.7,0-1c-0.2,0-0.5,0-0.7,0C226.5,191.7,226.4,192,226.5,192.4z"/>
	<path class="st0" d="M56.9,190.6c0.2,1.4,1.1,0.1,0.6-1.1C57.3,189.7,57.4,190.6,56.9,190.6z"/>
	<path class="st0" d="M192.7,192.4c-0.2-1.8-1.5,0.9-1.4-0.5C190,192.9,192.5,193.4,192.7,192.4z"/>
	<path class="st0" d="M181.9,192.8c0.6-1,0.6,0.3,1.7,0C184.2,191.2,181.4,191.2,181.9,192.8z"/>
	<path class="st0" d="M76.9,197.1c0.6,1.5,0.8,0.5,2.1,1C78.8,197.1,77.6,196.1,76.9,197.1z"/>
	<path class="st0" d="M96.1,199.9c-0.1-0.6-0.7-0.4-0.7-1C94.4,199.3,95.7,201.2,96.1,199.9z"/>
	<path class="st0" d="M157.8,201.3c-0.4,0.2-0.7,0.7-0.7,1.6c0.6,0.1,0.6-0.5,1.1-0.5C158,201.9,157.7,201.8,157.8,201.3z"/>
	<path class="st0" d="M70.4,202.1C71.3,203.8,71.8,200.4,70.4,202.1L70.4,202.1z"/>
	<path class="st0" d="M76,202.8c-0.4,1.8,2,2.4,1.4,0C76.9,202.8,76.5,202.7,76,202.8z"/>
	<path class="st0" d="M131,205.5c-0.4,0.1-0.3,1-0.6,1.1c0.6,1.5,1.5-0.4,2.5,0.1C132.3,205.3,131.1,206.3,131,205.5z"/>
	<path class="st0" d="M94.8,205.1c-0.2,1.6,0.7,1.5,0.4,3.1c0.7,0,1.4,0,2.1,0C96.8,206.2,96.4,206,94.8,205.1z"/>
	<path class="st0" d="M85.8,206c0.1,1.3,1.2,1.1,2.1,1C88.2,205.2,86.5,206.3,85.8,206z"/>
	<path class="st0" d="M118.2,208.9c0.1,1.2,1,1.2,1.4,0.5C119.5,208.8,118.7,209.1,118.2,208.9z"/>
	<path class="st0" d="M116.8,210.6c0.6-0.4,0.1-0.9,0-1.5C116.2,209.3,116.7,209.8,116.8,210.6z"/>
	<path class="st0" d="M326.7,36.8c0.9-0.2-0.4-1.4-1.1-1.1C325.8,36.5,326.7,35.9,326.7,36.8z"/>
	<path class="st0" d="M349.1,39.8c0.1,0.4-0.1,0.5-0.3,0.5c0.1,1.1,0.9-0.6,1.7,0c0.8-0.4-1.5-0.9-2.1-1
		C348.3,39.7,348.8,39.6,349.1,39.8z"/>
	<path class="st0" d="M346.2,39.7C349,40.8,342.1,38,346.2,39.7L346.2,39.7z"/>
	<path class="st0" d="M542.2,173.5C541.9,174,542.5,173.8,542.2,173.5L542.2,173.5z"/>
	<path class="st0" d="M507.2,52.6C506,51.1,505.4,53.9,507.2,52.6L507.2,52.6z"/>
	<path class="st0" d="M76.6,81.5c0.8-0.4-0.8-1.6-1.4-1.6C75,81.4,76.5,80.5,76.6,81.5z"/>
	<path class="st0" d="M319.9,43.4C320.8,44.8,321.9,42,319.9,43.4L319.9,43.4z"/>
	<path class="st0" d="M442.1,47.1c-0.6,0.9-0.5,0-1.4,0C440.9,47.7,442.4,49.1,442.1,47.1z"/>
	<path class="st0" d="M428.3,49.5c2-0.6-1.3-4.4-1.4-1.6C428.2,46.7,427.3,48.5,428.3,49.5z"/>
	<path class="st0" d="M308.8,47.5c0.5,0.1,0.1-2.9-1.1-2.1C307.9,46.4,308.4,46.7,308.8,47.5z"/>
	<path class="st0" d="M424.5,51c0.1,0.2,0.2,0.3,0.3,0.5c-0.6,0.2-0.6-0.5-1-0.6c-0.4,1,1.6,1.5,1.4,2.6c0.3-0.5,1-0.3,1-1l-0.1-0.4
		c0.4,0.4,0.8,0.8,1.3,1c0,0,0,0,0.1,0c0.1,0,0.2-0.1,0.2-0.2c0-0.2-0.1-0.3-0.2-0.4c-0.3-0.1-0.6-0.4-0.9-0.7
		c0.1-0.3,0.3-0.1,0.3,0.2c0.9-0.4-0.3-2.3-0.7-1l-0.1,0.1c-0.2-0.5-0.3-0.9-0.6-1.3c-0.1-0.6,0.3-0.7,0.7-0.8
		c-0.4-2-1.8,0.3-2.5-1.1c-0.5,0.4-0.6,1.1-0.6,2.1C424.2,49.3,423.8,51,424.5,51z"/>
	<path class="st0" d="M323.1,48.1C320.8,47.2,326,49.5,323.1,48.1L323.1,48.1z"/>
	<path class="st0" d="M218.3,47.8c1.1-0.5-0.8-0.9-0.8-1.6C216.3,47.1,218.4,47.1,218.3,47.8z"/>
	<path class="st0" d="M294.2,48.8C295.1,49.2,292.4,48.1,294.2,48.8L294.2,48.8z"/>
	<path class="st0" d="M445.3,51.3c0.5,0.1,0.8,1,2.1,1C447.4,50.8,445.6,50.9,445.3,51.3z"/>
	<path class="st0" d="M422.7,52.5c-0.2,0-0.5,0-0.7,0C423.5,54.9,422.8,47.5,422.7,52.5z"/>
	<path class="st0" d="M291.5,51.8c-0.1-0.7-0.9-0.5-1.4-0.5c0,0.8,1.5,1.7,0,1.5c-1.1,0.6,1,0.7,1,0
		C290.7,52.3,290.9,51.8,291.5,51.8z"/>
	<path class="st0" d="M78.3,60.4c0.9-1-1.2-1.2-1.8-0.5C76.8,61.7,78.2,58.7,78.3,60.4z"/>
	<path class="st0" d="M77.5,73.8c-0.1-1.3-0.6,0.7-1.4,0c0.3,0.5,0.2,1.9,1,1.6C77.1,74.6,77,73.9,77.5,73.8z"/>
	<path class="st0" d="M78.2,75.4c-0.7-1.8-1,1.5-2.1,1C76.7,77.8,77.6,75.5,78.2,75.4z"/>
	<path class="st0" d="M59.7,73C58.1,73.8,59.3,75.6,59.7,73L59.7,73z"/>
	<path class="st0" d="M73,74.8C71.7,77.4,73.1,78.9,73,74.8L73,74.8z"/>
	<path class="st0" d="M46.3,79.5c0.1,0.4-0.1,0.5-0.3,0.5c0,0.8,1.6-0.2,2-0.5c-0.6-1.8-1.3-1.1-2.8-1.1
		C45.1,79.6,45.7,79.5,46.3,79.5z"/>
	<path class="st0" d="M22.8,91.7c0.1,0.7,0.9,0.5,1.4,0.5c-0.4,0.7-0.3,1.1,0.4,1C24.4,91.4,23.8,91,22.8,91.7z"/>
	<path class="st0" d="M598.3,99.7c0,0.7,0,1.4,0,2.1c0.9,0.7,1.1-0.2,1.4,0.5c0.5-0.5-0.1-0.8,0.3-2.1
		C599.2,99.5,599.4,99.2,598.3,99.7z"/>
	<path class="st0" d="M34.4,97.5c-0.1-0.6-0.4-0.3-0.4,0c-0.3,0.1-0.4-0.2-0.3-0.5C32.6,97.6,34.1,98.5,34.4,97.5z"/>
	<path class="st0" d="M597.4,106.5C596.6,105.6,599.9,109.1,597.4,106.5L597.4,106.5z"/>
	<path class="st0" d="M599.5,106.5c-0.9,0.3,0.6,1.5,0.7,2.1C601.1,108.1,599.3,107.4,599.5,106.5z"/>
	<path class="st0" d="M596.7,108.5C597.3,111,598.4,109.2,596.7,108.5L596.7,108.5z"/>
	<path class="st0" d="M18.2,121.5c0.7,0.6,1,2,2.1,2c0.5-2-1.5-0.1-1.1-2.1C18.8,121.5,18.4,121.6,18.2,121.5z"/>
	<path class="st0" d="M13.9,139.5c-0.3-0.3-0.5-0.5-1-0.6c0.1,0.7,0.6,0.8,0.8,1.6c0.4-0.1,0.3-1,0.6-1.1
		C14.2,138.9,13.9,139.2,13.9,139.5z"/>
	<path class="st0" d="M12.7,146.7c-0.7-0.1,0.1,2,0.8,1.6c0-0.5,0-1,0-1.5C13,147,12.7,147.3,12.7,146.7z"/>
	<path class="st0" d="M15.5,149.3c-1,1.2,0.7-1,0.7,0.5C17.5,149.6,15.5,147.7,15.5,149.3z"/>
	<path class="st0" d="M42.6,169c-0.2-0.1-0.4,0-0.5,0.3c-0.1,0.3,0.1,0.6,0.2,0.7c0.3,0.2,0.6,0.2,0.9,0.3c0.6,0,1.2-0.4,1.6-1
		c1.2-0.3,1,1.6,2.3,1.1c-0.3-1.2-0.4-1.7-0.4-4.1c-0.9,0.3-1.2-0.2-1-1.6c-0.5,0.6-0.4,2.4-1.3,1.1c-0.1-0.2-0.2-0.3-0.2-0.4
		c-0.1-0.2-0.2-0.5-0.2-0.7l-0.2-0.2c-0.4-0.3-0.8-0.4-1.2-0.1c-0.2,0.2-0.3,0.5-0.2,0.9c0.1,0.3,0.4,0.4,0.5,0.3
		c0.2-0.1,0.3-0.1,0.4-0.1c0.1,0.1,0.1,0.3,0.2,0.4c0.1,0.3,0.2,0.5,0.3,0.8l-0.1,0.1c0.4,0.4,0.2,1.4,0.8,1.6l0.1,0.1
		C44.1,169.2,43.3,169.4,42.6,169z"/>
	<path class="st0" d="M541.6,180c0.3-0.1,0.3-0.5,0.7-0.6c0-0.3,0-0.7,0-1c-0.3-0.1-0.3,0.2-0.3,0.5c-0.3-0.2-0.6-0.4-0.7-1
		C540.2,178.4,542,178.7,541.6,180z"/>
	<path class="st0" d="M105.5,184C103.5,186.6,106.3,183.1,105.5,184L105.5,184z"/>
	<path class="st0" d="M328.8,187.5c-0.1,0-0.6,0.9-0.6,1.1c0-0.1-0.1-0.4,0-0.5C327.7,191.1,329.9,187.8,328.8,187.5z"/>
	<path class="st0" d="M51.7,185.4c0.2,0,0.3,0,0.4,0C51.7,185.4,50.2,185.2,51.7,185.4z"/>
	<path class="st0" d="M52,185.5C52.1,185.5,52.1,185.5,52,185.5L52,185.5z"/>
	<path class="st0" d="M267,202.7C267.4,205.9,266.9,201.8,267,202.7L267,202.7z"/>
	<path class="st0" d="M165,201.9C164.1,201,163.1,203.9,165,201.9L165,201.9z"/>
	<path class="st0" d="M317.7,44.2c0.1,0,0.1,0,0.2-0.1c0.1-0.2,0.2-0.2,0.4-0.3c0.1-0.1,0.2-0.1,0.3-0.2c0.1-0.1,0.2-0.4,0.1-0.6
		s-0.3-0.3-0.5-0.2c-0.1,0.1-0.1,0.1-0.2,0.1c-0.2,0.1-0.3,0.2-0.5,0.4c-0.1,0.2-0.1,0.5,0,0.7C317.5,44,317.6,44.1,317.7,44.2z"/>
	<path class="st0" d="M311.7,44.5c0.3-0.1,0.6,0,0.8,0.2c0.3,0.1,0.6,0.2,0.8,0.3c0.1,0,0.2,0,0.4-0.1l0.1-0.1l0.1-0.5
		c0-0.2,0-0.4-0.2-0.5c-0.1-0.1-0.3,0-0.3,0.2l0,0.2c-0.3,0.1-0.5,0-0.7-0.3c-0.3-0.1-0.6-0.3-1-0.3c-0.1,0-0.2,0.2-0.2,0.4
		C311.5,44.3,311.6,44.6,311.7,44.5z"/>
	<path class="st0" d="M276.4,47.1L276.4,47.1c0.9,0.1,1.6,0.3,2.4,0.8c0.1,0,0.1,0,0.2,0c0.2,0,0.3-0.2,0.4-0.4
		c0.1-0.3,0-0.7-0.2-0.8c-1-0.6-1.8-0.9-2.8-0.9c-0.2,0-0.4,0.3-0.4,0.7C276,46.9,276.2,47.1,276.4,47.1z"/>
	<path class="st0" d="M288.5,48.7c0.5-0.5,1.2-0.2,1.7,0c0.4,0.1,0.6,0.2,1,0.3c0.2,0,0.5-0.1,0.7-0.2c0.2-0.1,0.3-0.5,0.2-0.8
		c-0.1-0.3-0.4-0.4-0.5-0.3c-0.3,0.2-0.8,0-1.2-0.1c-0.6-0.2-1.5-0.5-2.3,0c-0.2,0.2-0.2,0.5-0.1,0.8
		C288,48.8,288.3,48.9,288.5,48.7z"/>
	<path class="st0" d="M166.2,51.7c1,1,2.1,0.5,3,0.2c0.1-0.1,0.2-0.1,0.4-0.2c0.3,0.5,0.6,0.7,1,1c0.2,0.1,0.4,0.2,0.5,0.3
		c0.1,0.1,0.1,0.1,0.2,0.1c0.1,0,0.2-0.1,0.3-0.2c0.1-0.2,0-0.6-0.1-0.7c-0.2-0.2-0.5-0.3-0.6-0.4c-0.4-0.2-0.6-0.4-0.7-0.7
		l-0.2-0.4l-0.3,0.1c-0.2,0.1-0.4,0.2-0.6,0.3c-0.9,0.3-1.8,0.7-2.6-0.1c-0.2-0.1-0.4,0-0.5,0.2C165.9,51.2,166,51.5,166.2,51.7z"/>
	<path class="st0" d="M73.9,92.9c-0.2,0-0.5,0.1-0.7,0.2c-0.1,0.1-0.3,0.1-0.5,0.1s-0.3,0.3-0.2,0.5c0,0.2,0.2,0.4,0.4,0.4l0,0
		c0.2,0,0.4-0.1,0.5-0.2c0.2-0.1,0.3-0.1,0.5-0.1s0.3-0.2,0.3-0.5C74.1,93.1,74.1,92.9,73.9,92.9z"/>
	<path class="st0" d="M536.1,183.7c-0.2,0.1-0.4-0.1-0.7-0.5c-0.4-0.4-0.9-1.1-1.6-0.8c-0.2,0.1-0.3,0.4-0.2,0.7
		c0.1,0.3,0.3,0.5,0.5,0.3c0.3-0.1,0.5,0,0.8,0.6c0.3,0.3,0.7,0.8,1.2,0.9c0.1,0,0.2,0,0.3-0.1c0.2-0.1,0.3-0.4,0.2-0.7
		C536.6,183.9,536.4,183.6,536.1,183.7z"/>
	<path class="st0" d="M344.9,186c-0.4,0-0.6,0.1-0.9,0.1c-0.1,0-0.2,0.1-0.3,0.1c-0.2,0-0.2,0.3-0.2,0.5c0,0.2,0.2,0.3,0.3,0.3l0,0
		c0.1,0,0.2-0.1,0.3-0.1c0.2-0.1,0.4-0.2,0.7-0.2c0.2,0,0.3-0.2,0.3-0.4C345.1,186.2,345,186,344.9,186z"/>
	<path class="st0" d="M628,73c0.1,0.5-0.1,1.1,0.5,1.2c0.1-0.5,0.5-0.3,0.9,0.1C629.4,73.3,628.9,73,628,73z"/>
	<path class="st0" d="M611.7,99.3C609.6,98.2,610.7,100.6,611.7,99.3L611.7,99.3z"/>
	<path class="st0" d="M594.8,103.9c-0.4,1.5,1.8,0.6,2.6,0.9C597.8,103.3,595.6,104.1,594.8,103.9z"/>
	<path class="st0" d="M600.6,112.4c-1.1-0.5-2.5,0.8-1.3,1.2C599.1,112.7,601.3,113.8,600.6,112.4z"/>
	<path class="st0" d="M607.2,118.2c-0.6-0.4-3.5-0.5-3,1.2C605.6,119.2,606.2,118.5,607.2,118.2z"/>
	<path class="st0" d="M601.1,67.4c0-0.1,0-0.3,0-0.4l-0.2,0.2L601.1,67.4z"/>
	<path class="st0" d="M600.7,67.1c0,0.1,0,0.3,0,0.4l0.2-0.2L600.7,67.1z"/>
	<path class="st0" d="M607.7,117.8c0-0.4,0.3-0.5,0.4-0.8c-0.3,0-0.5,0-0.8-0.1c-0.3-0.4-0.6-0.6-1.2-0.6c-0.1,0.9,0.4,1.3,0.9,1.4
		c0.4,0.6,1.1,0.9,0.3,1.6c1.4,0.4,1.4-0.6,1.7-1.2C608.5,118.1,607.8,118.2,607.7,117.8z"/>
	<path class="st0" d="M568.4,48.2c0.2,0,0.3-0.2,0.5-0.3l-0.1,0.4c-0.1,0.8,0.3,0.9,0.4,1.5c0.4-0.1,0.3-1,0.3-1.6
		c0.9-0.6,1.7,1.2,1.7,0l-0.1-0.2c0.1,0.1,0.3,0.3,0.4,0.4c0,0.2,0,0.4,0.2,0.4l0.1,0c0.1,0,0.2-0.1,0.2-0.2l0.1-0.5l-0.3-0.3
		c-0.1-0.1-0.2-0.2-0.3-0.2c0.1-1.7-0.8-1.9-1.8-1.9l0,0.1c-0.1-0.2-0.2-0.4-0.2-0.6c-0.1-0.2-0.3-0.3-0.5-0.1
		c-0.2,0.1-0.2,0.5,0,0.7c0.1,0.2,0.2,0.4,0.2,0.5l-0.1,0c-0.2,0.5-0.6,0.6-0.7,1.3c-0.1,0-0.3,0-0.4-0.2c-0.1-0.1-0.2-0.2-0.3-0.1
		c-0.1,0.1-0.1,0.3,0,0.5C567.9,48,568.1,48.2,568.4,48.2z"/>
	<path class="st0" d="M647.7,71.5c-2.3-0.8-4.9-1.2-7.2-1.7c-1.7-0.3-3.2-0.6-4.8-1l0.2-0.1c-3.8-2.4-11.5-3.2-15.4-4.2
		c-4.7-2.3-7.4-2.4-12.4-3.7c0-0.5,0.8-0.3,0.9-0.8c-2.4-0.2-1.1,0.8-3,1.2c-0.9-0.3-0.9-0.7-0.5-1.2c-2.3,1.4-2.9-1.8-4.9,0
		c-4.1-3.4-12.5-0.3-18.1-3.8c-1.8,0.1-3.1,0.1-4.5-0.1c-0.1-0.2-0.1-0.3-0.3-0.5c0.3-0.3,0.5-0.6,0.8-0.8c0.1-0.1,0.1-0.2,0-0.3
		c-0.1-0.1-0.2-0.1-0.2-0.1c-0.3,0.3-0.6,0.6-0.9,0.9c-0.1,0-0.1,0-0.2,0c-0.6-0.7-0.6-2.3-1.1-3.1c-0.5,0.6-0.8,0.5-1-0.6
		c-1.1,0.6-1,2.8-2.4,3c-1.4-3.2-3-1-4.2-1.6l0-0.8c0-0.3-0.2-0.5-0.3-0.5c-0.2,0-0.4,0.3-0.3,0.6l0,0.7c-0.6-0.2-0.7-1.4-1.7-1
		c-0.4,1-0.9,1.7-1.3,2.5c-0.3-0.9-1.4-1.1-0.7-2.1l-0.1,0c0.1-0.2,0.1-0.5,0.1-0.7c0.1-0.4,0.1-0.7,0.2-0.9c0.1-0.1,0-0.3-0.1-0.4
		c-0.1-0.1-0.2-0.1-0.3,0.1c-0.1,0.3-0.2,0.7-0.4,1.1c0,0.1-0.1,0.3-0.1,0.4c-0.9,0.1-1.6,0.1-1.3-1.6c-0.3,1.6-1.3,2.2-1.3,4.1
		c-2.8,0.1-1.8-5.4-4-6.3c-0.7,0.5-1,1.5-2.1,1.6c2,0.5-0.6,2.6,1.4,3.1c-2.6-0.5-6.2,0.7-9.4-0.6c-0.1,0,0.1-0.8,0.3-0.5
		c-0.2-1.4-1.1-0.1-0.6,1.1c-2.3-0.1-3.7,0-4.2,1.5c-2.9-0.7-6,0.1-9.1-1.1c0.8,1.8-0.9,1.6-1.7,1c-0.3-0.4,0.1-2.8-1.4-2.6
		c0,0.7,0.1,1.5-0.3,1.6l-0.1,0.8l-0.2-0.8c-0.7-0.1-0.7,0.5-0.3,0.5c0,0.7-1.1,0.1-1,1c-0.3-0.1-0.3-0.5-0.7-0.5l0,0.2
		c-0.3-0.6-0.6-0.8-1.1-1c-0.2-0.1-0.3,0.1-0.4,0.4c0,0.2,0.1,0.5,0.3,0.5c0.3,0.1,0.5,0.2,0.6,0.4c0.1,1-0.5,0.8-0.7,1.4
		c0,0,0-0.1-0.1-0.1c-0.6-0.3-1.2-0.1-1.7,0.1c-1.9,0.2-3-1.1-4.9-1.1c0.8,1.1,0,2.1-0.6,1.1c-1,0.6,1.2,0.7,1,1.6
		c0,0.7-0.9,0.4-1.4,0.5c-0.6-0.4-0.6-1.8-1.1-2.6c-0.4,0-0.9-0.1-1.2,0c-1.4-1.6-3.1-1.5-4.7-1.2c-1.1,0.1-1.9,0.2-2.8-0.1
		c0.1-0.2,0.1-0.3,0.3-0.5c0.2-0.3,0.2-0.9,0-1.2c-0.3-0.3-0.5-0.3-0.8,0c-0.3,0.4-0.4,0.7-0.5,1c0,0-0.1,0-0.1,0.1l-0.1-0.2
		l0.1,0.2c-0.2,0.1-0.4,0.2-0.6,0.3l-0.2,0.1c-1-1.5-1.5-1.8-2.8-2.1c0.2-0.4,0.3-0.9,0.3-1.6c-1.8-0.3-2.6-3-3.5-1
		c-1.4-1.1-1.9-2.9-3.5-1.6c-0.5-0.2-0.7-0.6-0.8-1.6c-0.1,1.9-1.6,0-1.7,0c-0.5,0.2-0.3,1.1-1.1,1.5c-0.5,0.3-1.2-0.3-1.7,0l0,1
		c0,0-1.9-0.9-2.1-1c-0.8-0.8-0.4-1.1-0.7-2.1c-0.6,1-1.2,0.1-2.1,0c1.4,2-0.7,0.7-1.3,1c-0.3-0.2-0.5-0.4-0.7-0.5
		c-0.2-0.1-0.3-0.1-0.5-0.2s-0.4,0-0.5,0.3c-0.1,0.3,0,0.6,0.1,0.7c0.2,0.1,0.4,0.2,0.6,0.2c0.3,0.1,0.6,0.2,0.6,0.5l-0.2,0.1
		c-0.3-0.1-0.3,0.2-0.3,0.5c-0.4,0.2-0.7,0.5-1,0.8l-0.2-0.5c-1,0-0.7-0.8-1.4,0l0.2,0.8l-0.6-0.2c-0.9,0.6-2.7,3.3-3.5,0
		c-0.6,0.2-0.8,0.8-0.6,2.1c-0.1,0-0.2,0-0.4,0l0,0.1c-0.4-0.1-0.7-0.1-1-0.2l-0.1,0c-0.5-0.2-0.3-1.3-0.3-2c-0.7,0-0.4,1.4-1.4,1
		c-1.3-1.1-0.3-2.3-2.1-2.6c0.7,1.1,0,0.6-0.3,1.6c-3.8-1.1-4.9-1.8-8.7-0.6l0,0.2l-0.1-0.1c-0.3,0-0.5,0-0.8-0.2
		c-0.4-0.1-0.7-0.1-1-0.2l0,0c-0.1,0-0.3,0.1-0.3,0.3c-0.8-0.3-1.8-0.4-2.4,0.7c0,0-0.1,0-0.1,0.1c-0.2-0.1-0.4-0.3-0.5-0.4
		c-0.1-0.1-0.3-0.2-0.4-0.3l-0.1-0.1l-0.1,0c-0.2,0.1-0.4,0.2-0.5,0.4c0,0.1-0.1,0.1-0.2,0.2l-0.1,0.1l0,0.1c0,0.1,0,0.3,0,0.5
		c-0.4-0.2-0.7-0.3-1-0.3s-0.6,0-0.8-0.2c-0.4-1.6-1.7-1.2-2.6-0.5c-0.4,0.2-0.9,0-1.3-0.2l-0.1-0.2c-0.1-0.2-0.3-0.3-0.4-0.2
		c-0.1,0.1-0.2,0.4-0.1,0.6l0.2,0.5L451,49c0.4,0.2,0.8,0.4,1.3,0.4c0.2,0,0.4-0.1,0.6-0.3l0,0.3c0.5,0.6,1.4,1.7,2.1,0.5l0,0
		c0.4,0.2,0.7,0.3,1,0.3c0.4,0,0.7,0,1,0.3l0.1,0l0.1,0.1l0.1,0c0.4,0,0.8,0.1,1,0.3l0,0.1l0.5,0.7c0.1,0.1,0.3,0.2,0.4,0.2
		s0.2-0.1,0.2-0.2c0.1,0.1,0.3,0.2,0.4,0.3l0.1,0c0.1,0,0.2-0.1,0.2-0.3c0-0.2-0.1-0.4-0.2-0.5c-0.1,0-0.2-0.1-0.3-0.2
		c0-0.1-0.1-0.1-0.1-0.2l0.3-0.6c0.1-0.1,0-0.3,0-0.4c-0.1-0.1-0.2-0.1-0.3,0l-0.3,0.5l-0.3-0.5c0-0.3,0.1-0.5,0-0.7
		c0.4-0.9,1.3-0.7,2-0.5c0.1,0.1,0.1,0.2,0.2,0.3l0,1.2c0,0.2,0.1,0.3,0.3,0.3c0.1,0,0.2-0.2,0.2-0.3l0-1.1c0.2,0,0.5,0,0.7,0.1
		c0.3,0,0.5,0.1,0.8,0.2l0,0.1c2.3,0.1,4,0.7,4.2,1.1c0.1,0.7,2.9,1.2,2.4-0.5c0.4,0,0.2,0.6,0.4,1l0.2-0.1l0,0.4c0,0.3,0,0.7-0.1,1
		c-0.5,0.1-1-0.2-1.6-0.4c-0.6-0.2-1.3-0.5-2-0.4c-0.3,0-0.5,0.4-0.4,0.8c0.1,0.4,0.3,0.7,0.5,0.6c0.6-0.1,1,0.2,1.6,0.4
		c0.6,0.2,1.1,0.5,1.7,0.4c0.1,0,0.2,0,0.2,0l0.1,0.1l0,0l0,0.2c0.1,0,0.2,0,0.4,0c0,0.6,0.1,0.9,0.4,1c-1.2,1.8-4.5-0.8-7.6-1.1
		c-1.4-0.2-2.6,0.6-3.8,0.4c-1.3-0.2-2.1-2-3.2-1.1l0,0c-0.1-0.1-0.2-0.1-0.3-0.2c-0.4-0.4-1-1-1.7-0.5c-0.2,0.2-0.3,0.6-0.3,1
		c0.1,0.3,0.4,0.5,0.6,0.3c0.2-0.1,0.4,0,0.7,0.4c0.2,0.1,0.4,0.3,0.5,0.4l-0.1,0.1c-1.8,0.3-7.1,0.7-8.4-1.7c0,0,0.1-0.1,0.1-0.2
		c0.7,0.6,1.5,0.8,2.2,0.8c0.3,0,0.7-0.1,1,0c0.6-0.1,1.1,0,1.6,0c0.1,0,0.2-0.1,0.2-0.3s-0.1-0.3-0.2-0.3c-0.6,0-1.1-0.1-1.7,0
		c-1.1,0-2.2,0.2-3.1-0.7l-0.1-0.1l-0.1,0.1c-0.2,0.1-0.3,0.3-0.5,0.5l0-0.3c-1,0-1.9,0-2.8,0c-0.2,1.1,0.3,1.3,0.4,2
		c-0.4-0.3-1.3-1.2-1.1,0.5c-0.4-0.7-1.4-0.8-1.8-1.5c-0.4,0.2-0.7,0.7-0.7,1.6c-0.1-1.7-2.3-0.2-2.1-2c-2.7,2.2-6.7-1.9-8.7,0.4
		c0.1,0.6,0.6,0.4,1,0.6c-0.6,1.8-1.2-0.8-2.1-0.5c-0.2-0.2-0.3-0.4-0.4-0.5c-0.1-0.1-0.3,0-0.3,0.1c-0.1,0.2,0,0.4,0.1,0.4
		c0.2,0.1,0.3,0.3,0.4,0.5l-0.2-0.1c-0.6-0.2-1.3,0.3-0.7,0.6c-2.6-0.5-10.5-1-13.6-1.2c0.4,0.7,0.4,1.3,0,2.1
		c-0.6,0.1-0.7-0.5-1.2-0.5c-0.1-0.2-0.1-0.3-0.2-0.5c0-0.1,0-0.2-0.1-0.3c0-0.2-0.2-0.3-0.3-0.2c-0.1,0-0.2,0.2-0.1,0.4
		c0,0.1,0.1,0.2,0.1,0.3c0.1,0.3,0.1,0.7,0.2,1l-0.3-0.1c-1.2-0.1-3,0.7-2.4-2.1c-1.3-0.4-1.3,1.1-1.7,2.1c-0.7,0-0.5-1.4-1.4-1.1
		c0.2,1-0.7,1.3-0.7,0.5l0,0c0,0,0,0,0-0.1c-0.2-0.3-0.2-0.5,0.1-1.1c0.1-0.4,0.2-0.9,0.2-1.4l0-0.1l-0.1-0.1c-1-1.9-2-2.6-3.1-2.3
		l-0.3,0.1l0.1,0.4c0,0.4,0,0.6,0,0.7c-0.1,0.2-0.4,0.2-0.8,0.1c-0.2,0-0.5,0.1-0.7,0.2l0-0.2c-0.8-0.3-1.8-0.4-1.8-2.1
		c-0.9,1.8-2,0.2-3.8,0.4l0.1,0.3c-0.4-0.2-0.7-0.4-1-0.4l-0.2,0l0,0c-0.1,0-0.2,0.1-0.2,0.3c0,0.2,0.1,0.4,0.3,0.4l0.2,0
		c0.3,0,0.6,0.1,0.8,0.3l-0.2,0.1c-0.9,0.2,0.9,1,0.7,2.1c0.3-0.3,0.5-0.6,1.1-0.5l0.5-0.3l-0.1,0.8c0.8-0.2,0.5,1,1.1,1.1
		c1.2-1.3,0.8-0.1,2.5,0.1l0-0.1c0.2,0.4,0.3,0.8,0.5,1l-0.2,0.1c-2.5,1-4.1,0.3-8,0.4c1.1-2.4-0.2-0.9-2.1-1.5c0-0.3,0-0.7,0-1
		l-0.1,0.1c0.1-0.2,0.2-0.5,0.2-0.7l0-0.1l-0.1-0.1c-0.6-1.4-1.6-2.1-2.5-1.8c-0.1,0.1-0.2,0.2-0.1,0.4c0,0.2,0.2,0.3,0.3,0.2
		c0.7-0.3,1.5,0.2,1.9,1.2c0,0.1-0.1,0.2-0.1,0.3c-2.8,0.2-7.2,0.1-10-0.7c-0.6-0.1-2,1.1-1.7-1c-1.4,2-2.1-0.6-3.8,0.4l0,0.2
		c-0.3-0.2-0.6-0.2-0.9-0.3l-0.2,0c-0.6-0.1-0.8-0.9-0.7-2.1c-0.9,0-1.7,0.1-1.7-1c0-0.5,0.4-0.4,0.7-0.6c-0.1-0.6-0.6-0.4-1-0.6
		l0,0.3c-0.2-0.4-0.4-0.7-0.7-1c-0.1-0.1-0.2-0.2-0.4-0.4c-0.1-0.1-0.3-0.1-0.4,0.1c-0.1,0.2-0.1,0.4,0.1,0.6
		c0.1,0.1,0.3,0.3,0.4,0.4c0.2,0.2,0.3,0.4,0.3,0.5c-0.7,0.1-1.2,0.3-1.4,1c-0.4-0.1-1.8-1.8-0.4-1.5c0-0.7-1-0.2-1.1-1.1
		c-0.7,0.3-0.7,0.8-0.3,1.6c-1,0-0.7-0.8-1.4,0c-0.1-1.1,0.3-1.7,1.1-1.5c0.1-1.6-1.7-0.2-1.4-2.1c-1.4,2.4-2.4-1.8-3.5,0.5l0,0.1
		c-0.1-0.1-0.3-0.2-0.4-0.3c-0.2-0.1-0.4-0.1-0.5,0.2c-0.1,0.2,0,0.5,0.1,0.7c0.1,0.1,0.3,0.2,0.4,0.3l0,0c0.7,1.8-0.4,1.4-1.5,1.1
		c-0.2-0.5-0.1-1,0-1.7l0-0.2l-0.1-0.1c-0.1-0.3-0.3-0.5-0.5-0.7l-0.1,0l-0.1,0c-0.2,0-0.5,0-0.7,0.1c-0.3,0-0.6,0.1-0.9,0l0,0
		c-0.1,0-0.2,0.2-0.2,0.3c0,0.2,0.1,0.3,0.3,0.3c0.4,0,0.7,0,1,0c0.2,0,0.4,0,0.6-0.1c0.1,0.1,0.2,0.2,0.3,0.3
		c-0.2,0.9-0.1,1.6,0.1,2.3l-0.3-0.1c-0.7,0-0.4,1.4-1.4,1l0,0c-0.5-0.3-1.3-0.7-1.8-0.3c-0.2,0.1-0.4,0.4-0.5,0.9l-0.1-0.1
		c-0.1,0-0.2,0-0.4,0l0,0l0,0c-0.3-1.1-1.1-1.8-2-1.5c-0.3,0.1-0.4,0.5-0.4,0.9c0.1,0.4,0.3,0.7,0.6,0.6s0.5,0,0.6,0.2
		c-0.9,1.6-3.4,0.1-4.3,0.7c-0.4-0.2-0.7-0.5-1.1-0.5l0,0c-0.9-1.7-4.6,1-4.5-2.1c-2.3,0.2-3.9,0.3-6.6-0.6l0.2,0.8l-0.6-0.2
		c-0.3-0.1-0.3,0.2-0.3,0.4c-0.3,0.1-0.6,0.1-0.8-0.2c-0.2-0.1-0.4,0.1-0.4,0.3c0,0.3,0.1,0.5,0.2,0.6c0.3,0.1,0.6,0.2,0.8,0.3
		c0.2,0,0.4-0.1,0.6-0.2l0,0.3c0,0.5,0,1,0,1.5c-1.3-1-1.5-0.9-3.1-0.5c0,0.7,0,1.4,0,2.1c0.8,0.3,2.1,0,2.1,1.5
		c1-1.9,2.8-1.4,3.5,0.5c-4,1.1-8.4-0.7-12.9-2.3c0,1.4-1.6,1.9-2.4,1.5c-0.1,0-0.5-1-0.4-1c-1.3,0-2.6,0.4-4.1,0.4
		c0.4,0-0.7,1.1-1.7,0.5c-2.3-1.4-4.8-2.6-7-1.7c-1.3-3.4-4.1-1.2-7.7-0.6l0,0.2l0,0c-0.7,0.1-1.3-0.2-2-0.4
		c-0.7-0.3-1.6-0.6-2.4-0.5c-0.1,0-0.2,0.2-0.2,0.4c0,0.2,0.2,0.4,0.3,0.3c0.8-0.1,1.5,0.1,2.3,0.4c0.6,0.2,1.2,0.5,1.9,0.4l0.1,0
		c0.1,0.2,0.2,0.3,0.2,0.6c-1,0.9-2.7-0.6-4.1-0.6c0,0.5,0,1,0,1.5c-1.2,0.1-1.6-1-2.8-1.1l0.1,0.2c-0.2-0.1-0.4-0.2-0.5-0.3
		c-0.2-0.1-0.3,0.1-0.3,0.3c0,0.1,0,0.3,0.1,0.4c-1.2,0.1,1.5,1.8-0.3,1.6L297,53c-0.3,0-0.5,0-0.6,0.1c-0.2,0.1-0.3,0.4-0.2,0.6
		c0,0.1,0.1,0.2,0.1,0.3c-2.2,0.9-4,1-6.3-0.2c0.4,0.7,0.4,1.3,0,2.1c-1.7-0.9-2.6-2.7-3.8-1.1c0.5-1.3,0.8-2.1,0.2-3.6
		c-1.1-0.5-1.1,0.8-1.7,1c-0.8-0.1-0.3-1.4-0.1-1.9c0.1,0,0.3-0.1,0.4-0.1c0.2,0,0.4-0.2,0.4-0.5c0-0.3-0.1-0.6-0.3-0.6
		s-0.5,0.1-0.8,0.1l0-0.2c-0.3-0.4-1.7-0.4-2.5-1.6l-0.1-0.3c-0.3-0.9-1.2-1-1.9-0.6l-0.1,0l0,0.1c-0.1,0.3-0.2,0.6-0.3,1l0,0.1
		l0.5,0.8c0.1,0.2,0.3,0.4,0.3,0.7l-0.2-0.1c-0.3,0.8,0.8,1.5-0.6,2.1c-0.1-0.1-0.2-0.1-0.3-0.1c-0.1,0-0.2,0-0.3,0
		c-0.2,0-0.4,0.1-0.6,0.2l-0.1,0c-0.2,0-0.3,0.2-0.4,0.5l-0.8-0.1c0-1.7-1.1-1.9-1.1-3.5c-1.4,1.3-0.3,3.6-2.8,3
		c-0.8-0.2,0.5-1.6,0.6-2.1c-0.7-0.6-0.9-1.3,0-2.1c0.1-1.1-1.2-0.3-1.8-0.5c1-1.9-2-3.2-1.4-4.1c0-1.1-0.8,0.3-1.5,0.1
		c-0.8-1-1.8-1.1-2.7-1.3c-0.3,0-0.6-0.1-0.8-0.2c-0.2,0-0.4,0.2-0.4,0.5c0,0.3,0.1,0.6,0.3,0.6c0.3,0.1,0.6,0.1,0.8,0.2
		c0.8,0.2,1.7,0.3,2.3,1.1l-0.1,0c0.3,0.7,1.4,2.8,0.7,3.2l0.1,0.3c-0.4-0.3-0.7-0.5-1-0.4s-0.4,0.5-0.5,0.9c-0.4,0.1-1,0.2-1.2-0.1
		c-0.1-0.1-0.1-0.3-0.1-0.5c0-0.2-0.1-0.3-0.2-0.3s-0.2,0.1-0.2,0.3c0,0.5,0,0.8,0.2,1.1c0.2,0.3,0.5,0.3,0.7,0.4s0.6-0.1,0.9-0.1
		l0.3-0.1l0-0.2c0-0.3,0.1-0.5,0.2-0.6c0.2-0.1,0.3-0.1,0.5,0c0,0.3,0.1,0.6,0,0.9c0.5,0,0.9,0.1,1-0.5c-0.2,1.1,1.2,1.7,1.1,4.2
		c-2-0.6-2.5-2.9-4.2-2.6c-0.2,0.5-0.4,1.2-0.3,2.1c-0.4-0.3-1.3-1.2-1.1,0.5c-1.1-0.2-1.7-1.2-2.4-2.1c-1.3,1.4-1.7,0.4-3.5,0
		c2,2.2-3.8,4.4-5.2,2.1c-0.2-0.3-0.2-0.7-0.5-0.9l-0.1-0.1l-0.1,0c-0.3,0.1-0.5,0.3-0.7,0.4c-0.1,0.1-0.2,0.1-0.2,0.2l-0.1,0
		c-0.3,0.1-0.6,0-0.9-0.2c-0.6-0.1-1.2-0.4-1.8,0.2c-0.1,0.1-0.2,0.4-0.1,0.6c0.1,0.2,0.3,0.3,0.4,0.1c0.4-0.4,0.9-0.2,1.3-0.1
		c0.3,0.1,0.6,0.1,0.8,0.2c0.1,0,0.2,0,0.3,0c0.1,0,0.2-0.1,0.2-0.2c0.1-0.1,0.2-0.1,0.2-0.2c0.1-0.1,0.3-0.2,0.5-0.3
		c0.2,0.2,0.3,0.5,0.3,0.8l-0.1,0c0,0.7-1,0.6-1,0l-0.2,0.3l-0.2,0.3c-2,0.4-5.1,2-5.9-1.1c-0.7,0.1-0.2,1.8-0.6,2.1
		c-0.8-1.8-3.1-2.9-4.2-2.6c-0.1,0.3,0.5,0.6,0.7,0.5c-3,2.8-7.2,1-11.9,0.9c-1.4,3.1-3.6-2.4-6.3-0.1c-0.4-0.3-0.4-1.2-1.1-1.1
		c0,0.4,0.2,0.5,0.3,0.5c-3.7,0.2-9.6,0.8-15.4-0.7c-1.7,3.1-5.4-1.4-8,1c-0.4-0.2-0.9-1-0.4-1c-3.3,0.3-7.1-0.3-10.8-1.1
		c-0.1,0.8,0.3,0.9,0.4,1.5c-3.4-1.3-6.9-0.9-9.4-1.1l0,0.4c-0.8-0.7-2-0.6-2.8,0.1c-0.8-0.4-3.6-0.8-4.9,0.5
		c-0.3,1.7,0.3,1.9,0.8,2.6c-1.3,0.8-3.3,1.5-4.8,1c-0.5-0.1-0.6-0.9-1.1-1.1c-2.2-0.3-7.2,1.6-10.1,0.9c-0.4-0.1-0.2-0.6-0.4-1
		c-4.3,2.1-10.1,0.3-14.6,1.8l0,0.1c-0.1,0-0.1-0.1-0.2-0.1c-0.2,0-0.4,0.1-0.5,0.2l0-0.1c-0.5-0.5-3-0.6-4.4,0.2l0,0
		c-0.5,0.1-1,0.1-1.4,0.2c-0.4,0.1-0.9,0.1-1.3,0.2l0,0c-0.6-0.2-1.3,0-1.8,0.3l-0.2,0.1l0,0c-1.4,0.2-1.7,0.2-3.1-0.6
		c-1.7,2.7-3.5,0.7-6.6,1.5l0.1,0.2c-0.7-0.4-1.5-0.3-2.3-0.2c-0.4,0.1-0.8,0.1-1.2,0.1c-0.1,0-0.1,0.1-0.2,0.1
		c-1.1-0.5-1.8-1.7-2.7-0.4c-0.9-2.8-2.4-1.4-4.9-1.6c0.1,1.9,0.4,1.4,0.1,3.1c-1.4-0.6-2-1.5-2.7,0.4c-0.4,0.1-0.8,0-1.1,0
		c-0.8-0.2-0.8-1.4-0.7-2.6c-0.7,0.2-0.7,1.4-1,2c0.1-1.6-2.4-0.2-2.8-0.6c0,0-0.6-1-0.4-1c-0.8,0-1.8,2.8-3.1,1
		c-0.7,1.6-2.3,1.6-4.2,1.5c1,1.5-1.2,0.6-1.4,1.9c-0.2-0.1-0.3-0.2-0.5-0.3l0.1-0.1c-1.8-1.5-3.3-0.4-4.7,0.9c-0.1,0-0.1,0-0.2,0.1
		c-1-1.4-3.3-0.5-4.1,1c-2.1-1.2-2.8,0.4-5.6-0.1c0,0.4,0,0.9,0,1.3c-2.3,0.8-4.8,1.6-7.2,2.2c-3.2,0.9-6.5,1.8-9.4,3.2
		c-0.2,0.1-0.3,0.5-0.2,0.9c0.1,0.3,0.3,0.5,0.4,0.4c0.1,0,0.1,0,0.2,0c2.9-1.4,6-2.2,9.2-3.1c2.4-0.6,4.9-1.4,7.4-2.2l0,0
		c1.5,0.3,2.3-0.3,3.5-0.5c-1.4,4.1-5.8,2.3-9,3c-0.2,0-0.5,1-0.6,1.1c-1.8,0.6-4.2,0.3-5.6,0.9c-0.3,0.2-1.4,1.5-2.4,0.4
		c-0.4,1.9-1.4-0.3-1.7,1.5l0.1,0c-0.4,0.3-0.9,0.5-1.4,0.7c-0.4,0.2-0.7,0.4-1.1,0.5c-0.1,0.1-0.2,0.4-0.1,0.6
		c0.1,0.2,0.2,0.3,0.3,0.3l0.1,0c0.4-0.2,0.7-0.4,1.1-0.5c0.5-0.3,1-0.5,1.5-0.8l0,0.2c1.5-0.2,2.4,1,4.6,0.1c0.4-0.2,0.9-1,1-1
		c1.4-0.3,3.5,0.8,4.9-0.5c0.4,0.1,0.3,0.9,0.4,1.5c0.5-0.5,0.7-1.4,1-2c0.9,0.5,2,0.9,2.4-0.4c0.4,0.1,0.3,0.9,0.4,1.5
		c-1.5,1-0.2,1.7-0.2,3.6c1.6-0.1,1.9-0.7,3.5-1c-1.3-1.2-0.5-2.8-1.5-3.6c0.9-1,1.9-1.9,3.8-1.4l0.2-1.2c0.2,0.1,0.4,0.3,0.5,0.3
		c0.1,0.1,0.2,0.1,0.3,0.2c0.2,0.3,0.5,0.3,0.6,0c0.1-0.1,0.3-0.1,0.4-0.2c0,1.6,0.3,0.4,0.8,0.5c0.1,0.2,0.1,0.4,0.1,0.6
		c-1.1,0,0.3,1.5-0.5,2.1l0.1,0l0,0c-0.5-0.1-1.2-0.5-1.5,0.6c0,0.2,0,0.4,0.2,0.4l0.1,0c0.1,0,0.2-0.1,0.2-0.2
		c0.1-0.4,0.3-0.4,1-0.1c0.1,0,0.3,0,0.4,0.1l-0.3,0.3c-0.1,1.1,1.2,0.3,1.8,0.5l0.1,0c0,0.1-0.1,0.3-0.1,0.4c0,0.1,0,0.1-0.1,0.2
		c-3.6,2.2-6.7,0.4-9.9,2.3c0.1,0.4,0.3,0.5,0.4,1l0.1,0c-0.2,0.1-0.5,0.3-0.8,0.2c-0.4,0.1-0.8,0.2-1.2,0.5
		c-0.1,0.1-0.2,0.4-0.1,0.7c0.1,0.1,0.2,0.2,0.3,0.2c0.1,0,0.1,0,0.2-0.1c0.3-0.3,0.6-0.4,1-0.4c0.3-0.1,0.7-0.3,1-0.4l0,0.2
		c0.1,0.8,0.4-0.2,1,0c-0.1,0.5-0.2,0.9-0.6,1.1c-0.1,1.4,1.3-1.3,1.1,1.1c0.4-1-0.2-1.8,1-2.5c0.6,0.1-0.3,1.6,0.7,2.1
		c0.8-0.3,1.5-1.9,2.4-0.4l0-0.2c0.1,0.3,0.3,0.5,0.2,0.8c-0.2,0.6-1.2,0-1.3,0.9l0,0.1c-0.1,0-0.1-0.1-0.2-0.1l-0.4,0
		c-0.3,0-0.6,0-0.8,0c-0.2,0.1-0.3,0.4-0.3,0.7c0.1,0.3,0.2,0.4,0.4,0.4c0,0,0,0,0.1,0c0.2-0.1,0.4-0.1,0.6,0l0.4,0l0,0
		c0,0,0,0,0.1,0l0.1,0c-0.2,1.9-0.9,0-2,0.5c0.3,1.2,0.3,1.4,0,2.6c-0.8,0.2-0.5-1-1.1-1.1l0,0c-0.1-0.3-0.2-0.6-0.4-0.9
		c-0.2-0.2-0.3-0.5-0.2-0.7c0.2-0.4,0.6-0.7,0.9-0.9c-0.7-0.7-1.5-1.2-2.5-1.6l0.1,0.1c-0.5,0.1-0.8,0.3-1.1,0.6
		c-0.3,0.3-0.5,0.6-0.8,0.5c-0.2,0-0.3,0.2-0.2,0.4c0,0.2,0.2,0.4,0.3,0.4l0,0c0.5-0.1,0.8-0.3,1.1-0.7c0.3-0.3,0.5-0.5,0.8-0.5
		l0,0.1c0.1,0.6-0.1,0.9-0.4,1.1c0.1,0.6,0.6,0.4,1,0.6l0.1,0c0.1,0.5,0.3,0.9,0.5,1.2s0.2,0.6,0.3,0.9l-0.2-0.1
		c-1.4,0.6-4.7-0.6-5.5,3c-0.8-0.3,0.8-3.1-1.1-2.6c-0.1-0.1-0.2-0.3-0.3-0.4c-0.3-0.4-0.5-0.7-0.5-1.1c0-0.2,0.1-0.4,0.2-0.6
		c0.1-0.1,0.1-0.3,0-0.5s-0.3-0.2-0.3-0.1c-0.3,0.3-0.4,0.7-0.5,1.1c0,0.6,0.3,1.1,0.7,1.6c0.1,0.2,0.2,0.3,0.3,0.5l-0.1-0.1
		c-0.6-0.2-0.7-1.4-1.7-1c0.4,0.7,0.4,1.3,0,2.1l-0.2,0.1c-0.3-0.4-0.5-0.7-0.8-1c-0.3-0.2-0.4-0.4-0.6-0.7l0.1,0.1
		c1,0,0.3-1,0.8-1.9c0,0,0.1,0,0.1-0.1l0,0l0.1-0.1l-0.1,0l0-0.2c0.2-1.1-0.2-1.9-0.4-2.6c-0.2-0.5-0.3-0.9-0.4-1.4l0-0.2l-0.5-0.1
		c-1.1-0.5-2.1-0.8-3.3,0.2l-0.1,0.1l0,0.1c-0.1,0.3-0.1,0.6-0.2,0.9l0,0.2c0,0.1,0.1,0.2,0.2,0.3l0,0l0,0c0,0,0,0.1,0.1,0.1
		c0,0,0,0,0-0.1c0.3,0.2,0.6,0.2,0.9,0.3l0.2,0l0,0c0.1,0,0.2-0.1,0.2-0.3c0-0.2-0.1-0.3-0.2-0.3l-0.2,0c-0.3,0-0.5,0-0.8-0.2
		c0-0.2,0-0.4,0-0.5c0.9-0.7,1.7-0.4,2.9,0l0.1,0c0.1,0.5,0.2,0.9,0.4,1.3c0.2,0.6,0.5,1.2,0.3,1.9c-1.6-0.1-1.4-0.2-2.6-0.6
		c0.4,0.6,0.3,1-0.4,1c0,0.5,1.5,1.1,0.4,1.5c0.2,0.7,1.1-0.4,1.4,1.1l0-0.3c0.2,0.6,0.6,0.9,0.9,1.2s0.4,0.4,0.5,0.6
		c-0.1,0.1-0.2,0.1-0.3,0.2c-0.5,0.3-1.2,0.6-1.6,1.5c-0.3,0-0.6,0-0.9-0.1c-0.2-1.1,0.4-1,1-1c-0.4-2.1-2.6,0.9-3.1-1.6
		c-1,1.9-0.3,1.4-1.7,3.1c-0.9,0.1,0.2-2.4-1-1.6c-0.1-1.3-0.1-2.5,0.6-2.6c-0.9-1.1-1.9-0.1-2.5-0.1c-0.1-2,1.8-1.1,2.1-2.6
		c-0.8-0.8-0.8-1.3,0-2.1l-0.1-0.1c0.2-0.1,0.4-0.3,0.5-0.4l0.3-0.2c0.3-0.2,0.3-0.6,0.3-1c-0.2-0.4-0.4-0.5-0.6-0.3l0.1,0.2
		c-0.1,0.1-0.3,0.2-0.4,0.3l0,0c-0.5,0-1,0-1.4,0l-0.5,0.2l0.1-0.8c-0.4-0.4-0.5-0.9-0.8-1.6c-0.9-0.7-1.4,1.5-1.7,0
		c-0.9,0.5-0.8,2.5-1.7,3.1c-0.2,0-0.5,0-0.7,0l0,0c-1.7-1.5-3.9-1.1-5.5,0.2l-0.2,0.2l0.1,0.4c0.1,0.5,0.1,0.9,0.2,1.2l-0.1,0
		c0,0.6-0.7,0.4-0.6,1.1l0,0c-0.5,0.3-0.9,0.4-1.4,0.6c-0.6,0.2-1.3,0.4-1.8,1l0,0.1c-0.5,0.1-0.9,0.3-1.3,0.6l0-0.2
		c-0.3-0.9-1-1.4-2.1-1c0.9,2.9-0.6,2.5-1.7,3.6l0,0c-0.1,0-0.1-0.1-0.2-0.1c-0.2,0-0.4,0.1-0.5,0.2l0-0.1c-0.1,0-0.2,0-0.4,0
		c0-0.9,0.3-1.3,0.7-1.6c0.2-1.2-1.9,1.2-2.1-0.5c0.1,1.2,1,2.3-0.6,3.6l0.1,0.3c-0.6-0.3-1.2-0.3-1.7,0.2L37.1,90
		C37,90.2,37,90.5,37,90.8l0,0.1l0.1,0.1c0.1,0.3,0.3,0.5,0.5,0.8c0.1,0.1,0.1,0.1,0.2,0.1s0.2-0.1,0.2-0.2c0.1-0.2,0.1-0.5-0.1-0.6
		c-0.2-0.2-0.3-0.4-0.3-0.5c0-0.1,0-0.2,0.1-0.3c0.3-0.3,0.6-0.3,0.9-0.1c2.1,1.3,2,1.1,3.8,0.1c-0.1-0.6-0.5-0.8-0.7-1.4
		c0,0,0,0,0.1,0c0.4,0.3,0.7,0.5,1.3,0.5c0,0.9,0.1,1.7,0,2.6c0.8-0.1,1.3,0.1,1.8,0.5l0,0c0.3,0.4,0.4,0.8,0.6,1.2
		c-0.7,0.8-1.9,0.2-1.9-1.2c0,2.6-1.8-1.4-4.9,0.5c0.3,0.9,0.6,1.8,1.8,1.5c0,0.2,0,0.3,0,0.5l0,0.2l0,0c-0.6-0.3-1.4-0.8-2.1-0.6
		l0-0.1c-0.1-0.4,0-0.8-0.2-1.2L38.1,93l-0.2-0.1c-0.2-0.2-0.5-0.3-0.7-0.5c-0.3-0.1-0.5-0.3-0.9-0.7L36,91.6l-0.3,0.2
		c-0.3,0.3-0.6,0.6-0.8,0.8c-0.1,0.1-0.2,0.2-0.3,0.3c-0.3-0.4-0.6-0.9-0.6-1.7c-0.1-0.4-0.2-0.6-0.5-0.6c-0.3,0-0.4,0.4-0.4,0.8
		c0,0.9,0.4,1.8,1,2.7c0,0.1,0,0.1,0,0.2c0.3,1.5,1.1,2.3,1.9,2.8c0,0.1,0,0.2,0,0.3c-0.1,0.2-0.2,0.4-0.3,0.7c0,0.1,0,0.3,0.1,0.4
		l0.1,0c0.1,0,0.1-0.1,0.2-0.2c0.1-0.3,0.2-0.5,0.4-0.7l0,0.3c0.5,0,0.9,0.1,1.4,0c-0.1-0.8,0.2-0.9,0.3-1.5
		c0.1-0.2,0.2-0.3,0.2-0.5c0.1-0.1,0.1-0.3,0.1-0.5c0.6-0.1,1.1,0.3,1.7,0.5c0.1,0.2,0.2,0.3,0.4,0.3c-0.8,1.5-1.3,1.6-0.7,4.2
		c-1.1-1.8-0.9,0-1.7,1c-0.6-0.2,0-2.4-1.4-1.6c0.3,0.4,1.4,1.6,0.1,1.5c-0.1-0.1-0.1-0.2-0.2-0.2l-0.1-0.1l-0.1,0
		c-0.4-0.1-0.7-0.1-1,0l-0.1,0.1l-0.1,0.3l-0.7,0c0.2-0.4,0.3-0.8,0.3-1.5c-1.1,0.5-1.3,2.1-2,3.1c-0.7,0-0.3-1.7-1-1.6
		c0-0.6,0.6-0.5,1.1-0.5c-0.6-1.3-1.9-1.6-1.1-3.6c-0.7,1.8-1.5,0.7-2,2.1c-1.1,0.6-0.3-1.7-1.4-1.1c0,0.5,0,1,0,1.5
		c-0.3-0.1-0.3-0.5-0.7-0.5c0-1.4,0.9-1.5,1.2-2.3c1.1,0,1.7-0.9,2.4-1.8l0.2-0.3c0.2,0,0.3,0.1,0.5,0.2c0.2,0.1,0.4,0,0.4-0.2
		c0.1-0.2,0-0.5-0.1-0.6c-0.2-0.1-0.5-0.3-0.8-0.4l-0.2,0l-0.4,0.6c-0.7,1.1-1.3,1.7-2.3,1.5l0-0.3c-0.4-0.1-0.2-0.5,0-0.5
		c-0.9-0.6-2,0.8-3.2,0.5c-0.3-0.1-2.7-2.2-3.1,0.5l0,0.1L22,96l-0.2,0c-0.3,0-0.6,0-0.7-0.1c-0.2-0.2-0.4-0.1-0.5,0.1s0,0.6,0,0.7
		c0.3,0.3,0.6,0.3,1,0.4l0,0l0,0c1.9,2.7,1.8,2.2,3.5,5.2c1.5-0.1,3.1-0.1,3.5,1.5c-0.2,0-0.3,0-0.5,0.1c-0.1,0-0.2,0-0.3,0.1
		l0.1-0.1c-0.6-2.1-0.9,0.8-2.1-0.5c-0.5,1.1,0.3,1-0.3,2.1c-2.1-0.3-3.5-0.5-5.2,0.5c-0.3,0-0.5,0-0.8-0.1c-0.5,0-1,0-1.4-0.2
		c-0.3-0.1-0.6,0.1-0.7,0.6c-0.1,0.4,0.1,0.9,0.4,1c0.6,0.2,1.2,0.3,1.8,0.3c0.2,0,0.5,0,0.7,0c0,0.3,0,0.7,0,1
		c2.7-0.5,4.3,0.6,6.3,1.6c-1,1.7-1.7,0.7-1.7,2.2c-0.4,0-0.8,0-1.1,0c-1-0.1-2.1,0-3.1,0.5c-1.4-0.7-2.9-1.2-4.7-1.5
		c-0.3,0-0.5,0.3-0.5,0.6c0,0.4,0.1,0.7,0.4,0.8c1.7,0.3,3.1,0.8,4.4,1.4c0.1,0.6,0.6,0.8,0.9,1c0.1,0,0.3,0.1,0.3,0.2
		c0,0.4,0.2,0.7,0.4,0.7l0,0c0.2,0,0.3-0.1,0.3-0.3l1.4,0c0.1,0,0.2-0.2,0.2-0.3c0-0.2-0.1-0.3-0.3-0.3l-1.3,0
		c-0.1-0.8-0.6-1-0.9-1.2c0.7-0.3,1.4-0.3,2.2-0.3c0.5,0,1,0,1.5,0l0,0.1c0.1,0.6,0.6,0.4,1,0.6c0.5,1.9-1.5,0.1-1,2
		c1.2,0.2,1.8,0,2.1,0.5c-2.1,0.7-2.8,0.7-5.2-0.5l-0.2,0.3l-0.2,0.3c-0.5,0-1,0-1.4,0l0,0.3c-0.4-0.4-0.9-0.4-1.4-0.4
		c-0.4,0.1-0.7,0.1-0.8-0.2c-0.2-0.2-0.5,0-0.6,0.3c-0.1,0.3,0,0.7,0.2,0.9c0.5,0.3,0.9,0.3,1.3,0.3c0.3,0,0.5-0.1,0.6,0
		c0.1,0.5-0.1,0.8-0.3,0.9c0,0.3,2.3,0.1,1,1.6c1,1,2.4-0.7,3.2,1.1c0.3,1.1-1.8-0.8-0.7,0.5c-0.1,0.8-0.3,0-0.7,0l0,0.2
		c-0.2-0.3-0.3-0.5-0.6-0.6c-0.1,0-0.3,0-0.5,0.3c-0.1,0.2-0.1,0.5,0,0.7c0.1,0.1,0.2,0.1,0.4,0c-0.1,0.7-0.5,1-1.3,0.8
		c-0.3,1.7,1.2,0.7,1.1,2.1l0.1-0.1l0,0c0.2,0.5,0.5,1,0.9,1.3c0,0.1,0.1,0.2,0.1,0.3c-0.1,0.1-0.2,0.2-0.4,0.2
		c-0.1,0-0.2,0.1-0.3,0.1c-0.2,0.1-0.3,0.4-0.2,0.7c0.1,0.2,0.3,0.4,0.4,0.4l0.1,0c0.1,0,0.2-0.1,0.2-0.1c0.2-0.1,0.4-0.2,0.6-0.3
		l0.1,0.1l0,0l0.2,0c0.2,0,0.4-0.1,0.7-0.2l0,0.1c0.4,0,0.7,0,1,0c0.5,1.9-0.8,1-0.6,2.5c-0.3,0.1-0.6,0.1-0.9-0.1s-0.7-0.3-1.2-0.1
		l0-0.2c-0.8,0.4-2.3-0.6-1.5-1c-0.5-0.7-1-0.4-1.6-0.1c-0.1-0.3-0.1-0.6,0-0.8l0-0.2l-0.1-0.1c-0.2-0.3-0.6-0.4-1.3-0.4
		c-0.1,0-0.2,0.2-0.2,0.4c0,0.2,0.1,0.3,0.3,0.3c0.4-0.1,0.7,0,0.8,0.2c0,0.4,0.1,1,0.3,1.5l-0.3-0.1c-1.2-1.2-3.1,0-3.1,2
		c-0.7,0-1.4,0-2.1,0l0.1,0.3c-0.2-0.1-0.5,0-0.7,0c-0.1,0-0.2,0.1-0.3,0.1c-0.2,0-0.3,0.2-0.3,0.5c0,0.2,0.2,0.4,0.3,0.4l0,0
		c0.1,0,0.3,0,0.4-0.1c0.1,0,0.1,0,0.2,0c0.9,2.1,2.7,1,4.1,1.5c-1.6,2.9,6.2,3.6,3.2,4.7c1.7,0.9,3.8,0.9,5.6,1.6
		c0,1.6-2.3,1.2-2.8,0.5l0,0.3c-0.2-0.5-0.5-0.8-0.7-0.9c-0.2-0.1-0.3,0.1-0.4,0.3c0,0.2,0.1,0.5,0.2,0.5c0.2,0.1,0.4,0.2,0.4,0.4
		l-0.1-0.1c0,0.5,0,1,0,1.4c-0.4,0.7-0.7,1.4-0.7,2.2c-0.1,0-0.2,0-0.4-0.1c-0.2,0-0.3-0.1-0.5-0.1c-0.2-0.1-0.4-0.2-0.6-0.2
		c-0.8-0.3,0.4-0.8-0.4-1.5c-0.6,0-1.1,0-1.7,0l0,0c-0.2-0.4-0.3-0.9-0.6-1.5c-0.1-0.3-0.2-0.5-0.1-0.8c-0.1-0.3-0.3-0.5-0.4-0.4
		c-0.2,0.1-0.3,0.3-0.3,0.6c0,0.2,0.1,0.5,0.1,0.7c-0.2,0.1-0.5,0.2-0.7,0.4l-0.1,0.1l0,0.2c0,0.4,0,0.7-0.1,1.1
		c0,0.2,0.1,0.5,0.3,0.5l0,0c0.2,0,0.3-0.2,0.3-0.4c0-0.3,0-0.5,0.1-0.8c0.1-0.1,0.3-0.2,0.5-0.2c0.2,0.4,0.3,0.8,0.4,1.1l0,0.1l0,0
		c0,0.5,0,1,0,1.5c0.9,0.6,1.8,1.1,3.2,1.1l-0.1-0.3c0.2-0.1,0.4,0,0.6,0c0.2,0,0.4,0.1,0.6,0.1c0.1,0,0.2,0,0.3-0.1l0.3-0.1l0-0.4
		c0-0.8,0.2-1.5,0.7-2.2l0.1,0.2c2.1-0.4,2.6,1.7,4.6,1.6c0,0.3,0,0.5,0,0.8c-0.2,0.1-0.3,0.2-0.5,0.2c0,0,0,0-0.1,0
		c-0.1,0-0.2,0.1-0.2,0.3c0,0.2,0.1,0.3,0.2,0.3c0,0,0,0,0.1,0c0.3,0,0.6-0.2,0.9-0.4l-0.1,0.3c0.1,0,0.2,0,0.4,0
		c-0.4,2.1-3,1.3-4.1,3.5c0.1,3.1,2.9,3.7,1.8,6.7c2.1,0.6,1.5-0.6,3.5-0.5l0.1,0c-0.3,1.1-1,1.5-1.7,1.9c-0.1,0.1-0.2,0.3-0.1,0.5
		c0.1,0.2,0.2,0.3,0.3,0.3l0.1,0c0.8-0.3,1.6-1,2-2.3c0.2-0.2,0.5-0.4,0.8-0.3l0,0.1c0,0.1,0.1,0.2,0.2,0.3
		c-0.1,0.2-0.1,0.5-0.2,0.7c-1.3,1.2-0.7,4,0.7,4.5c0.1,0.2,0.1,0.5,0,0.7c0,0.3,0,0.7,0.3,0.7l0.1,0c0.2,0,0.4-0.2,0.4-0.5
		c0.1-0.7,0-1.4-0.2-1.8l0-0.1l0.3,0c0.2-1.4-0.3-1.8-0.4-2.7c0-0.1,0-0.2,0.1-0.3c0.1,0,0.1,0,0.2,0c0.2,0.3,0.4,0.4,0.6,0.5
		c0.4,0.1,0.6,0.2,0.6,0.6c0,0.1,0.1,0.2,0.2,0.2c0,0,0,0,0.1,0c0.1-0.1,0.2-0.2,0.1-0.4c-0.1-0.7-0.6-0.8-0.9-1.1
		c-0.2-0.1-0.4-0.2-0.5-0.3l0.1-0.1l0,0c0.2,0,0.3-0.3,0.3-0.7c0-0.1,0-0.1,0-0.2c0.1,0,0.2,0.1,0.3,0c0.8-0.2,1.4-0.3,2.1-0.1
		c-0.1,0.3-0.4,0.3-0.6,0.4c0.7,1,0.6,0.4,0.3,2c1.6,1,3.9,0.5,5.9,1.1c0.6,0.1,0.6,1.3,1,1.6c2.3,1.2,5.2-0.1,6.2,0.6
		c0.5,0.3,0.2,1.8,0.7,1l0-0.1c0.1,0.3,0.1,0.6,0.2,1c0.1,0.9,0.3,2.1,1.3,2.4l0,0.3c0.1,0,0.2,0,0.4,0c-0.3,2.1-1.5,0.1-2.8,0.5
		c0,0.9-0.5,1.1-0.3,2.1c0.5,0,0.9,0.1,1.3,0c0,0.3,0,0.6-0.1,0.9c0,0.2,0,0.3,0.2,0.4l0.1,0c0.1,0,0.2-0.1,0.2-0.2
		c0.1-0.4,0.1-0.8,0.2-1.2c0.4,0.4,0.9,0.7,1.8,0.5c0.1,1.3-0.1,2.2-1,2c0.2,0.7,0.8,1,1.4,1.1c0,0.1,0,0.1,0,0.2l0,0
		c0,0.4,0.1,0.6,0,0.9l0.1,0.2l0.2,0.1c0.3,0.2,0.5,0.3,0.7,0.4c0.1,0,0.3,0.1,0.4,0.1c0.1,0.2,0.1,0.5,0.1,0.8
		c-0.1,0.2-0.3,0.5-0.5,0.8c-0.1,0.2-0.2,0.4-0.3,0.5c-0.1,0.2-0.1,0.6,0,0.8c0.1,0.1,0.2,0.1,0.3,0.1c0.1,0,0.2-0.1,0.3-0.2
		c0.1-0.2,0.2-0.4,0.3-0.5c0.3-0.5,0.5-0.9,0.6-1.2l0-0.2l0-0.2c-0.1-0.4-0.1-0.9-0.2-1.2l0-0.1l-0.1-0.1c-0.3-0.3-0.5-0.4-0.8-0.5
		c-0.1,0-0.3-0.1-0.4-0.1c0-0.1,0-0.2,0-0.3c0-0.1,0-0.2-0.1-0.3l0,0c2.8-0.6,0.5-4.6,1.7-5.1c0.1-1.6-1.6-0.4-1.8-1.5l-0.1,0
		c0.1-0.2,0.3-0.3,0.5-0.5c2.4,0.1,3.6,1.8,6.2,2.6c-0.4,1.2-1.6,1-2.7,1c0.2,1.3,0.4,3.3,1.5,4.7c0,0.3-0.2,0.5-0.2,0.8
		c-0.2,0.1-0.3,0.2-0.5,0.2l-0.1,0c-0.1,0-0.2,0.2-0.2,0.3c0,0.2,0.2,0.3,0.3,0.3c0.4,0,0.6-0.2,0.8-0.2l0,0.2
		c-0.4,1.1-0.4,2.5-1.3,2.5c0.2,1.6,1.4,1.8,1.5,3.6c0.3-0.1,0.3-0.5,0.7-0.6l-0.1-0.2c0.4,0.2,0.6,0.4,1,0.4c0.4,0,0.8-0.1,1.2-0.4
		l0,0.2c1.8,0.4,2.6,2.3,4.8,2.1c0,0.3,0,0.7-0.1,1c-0.8-0.2-0.8,0.7-1.6,0.5c0.1,0.7,1,0.2,1.1,1.1l0.1,0c0,0.2-0.1,0.5-0.1,0.7
		c0,0.1,0.1,0.2,0.1,0.3c-0.7-0.3-0.9,0.3-1.4,0.5l-0.1,0.1l0,0c-0.3-0.3-0.5-0.5-0.8-0.7c-0.2-0.1-0.4-0.2-0.5-0.3l0,0
		c-1.1-1.6-2.9-0.3-3.5,0c0.5,2.1,2.3,2.1,3.1,1.6c0.2,0.1,0.4,0.2,0.5,0.3c0.2,0.1,0.3,0.2,0.4,0.3c0.5,0.9,0.2,3,1.4,3l0,1.3
		c0,0.2,0.1,0.3,0.3,0.3c0.1,0,0.2-0.2,0.2-0.3l0-1.3c0.6-0.7,1-1.8,2-2c0.4,2.1,1.2,1,2.8,1.6c-0.4-1.8,0.5-2,0.2-3.6
		c-1.3-0.4-1.7,0.6-2.8,0.5c-0.3-0.5-0.6-0.7-1.1-1.1c0-0.1,0.1-0.1,0.1-0.2c0-0.3,0-0.6,0.2-0.9l0.1,0.1c0.5-0.1,0.4-1,0-1
		l-0.3,0.1c0.2-0.6,0.3-1.2,0.2-1.7c0.6-1.5,2.1-2.5,2.1,0.5c1-1.4,1.1,1,2.4,0.6c0.1-0.3,0.8-2,0-2.1c0.4-0.8,1.3-0.8,1.7-1.5
		c0.4,2-0.5,2.5,0.7,4.7c0.9-1.5,2.6,2.2,3.1-0.4c0.3-0.1,0.6-0.1,0.8,0.2l0.1,0c0.1,0,0.3-0.1,0.3-0.3c0-0.2-0.1-0.5-0.2-0.6
		c-0.4-0.2-0.8-0.3-1.4-0.1l0-0.3c-0.1,0-0.2,0-0.4,0c1.3-1.5,4-0.8,5.5,0.1c-0.4,1.1-0.3,2.4-0.2,3.1l1-0.8l0.2,0.1
		c0.1,0.1,0.3,0.2,0.4,0.3s0.2,0.1,0.2,0.1c0.1,0,0.2-0.1,0.3-0.2c0.1-0.2,0-0.6,0-0.7c-0.1-0.1-0.3-0.2-0.4-0.3
		c0-0.8-0.1-1.7,0.2-2.2l0,0.1c1,0.4,0.7,0.4,1.6,0c0,0,0,0,0,0.1c0.3,0.5,0.4,0.9,0.9,1.1l0,0c0.1,0,0.2-0.2,0.2-0.3
		c0-0.2-0.1-0.4-0.3-0.4c-0.2,0-0.4-0.2-0.5-0.7c0-0.1-0.1-0.2-0.2-0.3l0.1,0.1c0.7-1.2,1.2,0.5,2.5,0.1c0.8-1.3,0.7-3.6,2.8-3
		c0.8,0,0.2,1.8,0.4,2.6c0.7,0.8,0.5-0.1,1.4,0l0.1,0c-0.2,0.7-0.2,1.5-0.1,2.2c-0.1,0.1-0.2,0.2-0.2,0.3l-0.2,0
		c-0.2,0-0.4,0.3-0.3,0.6c0,0.3,0.2,0.5,0.3,0.5l0.2,0l0,0.1c-0.1,0.4-0.2,0.7-0.3,1l0,0.2l0.1,0.2c0.2,0.4,0.3,0.7,0.5,1l-0.2,0
		c-0.5-1.5-2.9-0.1-3.2-2.1c-0.9,1.6-3.2,1.9-3.5-0.5c-0.7-0.3-0.6,0.8-0.7,1.6c-1.1,0.4-2.8-1.9-3.8-0.1c0,1.4,0.9-1.2,0.7,1
		c0,1.1-1.4,0.2-2,0.5c0.4-1.6,0.3-2.6-0.4-3.6c-0.8,1.1-1.7,0.5-2.4,1l0,0.2c-0.3-0.2-0.6-0.2-0.8-0.3s-0.6,0-0.7-0.3
		c-0.1-0.1-0.3-0.1-0.3,0.1c-0.1,0.1,0,0.3,0.1,0.4c0.4,0.3,0.7,0.4,1,0.4s0.6,0,0.8,0.2c0.7,0.8,0.2,1.2-0.5,1.8l0,0.1l-0.1-0.1
		c-0.1,0-0.2,0-0.2-0.1c0-0.7-0.3-0.8-0.4-1.4c-0.3,0.4-0.8,0.5-1.4,0.5l0.2,0.8l-0.6-0.2c0.3,1.6-0.3,1.9-0.3,3.1
		c0.6,0,1.1,0,1.7,0c-0.4-0.7-0.4-1.2,0.3-1.6l0-0.1c0.1,0,0.3,0.1,0.4,0.1l0,0c0.4,0.7,0.9,1.5,1.5,2.1c0.5-0.3,0.9-0.7,1.4-1
		c0.8-0.9,2,1.5,2.5,1.6c0.8,0.2,1.8-1.1,2.7-1c2.5,0.3,4.7,1.5,7.7,1.6c0.9,0.1,1.8-0.6,2.8-0.5c1,0.1,1.9,1,2.8,1.1
		c0.7,0,3.5-1.5,3.5,0.5c1.8,1.5,2.5-0.9,4.5-1.5c2.1,1.9,6.5,0.8,8.7,1c0.1,0.1,0.2,0.2,0.4,0.3c0.1,0,0.2,0,0.3,0
		c0.5,0,0.9-0.1,1.3-0.2c0.1,0,0.2-0.1,0.3-0.1l0,0c0.4,0,0.8,0.2,1.2,0.3c0.5,0.1,1,0.4,1.5,0.4l0,0c0.1,0,0.1-0.1,0.2-0.1
		c0.4,0.2,0.6,0.3,1,0.4c0.3,0,0.6-0.2,0.9-0.3l0,0.2c1.7-0.2,4.1,0.6,5.2-0.5c-0.2-0.7-0.8-1-1.5-1c0.2-1.5,1.8-0.7,1.4-3.1
		c-1.8,1.7-1.8-3.5-3.6-3.6l0,0c0-0.1,0-0.1,0-0.2c0-0.2,0-0.5,0-0.8c-0.1-0.2-0.2-0.4-0.3-0.5l0-1.2l0.3,0.1c0.8-2.5,2.3,1.9,3.1-1
		c1.5,1.9,1.8,1.1,3.5,0c0.7,0.3,0.1,2.7,0.7,3.2c1-1.2,1.4,1,1.7,0l-0.1-0.3c0.4,0.2,0.8,0.3,1.2,0.3c0.9,0.1,1.5,0.2,1.7,1.1
		l-0.1,0c-1.2,0.2-2.1,0.8-3.1,0c-0.3,0.4-0.5,1-0.7,1.6c-0.2-1.6-0.4-0.3-1.4,0.5c-1.1,0.3-0.5-1.7-1.7-1l0,0.1
		c-0.2,0-0.3-0.1-0.5-0.1c-0.3,0-0.4-0.1-0.5-0.2c-0.1-0.3-0.4-0.3-0.6-0.2c-0.2,0.2-0.2,0.5-0.1,0.8c0.2,0.7,0.7,0.7,1.1,0.9
		c0.1,0,0.1,0,0.2,0c0.8,1.4,0.1,2.1,0.7,3.5l0,0c-0.2,0.1-0.4,0.2-0.5,0.3c-0.1,0.1-0.2,0.2-0.4,0.2s-0.4,0.3-0.3,0.6
		c0,0.3,0.2,0.5,0.3,0.5l0,0c0.4,0,0.6-0.2,0.7-0.4c0.1-0.1,0.2-0.1,0.2-0.1c2.7,2.7,7.5,0.9,10.3,1.1l0-0.1c0.1,0,0.3,0.1,0.4,0.1
		c0.3,0,0.5-0.1,0.7-0.3c0.3-0.2,0.5-0.3,0.7-0.1l0.1,0c1,0.4,2.5,0.8,3.5,0.6l0.1,0.1c0,0,0,0,0.1,0c0.5-0.1,1.1-0.1,1.6-0.2
		c0.7-0.1,1.3-0.1,2-0.3l0,0.2c2.2-0.6,4.3,0.5,5.6,0.1c0.8-0.2,0.9-1.3,1.3-1.5c0.4-0.2,1,0.8,1.4,0.5c0.4-0.4,0.7-2.7,1.7-2.6
		L156,193l0.1,0c0.2-0.1,0.4-0.1,0.7,0c0,0.4,0,0.8,0,1.2c2.1-0.9,3.5,0.4,4.2-2.5c-0.6,0-0.9-0.4-1.1-1.1l-0.2,0.1
		c0.1-0.9-0.1-1.8-0.3-2.6l0-0.1l0.1,0c0.6-1,1.3-1.9,2.8-1.5c-0.1-1.4-1.1-1.4-1.4-2.6c-1.6,3.5-8-3.3-2.8-1.6
		c0.8-2.3,3.5-4,3.1-0.5c0.5-0.2,0.5-0.9,1-1c-0.3,3.2,2.2,1.7,4.3,4.2c0,0.7,0,1.4,0,2.1l0.1,0.2c0,0,0,0-0.1,0
		c-0.3,0.3-0.6,0-0.9-0.5l-0.2,0.5l0,0l0.1-0.8c-1-0.7-0.9-2-2.1-1c0.7,0.9-0.2,0.9,0,2.6c0.7,0,1.3,0,2,0c0.3,0.2,0.5,0.5,0.9,0.5
		c0.1,0,0.2-0.1,0.3-0.1l0,0.1c2.2,0.5,2-0.1,3.5-1c0.1-1.1-0.3-1.6-1-1.6c0.4-0.8,1.1-1.1,1.5-2c0.1,0,0.1,0,0.2-0.1
		c0.3-0.4,0.7-0.3,1.2,0c0.3,0.1,0.6,0.2,1,0.3c0.2,0,0.4-0.1,0.6-0.2c1,1.7,2.9,0,3.7,2.1c-0.6,0.4-1.3,0.4-2,0.4
		c-0.5,0-0.9,0-1.3,0.1l0,0l-0.1,0l-0.1-0.1l-0.1,0c-0.5-0.2-1-0.3-1.4-0.1c-0.3,0.1-0.4,0.6-0.4,1c0.1,0.4,0.3,0.7,0.6,0.5
		c0.2-0.1,0.3-0.1,0.4-0.1l0,0c0,0.3,0,0.5-0.1,0.8c0,0.4,0.1,0.9,0.4,1l0.1,0c0.3,0,0.5-0.3,0.5-0.6c0-0.3,0-0.5,0.1-0.8l0-0.4
		c0.4-0.1,0.8,0,1.1,0c0.9,0.1,2,0,2.9-0.7l0.1,0.2c1.1,0.6,0.9,0.3,1.7-0.5c-0.1-0.5-0.4-0.4-0.7-0.5c0.4-1.5,1.7-1.6,2.7-2l0-0.2
		l0,0c0.2,0.7,0.3,1.1,0.1,1.4l0,0.1l-0.8,1.2c-0.1,0.1-0.1,0.3,0,0.5c0,0.1,0.1,0.1,0.2,0.1c0.1,0,0.1,0,0.2-0.1l0.6-1.1l0,0
		c0.2,0.2,0.4,0.4,0.4,0.7l0,0.2l0.1,0.1c0.3,0.2,0.6,0.5,1,0.7l0.1,0l0.3-0.2c0,0,0.1,0,0.1-0.1c0,0.3-0.1,0.7-0.2,1.1
		c0,0.2,0,0.3-0.1,0.5c-0.2,0.1-0.3,0.1-0.5,0.2c-0.4,0.2-0.5,0.2-0.7,0.1c-0.3-0.2-0.7-0.1-0.8,0.2c-0.1,0.4-0.1,0.9,0.2,1.1
		c0.3,0.2,0.5,0.3,0.8,0.4c0.3,0,0.6-0.1,0.8-0.2c0.1-0.1,0.2-0.1,0.4-0.1c0.4,1.4,1.1,2.4,1.7,3.1c0.1,0.1,0.1,0.1,0.2,0.1
		c0.1,0,0.1,0,0.2-0.1c0.1-0.1,0.1-0.4-0.1-0.5c-0.7-0.9-1.2-1.8-1.6-3c0.1-0.2,0.1-0.4,0.1-0.6c0-0.1-0.1-0.1-0.1-0.2
		c0-0.2,0.1-0.4,0.1-0.6c0.1-0.4,0.2-0.9,0.3-1.4l0,0.1c1.6-0.6,1.4,1.3,2.2,1.9c0.1,0.1,0.1,0.2,0.2,0.3c0.2,0.6,0.5,1.3,1,1.7
		c0,0.2,0,0.3,0,0.4c0,0.1-0.2,0.4-0.5,0.3c-0.3,0-0.6,0.2-0.6,0.7c0,0.4,0.1,0.8,0.4,0.9c0.1,0,0.2,0,0.3,0c0.5,0,1-0.3,1.2-0.9
		c0.2-0.5,0.3-1.2,0.2-1.7c0.3-0.5,0.6-1,0.9-1.6l0.1,0.1c0.1,0.8,0.5,0.9,1.1,2.1c0.8-0.1,0.2-2.3,0-2.6c2.1,1,1.9-1.1,3.6-1.5
		c0.3,0.1,0.6,0.3,0.9,0.4c0.3,0.1,0.5,0.1,0.7,0.3c0.2,0.6,0.2,1.7,1,1.4c0.5-2.2,2.3-0.9,2.8,0c0.9-1,1.4-0.9,2.8-0.5
		c-1.2,2.5,1.1,0.4,2.1-0.5c0.6,0.8-0.1,1.9,0.7,3.2c0.8-0.5,3.4-1,3.8-0.4c0.7-0.3-0.6-1.4,1-1c0-0.8,0-1.7,0-2.5
		c0.1,0,0.1,0.1,0.2,0.1l0,0c0.3,0,0.7-0.1,1-0.1c0.2-0.1,0.4-0.1,0.6-0.1c0.1,0,0.2,0.1,0.2,0.1c0.4-0.1,0.8,0.2,1.2,0.4
		c0.1,0,0.2,0.1,0.4,0.1l0,0c0.4,1.2,2.3,1.9,0.7,3.1l-0.6,0c-0.1,0-0.2,0.1-0.2,0.3c0,0.2,0.1,0.3,0.2,0.3l0.6,0c0,0.3,0,0.7,0,1
		c2.6,0.7,3.8-0.8,5.9-0.9c0.3-0.8,0.4-1.3-0.4-1.5c0.3-1.8,3-0.3,3.8-1.5c-0.5-0.3-0.8-0.4-0.2-1.3c0.3-0.1,0.5-0.1,0.6-0.1
		c0.1,0.1,0.1,0.2,0.2,0.3l-0.2,0c0,0.3,0,0.7,0,1c1.5,0.6,3.3,0.3,4.1,0.6l0-0.1c0.1,0,0.1,0.1,0.2,0.1l0.1,0
		c0.3-0.1,0.5-0.2,0.8-0.2c0.3-0.1,0.5-0.3,0.9-0.2c0.3,0,0.5-0.4,0.5-0.8c0-0.4-0.2-0.8-0.5-0.8l0,0c-0.5,0-0.9,0.1-1.2,0.3
		c-0.1,0-0.2,0.1-0.3,0.1c0.3-0.6,0-0.7-0.1-1.4c-1.4-0.1-2.2,0.9-3.8,0.4c0,0,0-0.1-0.1-0.1L225,187c-0.3-0.2-0.7-0.3-1.2-0.1
		l0-0.2c-0.3-1.5-1.1,0.3-1.7,0c-1,0.3-0.7-1-1.4-1.1c2.1-1.2,4.7-0.6,7.3-0.4c1.4,0.1,3.6,2.1,4.5-0.5c0.4,1.2,1.3,1.3,1.7,0
		c0.3,1.5,2.3,0.5,2.2,2.8c-1.2,0.2-2.3,0.5-3.5,0.3c-0.3-0.1-0.5,0.2-0.5,0.6c0,0.4,0.1,0.7,0.4,0.8c0.4,0.1,0.8,0.2,1.1,0.1
		c0.9,0.1,1.8-0.2,2.7-0.3l0.2,0l0,0c1.8,1,3.7-0.4,5.2-0.5c-0.3,1.9,2.1,1.1,2.5,0.1c4.7,3.1,12.2-0.6,18.4,0.2
		c-0.2-1.1,0.6-0.8,0.7-1.6c2.8,4.1,7.9-0.4,10.4,1.7c1,0,1.7-1.6,2.8-1.5c0.9,0.1,1.3,1.3,2.1,1.5c0.5,0.2,1-2.2,1,0
		c2.8-3.3,9.4-2.9,11.9-0.9c0.3-0.4,0.5-1,0.7-1.6c4.8-0.2,8.2-0.4,12.6,0.1c2.9-4.4,8.2-0.2,11.4-3.9c2.7,1.6,5.2,0.6,7.4,1.1
		c1.2,0.3,2.6,2,3.1,1.6c0.7-0.6,1.9-0.9,2.1-1c0.1-0.1-0.1-1,0-1c0.7-0.4,2.1,0.5,2.7-1c1,1.2,2.7,0.2,2.8,1.6
		c1.9-0.6,3.9,0.7,4.5-2.5c0.4,0.3,0.6,1.4,0.7,0.5c0.4,0.1,0.3,0.5,0,0.5c0.5,1.5,1.4-0.3,1.7-0.5c2.2,0.8,4.1,2.4,6.6,2.1
		c0.3,0,1-1.5,1.1-1.5c1-0.4,3.5-0.2,3.5,1.6l0.1,0c-0.1,0.1-0.3,0.2-0.4,0.4c-0.1,0.2-0.2,0.5,0,0.7c0.1,0.1,0.2,0.2,0.3,0.2
		c0.1,0,0.1,0,0.2-0.1c0.1-0.1,0.2-0.2,0.4-0.3l0,0.1c0.1,1,1.8-2,2.1,0.5c0.8-0.3,0.2-2.7,1.7-2.1c0-0.7-0.2-0.9-0.3-1.3
		c0.2,0,0.3,0,0.6,0c0.3,0,0.6,0,0.9,0.1l0,0.2c0.6-0.2,0.6,0.4,0.7,1c1,0,2.1,0,3.1,0c0.3-1.6,0-2.6,0.3-3.1
		c-0.1-0.6-0.6-0.4-1-0.6c0-0.2,0-0.4,0-0.6c0-0.3,0-0.7,0-1.1l0.3,0.1c1.2,0.5,2.4,0.1,3.5,1c0,0.2,0,0.3,0,0.5l0.2,0.3
		c-0.1,0.1-0.1,0.2-0.1,0.3l-0.1,0.1c-0.4,0.2-0.8,0.4-0.9,0.9c0,0.2,0,0.5,0.2,0.5l0.1,0c0.1,0,0.2-0.1,0.3-0.3
		c0-0.2,0.3-0.4,0.6-0.5c0,0.3,0.1,0.6,0,0.8l0,0.3l0,0.2l0.1,0.2c0.3,0.6,0.9,0.8,1.4,0.9c0,0,0,0,0.1,0c0.3,0,0.5-0.3,0.5-0.6
		c0-0.4-0.1-0.7-0.4-0.7c-0.2,0-0.5-0.1-0.7-0.1c0-0.3,0-0.8-0.1-1.3l0.2,0.1c1,0.1,1.9-0.2,2.4-1c-0.2,1.3,1.9,1.4,2.9,2.6
		c0.5-0.7,0.7-2,2-1.6c0.1,0.2,0.2,0.4,0.3,0.5l-0.1,0c-1.3-0.1-0.1,0.4-0.3,1.6c0.9,0.1,1.8-1.6,0.7-2.1c-0.1-0.2-0.2-0.4-0.2-0.6
		l0.2,0.1c0.9,0.7,1.1,1.1,0.8,2.6c1.5,0.3,1.4-1.7,2.4-2c1.5,2.4,2,1.3,4.9,1.6c0-1.2,1.8-2.4,0.6-3.6c0.6-1.9,3.2-1.9,4.1-0.4
		c-0.1,1.1-1.5,0.1-1.7,1c0,0.9,1.1,0.4,1.4,1c0,0.2-0.1,0.3-0.1,0.4c-0.1,0.2-0.1,0.5-0.2,0.8c0,0.2,0.1,0.4,0.2,0.4c0,0,0,0,0.1,0
		c0.1,0,0.2-0.1,0.2-0.3c0-0.2,0.1-0.4,0.1-0.6c0.1-0.3,0.2-0.7,0.3-1.1l0.2,0.3c0,0.9,2.5-0.7,1.8,0.5c2.3-0.7,6.2,2.5,8.7-0.9
		c-0.1-0.7-0.6-0.8-0.8-1.6c0.9,0.1,2-0.3,2.1,1c0,2.2-1.5-0.9-1.3,1.5c2,0.6,3.1,0,4.1-0.4c-0.4,2.6,3.9-0.5,4.2,1.6
		c1.3-1.5,1.8-4.4,4.8-3.6c0.5,0.1,0.3,1.3,0.3,2c3-0.7,4.5-0.5,7.3-0.4c-0.1-0.8,0.3-0.9,0.3-1.6c1.6,2.3,2.4,0.7,4.6,1.6
		c-0.2-2.6,2.2-2.3,3.4-1.5c0,0.5-0.4,0.4-0.7,0.6c1.7,1.1,3.3,0.5,4.2-1c0.8,0.3-0.4,0.8,0.4,1.5c2.1-0.2,3.7-3.1,5.2,0.1
		c1.3-0.6,1.2,0.1,2.4-0.4c-0.1-0.6-0.6-0.4-1-0.6c1.2-1.7,3.8-1.1,4.6,1.1c2.9-1.6,4.2-0.9,7-0.4c0-0.5,0-1,0-1.5
		c1.2-0.1,2.6-0.6,2.1,0.5c1.8,1.8,4.6,0.2,6.2-0.5c0.6,0.4,0.6,2.3,1.4,1.1c-1.9-1.1,3.4-3,2.1-0.5c0.4,0.5,1.6-2.1,2.4-0.4l0,0
		c0.3,0.6,0.9,1,1.4,1l0.1,0c0.2,0,0.4-0.2,0.6-0.5l0,0.1c0.4,0.4,0.8,0.6,1.4,0.5c0-0.6-0.1-0.9-0.4-1c0.3-0.5,1.5-1.5,1.9-0.6
		c-0.4,0.3-0.7,0.6-1.2,0.5c-0.1,0-0.2,0.2-0.2,0.3c0,0.2,0.1,0.3,0.2,0.3l0,0c0.6-0.1,1.2-0.5,1.6-0.9l-0.1,0.4
		c1.2,0.9,2.5,0.4,3.8,0.1c1.1,0.7-0.5,2,0.4,2.6c0-2.5,2-5.2,3.4-2.6c-0.1,1.2-1.8,0-2.1,1c0.5,0.9,1.5,1.2,2.1,2
		c1.6-1.6,2.5,0,3.8-0.4c-0.3-0.9-0.8-1.6-1.1-2.6c0.6,2,1.6,0.1,2.1,2c0.8-0.3,2-0.9,2.7,0c0,0.3,0.1,0.6,0.1,1l0.1,0.2l0.2,0.1
		c0.3,0.2,0.5,0.2,0.7,0.3c0.2,0,0.4-0.1,0.6-0.2l0,0.3c2.3-1.9,4.6,0.2,7-0.4c0.4,0.1,0.3,0.9,0.4,1.5c1.3-0.2,1.4-2.3,2-3.6
		c1.1-0.1,1.7,1.2,2.5,0.1c-0.2,1.6-0.3,1,0,2.6c0.5-2.7,1.5-1.4,3.1-2.5c0.4,0.2-0.4,2.7,1.4,2.1c0-0.7,0-1.4,0-2.1
		c0.7,0.8,2.1,0.6,2.8,1.6c0.8-0.2-0.4-0.8,0.3-1.6c1.3-0.5,1.1,1.3,2.1,1c0.2-0.7,0.7-1,1.3-1c0.2,0.1,0.4,0.2,0.4,0.4
		c0,0.1-0.1,0.1-0.1,0.2l-0.1,0.2c-0.2,0.3-0.1,0.8,0,1c0.1,0.1,0.2,0.2,0.4,0.2c0.1,0,0.3-0.1,0.3-0.2l0.1-0.2
		c0.1-0.2,0.2-0.4,0.3-0.6c0.1-0.1,0.2-0.2,0.2-0.4c0.1-0.1,0.2-0.1,0.3-0.2c0.2-0.1,0.3-0.4,0.2-0.7c-0.1-0.3-0.3-0.5-0.4-0.4
		c-0.1,0-0.2,0.1-0.3,0.2c-0.2-0.6-0.7-0.9-1.1-1.2c0-0.3-0.1-0.6,0-0.9c0.3-0.1,0.6-0.2,0.9,0l0,0c0.1,0,0.2-0.1,0.3-0.2
		c0.9-0.2,1.3-0.2,2,0.2c0.1,1.2,0,1.9-0.6,2.1c0.3,1.5,0.7-0.5,1.4,0l0-0.4c0.4,0.5,0.9,1,1.3,1.3c0.2,0.1,0.3,0.2,0.5,0.3
		c0.1,0,0.1,0,0.2,0c0.1,0,0.2-0.1,0.3-0.3c0.1-0.3,0-0.5-0.1-0.7c-0.2-0.1-0.4-0.2-0.5-0.3c-0.5-0.3-0.8-0.6-1.1-1.1l0.2,0
		c0.1-0.7,0.6-0.1,0.7,0.5c0.3-0.4,0.5-1,0.7-1.6c0.8,1.5,1.6,0.8,2.5,1.6c0.5-1.7,1.8-3.1,2.4-2l0.1-0.1c0.1,0.6,0.7,0.8,1,1l0,0.1
		c-0.6,1.5-0.2,1.5-0.6,2.6c1.1,1.6,2.6-0.5,3.5-1c0.2-0.9-0.3-1-0.7-1c0.9-1,2.1-0.7,3.8,0.6l0,0.1c0.2,0.3,0.3,0.5,0.4,0.7
		l0.1,0.2l0.1,0c0.1,0,0.3,0,0.4,0c0.2,0,0.4-0.1,0.6-0.2c0.1-0.1,0.1-0.3,0-0.5c-0.1-0.2-0.3-0.2-0.4-0.1c-0.1,0.1-0.3,0.1-0.5,0.1
		c-0.1-0.2-0.3-0.5-0.4-0.7l0-0.1l0,0c-0.1-2,0.6,0.1,1-1l0-0.1c1.9,0.1,3.6,1,5.4,1.9c0.6,0.3,1.3,0.7,2,0.9l0.1,0
		c0.2,0,0.4-0.2,0.4-0.5c0-0.3,0-0.7-0.3-0.8c-0.6-0.3-1.4-0.6-2-0.9c-1.8-0.8-3.3-1.6-5.2-1.9c0.3-0.3,0.8,0.8,0.6-1.3
		c1-0.3,0.7,1,1.5,1c3.1-1.1,5.7,0.5,8.3-0.9l0-0.1c0.1,0.1,0.3,0.1,0.4,0.2c0.3,0.2,0.6,0.4,1,0.5c0.3,0,0.5-0.1,0.8-0.3
		c0.2-0.2,0.2-0.5,0.1-0.8c-0.1-0.2-0.4-0.3-0.5-0.1c-0.3,0.3-0.5,0.2-1-0.2c-0.1-0.1-0.2-0.1-0.4-0.2c0-0.3,0-0.7,0-1
		c1.1-0.2,2.4-0.7,3.5-0.5c0.3,0.1,0.4,0.1,0.5,0.2c0.1-0.1,0.1-0.2,0.2-0.3c1.1-1,3.6,0.3,6.6-0.5c-0.3,0.6-0.3,1,0.2,1
		c0.1,0.2,0.2,0.5,0.1,0.8c0,0.2,0.1,0.3,0.2,0.3l0,0c0.1,0,0.2-0.1,0.2-0.3c0-0.5-0.1-0.9-0.2-1.3l0.1,0c0.5-0.2-0.1-0.4,0-1
		c1.3,0.4,1.5-0.9,2.8-0.5c0-3.8,2.6-3.5,4.1-3.5c0.9,0,1.7-1,2.1-1c1.2,0.1,2.8,1,4.2,1.1l-0.1-0.4c0.3,0.2,0.6,0.4,0.9,0.5
		c0.2,0,0.4-0.1,0.6-0.2l0,0.2c0.8,0.1,2.9-1.4,2.8,1.6c0.5,0,0.9,0.1,1-0.5c0.2,0,0.3,0.1,0.5,0.1l0.1-0.8
		c-0.2-0.1-0.5-0.1-0.7-0.3l0.2-0.2c0.4-0.7,0.1-0.8,0-1.5c1.8,0.6,2.9,2.4,4.2,2.1c0.5,0.2,0,0.9-0.4,1c0.6,0.7,1.3,0.6,2,0.4
		c0,0.5,0,0.9,0,1.4c0.5-0.1,1-0.2,1.5-0.4c0,0.2,0.1,0.4,0.1,0.6c0.2-0.2,0.5-0.6,0.9-0.8c1.2-0.3,2.3-0.5,3.3-0.6
		c0.2,0.2,0.3,0.5,0.3,1c0.6-0.4,1.1-0.6,1.6-0.9c0,0.1,0.1,0.1,0.1,0.2c0,0.2,0.2,0.3,0.4,0.2c0,0,0,0,0.1,0c0.2,0,0.3-0.2,0.3-0.4
		c0-0.1-0.1-0.2-0.1-0.3c0.8-0.1,1.5,0.1,2.6,1.1c0-0.5,0.4-0.4,0.7-0.5c0.1-1.9-0.8-2.4-1.4-3.1c0-0.4,0.1-0.7,0.2-1
		c3.5-0.5,8,0.5,10.7-0.2c0.2-0.7-0.6-1,0.4-2.4c0.5,0.3,1.2,0.6,2.2,0.4c-2.6-0.9-4.9-1.3-6.2-1.3c0-2.2,4-1.3,4.8-2
		c0.9-0.1,0.1-1.8,0.8-2c1.9-0.3,2.9-0.1,3.9-0.3c-0.1-3-5.5-0.6-4-3.3l0,0c0.1,0,0.1,0.1,0.2,0.1c0.4,0,0.7,0.1,1,0.3
		c0.4,0.1,0.8,0.3,1.4,0.3l0.1,0c0.4,1.1,1.9,0.7,2,2.3c0.7-1,0.5-1.6,0.3-2.5c0.9,0.3,1.4,0.5,2-0.4c-1.2,0.1-1.8-0.7-2.1,0.2
		c-0.1-0.3-0.2-0.5-0.2-0.9c-0.4,0.1-0.8,0.2-1.1,0.4c-0.2-0.1-0.4-0.2-0.6-0.1c-0.6,0.2-1,0-1.5-0.2c-0.4-0.1-0.8-0.3-1.4-0.3l0,0
		c-0.1,0-0.2,0.1-0.2,0.1c-0.1-1.2-1.7-0.6-2.2,0c-0.2-2-2.7,0.7-2.3-1.7c-1.3-0.2-2.1,0.9-3,0l-0.3,0.1l0,0c0.2-0.3,0.4-0.6,0.6-1
		c0.1-0.1,0.1-0.3-0.1-0.3c-0.1-0.1-0.3,0-0.4,0.1c-0.2,0.3-0.4,0.5-0.5,0.8c-1.7,0.5-3.6,0.8-4.8,0.5c0-0.3,0-0.7-0.1-1l0.1,0
		c0.1-0.1,0.2-0.2,0.1-0.3c-0.1-0.1-0.2-0.1-0.3-0.1c-0.1-0.2-0.1-0.4-0.1-0.7c0.5-0.1,1.1,0.1,1.7-0.1c1.2-0.2,4.2-1.7,4.9,0
		c0.6-0.1,0.5-0.9,0.8-1.2l0.1,0c0.2,0.4,0.4,0.8,0.9,0.8c0-0.3,0-0.4-0.1-0.6c1.7,0.4,3.4,0.6,4.9,0.6c0.2,0.1,0.4,0.1,0.7,0
		c0.8,0,1.5-0.2,2.3-0.2c0.4,0.7,0.7,1.6,1.2,0.9c0,1.3-0.7,1.6,0.3,2l0-0.2c0.3,0.5,0.7,0.7,1,0.9c0.2,0,0.4,0.1,0.5,0.2
		c0.1,0.3,0.1,0.6-0.1,0.7c1.9,1.5,1.7-2.6,4.2-1c0-1.3-0.6-1.6-0.8-2.6c0.7,2.2,2.6,1.3,3.2,2.6c0.3-0.3,0.5-1.5,0.7-0.5
		c0.6,0.2-0.1-1.9-0.4-2c0.4-0.9,1.7-0.5,2.1-1.6c-0.3-0.5-0.4-1-0.5-1.4c1.9-0.2,3.8-0.1,5.9,0.2c-0.6-1.4-1.6-2.6-2.3-4.1
		c-1.2,0.8-2.5-0.2-3.2-1.1c0.1-0.1,0.2-0.1,0.2-0.3c0,0-0.1-0.2-0.1-0.3c3.7-0.1,8.3,1.5,10.4-1.1c-4-0.7-4.7-2-7.5-0.9
		c-0.3-0.5-0.7-0.9-1.2-1.2c0.1-0.1,0.1-0.2,0.3-0.2c-0.4-1.5-1.3-0.2-1.4-1.1c-0.2,0.2-0.3,0.4-0.3,0.7c-0.8-0.2-1.7-0.3-2.6-0.5
		c0-0.2-0.1-0.5-0.1-0.7c1.2,1.3,1.2-3.9,3.1-4.6c-0.4-1.5-2-1.2-2.2-3.2c-2.5,1.6-2.9-3.3-5.2-1.7c-0.1-0.6,0.1-0.9,0.4-1.1
		c0.2-1.4-1.6,0.4-1.4-1.1c-0.8,1-1.3,2.7-1.6,4.6c-0.5-0.9-1.8-0.8-1.8-2.6c-0.4,0.5-0.7,1.4-1.3,1.5c-0.5-0.2-0.6-0.9-1.1-1.1
		c1.7-2.8-1.6-4.7-1.9-8.7c-1.5,0.5-1.9-0.6-2.3-1.7c2.6-0.1,5.2-0.1,6.5-1.2l0-0.1c0.2,0,0.5,0.1,0.7,0.1l0,0
		c0.4,0,0.7-0.3,0.7-0.6c0-0.3-0.2-0.6-0.6-0.6c-0.1,0-0.3,0-0.4,0c-1.3-1.1-2.9-0.4-4.7-0.1c0-0.1,0-0.2,0-0.4
		c0.5-0.1,0.9-0.1,0.8-0.7c-0.3-0.2-0.6-0.2-0.9-0.4c-0.1-0.2-0.1-0.3-0.2-0.5c-0.1,0.2-0.2,0.2-0.3,0.3c-1.7-0.5-3.5-0.3-4.9-0.6
		c-0.1-0.1-0.1-0.2-0.2-0.2c0.3-0.4,1.3-0.1,1.7-0.6c-0.2-0.6-0.7-0.9-1.3-1.2c1.4,0.1,1.6-1.2,2.9-0.8c0.1,0.2,0.1,0.5,0,0.8
		c0,0.1-0.1,0.1-0.2,0.2c-0.2,0.2-0.5,0.4-0.6,0.8c0,0.1,0,0.3,0.2,0.3l0.1,0c0.1,0,0.2-0.1,0.2-0.2c0.1-0.2,0.3-0.4,0.5-0.6
		c0.1-0.1,0.2-0.1,0.2-0.2l0,0c-0.4,1.6,0.6,1.2,0.7,2.1c0.8-0.1,0.1-2.4-0.7-2.1l0-0.1c0.1-0.5,0.1-0.9-0.1-1.4l0.2,0
		c-0.2-0.5-0.6-0.6-0.9-1.2c0.3-0.1,0.5,0,0.9,0.2c0.4,0.1,0.7,0.3,1.2,0.3l0,0c0.3,0,0.5-0.2,0.5-0.5c0-0.3-0.3-0.5-0.5-0.5
		s-0.6-0.1-0.8-0.3c-0.5-0.2-1.1-0.4-1.9-0.1c-1-0.9-3-0.6-3.5-0.4l0,0c-0.2,0-0.1,0,0,0c0-0.4-0.6-0.6,0-0.8l-0.1-0.3
		c0.1,0,0.3,0,0.4,0c0.2,0,0.4,0,0.6-0.1c0.2,0,0.4-0.1,0.7-0.1c0,0,0,0,0.1,0c0.2,0,0.3-0.2,0.3-0.3c0-0.2-0.2-0.3-0.4-0.3
		c-0.3,0-0.6,0.1-0.8,0c-0.1,0-0.2,0-0.4,0c0,0,0-0.1-0.1-0.1c0,0,0,0,0.1,0l0,0c0.3,0,0.6-0.2,0.8-0.5l0-0.1
		c0.2-0.1,0.4-0.1,0.5-0.2l0.1-0.1l0-0.2c0.1-0.4,0-0.8-0.2-1.1l0.1,0c0-0.1,0-0.3,0-0.4c0.1,0,0.3,0,0.4-0.1c0.5-0.1,1-0.1,1.3,0
		c0.3,0.1,0.7,0,0.8-0.2s-0.1-0.6-0.3-0.7c-0.6-0.2-1.4-0.2-2,0c-0.2,0.1-0.5,0.1-0.7,0.1l0-0.1c-0.6-0.1-1-0.3-1.6-0.5
		c0.1-0.1,0.3-0.2,0.4-0.3l-0.1-0.3c0.5,0.1,0.9,0.2,1.3,0.2c0.6,0,1,0,1.6-0.1c0.3,0,0.6-0.1,0.8,0c0.2,0,0.3-0.2,0.3-0.5
		c0-0.2-0.2-0.5-0.4-0.4c-0.3,0-0.6,0.1-0.8,0c-0.9,0-1.7,0.1-2.6-0.1c-0.1-0.8-1.2-0.1-1.7-0.4c0.4-0.8,1-1.5,1.5-2.2
		c0.9,0.2,1.8,0.2,2.3-0.6l0,0.6c0.4,0.2,0.8,0.4,1.2,0.4c0.4,0,0.7-0.1,1.1-0.2l0,0.1c0.3-0.9,3,0.4,2.6-1.1l-0.1-0.2l0.1,0
		c0.4,0.4,0.8,0.5,1.2,0.3l0,0c0.2,0,0.3,0,0.4,0c0.2,0,0.5,0,0.7,0l-0.1,0.3c0.2,0,0.4,0,0.7,0l0.5,0.2c0.5,0.7-0.5,1.2,0.3,1.8
		l0,0c0,0.2,0,0.3,0,0.6c0.3-0.4,0.9-0.7,1,0c0.1-0.5,0.4-1,0.6-1.4c0.1-0.1,0.3-0.1,0.6-0.1c0.1,0.1,0.1,0.2,0.2,0.2l0.1,0.1l0.1,0
		c0.3,0,0.6,0.1,0.8,0.1c0.5,0,0.9-0.1,1.3-0.3l-0.1,0.3c0.6,1.1,2.3,0.1,2.1-0.8l-0.1-0.1c0.7-0.3,1.3-0.1,2,0
		c0.5,0.2,0.9,0.6,1.3,0.9c-0.1-0.3,0-0.5,0-0.7c0.1,0,0.1,0,0.2,0s0.3,0,0.4,0c0.2,0,0.3-0.2,0.3-0.3c0-0.2-0.2-0.3-0.4-0.2
		c-0.2,0-0.3,0-0.5,0c0.1-0.4,0.2-0.7,0.6-0.8c-0.6-1.5-1.7-2.6-2.5-1.1c0.2-0.5,0.2-0.9,0.3-1.4c1.8,0.3,3.9,0.4,5.8,0.6l0-0.2
		c0.4,0.4,0.6,0.6,1.1,0.9c0.1,0,0.2,0.1,0.3,0.1c0.2,0,0.3-0.1,0.4-0.2c0.1-0.2,0-0.4-0.2-0.5c-0.4-0.2-0.5-0.3-0.8-0.7
		c-0.8-1.6-3.7-1.8-5.7-2.3c1.1-0.2,1.2,0.3,2.7,0.2c-0.1-1.2,0-1.9,0.6-2.1c0.3-1.1-1.8-1-0.8-1.6c-0.1-0.3-0.2-0.5-0.3-0.5
		c2.2-0.9,3.2,1.2,4.2-0.7l-0.1-0.1c1.1,0.4,2.2,0.5,3.3,0.7c1.5,0.3,3,0.5,4.3,1.2c0.1,0,0.2,0,0.3,0c0.2,0,0.3-0.1,0.4-0.2
		c0.1-0.2,0-0.5-0.1-0.6c-1.5-0.8-3.1-1.1-4.6-1.3c-1-0.2-2.1-0.3-3.1-0.7c-2.1-1.9-6.3,0.1-6.5-3.2l0,0c0.6,0.1,1,0.4,1.6,0.6
		c0.4,0.2,0.7,0.4,1.1,0.5c0.1,0,0.1,0,0.2,0c0.2,0,0.4-0.1,0.5-0.3c0.1-0.3-0.1-0.5-0.3-0.6c-0.4-0.1-0.6-0.3-1-0.5
		c-0.6-0.3-1.3-0.7-2.1-0.7l0-0.1c-1.5-0.1-2.8-0.2-4.2-0.2c-0.1,0-0.1,0-0.2,0c-0.2,0-0.3,0-0.5,0l0,0c-0.9,0-1.1-0.9-2.1-0.5
		c0-1.3,0.6-1.6,0-2.6c-1.1,0.7-1.2,0.1-2.5-0.1c0.2-1.2-1.3-2.1-1.4-4.1c1.6-0.6,1.6,2.7,2.8,1.1l0-0.1c0.5,0.7,0.9,1.4,0.9,1.8
		c0,0.1,0.1,0.2,0.2,0.2c0,0,0,0,0.1,0c0.1-0.1,0.2-0.2,0.1-0.4c-0.1-0.5-0.5-1.1-1.1-2.1l0.1,0.1c0-1,0-2.1-0.1-3.1
		c-0.8,1.4-1-1.4-1.7,0c0.3-1,0.2-1.3,0.1-1.7c2.4-0.3,7.1,1.7,7.8,0.3c1.4,0.4,2.8,0.7,4.1,0.9c1.2,0.2,2.4,0.4,3.5,0.6l0,0l0,0.1
		c0.6,0.1,1.9,1,2.8,0.2c1.4,1,3,1.1,4.6,1.1c0.9,0.1,1.9,0,2.8,0.3l0.1,0c0.2,0,0.4-0.1,0.5-0.4c0.1-0.2-0.1-0.5-0.3-0.5
		c-1-0.3-2.1-0.3-3-0.3c-1.6,0-3.1-0.1-4.2-1.1c-0.2-0.1-0.4,0-0.5,0l-0.1-0.1c-0.3-0.6-3.5-1.6-3.4-0.8c-0.8-0.2-1.7-0.3-2.5-0.5
		c-1.4-0.2-2.9-0.4-4.2-0.9c-0.1,0-0.1,0-0.2,0c-2-0.7-5.6-0.1-6.8-1.7l-0.2,0.6l-0.2-0.6c-2.1,0.5-0.9-1.5,0-0.4l0.2-0.6l0.2,0.6
		c0.7-0.1,1.5,0.1,1.3-0.8c1.5,0.3,2.4,1.3,3.5,0c3.3,2.9,9.3,1,14.5,1.4c6,0.4,11.4,2.6,15,2.2l-0.1-0.2c1.6,0.4,3.2,0.7,5,1
		c2.3,0.5,4.8,0.8,7.1,1.6c0.1,0,0.1,0,0.2,0c0.2,0,0.4-0.1,0.5-0.3C648.1,71.8,647.9,71.6,647.7,71.5z M458.6,49.6
		c-0.4-0.2-0.7-0.3-1.1-0.4c0-0.1,0-0.3,0-0.4l0.1-0.1c0.1-0.1,0.2-0.2,0.3-0.3c0.1,0.1,0.2,0.1,0.3,0.2c0.2,0.1,0.3,0.2,0.4,0.4
		C458.6,49.3,458.6,49.4,458.6,49.6z M85.8,69c-0.2-0.1-0.3-0.2-0.5-0.3c-0.1,0-0.1-0.1-0.2-0.1c0.3-0.8,1.1-1,1.2,0.2
		C86.2,68.8,86.1,68.8,85.8,69z M36.8,94.9L36.8,94.9c-0.1,0-0.3,0-0.4,0l0,0.2c-0.5-0.3-1-0.8-1.2-1.4l0.1-0.1
		c0.2-0.2,0.3-0.4,0.5-0.6c0.3,0.2,0.6,0.4,0.8,0.6c0.1,0.1,0.3,0.1,0.4,0.2c0,0.1,0.1,0.4,0.1,0.6C37,94.5,36.9,94.7,36.8,94.9z
		 M23.9,126.1c-0.1,0-0.2,0.1-0.3,0.1c-0.1-0.2-0.1-0.4-0.1-0.6l-0.1-0.3l-0.3,0c-0.2,0-0.4-0.2-0.4-0.5l0.1-0.1
		c0.6,0.2,1.4,0.3,1.7,1C24.1,125.6,24,125.8,23.9,126.1z M21.2,135c0.1-0.8-0.2-2,0.3-2.1l0-0.2c0.1,0.1,0.3,0.1,0.4,0.1
		c0.1,0,0.2,0.1,0.3,0.1C21.7,133.6,22.2,135.4,21.2,135z M22.5,132.4l0,0.2c-0.2-0.1-0.4-0.2-0.5-0.3c-0.1,0-0.2-0.1-0.3-0.1
		c-0.7-1.1,0.8-0.3,1.1-1.1c0.2,0,0.5,0,0.8,0.2s0.6,0.2,0.9,0.2c0.3,0,0.6-0.2,0.9-0.4l0,0.4c0.4,0,0.7,0,1,0
		c0.5,1.6-0.1,1.4,0.4,2.5C24.7,134.7,23,132.3,22.5,132.4z M32.9,111.9c-0.2,1.2,1.4-0.6,0.3,0.5c0,0.3,0,0.6-0.3,0.5
		C32.6,112.7,32.5,110.4,32.9,111.9z M32,144.8l0-0.2c0-0.2,0.1-0.6,0.1-1c0-0.1-0.1-0.1-0.1-0.1l0.1-0.1c0.4-0.1,0.7,0.1,0.7,0.5
		c-0.5,0.2,0.1,0.4,0,1c-1.5-0.4,0.3,1-0.6,1.1c-0.1-0.6-0.7-0.4-1-0.8c0.2-0.1,0.4-0.3,0.7-0.4L32,144.8z M31.7,143.8
		c0,0.1,0,0.3,0,0.4c-0.4,0.1-0.7,0.3-1,0.5l0.1-0.4c-0.6-0.3-0.3-1.5-1-0.6C29.5,141.8,31.4,143.3,31.7,143.8z M27.5,105.1
		c0.4,0.1,0.6-0.1,0.7-0.6l-0.2-0.2c0.2,0,0.3-0.1,0.5-0.1c0.2-0.1,0.4-0.1,0.5-0.1c0.1,0.3,0.3,0.4,0.3,0.9
		C28.7,104.8,27.9,106.7,27.5,105.1z M33.2,152.7c-1.8,0-2.2,0.8-4-0.1c0.3-5.3,3.3-1.8,4.9-0.5l0,0
		C33.7,152.3,33.4,152.5,33.2,152.7z M36.5,155.5c-0.8-0.4-1.7-0.3-2.8,0c0,0,0,0.1-0.1,0.1c-0.1-0.4-0.1-0.6-0.1-0.8l0.1,0
		c0-0.2,0-0.3,0-0.5c0.2-0.1,0.5-0.3,0.8-0.4c1,0.1,1.8,0.7,2.4,1.6c-0.1,0-0.2,0-0.4,0L36.5,155.5z M35.2,102.6
		c-0.3,0.1-0.3,0.5-0.7,0.6c0-0.5,0-1,0-1.5l0.7,0c0.1,0.4,0.1,0.7,0.3,1.1L35.2,102.6z M36.2,102.1c-0.2,0-0.4,0-0.6,0
		c-0.1-0.2-0.2-0.5-0.1-0.7l0-0.2c0.2-0.1,0.3-0.1,0.5,0c0.1,0.2,0.3,0.4,0.3,0.7L36.2,102.1z M37.4,106.3
		C37.8,104.6,36.2,110.2,37.4,106.3L37.4,106.3z M40.4,105.8c-0.1-0.3-0.1-0.6-0.3-0.5c0,0.4,0,1-0.4,1.1c-0.3-1.3,1.3-2.4,1.3-1.5
		C40.7,104.8,40.8,105.7,40.4,105.8z M82.7,93.5c0,0.5,0.3,0.6,0.4,1c-0.5,0.1-0.4,0.7-1,0.5C82,94.2,82.3,93.7,82.7,93.5z
		 M60.1,94.2c-0.3,0.4-0.8,0.5-1.4,0.5l0-0.3c0,0,0.1,0,0.1-0.1l0.2-0.4l0,0.2C59.7,94.3,59.9,93.3,60.1,94.2z M59.7,91.1
		c-1,0,0.9,1.5-0.6,1.1l0,0.4c-0.3-0.4-0.6-0.7-1-0.9c-0.5-0.2-0.7-0.5-0.8-0.9c0-0.1,0.1-0.1,0.1-0.2C58.1,90.7,59.5,90,59.7,91.1z
		 M58.2,86.8L58.2,86.8c0.4,0.3,0.7,0.5,0.8,1.1c-0.2,0.1-0.3,0.4-0.6,0.5c-0.1-0.2-0.1-0.4,0-0.7C58.2,87.4,58.3,87.1,58.2,86.8z
		 M56.1,81.2L56.1,81.2c0,0.1,0,0.3,0,0.4c-0.1,0-0.3,0-0.4,0c-0.4,0-0.9-0.1-1.4,0.6l-0.1,0.3c0,0.3-0.1,0.5-0.3,0.7
		c-0.6-0.6-1.3-1.2-2.3-1.5c0-0.2-0.1-0.3-0.1-0.4C52.8,80.3,54.7,80,56.1,81.2z M45,92L45,92c0.1-0.2,0.1-0.3,0.1-0.5
		c0.6-2.1,1.5-1.3,2.1-2.6c-0.6-0.4-1.3-1-1.1-2.6l-0.1,0c0.3-0.2,0.7-0.4,1-0.4c0.1,0.4,0.1,0.8,0.1,1.3c0,0.7,0,1.5,0.3,2.3
		c0.1,0.1,0.2,0.2,0.3,0.2c0.1,0,0.1,0,0.2-0.1c0.2-0.2,0.2-0.5,0-0.7c-0.3-0.5-0.2-1.1-0.3-1.7c0-0.5,0-1-0.1-1.6
		c0.4-0.4,0.9-0.5,1.4-0.7c0.5-0.2,1.1-0.3,1.6-0.7l0,0.1c1.4-0.1,0.8,0.3,0.4,1c1.8-0.5,2.8,0.7,3.5-1l-0.1,0
		c0.3-0.4,0.5-0.8,0.7-1.3c0.2-0.2,0.4-0.2,0.8-0.1c0.3,0,0.6,0,0.8-0.1l0,0.1c1.2-0.3,1.6,0.4,2.4,0.6c0.2,1.6-1.1,1.3-0.3,2.6
		c-0.9-0.1-1.4,0.2-1.7,1c0.2,0,0.5,0,0.7,0l0.1-0.1c0.1,0.3,0.1,0.6,0.1,1c0.1,0.4,0.1,0.9,0.3,1.3L58,89.2c-0.5,0-0.9-0.1-1.1,0.5
		l0.2,0.1c-0.2,0.3-0.3,0.6-0.4,1l0,0.1l0,0.1c0.2,1,0.8,1.3,1.2,1.6c0.3,0.1,0.5,0.3,0.7,0.6l-0.3,0.5c0,0.1,0,0.1,0,0.2
		c-0.2,0.1-0.4,0.1-0.6,0.2c-0.1,0.1-0.2,0.1-0.3,0.1c-0.1-0.8-0.8-1-1.5-0.9c-0.5-0.6-1-1.2-1.4-1.5l-0.1,0
		c-0.1-0.6-0.2-1.4-0.9-1.1c0.1,0.6,0.4,0.9,0.8,1.3c0,0.1,0,0.2,0.1,0.3c0.5,0.3,0.9,0.9,1.3,1.5l0,0.1c-0.4,0.7-1.7,0.7-2.1,0
		l-0.1,0.1l0-0.1c0-0.1-0.1,0-0.2-0.1c-0.1-0.4-0.1-0.7-0.2-1L53,92.5l-0.2-0.1c-0.3-0.1-0.7-0.1-1-0.2l-0.2,0
		c-0.2,0-0.4,0.3-0.4,0.6c0,0.3,0.1,0.6,0.4,0.6l0.2,0c0.2,0,0.5,0,0.7,0c0,0.1,0.1,0.3,0.1,0.4c0,0.1,0,0.2,0,0.3
		c-1.2,0.7-2.5,0.7-3.9,0.6c-0.4,0-0.8-0.1-1.1-0.1c-0.1-0.2-0.1-0.5-0.1-0.8c0-0.2-0.2-0.3-0.3-0.3s-0.2,0.2-0.2,0.4
		c0,0.3,0.1,0.5,0.1,0.7l0,0c-0.5-0.2-0.6-0.9-1.1-1.1l0,0.3C45.6,93,45.3,92.3,45,92z M57.4,96.2c0-0.5,0-1,0-1.5l-0.2-0.1
		c0.2-0.1,0.3-0.1,0.5-0.2c0.2-0.1,0.4-0.1,0.6-0.2l0,0l0.1,0l0,0.3C57.6,94.6,58,96.2,57.4,96.2z M56.7,99.9c0-0.9,0.3-1.3,0.7-1.6
		C57.9,99.1,57.9,100.3,56.7,99.9z M43.9,101.7c0.1-1.8,1.8-1.4,3.1-1.5l0.1-0.2c0.3,0.5,0.6,0.8,0.9,1.1l0.1,0l0,0.1
		c0,0.2,0,0.3,0,0.5l-0.2,0c-0.6,0.1-1.1,0.2-1.6,0.3C45.7,100.5,44.6,102.9,43.9,101.7z M48,99.3c0-0.1,0-0.3,0-0.4
		c0.3-0.2,0.6-0.2,1-0.1l0.1,0c-0.2,0.4-0.5,0.6-0.8,0.8C48.2,99.5,48.1,99.4,48,99.3z M46,103.4c0.1,0,0.1,0.1,0.2,0.1l0,0
		c0.6-0.1,1.2-0.1,1.8-0.3l0.4-0.1l0,0.2c0.4-0.1,0.6,0.1,0.6,0.3l0,0.1c0,0.1-0.1,0.3-0.1,0.4C48,103.5,45.4,106.3,46,103.4z
		 M51.4,165.4c-0.4-0.2-0.4-0.6-0.6-1.4c-0.1-0.4-0.1-0.8-0.3-1.2l0.1,0c0.8-0.1,1.3,0.1,1.8,0.5l0.2-0.1c-0.1,0.3-0.2,0.5-0.4,0.8
		C51.7,164.3,51.4,164.7,51.4,165.4z M49.5,103.4L49.5,103.4c0.3,0.8,1.7-0.1,1.8,0.9c-0.6,0.2,0.3,0.9-0.4,1
		c0.1-1.5-1.3,1.3-1.4-0.5l-0.2,0.1c0.1-0.4,0.1-0.7,0.2-1c0-0.1,0-0.2,0-0.3C49.5,103.6,49.5,103.5,49.5,103.4z M52.5,165.3
		c-0.3,0-0.6,0-0.9-0.1c0.1-0.4,0.3-0.7,0.5-1.1c0.1-0.2,0.2-0.5,0.4-0.7l0,0.2c0.4,0,0.2,0.6,0.4,1l0.1,0
		C52.9,165,52.7,165.2,52.5,165.3z M54.6,104.5c-0.7,1-1.8,0.1-2-1.1c1.1,0.6,1.8,0.7,2,0.8C54.6,104.3,54.6,104.4,54.6,104.5z
		 M54.9,98.3c-2.3-0.5-3.8-2.3-5.9-0.1c-0.1,0-0.1,0-0.2,0c-0.5,0-0.9-0.1-1.4,0.3l0-0.3c-0.1-0.4-0.3-0.5-0.4-1
		c0.4-0.1,0.2-0.9,0.3-1.5c0,0,0,0,0.1,0c0.3,0,0.6,0,0.9,0.1c0.3,0,0.6,0,0.9,0.1c1.1,0,2.3-0.1,3.3-0.7l0.1,0.1l0,0.1
		c0.7,1,2.9,0,3.1,1.6C55.2,96.7,54.8,97.1,54.9,98.3z M57.8,105c-0.6-0.7-1.1,0.9-2.5-0.1l-0.1,0.1c0-0.3,0.1-0.5,0.1-0.7
		c0-0.1,0-0.2-0.1-0.3l0,0c1-1.2,2,0.4,3-0.4c0,0.2,0,0.4,0,0.6C58.2,104.5,58.2,105,57.8,105z M59.5,180.3L59.5,180.3
		c0-0.2,0-0.4,0-0.5c0.6,0,1.3-0.2,1.4,0.5l0,0C60.4,180.7,60,180.7,59.5,180.3z M61.3,102c-0.4,1.3,0.2,1.6-0.3,2.1
		c-0.7-1.6-0.9,1.3-2,0.5l-0.1,0c0.1-0.3,0.1-0.7,0.1-1c0.8-0.3,0.7-2,1.7-2.1l-0.1-0.2c0.2,0.1,0.5,0.1,0.7,0.1s0.3-0.1,0.5-0.2
		l0,0.2C62.5,101.9,61.8,103,61.3,102z M64.7,98.4l0.1-0.1c0,0.1,0.1,0.2,0.1,0.2c0.2,0,0.3,0,0.5,0c0.4,0,0.8,0,1.2-0.2l0,0.2
		c0,0.2,0,0.3,0,0.5l0.1,0.1c-0.2,0.1-0.3,0.3-0.5,0.4C65.3,99.6,64.8,99.2,64.7,98.4z M65,96.3c0.8-0.4,1.5-0.7,2-0.5
		c0.1,0.3,0.1,0.7,0.2,1l-0.1-0.1c-0.2,0.4-0.8,0.3-0.9,0.7c-0.3,0.2-0.8,0.1-1.2,0.1C64.7,97.6,65.1,97.1,65,96.3z M66.5,101
		L66.5,101L66.5,101c0.2-0.2,0.3-0.4,0.5-0.5c0.2,0,0.4,0,0.6,0c-0.1,0.9,0.6,1.3,0,1.5c-0.3-1.2-1-0.1-0.3,0.5
		C66.3,102.6,66,101.7,66.5,101z M72,177.1c0,0.1,0,0.2,0,0.4c-1.4,0.2-1.9,1.5-3.1,0.5c1.2-0.1-1.4-1.6,0-2.1
		c0.7,1.8,1.6-0.7,2.4-0.4C71.6,176.3,71.8,176.8,72,177.1C72,177,72,177,72,177.1z M72.7,177.9l-0.1,0.1c0-0.2,0-0.4,0.1-0.6l0,0
		c1.8,0.3,2.3-1.8,3.5,0C74.9,178.6,74,179.8,72.7,177.9z M76.8,94.4c-0.9,1.3-2.3,2-3.5,0.5c1,1.8-1.1,0.7-1.7,0.5l0,0.2
		c-0.4,0-0.6-0.3-0.9-0.7c-0.2-0.2-0.4-0.4-0.5-0.5c-0.1-0.1-0.2,0-0.3,0.1c0,0.2,0,0.3,0.1,0.4c0.2,0.1,0.4,0.3,0.4,0.5
		c0.3,0.3,0.5,0.6,0.9,0.8c0.2,0.4,0.2,0.7-0.1,0.8c-0.1-0.7-2.7,0.6-3.4-0.4c-0.1-0.4-0.1-0.8-0.3-1.1l-0.1-0.2l-0.1-0.1
		c-0.7-0.5-1.6-0.4-2.8,0.4l0-0.1c-0.5,0-0.9-0.1-1.4,0c0,0.7,0,1.4,0,2.1c-1.4-0.7-0.7,1.7-2.1,1c0.6,0.9,0,0.7,0.1,1.9
		c-0.1,0-0.3,0-0.4,0c-0.8-2.6,1.7-2.9,2-5.3C63,95,63.2,95,63.3,95c0.4,0,0.9,0.1,1.2-0.6c0.1-0.2,0-0.4-0.1-0.5
		c-0.1-0.1-0.3-0.1-0.3,0.1c-0.1,0.4-0.4,0.4-0.8,0.3c-0.3,0-0.6,0.1-0.9,0.2l0-0.2c-0.6,0.9-0.5,0-1.4,0c0.5-2.4,2.6-1.2,4.2-0.9
		c-0.4-0.7-0.1-0.8,0-1.5l0-0.1l0.4,0.6c0,0.1,0.1,0.1,0.2,0.1s0.1,0,0.1-0.1c0.1-0.1,0.1-0.3,0-0.4l-0.4-0.6l0.1,0
		c0.7-0.5,1.3,0.5,2.1,1.5c0.5-1.4,1.9-1.1,2.1-1.6c0-0.3,0-0.7,0-1l-0.1,0c0.2-0.5,0.7-0.9,1.2-1.1c0.1-0.1,0.3-0.2,0.4-0.3l0,0
		c0.1,0,0.1,0,0.2-0.1l0.3-0.3c0.4,0.4,0.3,1.1,0,2.1c1.5,0.6,3.2,1.7,4.1-0.4c0.2,0.7,0.6,1.3,0.7,2.1
		C75.2,92.3,76.8,93.8,76.8,94.4z M78.4,89.8c1.7-0.4,1.1,0.9,2.4-1c0.1,0.7,0.6,0.8,0.8,1.6C79.4,92,80.2,91.5,78.4,89.8z
		 M85.7,180.7c-1.1,0.4-0.8-1.4-1.4-1.6c0.3,1.7-0.7,0.8-0.7,0c1.2-0.1,1.3-0.8,2.5,0.1C86,179.8,85.9,180.3,85.7,180.7z M151,57.2
		C151.3,60.3,149.4,57.5,151,57.2L151,57.2z M145.9,64.4c0.7-0.2,1.5-2.4,3.1-2.5c0.6,1.4,1.8-0.1,1,1.6c0.8-0.2,0.9,0.4,1.4,0.5
		c0.3-0.4,0.2-1.4,0.7-1.6c0,0.3,0,0.7,0,1c0.3-0.1,0.4,0.2,0.3,0.5c-2.5,1-5.1,2-6.6,1l0,0C145.9,64.7,145.8,64.6,145.9,64.4
		L145.9,64.4z M149.9,86.6c-0.1-0.2-0.2-0.4-0.2-0.6l0.2,0.1C151.3,85.8,151.4,86.9,149.9,86.6z M149.6,87.2l-0.2-0.1
		c-1.9,0.4-2-0.8-0.1-0.5C149.4,86.8,149.5,87,149.6,87.2L149.6,87.2z M147.3,81.4c0.7,2-1.6,2-1.7,1
		C146.6,82.9,145.9,80.6,147.3,81.4z M142.4,56.6c0.5,0.4,1.1,0.6,1,1.5C142.9,57.5,142.5,57,142.4,56.6
		C142.3,56.6,142.4,56.6,142.4,56.6z M139.8,57.6c0.2,0,0.5,0,0.7,0c0,0.3,0,0.7,0,1c-0.4,0.1-0.7-0.1-0.7-0.5l0,0
		c-0.1-0.2-0.1-0.4-0.1-0.6L139.8,57.6z M136.1,57.2c0.4-0.1,0.9-0.1,1.3-0.2c1.2-0.5,1.1,1,1.9,1c0.1,0.1,0.1,0.2,0.2,0.3
		c0,0.1,0.1,0.1,0.1,0.1l-0.1,0.1c-0.9-0.1-1,0.8-2,0.5l0,0.1c-0.2,0-0.4-0.1-0.7-0.1l-0.1,0c-0.7-0.9-1.4-0.6-1.6-1
		c0-0.2-0.1-0.5,0-0.7C135.4,57.4,135.7,57.3,136.1,57.2z M134.5,57.5L134.5,57.5L134.5,57.5c0.1,0.3,0.1,0.5,0.1,0.8
		c0,0.1,0.1,0.1,0.1,0.1l0,0.1c-0.7,0.2-0.9-0.2-1-0.9C133.9,57.6,134.2,57.4,134.5,57.5z M107.8,60.2L107.8,60.2c0.1,0,0.1,0,0.2,0
		c0.1,0,0.3,0,0.5,0c0.4,0,0.8,0,1.2-0.1l0,0.1c2.8,0.8,7.6-0.8,10.1-0.4c-0.6,1.3,1.2,1.5,1,0.6c-0.2-0.8-0.6-1.3-0.7-2.1L120,58
		c0.4,0,0.8,0,1.1-0.1c0.7-0.2,1.2-0.1,1.8,0c0.6,0.9-0.6,2.6,0.7,1.4l0.2-0.1c-0.2,0.6-0.1,1.3,0.1,1.9c0.1,0.4,0.1,0.8,0.1,1.2
		c0,0-0.1,0.1-0.1,0.2c-0.1,0-0.3,0-0.4,0.1l-0.1,0.1l0,0.1c-0.1,0.5,0.1,1.1,0.3,1.6c0,0.1,0.1,0.1,0.2,0.1l0.1,0
		c0.1-0.1,0.1-0.3,0.1-0.4c-0.2-0.3-0.2-0.7-0.3-1c0.1,0,0.2,0,0.2-0.1l0.1,0.1c0.3,0.1,0.5,0.3,0.6,0.6c0.2,0.2,0.4,0.5,0.7,0.6
		l0.1,0c0.1,0,0.2-0.1,0.3-0.3c0.1-0.2,0-0.5-0.1-0.6c-0.2-0.1-0.4-0.3-0.5-0.5c-0.3-0.2-0.4-0.4-0.7-0.6c0-0.5,0-1-0.1-1.4
		s-0.1-0.7-0.1-1c0.5,0.4,1.4-0.5,2.6,0c0.2,2.6,1.6,0.2,2.5,1.6l0.1-0.1l0,0c-0.1,0.6-0.3,1.1-0.3,1.4c0,0.1,0,0.2,0,0.3
		c0,0.2,0.1,0.4,0.2,0.5l0.1,0c0.1,0,0.2-0.1,0.2-0.3c0-0.1,0-0.2,0-0.3c0-0.3,0.1-0.6,0.2-0.9c0.1,0.1,0.2,0.2,0.3,0.3
		c0.1,0.5,0.3,0.9,0.6,1c-0.3-1.4,1.7,0.4,1.4-1c-0.1-0.9-0.6-1.1-1.5-1l0,0.1c-0.2-0.2-0.3-0.4-0.4-0.6l0.1,0
		c1.1-0.7,3.3-0.7,4.2,1.6c0.5-1,2.2-0.4,2.4-1.9l0,0c0.1,0,0.2,0,0.4,0c0.1,1.9,2.1,1.8,2.8,1c0,1.3-0.7,1.6,0.4,2
		c0.1-2,1.7,0.5,2.4-1c-0.2,2.1,1.4,1.2,2.1,2c0,0,0,0,0,0.1c-1.2,0.4-3.6,1.2-6.2,1c0-2.2-0.9-0.1-2-0.5c-0.4-0.4-0.8-1-1.2-1.1
		l-0.1,0l-0.1,0.1c-0.1,0.1-0.2,0.1-0.3,0.2c-0.2,0.1-0.5,0.3-0.8,0.4l-0.1-0.3c-2.1,1.2-5.5,0-7.2,3c0.9,0.8,1.7,1.3,2.1,1.5
		c-1.4,1.7-3.2,1.7-4.5,1c0.7-0.9,0.8-2.4,1.3-3.6c-1.9-0.6-2.5,0.2-4.2,1l0.1,0.1c-0.1,0-0.3-0.1-0.4-0.1l0,0
		c-2.5-1.5-4.5,0.6-7.7,0.9c-0.9-0.8-0.9-1.5-1.1-2.1c-0.3,1.3-1.2,1.6-1.7,2.6l0,0.1l-0.1-0.1c-0.1,0-0.2,0-0.3-0.1
		c-0.3-0.8-1.5-0.8-0.7-2c-0.5,0.6-0.8,0.5-1-0.6c0.5-0.8,1.5-0.9,1.7-2l0-0.1c0.3,0,0.6,0,0.9,0.1c1.1,0,2.2-0.2,3.5-0.7
		c0.2-0.1,0.4-0.4,0.3-0.8c-0.1-0.3-0.2-0.6-0.5-0.4c-1.6,0.5-2.8,0.7-4.2,0.5c0,0,0,0-0.1,0c-1.5-0.9-2.3-0.9-4.7-0.7
		C105.5,59.4,107.6,62.5,107.8,60.2z M143.8,85.5c-0.8,0.1-1.3-0.1-1.8-0.5c0-1.6,1.3-1.6,2-2.1C144.5,84.4,143.6,84.3,143.8,85.5z
		 M137.2,85.4c0-0.9-0.1-1.6-0.4-2c0.2,0,0.5,0,0.7,0c0.2,0,0.4,0.1,0.3,0.5C137.2,84,138.4,85.3,137.2,85.4z M137,167.9
		c-0.7,0.6-1.7-0.8-0.7-1c0.2,1.8,0.6-2.2,1,0C137,167,136.9,167.4,137,167.9z M136.2,66.9L136.2,66.9c-0.2,0.1-0.4,0.2-0.5,0.3
		c-0.3,0.1-0.4,0.5-0.3,0.8c0.1,0.3,0.3,0.5,0.4,0.5l0.1,0c0.2-0.1,0.4-0.2,0.6-0.3l0,0l0,0.1c0.4-0.1,0.7,0.1,0.7,0.5
		c-1.1,0.3-0.7,0.4-1.7,0c0,0.7,0,1.4,0,2.1c-0.5,0-1,0-1.4,0c0.4-1.6,0.2-2-0.4-3.1c0.3-0.7,0.7-1.2,0.9-2c0.2-0.1,0.3-0.2,0.5-0.3
		c0.1-0.1,0.2-0.1,0.3-0.2c0.3,0.1,0.5,0.5,0.8,0.9l-0.1,0.1c0,0.2,0,0.3,0,0.5L136.2,66.9z M135.4,99.9c0-0.3,0-0.7,0-1
		c0.1-0.5,1.5-1.3,1.4-0.5C136.1,98.5,136.5,100.3,135.4,99.9z M134.7,80.3c0-1.5,1.8-3.1,2.1-2.6c-1,0.4,1,1,0.4,2.6
		C136.5,81.2,135.9,79.7,134.7,80.3z M130.1,80.2c-0.2-0.3-0.2-0.6-0.3-0.9c-0.1-0.1-0.2-0.2-0.3-0.1c-0.1,0.1-0.1,0.3-0.1,0.4
		c0.2,0.4,0.3,0.8,0.6,1.2l-0.2-0.1c-0.4,1.2-2.4,0.4-2.4-0.6c0.2,1.1-0.4,1-0.9,1c0-0.1,0.1-0.1,0.1-0.2c0-0.7-0.1-1.1-0.3-1.4
		l-0.1-0.2l-0.1,0c-0.4-0.1-0.8-0.1-0.9-0.1c0,0,0-0.1-0.1-0.1l-0.2,0c-0.1,0-0.3-0.1-0.5-0.1c1.8-1.3,2.7,0,4.7-1.4
		c0.8,1,2.1,0.9,2.5,2.6C131.1,80.1,130.6,80.2,130.1,80.2z M126,81.2c-0.4,0.1-0.8-0.1-0.8-0.4c0-0.2,0-0.4,0-0.6l0,0
		c0.2-0.1,0.4-0.1,0.6-0.1c0.1,0.2,0.1,0.4,0.1,0.7C125.9,81,125.9,81.1,126,81.2z M123.8,79.9c0.3,0.1,0.6,0.2,0.7,0.3
		c0,0.2,0,0.4,0,0.6c0,0.1,0.1,0.2,0.2,0.2l0,0.1c-0.4,0-0.7,0-1,0c-0.1-0.6,0.1-0.9,0.4-1L123.8,79.9z M128.4,75
		c-0.5,0.2-0.6,0.8-1.4,0.5C126.3,74,128.4,74,128.4,75z M131.7,86.9c-0.3-0.1-0.7,0-0.7-0.5c0.5,0,1,0,1.4,0c0.5,1.5-1.4,2.2-1.7,1
		C131.1,87.3,131.6,87.5,131.7,86.9z M121.6,70.8c-0.6-0.2-1.5-0.2-1.4-1.6c0.4,0.1,0.6-0.1,0.7-0.6l0-0.1l0.1,0.1
		c0.1,0,0.2,0.1,0.3,0.1C121.2,69.7,121.6,70.1,121.6,70.8z M113.9,89.8c-0.1-0.2-0.2-0.5-0.1-0.9c0-0.1-0.1-0.1-0.1-0.2
		c1.4-0.4,1.2,1.3,2.1,1.5l0-0.2c0.1,0.1,0.2,0.1,0.3,0.2c0.2,0.1,0.4,0.3,0.5,0.5l-0.1-0.1c-1.4-0.2-1.4,0.7-2.5-0.1
		c0-0.3,0-0.7,0-1L113.9,89.8z M116.1,89.7L116.1,89.7c0.3-0.5-0.1-2,0.5-2.1c0.2,0.3,0.9,2.5,0,2.6
		C116.6,90.1,116.3,89.9,116.1,89.7z M111.9,91.3c-1.5,0.3-1.6-0.4-1.7-1c-0.5,0.9-1,1.7-2.3,1.5c-0.1-0.2-0.2-0.4-0.2-0.6
		c-0.2-0.3-0.2-0.6-0.3-1c0-0.2,0-0.3,0-0.5c1.4-1.3,4.1-0.8,5.8-0.4c0,0.2,0.1,0.4,0.1,0.6l0,0C113.2,92,110.8,89.2,111.9,91.3z
		 M110.1,70.5c0.1,0,0.3,0.1,0.4,0.1l0,0c0.4,0,0.2,0.6,0.4,1c-0.9,0-1.7,0.1-1.7-1C109.4,70.6,109.8,70.6,110.1,70.5L110.1,70.5z
		 M105.3,73.7c-0.4,0.5-0.9,0.6-1.7,0.5C103,72.6,105.4,72.8,105.3,73.7z M101.3,82.8c0-1.3,0.5-2,1.4-2c0.9,3.6,3.5-0.6,4.9,2.1
		c-4.2,2.6-6.9,0.5-10.1,2.4c-0.1-0.8,0.3-0.9,0.3-1.6l-0.1-0.1c0.8-0.2,1.8-0.8,2.5-1.9C101,81.7,100.8,82.8,101.3,82.8z
		 M101.1,91.1c2.5,1.6,2.3-3.3,3.8-1.4l0.5-0.3l-0.1,0.8c0.6-0.2,0.6,0.5,1,0.6l0-0.1c0.2,0.4,0.2,0.8,0.4,1.2
		c0.1,0.2,0.2,0.3,0.2,0.5c-0.5,0.6-2.8,0.4-3.3-1.2C103.1,92.6,101.7,92.1,101.1,91.1z M103.3,95.3c0,0.3,0,0.7,0,1
		c-0.2,0-0.5,0-0.7,0c0-0.3,0-0.7,0-1C102.8,95.3,103,95.3,103.3,95.3z M99.1,94.2c-1.6,0.8-3.1-1.3-3.1,0.9c0,0,0,0-0.1,0
		c-0.1-0.6-0.5-0.7-0.7-1.4L95.2,93c1.3-1.2,3.1-2.6,4.2,0.1C98.5,93.2,99,93.5,99.1,94.2z M95.7,96.7L95.7,96.7
		c0.1-0.1,0.3,0,0.4,0l0,0c-0.1,0.9,0.4,1.1,0.3,2c-1.2,0-2.8,0.2-3.2-1.1C94.2,96.5,94.7,97.5,95.7,96.7z M92.8,93.1
		c0.2-0.2,1.3-1.2,1.4,0l0,0.5C93.7,92.3,93.2,94.5,92.8,93.1z M98.4,76.1c0.4,0,0.7,0,1,0c0,0.3,0,0.7,0,1c-0.4,0-0.7,0-1,0
		C98.5,76.8,98.4,76.4,98.4,76.1z M95.8,68.4c0-0.2,0-0.4,0.1-0.7c0.6-0.9,1.4,0.1,1.6,1.1c-0.6,0-1.1,0-1.7,0l-0.1,0.1
		C95.8,68.7,95.8,68.6,95.8,68.4z M99.9,81.3c-0.5,0.8-1.3,1.3-2,1.6l0,0c-1.2,0.6-1.5-0.4-2.1-0.5C97,80.7,97.7,81.7,99.9,81.3z
		 M94,62.1L94,62.1c0.2,0.1,0.5,0.3,0.6,0.4c0,0,0,0,0.1,0l0,0.1c0,0.2,0,0.3,0,0.5C94.1,63.5,93.2,62.1,94,62.1z M95.1,67.3
		l0.1-0.1c0,0.3-0.1,0.6-0.2,0.9c0,0.1,0,0.2,0,0.3c-0.1,0.2-0.1,0.6-0.2,0.9c-0.4,0-0.7,0-1,0C93,67.9,94.2,65.9,95.1,67.3z
		 M94.9,72c-0.5,2.5-1.9,0.7-3.1,2C92.3,72.6,93.4,71.9,94.9,72z M91.2,69.3c0.6,0,1.2-0.2,1.3,0.6c-0.7-0.3-0.9,0.3-1.4,0.5
		C91,70,91,69.6,91.2,69.3z M94.6,77.1c0,0.7,0,1.4,0,2.1c-1.4-1.1-2.5,0-3.8,0.4C91.3,77.7,93.7,78.4,94.6,77.1z M88.8,64.1
		c0-0.6,0.7-0.4,0.6-1.1l0,0c0.1,0,0.3-0.1,0.4-0.1l0,0.1c0.4,0,0.2,0.6,0.4,1c0.1,0.4-0.1,0.5-0.3,0.5
		C89.9,63.1,87.7,65.4,88.8,64.1z M87.9,71.9c0-0.3,0-0.7,0-1l-0.1,0c0.1-0.4,0.2-0.9-0.2-1.7l0.3,0.1c1.4,0.9,2.2-3,2.4-0.4
		l0.1-0.1c0,0.5-0.2,1.1-0.1,1.6l0,0C89.4,71.6,89.1,70.9,87.9,71.9z M89,75l-0.2,0.1c0-0.1,0.1-0.3,0.1-0.4c0-0.1,0.1-0.3,0.1-0.4
		C89.8,73.1,89.7,76.7,89,75z M89,78.1c0,0.7,0.1,1.4-0.3,1.6l0,0.2c-0.1-0.1-0.1-0.1-0.2-0.2c-0.1,0-0.1-0.1-0.2-0.2
		C88.4,78.7,88.6,78.3,89,78.1z M88.4,82.7c0.7,0,0.7-0.7,1.4-0.5c0.1,0.6-0.1,0.9-0.4,1l0,0c-0.2,0-0.4,0-0.6-0.1
		c-0.2,0-0.3-0.1-0.5-0.1C88.4,83,88.4,82.8,88.4,82.7z M85.6,79.6c1.2-0.4,1.5,1,2.1,0l0.1-0.1c0.1,0.3,0.3,0.5,0.5,0.7l0,0
		c-0.2,0.9-1.7,0.1-2.4,0.3L85.8,81c-0.1-0.4-0.2-0.9-0.4-1.4L85.6,79.6z M86,101.7c0-0.7-0.6-0.4-0.7-1c0.5-0.2,0.6-0.6,1,0
		C86.3,101.2,86.3,101.8,86,101.7z M85.7,83.2c0.6,0,1.3-0.2,1.4,0.5l0,0c-0.3,0.2-0.5,0.5-0.7,0.7l-0.1-0.2
		C86.1,84,85.7,83.8,85.7,83.2z M86.4,89.9c0.7-1.6,1-2.7,0.6-4.8c0.2-0.2,0.3-0.5,0.6-0.6l0.1,0.2c0.2-0.1,0.3-0.2,0.4-0.4
		c0,0,0,0,0.1,0c0.2,0,0.4,0,0.6,0.1c0.3,0,0.5,0.1,0.8,0.2l0,0.1c0.2,2.8,0,5.1-1.4,3.1c-0.2,2.2,1,2.1,1.4,3.1
		c-0.7-0.1-1,0.1-1,0.9c-0.1,0-0.1,0-0.2,0.1C87.8,91.3,86.7,91.3,86.4,89.9z M88.7,95.1c-0.2-1-1.1-1.1-0.3-2l0,0
		c0.1,0,0.1,0.1,0.2,0.1c0,0,0,0,0.1,0c0.2-0.1,0.3-0.1,0.5-0.2l0,0.2c0.1,0,0.2,0,0.4,0C89.3,94,89.2,94.7,88.7,95.1z M91.2,181.3
		c0.6-1.2,1.1-0.6,2-2.1c0.1,0.6,0.7,0.4,0.7,1c-0.7,0.2-0.1,2.3-1,2l0,0.1c-0.2,0-0.5-0.1-0.7-0.1l-0.1,0
		C92.2,181.6,91.3,182.2,91.2,181.3z M93.4,186.2c0.1-0.1,0.2-0.3,0.3-0.5l0.1,0.2c0,0.3,0.1,0.4,0.3,0.5c0,0.1,0.1,0.2,0.1,0.4
		c0,0.1,0.1,0.1,0.1,0.2l0,0l0,0.1c-0.2,0-0.3-0.1-0.5-0.1c-0.2,0-0.5-0.1-0.7-0.1C93.2,186.6,93.2,186.4,93.4,186.2z M92.9,185.3
		c-0.2,0.2-0.3,0.4-0.5,0.7l0,0l-0.6,0c-0.1-0.6-0.1-1.2,0-1.7c0.1-0.1,0.2-0.3,0.4-0.3l0,0c0.1,0,0.3,0,0.4,0
		C92.5,184.6,92.8,184.8,92.9,185.3C93,185.2,93,185.3,92.9,185.3z M94.5,190.6c-0.8-0.8-2.2-0.5-2.8-1.6l0,0.2
		c-0.1-0.2-0.2-0.3-0.3-0.5c0-0.2,0.1-0.3,0.1-0.6l0-0.1l0.8,0.1c0.1,0,0.1-0.1,0.2-0.2c0.4,0.2,0.6,0.3,0.9,0.4
		c0.2,0,0.4,0,0.6,0.1l0,0.1C95,188.9,94.8,190.2,94.5,190.6z M100.4,190.2c-0.3,1.2-2.1,1.4-2.8,0.5c-0.1-0.8,0.3-0.9,0.3-1.6
		c0.5-0.2,1-0.2,1.4-0.3C99.5,189.6,100.9,188.4,100.4,190.2z M118.2,194.6c-0.1-0.1-0.1-0.2-0.2-0.3c0-0.6,0.1-1.1,0.2-1.4l0.1,0.1
		c0.1,0,0.2,0,0.4,0c0.1,0.7,0.6,0.8,0.8,1.6l0.1,0.1C119.1,194.8,118.6,194.8,118.2,194.6z M117.9,192.7L117.9,192.7L117.9,192.7
		L117.9,192.7z M120.5,186.4c-0.2-0.1-0.4-0.1-0.5-0.2c-0.3-0.1-0.5-0.1-0.6-0.3c-0.1-0.1-0.3,0-0.4,0.2c-0.1,0.2,0,0.4,0.2,0.5
		c0.3,0.2,0.5,0.3,0.8,0.4c0.1,0,0.3,0.1,0.4,0.2l0,0l0,0.2c0,0.1,0,0.1,0,0.1c0,0.2,0,0.5,0,0.7l-0.4,0c-0.2,0-0.4,0.3-0.3,0.6
		c0,0.3,0.2,0.5,0.3,0.5l0.4,0c0,0.5,0,1,0,1.5c-0.6-0.1-0.6,0.5-1.1,0.5c-0.3-0.5-0.7-1-1-1.6c-0.1,1-1.3,0.5-1.3,1.5
		c-0.2,0-0.3,0-0.5-0.1c-0.2-0.1-0.3,0.1-0.4,0.3c0,0.2,0.1,0.5,0.2,0.5c0.2,0.1,0.4,0.1,0.6,0.1c0.1,0,0.3-0.1,0.4-0.1l0,0.3
		c0.3-0.1,0.4,0.2,0.3,0.5l0,0c0,0.3,0,0.6-0.1,1.1c-0.4,0-0.8-0.2-1.1-0.3c-0.4-0.1-0.7-0.3-1.1-0.3c0-0.7-0.2-1.4-0.5-2
		c-0.4-0.6-1.1-0.7-1.6-0.6c-0.4,0-0.8-0.1-1-0.3l0.2-0.1c0.4-2.1,2.3,0.5,2.4-1.5c-1.4-1.1-2-3.4-3.9-1.6c0.7,1.8-0.4,3.2,0.8,4.2
		l0.1-0.4c0.4,0.5,1,0.6,1.5,0.5c0.5,0,0.9,0,1.1,0.4c0.3,0.4,0.3,0.9,0.4,1.6c-0.1,0-0.3,0.1-0.4,0.1c-0.4,0.1-0.7,0.3-1.1,0.2
		c-0.4-0.4-0.5-1.4-0.9-2c-4.2,0.5-8.2-1-10.5-5.3c-1,0-2.1-0.3-2.1,1l0.1,0.3c-0.8-0.1-1.5,0.1-2.2,0.5l0-0.3
		c-1.1-1.2-1.3-2.4-2.7-1.6c-0.1-0.3-0.1-0.6-0.2-0.9l0.1-0.1c0-0.2,0-0.3,0-0.5c1.5-0.9,5-0.7,4.1-3.5c1.4-0.2,2.2,0.6,3.2,1.1
		l0.1-0.1c0,0.5-0.1,0.8-0.1,1.1c0,0.3,0.2,0.5,0.3,0.5l0,0c0.2,0,0.4-0.3,0.3-0.6c0-0.1,0-0.4,0-0.6c1.6-1.7,4.1,0.6,6.2,0.1
		c0.3,1.4-0.5,1.4-0.3,2.6c1.6-0.5,2.6,1.3,3.5,0l-0.1-0.2c0.6,0.2,1,0.3,1.5,0.3s0.9,0.1,1.4,0.2l0.1,0c0.2,0,0.3-0.2,0.3-0.4
		c0-0.3-0.1-0.5-0.2-0.6c-0.6-0.2-1-0.3-1.5-0.2c-0.4,0-0.8-0.1-1.1-0.2c1.6-2.5,5.2-0.5,7.8,1.1L120.5,186.4z M117.7,79.8
		c-0.1,0.1-0.3,0.3-0.4,0.4l0,0l0-0.3c-0.6,0.1-0.9-0.4-1.1-1.1c0.3-0.4,0.8-0.5,1.4-0.5C117.6,78.9,117.6,79.4,117.7,79.8z M118,82
		c0.1-0.8-0.2-0.9-0.4-1.4c0.1-0.1,0.2-0.3,0.4-0.4l0,0.3c0.5,0.3,1.8-0.6,1.8,0.5C119.3,81.5,118.5,81.6,118,82z M118.9,90.3
		c0.4-0.7,1.3-0.6,1.4,0.5C119.4,91,119.1,91.8,118.9,90.3z M121.9,86.2C121.3,89.1,119.2,86.3,121.9,86.2L121.9,86.2z M122.1,81.1
		c-0.2,0-0.4,0.1-0.3,0.5c-0.2,0-0.5,0-0.7,0C120.6,80.3,122.3,80.1,122.1,81.1z M123.2,99.1c0.2-1.5,3.4-2.3,3.8-0.4
		C125.8,99.6,124.2,98.4,123.2,99.1z M127.9,87.8c0.3-0.1,0.7-0.1,0.7-0.6c-1.1-0.6-0.8-0.1-2.1,0c0.1,1.2,0,1.9-0.6,2.1
		c-0.1-0.6-0.4-0.3-0.7,0c0-0.7-0.2-1.1-0.4-1.5c1.1,0.3,1.7-0.6,1.1-1.5c2,0.7-0.3-1.7,1.3-1.5c0.1,2.7,0.1,0.4,1,0.6
		c0,1.5,0.9,1.8,1.1,3.1C128.7,88.3,128,88.5,127.9,87.8z M135.3,188c0,0.2-0.1,0.4-0.1,0.6c-0.7,0.2-0.9-0.4-1.4-0.5l0,0.2
		c-0.5-1.3-1.4-1.5-2.3-1.7c-0.3,0-0.6-0.1-0.8-0.3c1.5-2.1,2.4-1.3,4.1-1.4c0,0.6,0.1,0.9,0.3,1c0.1,0.4,0.1,0.9,0.3,1.4l-0.3,0.2
		C135.3,187.7,135.2,187.8,135.3,188L135.3,188z M152.7,189.3c-0.8,1-3.1-0.2-3.8,0.9c0.3,0.9,1.4,0.7,1.1,2.6
		c-0.8,0.3-2.5-0.7-2.8,0.5l0.1,0.3c-0.2-0.2-0.4-0.4-0.5-0.6l-0.1-0.1l-0.1,0c-0.3,0-0.5,0.1-0.7,0.3c-0.1,0.1-0.2,0.2-0.3,0.2
		c-0.1,0-0.2,0.2-0.1,0.4c0,0.2,0.2,0.3,0.3,0.2c0.2-0.1,0.3-0.2,0.4-0.3s0.3-0.2,0.4-0.2c0.1,0.1,0.2,0.3,0.4,0.4
		c0,1-0.7,0.7-0.9,1.2c-0.6,0.2-1.2,0.2-1.7,0.2c-0.5,0-1,0-1.5,0.2l0-0.2c-0.1,0-0.2,0-0.4,0c-0.2-1.1,0.6-0.8,0.7-1.6
		c-0.7,0.1-0.7-0.6-1.4-0.5c-0.5-1.6,1.2-0.4,0.6-2.1c-2.8-0.4-3,0.5-4.1,3c0.4-0.1,0.7,0.1,0.7,0.5l0.1,0.3c-0.4-0.1-0.7,0-1,0.1
		c-0.2,0.1-0.4,0.2-0.5,0.2l0,0c-0.1-0.6-0.7-0.4-0.7-1c0.4-0.1,0.3-1,0.3-1.6l-0.5,0.3l0.1-0.8c-1.7,0,0.4-2.4-0.7-3.1l-0.1,0
		c0-0.2,0.1-0.4,0.1-0.6c0.8,0.1,1.1-0.4,1-1.5c-0.6,0.1-0.7-0.5-1.1-0.5c-0.1-0.2-0.1-0.4-0.1-0.6c1.4-0.9,1.6-0.4,3.2,0.1
		c0.3,0.5,0.4,1.1,0.4,1.6c0,0.1-0.1,0.1-0.1,0.2c-0.1,0.1-0.2,0.2-0.2,0.4c-0.1,0.2,0,0.4,0.1,0.5c0.1,0.1,0.1,0.1,0.2,0.1
		c0.1,0,0.2-0.1,0.2-0.2s0.1-0.2,0.2-0.2c0.1-0.1,0.2-0.2,0.2-0.3l0.1-0.1l0-0.1c0-0.7,0-1.5-0.4-2.3l0,0c0.6,0.2,0.7-0.4,0.6-1.1
		c1.8,0.7,3.6-1.1,4.1-0.4c-0.5-0.3-0.5,2.5,0,2.1c0.4-0.1,0.3-1,0.6-1.1c1,2.7,4.6,0.3,5.6,2.7c-0.5,0-0.9-0.1-1.1,0.5
		c0.4,0.1,0.2,1,0.7,1c0.7-1.2,1.2-0.6,2.3-0.5c0.1,0.2,0.2,0.4,0.3,0.6L152.7,189.3z M158.5,188.4L158.5,188.4
		C158.6,188.3,158.6,188.3,158.5,188.4c0.2,0.6,0.3,1.1,0.4,1.6c-0.6,0.6-1.1,1.3-1.7,2l0.1,0.2c-0.5-0.3-0.8-0.3-1.1-0.2l0,0
		c-0.5-1.7-1.7-2.5-3-3.1c-0.1-0.2-0.2-0.4-0.3-0.6l0,0l0.2,0.1c0-0.5,0-1,0-1.5c0.9-0.7,3.5-0.8,2.4,0.6
		C156.8,187.2,157.9,187.3,158.5,188.4z M152.6,86.2C154.6,84.7,153.5,87.4,152.6,86.2L152.6,86.2z M156.3,80.5c-0.2,0-0.5,0-0.7,0
		c0-0.3,0-0.7,0-1c0.2,0,0.5,0,0.7,0C156.2,79.8,156.3,80.2,156.3,80.5z M167.2,90.5c-0.4,0-0.7,0-1,0c-0.1-1.1,0.3-1.7,1.1-1.5
		C167.2,89.5,167.2,90,167.2,90.5z M168.3,95.2c0.2,0,0.5,0,0.7,0c0,0.3,0,0.7,0,1c-0.2,0-0.5,0-0.7,0
		C168.4,95.8,168.4,95.5,168.3,95.2z M173.5,182.6c0,0-0.1,0-0.1,0.1c-0.3,0.4-0.7,0.3-1.2,0c-0.5-0.2-1.1-0.5-1.6-0.1
		c0.8-2.2,3.4-1.9,4-0.6C174.3,182.2,174.1,182.5,173.5,182.6L173.5,182.6z M184.5,182.4c-0.1,0-0.3-0.1-0.4-0.1
		c-0.3-0.1-0.6,0.1-0.6,0.5c-0.1,0.4,0,0.8,0.3,0.9c0.3,0.1,0.5,0.2,0.7,0.3l0,0.1c0,0.9-0.5,1.1-0.3,2.1l0.2,0.3
		c0,0.1-0.1,0.1-0.1,0.2c-0.1,0.1-0.3,0.1-0.4,0.2l-0.2,0.1c-0.3-0.1-0.5-0.2-0.6-0.4c-0.1-0.5-0.3-0.7-0.5-0.9c0.2-0.7,0-1.4-0.2-2
		c0,0,0,0,0-0.1l0.2,0.1c-0.1-1.3,0.5-1.6,0.6-2.6C183.7,181.1,185.5,181.6,184.5,182.4z M179.1,54.5c-0.9-0.8-0.2-1-0.8-1.6
		c-0.3,0.4-0.4,1.2-1,1c0.5-1.3-0.2-1.6,0.3-2.1c0.2,0.7,0.3,0.1,0.3-0.5c0.5-0.5,1.2-0.5,1.8-0.3c0.1,0.8,1.2,1.8,2.4,2.4
		c1,0.5,3.9-0.1,1.8,0.5C183,55,180.7,54.3,179.1,54.5z M188.7,189.9c-0.1-0.1-0.2-0.3-0.3-0.7c-0.1-0.2-0.1-0.3-0.2-0.4
		c0.6,0.2,1-1.1,1,0.3C189,189.4,188.9,189.6,188.7,189.9z M202.9,181.8c0.3-0.1,0.3-0.5,0.7-0.5c0.1,1,0,1.6-0.7,1.6l0-0.8
		C203,181.9,202.9,181.9,202.9,181.8L202.9,181.8z M200.5,179.6c-0.4,2.2,1.1,1.4,1.4,2.6l0,0.3c-0.6,0.1-1.1,0-1.7-0.1
		c-0.3,0-0.6-0.1-0.8-0.2c-0.1-0.2-0.1-0.4-0.1-0.7l-0.1-0.3C199.4,180.3,199.7,179.5,200.5,179.6z M192.5,181.1
		c1-0.8,2.6-0.8,3.8-1.4c0.5,0.7,0.9,1.6,1.7,2l0.1,0.3c0.1,0.3,0.1,0.6,0.1,0.8c-1.1,0.5-2.2,0.5-3.3,0.3c-0.7-0.1-1.4-0.2-2.1-0.2
		c-0.1-0.2-0.1-0.4-0.2-0.5c-0.1-0.4-0.1-0.8-0.3-1.2L192.5,181.1z M192,181.6c0.1,0.2,0.1,0.4,0.1,0.7c0.1,0.2,0.1,0.4,0.1,0.6
		c-0.3,0.1-0.6,0.1-0.9-0.1l0-0.2C191.3,181.8,191.7,181.7,192,181.6z M204.8,186.9c-1.3,0.1-2.9-1.5-3.5,0.5
		c-1.1-2.2-2.5-0.4-3.9-2.2c0.1,0.9-0.1,1.5-0.6,1.5c-0.3-0.1-0.6-0.2-0.8-0.4c-0.3-0.1-0.6-0.2-0.8-0.4c-0.8-0.8-3.8-1.3-3.6-1.3
		c-0.1,0-0.8,1.6,0-0.5l-0.1-0.1c0.2,0.1,0.4,0.1,0.7,0.1c0.2,0,0.3-0.1,0.5-0.2c0.1,0,0.1,0.1,0.2,0.1c0.7-0.1,1.3,0.1,2,0.2
		c0.6,0.1,1.2,0.2,1.8,0.2c0.8,0.1,1.4-0.2,2.1-0.7c0.1,0,0.1,0.1,0.2,0.1c0.4,0,0.8,0.2,1.1,0.2c0.5,0.1,1,0.3,1.6,0.2
		c0.3,0,0.5-0.1,0.8-0.1c0.7,1.1,1,0.9,2.5,1.6c0-0.6,0.3-0.3,0.4,0C204.8,185.9,204.9,186.5,204.8,186.9z M208.8,177.1
		c0.8-0.5,0.8-0.1,2-0.5c0,0.7,1.2,2,0.4,2c0-0.3-0.1-0.6-0.3-0.5c0,0.3,0,0.7,0,1C209.8,179.2,208.6,179.2,208.8,177.1z
		 M206.9,187.5c-0.3-0.5-0.7-1-1-1.6c0.1,0.4-0.1,0.5-0.3,0.5c-0.1-1.5,1.2-1.8,1.7-1l0,0.1c0,0.3,0.1,0.6,0.1,0.9l-0.1,0
		C207.3,187,207.1,187.4,206.9,187.5z M212.3,186.6c-0.2,0-0.4,0.1-0.6,0.1c-0.3,0.1-0.6,0.2-0.9,0.1c-0.9-1.2-1.6-0.3-2.6-0.9
		c0-0.2-0.1-0.3-0.1-0.5l0-0.1c1-1.4,2.3,0.8,3.8,0.1l0.3-0.1L212.3,186.6z M214,180.8c0.8,1.1-0.3,1.7,0.4,2.6l0,0.1
		c-0.1,0-0.3-0.1-0.4-0.1c-0.1-0.5-0.6-0.4-1-0.5C213,181.5,213.2,180.7,214,180.8z M214.6,187.1L214.6,187.1c-0.1,0-0.2,0-0.3-0.1
		c-0.4-0.2-0.8-0.5-1.4-0.4l-0.1-0.6c0.2-0.4,0.4-1.1,0.9-0.9l0-0.1c0.2,0,0.3,0.1,0.5,0.1c1.1,1.1,2.9-2.1,3,1.5
		C216.3,187.6,215.5,185.9,214.6,187.1z M225.5,180c-1.7-1.7-2.1,0-3.1-1.6c0.5-0.9,2-0.4,3.1-0.5
		C225.6,179.3,224.9,178.9,225.5,180z M234,180.5c0.6-0.1,0.9,0.5,1.1,1.1C234.4,181.7,234.1,181.3,234,180.5z M240.3,184.3
		c0.9,0.1,1.1-0.8,1.7-1C242,185.1,240.8,185.8,240.3,184.3z M241.2,180.1c1.2,0.4,0.4-2.1,1.7-1.5
		C244.3,180.1,241.9,181.7,241.2,180.1z M249.6,179.8c0-0.5,0-1,0-1.5c0.6,0.3,2-0.6,2.1,0.5c-0.3,0.1-0.7,0-0.7,0.6
		c0.2,0,0.4,0.4,0,0.5C250.8,178.5,250.3,180.4,249.6,179.8z M251,184.4c0.3-0.1,0.4-0.5,0.4-1c0.9,0,1.4,0.3,1.7,1
		C252.2,184.7,251.6,184.9,251,184.4z M254.8,64.3c-0.8,0.1-1.3-0.2-1.5-1c0.7-0.3,0.7-0.7,0.4-1.3c0.4-0.2,0.7-0.2,1,0.1
		C255.2,62.6,254.6,62.8,254.8,64.3z M255.1,61.2l0,0.2c-0.5-0.3-1.3-0.4-1.8,0.1l0-0.3C252.1,60.6,255.3,60.1,255.1,61.2z
		 M265.7,185.7c0.5-1.3-1.6-1.3-0.4-2c0.1,1.3,0.6-0.7,1.4,0C267,185.3,266.2,185.2,265.7,185.7z M262.8,62.8
		c-0.2-1.6,1.7-2.1,1.7-0.5C263.4,62.1,263.7,64.1,262.8,62.8z M269.8,180c-0.2-2,2.3-2.8,3.1-1.5C271,178.2,271.3,181.4,269.8,180z
		 M277.2,52.3l0.8,0.1l0,2.2l0,0c0,0.1,0,0.1,0,0.2c-0.9,0-0.9-1.2-1.4-1.6C276.8,53,277.1,52.8,277.2,52.3z M280.3,183.8
		c0.3-0.6,2.4-1,2.8,0C281.6,183,280.8,186,280.3,183.8z M283.3,178.7c0-0.3-0.1-0.6-0.3-0.5c0,0.4,0,1-0.4,1c0-0.8-0.9-0.3-1.1-1.1
		C281.8,177.2,284.7,177.4,283.3,178.7z M279,54.3l-0.1-1.8c0.1,0,0.1-0.1,0.2-0.1s0.2,0,0.3-0.1c0.6,0.5,1.6,0.4,1.9,1.4
		C279.9,53,279.9,55.4,279,54.3z M282,48.7c-0.5,0-0.9-0.1-1.3,0c-0.1-0.1-0.1-0.2-0.2-0.3c0-0.2,0.1-0.4,0.1-0.6
		c0.4-0.2,1.1-0.2,1.2,0.3l0.1,0.4C282,48.5,282,48.5,282,48.7L282,48.7z M298.2,52.5c-0.3,0.1-0.4-0.2-0.3-0.5l0.1,0.1
		c0.2,0.1,0.3,0.2,0.5,0.3L298.2,52.5z M331,178.8c-0.8,0.5-0.8,0.1-2.1,0.5c-0.3-2.3,1.1-2,2.1-2.6C331,177.3,331,178.1,331,178.8z
		 M350.8,177c-0.9-0.1-2.4,0.4-2.5-1.1C349.1,176.3,351,175,350.8,177z M357.4,176.5L357.4,176.5c0.4-0.2,1.3-2,1.7-0.5
		c-0.3,0-0.3,0.4-0.3,0.7c0,0-0.1,0-0.1,0.1c-0.5,0.2-1,0.2-1.3,0.1C357.4,176.8,357.4,176.6,357.4,176.5z M350.3,50.1L350.3,50.1
		C350.4,50.1,350.4,50.1,350.3,50.1c0.4,0,0.8,0.2,1.1,0.5l0,0.1c-1,0.7,0.1,1.5-1,2C350.5,51,349.6,51,350.3,50.1z M352.2,177
		c1-2,2.9-2.4,4.1-0.5c0,0.2,0,0.3,0,0.5l-0.1,0c-0.3-0.1-0.7-0.5-1.1,0l-0.1,0.2c0,0.1-0.2,0.2-0.3,0.3
		C354,176.8,352.5,176.5,352.2,177z M360.5,180.8l-0.2-0.1c-0.8,1.7-2.1-1.7-2.7,0.3c-0.1,0-0.2,0-0.4,0c-0.4-0.1-0.8-0.1-1.2,0.1
		c-0.8-0.5-4,0.2-3.4-1.5c0,0.4,0.2,0.5,0.3,0.5c-0.5-2.2,2.1,0,2.1-1.6c0.2-0.2,0.4-0.4,0.5-0.7c0.1,0,0.1,0,0.3,0.1
		c0.2,0.1,0.5,0.2,0.8,0.2l0,0c0.1,0,0.1,0,0.2,0l0,0c0.3,0.1,0.6,0.2,0.8,0.3c0.5,0,1-0.1,1.4-0.3c0.1,0,0.2-0.1,0.2-0.1
		c0.5,0.2,0.8,0.7,1.3,0.9c0,0.1,0,0.3,0,0.4C360.4,179.8,360.4,180.3,360.5,180.8z M358.3,49.6c0.3,0,0.3-0.5,0.3-0.9l0,0
		c0.2-0.2,0.8,0.2,1.1,0.4l0,0.1C360.2,50.5,358.1,50.6,358.3,49.6z M371.9,50.3c0.2,0,0.5,0,0.7,0c0,0.5,0.3,0.6,0.4,1
		C372.4,51.3,371.7,51.4,371.9,50.3z M375.4,53.4c0-0.3,0-0.7,0-1c0-0.2,0-0.3,0-0.5l0,0l0.1,0.1l0.3,0c0.2,0,0.3,0.1,0.4,0.1
		C376.5,52.8,376.3,53.6,375.4,53.4z M392.1,55.3C390.2,56.6,390.3,53.4,392.1,55.3L392.1,55.3z M396,115.2
		C398.8,114,398,116.7,396,115.2L396,115.2z M406.8,53.3c-0.1,0.5-0.4,1.3,0,2.1l0,0c-1.7,0.5-2.1-1-3.1-1.6l0,0.1
		c-0.1-0.2-0.3-0.4-0.3-0.7c0-0.3,0-0.5,0-0.8c0.1,0,0.2-0.1,0.3-0.1c0.5,0,1,0,1.3-0.5c0.1-0.3,0.2-0.6,0.3-1.1l0.1,0
		c0.7,0,1.4,0.9,1.8,1.7C406.9,52.9,406.9,53.1,406.8,53.3z M432.6,138.3c-0.9,0-1.1-0.8-1.4-1.6c0.5,0,1,0,1.4,0
		C432.5,137.3,432.6,137.8,432.6,138.3z M464,179.3c-0.4,0.1-0.7-0.3-1.1-0.8l0,0l0-0.1c0.6,0,1.3-0.2,1.4,0.5l0.2-0.1
		C464.3,179.1,464.2,179.3,464,179.3z M473.2,53.7c-0.9-0.7-0.2-1-0.8-1.6c0,0.6-0.6,0.5-1,0.5l-0.3-0.1c0-0.3,0-0.6,0.1-0.9
		c1.8-0.6,2.5,0.6,3.7,0C475,53.3,474.1,53.5,473.2,53.7z M477.9,53.7L477.9,53.7c-1,0.1-1.8,0.1-1.7-1.5l0-0.1
		c0.1,0,0.1,0.1,0.2,0.1l0.2,0c0.3,0,0.5,0,0.8,0.2c0.2,0.4,0.3,0.8,0.7,0.9l0.1,0C478.1,53.4,478.1,53.5,477.9,53.7z M485.3,48.6
		l0,0.2c0.4,0.4,0.5,0.9,0.8,1.6c-1,0.4-1.1-0.6-1.3-1.3C484.8,48.8,485.1,48.7,485.3,48.6z M484.6,181.7c-0.2,0-0.4,0.1-0.5,0.1
		c0-0.2-0.1-0.4-0.1-0.6c0.1-0.3,0.1-0.8,0.5-0.9C484.5,180.8,484.5,181.2,484.6,181.7z M478.4,54.3l-0.2,0.1c0-0.1,0.1-0.3,0.1-0.4
		s0.1-0.2,0.1-0.3c1.3-0.5,2.4,0.2,4.1-0.4c0.1,1.1-0.2,1.4-0.3,2.1C480.8,55.5,480.6,54.3,478.4,54.3z M487.9,177.2
		c-0.2,2.4-2.7,0.5-2.8-0.6c0.9-1.3,1.7,0.1,2.1,1c0.3-0.5,0-1.9,1.1-1.5c0.2,0,0.5,0,0.7,0c0,1.3,0.6,1.6,0.8,2.6
		C488.6,179.1,489.2,176.7,487.9,177.2z M508.8,176.5L508.8,176.5c-0.4,0-0.7,0.1-1.1,0.1l0-0.1C506.5,175.2,509,174.2,508.8,176.5z
		 M508,56.3c-0.5-1.1-1,0.8-1.1-0.9l0.1,0c0.3-0.1,0.4-0.2,0.6-0.3l0,0.2c0.1,0,0.2,0,0.3,0C508,55.7,508.1,56,508,56.3L508,56.3z
		 M513.6,57.9L513.6,57.9c0.4,0,0.8,0.1,1.1,0.3l0,0.2c0.4,0,0.2,0.6,0.4,1C514.2,59.6,513.6,59.2,513.6,57.9z M515.7,56.4
		c0,0.6-0.6,0.5-1.1,0.5l0,0.1c-0.4-0.1-0.7-0.1-1-0.2l-0.2,0c-0.6-0.2-0.4-1.3-1.3-1c0.5,1.6-1.1,0.4-0.6,2.1
		c-1.2-0.4-1.1-1.5-2.1,0c-0.1-0.8,0.3-0.9,0.3-1.6c-0.6-0.1-0.9,0.8-1,0l-0.1,0.1l0-0.1c-0.1-0.3,0-0.7-0.1-1
		c1,0.4,2.1,0.2,3.1,0.1C513.1,55.1,514.5,55,515.7,56.4L515.7,56.4z M520,177.6c-0.2-0.1-0.3-0.2-0.4-0.3c0-0.1,0-0.1,0-0.2
		c0.2-0.2,1.3-1.3,1.4,0C520.7,177.4,520.4,177.7,520,177.6z M521.9,169.9c0.3-0.5,1,0.4,1,0.6C523.3,171.3,521.7,170.3,521.9,169.9
		z M523.7,60.6c0.7,0.3,0.9-0.3,1.4-0.5l0-0.1c0.1,0.1,0.3,0.2,0.4,0.3C525.5,62,524.1,61.6,523.7,60.6z M525.9,59.8
		c-0.2-0.2-0.4-0.4-0.6-0.5l0.2-0.1c0.4-1.6-0.9-0.6-0.7-1.9c0.4-0.2,0.9-0.2,1.2-0.1c0.1,0.1,0.2,0,0.3,0
		C526.3,58.3,526.1,59.1,525.9,59.8L525.9,59.8z M529.7,58.6c0.6,0.5,1.1-1.5,1.4,0C530.8,58.8,529.8,59.9,529.7,58.6z M536.2,167.5
		c0.1-1.2-0.7-1.1-0.4-2.5c1.5,1.9,2.3-1.1,3.2,1.1C538,166.3,537.2,166.6,536.2,167.5z M563.9,167.7c-0.2,0.1-0.5,0-0.7-0.1
		c-0.1-1,0.5-2,0.7-0.7C563.5,167,563.9,167.3,563.9,167.7z M586.9,110.4c-0.1-0.1-0.2-0.2-0.2-0.3c0.1-0.1,0.1-0.1,0.2-0.3
		C587.7,110,587.3,110.2,586.9,110.4z M603.4,152.5c-0.5,0.3,0.1,0.7,0,1.5l0,0c-0.2-0.1-0.4-0.2-0.6-0.2c-0.5-0.1-0.6-0.2-0.7-0.6
		l0,0l0.2-0.1C601.8,151.7,603.5,151.5,603.4,152.5z M589,105.3c0-0.1,0-0.2,0-0.2c0.1,0,0.1,0,0.2-0.1c0.1,0.1,0.1,0.1,0.1,0.2
		c0.1,0.1,0.2-0.1,0.2-0.3c0.3,0,0.6,0,0.9,0.1c0.1,0.1,0.1,0.2,0.2,0.3c-0.4,0.2-0.9,0.2-1.3,0.2C589.1,105.5,589,105.4,589,105.3
		L589,105.3z M588.3,96.1c-0.1-0.1-0.2-0.3-0.3-0.4c0.2,0.1,0.3,0.1,0.5,0.1C588.5,95.9,588.4,96,588.3,96.1z M593.7,97.3
		c-0.5,0.1-0.9,0-1.3-0.1c0-0.2,0-0.4-0.1-0.6c0.6-0.1,0.9,0.2,1.3,0.4C593.7,97.2,593.7,97.2,593.7,97.3z M594.4,94.8
		c-1.5-0.1-2.9-0.1-3.1,0.1c-0.2-0.1-0.3-0.4-0.3-0.6c0.9-0.2,1.7-1.2,2.3,0.3c0.5-0.3-0.1-0.4,0-1c0.8,0,1.5,0,2,0.4
		c0.1,0.2,0.1,0.4,0,0.7C595,94.6,594.7,94.7,594.4,94.8z M596.8,95.1L596.8,95.1c-0.1,0-0.1,0-0.2,0c-0.7,0-0.7-0.3-0.7-0.3
		c0-0.1-0.1-0.1-0.2-0.2c-0.1-0.4,0-0.8-0.1-1.1l0.1,0c0.6,0,1.3-0.2,1.4,0.5C596.8,94.1,596.8,94.7,596.8,95.1z M610.7,86.8
		c0.8,0,1,0.4,0.9,1.2c-0.4,0.1-0.8,0.8-0.6,1.6c-0.3-0.5-0.9-2.1-0.9-2.8C610.3,86.9,610.5,86.9,610.7,86.8z M605.7,89L605.7,89
		c0.9,0.1,1.6,0,2.5,0.1c0.7,2.2,1,0.4,0.8,2.9c-0.9-0.4-1.6-0.9-1.3-1.8c-0.6,0-1-0.1-1.6,0c-0.1-0.2-0.3-0.3-0.3-0.5l-0.1,0.1
		C605.7,89.4,605.7,89.2,605.7,89z M603.9,87.6c0.2,0.1,0.4,0.2,0.5,0.3l-0.1,0.1c0.1,0.5,0.5,0.4,0.7,0.8c0,0.1,0,0.1,0,0.2
		C604.1,89.4,603.2,88,603.9,87.6z M607.3,97.3c-0.2,0-0.3,0-0.5,0.1l0-0.1c-0.9-0.1-2.7-1-2.6,0.9c-0.4,0.2-0.8,0.1-1.2,0.1
		c-0.1-0.1-0.1-0.2-0.2-0.3l0.1,0c-0.1-0.2-0.2-0.3-0.3-0.4C603.9,96.6,605.7,96.7,607.3,97.3z M599.5,96L599.5,96
		c-0.2-0.1-0.3-0.1-0.4-0.2c0.1,0,0.2-0.1,0.3-0.1c0.1,0.1,0.3,0.2,0.4,0.3C599.7,96,599.5,96,599.5,96z M599.8,93
		C599.8,93,599.9,93,599.8,93c0.2,0.9-0.3,1-0.3,1.6c-0.1,0-0.2-0.1-0.3-0.1c-0.2,0-0.3,0.1-0.5,0.2l0-0.1c-0.5-0.3-0.2-1.4,0.2-1.8
		C599.3,92.9,599.6,92.9,599.8,93z"/>
	<path class="st0" d="M408.7,52.5c0.1,0.1,0.2,0.1,0.3,0.1c0.1,0,0.2-0.1,0.3-0.2c0.9-1.3,1.9-1.3,3.1-1.3c0.2,0,0.4,0,0.6,0
		c0.1,0,0.1,0.1,0.1,0.1c0.1,0,0.1,0,0.2-0.1c0.1-0.1,0.3-0.2,0.4-0.2c0.1,0,0.2-0.1,0.2-0.2c0.1,0,0.3,0.1,0.4,0.1
		c0.7,3.3,2.7,1.3,4.6,1.6l0-0.4c0.3,0.3,0.5,0.5,0.7,0.6l0.1,0c0.1,0,0.3-0.1,0.3-0.3c0-0.3-0.1-0.5-0.2-0.6
		c-0.1-0.1-0.3-0.2-0.5-0.3c0.3-0.3,0.7-0.5,1.1-0.5l0.1,0.1c0.2,0.1,0.4,0.1,0.5-0.1c0.1-0.2,0-0.5-0.1-0.6l-0.3-0.3l-0.1,0
		c-0.8-0.1-1.4,0.3-1.8,0.9l0-0.5c0.1-1.3-1,0.8-1.3-0.2c0-0.1,0-0.3,0-0.4c0-0.4,0.1-0.8,0.2-1.2c0.3,0,0.6,0.1,0.9,0.2
		c1,0.2,2.1,0.3,3.1,0.2c0.1,0,0.2-0.2,0.2-0.4c0-0.2-0.2-0.4-0.3-0.3c-1.1,0.1-2.1,0-3-0.2c-0.4,0-0.8-0.2-1.1-0.2l-0.2,0l-0.1,0.2
		c-0.2,0.5-0.3,1.1-0.3,1.6c0,0.1,0,0.3,0,0.4c0,0.1,0.1,0.2,0.1,0.2l-0.1,0.1c-0.9,0.2-2.1-1.3-2.7-0.2c-0.1,0-0.3,0-0.4-0.1
		c0-0.1-0.1-0.1-0.1-0.1c0-0.2,0.1-0.3,0.1-0.5c0.2-0.1,0.5-0.2,0.8,0c0.1,0,0.2-0.1,0.2-0.3c0-0.2-0.1-0.3-0.2-0.3
		c-0.4,0-0.7,0.1-1.1,0.1l-0.1,0.1l0,0.2c0,0.2-0.1,0.4-0.1,0.6l0,0c-0.1,0-0.2,0.1-0.2,0.1l0-0.8c0-0.2-0.1-0.3-0.2-0.3
		c-0.1,0-0.2,0.2-0.2,0.3l0,1l0,0c-0.2,0-0.4,0-0.5,0c-1.3,0-2.7,0-3.6,1.7C408.6,52,408.6,52.3,408.7,52.5z"/>
	<path class="st0" d="M576.9,50.9c0.1,0.2,0.2,0.3,0.4,0.3c0.1,0,0.1,0,0.2-0.1c0.2-0.2,0.2-0.4,0.1-0.7l0-0.1
		c-0.2-0.3-0.2-0.6-0.3-0.8c-0.1-0.3-0.3-0.4-0.5-0.3c-0.2,0.1-0.3,0.4-0.2,0.6C576.6,50.1,576.8,50.6,576.9,50.9z"/>
	<path class="st0" d="M436.9,49.1c0.2,0,0.5-0.1,0.8-0.3l0,0c0.2,0.1,0.4,0,0.5-0.2c0.1-0.2,0-0.6-0.1-0.7l-0.4-0.3l-0.2,0.2
		c-0.6,0.6-0.9,0.2-0.9,0c-0.1-0.2-0.4-0.3-0.5-0.1c-0.1,0.2-0.2,0.5,0,0.7C436,48.6,436.4,49,436.9,49.1z"/>
	<path class="st0" d="M402.8,48.8c0.3-0.3,0.6-0.2,1,0c0.2,0.1,0.5,0.1,0.7,0.1c0.1,0,0.3,0,0.4-0.1c0.1-0.1,0.2-0.3,0.1-0.5
		s-0.2-0.3-0.4-0.2c-0.2,0.1-0.5,0-0.8-0.1c-0.4-0.1-0.8-0.3-1.3,0.1c-0.1,0.1-0.2,0.4-0.1,0.6C402.4,48.8,402.6,48.9,402.8,48.8z"
		/>
	<path class="st0" d="M329.1,49.3c0,0.3,0.2,0.5,0.4,0.4c0,0,0.1,0.1,0.1,0.2c0.1,0.2,0.2,0.6,0.6,0.6c0.1,0,0.1,0,0.2-0.1
		c0.2-0.1,0.3-0.3,0.2-0.6c-0.1-0.2-0.3-0.4-0.4-0.3l0,0l0,0c0,0-0.1-0.1-0.1-0.2c-0.1-0.2-0.3-0.6-0.7-0.6
		C329.1,48.8,329,49,329.1,49.3z"/>
	<path class="st0" d="M163.1,51.7l0.2,0c0.2,0,0.3,0,0.4,0.1c0.1,0.1,0.2,0.1,0.2,0.1c0.1,0,0.2-0.1,0.3-0.2c0.1-0.2,0-0.6,0-0.7
		c-0.2-0.2-0.5-0.2-0.7-0.4l-0.1,0c-0.2-0.1-0.4,0.2-0.4,0.5C162.9,51.4,163,51.7,163.1,51.7z"/>
	<path class="st0" d="M155.5,51.5c0.2,0,0.5,0,0.7,0.1c0,0,0,0,0.1,0c0.1,0,0.2-0.1,0.2-0.2c0-0.2-0.1-0.3-0.2-0.4
		c-0.3-0.1-0.5-0.1-0.8-0.2c-0.3,0-0.7,0-0.9-0.4c-0.1-0.1-0.2,0-0.3,0.1c0,0.1,0,0.3,0.1,0.4C154.8,51.4,155.3,51.5,155.5,51.5z"/>
	<path class="st0" d="M87.5,58.4L87.5,58.4c0.3-0.1,0.6-0.3,0.9-0.3l0.3-0.2c0.1-0.1,0.1-0.2,0.1-0.4c-0.1-0.2-0.2-0.2-0.3-0.2
		l-0.3,0.2c-0.3,0.2-0.5,0.3-0.8,0.3c-0.1,0-0.2,0.2-0.1,0.4C87.3,58.4,87.4,58.4,87.5,58.4z"/>
	<path class="st0" d="M28.6,87.6c0.2,0.4,1.1,2.3,0.4,1c-1.3,0.6,2,1.4,0.7,2.1c0.1,1,1-0.8,0.8,1.6c0.5-0.2,1-2.9,1.3-1.5
		c0.8-0.1,0.2-2.3,0-2.6c0.2,0,0.5,0,0.7,0l0-0.1c0.5,0.2,0.9,0.4,1.4,0.4c1.4,0,2.8-0.8,4-1.4l0.2-0.1c0.2,0,0.3-0.1,0.4-0.4
		c0.1-0.3,0-0.6-0.1-0.7l-0.1,0.6l0-0.6l-0.2-0.1l-0.2,0l-0.3,0.2c-1.5,0.8-3.2,1.7-4.7,1.1c0.2-0.5,0.9-0.2,1.4-0.4
		c-0.1-1,0-1.6,0.7-1.6c-2.7-1.6-3.3-2.5-5.6-1.1C30.1,85.9,29.9,86.5,28.6,87.6z"/>
	<path class="st0" d="M51.8,89.7c0.2,0,0.4,0,0.5,0c1,0,2-0.8,2.9-2.2c0.1-0.2,0.1-0.5,0-0.7c-0.2-0.2-0.4-0.2-0.5,0.1
		c-0.9,1.5-1.9,2.1-2.8,1.9c-0.2,0-0.4,0.2-0.4,0.4C51.4,89.4,51.6,89.6,51.8,89.7z"/>
	<path class="st0" d="M601.1,107.1c0.1,0.1,0.1,0.1,0.2,0.1c0.1,0,0.2-0.1,0.2-0.2c0.2-0.4,0.2-0.9,0.2-1.3l0-0.3l-0.2-0.1
		c0,0-0.2-0.2-0.3-1.2c0-0.3-0.2-0.5-0.4-0.4c-0.2,0-0.3,0.3-0.2,0.5c0,0.1,0.1,0.2,0.1,0.3c-0.9-0.3-0.5,0.8,0.1,0.6
		c0.1,0.3,0.1,0.6,0.3,0.8c0,0.2,0,0.4,0,0.5C601,106.7,601,107,601.1,107.1z"/>
	<path class="st0" d="M606.2,110.3l0.2-0.2c0.3-0.2,0.7-0.2,1,0c0.1,0,0.2,0,0.3,0l0,0c0.2,0,0.3-0.2,0.3-0.4c0-0.3-0.2-0.5-0.3-0.5
		c-0.1,0-0.2,0-0.3,0c-0.4,0-0.8-0.2-1.1,0c-0.8-1.6-2.2-2.2-3.3-2.3c-0.2,0-0.3,0.2-0.3,0.4c0,0.3,0.2,0.5,0.3,0.5
		c0.9,0.2,2.2,0.7,2.9,2.2L606.2,110.3z"/>
	<path class="st0" d="M16.5,100.4c0,0,0.1,0,0.1-0.1c0.2-0.3,0.5-0.6,0.8-0.7l0.2-0.2c0.1-0.1,0.1-0.2,0-0.4
		c-0.1-0.1-0.2-0.1-0.3-0.1L17.2,99c-0.3,0.3-0.5,0.5-0.8,0.8c-0.1,0.1-0.1,0.3,0,0.4C16.5,100.3,16.4,100.4,16.5,100.4z"/>
	<path class="st0" d="M557.2,169.1c-0.5,0.1-1,0.3-1.2,0.9c-0.1,0.2-0.1,0.5,0,0.7c0.1,0.1,0.2,0.1,0.2,0.1c0.1,0,0.2-0.1,0.2-0.2
		c0.2-0.4,0.5-0.6,0.8-0.5c0.2,0,0.3-0.3,0.3-0.5C557.5,169.3,557.4,169.1,557.2,169.1z"/>
	<path class="st0" d="M49.5,176.3c-0.2-0.1-0.3,0.1-0.4,0.3c0,0.1,0,0.2-0.1,0.4c0,0.2-0.1,0.4-0.1,0.7c-0.1,0.2-0.2,0.3-0.4,0.5
		c-0.1-0.1-0.3-0.2-0.4-0.3c-0.5-0.3-0.9-0.8-1.6-0.6l0,0c0-0.3,0-0.7,0-1c-0.4,0.7-1.8,1-1.4-1.1c-0.8,0.1-1.3,0.8-2.4,0.4
		c0.2-1.1-0.5-1-1.1-1.1l-0.1,0.1l0,0c-0.3-0.5-0.9-0.6-1.4-0.6c-0.3,0-0.6,0.3-0.6,0.8c0,0.4,0.2,0.8,0.5,0.8c0.2,0,0.5,0,0.7,0.1
		c0.3,0.4,0.3,1.1,0.3,1.9c0.3-0.4,0.8-0.5,1.4-0.5c-0.4,1,1.1,1.8,0,2.1c0.1,1.8,1.1-1.1,1,0.6l0.1-0.1c0,0,0,0,0,0.1
		c-0.1,0.2-0.2,0.5-0.3,0.5c-0.1,0.1-0.1,0.3-0.1,0.4c0,0.1,0.1,0.2,0.2,0.2l0.1,0c0.2-0.1,0.3-0.4,0.4-0.6l0,0.1c0.9,1,2-1.2,2.7-2
		l0-0.1c0.4-0.3,0.8,0.1,1.3,0.5c0.2,0.2,0.4,0.4,0.6,0.5l0.2,0.1l0.1-0.2c0.2-0.3,0.3-0.4,0.5-0.6l0.1-0.1l0.1-0.2
		c0-0.3,0.1-0.5,0.1-0.8c0-0.2,0-0.3,0.1-0.4C49.8,176.6,49.7,176.4,49.5,176.3z"/>
	<path class="st0" d="M52.8,180l-0.1-0.1c-0.2-0.1-0.3-0.3-0.3-0.6c-0.1-0.2-0.3-0.3-0.4-0.2c-0.1,0.1-0.2,0.3-0.1,0.5
		c0.2,0.4,0.2,0.6,0.5,0.8c0,0.2,0,0.5-0.1,0.9c0,0.2,0.1,0.4,0.2,0.5l0.1,0c0.1,0,0.2-0.1,0.2-0.3C52.9,180.9,52.9,180.5,52.8,180
		L52.8,180z"/>
	<path class="st0" d="M48.5,182.8c-0.1,0.2-0.2,0.3-0.3,0.5c-0.3,0.4-0.5,0.9-0.4,1.4c0,0.1,0.1,0.2,0.2,0.2c0,0,0,0,0.1,0
		c0.1-0.1,0.1-0.2,0.1-0.4c0-0.1,0.2-0.5,0.3-0.8c0.1-0.2,0.2-0.4,0.3-0.5s0-0.3-0.1-0.4S48.5,182.7,48.5,182.8z"/>
	<path class="st0" d="M125.3,187.2l0.7,0C125.8,186.9,125.5,187,125.3,187.2z"/>
	<path class="st0" d="M116.9,63.9c0.1,0.1,0.2,0.1,0.2,0.1c0.1,0,0.2-0.1,0.3-0.3c0.1-0.2,0.1-0.2,0.6,0c0.2,0.1,0.4,0.1,0.6,0.2
		l0.1,0l0.1-0.1c0.1-0.1,0.2-0.2,0.3-0.4c0.2-0.2,0.4-0.5,0.6-0.6c0.2-0.1,0.3-0.4,0.2-0.7c-0.1-0.3-0.3-0.4-0.5-0.3
		c-0.4,0.2-0.7,0.5-0.9,0.7c0,0.1-0.1,0.1-0.1,0.1c-0.1,0-0.2-0.1-0.3-0.1c-0.4-0.1-1-0.5-1.4,0.4C116.7,63.4,116.8,63.7,116.9,63.9
		z"/>
	<path class="st0" d="M104.9,206c-0.2-0.1-0.4,0-0.5,0.3c-0.1,0.4-0.5,1.6,0.1,2.6c0.1,0.1,0.2,0.2,0.3,0.2c0.1,0,0.2,0,0.2-0.1
		c0.1-0.2,0.1-0.5,0.1-0.8c-0.3-0.4-0.2-0.8,0-1.5C105.2,206.5,105.1,206.2,104.9,206z"/>
</g>
</svg>
