<?xml version="1.0" encoding="utf-8"?>
<!-- Generator: Adobe Illustrator 23.0.6, SVG Export Plug-In . SVG Version: 6.00 Build 0)  -->
<svg version="1.1" id="Layer_1" xmlns="http://www.w3.org/2000/svg" xmlns:xlink="http://www.w3.org/1999/xlink" x="0px" y="0px"
	 viewBox="0 0 680 109" style="enable-background:new 0 0 680 109;" xml:space="preserve">
<style type="text/css">
	.st0{fill:#C1E7E8;}
</style>
<g>
	<path class="st0" d="M624.3,49.8c0-0.1,0-0.2,0-0.3c-0.5-0.2-1-0.2-1.5,0c-0.8-0.4-0.7-1-0.9-1.6c0.2-0.1,0.4-0.2,0.6-0.4
		c1-0.1,0.7-0.8,1-1.2c0.1-0.1,0.2-0.1,0.3-0.2c0.7,0,1.7,0,1.9-0.4c0.6-1.1,1.9-0.9,2.9-1.2c-0.1-0.2-0.3-0.4-0.4-0.5
		c-1.8,0.1-3.6,0.2-5.3,0.3c-0.2,0-0.5,0-0.7,0c-0.3,0-0.6,0-0.9,0c-0.6-0.1-1.1,0-1.5,0.3c-0.3,0-0.5,0.1-0.7,0.1
		c-0.5-0.1-1-0.1-1.5-0.2l-0.1,0c-1-0.8-1.9,0.1-3,0c-0.4-0.2-0.7-0.2-1.1-0.1c-1.5-0.2-3-0.5-4.4-0.5c0,0,0,0,0,0
		c0.1-0.1,0.3-0.3,0.4-0.4c2.4-0.5,5.3-0.5,7.9-0.8c1.4-0.1,2.2-0.5,2.1-0.9c-0.1-0.4-1.5-0.4-2.4-0.4c-2.9-0.1-5.8-0.3-8.7-0.1
		c-0.3-0.1-0.5-0.1-0.8-0.1c-1,0.1-2,0.1-3-0.1c-1.5,0-3,0-4.5,0c-0.5,0.1-1,0.1-1.6,0.1c-0.5,0-1,0-1.6,0c-1.8-0.6-4-0.8-6.6-0.7
		c-2.4,0.1-4.9,0.1-7.2-0.1c-0.3-0.1-0.5-0.2-0.8-0.2c-1.5,0-3.1-0.1-4.6,0.2c-0.3-0.1-0.6-0.1-0.8-0.2c-0.4,0-0.9,0-1.4,0
		c0,0,0,0,0,0l0,0c0-0.1,0-0.2,0-0.3c0-0.2,0-0.4,0-0.5c0.1-0.6,0.4-1,0.9-1.4c0.5,0,0.7-0.4,1.3-0.5c2.1-0.2,4.2-0.5,6.2-0.2
		c0.7,0.1,1.2,0,1.3-0.7c0.1-0.7-0.2-0.8-1-0.8c-0.4,0-0.9-0.2-1.4-0.4c-0.8,1.2-1.7,0.9-2.7,0.2c-0.6,0-1.1,0-1.7,0
		c-0.1,0.5-0.2,0.9-1,0.9c-0.8-0.5-1.9-0.1-2.8-0.4c-0.7-0.1-1.5,0.1-2.2-0.2c-0.8,0.1-1.6,0.3-2.4,0c-0.4,0-0.8-0.1-1.2-0.1
		c-0.2,0.2-0.4,0.3-0.8,0.3c-0.4,0.1-0.8,0.1-1.2,0.2c-0.6,0-1.3-0.2-1.9-0.1c-0.3,0-0.5-0.1-0.7-0.1c-0.4,0-0.8-0.1-1.2-0.1
		c0,0.1,0,0.1,0.1,0.2c-0.3,0-0.6-0.1-0.8-0.1c-0.4-0.1-0.7-0.1-1.1-0.2c-0.8,0.2-1.5,0-2.3-0.1c-0.1,0-0.3,0-0.4,0
		c-0.1,0-0.3,0.1-0.4,0.1c-0.3-0.3-0.7-0.3-1.1-0.1c-0.6-0.1-1.2-0.1-1.7-0.2c0,0.1,0,0.2,0.1,0.3c-0.5-0.1-1-0.1-1.6-0.1
		c-0.1-0.2-0.1-0.3-0.3-0.5l0-0.1c-1.2-0.5-2.6,0.5-3.8-0.3c-0.1,0-0.2,0-0.3,0c-0.6,0-1.5,0.4-1-0.6c0-0.2,0-0.5,0-0.7
		c-0.3-0.1-0.6-0.1-0.8-0.2c-0.7,0.3-1.3-0.1-1.9-0.2c-0.3,0-0.5,0-0.8,0c-0.1,0-0.3,0-0.4,0c-1.8,0.3-3.4-0.1-5-0.4
		c0-1.1,1.5-0.3,2-0.9c0.1-0.4,0.5-0.5,1-0.5c-0.4-1.5,1.5-0.4,1.9-1c0.1,0,0.3,0,0.4,0.1c0.9-0.2,1.9-0.1,2.7-0.6
		c0-0.1,0-0.2,0-0.3c1-0.1,1.3,0.2,1,0.9c0,0.6,0.5,0.8,1.2,1c1.3,0.3,2.7-0.1,4,0.2c0.4-0.1,0.8-0.1,1.2,0.1c0.4,0,0.7,0.1,1.1,0.1
		c0.3-0.1,0.6-0.1,0.8,0.2c0.4,0,0.7,0,1.2,0.1c0.7-0.3,1.3-0.2,2,0c0.5,0,1-0.1,1.5-0.1c0.7-0.5,1.2-0.2,1.6,0.3
		c0.3,0,0.6-0.1,0.9-0.1c0.5-0.6,1.4-0.4,2.1-0.6c0.3,0.1,0.5,0.1,0.7,0.2c3.1-0.2,6.2,0.2,9.3,0.2c1.6-0.2,3,0.2,4.5,0.4
		c1.2,0.1,2.3,0.1,3.4,0.2c2.2-0.2,4.3-0.4,6.5-0.1c0-0.2,0-0.3,0.1-0.5c-1.2-0.7-2.5-0.4-3.8-0.3c-2.1,0.1-4.1-0.6-6.2,0.1
		c-1.9-0.3-3.8-0.8-5.8-0.6c-1.8,0.1-3.2,0-4-1.6c-0.3,1.1-1.4,1-2.3,1.1c-0.8,0.1-1.6,0.2-2.4,0.3l-0.1-0.1c0-0.3-0.2-0.5-0.6-0.6
		c-0.8-0.9-2.1-0.6-3.3-0.7c-1.9-0.1-4.2,0.8-5.8-0.9c-0.1-0.1-0.6,0-0.9-0.1c-2.5-0.2-4.9,0.1-7.4,0.1c-0.3,0.1-0.6,0.1-1,0.2
		c-0.4-0.1-0.8-0.1-1.2-0.1c-0.5,0.1-1,0.1-1.5,0.1c-0.6-0.1-1.3-0.2-1.9-0.3c-0.3,0-0.5-0.1-0.8-0.1c-0.5,0-1,0-1.5,0
		c-1.5,0-3.1-0.1-4.6-0.1c-0.4,0-0.7,0-1.1,0c-0.5,0-1,0-1.6,0c-0.1,0.1-0.3,0-0.4,0c-0.4,0-0.8,0-1.2-0.1c-0.3,0-0.5-0.1-0.7-0.1
		c-0.3-0.1-0.5-0.1-0.8-0.1c-0.4-0.1-0.7-0.2-1.1-0.2c-0.4,0.1-0.8,0.2-1.2,0.3c0,0.3,0,0.6-0.1,0.8c0-0.3,0-0.6,0.1-0.8
		c-0.4-0.1-0.7-0.1-1.1-0.2c-0.1-0.1-0.3-0.3-0.4-0.4c-0.1-0.1-0.2-0.1-0.3,0c-0.1-0.1-0.2-0.1-0.3-0.1c-0.3,0.2-0.6,0.3-0.9,0.4
		c0.3-0.2,0.6-0.3,0.9-0.4c0-0.1,0-0.1-0.1-0.2c-0.3,0-0.6-0.1-0.9-0.1c0,0.1,0,0.2,0.1,0.2c-0.3,0-0.6-0.1-0.8-0.1
		c0.1-0.1,0.1-0.1,0.1-0.2c-0.3,0-0.6,0-0.9,0c-0.3,0.1-0.5,0.1-0.8,0.2c-0.4-0.1-0.7-0.1-1.1-0.2c-0.3-0.1-0.5-0.2-0.7-0.3
		c-0.6-0.1-1.3-0.1-1.9-0.2c-0.4,0-0.7,0-1.1-0.1c-0.3-0.3-0.7-0.2-1.1-0.1c-0.9-0.4-1.4-0.1-1.8,0.5c0.1,0.5,0.6,0.7,1.2,0.7
		c0.4,0,0.8,0,1.2,0l0,0c-0.2,0.5-0.7,0.5-1.2,0.4c-1.9-0.1-3.8-0.2-5.7-0.3c-0.7-0.1-1.5-0.2-2.2,0.1c-0.9,0-1.8,0-2.7,0
		c-0.3,0-0.5,0-0.7,0c-4.9,0-9.8,0-14.6,0c-0.5-0.1-1-0.1-1.5-0.2c0.1-0.4,0.4-0.6,0.8-0.8c-0.4,0-0.9,0-1.4-0.1
		c-0.1,0.3-0.1,0.6-0.2,0.9c0.2,0.1,0.4,0.1,0.6,0c-0.2,0.1-0.4,0-0.6,0c-0.4,0-0.7,0.1-1.1,0.1c-0.6-0.2-1.3-0.2-1.9,0
		c-0.9-0.2-1.8-0.2-2.7-0.1c-0.9,0-1.8-0.1-2.7-0.1c-0.3,0-0.5,0-0.8,0c-0.6-0.2-1.3-0.1-1.9,0.1c-1.1-0.3-2.3-0.2-3.4-0.2
		c-0.3,0-0.5,0.1-0.8,0.1c-0.4-0.1-0.7-0.2-1.2-0.2c-0.1,0-0.3,0.1-0.4,0.1c-1.7-0.3-3.3,0.3-5,0.1c0,0.1,0,0.3,0,0.4
		c-1.9-0.4-4,0.4-5.8-0.4c-1.2,0.2-2.3,0.6-3.4,0.5c1.2,0.1,2.3-0.2,3.4-0.5c-1-0.7-2.4,0.4-3.4-0.5c-0.3,0-0.5-0.1-0.7-0.1
		c-0.3,0.2-0.6,0.4-0.9,0.5c-0.1,0-0.2,0-0.3,0l0,0c-1,0-2.1-0.1-3.1-0.1c-0.5,0-1-0.1-1.5-0.1c-0.7-0.2-1.5-0.4-2.2-0.6
		c-0.2,0.1-0.4,0.1-0.7,0.2c-0.6,0.5-1.4,0.2-2.1,0.3c0-0.1,0-0.1,0.1-0.2c-0.3,0-0.5,0.1-0.8,0.1c-1.3,0-2.6,0-3.9,0
		c-2.2,0.4-4.5,0-6.8-0.1c-0.6,0-1.1-0.1-1.7-0.2c-0.2,0.1-0.4,0.2-0.7,0.2c-4.7-0.2-9.3,0.2-13.9,0.2c-0.3,0-0.5,0-0.8,0.1
		c-0.7-0.2-1.6-0.1-2.1-0.6c0.9,0,1.7,0,2.5-0.1c0.3-0.4,0.5-0.8,0.8-1.2c1.7,0.2,3.4,0.3,5.2,0.2c0.9-0.1,1.8-0.3,0.2-0.5
		c-0.9-0.1-1.9-0.2-2.5-0.4c-2.1,0.1-4.2,0.2-6.3,0.3c-0.4,0.1-0.8,0.1-1.2,0.1c-1.3,0-2.6,0-3.9,0c-0.7,0-1.5,0-2.3,0
		c-0.5,0-1,0-1.6,0c-1.1-0.1-2.1,0.1-3,0.2l0,0c-0.9-0.2-1.8-0.4-2.7-0.6l-0.1,0H399c-0.3,0.1-0.7,0.2-1,0.3c-0.5-0.1-1-0.2-1.5-0.3
		c-3.1,0-6.3,0.1-9.3-0.3c-0.2,0.1-0.5,0.1-0.7,0.1c-0.5,0-1,0-1.6,0c-0.2,0-0.4-0.1-0.7-0.1l0,0c0,0,0,0-0.1,0
		c-0.7-0.1-1.4-0.2-2.1-0.3c-0.7,0-1.3-0.1-1.9-0.4c-0.3,0-0.7,0-1,0l-0.1-0.1l0,0c-0.7-0.2-1.3,0.3-2,0.3c-0.2,0-0.4,0-0.6,0v0
		c-0.1,0-0.3,0-0.4,0c0,0,0,0-0.1,0c-0.3,0-0.6,0-0.8-0.1c-0.7-0.1-1.5-0.2-2.2-0.2c-0.4-0.3-0.8-0.2-1.2-0.1
		c-0.6-0.1-1.2-0.2-1.8-0.3c-0.1,0.1-0.2,0.1-0.4,0.1c-2.5-0.4-5.2-0.2-7.7-0.5c-0.3,0-0.5-0.1-0.7-0.1c-0.6-0.1-1.3-0.1-1.9-0.2
		c-0.4,0.1-0.7,0.3-0.9,0.6c-0.1,0.2-0.2,0.3-0.3,0.4h0c-0.5,0-1-0.1-1.5-0.1c-0.7-0.1-1.5-0.2-2.3-0.3c-0.5,0-1.1,0-1.6,0
		c-0.5,0-1,0-1.5,0c-1.3,0-2.6,0.1-3.9,0.1c-0.6-0.1-1.1-0.1-1.6-0.2l0,0c-0.2,0.1-0.4,0.1-0.6,0.2c-1.3-0.2-2.6-0.2-3.9-0.1
		c-0.7,0-1.5,0-2.2,0c-1,0-2.1,0-3.2,0c-0.5,0-1,0-1.5,0c-1.5-0.2-3-0.4-4.7-0.3c-1-0.1-2.1-0.1-3.1-0.2c0,0.1,0.1,0.1,0.1,0.1
		c-2.3,0-4.6-0.1-6.9-0.1c-0.3,0.1-0.6,0.1-0.9,0.1c-0.5,0-1,0-1.5,0c-0.8-0.1-1.6-0.1-2.4-0.2c-0.7,0-1.4,0-2.2,0
		c-0.9,0-1.7-0.1-2.5-0.1c-4.6-0.1-9.1-0.1-13.7-0.2c-9.8-0.2-19.6-0.3-29.4-0.1c-1.4-0.1-2.1,0.3-2.9,0.6c0.3,0.1,0.6,0.2,0.9,0.2
		c1.5,0.2,3,0,4.4-0.1c1.8,0.1,3.5,0.1,5.2,0c1.3,0,2.7,0.1,4,0.1c1.8,0,3.6,0.1,5.4,0.1c2.3-0.1,4.5-0.1,6.8,0
		c1.9,0,3.7,0.1,5.6,0.1l0,0c2.2,0,4.6-0.3,6.8,0.1c2.2,0.6,4.1,1.5,7.7,0.8c0.5,0.2,1,0.3,1.5,0.4l0,0c0.3,0.3,0.8,0.4,1.8,0.3
		c0.7,0,1.4,0,2.1,0.1c0.5-0.2,0.8-0.3,1.1-0.2c-0.3-0.1-0.7-0.1-1.1,0.2c0.6,0,1.1,0.1,1.6,0.1c2.2,1.1-1.2,0.6-2.2,0.8l0,0
		c-2.6-0.1-5.2-0.2-7.7-0.3c-0.5,0.2-1,0.2-1.6,0.1c-0.8,0-1.6-0.1-2.4-0.1c0,0.3-0.4,0.5-1,0.7l0,0c-2.7,0-4.6,0.3-4.9,1.3
		c1.8,0,3.6,0,5.3,0c1,0.1,2,0.2,3.1,0.1c1.6-0.5,2.7,0,3.9,0.2c2,0,4.1,0.1,6.1,0.1c0.5-0.1,1.1-0.1,1.6-0.2c0.7,0,1.5,0,2.2,0.1
		c0,0.1,0,0.2,0,0.3c2.1-0.2,4.1-0.2,6.1,0c0.1,0,0.2,0,0.3,0c-0.1,0.3,0,0.7,0.3,1.1c1.9,0.3,3.9-0.1,5.8,0
		c1.2,0.2,2.5,0.3,3.7,0.5c0.4,0,0.7,0.1,1.1,0.1c0-0.4,0-0.8,0.1-1c-0.1,0.3-0.2,0.6-0.1,1c0.1,0.1,0.2,0.1,0.3,0.2
		c-1.8,0-3.6,0-5.3-0.2c-0.1,0.3-0.3,0.4-0.7,0.4c0.4,0,0.6-0.1,0.7-0.4c-0.5,0.1-1.1,0.1-1.6,0.2c-0.7,0-1.5,0-2.3,0
		c-0.4,0.3-0.8,0.4-1.2,0.4c0.4,0,0.7-0.1,1.2-0.4c-0.8,0-1.6-0.1-2.4-0.1c0-0.1,0-0.1,0.1-0.1c-1.3,0.1-2.5,0.1-3.8,0.2
		c-0.7,0.2-1.4,0.4-2,0.5c0.6-0.1,1.3-0.3,2-0.5c-0.5-0.1-1-0.1-1.6-0.2c-0.7,0-1.5-0.1-2.2-0.1l0,0c-0.1-0.2-0.1-0.3-0.2-0.4
		c-0.4-0.1-0.9-0.1-1.4-0.2c-0.6,0-1.2,0-1.7,0c-0.4,0-0.9,0.1-1.3,0.1c-0.9,0.1-1.7,0.1-2.5-0.1c-1.8,0.1-3.5,0.2-5.3,0.2
		c-1.1,0-2.2-0.1-3.1,0.1c-1.3,0-2.5,0-3.8,0c-1.3-0.3-2.7-0.2-4.1-0.2c-9.7,0-19.3,0-29,0c-0.5,0-1,0-1.5-0.1
		c-0.8,0-1.6-0.1-2.4-0.1c-1.3,0.1-2.5,0.1-3.8,0.1c-0.2-0.1-0.4-0.1-0.7-0.2c-0.5,0-1,0.1-1.6,0.1l0,0c-0.8-0.2-1.6-0.2-2.4,0
		c-1.3,0-2.5,0-3.8,0c-1-0.1-2.1-0.1-3.2-0.2c-0.3,0-0.6,0-0.9,0l0,0c-3.6-0.2-7,0.5-10.6,0.2c-0.5,0-1,0-1.5,0.1
		c-0.8-0.1-1.6-0.1-2.4-0.2c-0.3,0-0.5-0.1-0.7-0.1l0,0c-0.5,0-1,0-1.6,0c-0.5,0-1,0-1.5,0c-0.8,0-1.6,0-2.4,0c-0.7,0-1.5,0-2.2,0
		c-1.9-0.2-3.7-0.3-5.4,0.1c-1.3-0.1-2.6-0.1-3.9-0.2c0,0.2,0,0.3-0.2,0.4c0.2-0.1,0.1-0.3,0.2-0.4l0,0c-0.1-0.1-0.2-0.1-0.3-0.2
		c-0.6-0.1-1.2-0.1-1.9-0.1c-0.5,0.1-1,0.2-1.5,0.3c-0.3-0.1-0.5-0.1-0.7-0.2c-0.9,0.1-1.7,0.1-2.4-0.2c-0.7,0-1.5-0.1-2.3-0.1
		c-2.1,0.1-4.2,0.2-6.2,0.2c-1-0.2-2-0.2-3.1-0.1c-0.5,0.1-1,0.1-1.6,0.2c0,0.1,0,0.2,0,0.2c-1,0-1.9,0.1-3,0.1
		c-0.4,0.2-1,0.2-1.5,0.1c-0.9,0.1-1.7,0.1-2.4-0.2c-1,0-1.9,0-2.5-0.3c-0.1,0-0.3-0.1-0.3-0.1c-0.1,0.1-0.2,0.1-0.3,0.2
		c-0.3-0.1-0.7-0.1-1-0.2c-0.4,0.1-0.8,0.1-1.2,0.1c-0.2,0.2-0.4,0.3-0.7,0.4c-0.2,0-0.5,0-0.7-0.1c-0.3,0.1-0.6,0.1-0.9,0.2
		c-0.8-0.1-1.6-0.2-2.4-0.3c-2.3-0.1-4.7-0.2-7-0.2l-0.1,0c0-0.1,0.1-0.2,0.1-0.3c-1-0.1-2-0.2-3.1-0.3c-1,0-2.1,0-3.1,0
		c-0.8,0.1-1.5,0.1-2.2,0c-1.3,0-2.6,0.1-3.9,0.1c-0.1,0.1-0.2,0.1-0.4,0.1c0,0.2,0,0.3,0,0.4c-0.4,0.1-0.7,0.2-1.1,0.3
		c-0.3-0.1-0.5-0.1-0.7-0.2c-0.3,0.1-0.6,0.1-0.9,0.1c-0.5,0-1-0.1-1.5-0.1l0.1,0.1c-0.8,0-1.6-0.1-2.4-0.1
		c-2.1,0.1-3.7-0.3-5.2-0.7c-0.6,0.1-1.1,0.1-1.7,0.2c-0.7-0.2-1.5-0.3-2.3-0.1c-0.5,0-1,0-1.5,0.1c-0.6-0.1-1.1-0.2-1.6-0.3
		c-1.6,0.3-3.4,0.3-5.1,0.2c-0.3,0-0.6-0.1-1-0.1c-0.3,0.1-0.6,0.2-0.9,0.2c0-0.1-0.1-0.1-0.1-0.2c-0.4,0-0.8,0-1.3,0
		c0.1,0.1,0.1,0.1,0.1,0.2c-0.3,0-0.6,0-1-0.1c-0.5-0.1-1-0.3-1.6,0c-2.6-0.4-5.2-0.8-7.9-1.2c-0.1-0.8,1.8-0.7,3.2-0.8
		c0.1-0.9,0.6-1.9-1.3-2.7c-1.2-0.2-2.3-0.1-3.5,0c0,0.2,0,0.3,0,0.5l0,0c-2.3,0.1-4.6,0.2-6.8,0.3c-0.4,0-0.9,0.1-1.4,0.1
		c-2.1,0.5-5.1,0-7,0.6c-2.6,0-5.2,0-7.7,0c-1.8-0.1-3.5-0.1-5.3-0.2c-0.7,0.2-1.5,0.4-2.4,0.1c-1.3,0-2.5-0.1-3.8-0.1
		c-0.3,0.1-0.5,0.2-0.8,0.4c-0.2-0.1-0.4-0.1-0.7-0.1c0-0.1,0-0.2,0-0.3c-1.5,0-3,0.1-4.6,0.1c-0.1,0.3-0.9,0.3-1.5,0.4
		c0-0.1-0.1-0.2-0.1-0.2c-1,0-2,0.1-3,0.1c0,0.2-0.1,0.3-0.1,0.5c-0.5,0.2-1,0.5-1.5,0.7c-0.5,0-1,0-1.5,0c-0.1-0.1-0.3-0.2-0.8-0.2
		c-0.4,0.4-0.4,0.9-1.6,1.2c-0.7,0-1.4-0.1-2.1-0.1c-0.9,0.1-1.8,0.2-2.7,0.3c-1.8-0.3-3.4-0.1-5.1,0.1c-1.8-0.7-1.6,0-2,0.3
		c0.2,0.2,0,0.3-0.7,0.2c-0.6,0-1.4,0-1.6,0.2c-0.3,0.3,0.4,0.3,1.1,0.4c0.7,0.1,1.5,0.1,2.2,0.1c0.4,0.3,1,0.6,1,0.9
		c-0.1,1.4,2.5,1.8,6.4,1.8c2,0,4.2-0.1,5.9,0.3c1.3,0,2.5-0.1,3.8-0.1c1,0.2,2,0.2,3,0.1c0.5,0,1,0,1.5,0c0.5,0,1,0,1.5,0.1
		c0.4,0.1,0.9,0.1,1.3,0.2c0.6,0,1.2,0.1,1.7,0.1c1.7-0.2,3,0.4,4.6,0.3c2.2,0.4,4.6,0.3,7,0.5c1.4,0.2,3,0.1,4.2,0.4
		c-0.3,0.3-1.3,0.2-1.9,0.3c-2.4-0.1-4.6,0.4-7,0.2c-2.6,0.5-5.6,0.3-8.5,0.5c-2.1,0.1-3.9,0.4-4.1,1.1c-0.3,0.9-1.9,1.8-2.2,2.7
		c-0.4,0.1-0.9,0.3-1.3,0.4c-1.3,0.1-2.8-0.1-3.8,0.3c-0.6,0-1.2,0.1-1.7,0.1c-0.2,0-0.4,0-0.5,0c-3.7-0.1-5.8,0.6-7,1.6
		c-0.8,0.6-1,0.5-1.5,0c-1.4-0.1-2.3,0.2-3.1,0.5c-1,0-2.1,0-3.1-0.1c-1.3-0.1-2.5,0-3.7,0.2c-0.9,0-1.7,0-2.5,0c-0.4,0-0.9,0-1.3,0
		c-1-0.1-2.3-0.2-2.5,0.2c-0.3,0.5,1.2,0.6,2.5,0.7c1.2,0.3,3.3,0.1,3.4,0.8c-0.7,0.2-0.4,0.4,0.5,0.4c2,0.3,4,0.4,6.1,0.3
		c1.8,0.2,3.4,0.6,5.4,0.4c1.7-0.1,3.3-0.1,4.8,0.2c-1.5-0.2-3.1-0.3-4.8-0.2c0.5,0.5,2.2,0.3,3,0.6c1.1-0.1,2.1-0.1,3.2-0.1
		c0.7,0,1.5,0.1,2.2,0.1c1,0.1,2,0.2,3,0.3c1.9-0.2,3.6-0.2,4.7,0.5c-0.1,0.1-0.3,0.2-0.4,0.3c1.8,0.7,1.8,1.3-1,1.8
		c-1.9,0.1-3.4,0.5-5.5,0.4c-0.5,0.2-1,0.3-1.5,0.5c2.2,0.3,4.6,0.4,7,0.2c1,0.1,1.8,0.2,1,0.6c-0.9,0.4-1.8,0.9-3.6,0.7
		c-1.6-0.2-3,0-4.5-0.1c-5.8,0.6-7.6,1.4-5.9,2.8c0.5,0.1,0.9,0.2,1.4,0.3c0.4,0.6-1.3,1.4,1.5,1.8c0,0.2,0.1,0.3,0.1,0.5
		c0.4,0.2,0.9,0.4,1.3,0.6c0.3,0.1,0.7,0.1,1,0.2c0.3,0.2,0.5,0.3,0.8,0.5c0.5,0,1,0,1.5,0c2,0,4,0.1,6.1,0.1
		c0.7,0.2,1.6,0.1,2.4,0.1c0.6,0.1,1.2,0.2,1.8,0.2c3-0.1,4.6,0.2,5.1,1.2c0.8,1.6,3.9,2.4,8.7,2.7c2.4,0.2,3.1,0.6,2.6,1.4
		c-1.4,2,0.3,2.9,5.6,3.3c-0.7-1.1-1.5-2.2-2.2-3.2c-0.1,0.1-0.1,0.2-0.3,0.3c-0.1,0-0.1,0-0.3,0c0.1,0,0.2,0,0.3,0
		c0.1-0.1,0.2-0.2,0.3-0.3c0.7,1.1,1.5,2.2,2.2,3.2l-0.1,0.1c3.6-0.2,2.4,0.8,3.4,1.3c0.3,0,0.4,0.1,0.6,0.1c2.4-0.1,4.7-0.1,7,0.2
		c3.4,0.6,7.4,0.2,10.8,0.7c0.7,0,1.4-0.1,2.1-0.1c0.1-0.1,0.3-0.3,0.4-0.4l0,0c-0.1,0.1-0.3,0.3-0.4,0.4c0.6,0,1.3,0,1.9,0
		c1.2,0,2.5,0,3.7,0c-0.3,0.2-0.6,0.4-0.9,0.6c-2.3-0.1-4.6,0.2-6.9-0.2c-1.3,0-2.6-0.1-3.9-0.1c-1.3,0.1-2.5,0.4-3.8,0.1l0-0.1
		c-0.2,0-0.4,0-0.6,0.1c-0.1,0-0.2,0-0.3-0.1c-0.2,0-0.4,0-0.6,0c-1.7,0.3-3.6,0.2-5.5,0.2c-1.4,0-2.5,0.1-1.8,0.7
		c0.4,0,0.7,0,1.1,0c1.6-0.1,2.4,0.1,2.7,0.6c0.6,0.1,1.3,0.2,1.9,0.3c5.4,0.6,11.1,0.9,16.6,1.4c1.7,0.2,3.4,0.4,5.1,0.4
		c1.7,0,2.5,0.3,3.1,0.7c1,0.1,1.9,0.2,2.9,0.3c0.8-0.2,1.5-0.1,2,0.1c0.3-0.1,0.7-0.1,1-0.2c0.2,0,0.4,0,0.7,0
		c0.3,0.2,0.6,0.3,0.8,0.5c0.4,0.3,1.3,0.5,2.4,0.5c0.1,0.1,0.3,0.1,0.6,0.1c1.7-0.1,3.5,0.1,4.9-0.3c0-0.1-0.1-0.1-0.1-0.2
		c1.2-0.3,2.9-0.3,4-0.1c5.6,0.5,11.1,0.7,16.6,0.1c2.6,0,5.1-0.3,7.7-0.1c0.3,0,0.5,0,0.7,0.1c0.5,0,1-0.1,1.6-0.1
		c0.5-0.1,1-0.1,1.4-0.2c0-0.3,0-0.5,0-0.7c0-0.1,0-0.2,0.1-0.3c0,0.1,0,0.2-0.1,0.3c0,0.3,0,0.5,0,0.7c-0.5,0.1-1,0.1-1.5,0.2
		c0.1,0.1,0.1,0.1,0.1,0.2c1.6,0.1,3.3,0.2,4.5,0.5c1.5,0,3,0,4.5,0c0.4-0.1,0.9-0.3,1.2-0.3c6.3,0.6,12.6,0,19,0.2
		c3.9,0.1,8,0.4,12,0.1l0,0c1.3,0,2.7,0,4.1,0.1c1.8,0,3.6,0.2,5.4,0c3,0.4,6.3-0.4,9.2,0.3c0.8,0,1.5-0.1,2.3-0.1
		c0.5-0.1,1-0.2,1.5-0.4c0.6,0.1,1.2,0.1,1.5-0.2c0.6-0.1,1.1-0.1,1.6-0.1c1.2-0.1,1.5,0.1,1.2,0.5c2.4,0.3,4.9,0.1,7.3,0
		c0.3-0.4,0.7-0.8,2.1-0.7c3,0.2,5.8-0.2,8.7-0.2c2.1-0.2,4.2-0.1,6.2,0.3c3.3-0.1,6.5-0.2,9.8-0.3c0.3,0,0.6,0.1,0.8,0.1
		c2.5,0,5-0.1,7.5-0.1c0-0.2,0.1-0.3,0.1-0.4c0.3,0,0.5-0.1,0.7-0.1c1.7-0.5,3.3-0.4,4.9-0.3c-1.6-0.2-3.2-0.2-4.9,0.3
		c1.3,0.2,2.9,0,4.1,0.3c0.4,0.1,0.9,0.2,1.3,0.3c0.4-0.3,0.8-0.1,1.2,0c0.3,0,0.6-0.1,0.9-0.1c0.1-0.1,0.2-0.3,0.3-0.4
		c2.1,0,4.1,0,6.2,0c4-0.4,8.2,0.1,12.3-0.2c1,0,2.1,0,3.1,0c0.2,0,0.4,0.1,0.6,0.1c0,0.1,0,0.2-0.1,0.2c0.9,0.3,2,0.2,3.1,0.2
		c0-0.1,0.1-0.3,0.1-0.4c3-0.1,6.3,0.3,9.1-0.4c1.6,0.2,3.3,0.2,4.9-0.1c0.4,0,0.9,0.1,1.4,0.1c1,0.2,2,0.3,3.1,0.1
		c2.1,0,4.2-0.1,6.1-0.4c0.6,0,1.2,0,1.7,0c1.5,0.1,3,0.2,4.6,0.3c1.3,0,2.5-0.1,3.8-0.1c0.7-0.1,1.5-0.1,2.2-0.2
		c0.3,0.1,0.6,0.1,0.9,0.2c0.4,0,0.9,0,1.3,0c1.5-0.4,3.1-0.6,4.9-0.3c0.5-0.1,0.9-0.1,1.4-0.2c0.3,0.1,0.5,0.1,0.7,0.1
		c1.3-0.3,2.9-0.3,4.4-0.4c0.8,0,1.4-0.1,1.9-0.3l0,0c0.7,0,1.4,0,2.1,0c1.6,0,3.2,0,4.7,0c1.5,0.1,3,0.1,4.5,0.2
		c2.8,0.2,5.7,0.4,8.5,0.6c0.7,0,1.5,0,2.3,0c0.3,0.1,0.5,0.2,0.8,0.3c0.8,0,1.6,0.1,2.4,0.1c0-0.1-0.1-0.1-0.1-0.2
		c1,0,2.1,0.1,3.1,0.1c3.8,0.4,8.1,0.1,11.7,0.8c1.8,0,3.6,0.1,5.3,0.1c-0.1,0.1-0.1,0.1-0.1,0.1c0.5,0,1-0.1,1.6-0.1
		c4.6,0.3,9.2,0.6,13.9,0.9c0.3,0,0.6,0,0.9,0.1c1,0,1.9,0,2.9-0.1c-0.5-0.4-1.9-0.6-2.8-0.9c0.9,0.3,2.3,0.5,2.8,0.9
		c0.7,0.2,1.6,0.2,2.4,0.2c0.5,0,1,0,1.5,0c1,0.1,2,0.1,3,0.1c1,0.2,2,0.3,3.2,0.2c0.7,0,1.5,0.1,2.3,0.1c2.5,0.3,5.1,0.4,7.7,0.4
		c0.5,0,1,0.1,1.5,0.1c1,0.2,2.1,0.2,3.1,0.1c0.5,0,1,0,1.4,0c7.7,0.4,15.4,0.8,23.1,0.2c0.5,0,1-0.1,1.5-0.1
		c1.7,0.2,3.2-0.1,4.7-0.2c0.7-0.1,1.5-0.2,2.2-0.3c1.8,0.3,3.7,0,5.4,0.2c0.7,0,1.4,0,2.1,0c0.2-0.2,0.4-0.3,0.6-0.5
		c-1.9,0-3.8-0.1-5.8-0.1c1.9,0,3.8,0.1,5.8,0.1c6.8,0.2,13.2-0.6,19.6-1.1c0.5,0,1-0.1,1.5-0.1s1,0,1.6,0c0.5,0,1,0,1.5,0
		c0.5,0,1,0,1.5,0c1.8,0.1,3.8-0.1,5.4,0.3c1.8,0.4,2.7,0,3.8-0.3c0.7,0.5,2.2,0.6,3.7,0.6c2.1,0,4.3-0.1,6.4-0.2
		c2.7-0.2,5.4-0.4,8.3-0.2c2,0.1,4,0.2,6,0.3c0.7,0,1.3,0,2,0c0.2,0,0.4-0.1,0.6-0.1c0.2,0,0.4,0,0.7,0c0.6-0.1,1.2-0.2,1.8-0.3
		c0.3-0.1,0.7-0.1,1-0.1c1.2-0.2,2.4-0.4,2.1-0.8c-0.4-0.7-2-0.2-3.1-0.3c-0.4,0-0.7,0-1.1-0.1c-0.7,0.2-1.5,0.3-2.3,0.5
		c-8.5-0.2-16.9-0.5-25.4-0.1c-0.7-0.1-1.4-0.2-2.1-0.3c-0.1-0.1-0.1-0.1-0.3-0.1c-0.7,0-2,0-2.2-0.1c-2.5-1.8-8-0.9-11.9-1.4h0h0
		c0.4-0.8,2.8-0.5,4.1-0.7c1.5,0.1,3.1,0.2,4.6,0.2c1.3,0.4,2.6-0.2,3.9,0l-0.1,0.1c2.6,0,5.2,0,7.7,0.1c0.8-0.1,1.6-0.1,2.5-0.1
		c0.9,0,1.8-0.1,2.1,0.3l0,0c1.3,0,2.6,0,3.9,0c1,0.1,2.1,0.2,3.1,0.3c0.6-0.1,1.2-0.2,1.9-0.2c-0.7-0.4,0.3-0.5,1.2-0.6
		c-0.2-0.2-0.3-0.3-0.4-0.5c0.2,0.2,0.3,0.3,0.4,0.5c0.3,0.1,0.6,0.1,0.9,0.2c0.2,0,0.4-0.1,0.6-0.1c0.7,0,1.5,0,2.2,0
		c0,0.1,0,0.1,0.1,0.2c0.5-0.1,1-0.2,1.5-0.3c0.3,0,0.6,0,0.8,0c0.3,0,0.6,0.1,0.9,0.1c0.1-0.1,0.2-0.1,0.3-0.2
		c-0.1-0.1-0.3-0.1-0.5-0.1l0,0c0.1,0.1,0.3,0.1,0.5,0.1c0.6-0.1,1.2-0.1,1.8-0.1c0.3-0.3,1.1-0.5,2.1-0.5c0-0.2,0.1-0.4,0.1-0.6
		c-1.5-0.1-1.8-0.5-2.3-0.9c5.9,0.1,11.8-0.5,17.7-0.7c0.2,0,0.4-0.1,0.5-0.2c0.7-0.8,1.7-0.6,2.7-0.5c0.8,0.1,1.7,0.2,2.4-0.2
		c0.3-0.2,0.6-0.3,0.9-0.3c0.5,0,1.1,0,1.6,0c0.1,0,0.2,0,0.3,0.1c1.9,0.4,3.8,0.2,5.7,0.2c0.5,0,0.9,0,1.1-0.4
		c0.8-1.2,2.2-1.7,3.9-1.9c0.7-0.1,1.1-0.6,1.1-1c0.1-0.5-0.6-0.6-1-0.7c-0.9-0.2-1.5-0.8-2.4-0.8c-0.6,0.3-1.3,0.6-1.9,0.1
		c-0.3,0-0.5,0-0.8,0c-0.8,0.5-1.6,0.1-2.4,0c-0.7,0.5-1.5,0.4-2.3,0.3c-0.6,0.4-1-0.2-1.5-0.2c-0.7,0.2-1.3,0.1-1.9-0.2
		c-0.3-0.1-0.5-0.1-0.8-0.2c-0.5,0.1-1,0.1-1.5,0.2c-0.4,0-0.8-0.1-1.2-0.1c-0.7,0.1-1.5,0.1-2.3,0.2c-0.9,0.3-1.8,0.2-2.7,0
		c-1,0-2,0-3,0c-0.3,0.2-0.5,0.2-0.7-0.1c-0.5,0-1-0.1-1.5-0.1c-0.3,0.1-0.6,0-0.7-0.2c-0.6-0.1-1.2-0.1-1.7-0.2
		c-0.2-0.1-0.4-0.1-0.7-0.2c-0.1-0.1-0.3-0.2-0.4-0.1c0,0-0.1,0-0.1-0.1c-0.1,0-0.2,0-0.3,0c-0.4-0.1-0.8-0.2-1.2-0.3
		c-0.3,0.1-0.6,0.1-0.9,0.2c0-0.1,0-0.1,0-0.2c-0.5,0-1-0.1-1.5-0.1c-0.3-0.1-0.6-0.1-0.8-0.2c-0.1,0-0.3,0-0.4,0l0,0
		c-0.1-0.1-0.2-0.1-0.3-0.1c-0.3,0.2-0.5,0.2-0.8,0c-0.5-0.1-1-0.1-1.5-0.1c-0.6,0.2-0.9-0.1-1.2-0.5c-0.2,0-0.5-0.1-0.7-0.1
		c-0.5,0.1-1,0.2-1.2,0.5c-0.1,0-0.2,0.1-0.3,0.1c-0.4-0.1-0.7-0.2-1.1-0.3c-0.1,0-0.3-0.1-0.4-0.1c-0.1,0.1-0.1,0.1-0.2,0.1
		c0.1,0,0.1-0.1,0.2-0.1c-0.4,0-0.8-0.1-1.2-0.1c-0.3,0-0.5,0-0.7,0c-0.6,0-1.3-0.1-1.9-0.1c-0.3-0.1-0.5-0.2-0.8-0.3
		c0.9-0.2,1.7-0.3,2.6,0c0.5,0,1,0,1.5,0c0.9-0.2,2-0.2,3.1-0.2c0.5-0.1,1-0.1,1.5-0.2c1.8-0.3,3.6-0.3,5.4-0.2
		c0.7,0.1,1.5,0.1,2.2,0.2c0.6-0.5,1.7-0.6,3.3-0.5c0.5-0.1,0.9-0.1,1.4-0.1c2.4-0.7,5.7-0.6,8.6-0.9c1.2-0.1,2.7-0.3,2.6-0.8
		c-0.1-0.6-2-0.3-3.1-0.4c-1.6-0.1-3.7,0.2-4.8-0.5c0.1-0.1,0.1-0.1,0.2-0.2c1.4-0.1,2.8-0.2,4.2-0.2c0.5,0,1,0,1.4,0
		c0.6-0.1,1.2-0.1,1.8-0.1c1.7,0,3.1-0.2,4-0.7c0.1,0,0.1,0.1,0.2,0.1c0.4-0.1,1-0.1,1.4-0.2c0.1,0,0.2,0,0.3,0
		c1.9,0.1,3.6,0.1,5.5-0.2c1.2-0.2,2.8-0.7,4.4-0.2c2.1-0.2,2.2-0.6,0.9-1.1c-0.3-0.1-0.6-0.2-0.9-0.4c0.3-0.2,0.6-0.3,0.9-0.5
		c0.4,0.3,0.8,0.5,1.4,0.3c0.5-0.1,1.1-0.1,1.2,0.5c0.3,0,0.5,0,0.7,0c-0.3-0.3,0-0.5,0.3-0.7l0,0c0.4-0.1,0.9-0.2,1.3-0.3
		c0.4-0.2,0.7-0.5,1.1-0.6c-0.4,0.1-0.7,0.4-1.1,0.6c0.3,0.2,0.5,0.3,0.7,0.4c0.3-0.2,0.5-0.3,0.7-0.4c0.1-0.2,0.3-0.3,0.5-0.5
		c0.4,0,0.7,0,1.1-0.1c0.2-0.1,0.3-0.3,0.5-0.4c0.2,0,0.5-0.1,0.7-0.1c0.1,0,0.3,0,0.4,0c0-0.1,0-0.2,0-0.3
		C623.3,51.6,624.6,50.9,624.3,49.8z M315.9,27.8c0.2,0.3,1.1,0.5,1.7,0.8C317,28.3,316.1,28.1,315.9,27.8z M315.8,27.8
		C315.8,27.8,315.8,27.8,315.8,27.8C315.8,27.8,315.8,27.8,315.8,27.8z M587,57L587,57c0.2-0.1,0.4-0.1,0.6-0.1l0,0
		C587.4,57,587.2,57,587,57z M585.6,57.1c-0.1-0.3-0.1-0.5,0-0.7l0,0C585.5,56.6,585.5,56.8,585.6,57.1L585.6,57.1z M281.6,39.1
		c-0.1,0-0.2,0-0.3,0C281.4,39.1,281.4,39.1,281.6,39.1c0.1,0,0.3,0,0.4,0.1l0,0C281.8,39.1,281.7,39.1,281.6,39.1z M556.4,62
		L556.4,62c0,0,0.1-0.1,0.1-0.1l0,0C556.5,61.9,556.4,61.9,556.4,62z M533.5,60.8L533.5,60.8c0,0.1-0.1,0.1-0.1,0.2
		C533.4,60.9,533.5,60.9,533.5,60.8z M525.1,61.1C525.2,61.1,525.2,61.1,525.1,61.1C525.2,61.1,525.2,61.1,525.1,61.1z M525.2,61.1
		c0,0,0.1,0.1,0.1,0.1C525.3,61.1,525.2,61.1,525.2,61.1z M537,62.4c0.1-0.1,0.1-0.2,0.3-0.3C537.1,62.1,537,62.2,537,62.4L537,62.4
		z M538.8,67.4L538.8,67.4L538.8,67.4L538.8,67.4L538.8,67.4z M383.2,68.4c0.1-0.1,0.2-0.1,0.3-0.2l0,0
		C383.4,68.3,383.3,68.4,383.2,68.4z M348.9,29.2L348.9,29.2L348.9,29.2L348.9,29.2L348.9,29.2z M350.2,29L350.2,29L350.2,29
		L350.2,29L350.2,29z M349.9,30.7L349.9,30.7L349.9,30.7L349.9,30.7L349.9,30.7z M350.2,29.1c-0.1,0.4-0.2,0.7-0.3,1
		C350,29.8,350.1,29.5,350.2,29.1L350.2,29.1z M349.9,30.2C349.9,30.2,349.9,30.2,349.9,30.2L349.9,30.2
		C349.9,30.2,349.9,30.2,349.9,30.2z M348.9,29.2L348.9,29.2c0,0.2,0,0.3,0,0.5C349,29.5,348.9,29.3,348.9,29.2z M269.3,67.1
		c0.1,0.1,0.3,0.1,0.4,0.2C269.6,67.2,269.4,67.1,269.3,67.1L269.3,67.1z M537.6,69.7c-0.1,0-0.2,0-0.3,0
		C537.4,69.8,537.5,69.8,537.6,69.7z M537.3,69.8c-0.1,0-0.2,0.1-0.3,0.1C537.2,69.8,537.2,69.8,537.3,69.8z M599.6,49.1
		c-0.6-0.6-1.6-1-1.9-1.7c-0.8-0.2-1.1,0.1-1.3,0.4c0.2-0.3,0.5-0.6,1.3-0.4C597.9,48.2,598.9,48.5,599.6,49.1
		c0.1,0.1,0.3,0.3,0.3,0.4C599.8,49.4,599.7,49.3,599.6,49.1z M574.7,39.9c0,0,0-0.1,0-0.1C574.7,39.8,574.7,39.9,574.7,39.9z
		 M344.5,28.4c0.3,0.1,0.5,0.1,0.7,0.2C345,28.5,344.7,28.5,344.5,28.4L344.5,28.4z M346.9,29.2L346.9,29.2c-0.5,0-1.1,0.2-1.6,0
		C345.8,29.4,346.4,29.2,346.9,29.2z M345.5,31L345.5,31L345.5,31c0.3-0.1,0.6-0.1,0.9-0.1c0.1,0,0.3,0.1,0.4,0.1
		c0.1,0,0.3,0,0.5-0.1l0,0c-0.1,0-0.3,0-0.5,0.1L347,31c-1.4,0-2.3,0.4-3.3,0.6c-0.2,0-0.4,0-0.6-0.1c0.1-0.2,0.1-0.4,0.2-0.6l0,0
		l0,0l0,0l0,0l0,0c0.1,0,0.2,0,0.3,0C344.3,31.3,344.9,31.1,345.5,31z M429.4,73.1L429.4,73.1L429.4,73.1z M455.6,75
		c-0.2,0-0.3-0.1-0.5-0.1C455.3,75,455.5,75,455.6,75z M456.4,75.1c-0.2,0-0.4,0-0.6,0C456.1,75,456.2,75.1,456.4,75.1z M605.3,46.6
		c0.8,0.8,1.8,2,1.8,2.3c0,0.2-0.1,0.4-0.2,0.5c0.1-0.1,0.2-0.4,0.2-0.5C607.1,48.6,606.1,47.4,605.3,46.6z M555.2,36.6
		c0,0.1,0.1,0.3,0.1,0.4c-0.6,0.8-1.2,0.9-1.5-0.1c0,0,0,0,0,0C554.2,36.7,554.7,36.7,555.2,36.6z M489.9,31.2
		c0.1,0.1,0.1,0.2,0.2,0.3C490,31.4,489.9,31.3,489.9,31.2z M489,29.3L489,29.3c-0.1,0.1-0.2,0.2-0.4,0.3
		C488.8,29.5,488.9,29.4,489,29.3z M455.7,28.9c-0.2,0-0.4-0.1-0.6-0.2C455.3,28.9,455.5,28.9,455.7,28.9z M342.1,28.4
		c0.2,0,0.4,0,0.7-0.1l0,0C342.5,28.3,342.3,28.3,342.1,28.4c0.5,0.5,1.5,0.7,3,0.7c0,0,0,0-0.1,0c-1.4-0.1-2.8-0.1-4.2-0.2
		c0-0.1,0-0.3,0-0.4C341.2,28.5,341.6,28.4,342.1,28.4z M333,28.7L333,28.7C333.1,28.7,333.1,28.6,333,28.7
		C333.1,28.6,333,28.6,333,28.7z M337,28.5c-0.4-0.1-0.7-0.1-1.1-0.2c0-0.1-0.1-0.1-0.1-0.1c0.8-0.1,1.6-0.1,2.3,0l0,0
		c0.3,0.2,0.5,0.5,1,0.6c-0.3,0-0.6-0.1-1-0.2C337.7,28.7,337.3,28.6,337,28.5z M338.1,30.2C338.1,30.2,338,30.2,338.1,30.2
		C338,30.2,338.1,30.2,338.1,30.2z M320.4,32c0.1,0,0.2,0,0.3,0C320.5,32,320.4,32,320.4,32z M266,32.6c0.1,0.7-0.1,1.5,0.5,2.2
		c0.1,0.1,0.3,0.3,0.4,0.4c-0.2-0.1-0.3-0.3-0.4-0.4C265.8,34,266,33.3,266,32.6L266,32.6z M270,32.5c-0.1,0-0.2,0-0.3,0.1
		C269.8,32.5,269.9,32.5,270,32.5z M269.2,32.6L269.2,32.6C269.2,32.6,269.2,32.6,269.2,32.6z M246.6,31.3
		C246.6,31.2,246.6,31.2,246.6,31.3C246.6,31.2,246.6,31.2,246.6,31.3z M246.5,30.9c0,0.1,0,0.1,0,0.2
		C246.5,30.9,246.5,30.9,246.5,30.9z M246.5,31C246.5,31,246.5,31.1,246.5,31C246.5,31.1,246.5,31,246.5,31z M246.6,31.1L246.6,31.1
		C246.6,31.1,246.6,31.1,246.6,31.1z M237.6,38.4c0.8,0.1,1.5,0.1,2.3,0.1c1-0.1,2-0.2,3-0.1c0.7,0,1.5,0,2.3,0
		c4.2-0.3,8.4,0,12.5,0.1c3,0.1,6,0.3,9,0.1c0.5-0.1,1.1-0.1,1.6-0.2c1.5-0.1,3,0,4.5,0.1c0.6-0.1,1.1-0.1,1.6-0.1
		c1.3-0.1,2.5-0.1,3.7,0.1l0,0c0.5,0.2,1,0.2,1.6,0.1c0,0,0,0,0.1,0c0.1,0.1,0.2,0.1,0.4,0.2c0.1,0.3,0.4,0.3,0.7,0.3
		c0,0.1,0.1,0.1,0.1,0.2c-0.2,0.1-0.4,0.2-0.5,0.3c-0.7,0-1.5,0.1-2.3,0.1c-1-0.2-2-0.2-3,0c-6.1,0-12.1,0.5-18.2,0.1
		c-1.3-0.1-2.8,0-4.1,0.2c-1.8,0-3.6,0-5.4,0c-1.1,0.1-2.2,0.1-2.7,0.4c-0.9,0-1.7,0-2.6,0.1c0-0.1,0-0.1-0.1-0.2c-1,0-2,0-3.1,0
		c-0.3,0.1-0.5,0.1-0.8,0.1c-1.3,0.1-2.5,0.1-3.8,0.2c-2.3,0-4.6,0-6.9-0.1c-0.5-0.1-1.1-0.2-1.6-0.3c-1.3,0.1-2.4,0-3.2-0.4
		c-1.1-0.1-2,0-2.9,0.2c-0.3,0-0.5-0.1-0.7-0.1l0,0c-1.5,0-3.1-0.1-4.6-0.1c-1.3,0-2.5,0-3.8,0c-0.4,0-0.9-0.1-1.3-0.1
		c-0.1-0.2-0.1-0.3-0.2-0.4c3.2-0.3,7.6,0.5,9.3-1.1c0.4,0,0.8,0,1.2,0l0,0c0.4,1.1,3.4,0.4,4.9,0.7c0.5,0,1-0.1,1.5-0.1
		c0-0.1,0-0.2,0-0.3c0.7-0.1,1.5-0.1,2.2-0.2C231.5,37.7,234.5,38.4,237.6,38.4z M247.6,69.7c0.4-0.1,0.9-0.2,1.3-0.3
		C248.5,69.5,248.1,69.6,247.6,69.7l-0.1,0.1L247.6,69.7z M206.1,38L206.1,38c0-0.3,0.6-0.7,0.1-1C206.6,37.3,206.1,37.7,206.1,38z
		 M205.5,36.9c0.2,0,0.4,0.1,0.5,0.1C205.9,36.9,205.7,36.9,205.5,36.9z M178.4,65.4c-0.1,0-0.1,0-0.2,0.1
		C178.3,65.4,178.4,65.4,178.4,65.4z M177.8,65.6c-0.1,0-0.3,0.1-0.4,0.1C177.6,65.6,177.7,65.6,177.8,65.6z M161.9,31.6
		c0.2,0,0.3,0,0.4,0C162.2,31.6,162.1,31.6,161.9,31.6c-0.6,0.1-1,0.3-0.9,0.5C160.9,31.9,161.2,31.7,161.9,31.6z M176.9,65.8
		c-0.6,0.2-1,0.5-1,0.8c1.5,0.3,3.1,0.7,4.6,1c-1.5-0.3-3.1-0.7-4.6-1C176,66.3,176.3,66,176.9,65.8z M146.5,66.6
		c-1.5,0-1.8,0.4-2.4,0.7C144.7,67,145,66.6,146.5,66.6c0-0.1,0.1-0.1,0.1-0.1C146.6,66.5,146.5,66.6,146.5,66.6z M144,67.4
		c-0.1,0.1-0.2,0.1-0.4,0.1C143.7,67.5,143.8,67.4,144,67.4z M149.8,66.2c0.3,0,0.5,0.1,0.8,0.1C150.3,66.2,150,66.2,149.8,66.2
		c-0.3,0-0.6,0-0.8,0C149.2,66.1,149.5,66.2,149.8,66.2z M140.7,68.7c1.3,0,2.2-0.4,3.4-0.5C142.9,68.3,142.1,68.7,140.7,68.7
		L140.7,68.7C140.6,68.7,140.7,68.7,140.7,68.7z M149.6,69.1L149.6,69.1L149.6,69.1z M173.6,68.3L173.6,68.3c-1.8,0-3.4-0.7-5-0.6
		C170.3,67.7,171.9,68.3,173.6,68.3z M177.6,68.2c0.7,0,1.4-0.1,2.1-0.1C179,68.1,178.3,68.2,177.6,68.2c-0.9,0.4-1.9,0.3-3,0.2
		C175.7,68.5,176.7,68.6,177.6,68.2z M181.2,68.6c0.4,0.1,0.9,0.1,1.4,0.1C182.1,68.6,181.6,68.6,181.2,68.6c-0.2,0-0.4-0.1-0.6-0.1
		C180.7,68.5,180.9,68.5,181.2,68.6z M185.1,68.6c0,0,0.1,0,0.1,0C185.2,68.6,185.1,68.6,185.1,68.6c-0.4,0-0.9,0-1.4,0
		C184.2,68.6,184.6,68.6,185.1,68.6z M157.1,32.1c0.1,0,0.3,0,0.4-0.1C157.4,32,157.2,32,157.1,32.1z M141.2,31.7
		c-0.3-0.2-0.4-0.5-0.6-1l0,0C140.7,31.3,140.9,31.6,141.2,31.7z M81.4,52.5c1.2-0.9,3.5-1.7,0.5-2.6C84.9,50.8,82.6,51.5,81.4,52.5
		z M81.3,52.6c-0.1,0.1-0.2,0.2-0.2,0.3C81.1,52.8,81.1,52.7,81.3,52.6z M81.4,49.8c0.1,0,0.1,0,0.2,0.1
		C81.6,49.8,81.5,49.8,81.4,49.8z M97.4,44.7c0.1,0.1,0.3,0.1,0.5,0.1C97.7,44.7,97.6,44.7,97.4,44.7L97.4,44.7z M104.8,39.7
		c0.1-0.1,0.2-0.2,0.3-0.3c0-0.2-0.2-0.4-0.8-0.4c0.6,0,0.8,0.2,0.8,0.4C105.1,39.6,105,39.6,104.8,39.7z M98.2,27.8
		c-0.1,0.3-0.6,0.6-0.4,0.8C97.6,28.4,98.1,28.1,98.2,27.8L98.2,27.8c0.5,0,1,0,1.5,0c0.9-0.2,2.4,0.2,3.3,0c-0.9,0.2-2.4-0.2-3.3,0
		C99.2,27.8,98.7,27.8,98.2,27.8z M93.4,36.8L93.4,36.8c0.1-0.1,0.3-0.1,0.3-0.2C93.7,36.7,93.5,36.7,93.4,36.8z M127.2,69.3
		C127.2,69.3,127.1,69.3,127.2,69.3C127.1,69.3,127.2,69.3,127.2,69.3z M127.2,69.3C127.3,69.3,127.3,69.3,127.2,69.3
		C127.3,69.3,127.3,69.3,127.2,69.3z M129,69.4L129,69.4c0.1-0.2,0.4-0.5,0.5-0.7C129.4,68.9,129.1,69.2,129,69.4z M228.9,75.2
		C228.8,75.2,228.8,75.2,228.9,75.2C228.8,75.2,228.8,75.2,228.9,75.2z M276.8,71.2c-0.8,0.1-1.6,0.1-2.4,0.1
		c-1.2,0.3-2.5,0.3-3.8,0c-0.5,0-1,0-1.6,0c-1.7,0.3-3.6,0.3-5.4,0.2c-1.5,0.1-3,0.2-4.5,0.2c-0.5,0-1.1,0-1.6,0
		c-3.1-0.2-6.1-0.2-9.2,0c-0.4,0.2-0.9,0.3-1.5,0.3c0.5,0.1,1-0.1,1.5-0.3c-0.8,0-1.6,0-2.4,0.1c-2.6-0.2-5.1,0-7.6,0.1
		c-3.3-0.5-6.7,0.4-10-0.1c0,0.1,0,0.2,0.1,0.3c-0.5,0.1-1,0.1-1.5,0.1c-0.2,0.2-0.2,0.3-0.2,0.4c0-0.1,0-0.2,0.2-0.4
		c-2.7-0.5-6.1,0.3-8.5-0.6c-0.2,0-0.5,0-0.7,0c-1.5,0.2-3.1,0.2-4.7,0.2c-1,0.2-1.9,0.2-2.7-0.1c-0.1,0-0.3,0-0.4,0
		c-0.2,0-0.4,0-0.7,0c-1.9,0-3.8,0.1-5.7,0.1c-1.8,0.6-3.9,0.1-5.8,0.1c-2.7,0.1-4.3,1.3-7.6,0.7c-0.8,0-1.6,0-2.4,0l0,0
		c0.8,0,1.6,0,2.4,0c0.2-0.3,0.5-0.7,0.7-1l0-0.1c-1.1,0.1-2.2,0.2-3.3,0.3c-0.2,0.2-0.4,0.4-0.7,0.5l0,0c-1.2,0.1-1.3-0.2-1.5-0.5
		c-0.7-0.1-1.5-0.2-2.3-0.3c-1.2,0-2.5,0.1-3.7,0.1c-1.8-0.1-3.7-0.1-5.5-0.1c-1.1,0.1-2.3,0.1-3.1,0.3c1.5,0.2,3,0.2,4.4,0.2
		c-1.4,0-2.9-0.1-4.4-0.2c-1,0-1.8-0.1-2.3-0.4c-1,0-2,0-3,0c-0.1,0.2-0.2,0.5-1.1,0.5c-0.6,0-0.6-0.2-0.5-0.4
		c-1.5-0.1-3-0.3-4.5-0.4c-0.6,0-1.2,0-1.9,0c-0.7,0.1-1.4,0.1-2.1,0.2c-0.5,0.2-1,0.3-1.5,0c-0.5-0.1-0.9-0.1-1.4-0.1
		c-0.9,0.2-1.8,0.4-2.7,0c-0.4,0-0.7,0-1.1,0c-1.2,0.4-2.3,0.6-3.4-0.1c-3.9-0.1-7.9,0.1-11.5-0.5c0.3-0.3,0.5-0.5,0.7-0.8
		c0.5-0.1,1-0.1,1.6-0.2c0.5,0,1,0,1.5,0c3.3,0.3,6.7-0.3,10,0.1c0.7,0,1.5-0.1,2.2-0.1c0-0.1,0.1-0.1,0.1-0.2
		c-0.1-0.1-0.1-0.2-0.1-0.2c0,0.1,0.1,0.2,0.1,0.2c2.1-0.6,4.3-0.9,6.9-0.3c0.5,0,1,0,1.5,0c0.2-0.1,0.4-0.1,0.7-0.1
		c1.6,0.1,3.3,0.1,4.9,0.2c0.2,0,0.4,0,0.6-0.1c5.2-0.2,10.2-0.1,15.3,0.2c0.6,0,1.1,0,1.7,0c0.1,0,0.2-0.1,0.3-0.1c0,0,0,0.1,0,0.1
		l0.2,0.1c3.4-0.2,7,0.4,10.2-0.4c0.3-0.1,0.6-0.1,0.9-0.1l0,0c0.3,0.2,0.6,0.3,1.3,0.2c-0.1,0.1-0.2,0.1-0.1,0.2l0,0
		c0.8,0.4,2.2,0.3,3.3,0.5c0.3-0.1,0.5-0.1,0.7-0.2c0.7,0.1,1.5,0.1,2.2,0.1c1,0,2.1,0,3.1,0c0.8,0,1.6,0.1,2.4,0.1l0.1-0.1v-0.1
		c0.4,0,0.8,0,1.2,0l0,0c1.1,0.5,2.8,0.2,4.1,0.3c0-0.1-0.1-0.2-0.1-0.3c1.3,0,2.5,0,3.9,0.1c1.7,0.3,3.7,0,5.4,0.2
		c1-0.1,2.1-0.2,3.1-0.3c0.5,0.1,1,0.1,1.5,0.1c1,0,2-0.1,3.1-0.1c1.3,0.1,2.6,0.2,3.9,0.3c0.7,0,1.5-0.1,2.3-0.1h0
		c0-0.1,0.1-0.2,0.1-0.2c1,0.1,2.1,0.2,3.1,0.2c0.5-0.1,0.9-0.1,1.4-0.2c0,0.1-0.1,0.1-0.1,0.2c0.6,0,1.2,0,1.8,0c0-0.1,0-0.1,0-0.2
		c0.5,0,1,0,1.5,0c1.5,0.1,3.1,0.1,4.6,0.2c0.3,0,0.6-0.1,0.9-0.1l0,0c4.1,0.3,8.2,0.1,12.3,0c0.7,0,1.5-0.1,2.3-0.1
		c1.6,0.4,3.6,0.1,5.4,0.3c0.7-0.1,1.5-0.2,2.3-0.3c1.3,0,2.6,0,3.9,0c0.9,0.1,1.6,0,2.3-0.1c0.3,0.1,0.5,0.2,0.8,0.2
		c0.2,0,0.4,0,0.6,0c0.1,0.4,0.4,0.9,0.7,1.4C277.6,71.2,277.2,71.2,276.8,71.2z M302.1,74.6c0.3,0,0.6,0.1,1,0.1
		C302.7,74.6,302.4,74.6,302.1,74.6z M316,70.7c-0.5,0.1-1,0.2-1.5,0.3c-1.6,0.3-2.8,0-4-0.3c-6.8,0.5-13.6,0.6-20.5,0.6
		c0.4-0.2,0.9-0.3,1.4-0.4c1.1,0.2,1.8-0.4,2.7-0.8c0.1-0.2,0.1-0.3,0.2-0.4c1.8,0,3.7,0,5.5,0c2,0,4.1,0.1,6.1,0.1
		c1.9,0.4,4.2,0,6.1,0.3c0.7,0,1.5,0,2.3,0c0.8,0,1.6-0.1,2.4-0.1c2.4,0,4.9,0.1,7.3,0.1l0,0c0.2,0.2,0.3,0.3,0.5,0.4
		c-0.3,0.1-0.6,0.2-0.9,0.2c-0.7,0-1.5,0-2.3,0C319.5,70.5,317.8,71.5,316,70.7z M339,74.1c0.3,0,0.6-0.1,0.9-0.1
		C339.7,74,339.4,74,339,74.1L339,74.1z M404.8,73.5c0-0.1,0.1-0.2,0.1-0.3C404.9,73.3,404.8,73.4,404.8,73.5z M405,73
		c0.1-0.4,0.4-0.8,1.7-1l0,0C405.4,72.2,405.1,72.6,405,73z M428.9,73.6c0.1-0.1,0.2-0.1,0.3-0.2c0.1-0.1,0.2-0.2,0.2-0.2
		c0,0.1-0.1,0.2-0.2,0.2C429.1,73.5,429.1,73.6,428.9,73.6z M456.7,75.1c0.3,0,0.6,0,0.9,0C457.3,75.1,457,75.1,456.7,75.1z
		 M457.6,75.1c1.3,0.1,2.5,0.1,2.6,0.6C460.1,75.2,458.9,75.2,457.6,75.1z M459.8,76.4L459.8,76.4c0.9,0,1.9-0.1,2.8-0.1
		C461.7,76.3,460.8,76.3,459.8,76.4z M530.8,73.3C530.8,73.3,530.8,73.4,530.8,73.3C530.8,73.4,530.8,73.3,530.8,73.3z M551.2,71.5
		c-0.1,0-0.3-0.1-0.5-0.1C550.9,71.5,551.1,71.5,551.2,71.5C551.3,71.5,551.3,71.5,551.2,71.5z M553.9,70L553.9,70L553.9,70z
		 M554.1,69.9c0.3-0.3,1-0.5,1.9-0.6l0,0C555.1,69.5,554.4,69.7,554.1,69.9z M547.1,68.3c0.5,0,1-0.1,1.5,0c0.3,0,0.5,0,0.7,0
		c0.4,0.1,0.9,0.1,1.2-0.3c0.3,0,0.5-0.1,0.8-0.1c0.4,0.1,0.8,0.3,1.2,0.4c0.3,0,0.5,0.1,0.7,0.1c0.3,0,0.5,0,0.8,0s0.5,0,0.7,0
		s0.5,0,0.8,0c0.5,0.1,1,0.1,1.5,0.2c0.2,0.1,0.5,0.1,0.7,0.2c-0.1,0-0.3,0-0.4,0C554,68.7,550.6,68.5,547.1,68.3z M566,71.4
		c0.1,0.1,0.1,0.1,0.2,0.1C566.1,71.5,566.1,71.4,566,71.4z M567.9,71.2c0,0.1,0,0.2,0,0.3C567.9,71.4,567.9,71.3,567.9,71.2
		c0.1-0.5,0.7-0.9,1-1.4l0,0C568.6,70.3,568.1,70.7,567.9,71.2z M574.2,70.6c0,0.1-0.1,0.2-0.1,0.3
		C574.1,70.9,574.1,70.8,574.2,70.6c0-0.1,0-0.2,0-0.3C574.2,70.4,574.2,70.5,574.2,70.6z M568.9,61.6
		C568.9,61.6,568.9,61.6,568.9,61.6C568.9,61.6,568.9,61.6,568.9,61.6z"/>
	<path class="st0" d="M586.2,36.7c0.1,0.2,0.1,0.6,0.5,0.6c0.2,0,0.4-0.3,0.5-0.5c0.1-0.3-0.1-0.4-0.5-0.5
		C586.5,36.3,586.1,36.3,586.2,36.7z"/>
	<path class="st0" d="M630.9,49.7c-1.5-0.7-2.8-0.1-4.3,0.1c-0.3,0-0.5,0-0.8,0.1c-0.4-0.4-0.8-0.7-1.5-0.4c0,0.1,0,0.2,0,0.3
		c0.3,1.1-1,1.8-1.4,2.7c0,0.1,0,0.2,0,0.3c0.4,0,0.7,0,1.1,0c0.8,0,1.7,0.1,2.1-0.7c0.7-0.1,1.1-0.5,1.5-0.9
		c0.4-0.1,0.7-0.1,0.9-0.4c0.8-0.1,1.6-0.3,2.3-0.4C631.7,50.2,631.6,50,630.9,49.7z M625.4,52.1L625.4,52.1c0-0.7,1-1.1,1.2-1.8
		C626.4,51,625.4,51.4,625.4,52.1z"/>
	<path class="st0" d="M345.6,24.6L345.6,24.6l0.1-0.1L345.6,24.6z"/>
	<path class="st0" d="M601.7,58.3c0.6,0.1,1.1,0.2,1.6,0.3c1-0.1,2.6,0.1,3-0.5c0.2-0.4-0.8-0.4-1.5-0.5
		C603.7,57.9,600.5,57.2,601.7,58.3z"/>
	<path class="st0" d="M268.4,38.5c-0.5,0.1-1.1,0.1-1.6,0.2C267.8,39.1,268.2,38.9,268.4,38.5z"/>
	<path class="st0" d="M274.6,38.5c-0.6,0.1-1.1,0.1-1.6,0.1C273.7,38.9,274.2,38.8,274.6,38.5z"/>
	<path class="st0" d="M302.2,75.3L302.2,75.3C302.1,75.3,302.1,75.3,302.2,75.3L302.2,75.3z"/>
</g>
</svg>
