<?xml version="1.0" encoding="utf-8"?>
<!-- Generator: Adobe Illustrator 21.1.0, SVG Export Plug-In . SVG Version: 6.00 Build 0)  -->
<svg version="1.1" id="Layer_5" xmlns="http://www.w3.org/2000/svg" xmlns:xlink="http://www.w3.org/1999/xlink" x="0px" y="0px"
	 viewBox="0 0 169 39.3" style="enable-background:new 0 0 169 39.3;" xml:space="preserve">
<style type="text/css">
	.st0{fill:#82F9F3;}
	.st1{fill:#CCFFF5;}
</style>
<title>home-stroke-l1</title>
<path class="st0" d="M75,2.5c0.2,0,0.4,0,0.5,0c0.5-0.1,1-0.1,1.5,0c0.1,0,0.2,0,0.3,0c0.3-0.2,0.7-0.3,1-0.3c0.1,0,0.3,0,0.4,0
	c0.3,0.2,0.7,0.2,1,0C80,2,80.5,2,80.8,2.2c0.4,0.2,0.9,0.2,1.3,0.1c0.2,0,0.3,0,0.4-0.1s0.1-0.2,0.3-0.1c0,0.1,0.4,0,0.4,0.2
	c0,0,0.1,0,0.1,0c0.1,0,0-0.1,0-0.1S83.1,2,83,1.9s-0.1-0.1,0-0.1c0.1,0,0.1,0,0.2,0c0.1,0,0.1,0.1,0.2,0.1c0.1,0,0.1,0,0.2,0
	c0,0,0-0.1,0-0.1c0,0,0,0,0,0c-0.1-0.1-0.2-0.1-0.3-0.1s-0.4,0.1-0.7,0.1c-0.5-0.1-0.9-0.1-1.4-0.1c-0.3,0-0.7,0-1,0
	c-0.5,0-0.9,0.1-1.4,0.2l0,0c-0.5,0-1,0-1.6,0.1c-0.2,0-0.4,0.2-0.6,0.1c-0.1,0-0.3,0-0.4,0.1c-0.1,0.1-0.3,0.1-0.3,0s-0.1,0-0.1,0
	s-0.4,0-0.6,0s-0.3,0-0.3,0.1S74.8,2.4,75,2.5z"/>
<path class="st0" d="M68.9,2.8c0.6,0.1,1.3,0.1,1.9,0c0.4-0.1,0.8,0,1.1-0.1c0.2,0,0.3,0,0.4,0s0-0.1-0.1-0.1
	c-0.3-0.2-0.7-0.3-1.1-0.1c-0.1,0-0.2,0-0.3,0c-0.7,0-1.3,0.1-2,0.1c-0.1,0-0.3,0-0.3,0.1S68.7,2.8,68.9,2.8z"/>
<path class="st1" d="M168.9,20.5c-0.3-0.1-0.6-0.1-0.8,0l0,0l0,0l0,0c-0.2-0.1-0.4-0.1-0.6-0.1c-0.2,0-0.4-0.2-0.7,0
	c0-0.2,0-0.2-0.2-0.2s-0.3,0-0.3-0.1s-0.1-0.1-0.1-0.1c-0.2-0.1-0.5-0.2-0.7-0.1h-0.1c-0.2,0-0.2-0.1-0.4-0.1l-0.6-0.3l0,0
	c-0.2-0.1-0.1-0.1,0-0.1s0.4,0,0.6-0.1c-0.4,0-0.8-0.1-1.1-0.1c-0.7,0-1.4,0-2.1,0c-0.2,0-0.4,0-0.6,0s-0.2,0-0.1-0.1
	c0.1,0,0.2,0,0.3,0c0.1,0,0.2,0,0.1-0.1c0.1-0.2-0.6-0.1-0.4-0.3H161c-0.1,0-0.2,0-0.3,0c-0.2,0-0.5,0-0.7-0.1h0.1
	c0.1,0,0.3,0,0.4-0.1c-0.2,0-0.4-0.1-0.6-0.1h-0.6H159c-0.1-0.1-0.3,0-0.4-0.1s-0.2,0.1-0.2,0c-0.3-0.1-0.6-0.1-0.9,0l0,0
	c-0.8,0-1.5-0.1-2.3-0.1c-0.5,0-1,0-1.4-0.1c-1-0.1-2-0.2-3-0.2H150c-0.1,0-0.1,0-0.2,0c-0.4-0.2-0.8-0.2-1.1-0.1
	c-0.2,0-0.5,0-0.7,0c-0.8-0.1-1.5-0.1-2.3-0.1c-0.2,0-0.5,0-0.7,0c-0.4,0-0.9,0-1.3-0.1h-0.1c-0.2,0-0.5,0-0.5-0.2s-0.1-0.2-0.3-0.1
	c-0.1,0.1-0.3,0.1-0.4,0.1V17c0.3-0.2,0.7-0.3,1-0.2c0.1,0.1,0.3,0.1,0.4,0.1c-0.1,0-0.1,0.1-0.2,0.1s-0.1,0-0.1,0s0.1,0.1,0.1,0.1
	c0.3,0,0.6,0,0.8-0.1c0.1-0.1,0.2-0.1,0.3-0.1c0.1,0,0.2,0,0.3-0.1c0.2,0,0.4,0,0.5,0.1c0.2,0,0.4,0,0.5-0.1
	c0.1-0.1-0.2-0.1-0.2-0.2c0.4,0,0.7,0.1,1,0.1l0,0c0.1,0.1,0.2,0.1,0.3,0.2c0.1,0,0.3,0.2,0.4,0.1s0.5,0,0.7,0h0.1
	c0.3,0.1,0.6-0.1,0.9,0c0.1,0,0.1-0.1,0-0.1c-0.1-0.1-0.2-0.1-0.3-0.1v-0.1c0.2-0.1,0.4-0.1,0.6,0c0.1,0.1,0.3,0.1,0.4,0.2l0.4,0.1
	c-0.1,0.1-0.3,0.1-0.4,0.2c0.1,0.1,0.3,0.1,0.5,0c0.1-0.1,0.1-0.2,0.3-0.1c0,0.1-0.1,0.3,0.2,0.3s0.6,0.1,0.7-0.2
	c0.1,0.1,0.1,0.2,0.3,0.1s0.2-0.1,0.3,0s0.1,0,0.1,0c-0.1-0.2,0.2,0,0.3-0.1h0.2c0,0.1,0.2,0.1,0.3,0.1h0.8c0.2,0,0.4,0,0.4-0.2
	s-0.2-0.2-0.4-0.1h-0.1c0-0.1-0.3-0.1-0.4-0.2s-0.3-0.1-0.5,0c-0.1,0.1-0.3,0.1-0.4,0.1c-0.1,0-0.3,0-0.5,0c-0.4,0-0.8-0.1-1.1-0.2
	h0.2l0,0l2.8,0c0.5,0,1,0,1.5,0h0.2c0.7,0.1,1.3-0.1,2-0.1c0.1,0,0.2-0.1,0.1-0.1c-0.3-0.1-0.1-0.2,0-0.4s0.1-0.1,0-0.2
	s-0.4-0.1-0.6-0.1l0,0c0.2-0.1-0.2-0.1-0.2-0.2c0.1,0,0.2,0,0.3-0.1c0,0,0.1,0,0.1-0.1c0.2-0.1,0.4-0.2,0.4-0.4
	c0.5-0.1,0.9-0.3,1.4-0.4c0.1,0,0.3-0.1,0.4-0.1c0.4,0,0.8,0,1.1-0.2l0.3-0.1c0.6-0.2,1.1-0.4,1.6-0.6c0.1-0.1,0.3-0.1,0.4-0.2
	c0.2-0.1,0.3-0.1,0.1-0.3s-0.1-0.2,0.2-0.2c0.1,0,0.3,0,0.3-0.1c0-0.1-0.1-0.3-0.4-0.1c0-0.2,0.2-0.3,0.2-0.4
	c-0.1-0.4,0.4-0.6,0.4-1c0-0.1,0-0.2-0.2-0.2c-0.1,0-0.2,0-0.2-0.1c-0.1-0.1,0.1-0.1,0.1-0.1c0.3-0.1,0.4-0.2,0.2-0.4
	c-0.1-0.1-0.1-0.2,0-0.3c0.1-0.1,0-0.1-0.1-0.1c-0.1,0-0.3,0-0.4,0c-0.3,0-0.6,0-0.9-0.1c-0.3-0.1-0.7-0.1-1-0.1
	c-0.5,0.1-1,0.1-1.5,0c0.1,0-0.3,0,0-0.1c0.1,0,0.1-0.1,0.2-0.1c0.2-0.2,0.5-0.2,0.8-0.2c0.6,0,1.1,0,1.7,0c0.3,0,0.8-0.3,0.6-0.5
	c-0.2-0.1-0.1-0.2,0-0.3c0.1-0.1,0.3-0.1,0.2-0.2c0-0.3,0.3-0.3,0.6-0.3s0.3,0,0.3-0.2s-0.1-0.4-0.5-0.5c0.7-0.1,0.8-0.4,0.8-0.7
	c0-0.1,0-0.3-0.3-0.2c-0.1,0-0.2-0.1-0.2-0.1s0.2,0,0.3,0s0.3,0.1,0.3-0.1s0.2-0.1,0.3-0.1s0.3-0.1,0.3-0.2s-0.2-0.1-0.4-0.1
	c-0.1,0-0.2,0-0.3-0.1c0-0.1-0.1-0.1-0.2-0.1s-0.4-0.3-0.4-0.6h0.1c0.3,0.1,0.7,0.1,1,0.1c0.3,0,0.6,0,0.9-0.1c0.1,0,0.1,0,0.2,0
	s0.3,0.1,0.2-0.1c0,0,0.1-0.1,0.1-0.1s0.4,0.1,0.6,0s0,0.1,0.2,0.2c0.1-0.2,0.4-0.1,0.7-0.1c0.2-0.1,0.4,0,0.6,0.1
	c0.3,0.1,0.5-0.1,0.8-0.1s0.1-0.1,0.1-0.2s-0.1-0.1-0.2-0.1c-0.2,0-0.3,0-0.5,0.1c0.2-0.1,0.5-0.2,0.8-0.1c0.1,0,0.2,0,0.2-0.1
	s-0.1-0.1-0.2-0.1s-0.2,0-0.2-0.1l0,0l0,0c0.1,0,0.3,0,0.3,0s-0.1-0.1-0.2-0.1c-0.1,0-0.1,0-0.2-0.1l0,0c-0.2,0.1-0.5,0-0.7,0
	c-0.4,0-0.7,0-1.1-0.1c-0.2,0-0.5,0.1-0.7-0.1c0,0-0.1,0-0.1,0c-0.1,0.2-0.5,0.1-0.7,0.2s-0.2,0.1-0.2,0S164.8,4,164.6,4
	s-0.5,0.1-0.4-0.2c0,0-0.1,0-0.1,0s-0.2-0.1-0.3-0.1s-0.1-0.3-0.5-0.1c-0.1,0-0.1,0-0.2,0c-0.2-0.1-0.4-0.1-0.6-0.2
	c-0.6-0.1-1.3-0.2-1.9-0.1c-0.3-0.1-0.6-0.1-0.9-0.1h-0.1c-0.6-0.1-1.1-0.2-1.7-0.1c0.2-0.1,0.4-0.1,0.4-0.2l0,0
	c0.2,0,0.5,0.1,0.7-0.1s0.1,0.1,0.2,0.1c0.1-0.3,0.1-0.3-0.4-0.3c-0.2,0-0.3,0-0.5,0.1c-0.4-0.1-0.8,0-1.2-0.1c0,0-0.1,0-0.1,0
	c-0.1,0.1-0.2,0.1-0.4,0.1c-0.6,0-1.1,0-1.7,0.1h-0.1c-0.9,0.1-1.9,0.1-2.8,0.1s-1.8,0.1-2.8,0.1c-0.2,0-0.4,0-0.5,0
	c-0.3-0.1-0.6-0.1-0.9-0.1c-0.5,0.1-1,0.1-1.5,0.1c-0.4-0.1-0.9,0-1.3,0c-0.1,0-0.1,0-0.1,0.1h-0.5c-1.2,0-2.4,0-3.5,0.1
	C140.8,3,141.3,3,141,2.8c-0.1-0.1-0.2-0.1-0.3,0l0,0c-0.2,0,0-0.2-0.2-0.2c0.1,0,0.2,0,0.3,0c0.3,0,0.6,0,0.9,0
	c0.1,0,0.4-0.1,0.4,0s0.2,0.1,0.3,0.1c0.6-0.2,1.1-0.4,1.7-0.5l0,0c0.1,0,0.3,0.1,0.4,0.2c-0.1-0.2,0-0.2,0.3-0.2s0.7-0.2,1.1-0.1
	l0,0c0.1,0,0.3,0,0.4,0c0.4-0.2,1,0,1.4-0.1h0.1c0.1,0,0.1,0.1,0.2,0s0-0.1-0.1-0.1c-0.2-0.1-0.4,0-0.6,0.1
	c-0.1-0.1-0.2-0.2,0.1-0.2c0,0,0.1,0,0.1-0.1l0,0c0.2-0.1,0.4-0.1,0.6,0c0.1,0,0.3,0,0.4,0h0.3c0.1,0.1,0.3,0,0.3,0.1
	s-0.2,0-0.3,0.1s-0.2,0-0.2,0.1c0.5,0.1,0.5,0.1,0.8-0.1s0.2-0.1,0.2,0s0.4,0.2,0.6,0.2s0.5-0.3,0.9-0.2l0,0
	c0.1-0.1,0.3-0.1,0.4-0.1l0,0c0.5,0.1,1,0.1,1.6-0.1c0.2,0,0.2-0.2,0-0.2c-0.1,0-0.2-0.1-0.4-0.1c-0.2,0-0.4,0-0.6-0.1
	s-0.4-0.1-0.5,0s-0.1,0.2-0.3,0.1c-0.2-0.1-0.5-0.1-0.8,0c-0.3,0-0.6,0-0.9,0c-0.1-0.3-0.4,0-0.5,0s-0.2,0.1-0.3,0.2
	c-0.3,0.1,0-0.1-0.2-0.2c-0.4-0.1-0.8,0-1.2,0.1l0,0l0,0l-0.1,0.1l-0.1-0.1c0,0,0.1-0.1,0-0.2c-0.1,0-0.2,0-0.3,0.1
	c-0.1,0.1-0.1,0.1-0.3,0.1s-0.1-0.2-0.2-0.1c-0.4,0.1-0.9,0-1.1,0.3c0,0,0-0.1-0.1-0.1s-0.4-0.1-0.5,0.1c0,0.1-0.1,0-0.1,0l-0.3-0.1
	l0,0c-0.4,0-0.8,0-1.2-0.2l0,0c-0.1,0-0.3-0.1-0.4,0.1s-0.2,0.3-0.5,0.2c-0.1,0-0.3,0-0.4,0l0,0c-0.3-0.1-0.5-0.3-0.7,0l0,0
	c-0.3,0-0.7,0-1-0.1c-0.1,0-0.1-0.1-0.3-0.1s0,0.1,0,0.2c-0.1,0-0.2,0-0.3,0c-0.1-0.1-0.2-0.1-0.2,0s-0.2,0.2-0.4,0.3s0-0.1,0-0.2
	s0-0.1-0.1-0.2s-0.2,0-0.2,0.1s-0.2,0.1-0.3,0c-0.3-0.2-0.5-0.2-0.7,0.1l0,0l0,0V1.7c-0.2,0-0.3,0.1-0.1,0.2c0.4,0.1,0.1,0.1,0,0.2
	l0,0c-0.2-0.1-0.3-0.1-0.2-0.3s0-0.2-0.2-0.3s-0.3,0-0.3,0s-0.2,0.1-0.3,0.2l0,0c-0.4,0-0.8,0-1.3,0c-0.1-0.1-0.1-0.1-0.2-0.1
	c-0.1,0-0.4-0.1-0.4,0.1s-0.2,0.1-0.3,0.1c-0.1,0-0.2,0-0.3-0.1c-0.2-0.1-0.5-0.1-0.7-0.1c-0.3,0.2-0.7,0.2-1,0.2
	c-0.1,0.1-0.1,0.2,0,0.2c0.5,0,0.3,0.2,0.3,0.4c-0.2,0-0.5,0-0.5,0c0-0.2-0.5-0.2-0.4-0.4s-0.2-0.2-0.5-0.1c-0.2,0-0.4,0-0.6,0
	c-0.4,0-0.9,0-1.3,0l-0.1-0.1H129l0,0c-0.2,0.1-0.5,0-0.7,0.1s-0.2,0.1-0.3,0s-0.5-0.2-0.7,0h-0.3c-0.4,0-0.5,0.1-0.3,0.3
	c0,0-0.1,0.1-0.1,0.1h-0.1c-0.1,0,0-0.1-0.1-0.2c-0.1-0.1-0.3-0.1-0.4-0.1h-1.3c-0.1,0-0.2,0-0.3,0h-0.2c-0.3,0-0.5-0.1-0.8-0.1
	c-0.9,0-1.9-0.1-2.8,0c-0.2,0-0.4,0-0.6-0.1l0,0c0,0,0-0.1,0-0.1c-0.3-0.1,0-0.1,0.1-0.2h0.8h0.5c0.2,0,0.3,0.1,0.4,0.2
	c0.1,0,0.1,0,0.2,0h0.1c0.2,0,0.4,0,0.6,0c0.5-0.1,1.1-0.1,1.6-0.1l0,0c0.1,0.1,0.2,0,0.4,0h0.2c0.2,0,0.3,0,0.5-0.1
	c0.3-0.1,0.5-0.1,0.8-0.1h0.2c0.1,0.1,0.2,0.1,0.4,0.1c0.1,0,0.2,0,0.3,0c0.2,0.1,0.5,0.1,0.7-0.1l0,0h0.1c0.4,0.1,0.9,0.1,1.3,0
	h0.1c0.5,0.1,1.1,0.1,1.6-0.1h0.3h0.3c0.2-0.1,0.4-0.1,0.7,0c0.1,0,0.3,0,0.3-0.1s-0.1-0.1-0.2-0.1S132,1,132.1,1h0.8l0.2,0.1
	c0,0.2,0.3,0.2,0.4,0.2c0.4,0,0.9,0,1.3,0c0.1,0,0.2,0,0.2,0s-0.1-0.1-0.3-0.2l0,0c0,0-0.1,0-0.1,0h0.1c0.1,0,0.3-0.1,0.3-0.1
	s-0.1-0.1-0.2-0.1c-0.4,0.1-0.8,0-1.2,0l0,0c-0.1,0-0.2,0-0.2-0.1c0.1-0.1,0.2-0.1,0.3,0c0.1,0,0.2,0,0.2,0c0,0,0.1,0,0.1-0.1
	c-0.1-0.1-0.1-0.1-0.2-0.1c-0.7,0-1.3,0-2,0c-0.1,0-0.3,0-0.4,0h-0.3c-0.4,0-0.7,0-1.1,0l0,0c-0.2,0-0.4,0-0.5,0c-0.3,0-0.5,0-0.8,0
	c-0.2,0-0.4,0-0.6,0h-0.2h-0.2c-0.1,0-0.1,0-0.1,0.1l0,0h-0.1c-0.2,0-0.5-0.1-0.5,0.1S127,0.9,127,1H127c-0.1,0-0.2,0-0.3,0l0,0
	c-0.1-0.1-0.1-0.3-0.3-0.3s-0.8,0-1.2,0c-0.1,0-0.3,0-0.4,0c0,0-0.1,0-0.2,0c-0.1-0.1-0.3-0.1-0.5-0.1c-0.5,0.1-1,0.2-1.6,0.1
	c-0.2,0-0.2-0.1-0.4,0s-0.2,0-0.2-0.1s0.1-0.1,0-0.2h-0.1c0,0.1-0.2,0.1-0.1,0.2s0.1,0.1-0.1,0.1c-0.5,0-0.9,0-1.4,0
	c-0.2,0-0.4,0-0.3-0.2s-0.1-0.1-0.2-0.1s-0.3,0-0.4,0.1s0.1,0.1,0.2,0.1s0.3,0,0.2,0.1s-0.4,0-0.6,0l-1.1,0.1
	c-0.5-0.1-0.6-0.2-0.4-0.4c0-0.1,0-0.1-0.1-0.1h-0.3h-0.6c-0.2,0.1-0.2,0.1,0,0.2s0.3,0.1,0.6,0.1c-0.3,0.1-0.6,0-0.8,0.1l0,0
	c-0.3-0.1-0.4,0.1-0.7,0.2c-0.1,0-0.1,0-0.2,0c-0.2-0.1,0-0.3-0.1-0.4s-0.1-0.2-0.3-0.2s0,0.2,0,0.3c0,0,0,0.1,0,0.1
	c0,0.2-0.2,0.2-0.4,0.2h-0.9c-0.4,0-0.8-0.1-1.2-0.1c0.3,0,0.4-0.1,0.3-0.1c-0.1-0.1-0.3-0.1-0.4,0c-0.2,0-0.2,0.1-0.1,0.2
	c-0.4,0-0.8,0-1.2,0c-0.3,0-0.5,0-0.8,0c-0.2-0.1-0.3-0.1,0-0.2c-0.1,0-0.2,0-0.3,0c-0.3,0-0.5,0-0.8,0c-0.2,0-0.3,0.2-0.5,0h-0.1
	c-0.2,0.1-0.2,0.1-0.3,0s-0.1-0.1-0.1,0c-0.3,0.1-0.6,0.1-0.9,0c-0.1,0-0.3,0-0.2,0.1s0.2,0.3,0.4,0.4l0,0c-0.3,0.1-0.7,0.1-1-0.1
	c-0.2-0.2-0.5-0.2-0.8-0.2c-0.1,0-0.2,0-0.3,0c-0.3-0.2-0.6-0.1-0.9-0.1c-0.1,0-0.3,0.1-0.4-0.1s-0.2-0.1-0.3,0
	C103.6,1,103.1,1,102.7,1c-0.1-0.1-0.2-0.1-0.3,0c-0.1,0.1,0,0.2,0,0.2l0,0c0,0.1,0.1,0.1,0.2,0.1c0.2,0,0.4,0,0.5,0.1
	c-0.3,0-0.5,0-0.3,0.2s-0.1,0.1-0.2,0.1h-0.4c-0.2,0-0.4,0-0.7,0l0,0c0.1,0,0.3-0.1,0.1-0.2s0-0.1,0.2-0.1l0.2,0.1
	c0,0,0.1,0.1,0.2,0.1s0-0.1,0.1-0.1c0.1-0.2-0.1-0.4-0.2-0.6c-0.1-0.1-0.2-0.1-0.3-0.1c-0.2,0-0.4,0.1-0.6,0.1c-0.3,0-0.6-0.1-0.8,0
	C100.1,1,100,1,99.8,1c-0.3,0-0.5,0-0.8,0c-0.6,0.1-1.1,0.1-1.7,0.2c-0.5,0-0.9,0-1.4,0c-0.5,0-1.1,0-1.6,0.1c-0.4,0-0.8,0-1.2,0
	c-0.3,0-0.6,0.1-0.8,0.2c-0.2,0.3-0.3,0.1-0.5,0s-0.2-0.2-0.3-0.2c-0.3,0-0.6,0-0.9,0c-0.3,0.1-0.7,0.1-1,0c-0.3-0.1-0.3,0-0.4,0.1
	s0,0.2,0.1,0.2s0.2,0,0.1,0.1h-0.2c-0.1,0-0.1,0-0.1,0.1c0,0,0.1,0,0.2,0c0.3-0.1,0.5,0,0.8,0s0.4,0,0.6,0s0.1,0.1,0.1,0.1l0,0
	c-0.4,0-0.4,0-0.1,0.2l0,0h-0.1c-0.1,0-0.2,0-0.2,0s-0.3,0-0.4,0h-0.6c-0.1,0-0.3,0-0.3-0.1S88.9,2,88.7,2l-0.5-0.1
	c0.1-0.1,0.5-0.2,0.2-0.3l-0.6-0.2c-0.3,0-0.7-0.1-1-0.1c-0.3,0-0.7,0-1,0h-0.2c-0.4,0.1-0.7,0.1-1.1,0c-0.2,0-0.3,0-0.5,0.1
	c-0.2,0.1,0,0.2,0.1,0.2S84,1.8,84,1.8l0,0c-0.3,0-0.2,0.2-0.3,0.3v0.1l0,0c-0.2,0.1-0.3,0.1-0.5,0.2c-0.6,0-1.1,0-1.7,0.1
	c-1.1,0.1-2.2,0.1-3.3,0.2c-0.6,0.1-1.2,0.1-1.7,0.1c-0.2,0-0.3,0-0.5,0c-0.5,0-0.9,0-1.4,0l0,0C73.9,3,73.3,3,72.7,3
	c-0.5,0-1,0-1.5,0.1c-0.1,0-0.3,0-0.4,0c-0.6-0.1-1.2-0.1-1.7,0c-0.4,0-0.9,0.1-1.3,0.1c-0.1,0-0.2,0-0.3-0.1
	c-0.1-0.1-0.2-0.1-0.3,0c-0.4,0.2-0.8,0.3-1.2,0.1c-0.1,0-0.3,0-0.4,0c-0.2,0.1-0.5,0.1-0.7,0.1c-0.7-0.1-1.3-0.2-2-0.1
	c-0.6,0-0.7,0-0.7-0.4c0-0.1,0.1-0.1-0.1-0.1c-0.1,0-0.2,0-0.3,0.1C61.7,2.8,61.7,3,61.7,3c0,0,0,0.1,0.1,0.1
	c0.1,0.1,0.1,0.2-0.1,0.2c-0.5,0-1.1,0-1.7,0c-0.2,0-0.1-0.1,0-0.1s0.2-0.2-0.1-0.3c-0.1,0-0.3,0-0.4-0.1C59.2,2.7,59.2,2.9,59,3
	s-0.1,0.2,0.1,0.2s0.3,0.2,0,0.3c-0.4,0.1-0.9,0.2-1.3,0.2c-0.4-0.1-0.8-0.1-1.3,0c-0.1,0.1-0.3,0.1-0.4,0c-0.3-0.2-0.6-0.3-0.9-0.3
	c-0.5,0-1-0.1-1.5-0.2c-0.1,0-0.3-0.1-0.3,0.1s-0.2,0.1-0.3,0c-0.4-0.1-0.4-0.1-0.5,0.1c0,0.1,0,0.2-0.2,0.1s-0.2-0.1-0.2-0.1
	S52,3.1,51.7,3.3c0,0-0.1,0-0.2,0c-0.3-0.1-0.7-0.1-1,0c-0.4,0.1-0.8,0.1-1.3,0.2h-1.7c-1.8,0-3.6,0-5.4,0.1
	c-0.8,0.1-1.5,0.1-2.3,0.2c-1.1,0.1-2.2,0.3-3.3,0.4c-0.1,0-0.2,0-0.3,0c-0.3-0.1-0.7-0.1-1,0c-0.4,0-0.8,0.1-1.2,0.1
	c-0.2,0-0.3,0-0.5,0c-0.2,0.1-0.3,0.1-0.5,0.1c-0.6,0-1.3,0-1.9,0.1c-0.3,0-0.6,0-0.9,0c-0.4,0.2-0.9,0.3-1.4,0.3
	c-0.3,0-0.6,0.1-0.8,0.1c-0.3,0-0.7,0.1-1,0.1c-0.1,0-0.3,0-0.5,0c-0.3,0.2-0.6,0.3-0.9,0.3c-0.6,0.2-1.2,0.2-1.8,0
	c-0.1-0.1-0.3,0-0.4,0.1c-0.1,0.1-0.2,0.2-0.4,0.2c-0.3,0-0.7,0.1-1,0.1l-1.4,0.1c-0.3,0-0.5,0-0.8,0.1c-0.1,0-0.1,0-0.1,0.1
	S19.7,6,19.5,6.1h-0.5l0,0h0.5c0.1,0.1,0.1,0.1,0.1,0.1c-0.1,0.1-0.3,0.2-0.5,0.2c-0.2,0-0.3,0-0.4,0.1c-0.2,0-0.4,0-0.5,0.1
	c-0.1,0-0.3,0-0.4,0c-0.5,0-1,0-1.5,0.1l0,0c-0.5,0-1-0.1-1.4-0.1c-0.7,0-1.3,0-2,0c-0.5,0-1,0-1.5,0c-0.2,0-0.4,0-0.6,0
	C9.9,6.6,8.9,6.5,8,6.5c-1.1,0-2.3,0.1-3.4,0.3C4.4,6.8,4.2,6.7,4,6.6C3.8,6.6,3.7,6.6,3.5,6.6c-0.1,0-0.2,0.1-0.1,0.1
	s0.1,0.1,0.1,0.1s0,0.2,0.2,0.2c-0.1,0.1-0.3,0-0.4,0.1S3.1,7.3,3.2,7.3s0.3,0.2,0.6,0.3c0.3,0,0.6,0,0.8,0.1c0.1,0,0.1,0,0.2,0.1
	c0.1,0.3,0.2,0.3,0.6,0.3c0.4,0,0.6-0.1,0.9,0c0.1,0,0.2,0,0.3,0c0.3,0,0.7,0,1,0.1C7.3,8.3,7,8.4,6.8,8.3c-0.1,0-0.3,0-0.5,0
	L5.3,8.5c-0.1-0.1-0.1-0.1-0.2,0C4.9,8.5,4.8,8.6,4.7,8.6c-0.1,0-0.4-0.1-0.4,0.1H4.2c0,0,0,0-0.1,0C4.2,8.6,4.2,8.5,4,8.6
	S3.6,8.6,3.6,8.4C3.5,8.5,3.6,8.6,3.5,8.7l0,0l0,0C3.4,8.9,3.3,8.9,3.1,8.8c0.1,0,0.3,0,0.2-0.1c0-0.1-0.2,0-0.3,0
	c-0.1,0-0.1,0-0.2,0c-0.2-0.1-0.4,0-0.7,0.1c-0.1,0.1-0.3,0-0.3,0c-0.2,0-0.5,0-0.7-0.1v0.2c0,0,0,0.1,0,0.1C1.1,9,1,9,1,9
	C0.9,9,0.8,9,0.8,9.1S0.9,9.2,1,9.2h0.6c0.1,0,0.2,0,0.2,0.1c0.1-0.1,0.2,0,0.3,0s0-0.1,0-0.2c0.1,0,0.2,0,0.3,0
	c0.4,0,0.8,0,1.2,0.1c0.1,0-0.1,0.1,0.1,0.2c0.2,0,0-0.1,0.2-0.1c0.2,0,0.1,0.2,0.2,0.2c0,0-0.1,0-0.1,0.1s0.1,0,0.1,0h0.5h0.8
	c0.2,0,0.4,0,0.6,0h0.1c0.2,0.2,0.5,0.3,0.7,0.1c0,0,0.1,0,0.1,0l0,0c0.1,0.1,0.2,0,0.3,0s0.1-0.1,0.2,0c0.2,0.1,0.4,0,0.6,0
	c0.1,0,0.1,0,0.2,0c0.1-0.1,0.3-0.1,0.4,0c0.1,0.1,0.3,0.1,0.4,0C9.2,9.6,9,9.6,9,9.5c0.3,0,0.5,0,0.8,0c0.1,0,0.3,0,0.4,0
	c0.1,0,0.2,0,0.3,0.1c0.4,0.1,0.8,0.1,1.2-0.1c0.1-0.1,0.2-0.1,0.2,0c0.1,0.1,0.2,0.1,0.4,0.1c0.3,0,0.5,0.1,0.7,0.2
	c-0.1,0.1-0.1,0-0.1,0C12,9.9,11,9.9,10.1,10c-0.6,0-1.2,0-1.8,0S7.3,10,6.8,10c-0.5,0-0.9,0-1.3,0.1h0.2c0.7,0,1.3,0,2,0
	s1.4,0,2.1,0c0.4-0.1,0.8-0.1,1.2,0c0.1,0,0.2,0,0.3,0c0.8-0.1,1.5-0.1,2.3-0.1c0.4,0,0.7,0,1,0c0,0,0.1,0,0.2,0v0.1
	c0,0.1-0.1,0.1-0.2,0.2c-0.3,0-0.7,0-1,0h-0.4c-0.1,0-0.2,0.1-0.2,0.2c-0.3,0-0.5-0.2-0.9-0.1c0,0.1,0.2,0.1,0.2,0.1L12,10.6H12
	c0-0.1,0-0.1-0.1-0.2c-0.1,0-0.2-0.1-0.2,0c0,0.1-0.1,0.1-0.2,0.2l-0.2,0.1c-0.2-0.1-0.4-0.1-0.6-0.1l0,0l0,0l0,0
	c-0.1-0.2,0.2-0.1,0.2-0.2c-0.2,0-0.3,0-0.4,0.1c-0.3-0.2-0.3-0.2-0.5,0c0,0-0.1,0-0.1,0c-0.1,0-0.3,0-0.4,0.1c-0.2,0-0.3,0-0.5,0
	c-0.1,0-0.1,0-0.2,0s-0.2,0-0.2,0.1c0,0.1,0.1,0.1,0.1,0.1c0.2,0,0.5,0,0.7-0.1c0.1,0.1,0.3,0.1,0.4,0l0,0c0.1,0,0.3,0,0.4,0l0,0
	c0.1,0.1,0.2,0,0.3,0s0.1-0.1,0.2-0.1c0.1,0-0.1,0.1,0,0.2h0.3h0.1c0.2,0.1,0.3,0,0.4-0.1l0,0c0,0.1,0.1,0.2,0.2,0c0,0,0.1,0,0.1,0
	c0.1,0.1,0.3,0.1,0.5,0c0.1,0,0.2,0,0.3,0c0,0,0.3,0.1,0.1-0.1s0.1,0,0.1,0c0.1,0.1,0.3,0.1,0.5,0.1c0.2,0.2,0.3,0.2,0.5,0
	c0,0,0.1,0,0.1,0c0.2,0,0.3,0.1,0.3,0.3c0.1-0.1,0.2-0.2,0.3-0.1c0.2,0,0.1-0.1,0.1-0.1c0.2,0,0.5,0.1,0.7,0c0,0,0.2,0,0.2-0.1
	s-0.1-0.1-0.2-0.1s-0.1,0,0-0.1c0.3-0.1,0.6-0.1,0.9,0c0,0,0.2,0.1,0,0.2c0,0-0.1,0,0,0.1c0,0,0.1,0.1,0.1,0.1c0.1,0,0.2,0,0.3-0.1
	c0.1-0.1,0-0.1-0.1-0.1c-0.1,0,0.1-0.1,0.1-0.1h0.1c0,0.1,0.1,0.1,0.1,0.2s-0.1,0.1,0,0.2c0.1,0,0.1-0.1,0.2-0.1l0,0
	c0.2,0,0.4,0,0.6,0.1c0.2,0.1,0.2,0,0.3-0.1H18h0.1c0.2,0.1,0.4,0.1,0.6,0c0.1-0.1,0.2-0.1,0.3,0c0,0,0.1,0,0.1,0c0,0,0-0.1-0.1-0.1
	H19c-0.1-0.2-0.1-0.2,0.3-0.2c0,0.1,0,0.2,0.2,0.2c0.2,0.1,0.4,0.2,0.5,0.2h0.2c0.2,0,0.5,0,0.7,0c0.4-0.1,0.9,0,1.3-0.1
	c0-0.2,0.2-0.2,0.6-0.2c-0.3,0-0.3,0-0.4,0.1c0.4,0.1,0.8,0.2,1.2,0.2c-0.3,0-0.5,0.1-0.8,0.2c-0.2,0.1-0.4,0-0.5,0
	c-0.2,0.1-0.1-0.1-0.2-0.1c-0.2-0.1-0.4-0.1-0.6,0c-0.3-0.1-0.7,0-1,0s-0.5,0.1-0.8,0c-0.2,0-0.4,0-0.5,0l0.3,0.1
	c-0.2,0-0.4,0-0.7,0c-0.1,0,0,0,0-0.1c0,0,0.1,0,0.1,0c0-0.1-0.1-0.1-0.2-0.1c-0.2,0-0.5,0-0.7,0c0,0-0.1,0-0.1,0s0,0.1,0.1,0.1l0,0
	c0,0,0.1,0,0.1,0.1h-0.1c-0.1,0-0.2,0-0.2,0.1s0.1,0,0.2,0H19c-0.1,0-0.1,0-0.2,0.1s-0.1,0,0,0.1c0.1,0,0.3,0,0.4,0
	c0.3,0,0.5,0,0.8,0c0.2,0,0.4,0,0.6,0h0.1c0.5,0,1,0,1.5-0.1c-0.1-0.1-0.2,0-0.3-0.1c-0.1-0.1-0.2,0-0.4,0c0.9-0.1,1.9-0.1,2.8,0
	c-0.7,0.1-1.3,0-2,0.1c0.2,0,0.5,0.1,0.7,0.1c0.3,0,0.5,0,0.8,0c0.6,0,1.2,0,1.8,0c0.6,0,1.2,0,1.9,0c0.1,0,0.2-0.1,0.4-0.1
	s-0.2,0.1-0.2,0.1c-0.2,0-0.3,0-0.5,0c0,0-0.1-0.1-0.2,0s0,0.1,0.1,0.1c0.1,0,0.3,0,0.4,0.1c0.2,0.1,0.4,0.1,0.6,0.1h0.1
	c0.2,0,0.3,0.1,0.5,0.1c0.1,0,0.2,0,0.1-0.1c-0.1-0.1-0.1-0.1,0.1-0.1c0.5,0,0.9,0,1.4,0.1c0.3,0,0.6,0.1,0.9,0.1
	c-0.8,0.1-1.5,0.2-2.3,0.1c0,0.1,0.1,0.1,0.2,0.1l1,0.3c0.4,0,0.9,0.1,1.3,0.3c0,0,0.1,0,0,0.1c-0.1,0.1-0.1,0-0.1,0s-0.1,0-0.2,0
	c-0.5,0-1,0.1-1.5,0.1c-0.4,0-0.8,0.1-1.2,0.1c-0.2,0-0.4,0-0.6,0.1c-0.4,0-0.9,0.1-1.3,0.2c-0.6,0-1.2,0.1-1.8,0.4
	c-0.5,0-0.9,0.2-1.4,0.1h-0.1c0,0.2-0.2,0.1-0.3,0.1c-0.1,0-0.3,0-0.4,0c-0.4,0.1-0.9,0.1-1.3,0.1c-0.7,0-1.4-0.1-2.2-0.1
	c-0.2,0-0.4,0-0.6,0c-0.3,0-0.6,0-0.9,0c-0.2,0-0.5,0.1-0.7,0.1c-0.7-0.1-1.5-0.1-2.2-0.1c-0.2,0-0.4,0-0.6-0.1
	c-0.2-0.1-0.4-0.1-0.6,0c-0.2,0-0.4,0-0.6,0c-0.8,0-1.5,0-2.3,0c-0.2,0-0.5,0-0.7,0l0.2,0.1l1.2,0.1c0.3,0,0.6,0.1,0.9,0.2
	c0.7,0.1,1.5,0.1,2.2,0.2c0.1,0.1,0.3,0,0.2,0.1s-0.2,0-0.3,0.1h-0.1l0.2,0.1c0,0,0.1,0,0.1,0.1s-0.1,0.1-0.1,0.1
	c-0.2,0-0.5,0.1-0.7,0.2c-0.2,0-0.3,0-0.5,0c-0.1-0.1-0.2-0.1-0.4-0.1c-0.4,0-0.8,0-1.3,0c-0.4,0-0.8,0.1-1.1,0.2
	c0.1,0.2,0.3,0.3,0.5,0.3c0.4,0,0.9,0,1.3,0c0.2,0,0.4,0,0.6,0c0.1,0,0.2,0,0.3,0l0,0c0,0.3,0.2,0.5,0.7,0.5c0.2,0,0.3,0.1,0.5,0.1
	c0.1,0,0.2,0,0.3,0.1c0.2,0.2,0.6,0.3,0.9,0.3c0.4,0,0.8,0.1,1.2,0.1c0.5,0.1,0.9,0.1,1.4,0.1c0.9,0,1.6,0.2,2.5,0.3
	c0.2,0,0.3,0,0.5,0.1c-0.8,0-1.6,0-2.5-0.1c-0.8,0-1.6-0.1-2.5-0.2s-1.6-0.2-2.5-0.2c0.3,0.2,0.6,0.3,0.9,0.3
	c0.7,0.1,1.4,0.1,2.1,0.2l0,0c0.2,0.1,0.5,0,0.7,0.1c-0.2,0-0.4,0-0.6,0l0,0c-0.2-0.1-0.4-0.1-0.6,0c0.1,0.1,0.2,0.1,0.4,0.1
	c0.1,0,0.2,0.2,0.4,0.1c0.2,0,0.3,0,0.5,0c0.1,0,0.3,0.1,0.4,0l0,0c0,0.1,0.2,0.1,0,0.2s-0.1,0.1-0.3,0.1s-0.1,0-0.1,0
	c0,0,0,0.1,0,0.1c0,0,0.1,0,0.1,0c0.1-0.1,0.2,0,0.3,0c0.1,0,0.3,0,0.4,0c0,0.1-0.2,0.1-0.3,0.2h0.3V18c0,0-0.1,0.1,0,0.1
	s0.1,0,0.1-0.1s0.1,0,0.1,0c0,0,0.1,0,0.1,0l0.3,0.1l0,0l0,0c-0.2,0-0.3,0.1-0.5,0.1s0,0.1,0.1,0.1l0,0l0,0c-0.2,0.1-0.4,0-0.5,0
	s-0.1-0.2-0.2-0.2c0-0.2,0-0.2-0.3-0.2l0,0c0-0.1,0.2,0,0.2-0.1c-0.2-0.1-0.4-0.2-0.6-0.2c-0.1,0.1-0.2,0-0.3,0.1
	c0.2,0,0.1,0.2,0.3,0.2c0,0.1,0.1,0.1,0.2,0.1s0,0,0,0.1s-0.3,0-0.3-0.1C17.3,18,17.1,18,17,18.1c-0.2,0-0.3-0.1-0.5-0.1
	c-0.4-0.1-0.7-0.1-1.1-0.1c-0.1,0-0.2,0-0.3-0.1s-0.1-0.1-0.2,0c-0.1,0-0.1,0-0.2,0c-0.3-0.1-0.7-0.1-1,0c-0.1,0-0.1,0-0.1,0.1
	s0.1,0.1,0.1,0.1H14c0.1,0,0.1,0,0.1,0.1s-0.2,0.1-0.2,0.2l-0.1-0.1c-0.1-0.1-0.2-0.2-0.4-0.1c-0.1,0-0.2,0-0.3,0
	c-0.1,0-0.3,0-0.4,0.1s-0.1,0-0.1,0V18c0.3,0,0.7-0.1,1-0.3c-0.2-0.1-0.3,0-0.4,0c-0.1,0-0.5-0.2-0.7,0.1h0c-0.3,0-0.5,0-0.8-0.1
	h-0.6c-0.1-0.1-0.3-0.1-0.4-0.1c-0.1,0-0.3,0-0.3,0.1h-0.1c-0.1,0-0.2,0-0.4,0c-0.1-0.1-0.2-0.1-0.3,0c-0.1,0-0.2,0.1-0.2,0
	s-0.1,0-0.1,0c0,0,0,0,0,0.1S9.2,18,9,18l0.2,0.1H9c0,0,0.1,0,0.1,0.1c0,0.1-0.1,0.1-0.1,0.1c0,0-0.3,0.1-0.3,0
	c0-0.1-0.1-0.1-0.2-0.2C7.8,18,7,18,6.3,18.1c-0.3,0.1-0.6,0.1-0.8,0c-0.1,0-0.1,0-0.2,0l0.5,0.1c0.1,0,0.2,0,0.1,0.1s0,0.2,0.3,0.2
	c0.3,0,0.4-0.1,0.2,0.2c0,0,0,0.1,0,0.1c-0.3,0-0.6-0.1-0.9,0c0.2,0,0.4,0.3,0.3,0.4s0.1,0.4,0.1,0.6s0.4,0.1,0.6,0.3l0,0
	c-0.2,0-0.4,0.1-0.6,0.2l0,0l0,0l0,0c-0.1-0.1-0.2,0-0.2-0.1s-0.1-0.1-0.2-0.1s-0.1,0-0.1,0s0.1,0,0.1,0.1s-0.2,0-0.2,0.1H5.1
	c0,0,0-0.1-0.1-0.1S4.9,20,5,19.9s0.1,0,0.1-0.1s-0.1-0.1-0.1,0c-0.2,0-0.4,0-0.6,0.1s-0.2,0-0.2,0.1s0.2,0,0.2,0.1l-0.2,0.3
	c0,0-0.1,0-0.1,0.1c0,0,0.1,0.1,0.1,0c0.1,0,0.3,0,0.2-0.2c0.1,0,0.5-0.1,0.3,0.2H4.6c-0.2,0-0.3,0.1-0.5,0.2H4.1l-0.3,0
	c0.2-0.1,0.2-0.1,0-0.2c0-0.1-0.1-0.2-0.2-0.2s-0.4,0-0.5,0.1c-0.2,0-0.4,0-0.6,0c-0.3-0.2-0.6-0.2-0.8,0c0.1,0.1,0.3-0.1,0.3,0
	s0.4,0.1,0.6,0.2c-0.1,0-0.2,0-0.3,0c-0.2,0.1-0.5,0.1-0.8,0.1c-0.1,0-0.3,0-0.3-0.1s-0.1-0.1-0.2,0c-0.3,0.1-0.5,0.1-0.8,0.2
	c-0.1,0-0.3,0-0.3,0.1s0.2,0.1,0.3,0.1h0.1h0.9v0l-0.9,0.2c-0.1,0-0.2,0-0.2,0s0.1,0.1,0.2,0.1h0.2c0.6,0,1.2,0,1.7,0.2
	c0,0,0.1,0,0.2,0c0.1-0.1,0.2,0,0.2,0s0.2,0.1,0.2,0.1c0.3,0.1,0.6,0,0.9,0.2c0.1,0,0.1,0,0.2,0s0.3,0.1,0.4,0.1h0.2
	c0.3,0.1,0.7,0.1,1,0.1c0.2,0.1,0.4,0,0.6-0.1c0,0,0.1,0,0.1,0C6.5,22,6.8,21.9,7,22c0,0-0.1,0.1,0,0.1c0.2,0.1,0.4,0.1,0.5,0
	c0.3,0,0.7,0.1,1,0.1c0.2,0,0.4,0.2,0.6,0.1h0.1c0.1,0.1,0.3,0,0.4,0.1c0.1,0.1,0.1,0,0.1-0.1s-0.1-0.1-0.1,0c0,0.1-0.3,0-0.4,0
	s-0.1-0.1-0.1-0.1s0.1-0.1,0.2,0s0.3,0,0.3,0c0.1-0.2,0.3-0.1,0.5-0.1c0.2,0.1,0.3,0.1,0.5,0.1c0.3,0,0.6,0,0.9,0v0.1
	c-0.1,0,0,0.1,0,0.1s0.2,0,0.2-0.1s-0.1,0-0.2,0s0.1,0,0.2-0.1c0.4,0,0.7,0.1,1.1,0.1c0.1,0.1,0.1,0.2-0.1,0.2c-0.2,0-0.4,0-0.6,0
	c0,0-0.2,0-0.1,0.1c0.1,0.1,0.1,0,0.2,0c0.1,0,0.1,0,0.2,0c0.3,0.1,0.6,0.1,0.9,0.1c0.1,0,0.2,0,0.1-0.1s0.2,0,0.1-0.1
	c0-0.1,0.1-0.1,0.2-0.1c0.1,0,0.1,0,0.2,0c0.7,0,1.4,0,2.2,0c-0.2,0-0.4,0.1-0.5,0.2c-0.1,0-0.2,0.1-0.3,0.1c-0.5,0-0.5,0-0.5,0.3
	l0,0c-0.1,0.1-0.2,0.2-0.4,0.1c-0.1,0-0.1,0-0.2,0.1c-0.1,0.2-0.3,0.2-0.4,0.2c-0.2,0-0.3,0-0.3,0.1l-0.1,0.1
	c-0.4,0.1-0.8,0.1-1.2,0.3c-0.3,0-0.5,0.1-0.7,0.2c-0.2,0-0.5,0.2-0.6,0.3c0.3,0,0.5-0.1,0.8-0.2h0.1c0.2,0,0.3-0.1,0.4-0.1l0,0
	c0.1,0,0.1,0,0.2,0c0.3-0.1,0.6-0.2,0.9-0.1l0,0c0.2,0.1,0.4,0.1,0.7,0.1c0.1,0,0.1,0,0.2,0c0,0.1,0,0.1-0.1,0.1s-0.3,0.1-0.4,0.2
	c-0.1,0-0.2,0-0.2,0c-0.2,0-0.8,0.1-0.9,0.2c0,0.1-0.4,0.3-0.7,0.3c-0.3,0-0.4,0-0.5,0.1c-0.3,0.2-0.6,0.4-1,0.4
	c-0.2,0-0.4,0.1-0.6,0.3c-0.1,0.2-0.3,0.3-0.5,0.3c-0.1,0-0.2,0-0.2,0.1s-0.1,0.2-0.1,0.3c-0.4,0.1-0.5,0.4-0.9,0.5
	c-0.1,0-0.1,0.1-0.1,0.1s-0.2,0.4-0.5,0.4c-0.4,0.2-0.8,0.4-1.2,0.6C6,27.9,5.9,28,5.7,28.1c-0.2,0.1-0.3,0.2-0.3,0.3s0,0.4-0.3,0.6
	S5,29.1,4.9,29.2s-0.3,0.3-0.5,0.3S4.2,29.7,4,29.7c-0.3,0.1-0.6,0.2-0.8,0.4c-0.1,0,0,0.3-0.3,0.2H2.9c-0.3,0.1-0.4,0.3-0.5,0.5
	s0,0.2,0.1,0.2h0.2c0.3,0,0.5,0,0.6,0.2c0,0,0,0,0.1,0c0.2,0,0.2,0,0.3,0.1c0.1,0.1,0.2,0.2,0.3,0.3c0.1,0.2,0.3,0.4,0.6,0.5l0,0
	c0,0.1,0,0.1,0.2,0.1s0.2,0,0.2,0.1s0.1,0.3,0,0.4S5,33,5.2,33.1S5.3,33,5.4,33h0.1c0.2,0,0.5-0.1,0.7-0.1c0.2-0.1,0.5-0.1,0.7-0.1
	c0.2,0.1,0.4,0.1,0.7,0c0.1,0,0.1,0,0.2,0c0.1,0.1,0.1,0.2,0.1,0.3c0,0.2,0.1,0.2,0.3,0.2c0.2,0,0.3,0,0.3,0.2c0,0.2,0.1,0,0.1,0
	c0.2-0.2,0.5-0.2,0.7,0l0,0c0,0.1,0.1,0.2,0.1,0.3c0,0.2,0.3,0.3,0.7,0.2c-0.3,0-0.3-0.1-0.4-0.2c0.1-0.2,0.2-0.1,0.4,0
	c0.1,0,0.2,0.3,0.3,0c0,0,0.1,0,0.1,0c0,0,0,0,0,0.1c0,0.3,0.1,0.3,0.5,0.3c0.2,0,0.3,0,0.5,0.1c0.1,0.1,0.4,0,0.4,0
	c0,0,0.2-0.1,0.4-0.2c0.2,0,0.2,0.1,0.1,0.2c0,0.1,0.1,0.1,0.3,0.1c0.1,0,0.1-0.1,0.1,0c0.1,0.2,0.3,0,0.4,0c0.1,0,0.3,0,0.3-0.1
	c0.1-0.1,0,0-0.1-0.1c-0.1,0-0.3,0-0.4,0c0,0,0,0-0.1,0c-0.1,0-0.1,0-0.2,0c-0.1-0.1-0.3-0.1-0.4-0.3c-0.1-0.1,0-0.1,0-0.1
	c0.1,0,0.3,0,0.5,0.1s0.4,0,0.5,0.1c0,0,0.1,0,0.1,0s0.2-0.1,0.3-0.1s0.3,0,0.4,0.1s0.1,0.1,0,0.2S14,34.5,14,34.6s-0.1,0-0.1,0.1
	c0,0,0.1,0,0.1,0c0.2,0,0.5,0,0.8,0l0,0c0.1,0.1,0.2,0,0.3-0.1c-0.1,0.2-0.1,0.2,0.2,0.2c0,0,0.1,0,0.1,0.1l0.1,0.1c0,0,0.1,0,0.1,0
	c0,0,0,0,0,0c0.2-0.2,0.4,0,0.6,0c0.1,0.2,0.1,0.2,0.3,0.1c0-0.1,0-0.1,0.2-0.1c0.1,0,0.3,0,0.4-0.1c0.1,0,0-0.1,0-0.2v-0.1
	c0.1,0,0.1-0.1,0.1-0.2c0.2,0,0.3,0,0.4,0.1l0,0c0,0,0,0.1,0,0.1c-0.2,0.2-0.2,0.2,0.1,0.2c0.1,0,0.1,0,0.2,0L17.9,35
	c-0.1,0.1,0,0.1,0,0.2c0.2-0.1,0.2,0.1,0.4,0.1s0.2-0.2,0.3-0.1s0.1,0.1,0.2,0c0.1-0.1,0.1-0.2,0.2-0.3c0,0,0.1-0.1,0.1-0.1
	c0.2,0,0.5-0.2,0.7,0c-0.3,0.2,0,0.2,0.1,0.3s-0.2,0-0.2,0.1s0,0.1,0.1,0.1s0.2,0,0.2-0.1s0.2-0.1,0.2-0.2s0.1-0.1,0.1,0
	s0.2,0,0.3,0c0-0.1,0.2-0.1,0.1-0.3l0,0c-0.1-0.1-0.4,0-0.4-0.2c0,0,0.1,0,0.1,0c0.5,0.1,0.6,0.2,0.5,0.6c0,0,0,0.1,0,0.1
	s0.1,0,0.2,0s0.2-0.1,0.3,0s0.2,0.1,0.3,0.1c0.1,0,0.1,0.1,0.2,0.1c0,0.1,0.1,0.1,0.2,0c0.1,0,0.1-0.1,0.2-0.1
	c0.2,0.1,0.5,0.1,0.7,0.2L23,35.6h-0.1c-0.1-0.1-0.2-0.1-0.3,0v0.1c0,0,0,0.1,0,0.1c0.2,0.1,0.4,0,0.5-0.2c0.2,0-0.1-0.1,0-0.2
	s0.3,0.1,0.4-0.1c0,0-0.1,0.1,0,0.1s0.3,0,0.5,0s0.1-0.1,0-0.1s0-0.1,0-0.1c0.2-0.1,0.1-0.1,0-0.1S24,35.1,24,35s0-0.1,0-0.1
	c0.2,0,0.4,0,0.5-0.1c0.1,0,0.1,0,0.2,0.1c0,0,0,0.1-0.1,0.1s-0.2,0.1,0,0.2s-0.1,0.1,0,0.1s-0.2,0.3,0.1,0.3
	c0.1,0.1,0.2,0.1,0.2-0.1s0-0.2,0.1,0s0.3,0.1,0.3,0s0.1-0.1,0.3,0c0.1,0.1,0.3,0.1,0.4,0c0.2-0.2,0.4-0.2,0.7-0.1c0,0,0.1,0,0.1,0
	c0.2-0.2,0.4,0,0.6,0c0.1,0,0.2,0,0.2,0c0.2,0,0.3,0,0.5,0c0,0.1-0.1,0.1-0.3,0.1s-0.3,0.1-0.1,0.2s0.3,0.3,0.6,0.2
	c0.1,0.1,0.2,0.1,0.3,0.1s0.4,0,0.5,0.2s0.1,0,0.1,0c0-0.1,0.1-0.1,0.1-0.2c0,0-0.1-0.1-0.2-0.1s-0.2,0-0.2,0s-0.3,0-0.3-0.2v-0.1
	l0.1-0.1c0,0-0.1,0-0.1-0.1s-0.2,0-0.3-0.1c0.2-0.1,0.4,0,0.5-0.1c0.2,0.1,0.4,0.1,0.6,0.1c0.2,0.1,0,0.2,0,0.3s0,0,0,0
	c0.3,0.1,0.6,0.1,0.9,0.1c0.1,0,0.2,0,0.2,0.1c-0.1,0-0.3,0-0.4,0c-0.1,0-0.2,0-0.2,0s0.1,0.1,0.1,0.1c0,0,0,0.1,0,0.1
	s-0.1,0.1,0,0.2s0.1,0,0.2-0.1h0.1c0.2,0,0.3,0,0.3-0.1c0.2,0.1,0.4,0,0.5,0c0.2,0.1,0.5,0.1,0.7,0.1c0.2,0,0.3,0,0.5,0.1l0,0
	c0,0-0.1,0.1,0,0.1c0.1,0,0.2,0,0.3,0c0.2-0.1,0.4-0.1,0.6,0l0,0c0.2,0.1,0.3,0.1,0.5,0c0.1,0,0-0.2,0.2-0.1s0.1,0.2,0.2,0.1
	s0.3-0.1,0.4-0.1s0.2,0,0.3,0s-0.2,0-0.2-0.1c0.1-0.1,0.3-0.1,0.4-0.1c0.1,0,0.2,0,0.3,0c0.1,0,0.1,0.2,0.3,0.1s0-0.1,0.1-0.2
	c0,0,0.1,0.1,0.2,0.1c0.6,0.3,1.1,0.5,1.7,0.8c1,0.4,2,0.6,3,0.6c0.7,0,1.4,0,2.1,0.1c0.4,0,0.9,0,1.3,0c0.7,0,1.4,0.1,2.1,0.1h0.1
	c0.7,0.1,1.3,0.1,2,0c0.1,0,0.2-0.1,0.3-0.1c0.4,0.2,0.8,0.3,1.2,0.2c0.1,0,0.2,0,0.3,0s0.4-0.3,0.6,0c0.1,0.1,0.2,0.1,0.3,0.1
	c0.5,0,1,0.1,1.5,0.2c0.1,0,0.2,0,0.2,0S53,38,53.2,38c0.1,0,0.3,0.1,0.4,0.1c0.1-0.3,0.1-0.3,0.5-0.1c0,0,0.2,0.2,0.3,0l0,0
	c0.2,0.1,0.5,0.2,0.7,0.2c0.3,0.1,0.6,0,0.8-0.1c0.2-0.2,0.5-0.2,0.7-0.1c0,0,0.1,0,0.2,0c0.2-0.1,0.2,0,0.3,0.1s0.2,0.2,0.4,0.2
	c0.5,0,1,0,1.5-0.1c0.2,0,0.5,0.1,0.5-0.2h0.1c0.3,0,0.5,0,0.8,0c-0.1,0.1-0.2,0.2,0.1,0.2c-0.1,0.1-0.1,0.2,0,0.2s0.1-0.1,0.2-0.1
	s0.2,0,0.2,0c0.3,0.1,0.6,0.1,0.8,0c0.1,0,0.2,0,0.4,0.1c0.4,0.1,0.6,0,0.6-0.2c0.3,0,0.6,0.2,0.8,0.1c0.4-0.1,0.8-0.1,1.2,0
	c0.2,0.1,0.5,0,0.7-0.2c0.2,0,0.4,0,0.6,0.1l0,0c-0.1,0.1-0.2,0-0.2,0.1c0,0,0.1,0,0.1,0c0.3-0.1,0.7,0,1-0.1
	c0.1,0.2,0.3,0.2,0.6,0.2c0.1,0,0.2,0.1,0.2,0.1s0.3,0.1,0.4-0.1s0.1-0.2,0.3-0.1c0.2,0.1,0.4,0.1,0.5,0c0.2-0.1,0.3-0.1,0.4,0.1
	s0.3,0.2,0.4,0.2s0.5,0.1,0.6-0.1s0.2-0.1,0.3,0c0.2,0.1,0.4,0.1,0.6,0.1c0.2,0,0.3,0,0.5,0c0.7,0.2,1.4,0.2,2.1,0.1h0.1
	c0.4,0.1,0.9,0.1,1.3,0.1c0,0,0.1,0,0.1,0c0.4,0.1,0.9,0.1,1.3,0.1c0.8,0,1.5-0.1,2.3,0c0.1,0,0.2,0,0.2-0.1s0.1-0.1,0.3,0
	c0.2,0.1,0.4,0.1,0.6,0.1c0.2,0,0.3,0,0.5,0c1.1,0.1,2.2,0.1,3.3,0.1c0.3,0,0.5-0.1,0.5-0.2s0.3-0.3-0.1-0.3c-0.2,0-0.3-0.2-0.3-0.3
	s0.3,0,0.4-0.1s0.2,0,0.3,0s0.4-0.1,0.4,0c0.1,0.3,0.5,0.3,0.8,0.3c0,0,0,0,0,0.1c-0.3,0-0.5,0.1-0.8,0.1c-0.1,0-0.3,0.1-0.3,0.2
	s0.2,0.1,0.4,0.1c0.2,0,0.4,0.1,0.6,0.1c0.1,0,0.3,0,0.4,0c0.3-0.1,0.6-0.1,0.9-0.1c0.4,0,0.9,0,1.4,0c0.2,0,0.4-0.1,0.5,0
	c0.2,0.1,0.4,0.1,0.6,0.1c0.5,0,1,0,1.4-0.1s1,0.1,1.3-0.2h0.1c0.1,0,0.2,0,0.2-0.1s-0.1-0.1-0.2-0.1c-0.3-0.1-0.6,0-0.8,0
	c0.1-0.2,0.4-0.2,0.6-0.3s0.1,0,0.2,0c0.5,0.2,1,0.2,1.5,0.1c0.2-0.1,0.4,0,0.5,0.2c0.2,0.1,0.4,0.1,0.5,0c0.1-0.1,0.1-0.1,0.2-0.1
	c0.2-0.1,0.2-0.2,0-0.2s-0.3-0.1-0.2-0.2c0.3-0.2,0-0.3-0.2-0.4c0.2-0.1,0.4-0.1,0.6,0c0,0,0.1,0,0.1,0c0.2-0.1,0.3-0.1,0.5,0
	c0.1,0,0.2,0,0.3,0c0.1,0,0.1,0,0.2,0c0.2,0.2,0.3,0.1,0.6,0c0.1,0,0.2,0,0.3,0c0.2,0,0.4,0,0.6,0c0.2,0,0.5,0,0.3,0.2
	c0,0,0,0.1,0.1,0.1c0.2,0.1,0.4,0.1,0.6,0.1c0,0,0.1,0.1,0,0.1c-0.3,0-0.6,0-0.9,0c-0.1,0-0.1-0.1,0-0.1s0.2-0.1,0.1-0.1
	c-0.2-0.1-0.3-0.1-0.5-0.1c-0.2,0,0.1,0.1,0,0.2c-0.2,0-0.4,0-0.6,0c-0.1,0-0.1,0-0.2-0.1s0.3,0,0.3-0.1s-0.2-0.1-0.3,0
	s-0.2,0-0.3,0s-0.1,0.1,0,0.1s0.2,0.1,0.2,0.2s-0.2,0.1-0.3,0s-0.2-0.1-0.3,0s-0.2,0.3,0,0.5c0.2,0.1,0.3,0.1,0.5,0
	c0,0,0.1,0,0.1-0.1c0,0,0,0,0-0.1c-0.1-0.1-0.1-0.1,0-0.1c0.2,0,0.3,0,0.5,0l0,0l0,0c0.2,0.1,0.4,0.4,0.8,0l0,0
	c0,0.2,0.2,0.3,0.5,0.3h0.1c0.3,0,0.6,0,0.9-0.1h0.1c0-0.1,0.1-0.1,0.2,0s0.3,0.1,0.3,0s0.2-0.3,0.1-0.3s-0.3-0.3-0.6-0.3
	s-0.2-0.1-0.2-0.2c0.2,0,0.3,0.2,0.5,0.1s0.5-0.1,0.7,0c-0.1,0.1-0.4,0.1-0.2,0.3s0.3,0.2,0.4,0c0.1,0,0.2,0,0.2,0s0.3,0,0.4,0
	s0.4,0,0.4,0.1s0.3,0.3,0.3,0.4s0.1,0.1,0,0.1s-0.1,0-0.2,0s-0.3,0-0.4,0.1c0.1,0.1,0.1,0.2,0.2,0.2c0.2,0.1,0.4,0.1,0.6,0
	c0.2-0.1,0.4-0.1,0.5,0c0.2,0.1,0.5,0.1,0.7,0c0.2-0.1,0.1-0.2,0-0.3c0-0.1-0.1-0.1-0.2-0.2s-0.1-0.1-0.2-0.2
	c-0.2-0.1-0.4-0.3-0.4-0.5c0.2,0.1,0.4,0,0.5,0s0.2,0,0.3,0s0.1,0.2-0.2,0.2c-0.1,0-0.2,0-0.2,0.1s0,0.1,0.1,0.1
	c0.1,0,0.3,0,0.3-0.1c0.2-0.3,0.5-0.2,0.9-0.2l0,0c-0.1,0.2-0.6,0.3-0.2,0.6c-0.1,0.1-0.1,0.2,0.1,0.2s0.2-0.1,0.2-0.2l0,0l-0.1-0.1
	c0.3,0,0.6,0,0.7,0.2s0.2,0.1,0.4,0l0,0c0.1,0.1,0.3,0.2,0.5,0.2c0.2,0,0.2-0.1,0.3-0.3c0,0.2,0.1,0.2,0.3,0.1c0.1,0,0.2,0,0.3,0
	c0.2,0.1,0.3,0,0.4-0.1h0.5c0.2,0,0.1,0.2,0.4,0.1c0.1,0,0.2,0,0.2-0.1c0-0.1-0.1-0.1-0.1-0.1c-0.2,0-0.3-0.1-0.5,0s-0.2,0.1-0.3,0
	s-0.5-0.2-0.7-0.4h1c0.1,0,0.2,0,0.3,0h0.2c0.4,0.2,0.8,0.3,1.2,0.1c0.1,0,0.2,0,0.2,0v0.1c0,0.1,0.2,0.2,0.3,0.1s0.2-0.1,0.4,0
	c0.1,0,0.2,0,0.3,0c0.2-0.1,0.4,0,0.6,0.2c0.1,0.1,0.1,0.2,0.3,0.2s0.2-0.1,0.2-0.2c0-0.1,0-0.2-0.1-0.2h0.5c0.2,0.1,0.5,0.1,0.7,0
	l0,0c0.1,0,0.1-0.1,0.2,0s0,0.1,0.1,0.1c0.2,0,0.5,0.1,0.7,0.2c0.1,0,0.1,0,0.2,0c0.2-0.1,0.4,0,0.5,0.1l0.3,0.1
	c0.1,0.1,0.2,0,0.3,0c0.3,0,0.6,0,0.9-0.1c0.2,0,0.2,0,0.2-0.1s0-0.2,0.2-0.2c-0.2,0.1-0.2,0.2,0.1,0.2h0.3c0,0.1,0.2,0.2,0.3,0.2
	c0,0,0.1,0,0.1,0c0.1-0.1,0.2-0.1,0.3-0.1c0.1,0,0.2-0.1,0.1-0.1c-0.1-0.1-0.1-0.1-0.2,0c-0.2,0.1-0.3,0-0.5,0l0,0
	c-0.1,0-0.3,0.1-0.2-0.1l0.3-0.1h0.4c0.2,0,0.4,0.1,0.3-0.2c0-0.1,0.1,0,0.2-0.1c0.1,0,0.3,0,0.4,0.1c0.1,0.2-0.1,0.3,0.3,0.5h0.1
	c0.3,0,0.6,0.2,1,0h0.3c0.1-0.1,0.3-0.3,0.3-0.4c0.1-0.2,0.2-0.3,0.5-0.3c0.3,0,0.5,0,0.8,0c0,0-0.1,0.1-0.2,0.1s-0.2,0-0.2,0.1
	s0,0.1,0.2,0.2s0.1,0,0.2-0.1c0,0,0.1-0.1,0.1-0.1l0,0c0.2,0,0.3-0.1,0.2-0.2h0.1c0.2,0,0.2-0.1,0.3-0.1v-0.1
	c0.2,0.1,0.4,0.1,0.6,0.2c-0.2,0-0.2,0.1-0.3,0.2s0.1,0.1,0.1,0s0.1,0,0.1,0s0.1,0,0.2,0s0.2,0,0.2,0s-0.1-0.1-0.2-0.1l0,0
	c0-0.1,0-0.1,0.2-0.1c0.2,0.1,0.4,0.1,0.6,0c0.1,0,0.2,0,0.1,0.1s-0.1,0.2-0.2,0.3l0,0c0.2,0.1,0.5-0.1,0.6,0.2
	c0.2-0.2,0.6-0.3,0.9-0.3c-0.4,0.2-0.4,0.2-0.1,0.3s0.3,0,0.5-0.1s-0.1-0.1-0.2-0.1s0-0.1,0.1-0.1s0.2-0.1,0.3-0.2s-0.1-0.1-0.1-0.1
	c-0.4,0.1-0.4-0.1-0.3-0.2l0,0c0.2,0,0.4,0,0.5,0c0.1,0,0.1,0,0.1-0.1c0,0-0.1-0.1-0.1-0.1c-0.3,0.1-0.6,0-0.8,0.1s-0.4,0-0.4,0.2
	s-0.1,0.1-0.2,0.1l0,0c-0.1-0.1-0.1-0.4-0.6-0.3h-0.1c0-0.1-0.3-0.1-0.1-0.2s0-0.2-0.2-0.2c0,0-0.1,0-0.2,0l-0.1-0.1
	c-0.1,0,0.2-0.2-0.2-0.1c-0.1,0-0.1,0-0.1-0.1s0-0.1-0.1-0.1c0.2,0,0.4-0.1,0.3,0.1c0,0,0.1,0,0.2,0c0.3,0,0.5,0.2,0.9,0.1
	c0,0,0-0.1,0-0.1c0,0,0,0.1,0,0.1c0.1-0.1,0.3-0.1,0.4-0.1c0.2-0.1,0.4,0,0.5-0.2v-0.1l0,0c0.2,0,0.3-0.1,0.4-0.1l0,0
	c0.1,0,0.2,0,0.3,0c0.1,0,0.2,0,0.3,0c0.2-0.1,0.3,0,0.3,0.1s0.3,0,0.5,0l0,0c-0.2,0.3,0.2,0.1,0.3,0.1c-0.3-0.3,0.3-0.2,0.4-0.3
	s0.1,0,0.2,0c0.1,0,0.3,0,0.4,0c0.2,0.1-0.1,0.1-0.1,0.1s-0.3,0-0.2,0.1s0.2,0.1,0.1,0.2l0,0c-0.1,0-0.1-0.1-0.2,0s0,0.1,0,0.1
	s0.3,0.2,0.2,0.4l0,0c-0.1-0.1-0.3-0.1-0.4,0c-0.3,0-0.3,0.2-0.5,0.3l0,0l-0.2,0c-0.1-0.1-0.3-0.1-0.4,0c-0.1,0,0,0.1,0.1,0.2
	c0.1,0,0.1,0,0.1,0.1s0,0.1-0.2,0.1l0,0c-0.3-0.1-0.5,0-0.6,0.2c0.2,0,0.4,0,0.5,0l0,0c0.2,0,0.4-0.2,0.7-0.1l0,0c0,0,0.1,0,0.1,0.1
	c-0.1,0-0.1,0-0.1,0.1c0,0,0.1,0,0.1,0c0.1,0,0.2-0.1,0.3-0.1c0.5,0,0.3-0.1,0.2-0.2s-0.3,0-0.2-0.2c0.1,0,0.1,0.1,0.3,0.1l0,0
	c0,0,0.1,0,0.1,0c0.3,0.1,0.6,0,0.8-0.2c0-0.1,0.1,0,0.2,0h0.1l0.1,0.1v0.2c0.1,0,0.2-0.2,0.3,0s-0.1,0.2,0.2,0.2s0.4,0,0.5-0.1
	c-0.3,0-0.5-0.2-0.7-0.4l0,0c0.2-0.2,0.5-0.3,0.7-0.5s0.1,0,0.1-0.1s-0.2,0-0.2,0l0,0l0,0l0,0c0.3,0,0.7-0.1,1-0.2
	c0.3,0,0.4,0.1,0.7,0.1s0.1-0.1,0.2-0.1c0.3,0,0.2-0.1,0.1-0.2c0.1-0.1,0.3,0,0.4,0s0.2,0.1,0.2,0.2s0.3,0.1,0.5,0.1
	s0.1,0.2,0.1,0.3s-0.1,0.1,0,0.1c0.1,0.2,0.3,0.2,0.5,0.2c0,0,0,0,0.1,0l0,0c0.2,0,0.1,0.1,0,0.1s-0.1,0.2,0.1,0.2
	c0.4,0,0.7,0,0.8-0.2s0.1-0.2,0.2-0.1c0.3,0,0.7,0,1,0c0,0.2,0.2,0.1,0.3,0.1c0,0.3,0.1,0.3,0.5,0.2c0.1,0.1,0.3,0.1,0.5,0.1
	c0.2,0.1,0.4,0.1,0.7,0h0.1c0.2,0,0.4-0.2,0.7-0.1c0.3,0.1,0.7,0.1,1,0c0.1,0,0.1,0,0-0.1s-0.1-0.1-0.1,0c-0.2,0.2-0.3,0-0.5,0
	s-0.3-0.1-0.2-0.2c0.4-0.2,0-0.2-0.2-0.2s-0.1-0.1,0-0.1s0.1-0.1,0-0.1s-0.2,0-0.2,0.1c0,0,0,0.1,0,0.1c-0.1,0-0.3,0-0.4,0
	c-0.3,0-0.3-0.1-0.1-0.2s0.1-0.3,0.1-0.5s-0.3-0.1-0.2-0.2s0-0.1,0.1-0.1s0.3-0.1,0.2-0.2s0-0.2,0.1-0.1c0.2,0,0.4,0,0.6,0l0,0
	c0.1,0.1,0.1,0.2-0.1,0.3s-0.1,0.1,0,0.1c0.1,0,0.2,0,0.2,0c0.1,0,0.1-0.1,0.2,0s-0.3,0-0.3,0.2c0.1,0.1,0.2,0.1,0.3,0.1
	c0.3,0,0.3,0.1,0.3,0.2v0.1c-0.1,0.1,0.1,0.2,0.1,0.3s0.1,0.1,0.2,0c0.1-0.1,0.2-0.1,0.4,0c0,0,0,0,0,0c0.1,0,0.3,0.1,0.4,0
	s-0.1-0.1-0.2-0.1h-0.1c0.1,0,0-0.1,0-0.1c0.2-0.1,0.4-0.1,0.4-0.3c0.3,0,0.1,0.2,0.2,0.3s0-0.2,0.2-0.1c-0.1,0.2,0.1,0.2,0.3,0.2
	c0.2,0,0.5,0,0.7-0.2c0.1-0.1,0.3-0.1,0.4,0c0.1,0.1,0.3,0.1,0.5,0.1c0.3,0,0.2,0.1,0.4,0.2s0,0.1-0.1,0.1s-0.2,0.1-0.1,0.1
	c0.1,0.1,0.2,0.1,0.3,0c0.2-0.1,0.4-0.1,0.4-0.3c0,0,0-0.1,0-0.1s0.1,0,0.1,0s0.2,0.2,0,0.3s-0.1,0,0,0.1c0.2,0,0.3,0,0.5,0
	c0.1,0,0.1-0.1,0.1-0.2s-0.1-0.2,0.1-0.2s0.4-0.1,0.6-0.1s0.4,0.1,0.4,0.2s0.2,0.3,0.5,0.4c0.1,0,0.1,0.1,0.2,0
	c-0.1-0.1,0-0.2,0.1-0.2c0.3,0.1,0.7,0.1,1.1,0c0.1,0,0.2,0,0.2,0c0.2,0.2,0.6,0.2,1,0.4c0-0.2-0.4-0.3-0.2-0.4c0.1,0,0,0.2,0.3,0
	c0.2-0.2,0.5-0.3,0.8-0.3c0.4,0,0.3-0.1,0.2-0.2c0.2,0,0.4-0.1,0.4-0.2c0.1-0.2-0.1-0.2-0.2-0.3c-0.1-0.1-0.3-0.1-0.5-0.1
	c-0.3,0.1-0.4,0-0.4-0.2c0.1-0.1,0.3-0.1,0.4,0c0.2,0.2,0.5,0.2,0.8,0h0.1c0.4,0,0.8,0,1.3-0.1h0.1c-0.3,0-0.2-0.1-0.3-0.3
	s0,0-0.1,0h-0.4c-0.3-0.1-0.6-0.1-0.9,0c-0.1,0-0.1,0-0.1,0.1s0.1,0.1,0.2,0s0.1,0,0.1,0.1h-0.1c-0.1,0-0.3,0-0.4,0s0.3-0.3-0.2-0.3
	c0,0-0.1,0-0.1,0c0,0,0-0.1,0-0.1c0,0,0,0,0.1,0c0.4,0,0.3-0.2,0.2-0.3l0,0c0.1-0.1,0.2-0.1,0.4,0c0.1,0.1,0.2,0.1,0.3,0
	c0.1-0.1,0-0.1-0.1-0.2s-0.2,0-0.1-0.1s-0.1-0.2-0.1-0.3c0.3,0.1,0.3,0,0.3-0.1s-0.1-0.1-0.2-0.2l0,0c-0.1,0-0.1-0.1-0.1-0.2
	s0.2,0.2,0.4,0.1s0.4,0,0.5,0.1c0.2,0,0.5,0,0.7,0h0.1c0.1,0.4,0.4,0,0.6,0.1c0.1,0,0.2,0,0.2-0.1c0-0.1-0.1-0.1-0.2-0.1
	s-0.3,0-0.3-0.1c0.3,0,0.6,0,0.9,0c0.2,0,0.3,0,0.5,0.1h0.2l1-0.3c0.1,0,0.1-0.1,0-0.1s-0.2-0.1-0.2-0.1c0.2-0.1,0.3,0,0.4,0.1
	s0,0,0,0c0.2,0.1,0.2,0.2-0.1,0.3s-0.2,0.1-0.1,0.1c0.1,0,0.1,0.1,0.2,0c0.3,0,0.6,0,0.9-0.1c0.1,0,0.1-0.1,0.2-0.1
	s-0.1-0.1-0.1-0.1s-0.1,0,0.1-0.1s0.1-0.2,0.3-0.1l0,0c0,0.2,0.1,0.3,0.4,0.3c0.2,0,0.5,0,0.7,0l0,0c-0.2,0-0.3,0.1-0.4,0.3
	c0.2,0,0.4-0.1,0.6,0l0,0c0.1,0.1,0.3,0.1,0.4,0.1c0.2-0.1,0.4-0.1,0.6-0.1c0.2,0,0.2,0,0.1-0.1c0.1,0,0.3,0,0.3-0.1
	c0.4,0,0.7-0.1,1.1-0.3c0.1,0,0.2-0.1,0.3-0.1c0.1-0.2,0.2-0.3,0.4-0.2c0.3,0.1,0.3,0,0.3-0.1c0,0,0-0.1,0-0.1c0,0,0.2,0,0.1-0.1
	s-0.2-0.1-0.2-0.1c-0.2,0.2-0.5,0-0.8,0.1c-0.6,0.1-1.1-0.1-1.7-0.1c-0.1,0-0.3-0.1-0.3-0.1s-0.1-0.2-0.2-0.1s-0.2-0.2-0.3,0
	s-0.1,0-0.2,0l0,0v-0.2c0.3-0.1,0.5,0.1,0.8,0c1.5,0,3.1-0.1,4.6-0.2c0.4,0,0.8-0.1,1.1-0.2c0.3,0,0.6,0,0.9,0.1
	c0.2,0.1,0.4,0.1,0.7,0c0.2,0,0.2,0,0.1-0.1s-0.2-0.2-0.1-0.4s0.3,0,0.4-0.1c-0.5-0.1-0.9-0.2-1.4-0.2c-0.4,0-0.8,0-0.9-0.3
	c0-0.1-0.1-0.1-0.2-0.1c-0.3,0-0.6,0-0.9,0c-0.6,0.1-1.3,0-2,0.1c-0.2,0-0.4,0-0.6,0c0.1-0.1,0.4-0.1,0.6-0.2
	c-0.2-0.1-0.4-0.1-0.6-0.1c-0.4,0-0.9,0-1.3,0c-0.2,0-0.5-0.1-0.8-0.1c-0.1-0.1-0.2,0-0.3,0s-0.1,0-0.1-0.1l0,0c0.1,0,0.3,0,0.4,0
	c0.1,0,0.3,0,0.3-0.1l0,0c0.2,0,0.3-0.2,0.4-0.1c0.2,0,0.3,0,0.4-0.1c0,0,0.1,0,0.1,0c0.3,0,0.6-0.1,1-0.1c0.1,0,0-0.1,0-0.1l0,0
	c0.6,0.1,1.3,0,1.9-0.2l0,0c0.3,0,0.7-0.1,1-0.2c0.1,0,0.2,0,0.3,0l0,0c0.1,0,0.2,0,0.3,0c0.4,0,0.9-0.1,1.3-0.3c0,0,0,0,0-0.1
	c0.1,0,0.2,0,0.4,0c0.5,0,1-0.1,1.5-0.3c0.1,0,0.1,0,0.1-0.1c-0.5,0-1.1,0-1.6,0.1c-1.3,0.3-2.7,0.4-4,0.6c-0.6,0.1-1.2,0.2-1.7,0.2
	c-0.7,0.1-1.4,0.2-2.2,0.2c-0.5,0-0.9,0.1-1.4,0.2c-0.4,0.1-0.9,0.1-1.4,0.1c-0.7,0.1-1.3,0.1-2,0c-0.5-0.1-0.9-0.2-1.4-0.2
	c-0.1,0-0.3-0.1-0.4-0.1c-0.6,0-1.3,0-1.9,0.1c-0.6,0-1.1,0-1.7,0.1h-0.1c-0.1,0-0.3,0-0.4,0l-1.4,0.2c-0.8,0-1.6-0.1-2.3,0
	c0.1-0.1,0.3,0,0.5-0.1c-0.5,0-0.9,0-1.4-0.1c-0.3-0.1-0.7-0.1-1-0.1l0,0c0,0-0.2-0.1-0.1-0.1s0.3-0.2,0.5-0.1c0.1,0,0.3,0,0.4-0.1
	c0,0,0-0.1-0.1-0.1c-0.1-0.1-0.2,0-0.3,0l0,0c-0.1,0-0.1,0-0.2,0s0-0.1,0-0.1s0-0.1,0.1-0.1c0.4,0,0.7,0,1.1,0h0.4
	c0.1-0.2-0.1-0.3-0.1-0.4c0.1,0,0.2,0,0.3-0.1c0.1-0.1,0.3-0.1,0.4,0c0.1,0.1,0.4,0.2,0,0.3c-0.1,0,0,0.1,0,0.1c0.3,0,0,0.2,0.2,0.2
	l0,0l0,0l0,0l-0.3-0.1c0,0.1,0,0.2,0.2,0.2s0.2,0.1,0.4,0c0.3,0.1,0.5,0.1,0.8,0c0.1-0.1,0.2-0.1,0.3,0c0.3,0.1,0.6,0.1,0.8,0.1
	c0.1,0,0.2,0,0.2-0.1s-0.1,0-0.2,0c-0.3,0-0.6,0-0.6-0.3c-0.1,0-0.2,0.1-0.3,0.1c0.1,0,0.2,0,0.3-0.1c0-0.1-0.1-0.2-0.3-0.1
	c-0.2,0-0.3,0-0.5,0c-0.3,0-0.3-0.1-0.1-0.2s0.2-0.1,0.2-0.2s0.1-0.2,0.3-0.2c0.4,0,0.7-0.2,1.1,0c0,0.1-0.3,0-0.3,0.1
	s0.2,0,0.3,0.1s0,0.1,0,0.1c0,0.1,0.1,0.1,0.2,0c0,0,0,0,0,0c0.1-0.1,0.2-0.1,0.1-0.2l-0.3-0.1c0.1-0.1,0.1-0.1-0.3-0.2
	c0.1-0.1,0.2-0.1,0.1-0.2c0.2-0.1,0.1,0.1,0.2,0.1c0.1,0.2,0.3,0.2,0.6,0.2c-0.1,0.1,0,0.1,0.1,0.1c0.1,0,0.3,0.1,0.4,0.2
	c0,0-0.2,0.1,0,0.1c0.2,0.1,0.3,0.1,0.4,0.3c0,0,0.1,0.1,0.1,0.1s0.5-0.1,0.6-0.2c0.1-0.1,0.3-0.1,0.4,0c0.1,0.1,0.2,0.1,0.3,0.1
	c0.2,0,0.5,0,0.5,0.2c0,0,0,0.1,0.1,0.1s0.1,0,0.1-0.1s0.2-0.1,0.2-0.1c0.3-0.1,0.7-0.1,1.1,0c0,0,0.1,0,0.1,0
	c0.2-0.1,0.4,0.1,0.6,0s0.2,0,0.4,0c0,0.1-0.3,0.2-0.2,0.3h-0.1c-0.1,0-0.2-0.1-0.2,0s0.3,0.3,0.5,0.3s0.2,0,0.2-0.1
	s-0.3-0.4,0.1-0.5c0.1,0-0.1-0.1,0-0.1c0.3,0.2,0.4,0.2,0.9,0.1c0.2-0.1,0.4,0,0.6,0.2h-0.6c0.1,0,0.3,0.1,0.3,0.2
	c-0.1,0.3,0.3,0.3,0.5,0.4c-0.1-0.1,0-0.2,0-0.3v-0.1c-0.1-0.1,0.1-0.2,0.3-0.2s-0.2,0.1-0.1,0.2c0.7-0.1,0.7-0.1,0.8-0.2
	c-0.1,0-0.3,0.1-0.4,0l0.3-0.3c0.1,0.1,0.3,0.2,0.4,0.2s0.6,0,0.6-0.3s-0.2-0.2-0.2-0.3s-0.1,0-0.1,0c0.2,0,0.3-0.2,0.6-0.1
	c0.3,0.1,0.6,0.1,0.9,0h0.2c0.1,0,0.1,0,0.1-0.1s-0.1,0-0.2,0c0.1-0.2,0.1-0.2-0.1-0.2s-0.4,0-0.6-0.1l0,0c-0.1-0.1-0.4-0.1-0.6-0.2
	s-0.2-0.1,0-0.2l0,0c0,0.1,0.2,0.1,0.3,0.2c0.1,0,0.2,0,0.3-0.1c0,0,0-0.1,0-0.2c-0.1-0.1-0.2-0.1-0.3,0h-0.1c0-0.1,0-0.1,0.2-0.1
	s0.2,0,0.1,0s0.1-0.2,0.3-0.2s0.4-0.1,0.5-0.3h0.1c0.1,0.1,0.3,0,0.4,0.1s0,0.2,0.2,0.1s0.3,0,0.4-0.1c0,0,0-0.1,0-0.2
	c0,0,0-0.1,0.1-0.1h0.4h0.1c0.3,0,0.5,0.2,0.8,0.1c0.2-0.1,0.5-0.2,0.7-0.2c0.2,0,0.1-0.2,0.3-0.1l0,0c0.1,0.1-0.2,0.1-0.1,0.2
	c-0.2,0.1,0.1,0.1,0.1,0.2c0.1,0,0.3,0,0.4,0c0.2,0,0.4,0,0.6-0.1c0.3-0.1,0.1-0.2,0.1-0.3s0-0.1,0.1-0.1s0.1,0.2,0.3,0.2
	s0.2,0.1,0.3,0h0.5l0,0c0,0.1-0.1,0.2,0.2,0.2c0.1,0,0.1,0,0.2,0l0,0c0.2,0.1,0.5,0.1,0.6-0.1c0,0,0,0,0,0l0.3,0l0,0
	c0.6,0,1.1-0.2,1.2-0.4c0.2,0,0.4,0.1,0.5,0.2c0.1-0.1,0.1-0.1,0-0.2s0-0.1,0.1-0.1s0.6,0,0.5-0.2s0.2-0.1,0.3-0.1
	c-0.1-0.1-0.3-0.2-0.5-0.1s-0.2,0-0.2,0s-0.1-0.1-0.1,0s-0.3,0.1-0.4,0.1c-0.5-0.1-1-0.1-1.4-0.2c-0.1,0-0.2,0-0.2-0.1
	s0-0.2-0.3-0.1h0.1c-0.1,0-0.2-0.1-0.4-0.1c-0.1,0-0.2,0-0.3,0h-0.2c-0.1,0-0.2-0.1-0.3-0.1c-0.3-0.1-0.7-0.2-1-0.2
	c-0.2,0-0.4,0-0.6-0.1c-0.2-0.1-0.5-0.1-0.8,0l-0.3,0l-0.9-0.1c0.2-0.2-0.1-0.2-0.2-0.2s0.2-0.1,0.2-0.1l0.2-0.1
	c0.2,0,0.4-0.1,0.5-0.2c0.4,0,0.6-0.1,0.7-0.4c0.3-0.1,0.3-0.3,0.6-0.4c0,0,0-0.1-0.1-0.1c-0.3,0-0.5-0.2-0.8-0.2c0,0-0.1,0-0.1-0.1
	s0-0.2-0.2-0.3c-0.1,0-0.1-0.1-0.1-0.1l0.5-0.1c0.2,0,0.4,0,0.5-0.1s0.2-0.1,0.3-0.1c0.1,0,0.2,0,0.2,0c0.6,0,1.2-0.1,1.8-0.1
	c0,0.1-0.2,0.1-0.2,0.2c0.1-0.1,0.2,0,0.3-0.1s0.1-0.1,0.2-0.1c0.3,0,0.7,0,1-0.1c0.1-0.1,0.4-0.1,0.5-0.1s0.4,0.1,0.6,0
	s0.1,0,0.2,0c0,0,0.1,0,0.1,0c0,0,0-0.1-0.1-0.1s-0.2-0.1-0.2-0.2c0.1,0,0.2-0.1,0.4-0.1c0.2,0,0.5,0,0.7-0.1h0.1
	c0.2,0,0.2-0.2,0.4-0.1l0,0c0.2,0,0.4-0.2,0.7,0l0,0c0.2-0.1,0.3,0,0.4,0c0.3,0.1,0.6,0.1,0.8-0.2c0-0.1,0-0.2,0.1-0.3
	C169.1,20.7,169.1,20.6,168.9,20.5z M157.5,16L157.5,16z M157.2,3L157.2,3z M156.7,15.6L156.7,15.6z M151.7,3.3L151.7,3.3z
	 M150.9,3.1L150.9,3.1z M150.8,16.5L150.8,16.5z M150.2,3.4L150.2,3.4z M153,1.6L153,1.6z M152.1,1.5L152.1,1.5z M145.6,2L145.6,2
	c0,0-0.1,0-0.1,0C145.5,2,145.6,2,145.6,2L145.6,2z M144.2,2.3L144.2,2.3z M142,1.7L142,1.7z M133.6,1L133.6,1z M132.5,1L132.5,1z
	 M126.9,1L126.9,1z M126.1,1.1L126.1,1.1z M125.3,1.4L125.3,1.4z M7.1,9.2L7.1,9.2z M8.1,9.2L8.1,9.2z M11.6,10.9L11.6,10.9
	L11.6,10.9z M22.1,7.1L22.1,7.1z M27.1,7.6L27.1,7.6z M27.9,5.4L27.9,5.4z M27.9,11.7L27.9,11.7z M28.4,11.9L28.4,11.9z M28.8,6.7
	L28.8,6.7L28.8,6.7z M29.9,5.3L29.9,5.3z M31.1,6.9L31.1,6.9z M14.7,14.5L14.7,14.5z M18.7,17.8L18.7,17.8
	C18.7,17.8,18.7,17.9,18.7,17.8L18.7,17.8z M5.8,20.7L5.8,20.7z M7.9,21L7.9,21z M12.2,22L12.2,22c-0.1,0-0.2,0-0.3,0l0,0
	c0,0-0.1,0-0.1,0s-0.2,0-0.3,0h-0.1l0,0c0-0.1,0.2,0,0.2-0.1l0,0h0.1c0,0,0.1,0,0.1,0L12.2,22l0.1-0.1c0,0,0.1,0,0.1,0L12.2,22z
	 M10.6,33.6L10.6,33.6z M16.4,18.5L16.4,18.5L16.4,18.5z M20.8,17.8L20.8,17.8z M21.8,18L21.8,18z M22.2,33.9L22.2,33.9z M22.9,17.9
	L22.9,17.9z M26.6,13.2L26.6,13.2z M104.3,2.3C104.2,2.3,104.2,2.3,104.3,2.3c-0.1,0.1-0.3,0-0.4,0C104,2.3,104.1,2.3,104.3,2.3z
	 M93.2,1.8L93.2,1.8z M93,1.2L93,1.2z M92.9,2.2c0.1,0,0.1,0,0.2,0c0.1,0,0.2,0,0.2,0c0,0.1,0.2,0.1,0.2,0.2s-0.2,0.2,0.1,0.2
	c0.3-0.1,0.5-0.1,0.8,0h0.2l0,0c0.2,0,0.3,0,0.5,0h0.1h0.2l0,0c0.2,0.1,0.3,0.1,0.5,0h0.1c0.1,0.1,0.3,0.1,0.4,0.1
	c0.6,0.1,1.1-0.1,1.6-0.5c0.1,0.2,0.3,0.3,0.5,0.3s0.6,0,0.6-0.1S98.9,2.1,98.7,2l0,0c0.4,0,0.8,0,1.2,0c0.2,0,0.4,0,0.6,0
	c0.2,0.1,0.5,0.1,0.7,0c0.4-0.2,0.8-0.1,1.1,0.1l0.1,0.1c0,0.1,0.1,0.1,0.2,0.1c0.2,0,0.3,0,0.5-0.1c0.1-0.1,0.3-0.1,0.5-0.1
	c0.1,0,0.1,0,0.2,0.1h0.2h0.2l0,0l0,0l-0.6,0.1c-0.1,0-0.2,0.1-0.2,0.1s0.1,0.1,0.2,0.1s0-0.1,0.1-0.1c0,0-0.1,0.1-0.1,0.1
	c0.1,0.1,0.3,0.1,0.5,0.1c0,0,0.1,0,0,0.1c-0.3,0.1-0.7,0.2-1,0.1c-0.4-0.1-0.8-0.1-1.1,0.1c-0.1,0.1-0.3,0.1-0.4,0
	c-0.2-0.1-0.5-0.1-0.7,0c-0.1,0-0.3,0-0.4,0c-0.2,0-0.3,0-0.5,0c-0.2,0-0.3,0-0.5,0c-0.2-0.1-0.5-0.2-0.8-0.1c0,0-0.1,0-0.1,0
	c-0.4-0.1-0.5-0.1-0.6,0.2h-0.1c0,0,0-0.1,0-0.1c0-0.1,0.1-0.2-0.1-0.2c-0.1,0-0.2,0-0.3,0.1c0,0,0,0.1,0,0.1c0,0.1,0,0.1-0.1,0.2
	h-0.2l-0.1-0.2c-0.1-0.1-0.2-0.1-0.3-0.1c-0.1,0-0.1,0.1-0.1,0.1c0,0,0,0.1,0,0.1c0,0-0.1,0-0.1,0h-0.2l0,0c-0.2-0.1-0.2-0.1-0.3,0
	v0.1L95.7,3c-0.1,0-0.3,0-0.4,0c-0.3-0.1-0.6-0.1-0.9-0.3l-0.2,0c-0.1,0-0.1,0-0.2,0h-1.2c-0.2,0-0.4,0-0.6-0.1l0.1-0.1
	c-0.1-0.2-0.3-0.2-0.5-0.1h-0.3c0.3-0.1,0.6-0.1,0.8,0C92.4,2.2,92.7,2.2,92.9,2.2L92.9,2.2z M91.6,1.7c0.3,0,0.6,0,0.8-0.1h0.1
	c-0.1,0.1-0.2,0.2-0.1,0.3h-0.6c0.1-0.1,0-0.1-0.2-0.1l0,0h0.1c0-0.1,0-0.1-0.1-0.1H91.6z M91.1,2.3L91.1,2.3L91.1,2.3L91.1,2.3z
	 M88.3,2.8c0.1,0,0.1,0,0.2,0c0.1,0,0.3,0,0.4,0c0.1,0,0.2,0,0.2-0.1s-0.2,0-0.2,0h-0.3h-0.1C88.2,2.6,88,2.6,88,2.5
	c0.2,0,0.4,0,0.6,0c0.3,0.1,0.6,0.1,0.9,0.1h0.1c0.3,0,0.7-0.1,1-0.1l0,0c0.2,0.3,0.3,0.3,0.7,0.2h0.1c0.3,0.2,0.6,0,0.9,0.1
	c0,0-0.1,0-0.2,0.1h-0.1c-0.3,0.1-0.3,0.2-0.1,0.4c-0.5,0-1,0-1.6-0.1c-0.2,0-0.5,0-0.7,0c-0.6,0.1-1.2,0.1-1.8-0.1
	C87.9,3,88.1,2.9,88.3,2.8L88.3,2.8z M86.4,1.9c0.2,0,0.3,0,0.5,0c0.2,0,0.3-0.1,0.5-0.1h0.1c0,0,0.1,0,0,0c0,0.1-0.1,0.2-0.1,0.3
	l0,0l-0.2,0.1H87h-0.3h-0.4c0,0,0-0.1-0.1-0.1S86.2,1.9,86.4,1.9L86.4,1.9z M84.4,1.8L84.4,1.8L84.4,1.8z M84,1.9L84,1.9z M83.9,2.9
	L83.9,2.9C83.9,3,83.9,3,83.9,2.9L83.9,2.9z M33.7,4.4c0.1,0,0.1,0,0.2,0H33.7L33.7,4.4z M100.3,37.2L100.3,37.2z M100.3,37.2
	L100.3,37.2z M111.8,38.2L111.8,38.2C111.9,38.2,111.8,38.2,111.8,38.2L111.8,38.2z M114.9,38.6L114.9,38.6z M114.9,38.6
	c0,0.1,0,0.1,0.1,0.2C114.9,38.7,114.8,38.6,114.9,38.6L114.9,38.6z M117,1.3L117,1.3z M118.4,38.1
	C118.4,38.1,118.4,38.2,118.4,38.1C118.4,38.1,118.4,38.1,118.4,38.1L118.4,38.1z M118.8,1.4L118.8,1.4z M119.3,38.6L119.3,38.6z
	 M120.8,37.9L120.8,37.9z M121.1,37.1L121.1,37.1L121.1,37.1z M121.4,37.1L121.4,37.1L121.4,37.1L121.4,37.1z M122.1,37.4
	C122.1,37.4,122.2,37.4,122.1,37.4L122.1,37.4C122.2,37.4,122.2,37.4,122.1,37.4L122.1,37.4z M125.5,36.9L125.5,36.9z M126.9,36.2
	L126.9,36.2z M127.1,36.7L127.1,36.7z M127.1,36.7L127.1,36.7z M164.4,31.9L164.4,31.9L164.4,31.9z M158.8,32.3c-0.1,0-0.3,0-0.4,0
	H158.8z M154.8,33.6L154.8,33.6z M153.4,33.8C153.4,33.8,153.5,33.8,153.4,33.8L153.4,33.8c-0.1,0.1-0.2,0.1-0.3,0.1
	C153.1,33.8,153.3,33.8,153.4,33.8L153.4,33.8z M152.9,33.4L152.9,33.4z M151.5,33.3L151.5,33.3z M149,35.1L149,35.1z M149,35.1
	L149,35.1z M148.9,35.2L148.9,35.2z M148.5,34.2L148.5,34.2z M147.5,33.6L147.5,33.6z M147.4,36.5c0.1,0,0.2-0.1,0.3-0.2h0.1
	c0.3,0,0.4,0.3,0.9,0.2c-0.1,0.1-0.2,0.1,0,0.2l0,0c0,0,0.1,0.1,0,0.1c-0.3,0-0.2,0.1-0.2,0.2l0,0l0,0c-0.1,0.1,0,0.1,0.1,0.1l0,0
	l0,0c0,0-0.2-0.1-0.4-0.2c0.1-0.2,0-0.2-0.2-0.2l0,0c-0.2,0-0.3,0-0.5,0h-0.1h-0.1C147.1,36.6,147.1,36.5,147.4,36.5L147.4,36.5z
	 M147.1,36.9L147.1,36.9c-0.1,0-0.1,0.1-0.2,0.2S146.9,37,147.1,36.9L147.1,36.9z M146.7,32.9L146.7,32.9z M145.4,32.9L145.4,32.9z
	 M144.4,35.3L144.4,35.3L144.4,35.3z M144.2,30.1L144.2,30.1z M144.1,36C144.1,36,144,36,144.1,36L144.1,36z M143.4,30.3L143.4,30.3
	z M143.4,30.2C143.4,30.2,143.4,30.2,143.4,30.2L143.4,30.2L143.4,30.2z M143.1,33.7L143.1,33.7z M142.4,36.4h-0.3
	C142.2,36.4,142.3,36.4,142.4,36.4L142.4,36.4z M141.7,30L141.7,30z M141.1,29.8L141.1,29.8C141.1,29.8,141.1,29.8,141.1,29.8
	L141.1,29.8z M155.8,28.1L155.8,28.1z M155.8,27.9L155.8,27.9C155.7,27.9,155.7,27.8,155.8,27.9C155.7,27.8,155.7,27.9,155.8,27.9
	L155.8,27.9z M142.3,17.1L142.3,17.1c0,0,0.1,0,0.1,0C142.3,17.1,142.3,17.2,142.3,17.1L142.3,17.1z M137.9,2.7
	c0.3,0,0.4-0.1,0.7-0.1c0.5,0,1.1,0,1.6-0.1c0.2,0,0.3,0,0.3,0.1l0,0c-0.2,0-0.3,0.1-0.3,0.2s-0.1,0.1-0.2,0.1s-0.3,0-0.4,0
	s-0.3,0-0.3-0.1s-0.1-0.1-0.3-0.1s-0.3,0-0.4,0.1s-0.2,0-0.2,0.1s0.1,0.1,0.2,0.1c-0.1,0-0.2,0.1-0.4,0.1l0,0c0,0-0.1,0-0.2-0.1
	S137.8,2.7,137.9,2.7z M137.6,2.1L137.6,2.1z M137.9,16.6c0,0.1,0.2,0.1,0.3,0.1s0.2,0,0.1,0.1s0,0.2,0.1,0.3h-0.1l-0.4,0
	c-0.1,0-0.2,0-0.3,0c-0.9,0-1.7,0-2.6-0.1h-0.1l0,0c0.1,0,0.2,0,0.2,0c0.1,0,0.2,0,0.2,0s-0.1-0.2-0.2-0.2s-0.1,0-0.2,0h0.3h0.1
	C136.2,16.6,137.1,16.6,137.9,16.6L137.9,16.6z M128.4,37.5L128.4,37.5L128.4,37.5c-0.1,0-0.1,0-0.2,0.1c-0.1-0.1-0.2-0.1-0.3,0
	c-0.1,0-0.1,0-0.2,0.1s0.2-0.1,0-0.2c0,0-0.1,0-0.1,0h0.1l0,0h0.7C128.6,37.5,128.4,37.5,128.4,37.5L128.4,37.5z M128.1,37L128.1,37
	z M130,36.6C130,36.6,130,36.6,130,36.6L130,36.6z M131.5,16.4L131.5,16.4z M132.3,3.2c-0.5-0.1-1,0-1.5,0.1c-0.1,0-0.2,0-0.3,0
	h-0.3c-0.1,0-0.3-0.1-0.4-0.1c-0.1,0-0.3,0-0.4,0h-0.1h-0.2h-0.2l0.1-0.1l0,0c0.4-0.1,0.8-0.2,1.2-0.2c-0.3,0-0.7-0.1-1-0.1
	c-0.2,0-0.5,0-0.8,0c-0.1,0-0.2,0-0.2,0h-0.4c0.1-0.1,0.3-0.1,0.4-0.1l0,0c0.2,0,0.3,0.1,0.5,0.1c0.6,0,1.2,0,1.7-0.2
	c0.6-0.1,1.1-0.1,1.7-0.1c0.4,0,0.8,0,1.2-0.1l0,0c0,0.1,0.1,0.1,0.3,0.1s0.5,0,0.8-0.1c0.6,0,1.3,0,2-0.1c0.3,0,0.5,0,0.8,0.1
	c0.2,0,0.2,0.1,0.2,0.2S137.3,3,137.2,3c-0.6,0-1.2,0.2-1.8,0.1c-0.1,0-0.2,0-0.4,0l0,0c-0.1,0-0.2,0-0.3,0h-0.6
	c-0.1,0-0.2-0.1-0.3-0.1c0,0,0.1-0.1,0-0.1c-0.1,0-0.2,0-0.3,0h-0.4c-0.1,0-0.2,0-0.2,0.1s0.1,0.1,0.2,0.1s0.3,0,0.4,0.1
	c-0.1,0-0.2,0-0.3,0.1l0,0C133,3.2,132.7,3.2,132.3,3.2L132.3,3.2z M133.2,37.3L133.2,37.3z M133.2,37.3c-0.1,0-0.2,0-0.3,0h-0.1
	h-0.1l0,0l0,0l0,0l0,0c0.2,0,0.2-0.1,0.3-0.2s0.2-0.2,0.3,0L133.2,37.3C133.2,37.1,133.3,37.2,133.2,37.3L133.2,37.3z M136.5,37.8
	c0,0-0.1,0-0.1,0l0,0c-0.2-0.1-0.5,0-0.7-0.1l0,0c0.1,0,0.2-0.1,0-0.2l0,0l0,0c0-0.1-0.1-0.1-0.1-0.2s0.1-0.1,0-0.1
	c-0.1,0-0.1,0-0.2,0.1l-0.2,0.2l-0.1,0.1l0,0c-0.3-0.1-0.6-0.2-0.9-0.1l0,0l0,0c-0.1,0-0.3,0-0.3,0.1c-0.2,0-0.4,0.2-0.5,0l0,0
	c0.1-0.1,0.2-0.1,0.3-0.2c0.1-0.1,0-0.3,0.3-0.3c0.1-0.1,0.2-0.1,0.3-0.2h0.2c0.4,0,0.4-0.1,0.3-0.3c-0.1-0.1-0.2-0.1-0.4-0.1
	c-0.2,0-0.4,0-0.6,0c0,0-0.2-0.1-0.1-0.2s0.1,0,0.2,0h0.1c0.1,0,0.2,0,0.3,0c0.1,0,0.3,0,0.3-0.1s-0.2,0-0.3,0h-0.3
	c-0.1-0.1-0.2,0-0.3-0.1c-0.1-0.1-0.3,0-0.4,0.1h-0.1c0-0.1,0-0.2,0.1-0.3h0.2c0.6,0.1,1.2,0.1,1.7,0c0.1,0,0.2-0.1,0.3-0.1l0,0
	c0,0,0.1,0,0.1,0.1c0.1,0.1,0.2,0.1,0.3,0c0.1-0.1,0.2-0.1,0.2-0.1c0.2,0.1,0.1,0.3,0.1,0.5l0,0l0,0c-0.3-0.2-0.5,0.1-0.7,0.1
	c-0.1,0-0.2,0-0.1,0.1c0.1,0.1,0.2,0.1,0.3,0.1c0.2,0,0.4,0,0.6,0c0,0.1-0.1,0.2,0.1,0.2l0,0c0,0,0,0.1-0.1,0.1h-0.2
	c-0.2,0-0.1-0.2-0.3-0.2s0,0.2-0.3,0.2c0,0-0.1,0-0.1,0c-0.1,0.1,0,0.1,0,0.2s0.1,0,0.2,0c0.2,0,0.4,0,0.6,0.1
	c0.1,0.1-0.1,0.1-0.1,0.2l0,0l0,0c-0.1,0-0.3,0-0.3,0.1l0,0c0.1,0-0.1,0.2,0.2,0.1c0.1,0.1,0.3,0,0.4,0l0,0
	C136.6,37.6,136.5,37.8,136.5,37.8L136.5,37.8z M136,34.7L136,34.7z M136.2,34.8L136.2,34.8z M136.7,34.4L136.7,34.4z M136.9,36.2
	L136.9,36.2z M137,35.1L137,35.1z M137.2,35.4L137.2,35.4z M139.3,29.9L139.3,29.9z M139.5,35.3L139.5,35.3L139.5,35.3z M140.2,30.2
	L140.2,30.2z M140.4,35L140.4,35z M140.4,36.3L140.4,36.3z M140.6,36.4L140.6,36.4z M141.9,29L141.9,29z M143.4,28.6L143.4,28.6z
	 M143.5,29.2L143.5,29.2L143.5,29.2z M147.7,27.9L147.7,27.9L147.7,27.9z M148.6,28c0,0,0.1-0.1,0.1-0.1L148.6,28z M148.8,27.2
	L148.8,27.2z M149.5,18.2h-0.1c-0.5-0.1-1-0.1-1.5,0l0,0c-0.3,0-0.6-0.1-0.8,0l0,0h-0.1c-0.3,0-0.7-0.1-1-0.1
	c-0.4-0.1-0.8-0.2-1.2-0.1c-0.3,0-0.6,0-0.9-0.1c-0.2,0-0.3,0-0.5,0c-0.2,0-0.4,0.1-0.6,0.3c-0.2,0-0.4,0-0.5-0.1l0,0
	c-0.1-0.1-0.2-0.2-0.3-0.3c-0.3-0.1-0.6-0.1-0.9-0.1c-0.2-0.1-0.4-0.1-0.6,0h-0.1l0,0c-0.2-0.1-0.5-0.1-0.8-0.1h-0.1
	c-0.3-0.1-0.6-0.1-0.8,0c-0.2,0-0.4,0-0.6,0c-0.5-0.1-1-0.1-1.5-0.1c-0.4,0-0.7,0.1-1-0.1l0,0c-0.5,0-0.9-0.1-1.4-0.1
	s-0.9-0.1-1.3-0.1c-0.1,0-0.2,0-0.2-0.1c0.2,0,0.4,0,0.6,0c0.5,0,1,0.1,1.5,0.1s1.1,0.1,1.7,0.1s1.1,0,1.6,0
	c1.4,0.1,2.9,0.2,4.3,0.2c0.3,0,0.6,0,0.9,0h0.1h0.2h0.2h0.3h0.1c0.2,0.1,0.3,0.1,0.5,0h0.1h0.3h0.1c0.4,0.1,0.7,0.1,1.1,0.1
	c0.4,0,0.8,0,1.2,0.1c0.2,0.1,0.4,0.1,0.6,0.1c0.3,0,0.5,0,0.8,0c0.7,0.1,1.4,0.1,2.1,0.1c0.1,0,0.1,0,0.2,0l0.2,0.1h-0.3
	c-0.4,0-0.3,0.2-0.5,0.3C150.4,18.1,149.9,18.1,149.5,18.2L149.5,18.2z M154.7,26.3c-0.1,0.1,0,0.2-0.1,0.3l-0.2,0.1l0,0
	c-0.2,0-0.3,0-0.5,0c-0.1,0-0.3,0-0.4,0l0,0c-0.4-0.1-0.6,0.2-0.9,0.2l0,0c-0.1-0.1-0.3-0.1-0.4,0l0,0l0,0l0,0c-0.1,0-0.3,0-0.4-0.1
	c-0.3-0.1-0.5-0.1-0.8-0.1c-0.1,0-0.2,0-0.2,0l0,0c0,0,0.1,0,0.1-0.1h0.1c0.2,0,0.4,0,0.6-0.1c0.1-0.1,0.3-0.2,0.4-0.2l0,0
	c-0.1,0-0.1,0.1,0,0.2c0.1,0,0.1,0,0.2,0c0.1,0,0.2-0.1,0.1-0.2s0,0,0-0.1h0.1c0.2,0,0.4,0,0.3-0.2l0,0c0.1,0,0.2,0,0.2-0.1l0,0
	c0.1,0,0.2,0,0.3,0c-0.2,0.2,0,0.2,0.2,0.3c0.2,0,0.5,0,0.7,0c0.2,0.1,0.2,0,0.3-0.1s0.1-0.2,0.4-0.2c0.1,0,0.2,0,0.2,0L154.7,26.3z
	 M153.7,19.1L153.7,19.1z M154.7,18.7L154.7,18.7z M155.1,27.8C155.1,27.7,155.2,27.7,155.1,27.8C155.2,27.7,155.2,27.8,155.1,27.8
	C155.2,27.8,155.1,27.8,155.1,27.8L155.1,27.8z M155.6,27.9L155.6,27.9c0,0,0,0.1,0,0.1c-0.1,0-0.1,0-0.2-0.1c0,0,0.1,0,0-0.1
	C155.5,27.8,155.5,27.8,155.6,27.9C155.6,27.9,155.6,27.9,155.6,27.9L155.6,27.9z M156.7,26.2l-0.2,0.1l0.3,0.1l0,0
	c-0.1,0.1-0.2,0-0.3,0l0,0l0,0c-0.1,0-0.1,0-0.1,0.1s-0.2,0.2-0.4,0.3c0,0-0.1-0.1-0.1-0.1c0-0.1,0.2-0.1,0.3-0.1s0.3-0.1,0.1-0.1
	s-0.1-0.2-0.2-0.3s-0.5-0.1-0.7-0.2c0.1-0.2,0.3-0.2,0.5-0.1s0.2,0.1,0.3,0c0.2,0,0.4,0.1,0.5,0.1C157.1,26.2,156.9,26.2,156.7,26.2
	L156.7,26.2z M156.2,23.4L156.2,23.4z M156.8,23.5L156.8,23.5z M158,18.6c-0.1,0-0.3,0-0.3,0.1l0,0c0,0-0.1,0-0.1,0l0,0
	c-0.2-0.1-0.4-0.1-0.6,0c-0.2,0.1-0.5,0.1-0.8,0c-0.1,0-0.1,0-0.2,0c-0.6-0.1-1.3-0.1-1.9,0l0,0c-0.2-0.2-0.5-0.3-0.9-0.2h-0.1
	c-0.1,0-0.2,0-0.2,0.1H153c0,0,0,0,0,0c-0.1,0-0.2,0-0.3,0.1c-0.1,0.1-0.3,0.2-0.5,0.1l0,0l0,0c0.2,0,0.2-0.1,0.4-0.1s0.1,0,0-0.1
	c0,0-0.1,0-0.2,0c-0.1,0-0.1,0.1-0.2,0.1s-0.3,0-0.4,0.1l0,0l0,0l0,0l-0.3,0.1h-0.1c-0.1-0.1-0.2-0.1-0.3-0.1s-0.2,0-0.2-0.1
	s0.1-0.1,0.2-0.1s0.3,0,0.2-0.1c0,0,0,0,0,0c0.1,0,0.2,0,0.2,0c0.2,0,0.3,0,0.5,0h0.1c0.6,0.1,1.2,0.1,1.8,0.1c0.1,0,0.3,0,0.4-0.1
	l0,0l0,0h0.1c0.1,0.1,0.2,0.2,0.4,0.1c0.1,0,0.3-0.1,0.4-0.1h0.2c0.2,0,0.4,0,0.5,0c0.3,0.1,0.6,0,0.9-0.1h0.2
	c0,0.1,0.1,0.1,0.4,0.1c0.3,0,0.6,0,0.9,0.1C158.3,18.5,158.2,18.6,158,18.6L158,18.6z M160.6,23.3L160.6,23.3L160.6,23.3z
	 M159.8,23.2L159.8,23.2z M163.9,21.9L163.9,21.9z"/>
<path class="st0" d="M156.7,0.3c0.1,0,0.2,0,0.3,0c0.6,0,1.2,0,1.8-0.1c0.1,0,0.3,0,0.2-0.1C158.9,0,158.8,0,158.7,0
	c-0.3,0.1-0.6,0.1-0.8,0c-0.1,0-0.3,0-0.4,0c-0.1,0-0.3,0.1-0.4,0h-0.2c-0.1,0-0.2,0-0.2,0.1S156.6,0.3,156.7,0.3z"/>
<path class="st0" d="M132.1,37.7c-0.2,0.2-0.4,0.1-0.6,0c-0.1,0-0.2,0-0.3,0c-0.2,0-0.3,0.1-0.6,0c0.2,0,0.3-0.1,0.4-0.1
	c0.1-0.1,0.1-0.1,0-0.2c-0.2-0.1-0.4-0.1-0.6,0c-0.1,0-0.1,0.1-0.2,0.1c-0.3,0.1-0.4,0.2-0.2,0.4c0,0.1,0,0.1-0.1,0.1
	s-0.1,0-0.1,0.1s0.1,0,0.2,0.1c0.1,0,0.2,0,0.2,0c0,0-0.1-0.1,0.1-0.1c0.2,0.2,0.4,0.2,0.7,0c0.4-0.2,0.8-0.2,1.1-0.2
	c0.3,0.1,0.5-0.1,0.7-0.1c-0.3,0-0.6,0-0.7-0.2L132.1,37.7z"/>
<path class="st0" d="M153.8,1.6c0.1,0,0.3,0,0.4,0s0.5,0.1,0.5,0.3s0,0.1,0.1,0.2c0.1,0,0.2,0,0.2-0.1c0.1-0.2,0.3-0.3,0.5-0.3
	c0.2,0,0.4-0.1,0.1-0.2l0,0c-0.1,0-0.2-0.2-0.3-0.2c-0.3,0-0.6,0-0.9,0.2h-0.6c-0.1,0-0.2,0-0.2,0.1C153.7,1.5,153.8,1.6,153.8,1.6z
	 M155.6,1.4L155.6,1.4z M154.6,1.4L154.6,1.4z"/>
<path class="st0" d="M95.4,38.9h-0.6c-0.4,0-0.5,0.1-0.5,0.3s0.3,0.1,0.5,0.1c0.1,0,0.2,0,0.3,0c0-0.1-0.2-0.1-0.2-0.1
	c0.1,0,0.3,0,0.4,0c0.1,0,0.2,0,0.2-0.1S95.5,38.9,95.4,38.9z"/>
<path class="st0" d="M121.6,38.5c0.1,0.1,0,0.1,0,0.2s-0.2,0.1-0.2,0s-0.3,0-0.5-0.1s-0.2,0-0.2,0.1s0.1,0.1,0.1,0.1
	c0.3,0,0.2,0,0.1,0.1s0,0.2,0.1,0.1s0.4,0,0.5-0.1h0.1h0.2c0.1-0.1,0-0.2,0-0.3s0.1-0.2-0.1-0.3S121.4,38.4,121.6,38.5z"/>
<path class="st0" d="M162.9,18.5c-0.2,0-0.4,0.1-0.6,0.2l1.6-0.1c0.1,0,0.1,0,0.1-0.1s-0.1-0.1-0.2-0.1
	C163.6,18.4,163.2,18.4,162.9,18.5z"/>
<path class="st0" d="M158.9,15.8c-0.2,0.1-0.4,0.1-0.6,0c-0.1,0-0.2,0-0.3,0s0,0.1,0.2,0.1c0.2,0,0.5,0,0.7,0h0.2
	c0.1,0,0.3,0,0.4-0.1s-0.2-0.1-0.3-0.1C159,15.7,159,15.7,158.9,15.8z"/>
<path class="st0" d="M57.6,3.1c0.1,0,0.2,0.1,0.3,0.1c0.2,0,0.3,0,0.4-0.1c0.1-0.1-0.2-0.1-0.3-0.2c-0.1,0-0.2,0-0.3,0h-0.1
	c-0.2,0-0.3,0-0.3,0.1S57.5,3.1,57.6,3.1z"/>
<path class="st0" d="M155.7,17.4c-0.1,0,0,0.1,0.1,0.1c0,0,0.1,0,0.1,0c0.2-0.2,0.5-0.4,0.8-0.4c0.1,0,0.1-0.1,0.1-0.1l0,0
	c-0.3-0.3-0.9-0.4-1.3-0.1c-0.2,0-0.4,0-0.6-0.1c-0.1,0-0.2,0-0.3,0.1s0.1,0.1,0.2,0.1c0.2,0,0.5,0,0.7,0.1l0,0
	C155.7,17.2,155.9,17.3,155.7,17.4z"/>
<path class="st0" d="M56.7,3.4c0.2,0,0.3,0,0.2-0.1S56.7,3,56.4,3c-0.1,0-0.3,0-0.2,0.1C56.3,3.3,56.5,3.4,56.7,3.4z"/>
<path class="st0" d="M108.5,38.8c-0.1,0-0.2,0-0.3-0.1c0,0-0.1,0-0.1,0c-0.1,0-0.1,0-0.1,0.1s0.3,0.3,0.6,0.3c0.1,0,0.3,0.1,0.2,0
	S108.9,38.8,108.5,38.8z"/>
<path class="st0" d="M151.4,35.2c-0.2,0-0.5-0.2-0.7,0s-0.4-0.1-0.7,0c0.3,0,0.3,0.2,0.5,0.2S151.1,35.2,151.4,35.2
	C151.4,35.3,151.4,35.2,151.4,35.2z"/>
<path class="st0" d="M137.7,1.3c0.3-0.2,0.5,0,0.8,0s0.4,0.1,0.4,0s0.6-0.3,0.4-0.5c0,0,0.1,0,0.1-0.1c-0.2,0-0.3-0.1-0.5-0.1
	c-0.2,0-0.4-0.1-0.5,0.1S138.4,1,138.8,1c0,0,0.2,0,0.2,0.1c-0.4,0-0.4,0-0.5-0.2c0,0-0.1-0.1-0.2-0.1c-0.1,0-0.2,0-0.2,0.1
	s0,0.1,0.1,0.1s0.2,0,0.3,0l0,0c-0.2,0-0.5,0-0.7,0c-0.1,0-0.2,0-0.3,0c-0.1,0-0.1,0.1,0,0.1C137.5,1.3,137.6,1.3,137.7,1.3z"/>
<path class="st0" d="M55.1,3.3c0.1,0,0.3,0,0.3-0.1S55.2,3.1,55,3.1s-0.3,0-0.2,0.1S54.8,3.4,55.1,3.3z"/>
<path class="st0" d="M97.2,39c-0.1-0.1-0.3-0.1-0.4,0c-0.1,0-0.1,0.1-0.1,0.1s0.2,0.1,0.3,0.1c0.3,0,0.6-0.1,0.9-0.1
	C97.8,39,97.5,38.9,97.2,39z"/>
<path class="st0" d="M146.6,29.1c0.1-0.1,0-0.1-0.2-0.1s0,0,0,0s-0.3-0.1-0.5-0.1s-0.1,0.1-0.1,0.1s-0.1,0.2,0.1,0.2
	c0.1,0,0.2,0,0.4,0C146.4,29.2,146.5,29.2,146.6,29.1z"/>
<path class="st0" d="M164.8,31c0.5,0.1,0.9,0.1,1.4,0C165.7,31,165.3,31,164.8,31z"/>
<path class="st0" d="M157.4,27.4h-0.1c-0.1,0-0.1,0-0.2,0c-0.1,0-0.3,0-0.2,0.1s0.2,0,0.3,0S157.4,27.5,157.4,27.4
	c0.1,0.1,0.3,0.2,0.3,0.1S157.5,27.4,157.4,27.4z"/>
<path class="st0" d="M136.7,1.1c0.2,0,0.3,0,0.5,0c0.1,0,0.2,0,0.1-0.1s-0.1,0-0.1,0C137,1,136.8,1,136.7,1.1
	c-0.1-0.1-0.2-0.1-0.2-0.1c0,0-0.1,0.1,0,0.1C136.5,1.1,136.6,1.1,136.7,1.1z"/>
<path class="st0" d="M134.3,37.8c-0.1,0-0.2,0-0.2,0.1s0,0.2,0.2,0.1s0.3,0,0.4-0.1S134.4,37.8,134.3,37.8z"/>
<path class="st0" d="M60.9,3C60.9,3,61,3,61,3c-0.1-0.1-0.2-0.3-0.3-0.3c-0.1,0-0.2,0.1-0.2,0.1S60.8,3,60.9,3z"/>
<path class="st0" d="M73.3,2.6c0.1,0,0.3,0,0.3-0.1s-0.2-0.1-0.3-0.1s-0.3,0-0.3,0.1S73.1,2.6,73.3,2.6z"/>
<path class="st0" d="M67.3,2.9c0.1,0,0.2,0,0.2-0.1c0-0.1-0.1-0.1-0.2-0.1c0,0,0,0,0,0c-0.1,0-0.2,0-0.3,0h-0.3c-0.1,0-0.2,0-0.2,0
	s0.1,0.1,0.2,0.1C66.8,3,67.1,2.8,67.3,2.9z"/>
<path class="st0" d="M127.9,38.3c-0.1,0-0.2,0-0.2,0.1c0,0.1,0.1,0.2,0.3,0.2c0.1,0,0.2,0,0.1-0.1S128.1,38.3,127.9,38.3z"/>
<path class="st0" d="M120.3,38.7c-0.2,0-0.4,0-0.4,0.2l0.4-0.1c0.1,0,0.1,0,0.1-0.1C120.4,38.7,120.4,38.7,120.3,38.7
	C120.3,38.7,120.3,38.7,120.3,38.7z"/>
<path class="st0" d="M158.8,17.7c0,0.1-0.1,0.2-0.1,0.4C159,18,159,18,158.8,17.7z"/>
<circle class="st0" cx="158.7" cy="18.1" r="0"/>
<path class="st0" d="M139.4,37.7c-0.1,0-0.2,0-0.3,0.1s0.1,0.1,0.2,0.1s0.2,0,0.2-0.1S139.5,37.7,139.4,37.7z"/>
<path class="st0" d="M146.9,17.3c0,0.1,0.1,0.1,0.2,0.1s0.2,0,0.2-0.1s-0.1-0.1-0.2-0.1S146.9,17.2,146.9,17.3z"/>
<path class="st0" d="M146,29.5c0,0.1,0.1,0.1,0.2,0.1s0.2,0,0.2-0.1s-0.1-0.1-0.2-0.1S146,29.4,146,29.5z"/>
<path class="st0" d="M146,2.5c0,0.1,0.1,0.1,0.1,0.1s0.2,0,0.3-0.1s-0.1-0.1-0.2-0.1S146,2.4,146,2.5z"/>
<path class="st0" d="M160.1,33.6c-0.1,0-0.3,0-0.4,0C159.7,33.7,159.7,33.7,160.1,33.6z"/>
<circle class="st0" cx="159.7" cy="33.5" r="0"/>
<path class="st0" d="M142.6,29.2c-0.1,0-0.2,0-0.2,0.1c0,0,0,0,0,0c0,0.1,0,0.1,0.1,0.1s0.3,0,0.4,0s-0.1-0.1-0.2-0.1
	S142.8,29.2,142.6,29.2z"/>
<path class="st0" d="M163.4,24.9c0.1,0.1,0.3,0.1,0.4,0.1c0,0,0.1,0,0-0.1C163.7,24.9,163.5,24.9,163.4,24.9z"/>
<path class="st0" d="M154.4,29.6c0.2,0,0.4,0,0.6,0C154.8,29.5,154.6,29.5,154.4,29.6z"/>
<path class="st0" d="M142.9,29.2c0,0,0,0.1,0.1,0.1s0.3,0,0.2-0.1S143,29.1,142.9,29.2z"/>
<polygon class="st0" points="143.2,29.1 143.2,29.1 143.2,29.1 143.2,29.1 143.2,29.1 "/>
<path class="st0" d="M146.5,16.8L146.5,16.8l-0.5-0.1C146.2,16.9,146.4,16.9,146.5,16.8z"/>
<path class="st0" d="M162.4,22.6c0.2,0,0.3,0.1,0.4,0s0-0.1-0.1-0.1S162.5,22.6,162.4,22.6z"/>
<path class="st0" d="M118.7,0.8L118.7,0.8c0.1,0,0.2,0,0.3,0c0,0,0-0.1,0-0.1S118.8,0.7,118.7,0.8c0-0.1-0.4-0.1-0.3,0
	C118.3,0.9,118.5,0.8,118.7,0.8z"/>
<path class="st0" d="M111.9,0.8c0-0.1-0.1-0.1-0.2-0.1s-0.2,0-0.1,0.1c0,0.1,0.1,0.1,0.2,0.1C111.8,0.8,111.9,0.8,111.9,0.8z"/>
<path class="st0" d="M100.4,38.4c-0.1,0-0.2,0-0.3,0.1c0.1,0.1,0.2,0.1,0.4,0C100.5,38.5,100.5,38.4,100.4,38.4z"/>
<path class="st0" d="M120.2,38.4c0,0,0-0.1-0.1-0.1s-0.1,0-0.1,0.1S120,38.5,120.2,38.4C120.2,38.5,120.2,38.5,120.2,38.4
	C120.2,38.4,120.2,38.4,120.2,38.4z"/>
<path class="st0" d="M145.4,2.6C145.4,2.6,145.5,2.6,145.4,2.6c0.2,0,0.2,0,0.3-0.1c0,0,0-0.1-0.1-0.1
	C145.5,2.4,145.4,2.5,145.4,2.6z"/>
<path class="st0" d="M146.6,28.7c0,0-0.1-0.1-0.1,0s-0.1,0-0.1,0.1c0,0,0.1,0.1,0.2,0.1C146.6,28.8,146.7,28.7,146.6,28.7z"/>
<path class="st0" d="M165.6,3.7c0,0-0.1,0-0.1,0s-0.1,0-0.1,0.1s0.1,0.1,0.1,0.1S165.6,3.7,165.6,3.7z"/>
<path class="st0" d="M122.1,38.6c0,0-0.1,0-0.1,0c-0.1,0.1,0,0.1,0.1,0.1h0.1C122.2,38.7,122.2,38.7,122.1,38.6z"/>
<path class="st0" d="M138.1,38.1c-0.1,0-0.1,0-0.1,0s0,0.1,0.1,0.1s0.1,0,0.1-0.1S138.2,38.1,138.1,38.1z"/>
<path class="st0" d="M131,37.2c0,0-0.1,0-0.1-0.1s-0.1,0-0.1,0.1s0,0.1,0.1,0.1S131,37.3,131,37.2z"/>
<polygon class="st0" points="129.4,1.7 129.4,1.7 129.4,1.7 "/>
<circle class="st0" cx="152.1" cy="1.5" r="0"/>
<polygon class="st0" points="128.4,37.6 128.4,37.6 128.4,37.6 "/>
<polygon class="st0" points="103.9,2.2 103.9,2.2 103.9,2.2 "/>
<path class="st0" d="M131.9,3C131.9,3,131.9,3.1,131.9,3c0.2,0.2,0.4,0.1,0.5,0C132.2,3,132,3,131.9,3z"/>
<path class="st0" d="M125.8,1.6c0,0,0,0.1,0.1,0.1s0.1,0,0.1-0.1s0-0.1-0.1-0.1S125.9,1.5,125.8,1.6z"/>
<path class="st0" d="M89.8,2.5c0-0.1-0.2-0.1-0.2-0.1s-0.2,0-0.2,0.1c0.1,0.1,0.2,0.1,0.2,0.1C89.8,2.6,89.9,2.6,89.8,2.5z"/>
<path class="st0" d="M152.4,26.7c0,0.1,0.1,0.1,0.2,0.1s0.2,0,0.1-0.1s-0.1-0.1-0.2-0.1S152.4,26.7,152.4,26.7z"/>
<path class="st0" d="M138.2,2.8c-0.1,0-0.3,0-0.4,0.1C138.1,2.9,138.1,2.9,138.2,2.8z"/>
<path class="st0" d="M14,12.7c0.2,0.1,0.4,0.1,0.6,0.1c0.8,0,1.5,0.1,2.2,0.2c0.2,0.1,0.3,0.1,0.5,0.1c0.1,0,0.3,0,0.3-0.1
	s-0.2,0-0.3-0.1c-0.1,0-0.2-0.1-0.3-0.1c-0.9-0.1-1.8-0.2-2.7-0.2C14.1,12.7,14,12.7,14,12.7z"/>
<path class="st0" d="M2.4,18.5c-0.1-0.1-0.3-0.1-0.4-0.1c-0.2,0-0.2,0.1-0.3,0.2s0,0.1,0.1,0.2h0.2c0.2,0,0.3,0,0.4-0.1
	S2.5,18.5,2.4,18.5z"/>
<path class="st0" d="M27.3,35.7c-0.2,0.1-0.4,0-0.6-0.1c-0.1,0-0.1,0-0.2,0c-0.1,0-0.3,0.1-0.3,0.2s0.1,0.1,0.3,0.1
	c0.3,0.1,0.5,0.1,0.8,0c0.1,0,0.1,0,0.1-0.1C27.4,35.8,27.4,35.7,27.3,35.7C27.4,35.7,27.3,35.7,27.3,35.7z"/>
<path class="st0" d="M5.3,19c-0.9-0.1-1.8-0.2-2.7-0.3C3.5,19,4.4,19,5.3,19z"/>
<path class="st0" d="M2.8,8c0.3,0,0.7,0,1,0c-0.3-0.1-0.7-0.2-1-0.1c-0.1,0-0.1,0-0.1,0.1S2.7,8,2.8,8z"/>
<path class="st0" d="M10.7,22.6c0-0.1-0.2-0.1-0.4-0.1c-0.2,0-0.3,0-0.3,0.1s0.2,0,0.3,0.1h0C10.5,22.6,10.7,22.7,10.7,22.6z"/>
<path class="st0" d="M6.8,11.7C6.8,11.7,6.8,11.6,6.8,11.7c-0.4-0.1-0.8,0-1.1,0.1L6.8,11.7C6.8,11.7,6.8,11.7,6.8,11.7z"/>
<path class="st0" d="M19.1,35.2c0.1,0.2-0.1,0.1-0.3,0.1l0,0c0.1,0.1,0.2,0.1,0.3,0.1c0.1,0,0-0.2,0.1-0.2S19.2,35.1,19.1,35.2
	C19,35.1,19.1,35.2,19.1,35.2z"/>
<path class="st0" d="M15.7,11.4c-0.1,0.2,0.1,0.1,0.2,0.1s0.2,0,0.2-0.1c0-0.1-0.1-0.2-0.2-0.2c0,0,0,0,0,0
	C15.8,11.3,15.6,11.3,15.7,11.4z"/>
<path class="st0" d="M7.6,11c0.2-0.1,0.4-0.1,0.7-0.1c0,0,0.1,0,0.1-0.1c0-0.1-0.1,0-0.1,0H7.9c-0.1,0-0.3,0-0.4,0
	c-0.1,0-0.2,0-0.2,0.1C7.3,11,7.4,11,7.5,11C7.6,11,7.5,11,7.6,11z"/>
<path class="st0" d="M4.1,18.2c0.3,0,0.6,0.1,0.9,0.1C4.3,18.1,4.3,18.1,4.1,18.2z"/>
<path class="st0" d="M27,36.2c-0.1,0.1-0.1,0-0.2,0s-0.1-0.1-0.2,0s0,0,0,0c0.1,0.1,0.1,0.1,0.2,0.1L27,36.2c0.1,0.1,0.2,0.1,0.2,0
	S27.1,36.2,27,36.2z"/>
<path class="st0" d="M17.7,17.8c0-0.1-0.1-0.1-0.1-0.1c-0.1,0-0.3,0-0.4,0.1c0,0.1,0.1,0.1,0.1,0.1S17.6,18,17.7,17.8z"/>
<path class="st0" d="M12.6,17.7c0-0.1-0.1-0.1-0.2-0.1s-0.2,0-0.2,0.1s0.1,0,0.2,0.1C12.5,17.8,12.6,17.8,12.6,17.7z"/>
<path class="st0" d="M10.6,17.8h0.3c0.1,0,0.2,0,0.1-0.1c-0.1-0.1-0.3-0.1-0.4-0.2C10.6,17.6,10.4,17.8,10.6,17.8z"/>
<path class="st0" d="M10.1,24.5c0,0,0.1,0.1,0.1,0.1c0.1,0,0.2-0.1,0.3-0.1c0,0-0.1,0-0.1,0C10.3,24.3,10.2,24.4,10.1,24.5z"/>
<path class="st0" d="M17.5,6.2c-0.2-0.1-0.5-0.1-0.7,0C17,6.2,17.2,6.2,17.5,6.2z"/>
<path class="st0" d="M15.9,11.2c0.2,0.1,0.3,0,0.6,0C16.1,11.1,16.1,11.1,15.9,11.2z"/>
<path class="st0" d="M25.1,35.9c-0.1,0-0.1,0-0.1,0.1s0.1,0.1,0.2,0.1s0.1,0,0.1-0.1S25.2,35.9,25.1,35.9z"/>
<path class="st0" d="M11.5,10.7c0.1,0,0.2,0,0.1-0.1c-0.1,0.1-0.2,0.1-0.4,0.1C11.3,10.7,11.4,10.7,11.5,10.7z"/>
<path class="st0" d="M13.4,34.4c-0.1,0-0.1,0-0.1,0.1c0,0.1,0.1,0.1,0.1,0.1c0.1,0,0.1,0,0.1-0.1C13.6,34.4,13.5,34.4,13.4,34.4z"/>
<path class="st0" d="M23.9,35.9C23.9,35.9,23.9,35.9,23.9,35.9c0,0.1,0.2,0.1,0.3,0.1C24.2,35.9,24,35.8,23.9,35.9z"/>
<path class="st0" d="M21.6,35.5c-0.1,0-0.1,0-0.1,0.1s0.1,0.1,0.1,0.1s0.1,0,0.1-0.1C21.7,35.5,21.6,35.5,21.6,35.5z"/>
<path class="st0" d="M20.4,35.2c-0.1,0-0.1,0-0.1,0.1s0,0.1,0.1,0.1s0.1,0,0.1-0.1S20.4,35.2,20.4,35.2z"/>
<path class="st0" d="M13.9,22.6c-0.1-0.1-0.2-0.1-0.3-0.1c0,0,0,0,0,0.1C13.7,22.6,13.8,22.7,13.9,22.6z"/>
<path class="st0" d="M2.7,21.9c-0.1,0-0.2,0-0.3,0c0,0,0,0,0,0C2.5,22,2.6,22,2.7,21.9z"/>
<path class="st0" d="M1.4,20.5c0,0-0.1,0-0.1-0.1s-0.1,0-0.1,0.1s0.1,0,0.1,0S1.4,20.6,1.4,20.5z"/>
<path class="st0" d="M7.2,18c0.1,0,0.2,0,0.3,0c0,0,0,0,0-0.1C7.4,17.9,7.3,17.9,7.2,18z"/>
</svg>
